<svg width="80" height="24" viewBox="0 0 80 24" fill="none" xmlns="http://www.w3.org/2000/svg">
<path d="M79.4694 21.1667C79.4694 21.4687 79.4106 21.7678 79.2963 22.0469C79.1821 22.3259 79.0146 22.5794 78.8035 22.7929C78.5923 23.0064 78.3417 23.1756 78.0659 23.291C77.7902 23.4064 77.4946 23.4656 77.1962 23.4653H2.80402C2.20107 23.4659 1.62256 23.2241 1.1957 22.7931C0.768853 22.362 0.528618 21.777 0.527832 21.1667V2.83581C0.528617 2.22521 0.768758 1.63988 1.19552 1.20834C1.62229 0.776805 2.2008 0.534338 2.80402 0.53418H77.1956C77.4942 0.53418 77.7898 0.593718 78.0657 0.709393C78.3415 0.825068 78.5921 0.994615 78.8032 1.20835C79.0143 1.42208 79.1818 1.67582 79.296 1.95506C79.4102 2.2343 79.4689 2.53359 79.4688 2.83581L79.4694 21.1667Z" fill="white"/>
<path d="M77.1961 24H2.80388C2.06112 23.9998 1.34875 23.7014 0.823087 23.1702C0.297427 22.6391 0.00141328 21.9185 0 21.1666L0 2.83638C0.00109882 2.08415 0.296917 1.36308 0.82256 0.831349C1.3482 0.299613 2.06075 0.000634906 2.80388 0L77.1955 0C77.9385 0.00095171 78.6509 0.300032 79.1764 0.831699C79.702 1.36337 79.9979 2.08425 79.9993 2.83638V21.1666C80.0005 22.7295 78.7406 24 77.1961 24Z" fill="#A6A6A6"/>
<path d="M79.4694 21.1667C79.4694 21.4687 79.4106 21.7678 79.2963 22.0469C79.1821 22.3259 79.0146 22.5794 78.8035 22.7929C78.5923 23.0064 78.3417 23.1756 78.0659 23.291C77.7902 23.4064 77.4946 23.4656 77.1962 23.4653H2.80402C2.20107 23.4659 1.62256 23.2241 1.1957 22.7931C0.768853 22.362 0.528618 21.777 0.527832 21.1667V2.83581C0.528617 2.22521 0.768758 1.63988 1.19552 1.20834C1.62229 0.776805 2.2008 0.534338 2.80402 0.53418H77.1956C77.4942 0.53418 77.7898 0.593718 78.0657 0.709393C78.3415 0.825068 78.5921 0.994615 78.8032 1.20835C79.0143 1.42208 79.1818 1.67582 79.296 1.95506C79.4102 2.2343 79.4689 2.53359 79.4688 2.83581L79.4694 21.1667Z" fill="black"/>
<path d="M17.8633 11.8736C17.8461 9.93931 19.428 8.99825 19.5003 8.95444C18.6044 7.63227 17.2158 7.45162 16.7278 7.43722C15.5616 7.31299 14.4303 8.14362 13.8362 8.14362C13.2302 8.14362 12.3154 7.44922 11.3294 7.46963C10.0605 7.48944 8.87352 8.23304 8.2225 9.38776C6.87896 11.7422 7.88099 15.2022 9.1682 17.1053C9.8121 18.0379 10.5645 19.078 11.5493 19.0414C12.5128 19.0018 12.8727 18.4202 14.0354 18.4202C15.1875 18.4202 15.5254 19.0414 16.5298 19.018C17.5638 19.0018 18.2149 18.0818 18.8362 17.1413C19.5803 16.0736 19.8792 15.0209 19.891 14.9669C19.8673 14.9585 17.8834 14.1915 17.8633 11.8736ZM15.9659 6.18528C16.4842 5.5293 16.8387 4.63685 16.7403 3.7312C15.9903 3.76481 15.0523 4.25635 14.5121 4.89792C14.0342 5.46328 13.6073 6.38993 13.7176 7.26137C14.5601 7.32499 15.4252 6.83105 15.9659 6.18528Z" fill="white"/>
<path d="M77.1961 0H37.3494L52.9566 24H77.1961C77.939 23.9994 78.6514 23.7006 79.177 23.1691C79.7026 22.6376 79.9985 21.9168 80 21.1648V2.83638C79.9987 2.0842 79.7028 1.36322 79.1772 0.831524C78.6516 0.299823 77.9392 0.000793368 77.1961 0Z" fill="url(#paint0_linear_6906_23735)"/>
<path d="M31.8186 18.9075H30.4721L29.7345 16.5614H27.1708L26.4682 18.9075H25.1572L27.6979 10.9205H29.2667L31.8186 18.9075ZM29.5122 15.5772L28.8451 13.4916C28.7746 13.2785 28.6418 12.7768 28.4473 11.987H28.4236C28.3453 12.3267 28.2202 12.8284 28.0489 13.4916L27.3931 15.5772H29.5122ZM38.3395 15.9571C38.3395 16.9365 38.0768 17.7107 37.5509 18.2791C37.0801 18.785 36.4949 19.0377 35.797 19.0377C35.0435 19.0377 34.5015 18.7658 34.1725 18.2209V21.2427H32.9084V15.0412C32.9084 14.426 32.8924 13.7953 32.8615 13.1483H33.9732L34.0438 14.0611H34.0675C34.4891 13.3734 35.1288 13.0295 35.9874 13.0295C36.6585 13.0295 37.2189 13.2977 37.6671 13.8349C38.1147 14.3732 38.3395 15.0802 38.3395 15.9571ZM37.0517 16.0039C37.0517 15.4433 36.9271 14.9812 36.6769 14.6169C36.4036 14.2382 36.0366 14.0485 35.5765 14.0485C35.2646 14.0485 34.9812 14.1542 34.728 14.3624C34.4743 14.5725 34.3082 14.8468 34.2306 15.1865C34.1959 15.3135 34.1762 15.4442 34.1719 15.576V16.5368C34.1719 16.9551 34.2988 17.3086 34.5525 17.5979C34.8063 17.886 35.1359 18.0306 35.5415 18.0306C36.0176 18.0306 36.3882 17.844 36.6532 17.4737C36.9188 17.1022 37.0517 16.6124 37.0517 16.0039ZM44.8834 15.9571C44.8834 16.9365 44.6208 17.7107 44.0949 18.2791C43.6235 18.785 43.0389 19.0377 42.3404 19.0377C41.5868 19.0377 41.0449 18.7658 40.7158 18.2209V21.2427H39.4518V15.0412C39.4518 14.426 39.4358 13.7953 39.4049 13.1483H40.5166L40.5872 14.0611H40.6109C41.0319 13.3734 41.6716 13.0295 42.5308 13.0295C43.2013 13.0295 43.7616 13.2977 44.2111 13.8349C44.6581 14.3732 44.8834 15.0802 44.8834 15.9571ZM43.595 16.0039C43.595 15.4433 43.4699 14.9812 43.2197 14.6169C42.9464 14.2382 42.5806 14.0485 42.1205 14.0485C41.8086 14.0485 41.5252 14.1542 41.2708 14.3624C41.0171 14.5725 40.8516 14.8468 40.774 15.1865C40.7354 15.3449 40.7147 15.4739 40.7147 15.576V16.5368C40.7147 16.9551 40.8421 17.3086 41.0947 17.5979C41.3485 17.8854 41.6782 18.0306 42.0849 18.0306C42.5616 18.0306 42.9322 17.844 43.1966 17.4737C43.4622 17.1022 43.595 16.6124 43.595 16.0039ZM52.2 16.6671C52.2 17.347 51.9652 17.8998 51.4986 18.3265C50.9851 18.7922 50.2683 19.0257 49.3493 19.0257C48.5002 19.0257 47.8195 18.8601 47.3061 18.5282L47.5984 17.4617C48.1528 17.7942 48.7617 17.9598 49.4246 17.9598C49.9013 17.9598 50.2718 17.8506 50.5363 17.6339C50.8013 17.4167 50.9353 17.1262 50.9353 16.7637C50.9353 16.439 50.8244 16.1671 50.6068 15.9457C50.388 15.7248 50.0264 15.5189 49.5182 15.3299C48.1367 14.8083 47.4454 14.0455 47.4454 13.0421C47.4454 12.3867 47.6897 11.8501 48.1771 11.4306C48.6644 11.0117 49.3107 10.8022 50.1147 10.8022C50.8327 10.8022 51.431 10.9289 51.9059 11.1816L51.5887 12.2246C51.1416 11.9798 50.6371 11.8573 50.0726 11.8573C49.6267 11.8573 49.2769 11.9684 49.0267 12.1892C48.8162 12.3867 48.7095 12.6273 48.7095 12.913C48.7095 13.2281 48.831 13.4898 49.073 13.695C49.2828 13.8841 49.6659 14.0899 50.2196 14.3108C50.8991 14.5881 51.3984 14.911 51.7179 15.2819C52.0399 15.6528 52.2 16.1155 52.2 16.6671ZM56.3901 14.1086H54.9968V16.9047C54.9968 17.6159 55.2422 17.9706 55.7343 17.9706C55.9602 17.9706 56.1476 17.9514 56.2958 17.9112L56.3308 18.8829C56.0818 18.9771 55.7539 19.0245 55.3478 19.0245C54.8485 19.0245 54.4584 18.8703 54.1768 18.5618C53.8963 18.2533 53.7552 17.7366 53.7552 17.0092V14.1062H52.9251V13.1459H53.7552V12.0914L54.9968 11.7121V13.1459H56.3901V14.1086ZM62.6643 15.9805C62.6643 16.8657 62.4141 17.5925 61.9149 18.1609C61.3925 18.746 60.6976 19.0377 59.8314 19.0377C58.9954 19.0377 58.3307 18.7574 57.835 18.1975C57.3393 17.6363 57.0915 16.9293 57.0915 16.0765C57.0915 15.1841 57.3476 14.4531 57.8581 13.8847C58.3698 13.3157 59.0588 13.0313 59.925 13.0313C60.7599 13.0313 61.4304 13.3121 61.938 13.8727C62.423 14.4164 62.6643 15.1186 62.6643 15.9805ZM61.354 16.0099C61.354 15.4823 61.2413 15.0298 61.0154 14.6511C60.7504 14.1938 60.3709 13.9651 59.8794 13.9651C59.373 13.9651 58.9847 14.1938 58.7202 14.6511C58.4937 15.0298 58.3811 15.4901 58.3811 16.0339C58.3811 16.562 58.4937 17.0158 58.7202 17.3933C58.9936 17.8506 59.3748 18.0792 59.8687 18.0792C60.3519 18.0792 60.7308 17.8458 61.0047 17.3819C61.2372 16.9941 61.354 16.5386 61.354 16.0099ZM66.775 14.2736C66.6435 14.2496 66.5101 14.2377 66.3765 14.2382C65.9318 14.2382 65.5879 14.4074 65.346 14.7483C65.1361 15.0484 65.0306 15.4277 65.0306 15.8856V18.9075H63.7665V14.962C63.7676 14.3574 63.7554 13.7529 63.7298 13.1489H64.8308L64.877 14.2508H64.912C65.046 13.8721 65.2559 13.5666 65.5441 13.3379C65.8078 13.1381 66.1283 13.0299 66.4578 13.0295C66.5746 13.0295 66.6801 13.0379 66.7738 13.0529L66.775 14.2736ZM72.4284 15.7554C72.4316 15.9499 72.4161 16.1443 72.3821 16.3358H68.5899C68.6041 16.9047 68.7879 17.3404 69.1401 17.6405C69.4597 17.9082 69.8729 18.0426 70.3805 18.0426C70.942 18.0426 71.4542 17.9526 71.9149 17.7708L72.113 18.6584C71.5746 18.8961 70.939 19.0143 70.2056 19.0143C69.3233 19.0143 68.6308 18.7514 68.1268 18.2269C67.624 17.7017 67.372 16.9959 67.372 16.1119C67.372 15.2441 67.6062 14.5209 68.0752 13.9441C68.5662 13.3283 69.2296 13.0205 70.0644 13.0205C70.8844 13.0205 71.5052 13.3283 71.9268 13.9441C72.2606 14.432 72.4284 15.037 72.4284 15.7554ZM71.223 15.4235C71.2319 15.0436 71.1489 14.7165 70.9775 14.4398C70.7587 14.0833 70.422 13.9057 69.9708 13.9057C69.5575 13.9057 69.2207 14.0791 68.9646 14.4272C68.7541 14.7039 68.629 15.0364 68.5905 15.4223L71.223 15.4235Z" fill="white"/>
<path d="M26.8062 8.09705C26.4546 8.09705 26.1504 8.07965 25.8972 8.05024V4.18878C26.2513 4.13341 26.6091 4.10612 26.9674 4.10715C28.4171 4.10715 29.0847 4.82915 29.0847 6.00608C29.0847 7.36365 28.2961 8.09705 26.8062 8.09705ZM27.0184 4.60229C26.8228 4.60229 26.6561 4.61429 26.518 4.6431V7.57851C26.5927 7.59051 26.7362 7.59591 26.9378 7.59591C27.8876 7.59591 28.4284 7.04856 28.4284 6.02348C28.4284 5.10943 27.9392 4.60229 27.0184 4.60229ZM31.1652 8.12646C30.3482 8.12646 29.8187 7.50889 29.8187 6.67046C29.8187 5.79662 30.3595 5.17365 31.2115 5.17365C32.0167 5.17365 32.558 5.76181 32.558 6.62425C32.558 7.50889 32.0001 8.12646 31.1652 8.12646ZM31.189 5.63337C30.7401 5.63337 30.4526 6.05829 30.4526 6.65245C30.4526 7.23521 30.7461 7.66013 31.183 7.66013C31.62 7.66013 31.9135 7.20581 31.9135 6.64045C31.9135 6.06429 31.6259 5.63337 31.189 5.63337ZM37.2171 5.23186L36.3426 8.06224H35.7728L35.4105 6.8331C35.3204 6.53245 35.2454 6.22737 35.1858 5.91905H35.1739C35.1283 6.22754 35.0417 6.53662 34.9498 6.8331L34.5644 8.06224H33.9887L33.1657 5.23186H33.8043L34.1209 6.57743C34.1956 6.89792 34.2585 7.2004 34.3106 7.48608H34.3225C34.3682 7.24782 34.4429 6.95014 34.5526 6.58343L34.9498 5.23246H35.4562L35.8362 6.55463C35.9281 6.87511 36.0028 7.1896 36.0609 7.48668H36.0775C36.1178 7.1956 36.1813 6.88652 36.2673 6.55463L36.607 5.23246L37.2171 5.23186ZM40.4366 8.06224H39.8152V6.43699C39.8152 5.93646 39.6255 5.68559 39.2514 5.68559C38.8832 5.68559 38.63 6.00608 38.63 6.37878V8.06224H38.0086V6.04089C38.0086 5.79062 38.0027 5.52234 37.9855 5.23126H38.5322L38.5612 5.66818H38.5784C38.7456 5.3657 39.0848 5.17365 39.4648 5.17365C40.0518 5.17365 40.4372 5.62797 40.4372 6.36738L40.4366 8.06224ZM42.1501 8.06224H41.5282V3.93311H42.1501V8.06224ZM44.4157 8.12646C43.5992 8.12646 43.0692 7.50889 43.0692 6.67046C43.0692 5.79662 43.6099 5.17365 44.4613 5.17365C45.2671 5.17365 45.8078 5.76181 45.8078 6.62425C45.8084 7.50889 45.2499 8.12646 44.4157 8.12646ZM44.4388 5.63337C43.9899 5.63337 43.7024 6.05829 43.7024 6.65245C43.7024 7.23521 43.9965 7.66013 44.4323 7.66013C44.8698 7.66013 45.1627 7.20581 45.1627 6.64045C45.1633 6.06429 44.8764 5.63337 44.4388 5.63337ZM48.2577 8.06224L48.2127 7.73635H48.1961C48.0063 7.99862 47.7294 8.12646 47.3784 8.12646C46.8774 8.12646 46.5217 7.77116 46.5217 7.29343C46.5217 6.59484 47.1199 6.23354 48.1558 6.23354V6.18132C48.1558 5.80862 47.9607 5.62197 47.5753 5.62197C47.2996 5.62197 47.0577 5.69219 46.8448 5.83203L46.7185 5.41851C46.977 5.25527 47.2996 5.17365 47.6785 5.17365C48.4089 5.17365 48.7777 5.56375 48.7777 6.34457V7.38706C48.7777 7.67273 48.7902 7.8942 48.818 8.06284L48.2577 8.06224ZM48.1724 6.65245C47.4822 6.65245 47.1359 6.8217 47.1359 7.22321C47.1359 7.52029 47.3144 7.66553 47.5622 7.66553C47.8783 7.66553 48.1724 7.42127 48.1724 7.08937V6.65245ZM51.7951 8.06224L51.766 7.60792H51.7488C51.5703 7.95121 51.2703 8.12646 50.8511 8.12646C50.177 8.12646 49.6778 7.52629 49.6778 6.68186C49.6778 5.79662 50.1954 5.17305 50.9021 5.17305C51.2763 5.17305 51.5413 5.30088 51.6907 5.55775H51.7032V3.93311H52.3251V7.29943C52.3251 7.57311 52.3316 7.82938 52.3482 8.06224H51.7951ZM51.7032 6.39678C51.7032 6.00067 51.444 5.66278 51.0486 5.66278C50.5879 5.66278 50.3062 6.0763 50.3062 6.65846C50.3062 7.22921 50.5986 7.61992 51.0361 7.61992C51.4269 7.61992 51.7032 7.27603 51.7032 6.86851V6.39678ZM56.2686 8.12646C55.4521 8.12646 54.9227 7.50889 54.9227 6.67046C54.9227 5.79662 55.4634 5.17365 56.3148 5.17365C57.1206 5.17365 57.6613 5.76181 57.6613 6.62425C57.6619 7.50889 57.104 8.12646 56.2686 8.12646ZM56.2917 5.63337C55.8435 5.63337 55.5559 6.05829 55.5559 6.65245C55.5559 7.23521 55.8494 7.66013 56.2858 7.66013C56.7233 7.66013 57.0162 7.20581 57.0162 6.64045C57.0174 6.06429 56.7299 5.63337 56.2917 5.63337ZM61.003 8.06224H60.381V6.43699C60.381 5.93646 60.1913 5.68559 59.8172 5.68559C59.449 5.68559 59.1964 6.00608 59.1964 6.37878V8.06224H58.5744V6.04089C58.5744 5.79062 58.5685 5.52234 58.5513 5.23126H59.098L59.127 5.66818H59.1442C59.3108 5.3657 59.6506 5.17305 60.03 5.17305C60.617 5.17305 61.003 5.62737 61.003 6.36677V8.06224ZM65.1836 5.70359H64.5V7.07797C64.5 7.42787 64.6198 7.60251 64.8617 7.60251C64.9713 7.60251 65.0633 7.59051 65.1374 7.57311L65.1546 8.05084C65.0342 8.09765 64.8729 8.12106 64.6725 8.12106C64.1828 8.12106 63.8899 7.84738 63.8899 7.13079V5.70359H63.482V5.23186H63.8899V4.71332L64.5 4.52667V5.23126H65.1836V5.70359ZM68.4731 8.06224H67.8523V6.449C67.8523 5.94246 67.6632 5.68619 67.2885 5.68619C66.9665 5.68619 66.6665 5.90765 66.6665 6.35597V8.06224H66.0457V3.93311H66.6665V5.63337H66.6789C66.8746 5.32489 67.158 5.17305 67.5197 5.17305C68.1114 5.17305 68.4731 5.63877 68.4731 6.37878V8.06224ZM71.8432 6.79829H69.9785C69.9904 7.33424 70.3408 7.63672 70.8596 7.63672C71.1353 7.63672 71.389 7.58991 71.6132 7.50289L71.7098 7.93981C71.4454 8.05624 71.1341 8.11446 70.7718 8.11446C69.8973 8.11446 69.3797 7.5551 69.3797 6.68786C69.3797 5.82002 69.9097 5.16764 70.7019 5.16764C71.4163 5.16764 71.8646 5.70359 71.8646 6.51322C71.8686 6.60876 71.8614 6.70445 71.8432 6.79829ZM71.2734 6.34997C71.2734 5.91305 71.0558 5.60457 70.6586 5.60457C70.3016 5.60457 70.0194 5.91905 69.9791 6.34997H71.2734Z" fill="white"/>
<defs>
<linearGradient id="paint0_linear_6906_23735" x1="58.674" y1="24.0637" x2="58.674" y2="-62.4919" gradientUnits="userSpaceOnUse">
<stop stop-color="#1A1A1A" stop-opacity="0.1"/>
<stop offset="0.123" stop-color="#212121" stop-opacity="0.151"/>
<stop offset="0.308" stop-color="#353535" stop-opacity="0.227"/>
<stop offset="0.532" stop-color="#575757" stop-opacity="0.318"/>
<stop offset="0.783" stop-color="#858585" stop-opacity="0.421"/>
<stop offset="1" stop-color="#B3B3B3" stop-opacity="0.51"/>
</linearGradient>
</defs>
</svg>
