<svg width="515" height="91" viewBox="0 0 515 91" fill="none" xmlns="http://www.w3.org/2000/svg">
<g clip-path="url(#clip0_1046_8389)">
<path d="M120.151 47.5737V33.8405H124.651V47.3452C124.651 51.2372 126.42 52.9025 129.189 52.9025C131.958 52.9025 133.754 51.394 133.754 48.8145C133.754 45.804 130.541 45.2489 130.541 41.6181H135.04C135.204 43.6164 138.417 44.4588 138.417 49.2716C138.417 54.0845 134.59 57.1537 129.189 57.1537C123.789 57.1537 120.151 53.9212 120.151 47.5737ZM141.212 47.5737V46.1044H145.711V47.3452C145.711 51.2372 147.507 52.9025 150.276 52.9025C153.045 52.9025 154.814 51.2372 154.814 48.4227C154.814 43.1592 147.735 41.592 147.735 35.2445V33.834H152.235V34.9115C152.235 39.9463 159.47 40.3055 159.47 48.3117C159.47 53.9016 155.676 57.1406 150.269 57.1406C144.862 57.1406 141.212 53.9212 141.212 47.5737ZM162.422 48.5533V47.084H166.921V48.3247C166.921 51.2372 168.724 52.9025 171.297 52.9025C173.87 52.9025 175.705 51.2372 175.705 47.3452V43.8841C175.705 40.7365 173.739 39.6982 171.78 39.6982C169.116 39.6982 168.11 41.3961 168.11 43.1005V43.5576H163.611V43.1005C163.611 38.7774 166.824 35.7082 170.912 35.7082C172.492 35.7082 174.549 36.3351 175.705 38.2615V33.847H180.204V47.5803C180.204 53.9212 176.573 57.1602 171.297 57.1602C166.02 57.1602 162.422 53.9277 162.422 48.5663M183.319 47.5737V46.1044H187.825V47.3452C187.825 51.2372 189.621 52.9025 192.39 52.9025C195.159 52.9025 196.928 51.2372 196.928 48.4227C196.928 43.1592 189.849 41.592 189.849 35.2445V33.834H194.349V34.9115C194.349 39.9463 201.591 40.3055 201.591 48.3117C201.591 53.9016 197.797 57.1406 192.39 57.1406C186.983 57.1406 183.319 53.9081 183.319 47.5607M231.487 49.2324V56.7227H226.824V49.5981C226.824 47.0513 225.694 45.6799 223.801 45.6799C222.005 45.6799 220.49 46.986 220.49 49.3696V54.1106H215.86V49.3369C215.86 47.0513 214.736 45.6799 212.803 45.6799C211.008 45.6799 209.525 46.986 209.525 49.7026V56.7292H204.869V46.4309C204.869 36.1653 212.196 33.847 218.047 33.847H224.734V38.0983H218.687C213.737 38.0983 209.911 39.6655 209.231 43.3617C210.198 42.2189 211.615 41.4352 213.287 41.4352C215.089 41.4352 217.113 42.4801 218.178 45.0269C219.588 42.4801 221.743 41.4352 224.258 41.4352C228.561 41.4352 231.493 44.7331 231.493 49.2455M234.758 47.5737V42.996C234.758 36.6551 238.455 33.416 243.313 33.416C246.043 33.416 248.844 34.4935 249.941 37.406C251.352 34.4935 253.638 33.416 256.269 33.416C260.227 33.416 263.89 36.6485 263.89 42.0164V56.7227H259.384V42.1079C259.384 39.3325 257.908 37.6673 255.779 37.6673C253.651 37.6673 252.214 39.3325 252.214 42.1079V47.5672C252.214 53.9081 248.544 57.1472 243.47 57.1472C238.396 57.1472 234.758 53.9081 234.758 47.5672M247.715 47.3452V43.1005C247.715 39.339 245.919 37.6738 243.476 37.6738C241.034 37.6738 239.264 39.339 239.264 43.1005V47.3452C239.264 51.2372 241.034 52.9025 243.476 52.9025C245.919 52.9025 247.715 51.2372 247.715 47.3452ZM267.965 48.8798V47.7305H272.471V48.6512C272.471 51.1001 274.267 52.9286 277.192 52.9286C280.118 52.9286 281.888 51.7531 281.888 49.9247C281.888 47.9264 280.118 47.2342 278.224 47.2342H275.873V43.1201H278.224C280.118 43.1201 281.568 42.5585 281.568 40.7038C281.568 38.9733 279.961 37.6281 277.192 37.6281C274.267 37.6281 272.471 39.4631 272.471 41.5854V42.1732H267.965V41.3569C267.965 36.975 271.727 33.416 277.29 33.416C282.528 33.416 286.23 36.6485 286.23 40.5406C286.23 43.0221 284.82 44.3935 282.658 45.1445C285.14 45.6342 286.55 47.4301 286.55 50.1793C286.55 54.2281 282.756 57.1406 277.225 57.1406C271.694 57.1406 267.959 53.9016 267.959 48.8733M289.822 48.5533V47.084H294.328V48.4553C294.328 51.2372 296.13 52.909 298.729 52.909C301.328 52.909 303.105 51.2438 303.105 47.4823V43.1005C303.105 39.339 301.335 37.6738 298.729 37.6738C296.124 37.6738 294.328 39.339 294.328 42.1209V42.5062H289.822V42.0164C289.822 36.6551 293.486 33.416 298.729 33.416C303.973 33.416 307.604 36.6551 307.604 42.996V47.5737C307.604 53.9147 303.967 57.1537 298.729 57.1537C293.492 57.1537 289.822 53.9212 289.822 48.5598M310.882 44.1388V41.2263C310.882 36.7138 313.997 33.416 318.085 33.416C320.012 33.416 322.715 34.4609 323.773 37.0142C324.929 34.4609 327.378 33.416 329.246 33.416C330.885 33.416 333.49 34.4609 334.457 37.0142C335.711 34.4609 338.061 33.416 340.406 33.416C344.52 33.416 347.348 36.7138 347.348 41.2263V47.2407H342.848V41.3242C342.848 38.7709 341.66 37.3995 339.923 37.3995C338.284 37.3995 336.71 38.7121 336.71 41.0957V46.5877H332.204V41.063C332.204 38.7709 330.852 37.3995 329.082 37.3995C327.443 37.3995 326.033 38.7121 326.033 41.0957V46.5877H321.533V41.063C321.533 38.7709 320.338 37.3995 318.575 37.3995C316.936 37.3995 315.454 38.7121 315.454 41.4222V43.6751C315.454 49.6243 317.928 52.4649 325.967 52.4649H340.726V56.7162H325.321C318.764 56.7162 310.882 54.3979 310.882 44.1323M377.753 41.2263V56.7227H373.084V41.5854C373.084 39.0386 371.96 37.6673 370.067 37.6673C368.264 37.6673 366.756 38.9733 366.756 41.3569V50.8389H362.126V41.3242C362.126 39.0386 361.002 37.6673 359.063 37.6673C357.267 37.6673 355.785 38.9733 355.785 41.6834V56.7227H351.116V41.2263C351.116 36.7204 354.335 33.416 358.58 33.416C360.669 33.416 363.366 34.4609 364.431 37.0142C365.685 34.4609 368.036 33.416 370.537 33.416C374.847 33.416 377.74 36.7204 377.74 41.2263M382.344 47.5737V33.8405H386.843V47.3452C386.843 51.2372 388.613 52.9025 391.375 52.9025C394.137 52.9025 395.946 51.394 395.946 48.8145C395.946 45.804 392.727 45.2489 392.727 41.6181H397.226C397.383 43.6164 400.602 44.4588 400.602 49.2716C400.602 54.0845 396.782 57.1537 391.375 57.1537C385.968 57.1537 382.344 53.9212 382.344 47.5737ZM429.662 49.2324C429.662 53.8428 426.064 57.1472 420.565 57.1472C415.067 57.1472 411.527 53.8428 411.527 49.2324C411.527 45.1183 414.355 42.0752 418.861 41.4548V39.8223C418.861 37.3734 416.027 37.3734 416.027 33.8405H420.533C420.533 35.9302 423.36 36.322 423.36 39.1366V41.6899C427.246 42.6042 429.662 45.484 429.662 49.239M425.006 49.0757C425.006 46.6856 423.236 45.0269 420.565 45.0269C417.895 45.0269 416.19 46.6921 416.19 49.0757C416.19 51.4593 417.96 53.1637 420.565 53.1637C423.171 53.1637 425.006 51.4985 425.006 49.0757ZM432.464 47.5737V46.1044H436.963V47.3452C436.963 51.2372 438.759 52.9025 441.528 52.9025C444.297 52.9025 446.066 51.2372 446.066 48.4227C446.066 43.1592 438.987 41.592 438.987 35.2445V33.834H443.493V34.9115C443.493 39.9463 450.729 40.3055 450.729 48.3117C450.729 53.9016 446.935 57.1406 441.528 57.1406C436.121 57.1406 432.464 53.9081 432.464 47.5607M453.994 49.2063V40.4426C453.962 36.1653 457.854 33.8405 461.713 33.8405H470.522V37.726H462.386C460.361 37.726 458.494 38.6729 458.494 40.8671V43.8776C459.388 42.4017 461.034 41.3569 463.992 41.3569C468.204 41.3569 471.966 44.4327 471.966 49.2324C471.966 54.0322 468.204 57.1472 462.934 57.1472C457.664 57.1472 453.988 53.8428 453.988 49.2063M467.309 49.0757C467.309 46.7574 465.54 45.0922 462.941 45.0922C460.342 45.0922 458.5 46.7574 458.5 49.0757C458.5 51.394 460.263 53.1637 462.941 53.1637C465.618 53.1637 467.309 51.4985 467.309 49.0757ZM474.695 48.6839V47.737H479.201V48.4619C479.201 51.1066 480.997 52.9351 483.929 52.9351C486.861 52.9351 488.618 51.7597 488.618 49.2063C488.618 46.7836 486.855 45.7387 483.896 45.7387H481.963V41.6181H484.308C487.005 41.6181 488.135 40.5406 488.135 38.1244V33.8405H492.641V38.6468C492.641 41.1283 491.223 42.8327 488.748 43.5837C491.223 44.2694 493.281 45.9346 493.281 49.7287C493.281 53.9147 489.486 57.1537 483.955 57.1537C478.424 57.1537 474.695 53.9212 474.695 48.6904M497.075 42.8262C497.075 36.6485 500.712 33.416 505.793 33.416C510.873 33.416 514.53 36.6485 514.53 42.8262V56.7227H510.031V42.9242C510.031 39.3325 508.228 37.6673 505.786 37.6673C503.344 37.6673 501.568 39.3325 501.568 42.9242V56.7227H497.068V42.8262H497.075Z" fill="#707176"/>
<path d="M108.919 27.7019L97.5238 41.063V65.9043C97.5238 79.2849 86.6378 90.1709 73.2637 90.1709H32.077C24.3124 90.1709 17.3903 86.5009 12.9497 80.8065C12.1399 80.9305 11.2779 81.0024 10.3702 81.0024C7.4185 81.0024 0.0065918 78.9976 0.0065918 74.2696C0.0065918 72.0624 1.80243 70.2665 4.01621 70.2665C4.68883 70.2665 5.23737 70.4233 5.6945 70.6061C5.6945 70.6061 7.82338 71.4289 7.82338 70.051V24.7176C7.81685 11.337 18.6964 0.450928 32.077 0.450928H73.2637C96.4659 0.450928 104.446 16.8485 109.416 24.1298C110.147 25.2074 109.768 26.7093 108.926 27.6954" fill="#E7EAEA"/>
<path d="M105.125 24.4629C103.44 22.1186 98.9866 15.6993 96.0284 13.3026C93.5534 11.3239 90.6474 9.91339 86.9969 10.142C80.7017 10.5468 75.4709 15.8429 72.1535 19.8003C69.5806 22.863 61.692 27.7607 53.2744 29.9876C46.9139 31.6659 39.7371 30.8104 34.0557 30.399C30.9146 30.1704 28.0217 29.9419 25.5467 30.0659C16.6067 30.5165 11.2845 37.073 11.4934 44.6612C11.7089 52.367 17.0116 59.3871 17.0116 66.6227C17.0116 72.2975 12.4012 74.7986 9.21436 74.7986C5.41371 74.7986 5.15903 73.2444 4.00317 73.2444C3.53298 73.2444 2.99097 73.6297 2.99097 74.2566C2.99097 76.1765 7.69279 77.9985 10.3637 77.9985C17.4948 77.9985 20.4596 72.9113 20.4596 72.9113C20.4596 72.9113 22.275 78.1813 29.3081 78.1813C34.9111 78.1813 37.3404 75.5039 37.3404 73.264C37.3404 71.4877 36.5045 70.8412 35.7601 69.9988C29.8436 64.4872 27.8127 60.6344 28.8118 56.8598C29.8306 53.0004 33.8924 50.4471 36.9813 50.4928C36.9813 50.4928 32.717 52.8698 31.8223 57.1994C30.9015 61.64 35.6883 65.9631 36.9486 66.4267C36.9486 66.4267 38.2155 66.4267 38.5747 66.3941C41.7353 66.1068 42.7475 64.6244 42.7475 63.1681C42.7475 61.0784 40.3052 61.2221 40.3052 57.7937C40.3052 55.2011 41.7484 54.3457 43.0087 54.3457C44.3801 54.3457 49.5782 54.8485 55.8669 55.4885C57.9697 55.6974 63.207 57.7349 63.207 65.8717V68.7973C63.207 73.7603 65.2053 79.8988 73.9755 79.8988C79.9311 79.8988 83.2747 76.5814 83.2747 74.1782C83.2747 72.611 81.9033 71.9253 81.2241 70.9784C79.2389 68.1965 80.2185 64.3305 80.2185 64.3305H80.2577C81.0935 64.6048 82.0535 64.7615 83.1702 64.7615C87.5585 64.7615 89.6221 63.0244 89.6221 60.9413C89.6221 58.512 86.3374 58.5251 85.9913 56.3831C85.5668 53.7122 86.2786 41.8923 90.8629 35.362L94.4937 36.9946C95.0358 37.2428 95.6692 37.0926 96.0545 36.642L105.073 26.0825C105.458 25.6188 105.484 24.9592 105.132 24.4695" fill="#FF6022"/>
<path d="M20.355 50.5451C18.5984 48.7819 17.5078 46.3526 17.5078 43.6752C17.5078 38.3073 22.3011 33.1875 27.6625 33.1549C33.1087 33.1222 40.8276 34.5328 47.7824 33.9516C49.4933 42.1014 55.3836 47.5999 60.3336 51.2112C57.5256 50.2186 48.5203 43.6295 43.4528 40.8149C35.3878 36.3416 27.0747 35.4535 22.8235 39.3652C19.1665 42.7283 19.6759 47.7175 20.355 50.5451Z" fill="white"/>
<path d="M77.7368 61.1894V61.1567C77.7368 61.1567 73.1395 65.5255 75.2488 73.4599C73.9688 74.7006 71.0367 74.2304 69.7764 74.0345C70.5927 75.0728 76.8944 77.3715 79.1213 73.5839C74.8243 70.2535 77.6454 61.751 77.7368 61.1894Z" fill="white"/>
<path d="M96.0545 20.6232C95.7541 22.3015 93.8733 23.3659 91.8489 22.9937C89.8311 22.628 88.4401 20.9693 88.7536 19.2975C89.0605 17.6192 90.9347 16.5548 92.9656 16.927C94.977 17.2927 96.3679 18.9514 96.061 20.6297" fill="white"/>
<path d="M87.6499 34.6633C79.6437 34.1866 73.8448 29.426 72.2123 25.2858C71.84 24.3389 72.4212 23.6859 72.9894 23.4247C73.5575 23.1635 74.5044 23.3267 74.8636 24.241C77.1165 29.9942 81.6877 32.9655 87.6564 34.6568" fill="white"/>
<path d="M84.8419 41.1479C73.9493 40.8541 68.0851 36.5114 65.0616 30.1639C64.7416 29.4913 64.9245 28.6358 65.7669 28.2636C66.6093 27.8849 67.3537 28.2636 67.6411 28.9819C70.4295 36.0739 77.8218 40.2271 84.8484 41.1479" fill="white"/>
<path d="M56.9248 33.7294C61.2218 43.9493 70.8148 48.6512 82.8175 48.0047C71.7421 47.1557 63.207 42.0425 59.5565 32.6976C59.2104 31.816 58.4856 31.6005 57.8064 31.8095C57.1272 32.0185 56.5134 32.7694 56.9183 33.7294" fill="white"/>
<path d="M99.0845 21.0019C99.0845 21.0019 99.2151 24.9397 94.7026 26.9314C90.2294 28.9101 86.383 25.9845 86.1936 25.8409C85.9128 25.6319 85.73 25.2923 85.73 24.9136C85.73 24.2736 86.2459 23.7577 86.8858 23.7577C87.1797 23.7577 87.454 23.8687 87.6564 24.0515C87.8719 24.2475 90.3469 26.7616 94.4284 25.7625C98.5098 24.7634 99.091 20.9954 99.091 20.9954" fill="white"/>
<path d="M85.6975 18.6967C85.6192 19.2453 85.1425 19.6698 84.5678 19.6698C83.9409 19.6698 83.4315 19.1604 83.4315 18.5269C83.4315 18.4159 83.4446 18.3049 83.4772 18.2004C83.5687 17.8935 84.6984 14.23 88.819 13.27C92.8548 12.3362 95.5257 14.3475 95.5257 14.3475C95.5257 14.3475 92.5674 12.6823 89.1651 14.2235C86.3963 15.425 85.7432 18.3376 85.6975 18.6967Z" fill="white"/>
</g>
<defs>
<clipPath id="clip0_1046_8389">
<rect width="514.537" height="89.72" fill="white" transform="translate(0 0.450928)"/>
</clipPath>
</defs>
</svg>
