<svg width="166" height="166" viewBox="0 0 166 166" fill="none" xmlns="http://www.w3.org/2000/svg">
<rect width="166" height="166" fill="#6E5880"/>
<g clip-path="url(#clip0_16193_226731)">
<path d="M130.718 67.2981L120.599 79.2074V101.354C120.599 113.288 110.931 122.996 99.0541 122.996H62.485C55.588 122.996 49.4444 119.726 45.502 114.65C44.7822 114.759 44.0205 114.826 43.2086 114.826C40.5888 114.826 34.0015 113.044 34.0015 108.825C34.0015 106.859 35.6002 105.253 37.5588 105.253C38.1614 105.253 38.6469 105.388 39.0487 105.556C39.0487 105.556 40.9403 106.287 40.9403 105.06V64.6422C40.9403 52.7076 50.6078 43.0002 62.485 43.0002H99.0541C119.653 43.0002 126.743 57.6243 131.154 64.1127C131.806 65.0708 131.472 66.4072 130.718 67.2981Z" fill="white"/>
<path d="M127.353 64.407C125.855 62.3142 121.904 56.5906 119.276 54.4559C117.083 52.6909 114.497 51.4302 111.258 51.6403C105.666 52.0017 101.021 56.7251 98.0747 60.2467C94.735 64.2641 88.7838 67.3486 81.3177 69.3321C75.6678 70.8281 69.2982 70.0717 64.251 69.7019C61.4637 69.5002 58.8941 69.2985 56.6927 69.4077C48.7495 69.8111 44.0287 75.6524 44.2129 82.4265C44.4054 89.3015 49.1178 95.5545 49.1178 102.009C49.1178 107.069 45.0248 109.305 42.1957 109.305C38.8225 109.305 38.5965 107.918 37.567 107.918C37.1485 107.918 36.6714 108.262 36.6714 108.817C36.6714 110.523 40.8481 112.154 43.2168 112.154C49.5446 112.154 52.1812 107.615 52.1812 107.615C52.1812 107.615 53.7967 112.313 60.0408 112.313C65.0126 112.313 67.1721 109.926 67.1721 107.926C67.1721 106.346 66.4272 105.766 65.766 105.018C60.5095 100.101 58.7099 96.6724 59.5972 93.3021C60.5011 89.8646 64.1087 87.5869 66.8541 87.6206C66.8541 87.6206 63.0624 89.7469 62.2672 93.5963C61.447 97.5548 65.2721 101.572 66.8206 101.824C67.2307 101.892 67.9506 101.824 68.2603 101.791C71.0643 101.539 71.9682 100.211 71.9682 98.9164C71.9682 97.0506 69.8004 97.185 69.8004 94.1258C69.8004 91.8145 71.081 91.0497 72.2026 91.0497C73.4246 91.0497 78.0366 91.4951 83.6194 92.0666C85.486 92.2515 90.1398 94.0669 90.1398 101.32V103.926C90.1398 108.355 91.9142 113.826 99.7068 113.826C104.997 113.826 107.968 110.868 107.968 108.725C107.968 107.329 106.746 106.716 106.143 105.875C104.377 103.396 105.248 99.9502 105.248 99.9502H105.281C106.018 100.194 106.88 100.337 107.868 100.337C111.76 100.337 113.593 98.7819 113.593 96.9329C113.593 94.7645 110.68 94.7729 110.37 92.8651C109.994 90.4865 110.621 79.9471 114.698 74.1227L117.92 75.5767C118.397 75.7952 118.967 75.6692 119.301 75.2573L127.303 65.8441C127.646 65.4323 127.663 64.844 127.353 64.407ZM72.596 78.989C65.4312 74.9968 58.0487 74.2068 54.2738 77.6947C51.0262 80.6951 51.4781 85.1412 52.0808 87.6626C50.524 86.0909 49.553 83.9309 49.553 81.5356C49.553 76.7534 53.805 72.1896 58.5676 72.156C63.4056 72.1224 70.2607 73.3831 76.4379 72.862C77.9612 80.1236 83.1842 85.0319 87.5785 88.2509C85.0842 87.3684 77.0991 81.4936 72.596 78.989ZM95.957 108.607C97.0786 108.783 99.6817 109.204 100.812 108.094C98.9452 101.018 103.03 97.1262 103.03 97.1262V97.1598C102.946 97.6557 100.435 105.245 104.252 108.212C102.276 111.591 96.6769 109.54 95.957 108.615V108.607Z" fill="#FF5C0A"/>
<path d="M119.301 60.9861C119.033 62.4822 117.359 63.4319 115.568 63.0957C113.777 62.7679 112.547 61.2887 112.814 59.8011C113.082 58.3051 114.756 57.3553 116.556 57.6831C118.347 58.0109 119.578 59.4901 119.301 60.9861Z" fill="white"/>
<path d="M108.136 58.8344C108.219 58.5571 109.224 55.2961 112.881 54.4388C116.464 53.6068 118.841 55.397 118.841 55.397C118.841 55.397 116.213 53.9093 113.191 55.2877C110.73 56.3635 110.153 58.9605 110.111 59.2715C110.044 59.759 109.617 60.1372 109.107 60.1372C108.546 60.1372 108.094 59.6833 108.094 59.1202C108.094 59.0193 108.11 58.9185 108.136 58.826V58.8344Z" fill="white"/>
<path d="M84.5484 72.6687C84.1885 71.8114 84.7325 71.139 85.3352 70.9541C85.9378 70.7692 86.5823 70.9541 86.892 71.7526C90.1313 80.09 97.7063 84.6453 107.541 85.4017C96.886 85.9816 88.3652 81.7877 84.5484 72.6771V72.6687Z" fill="white"/>
<path d="M91.772 69.4917C91.4874 68.8865 91.6464 68.1301 92.3913 67.7939C93.1363 67.4577 93.8059 67.7939 94.057 68.4327C96.5346 74.753 103.097 78.4594 109.341 79.2831C99.6734 79.0225 94.4588 75.148 91.772 69.4917Z" fill="white"/>
<path d="M98.1251 65.1465C97.7903 64.306 98.3092 63.7261 98.8114 63.4907C99.3136 63.2554 100.159 63.4067 100.477 64.2135C102.478 69.3488 106.537 71.9878 111.835 73.5007C104.729 73.0804 99.5731 68.8361 98.1251 65.1381V65.1465Z" fill="white"/>
<path d="M118.096 66.6088C114.129 68.3738 110.714 65.7683 110.538 65.6338C110.287 65.4489 110.128 65.1464 110.128 64.8102C110.128 64.2387 110.588 63.7848 111.149 63.7848C111.408 63.7848 111.651 63.8857 111.827 64.0454C112.019 64.2219 114.212 66.4659 117.837 65.575C121.461 64.6841 121.98 61.3223 121.98 61.3223C121.98 61.3223 122.105 64.8354 118.096 66.6088Z" fill="white"/>
</g>
<defs>
<clipPath id="clip0_16193_226731">
<rect width="97.7778" height="80.2279" fill="white" transform="translate(34.0015 43.0002)"/>
</clipPath>
</defs>
</svg>
