<?xml version="1.0" standalone="no"?>
<!DOCTYPE svg PUBLIC "-//W3C//DTD SVG 1.1//EN" "http://www.w3.org/Graphics/SVG/1.1/DTD/svg11.dtd" >
<svg xmlns="http://www.w3.org/2000/svg" xmlns:xlink="http://www.w3.org/1999/xlink" version="1.1">
<metadata>
Created by FontForge 20200511 at Wed Oct  4 17:16:30 2023
 By convertio
2013 published by FontShop International GmbH
</metadata>
<defs>
<font id="BOG-Light" horiz-adv-x="0" >
  <font-face 
    font-family="BOG Light"
    font-weight="300"
    font-stretch="normal"
    units-per-em="1000"
    panose-1="2 11 8 4 2 1 1 1 1 2"
    ascent="790"
    descent="-210"
    x-height="471"
    cap-height="700"
    bbox="-673 -239 1559 1102"
    underline-thickness="52"
    underline-position="-130"
    unicode-range="U+000D-FEFF"
  />
<missing-glyph horiz-adv-x="599" 
d="M91 700h417v-700h-417v700zM457 52v597h-314v-597h314z" />
    <glyph glyph-name=".notdef" horiz-adv-x="599" 
d="M91 700h417v-700h-417v700zM457 52v597h-314v-597h314z" />
    <glyph glyph-name="space" unicode=" " horiz-adv-x="265" 
 />
    <glyph glyph-name="uni0000" 
 />
    <glyph glyph-name="uni000D" unicode="&#xd;" horiz-adv-x="265" 
 />
    <glyph glyph-name="exclam" unicode="!" horiz-adv-x="260" 
d="M156 218h-52l-9 482h70zM130 89c25 0 48 -22 48 -47c0 -27 -23 -49 -48 -49s-48 24 -48 49s23 47 48 47z" />
    <glyph glyph-name="quotedbl" unicode="&#x22;" horiz-adv-x="507" 
d="M204 720v-242h-57v242h57zM360 720v-242h-57v242h57z" />
    <glyph glyph-name="numbersign" unicode="#" horiz-adv-x="728" 
d="M248 513l40 187h53l-40 -187h195l40 187h54l-40 -187h115l-11 -51h-115l-47 -220h115l-10 -51h-116l-40 -191h-54l41 191h-195l-41 -191h-53l40 191h-116l11 51h116l47 220h-117l11 51h117zM244 242h195l46 220h-195z" />
    <glyph glyph-name="dollar" unicode="$" horiz-adv-x="700" 
d="M329 -95v98c-88 4 -185 38 -241 82l31 47c48 -36 131 -69 210 -74l-1 268l-22 3c-127 15 -200 75 -200 174c0 113 91 186 222 194v96h53v-96c84 -5 158 -29 222 -73l-30 -48c-51 35 -119 60 -192 65v-264l27 -3c127 -15 206 -72 206 -173c0 -117 -96 -187 -233 -198v-98
h-52zM328 383v258c-97 -7 -162 -58 -163 -135c0 -69 54 -110 163 -123zM381 320v-261c105 8 173 56 174 137c0 69 -58 110 -174 124z" />
    <glyph glyph-name="percent" unicode="%" horiz-adv-x="956" 
d="M228 708c67 0 124 -32 156 -86c15 -27 23 -58 23 -91c0 -67 -33 -123 -88 -154c-27 -15 -58 -23 -91 -23c-65 0 -122 33 -153 87c-16 27 -24 57 -24 90c0 67 34 123 88 154c27 15 56 23 89 23zM288 0h-60l441 700h60zM228 658c-71 0 -124 -54 -124 -127
c0 -72 53 -126 124 -126c72 0 126 53 126 126s-54 127 -126 127zM727 346c67 0 124 -32 156 -86c15 -27 23 -58 23 -91c0 -67 -33 -123 -88 -154c-27 -15 -58 -23 -91 -23c-67 0 -123 33 -154 87c-15 27 -23 57 -23 90c0 67 33 123 87 154c27 15 57 23 90 23zM727 296
c-71 0 -124 -54 -124 -127c0 -72 53 -126 124 -126c72 0 126 53 126 126s-54 127 -126 127z" />
    <glyph glyph-name="ampersand" unicode="&#x26;" horiz-adv-x="690" 
d="M587 0l-119 116c-60 -77 -124 -124 -217 -124c-117 0 -193 66 -193 170c0 85 53 144 145 212c-77 77 -106 119 -106 183c0 55 29 103 80 131c25 13 54 20 85 20c64 0 116 -28 144 -72c14 -23 21 -48 21 -75c0 -73 -49 -125 -137 -189l173 -169l115 169l46 -29l-121 -179
l167 -164h-83zM158 553c0 -45 20 -72 93 -144c76 56 116 96 116 149c0 56 -42 96 -105 96c-61 0 -104 -44 -104 -101zM254 46c72 0 122 37 175 109l-187 182c-79 -59 -123 -108 -123 -173c0 -69 56 -118 135 -118z" />
    <glyph glyph-name="quotesingle" unicode="'" horiz-adv-x="351" 
d="M204 720v-242h-57v242h57z" />
    <glyph glyph-name="parenleft" unicode="(" horiz-adv-x="400" 
d="M338 712l20 -52c-88 -33 -157 -111 -194 -213c-19 -51 -28 -106 -28 -163c0 -113 39 -220 106 -294c33 -37 72 -64 116 -81l-20 -53c-103 37 -185 125 -229 242c-22 58 -33 120 -33 186c0 132 46 253 126 337c39 42 85 72 136 91z" />
    <glyph glyph-name="parenright" unicode=")" horiz-adv-x="400" 
d="M62 -143l-20 52c88 33 157 112 194 214c19 51 28 105 28 162c0 115 -39 221 -106 295c-33 37 -72 63 -116 80l20 53c103 -37 185 -125 229 -241c22 -59 33 -121 33 -187c0 -132 -46 -253 -125 -337c-40 -42 -86 -72 -137 -91z" />
    <glyph glyph-name="asterisk" unicode="*" horiz-adv-x="433" 
d="M195 584v136h44v-135l128 42l14 -42l-129 -42l80 -110l-35 -25l-80 109l-80 -109l-35 25l79 110l-128 42l13 42z" />
    <glyph glyph-name="plus" unicode="+" horiz-adv-x="600" 
d="M273 52v186h-186v51h186v189h52v-189h188v-51h-188v-186h-52z" />
    <glyph glyph-name="comma" unicode="," horiz-adv-x="244" 
d="M169 117l-48 -242h-49l31 242h66z" />
    <glyph glyph-name="hyphen" unicode="-" horiz-adv-x="418" 
d="M345 238h-271v51h271v-51z" />
    <glyph glyph-name="period" unicode="." horiz-adv-x="260" 
d="M130 89c27 0 48 -21 48 -48s-23 -49 -48 -49s-48 24 -48 49s23 48 48 48z" />
    <glyph glyph-name="slash" unicode="/" horiz-adv-x="492" 
d="M65 -100h-63l425 870h62z" />
    <glyph glyph-name="zero" unicode="0" horiz-adv-x="709" 
d="M355 708c105 0 196 -60 247 -168c25 -54 38 -117 38 -190c0 -144 -54 -256 -141 -314c-43 -29 -91 -44 -144 -44c-107 0 -197 60 -248 169c-25 54 -38 117 -38 189c0 145 54 257 141 315c43 29 92 43 145 43zM355 651c-84 0 -155 -48 -195 -139c-20 -45 -30 -99 -30 -162
c0 -124 43 -218 111 -265c34 -24 72 -36 114 -36c83 0 154 49 194 140c20 45 30 99 30 161c0 125 -43 218 -111 266c-34 23 -72 35 -113 35z" />
    <glyph glyph-name="one" unicode="1" horiz-adv-x="428" 
d="M318 0h-59v622l-224 -97v61l283 121v-707z" />
    <glyph glyph-name="two" unicode="2" horiz-adv-x="546" 
d="M87 558l-42 34c50 77 119 116 208 116c92 0 160 -39 194 -103c17 -33 25 -69 25 -109c0 -79 -38 -140 -94 -199l-229 -241h349v-56h-436v46l271 285c49 52 78 104 78 165c0 89 -59 156 -159 156c-77 0 -126 -37 -165 -94z" />
    <glyph glyph-name="three" unicode="3" horiz-adv-x="549" 
d="M247 708c89 0 162 -33 200 -90c19 -29 28 -61 28 -97c0 -84 -45 -140 -120 -167c83 -27 135 -85 135 -168c0 -84 -48 -143 -119 -172c-36 -15 -75 -22 -117 -22c-92 0 -167 32 -219 88l37 40c45 -45 109 -72 180 -72c101 0 177 50 177 141c0 84 -77 138 -180 138h-96v54
h96c96 0 164 49 164 137c0 80 -70 135 -169 135c-69 0 -125 -33 -162 -82l-43 36c44 61 116 101 208 101z" />
    <glyph glyph-name="four" unicode="4" horiz-adv-x="576" 
d="M422 209h127v-55h-127v-154h-58v154h-336v45l261 501h67l-258 -491h266v200h58v-200z" />
    <glyph glyph-name="five" unicode="5" horiz-adv-x="576" 
d="M484 645h-318l-9 -229h110c107 0 182 -39 219 -100c19 -31 28 -65 28 -104c0 -91 -44 -158 -115 -193c-36 -18 -76 -27 -121 -27c-97 0 -174 36 -233 108l39 38c48 -57 118 -89 194 -89c108 0 175 66 175 158s-67 153 -204 153h-147l10 340h372v-55z" />
    <glyph glyph-name="six" unicode="6" horiz-adv-x="575" 
d="M371 700l-175 -276c31 13 62 19 95 19c91 0 168 -42 209 -110c21 -34 31 -72 31 -115c0 -85 -45 -157 -120 -196c-37 -20 -79 -30 -125 -30c-92 0 -170 42 -213 111c-21 34 -32 72 -32 115c0 45 15 92 46 142l212 340h72zM286 389c-69 0 -128 -31 -160 -83
c-16 -26 -24 -55 -24 -88c0 -65 34 -120 90 -149c28 -15 59 -22 94 -22c69 0 128 31 160 83c16 26 24 55 24 88c0 65 -34 120 -90 149c-28 15 -59 22 -94 22z" />
    <glyph glyph-name="seven" unicode="7" horiz-adv-x="547" 
d="M513 654l-324 -654h-69l322 645h-401v55h472v-46z" />
    <glyph glyph-name="eight" unicode="8" horiz-adv-x="628" 
d="M314 708c88 0 164 -31 207 -87c21 -28 32 -61 32 -100c0 -81 -47 -137 -119 -166c83 -29 136 -86 136 -170c0 -80 -48 -139 -126 -170c-39 -15 -83 -23 -130 -23c-95 0 -177 32 -222 90c-23 29 -34 63 -34 103c0 84 54 141 135 170c-72 29 -118 85 -118 166
c0 77 46 135 119 165c36 15 76 22 120 22zM314 653c-101 0 -177 -50 -177 -135c0 -88 74 -139 177 -139s177 51 177 139c0 85 -76 135 -177 135zM314 328c-112 0 -194 -52 -194 -140c0 -89 82 -141 194 -141c111 0 193 52 193 141c0 88 -82 140 -193 140z" />
    <glyph glyph-name="nine" unicode="9" horiz-adv-x="575" 
d="M205 0l174 277c-29 -13 -60 -20 -95 -20c-91 0 -167 42 -208 111c-21 34 -31 72 -31 115c0 84 44 156 119 196c37 19 79 29 125 29c92 0 170 -42 213 -110c21 -35 32 -73 32 -115c0 -49 -14 -93 -45 -142l-212 -341h-72zM289 312c71 0 129 31 161 83c16 26 24 55 24 88
c0 64 -34 119 -90 148c-28 15 -60 22 -95 22c-69 0 -128 -31 -160 -83c-16 -26 -24 -55 -24 -87c0 -65 34 -120 90 -149c28 -15 59 -22 94 -22z" />
    <glyph glyph-name="colon" unicode=":" horiz-adv-x="260" 
d="M130 478c27 0 48 -21 48 -48c0 -25 -23 -48 -48 -48s-48 23 -48 48s23 48 48 48zM130 89c25 0 48 -22 48 -47c0 -27 -23 -49 -48 -49s-48 24 -48 49s23 47 48 47z" />
    <glyph glyph-name="semicolon" unicode=";" horiz-adv-x="244" 
d="M126 478c25 0 47 -23 47 -48s-22 -48 -47 -48s-48 23 -48 48c0 27 23 48 48 48zM169 117l-48 -242h-49l31 242h66z" />
    <glyph glyph-name="less" unicode="&#x3c;" horiz-adv-x="600" 
d="M493 52l-385 184v56l385 184v-61l-328 -151l328 -151v-61z" />
    <glyph glyph-name="equal" unicode="=" horiz-adv-x="600" 
d="M513 326h-426v51h426v-51zM513 150h-426v52h426v-52z" />
    <glyph glyph-name="greater" unicode="&#x3e;" horiz-adv-x="600" 
d="M108 476l385 -184v-56l-385 -184v61l328 151l-328 151v61z" />
    <glyph glyph-name="question" unicode="?" horiz-adv-x="424" 
d="M110 218v155h25c119 0 191 53 191 141c0 84 -74 136 -187 136c-7 0 -28 -1 -62 -3l-5 58c21 3 45 5 70 5c99 0 176 -33 217 -92c20 -29 30 -63 30 -102c0 -112 -82 -185 -223 -197l-4 -101h-52zM136 89c27 0 48 -21 48 -48s-23 -49 -48 -49s-48 24 -48 49s23 48 48 48z
" />
    <glyph glyph-name="at" unicode="@" horiz-adv-x="990" 
d="M684 442v-242c0 -72 21 -104 64 -104c60 0 102 64 102 169c0 133 -66 241 -174 298c-54 28 -114 42 -181 42c-132 0 -246 -66 -308 -174c-31 -54 -47 -114 -47 -181c0 -135 66 -249 175 -312c54 -31 114 -47 180 -47c82 0 156 23 221 70l27 -37
c-73 -53 -156 -79 -248 -79c-152 0 -282 76 -353 200c-36 61 -54 130 -54 205c0 149 76 277 200 348c62 35 131 53 207 53c153 0 283 -70 354 -187c35 -59 53 -125 53 -199c0 -81 -26 -150 -73 -187c-24 -19 -52 -28 -84 -28c-59 0 -95 32 -107 85c-32 -51 -85 -83 -156 -83
s-132 36 -166 97c-17 30 -26 64 -26 101c0 75 36 138 95 173c29 17 62 26 97 26c68 0 120 -31 153 -82v75h49zM489 402c-87 0 -148 -65 -148 -152s61 -152 148 -152c85 0 148 65 148 152s-63 152 -148 152z" />
    <glyph glyph-name="A" unicode="A" horiz-adv-x="703" 
d="M683 0h-65l-85 205h-364l-85 -205h-64l294 700h75zM193 263h315l-157 378z" />
    <glyph glyph-name="B" unicode="B" horiz-adv-x="700" 
d="M105 700h270c155 0 248 -57 248 -181c0 -83 -45 -138 -121 -158c84 -21 135 -79 135 -170c0 -129 -93 -191 -250 -191h-282v700zM166 643v-258h208c116 0 185 36 185 129s-70 129 -186 129h-207zM166 328v-270h218c121 0 189 39 189 135c0 97 -68 135 -189 135h-218z" />
    <glyph glyph-name="C" unicode="C" horiz-adv-x="764" 
d="M422 708c120 0 227 -55 283 -144l-51 -34c-49 75 -135 119 -232 119c-111 0 -204 -52 -256 -143c-26 -45 -39 -97 -39 -156c0 -116 56 -210 145 -261c45 -25 95 -38 150 -38c97 0 183 44 231 119l50 -36c-59 -88 -162 -142 -281 -142c-136 0 -249 65 -312 174
c-31 54 -47 115 -47 184c0 137 67 251 176 312c54 31 115 46 183 46z" />
    <glyph glyph-name="D" unicode="D" horiz-adv-x="801" 
d="M105 700h255c155 0 272 -59 333 -164c31 -53 46 -115 46 -186c0 -143 -63 -251 -177 -307c-57 -29 -125 -43 -202 -43h-255v700zM166 642v-584h194c133 0 230 50 279 138c24 43 36 95 36 154c0 181 -114 292 -315 292h-194z" />
    <glyph glyph-name="E" unicode="E" horiz-adv-x="671" 
d="M587 0h-482v700h478v-57h-417v-262h405v-57h-405v-266h421v-58z" />
    <glyph glyph-name="F" unicode="F" horiz-adv-x="644" 
d="M564 324h-398v-324h-61v700h476v-58h-415v-260h398v-58z" />
    <glyph glyph-name="G" unicode="G" horiz-adv-x="819" 
d="M422 708c109 0 206 -44 271 -119l-45 -44c-55 65 -135 104 -226 104c-111 0 -204 -52 -256 -143c-26 -45 -39 -97 -39 -156c0 -116 55 -210 144 -261c45 -25 94 -38 148 -38c159 0 261 100 270 261h-237v57h303c1 -4 1 -9 1 -16c0 -137 -57 -251 -159 -314
c-51 -31 -111 -47 -178 -47c-127 0 -242 61 -307 170c-33 54 -49 117 -49 188c0 139 67 252 176 313c55 30 116 45 183 45z" />
    <glyph glyph-name="H" unicode="H" horiz-adv-x="783" 
d="M166 382h451v318h61v-700h-61v324h-451v-324h-61v700h61v-318z" />
    <glyph glyph-name="I" unicode="I" horiz-adv-x="271" 
d="M166 0h-61v700h61v-700z" />
    <glyph glyph-name="J" unicode="J" horiz-adv-x="576" 
d="M476 700v-449c0 -108 -45 -188 -117 -228c-37 -21 -78 -31 -125 -31c-87 0 -157 31 -211 94l41 42c39 -45 96 -77 169 -77c111 0 182 74 182 206v443h61z" />
    <glyph glyph-name="K" unicode="K" horiz-adv-x="684" 
d="M258 323h-92v-323h-61v700h61v-319h93l308 319h79l-338 -344l359 -356h-83z" />
    <glyph glyph-name="L" unicode="L" horiz-adv-x="602" 
d="M581 0h-476v700h61v-642h415v-58z" />
    <glyph glyph-name="M" unicode="M" horiz-adv-x="930" 
d="M825 0h-61v631l-267 -548h-64l-267 545v-628h-61v700h92l268 -545l268 545h92v-700z" />
    <glyph glyph-name="N" unicode="N" horiz-adv-x="785" 
d="M680 0h-55l-459 595v-595h-61v700h55l459 -595v595h61v-700z" />
    <glyph glyph-name="O" unicode="O" horiz-adv-x="843" 
d="M422 708c135 0 250 -65 312 -173c31 -55 46 -116 46 -185c0 -137 -66 -251 -175 -312c-55 -31 -116 -46 -183 -46c-136 0 -249 65 -312 174c-31 54 -47 115 -47 184c0 137 67 251 176 312c54 31 115 46 183 46zM422 649c-111 0 -204 -52 -256 -143
c-26 -45 -39 -97 -39 -156c0 -116 56 -210 145 -261c45 -25 95 -38 150 -38c109 0 203 53 255 144c26 45 39 97 39 155c0 117 -56 212 -145 262c-45 25 -94 37 -149 37z" />
    <glyph glyph-name="P" unicode="P" horiz-adv-x="666" 
d="M166 285v-285h-61v700h260c155 0 247 -76 247 -207s-92 -208 -247 -208h-199zM166 643v-300h197c119 0 186 53 186 150s-67 150 -186 150h-197z" />
    <glyph glyph-name="Q" unicode="Q" horiz-adv-x="843" 
d="M422 708c135 0 250 -65 312 -173c31 -55 46 -116 46 -185c0 -89 -27 -169 -78 -229l96 -121h-72l-64 79c-63 -56 -148 -87 -240 -87c-136 0 -249 65 -312 174c-31 54 -47 115 -47 184c0 137 67 251 176 312c54 31 115 46 183 46zM422 649c-111 0 -204 -52 -256 -143
c-26 -45 -39 -97 -39 -156c0 -116 56 -210 145 -261c45 -25 95 -38 150 -38c79 0 150 28 202 76l-172 215h73l137 -171c36 51 54 110 54 179c0 117 -56 212 -145 262c-45 25 -94 37 -149 37z" />
    <glyph glyph-name="R" unicode="R" horiz-adv-x="671" 
d="M105 700h267c155 0 241 -70 241 -194c0 -121 -92 -195 -241 -195h-27l265 -311h-76l-261 311h-107v-311h-61v700zM166 643v-277h205c116 0 179 49 179 140c0 89 -64 137 -179 137h-205z" />
    <glyph glyph-name="S" unicode="S" horiz-adv-x="672" 
d="M592 631l-32 -50c-64 46 -137 69 -219 69c-115 0 -195 -53 -195 -140c0 -71 54 -112 171 -125l77 -9c143 -16 215 -76 215 -179c0 -88 -52 -150 -135 -181c-42 -16 -89 -24 -140 -24c-101 0 -206 37 -271 88l33 49c53 -43 146 -78 237 -78c125 0 212 50 212 141
c0 75 -58 113 -177 126l-80 9c-131 15 -205 74 -205 179c0 84 48 146 127 178c39 16 83 24 132 24c94 0 177 -26 250 -77z" />
    <glyph glyph-name="T" unicode="T" horiz-adv-x="608" 
d="M587 642h-253v-642h-61v642h-252v58h566v-58z" />
    <glyph glyph-name="U" unicode="U" horiz-adv-x="755" 
d="M661 700v-427c0 -120 -53 -206 -139 -249c-43 -21 -92 -32 -145 -32c-107 0 -197 43 -246 127c-25 42 -37 93 -37 154v427h61v-423c0 -148 90 -226 222 -226c133 0 222 78 222 226v423h62z" />
    <glyph glyph-name="V" unicode="V" horiz-adv-x="693" 
d="M384 0h-75l-289 700h65l262 -639l263 639h63z" />
    <glyph glyph-name="W" unicode="W" horiz-adv-x="1104" 
d="M836 0h-74l-210 621l-209 -621h-75l-236 700h65l209 -632l213 632h68l212 -631l210 631h63z" />
    <glyph glyph-name="X" unicode="X" horiz-adv-x="687" 
d="M381 358l271 -358h-74l-235 312l-236 -312h-72l270 358l-257 342h74l222 -295l223 295h73z" />
    <glyph glyph-name="Y" unicode="Y" horiz-adv-x="632" 
d="M347 300v-300h-61v301l-280 399h73l238 -342l237 342h72z" />
    <glyph glyph-name="Z" unicode="Z" horiz-adv-x="664" 
d="M599 653l-455 -595h457v-58h-538v48l454 594h-447v58h529v-47z" />
    <glyph glyph-name="bracketleft" unicode="[" horiz-adv-x="369" 
d="M327 -132h-222v832h222v-53h-164v-726h164v-53z" />
    <glyph glyph-name="backslash" unicode="\" horiz-adv-x="492" 
d="M3 770h63l424 -870h-62z" />
    <glyph glyph-name="bracketright" unicode="]" horiz-adv-x="369" 
d="M42 700h223v-832h-223v53h164v726h-164v53z" />
    <glyph glyph-name="asciicircum" unicode="^" horiz-adv-x="600" 
d="M94 328l178 372h56l178 -372h-62l-145 313l-144 -313h-61z" />
    <glyph glyph-name="underscore" unicode="_" horiz-adv-x="468" 
d="M470 -127h-473v52h473v-52z" />
    <glyph glyph-name="grave" unicode="`" horiz-adv-x="452" 
d="M261 541l-126 150h72l110 -150h-56z" />
    <glyph glyph-name="a" unicode="a" horiz-adv-x="622" 
d="M532 0h-57v91c-40 -61 -103 -99 -186 -99c-87 0 -163 45 -204 119c-21 37 -31 78 -31 124c0 92 44 170 116 212c36 21 76 31 119 31c83 0 146 -37 186 -98v91h57v-471zM295 425c-71 0 -128 -35 -159 -93c-16 -29 -24 -62 -24 -97c0 -71 33 -131 89 -164
c28 -17 59 -25 94 -25c71 0 128 35 160 93c15 29 23 61 23 96c0 71 -33 132 -88 165c-28 17 -60 25 -95 25z" />
    <glyph glyph-name="b" unicode="b" horiz-adv-x="623" 
d="M334 478c87 0 163 -44 204 -118c21 -37 31 -79 31 -125c0 -92 -44 -169 -116 -211c-36 -21 -76 -32 -119 -32c-83 0 -146 37 -186 98v-90h-57v720h57v-339c40 60 103 97 186 97zM327 425c-69 0 -128 -35 -159 -93c-16 -29 -24 -62 -24 -97c0 -71 33 -132 89 -164
c28 -17 59 -25 94 -25c71 0 129 36 161 93c15 29 23 61 23 96c0 71 -33 132 -89 165c-28 17 -60 25 -95 25z" />
    <glyph glyph-name="c" unicode="c" horiz-adv-x="512" 
d="M295 478c69 0 132 -26 173 -73l-37 -38c-39 39 -85 58 -138 58c-68 0 -126 -34 -157 -92c-16 -29 -24 -62 -24 -98c0 -72 33 -132 89 -164c27 -17 58 -25 92 -25c53 0 103 22 140 59l35 -39c-43 -47 -104 -74 -173 -74c-93 0 -170 46 -210 120c-21 37 -31 78 -31 123
c0 92 43 170 116 212c37 21 78 31 125 31z" />
    <glyph glyph-name="d" unicode="d" horiz-adv-x="622" 
d="M289 478c83 0 146 -37 186 -98v340h57v-720h-57v91c-40 -61 -103 -99 -186 -99c-87 0 -163 45 -204 119c-21 37 -31 78 -31 124c0 92 44 170 116 212c36 21 76 31 119 31zM295 425c-71 0 -128 -35 -159 -93c-16 -29 -24 -62 -24 -97c0 -71 33 -131 89 -164
c28 -17 59 -25 94 -25c71 0 128 35 160 93c15 29 23 61 23 96c0 71 -33 132 -88 165c-28 17 -60 25 -95 25z" />
    <glyph glyph-name="e" unicode="e" horiz-adv-x="561" 
d="M287 478c83 0 152 -43 191 -116c19 -37 29 -78 29 -124c0 -11 0 -18 -1 -23h-394c8 -108 82 -173 182 -173c60 0 113 22 159 67l30 -39c-56 -56 -120 -78 -193 -78c-91 0 -165 44 -205 118c-21 37 -31 78 -31 125c0 93 43 171 114 212c35 21 75 31 119 31zM286 428
c-95 0 -162 -67 -173 -164h336c-8 97 -75 164 -163 164z" />
    <glyph glyph-name="f" unicode="f" horiz-adv-x="438" 
d="M403 419h-203v-419h-57v419h-115v52h115v81c0 109 49 176 156 176c46 0 88 -12 127 -35l-21 -48c-28 17 -66 29 -103 29c-71 0 -102 -42 -102 -122v-81h203v-52z" />
    <glyph glyph-name="g" unicode="g" horiz-adv-x="618" 
d="M287 478c83 0 145 -36 184 -99v92h57v-439c0 -101 -46 -174 -121 -210c-37 -19 -79 -28 -126 -28c-79 0 -153 25 -198 68l29 41c45 -36 105 -57 169 -57c111 0 190 65 190 184v67c-39 -63 -101 -100 -184 -100c-87 0 -162 44 -202 117c-21 37 -31 78 -31 124
c0 92 43 169 115 210c35 20 75 30 118 30zM293 425c-69 0 -127 -36 -158 -92c-15 -29 -23 -60 -23 -95c0 -69 32 -130 88 -162c27 -17 58 -25 93 -25c69 0 127 35 159 92c15 29 23 60 23 95c0 69 -33 130 -88 163c-28 16 -59 24 -94 24z" />
    <glyph glyph-name="h" unicode="h" horiz-adv-x="599" 
d="M148 720v-331c36 59 99 89 168 89c119 0 198 -74 198 -189v-289h-57v271c0 96 -55 153 -151 153c-59 0 -109 -27 -137 -74c-14 -24 -21 -51 -21 -82v-268h-57v720h57z" />
    <glyph glyph-name="i" unicode="i" horiz-adv-x="239" 
d="M120 681c23 0 41 -18 41 -41s-18 -41 -41 -41s-41 18 -41 41s18 41 41 41zM148 0h-57v471h57v-471z" />
    <glyph glyph-name="j" unicode="j" horiz-adv-x="240" 
d="M121 681c23 0 41 -18 41 -41s-18 -41 -41 -41s-41 18 -41 41s18 41 41 41zM150 471v-560c0 -75 -40 -117 -105 -117c-23 0 -50 7 -66 16l14 49c15 -8 30 -12 47 -12c35 0 53 22 53 66v558h57z" />
    <glyph glyph-name="k" unicode="k" horiz-adv-x="521" 
d="M148 272h77l198 199h72l-224 -222l228 -249h-73l-201 221h-77v-221h-57v720h57v-448z" />
    <glyph glyph-name="l" unicode="l" horiz-adv-x="239" 
d="M148 0h-57v720h57v-720z" />
    <glyph glyph-name="m" unicode="m" horiz-adv-x="965" 
d="M681 478c119 0 199 -74 199 -189v-289h-57v271c0 96 -56 153 -152 153c-59 0 -109 -27 -136 -74c-14 -24 -21 -51 -21 -82v-268h-57v271c0 96 -55 153 -151 153c-59 0 -109 -27 -137 -74c-14 -24 -21 -51 -21 -82v-268h-57v471h57v-83c36 60 99 90 168 90
c88 0 155 -40 183 -109c33 73 103 109 182 109z" />
    <glyph glyph-name="n" unicode="n" horiz-adv-x="599" 
d="M316 478c119 0 198 -74 198 -189v-289h-57v271c0 96 -55 153 -151 153c-59 0 -109 -27 -137 -74c-14 -24 -21 -51 -21 -82v-268h-57v471h57v-83c36 60 99 90 168 90z" />
    <glyph glyph-name="o" unicode="o" horiz-adv-x="596" 
d="M298 478c92 0 170 -44 213 -119c21 -37 32 -79 32 -124c0 -91 -45 -168 -120 -211c-37 -21 -79 -32 -125 -32c-92 0 -169 46 -212 120c-21 37 -32 78 -32 123c0 92 46 170 120 212c37 21 78 31 124 31zM298 425c-69 0 -129 -34 -161 -92c-17 -29 -25 -62 -25 -98
c0 -72 35 -132 92 -164c28 -17 59 -25 94 -25c69 0 129 35 162 92c16 29 24 61 24 97c0 72 -35 133 -91 166c-29 16 -60 24 -95 24z" />
    <glyph glyph-name="p" unicode="p" horiz-adv-x="623" 
d="M334 478c87 0 163 -44 204 -118c21 -37 31 -79 31 -125c0 -92 -44 -169 -116 -211c-36 -21 -76 -32 -119 -32c-83 0 -146 37 -186 98v-290h-57v671h57v-90c40 60 103 97 186 97zM327 425c-69 0 -128 -35 -159 -93c-16 -29 -24 -62 -24 -97c0 -71 33 -132 89 -164
c28 -17 59 -25 94 -25c71 0 129 36 161 93c15 29 23 61 23 96c0 71 -33 132 -89 165c-28 17 -60 25 -95 25z" />
    <glyph glyph-name="q" unicode="q" horiz-adv-x="622" 
d="M289 478c83 0 146 -37 186 -98v91h57v-671h-57v291c-40 -61 -103 -99 -186 -99c-87 0 -163 45 -204 119c-21 37 -31 78 -31 124c0 92 44 170 116 212c36 21 76 31 119 31zM295 425c-71 0 -128 -35 -159 -93c-16 -29 -24 -62 -24 -97c0 -71 33 -131 89 -164
c28 -17 59 -25 94 -25c71 0 128 35 160 93c15 29 23 61 23 96c0 71 -33 132 -88 165c-28 17 -60 25 -95 25z" />
    <glyph glyph-name="r" unicode="r" horiz-adv-x="407" 
d="M292 479c33 0 63 -6 88 -18l-14 -56c-23 13 -51 19 -84 19c-79 0 -134 -63 -134 -158v-266h-57v471h56v-80c31 56 84 88 145 88z" />
    <glyph glyph-name="s" unicode="s" horiz-adv-x="487" 
d="M429 425l-24 -44c-36 25 -99 47 -160 47c-75 0 -125 -33 -125 -85c0 -43 35 -67 107 -76l60 -7c100 -11 155 -53 155 -126c0 -88 -80 -142 -203 -142c-71 0 -141 21 -193 61l26 42c43 -32 93 -53 168 -53c88 0 143 31 143 88c0 44 -36 70 -108 78l-61 7
c-103 12 -152 56 -152 125c0 85 72 138 183 138c72 0 140 -21 184 -53z" />
    <glyph glyph-name="t" unicode="t" horiz-adv-x="452" 
d="M410 419h-217v-257c0 -76 40 -116 104 -116c41 0 76 12 105 36l27 -42c-35 -29 -83 -48 -136 -48c-100 0 -157 57 -157 169v258h-108v52h108v153h57v-153h217v-52z" />
    <glyph glyph-name="u" unicode="u" horiz-adv-x="593" 
d="M508 471v-276c0 -87 -40 -148 -104 -179c-32 -16 -68 -24 -107 -24c-79 0 -146 32 -183 93c-19 30 -28 67 -28 110v276h57v-271c0 -99 61 -154 154 -154s154 55 154 154v271h57z" />
    <glyph glyph-name="v" unicode="v" horiz-adv-x="515" 
d="M291 -1h-66l-208 472h62l179 -414l180 414h60z" />
    <glyph glyph-name="w" unicode="w" horiz-adv-x="863" 
d="M619 58l159 413h59l-184 -471h-67l-155 411l-154 -411h-67l-184 471h60l159 -412l155 412h64z" />
    <glyph glyph-name="x" unicode="x" horiz-adv-x="503" 
d="M289 241l196 -241h-70l-165 199l-165 -199h-67l196 241l-189 230h70l158 -191l158 191h68z" />
    <glyph glyph-name="y" unicode="y" horiz-adv-x="514" 
d="M116 -202h-63l180 307l-221 366h64l190 -310l177 310h63z" />
    <glyph glyph-name="z" unicode="z" horiz-adv-x="533" 
d="M466 429l-326 -377h330v-52h-406v42l328 377h-318v52h392v-42z" />
    <glyph glyph-name="braceleft" unicode="{" horiz-adv-x="420" 
d="M378 647h-33c-72 0 -115 -42 -111 -127l4 -75c5 -87 -32 -140 -101 -160c69 -20 106 -76 101 -161l-4 -74c-4 -85 39 -128 111 -128h33v-53h-33c-112 0 -176 66 -169 187l4 75c4 85 -41 127 -117 127v53c76 0 121 43 117 128l-4 75c-7 120 57 186 169 186h33v-53z" />
    <glyph glyph-name="bar" unicode="|" horiz-adv-x="351" 
d="M204 -133h-57v833h57v-833z" />
    <glyph glyph-name="braceright" unicode="}" horiz-adv-x="420" 
d="M42 -78h33c72 0 115 43 111 128l-4 74c-5 85 32 141 101 161c-69 20 -106 73 -101 160l4 75c4 85 -39 127 -111 127h-33v53h33c112 0 176 -66 169 -186l-4 -75c-4 -85 41 -128 117 -128v-53c-76 0 -121 -42 -117 -127l4 -75c7 -121 -57 -187 -169 -187h-33v53z" />
    <glyph glyph-name="asciitilde" unicode="~" horiz-adv-x="600" 
d="M487 310l31 -36c-35 -39 -72 -57 -127 -57c-41 0 -65 8 -101 24c-31 13 -52 21 -85 21c-36 0 -61 -13 -92 -44l-32 36c36 39 74 57 127 57c41 0 66 -8 102 -24c32 -15 52 -21 85 -21c36 0 61 13 92 44z" />
    <glyph glyph-name="exclamdown" unicode="&#xa1;" horiz-adv-x="260" 
d="M130 382c-25 0 -48 22 -48 47s23 49 48 49s48 -22 48 -49c0 -25 -23 -47 -48 -47zM105 253h51l9 -483h-69z" />
    <glyph glyph-name="cent" unicode="&#xa2;" horiz-adv-x="700" 
d="M399 700v-108c65 -3 124 -29 165 -72l-34 -37c-37 35 -80 54 -131 58v-381c51 3 95 22 133 58l32 -37c-43 -44 -100 -70 -165 -73v-108h-53v110c-81 12 -147 58 -182 127c-17 34 -26 72 -26 113c0 83 36 154 100 198c31 22 67 36 108 42v110h53zM194 350
c0 -96 61 -170 152 -187v375c-89 -17 -152 -92 -152 -188z" />
    <glyph glyph-name="sterling" unicode="&#xa3;" horiz-adv-x="700" 
d="M605 0h-510v56h94v268h-94v52h94v86c0 105 43 181 112 218c34 19 72 28 114 28c75 0 138 -30 181 -87l-44 -37c-32 45 -80 68 -137 68c-100 0 -168 -67 -168 -195v-81h273v-52h-273v-268h358v-56z" />
    <glyph glyph-name="currency" unicode="&#xa4;" horiz-adv-x="700" 
d="M146 588l73 -72c38 31 82 46 132 46s94 -15 132 -46l72 72l34 -34l-72 -72c31 -39 47 -83 47 -132s-16 -93 -47 -133l72 -71l-34 -34l-72 72c-38 -31 -82 -46 -132 -46c-49 0 -94 15 -133 46l-71 -72l-34 34l72 71c-31 39 -46 84 -46 133c0 50 15 94 46 132l-72 72z
M351 185c60 0 114 31 143 82c15 25 22 53 22 83c0 60 -31 114 -82 143c-25 15 -53 22 -83 22c-60 0 -114 -31 -143 -82c-15 -25 -22 -53 -22 -83c0 -60 31 -114 82 -143c25 -15 53 -22 83 -22z" />
    <glyph glyph-name="yen" unicode="&#xa5;" horiz-adv-x="700" 
d="M586 169h-204v-169h-59v169h-205v48h205v110h-205v47h179l-238 326h70l223 -308l221 308h69l-235 -326h179v-47h-204v-110h204v-48z" />
    <glyph glyph-name="brokenbar" unicode="&#xa6;" horiz-adv-x="351" 
d="M204 353h-57v347h57v-347zM204 -133h-57v348h57v-348z" />
    <glyph glyph-name="section" unicode="&#xa7;" horiz-adv-x="655" 
d="M561 636l-28 -46c-52 37 -122 64 -197 64c-104 0 -177 -43 -177 -114c0 -59 53 -93 159 -104l67 -6c113 -11 195 -61 195 -152c0 -57 -31 -101 -83 -129c49 -27 73 -66 73 -117c0 -112 -105 -175 -248 -175c-96 0 -187 33 -247 80l30 46c53 -41 130 -73 217 -73
c112 0 189 41 190 118c0 59 -62 92 -162 103l-71 7c-115 12 -188 64 -188 153c0 55 29 98 81 127c-47 27 -71 66 -71 119c0 69 44 123 115 151c35 13 75 20 119 20c89 0 167 -28 226 -72zM361 377l-72 7c-23 2 -44 6 -64 12c-48 -19 -76 -55 -76 -102c0 -57 53 -92 158 -103
l69 -7c27 -3 50 -8 67 -14c49 20 79 55 79 103c0 60 -62 95 -161 104z" />
    <glyph glyph-name="dieresis" unicode="&#xa8;" horiz-adv-x="457" 
d="M126 655c23 0 41 -18 41 -41s-18 -41 -41 -41s-40 18 -40 41s17 41 40 41zM331 655c23 0 41 -18 41 -41s-18 -41 -41 -41s-41 18 -41 41s18 41 41 41z" />
    <glyph glyph-name="copyright" unicode="&#xa9;" horiz-adv-x="949" 
d="M475 750c144 0 274 -77 346 -198c35 -61 53 -127 53 -199c0 -144 -77 -273 -199 -344c-61 -36 -128 -54 -200 -54c-145 0 -274 77 -345 199c-36 61 -54 127 -54 199c0 144 77 272 199 344c61 35 127 53 200 53zM475 700c-125 0 -238 -66 -300 -173
c-31 -53 -47 -111 -47 -174c0 -125 66 -238 173 -300c53 -31 111 -47 174 -47c125 0 239 66 301 173c31 53 46 111 46 174c0 125 -66 239 -173 301c-53 31 -111 46 -174 46zM655 479l-42 -29c-27 41 -75 66 -128 66c-57 0 -108 -28 -136 -78c-14 -25 -21 -54 -21 -85
c0 -65 30 -116 79 -143c24 -13 50 -20 79 -20c52 0 100 25 128 66l40 -31c-36 -53 -97 -85 -168 -85c-79 0 -147 38 -183 103c-19 33 -28 69 -28 110c0 81 39 150 104 186c32 18 68 27 107 27c71 0 134 -32 169 -87z" />
    <glyph glyph-name="ordfeminine" unicode="&#xaa;" horiz-adv-x="391" 
d="M186 649c88 0 142 -44 142 -135v-197h-46v50c-34 -37 -75 -55 -124 -55c-71 0 -116 39 -116 98s49 95 136 95h103c0 68 -33 102 -100 102c-39 0 -73 -12 -102 -37l-19 36c35 29 77 43 126 43zM169 351c45 0 84 22 112 55v66h-96c-63 0 -93 -25 -93 -61
c0 -35 29 -60 77 -60z" />
    <glyph glyph-name="logicalnot" unicode="&#xac;" horiz-adv-x="600" 
d="M513 79h-53v159h-373v51h426v-210z" />
    <glyph glyph-name="registered" unicode="&#xae;" horiz-adv-x="440" 
d="M221 716c71 0 133 -37 168 -96c17 -29 26 -61 26 -96c0 -69 -37 -130 -96 -165c-30 -17 -63 -26 -98 -26c-72 0 -135 38 -170 96c-17 29 -26 60 -26 95c0 69 37 131 97 166c30 17 63 26 99 26zM221 367c56 0 107 30 135 78c14 24 21 50 21 79c0 57 -30 108 -77 136
c-24 14 -50 21 -79 21c-57 0 -108 -30 -136 -78c-14 -24 -21 -50 -21 -79c0 -57 30 -108 78 -136c24 -14 50 -21 79 -21zM152 617h81c44 0 71 -22 71 -57c0 -31 -24 -51 -61 -55l62 -72h-38l-59 72h-25v-72h-31v184zM183 590v-59h49c24 0 40 10 40 29s-16 30 -40 30h-49z
" />
    <glyph glyph-name="macron" unicode="&#xaf;" horiz-adv-x="452" 
d="M80 637h293v-47h-293v47z" />
    <glyph glyph-name="degree" unicode="&#xb0;" horiz-adv-x="384" 
d="M192 377c-60 0 -114 32 -144 83c-15 25 -23 53 -23 83c0 60 32 114 84 143c25 15 53 22 83 22c60 0 115 -31 145 -82c15 -25 22 -53 22 -83c0 -60 -32 -113 -83 -143c-26 -15 -54 -23 -84 -23zM192 423c65 0 118 53 118 120c0 65 -53 118 -118 118s-118 -53 -118 -118
c0 -67 53 -120 118 -120z" />
    <glyph glyph-name="plusminus" unicode="&#xb1;" horiz-adv-x="600" 
d="M273 149v163h-186v52h186v180h52v-180h188v-52h-188v-163h-52zM513 36h-426v52h426v-52z" />
    <glyph glyph-name="uni00B2" unicode="&#xb2;" horiz-adv-x="329" 
d="M64 610l-31 30c31 43 72 64 123 64c77 0 124 -48 124 -117c0 -43 -19 -76 -55 -112l-112 -114h180v-44h-248v37l146 148c27 25 40 53 40 82c0 44 -30 75 -79 75c-35 0 -64 -16 -88 -49z" />
    <glyph glyph-name="uni00B3" unicode="&#xb3;" horiz-adv-x="329" 
d="M147 704c77 0 130 -42 130 -103c0 -45 -25 -76 -66 -91c45 -13 74 -46 74 -90c0 -69 -60 -107 -135 -107c-52 0 -93 16 -124 49l27 31c26 -25 58 -37 95 -37c51 0 88 24 88 68c0 40 -39 65 -90 65h-52v42h52c48 0 82 25 82 66c0 39 -34 64 -83 64c-37 0 -67 -14 -89 -42
l-29 30c30 37 70 55 120 55z" />
    <glyph glyph-name="acute" unicode="&#xb4;" horiz-adv-x="452" 
d="M135 541l110 150h72l-125 -150h-57z" />
    <glyph glyph-name="uni03BC" unicode="&#x3bc;" horiz-adv-x="599" 
d="M86 -200v671h57v-271c0 -96 55 -153 151 -153c59 0 109 27 137 75c13 23 20 50 20 81v268h57v-471h-56v83c-36 -60 -100 -91 -168 -91c-59 0 -107 18 -142 54v-246h-56z" />
    <glyph glyph-name="paragraph" unicode="&#xb6;" horiz-adv-x="559" 
d="M269 0v375c-123 0 -194 61 -194 162c0 103 72 163 193 163h46v-700h-45zM367 0v700h45v-700h-45z" />
    <glyph glyph-name="periodcentered" unicode="&#xb7;" horiz-adv-x="375" 
d="M188 312c25 0 47 -23 47 -48s-22 -48 -47 -48s-48 23 -48 48c0 27 23 48 48 48z" />
    <glyph glyph-name="cedilla" unicode="&#xb8;" horiz-adv-x="487" 
d="M248 -162h-60l54 165h57z" />
    <glyph glyph-name="uni00B9" unicode="&#xb9;" horiz-adv-x="271" 
d="M189 317h-47v321l-116 -48v47l163 67v-387z" />
    <glyph glyph-name="ordmasculine" unicode="&#xba;" horiz-adv-x="425" 
d="M212 649c64 0 119 -31 149 -82c15 -26 22 -55 22 -86c0 -64 -32 -118 -84 -147c-26 -15 -55 -22 -87 -22c-64 0 -119 31 -148 83c-15 25 -22 54 -22 86c0 63 31 117 83 146c26 15 55 22 87 22zM212 605c-69 0 -121 -53 -121 -124c0 -72 52 -125 121 -125
c71 0 123 53 123 125c0 71 -52 124 -123 124z" />
    <glyph glyph-name="onequarter" unicode="&#xbc;" horiz-adv-x="791" 
d="M142 317v321l-116 -48v47l163 67v-387h-47zM137 0l441 700h58l-442 -700h-57zM659 0v79h-182v34l137 269h52l-133 -260h126v89l10 20h38v-109h64v-43h-64v-79h-48z" />
    <glyph glyph-name="onehalf" unicode="&#xbd;" horiz-adv-x="820" 
d="M189 317h-47v321l-116 -48v47l163 67v-387zM194 0h-57l441 700h58zM556 293l-31 30c29 43 70 64 123 64c76 0 123 -48 123 -117c0 -44 -19 -77 -55 -112l-112 -114h181v-44h-248v37l146 148c27 27 40 54 40 82c0 44 -30 75 -79 75c-36 0 -65 -16 -88 -49z" />
    <glyph glyph-name="threequarters" unicode="&#xbe;" horiz-adv-x="839" 
d="M147 704c77 0 130 -42 130 -103c0 -45 -25 -76 -66 -91c45 -13 74 -46 74 -90c0 -69 -60 -107 -135 -107c-52 0 -93 16 -124 49l27 31c26 -25 58 -37 95 -37c51 0 88 24 88 68c0 40 -39 65 -90 65h-52v42h52c48 0 82 25 82 66c0 39 -34 64 -83 64c-37 0 -67 -14 -89 -42
l-29 30c30 37 70 55 120 55zM242 0h-57l441 700h58zM754 122h64v-43h-64v-79h-47v79h-183v34l137 269h52l-133 -260h127v89l16 20h31v-109z" />
    <glyph glyph-name="questiondown" unicode="&#xbf;" horiz-adv-x="424" 
d="M288 382c-25 0 -48 23 -48 48s23 48 48 48c27 0 48 -21 48 -48c0 -25 -21 -48 -48 -48zM314 253v-155h-24c-119 0 -192 -53 -192 -142c0 -83 76 -136 188 -136c17 0 38 1 62 4l5 -58c-22 -3 -45 -5 -70 -5c-99 0 -176 34 -217 92c-21 29 -31 62 -31 101
c0 113 82 186 223 198l4 101h52z" />
    <glyph glyph-name="Agrave" unicode="&#xc0;" horiz-adv-x="703" 
d="M231 899h72l110 -150h-56zM683 0h-65l-85 205h-364l-85 -205h-64l294 700h75zM193 263h315l-157 378z" />
    <glyph glyph-name="Aacute" unicode="&#xc1;" horiz-adv-x="703" 
d="M286 749l110 150h72l-125 -150h-57zM683 0h-65l-85 205h-364l-85 -205h-64l294 700h75zM193 263h315l-157 378z" />
    <glyph glyph-name="Acircumflex" unicode="&#xc2;" horiz-adv-x="703" 
d="M452 752l-100 102l-100 -102h-62l124 141h75l124 -141h-61zM683 0h-65l-85 205h-364l-85 -205h-64l294 700h75zM193 263h315l-157 378z" />
    <glyph glyph-name="Atilde" unicode="&#xc3;" horiz-adv-x="703" 
d="M216 784l-34 32c28 37 58 55 103 55c32 0 51 -8 79 -24c21 -13 35 -19 54 -19c27 0 48 12 69 39l35 -33c-29 -37 -60 -55 -104 -55c-32 0 -49 8 -78 24c-21 13 -35 19 -55 19c-27 0 -48 -13 -69 -38zM683 0h-65l-85 205h-364l-85 -205h-64l294 700h75zM193 263h315
l-157 378z" />
    <glyph glyph-name="Adieresis" unicode="&#xc4;" horiz-adv-x="703" 
d="M249 863c23 0 41 -19 41 -42s-18 -40 -41 -40s-40 17 -40 40s17 42 40 42zM454 863c23 0 41 -19 41 -42s-18 -40 -41 -40s-41 17 -41 40s18 42 41 42zM683 0h-65l-85 205h-364l-85 -205h-64l294 700h75zM193 263h315l-157 378z" />
    <glyph glyph-name="Aring" unicode="&#xc5;" horiz-adv-x="703" 
d="M352 741c-59 0 -108 47 -108 106s49 107 108 107s107 -48 107 -107s-48 -106 -107 -106zM352 777c39 0 69 31 69 70s-30 70 -69 70s-69 -31 -69 -70s30 -70 69 -70zM683 0h-65l-85 205h-364l-85 -205h-64l294 700h75zM193 263h315l-157 378z" />
    <glyph glyph-name="AE" unicode="&#xc6;" horiz-adv-x="1133" 
d="M1049 0h-482v195h-329l-148 -195h-74l534 700h495v-57h-417v-262h405v-57h-405v-266h421v-58zM567 253v374l-285 -374h285z" />
    <glyph glyph-name="Ccedilla" unicode="&#xc7;" horiz-adv-x="764" 
d="M422 708c120 0 227 -55 283 -144l-51 -34c-49 75 -135 119 -232 119c-111 0 -204 -52 -256 -143c-26 -45 -39 -97 -39 -156c0 -116 56 -210 145 -261c45 -25 95 -38 150 -38c97 0 183 44 231 119l50 -36c-53 -80 -144 -132 -249 -141l-49 -155h-62l51 155
c-125 8 -231 74 -288 180c-29 53 -43 112 -43 177c0 137 67 251 176 312c54 31 115 46 183 46z" />
    <glyph glyph-name="Egrave" unicode="&#xc8;" horiz-adv-x="671" 
d="M220 899h72l110 -150h-56zM587 0h-482v700h478v-57h-417v-262h405v-57h-405v-266h421v-58z" />
    <glyph glyph-name="Eacute" unicode="&#xc9;" horiz-adv-x="671" 
d="M275 749l110 150h72l-125 -150h-57zM587 0h-482v700h478v-57h-417v-262h405v-57h-405v-266h421v-58z" />
    <glyph glyph-name="Ecircumflex" unicode="&#xca;" horiz-adv-x="671" 
d="M441 752l-100 102l-100 -102h-62l124 141h75l124 -141h-61zM587 0h-482v700h478v-57h-417v-262h405v-57h-405v-266h421v-58z" />
    <glyph glyph-name="Edieresis" unicode="&#xcb;" horiz-adv-x="671" 
d="M238 863c23 0 41 -19 41 -42s-18 -40 -41 -40s-40 17 -40 40s17 42 40 42zM443 863c23 0 41 -19 41 -42s-18 -40 -41 -40s-41 17 -41 40s18 42 41 42zM587 0h-482v700h478v-57h-417v-262h405v-57h-405v-266h421v-58z" />
    <glyph glyph-name="Igrave" unicode="&#xcc;" horiz-adv-x="271" 
d="M15 899h72l110 -150h-57zM166 0h-61v700h61v-700z" />
    <glyph glyph-name="Iacute" unicode="&#xcd;" horiz-adv-x="271" 
d="M70 749l110 150h72l-126 -150h-56zM166 0h-61v700h61v-700z" />
    <glyph glyph-name="Icircumflex" unicode="&#xce;" horiz-adv-x="271" 
d="M235 752l-100 102l-100 -102h-62l125 141h75l124 -141h-62zM166 0h-61v700h61v-700z" />
    <glyph glyph-name="Idieresis" unicode="&#xcf;" horiz-adv-x="271" 
d="M33 863c23 0 41 -19 41 -42s-18 -40 -41 -40s-41 17 -41 40s18 42 41 42zM237 863c23 0 42 -19 42 -42s-19 -40 -42 -40s-40 17 -40 40s17 42 40 42zM166 0h-61v700h61v-700z" />
    <glyph glyph-name="Eth" unicode="&#xd0;" horiz-adv-x="888" 
d="M191 700h256c155 0 271 -59 332 -164c31 -53 46 -115 46 -186c0 -143 -64 -251 -177 -307c-57 -29 -124 -43 -201 -43h-256v324h-128v58h128v318zM462 324h-210v-266h195c133 0 229 50 278 138c24 43 36 95 36 154c0 180 -114 292 -314 292h-195v-260h210v-58z" />
    <glyph glyph-name="Ntilde" unicode="&#xd1;" horiz-adv-x="785" 
d="M256 784l-34 32c28 37 59 55 103 55c32 0 50 -8 79 -24c21 -13 35 -19 55 -19c27 0 48 12 69 39l34 -33c-29 -37 -59 -55 -103 -55c-32 0 -53 8 -78 24c-21 13 -36 19 -56 19c-27 0 -46 -11 -69 -38zM680 0h-55l-459 595v-595h-61v700h55l459 -595v595h61v-700z" />
    <glyph glyph-name="Ograve" unicode="&#xd2;" horiz-adv-x="843" 
d="M301 899h72l110 -150h-56zM422 708c135 0 250 -65 312 -173c31 -55 46 -116 46 -185c0 -137 -66 -251 -175 -312c-55 -31 -116 -46 -183 -46c-136 0 -249 65 -312 174c-31 54 -47 115 -47 184c0 137 67 251 176 312c54 31 115 46 183 46zM422 649
c-111 0 -204 -52 -256 -143c-26 -45 -39 -97 -39 -156c0 -116 56 -210 145 -261c45 -25 95 -38 150 -38c109 0 203 53 255 144c26 45 39 97 39 155c0 117 -56 212 -145 262c-45 25 -94 37 -149 37z" />
    <glyph glyph-name="Oacute" unicode="&#xd3;" horiz-adv-x="843" 
d="M356 749l110 150h72l-125 -150h-57zM422 708c135 0 250 -65 312 -173c31 -55 46 -116 46 -185c0 -137 -66 -251 -175 -312c-55 -31 -116 -46 -183 -46c-136 0 -249 65 -312 174c-31 54 -47 115 -47 184c0 137 67 251 176 312c54 31 115 46 183 46zM422 649
c-111 0 -204 -52 -256 -143c-26 -45 -39 -97 -39 -156c0 -116 56 -210 145 -261c45 -25 95 -38 150 -38c109 0 203 53 255 144c26 45 39 97 39 155c0 117 -56 212 -145 262c-45 25 -94 37 -149 37z" />
    <glyph glyph-name="Ocircumflex" unicode="&#xd4;" horiz-adv-x="843" 
d="M522 752l-100 102l-100 -102h-62l124 141h75l124 -141h-61zM422 708c135 0 250 -65 312 -173c31 -55 46 -116 46 -185c0 -137 -66 -251 -175 -312c-55 -31 -116 -46 -183 -46c-136 0 -249 65 -312 174c-31 54 -47 115 -47 184c0 137 67 251 176 312c54 31 115 46 183 46z
M422 649c-111 0 -204 -52 -256 -143c-26 -45 -39 -97 -39 -156c0 -116 56 -210 145 -261c45 -25 95 -38 150 -38c109 0 203 53 255 144c26 45 39 97 39 155c0 117 -56 212 -145 262c-45 25 -94 37 -149 37z" />
    <glyph glyph-name="Otilde" unicode="&#xd5;" horiz-adv-x="843" 
d="M286 784l-34 32c28 37 58 55 103 55c32 0 51 -8 79 -24c21 -13 35 -19 54 -19c27 0 48 12 69 39l35 -33c-29 -37 -60 -55 -104 -55c-32 0 -49 8 -78 24c-21 13 -35 19 -55 19c-27 0 -48 -13 -69 -38zM422 708c135 0 250 -65 312 -173c31 -55 46 -116 46 -185
c0 -137 -66 -251 -175 -312c-55 -31 -116 -46 -183 -46c-136 0 -249 65 -312 174c-31 54 -47 115 -47 184c0 137 67 251 176 312c54 31 115 46 183 46zM422 649c-111 0 -204 -52 -256 -143c-26 -45 -39 -97 -39 -156c0 -116 56 -210 145 -261c45 -25 95 -38 150 -38
c109 0 203 53 255 144c26 45 39 97 39 155c0 117 -56 212 -145 262c-45 25 -94 37 -149 37z" />
    <glyph glyph-name="Odieresis" unicode="&#xd6;" horiz-adv-x="843" 
d="M319 863c23 0 41 -19 41 -42s-18 -40 -41 -40s-40 17 -40 40s17 42 40 42zM524 863c23 0 41 -19 41 -42s-18 -40 -41 -40s-41 17 -41 40s18 42 41 42zM422 708c135 0 250 -65 312 -173c31 -55 46 -116 46 -185c0 -137 -66 -251 -175 -312c-55 -31 -116 -46 -183 -46
c-136 0 -249 65 -312 174c-31 54 -47 115 -47 184c0 137 67 251 176 312c54 31 115 46 183 46zM422 649c-111 0 -204 -52 -256 -143c-26 -45 -39 -97 -39 -156c0 -116 56 -210 145 -261c45 -25 95 -38 150 -38c109 0 203 53 255 144c26 45 39 97 39 155
c0 117 -56 212 -145 262c-45 25 -94 37 -149 37z" />
    <glyph glyph-name="multiply" unicode="&#xd7;" horiz-adv-x="600" 
d="M114 115l148 148l-149 149l38 38l149 -149l150 150l37 -37l-150 -150l150 -151l-37 -37l-151 150l-148 -148z" />
    <glyph glyph-name="Oslash" unicode="&#xd8;" horiz-adv-x="843" 
d="M422 708c91 0 172 -29 235 -82l82 82l40 -41l-81 -81c53 -61 82 -143 82 -236c0 -137 -66 -251 -175 -312c-55 -31 -116 -46 -183 -46c-91 0 -173 30 -236 82l-81 -81l-41 40l81 81c-52 64 -82 145 -82 236c0 137 67 251 176 312c54 31 115 46 183 46zM422 649
c-111 0 -204 -52 -256 -143c-26 -45 -39 -97 -39 -156c0 -75 21 -138 63 -191l423 423c-52 44 -118 67 -191 67zM716 350c0 75 -21 138 -63 191l-424 -423c54 -45 118 -67 193 -67c109 0 203 53 255 144c26 45 39 97 39 155z" />
    <glyph glyph-name="Ugrave" unicode="&#xd9;" horiz-adv-x="755" 
d="M257 899h72l110 -150h-57zM661 700v-427c0 -120 -53 -206 -139 -249c-43 -21 -92 -32 -145 -32c-107 0 -197 43 -246 127c-25 42 -37 93 -37 154v427h61v-423c0 -148 90 -226 222 -226c133 0 222 78 222 226v423h62z" />
    <glyph glyph-name="Uacute" unicode="&#xda;" horiz-adv-x="755" 
d="M312 749l110 150h72l-126 -150h-56zM661 700v-427c0 -120 -53 -206 -139 -249c-43 -21 -92 -32 -145 -32c-107 0 -197 43 -246 127c-25 42 -37 93 -37 154v427h61v-423c0 -148 90 -226 222 -226c133 0 222 78 222 226v423h62z" />
    <glyph glyph-name="Ucircumflex" unicode="&#xdb;" horiz-adv-x="755" 
d="M477 752l-100 102l-100 -102h-61l124 141h75l124 -141h-62zM661 700v-427c0 -120 -53 -206 -139 -249c-43 -21 -92 -32 -145 -32c-107 0 -197 43 -246 127c-25 42 -37 93 -37 154v427h61v-423c0 -148 90 -226 222 -226c133 0 222 78 222 226v423h62z" />
    <glyph glyph-name="Udieresis" unicode="&#xdc;" horiz-adv-x="755" 
d="M275 863c23 0 41 -19 41 -42s-18 -40 -41 -40s-41 17 -41 40s18 42 41 42zM479 863c23 0 42 -19 42 -42s-19 -40 -42 -40s-40 17 -40 40s17 42 40 42zM661 700v-427c0 -120 -53 -206 -139 -249c-43 -21 -92 -32 -145 -32c-107 0 -197 43 -246 127c-25 42 -37 93 -37 154
v427h61v-423c0 -148 90 -226 222 -226c133 0 222 78 222 226v423h62z" />
    <glyph glyph-name="Yacute" unicode="&#xdd;" horiz-adv-x="632" 
d="M251 749l110 150h72l-125 -150h-57zM347 300v-300h-61v301l-280 399h73l238 -342l237 342h72z" />
    <glyph glyph-name="Thorn" unicode="&#xde;" horiz-adv-x="666" 
d="M166 565h199c155 0 247 -76 247 -207s-92 -208 -247 -208h-199v-150h-61v700h61v-135zM166 508v-300h197c119 0 186 53 186 150s-67 150 -186 150h-197z" />
    <glyph glyph-name="germandbls" unicode="&#xdf;" horiz-adv-x="608" 
d="M87 0v510c0 129 83 218 224 218c83 0 155 -33 195 -90c19 -29 29 -62 29 -99c0 -85 -48 -146 -117 -170c79 -21 137 -89 137 -176c0 -81 -39 -144 -101 -176c-31 -17 -66 -25 -104 -25c-51 0 -87 9 -123 25l14 52c29 -15 63 -23 100 -23c93 0 156 54 156 149
c0 91 -70 144 -175 144h-36v52h24c97 0 167 44 167 140c0 91 -71 143 -167 143c-101 0 -166 -64 -166 -168v-506h-57z" />
    <glyph glyph-name="agrave" unicode="&#xe0;" horiz-adv-x="622" 
d="M174 691h72l110 -150h-56zM532 0h-57v91c-40 -61 -103 -99 -186 -99c-87 0 -163 45 -204 119c-21 37 -31 78 -31 124c0 92 44 170 116 212c36 21 76 31 119 31c83 0 146 -37 186 -98v91h57v-471zM295 425c-71 0 -128 -35 -159 -93c-16 -29 -24 -62 -24 -97
c0 -71 33 -131 89 -164c28 -17 59 -25 94 -25c71 0 128 35 160 93c15 29 23 61 23 96c0 71 -33 132 -88 165c-28 17 -60 25 -95 25z" />
    <glyph glyph-name="aacute" unicode="&#xe1;" horiz-adv-x="622" 
d="M244 541l110 150h72l-125 -150h-57zM532 0h-57v91c-40 -61 -103 -99 -186 -99c-87 0 -163 45 -204 119c-21 37 -31 78 -31 124c0 92 44 170 116 212c36 21 76 31 119 31c83 0 146 -37 186 -98v91h57v-471zM295 425c-71 0 -128 -35 -159 -93c-16 -29 -24 -62 -24 -97
c0 -71 33 -131 89 -164c28 -17 59 -25 94 -25c71 0 128 35 160 93c15 29 23 61 23 96c0 71 -33 132 -88 165c-28 17 -60 25 -95 25z" />
    <glyph glyph-name="acircumflex" unicode="&#xe2;" horiz-adv-x="622" 
d="M403 544l-100 103l-100 -103h-61l124 141h75l124 -141h-62zM532 0h-57v91c-40 -61 -103 -99 -186 -99c-87 0 -163 45 -204 119c-21 37 -31 78 -31 124c0 92 44 170 116 212c36 21 76 31 119 31c83 0 146 -37 186 -98v91h57v-471zM295 425c-71 0 -128 -35 -159 -93
c-16 -29 -24 -62 -24 -97c0 -71 33 -131 89 -164c28 -17 59 -25 94 -25c71 0 128 35 160 93c15 29 23 61 23 96c0 71 -33 132 -88 165c-28 17 -60 25 -95 25z" />
    <glyph glyph-name="atilde" unicode="&#xe3;" horiz-adv-x="622" 
d="M173 576l-34 33c28 37 59 55 103 55c32 0 51 -8 79 -24c21 -13 35 -19 54 -19c27 0 48 13 69 38l35 -32c-29 -39 -59 -56 -104 -56c-32 0 -51 9 -78 25c-21 13 -35 19 -55 19c-27 0 -48 -12 -69 -39zM532 0h-57v91c-40 -61 -103 -99 -186 -99c-87 0 -163 45 -204 119
c-21 37 -31 78 -31 124c0 92 44 170 116 212c36 21 76 31 119 31c83 0 146 -37 186 -98v91h57v-471zM295 425c-71 0 -128 -35 -159 -93c-16 -29 -24 -62 -24 -97c0 -71 33 -131 89 -164c28 -17 59 -25 94 -25c71 0 128 35 160 93c15 29 23 61 23 96c0 71 -33 132 -88 165
c-28 17 -60 25 -95 25z" />
    <glyph glyph-name="adieresis" unicode="&#xe4;" horiz-adv-x="622" 
d="M201 655c23 0 41 -18 41 -41s-18 -41 -41 -41s-41 18 -41 41s18 41 41 41zM405 655c23 0 42 -18 42 -41s-19 -41 -42 -41s-40 18 -40 41s17 41 40 41zM532 0h-57v91c-40 -61 -103 -99 -186 -99c-87 0 -163 45 -204 119c-21 37 -31 78 -31 124c0 92 44 170 116 212
c36 21 76 31 119 31c83 0 146 -37 186 -98v91h57v-471zM295 425c-71 0 -128 -35 -159 -93c-16 -29 -24 -62 -24 -97c0 -71 33 -131 89 -164c28 -17 59 -25 94 -25c71 0 128 35 160 93c15 29 23 61 23 96c0 71 -33 132 -88 165c-28 17 -60 25 -95 25z" />
    <glyph glyph-name="aring" unicode="&#xe5;" horiz-adv-x="622" 
d="M303 533c-59 0 -107 48 -107 107s48 106 107 106s108 -49 108 -106c0 -59 -49 -107 -108 -107zM303 570c39 0 69 31 69 70s-30 69 -69 69c-37 0 -69 -30 -69 -69s30 -70 69 -70zM532 0h-57v91c-40 -61 -103 -99 -186 -99c-87 0 -163 45 -204 119c-21 37 -31 78 -31 124
c0 92 44 170 116 212c36 21 76 31 119 31c83 0 146 -37 186 -98v91h57v-471zM295 425c-71 0 -128 -35 -159 -93c-16 -29 -24 -62 -24 -97c0 -71 33 -131 89 -164c28 -17 59 -25 94 -25c71 0 128 35 160 93c15 29 23 61 23 96c0 71 -33 132 -88 165c-28 17 -60 25 -95 25z
" />
    <glyph glyph-name="ae" unicode="&#xe6;" horiz-adv-x="910" 
d="M636 478c83 0 152 -43 191 -116c19 -37 29 -78 29 -124c0 -11 0 -18 -1 -23h-394c9 -108 83 -173 182 -173c60 0 113 22 159 67l30 -39c-56 -56 -119 -78 -192 -78c-85 0 -156 37 -197 101c-47 -61 -120 -101 -208 -101c-111 0 -181 56 -181 137c0 83 70 135 195 135h154
c0 112 -46 163 -150 163c-53 0 -101 -17 -144 -50l-27 42c51 39 110 59 178 59c98 0 159 -38 182 -115c37 71 111 115 194 115zM635 427c-93 0 -161 -67 -173 -163h336c-8 97 -75 163 -163 163zM244 43c68 0 137 36 177 93c-10 24 -16 51 -18 80h-148
c-96 0 -140 -34 -140 -87c0 -51 48 -86 129 -86z" />
    <glyph glyph-name="ccedilla" unicode="&#xe7;" horiz-adv-x="512" 
d="M295 478c69 0 132 -26 173 -73l-37 -38c-39 39 -85 58 -138 58c-68 0 -126 -34 -157 -92c-16 -29 -24 -62 -24 -98c0 -72 33 -132 89 -164c27 -17 58 -25 92 -25c53 0 103 22 140 59l35 -39c-37 -41 -89 -67 -149 -72l-48 -156h-60l51 156c-81 9 -147 56 -182 126
c-17 35 -26 73 -26 115c0 92 43 170 116 212c37 21 78 31 125 31z" />
    <glyph glyph-name="egrave" unicode="&#xe8;" horiz-adv-x="561" 
d="M157 691h72l110 -150h-57zM287 478c83 0 152 -43 191 -116c19 -37 29 -78 29 -124c0 -11 0 -18 -1 -23h-394c8 -108 82 -173 182 -173c60 0 113 22 159 67l30 -39c-56 -56 -120 -78 -193 -78c-91 0 -165 44 -205 118c-21 37 -31 78 -31 125c0 93 43 171 114 212
c35 21 75 31 119 31zM286 428c-95 0 -162 -67 -173 -164h336c-8 97 -75 164 -163 164z" />
    <glyph glyph-name="eacute" unicode="&#xe9;" horiz-adv-x="561" 
d="M227 541l110 150h72l-126 -150h-56zM287 478c83 0 152 -43 191 -116c19 -37 29 -78 29 -124c0 -11 0 -18 -1 -23h-394c8 -108 82 -173 182 -173c60 0 113 22 159 67l30 -39c-56 -56 -120 -78 -193 -78c-91 0 -165 44 -205 118c-21 37 -31 78 -31 125c0 93 43 171 114 212
c35 21 75 31 119 31zM286 428c-95 0 -162 -67 -173 -164h336c-8 97 -75 164 -163 164z" />
    <glyph glyph-name="ecircumflex" unicode="&#xea;" horiz-adv-x="561" 
d="M386 544l-100 103l-100 -103h-62l124 141h75l124 -141h-61zM287 478c83 0 152 -43 191 -116c19 -37 29 -78 29 -124c0 -11 0 -18 -1 -23h-394c8 -108 82 -173 182 -173c60 0 113 22 159 67l30 -39c-56 -56 -120 -78 -193 -78c-91 0 -165 44 -205 118
c-21 37 -31 78 -31 125c0 93 43 171 114 212c35 21 75 31 119 31zM286 428c-95 0 -162 -67 -173 -164h336c-8 97 -75 164 -163 164z" />
    <glyph glyph-name="edieresis" unicode="&#xeb;" horiz-adv-x="561" 
d="M183 655c23 0 41 -18 41 -41s-18 -41 -41 -41s-40 18 -40 41s17 41 40 41zM388 655c23 0 41 -18 41 -41s-18 -41 -41 -41s-41 18 -41 41s18 41 41 41zM287 478c83 0 152 -43 191 -116c19 -37 29 -78 29 -124c0 -11 0 -18 -1 -23h-394c8 -108 82 -173 182 -173
c60 0 113 22 159 67l30 -39c-56 -56 -120 -78 -193 -78c-91 0 -165 44 -205 118c-21 37 -31 78 -31 125c0 93 43 171 114 212c35 21 75 31 119 31zM286 428c-95 0 -162 -67 -173 -164h336c-8 97 -75 164 -163 164z" />
    <glyph glyph-name="igrave" unicode="&#xec;" horiz-adv-x="239" 
d="M-10 691h73l110 -150h-57zM148 0h-57v471h57v-471z" />
    <glyph glyph-name="iacute" unicode="&#xed;" horiz-adv-x="239" 
d="M61 541l110 150h72l-126 -150h-56zM148 0h-57v471h57v-471z" />
    <glyph glyph-name="icircumflex" unicode="&#xee;" horiz-adv-x="239" 
d="M220 544l-100 103l-100 -103h-62l124 141h75l124 -141h-61zM148 0h-57v471h57v-471z" />
    <glyph glyph-name="idieresis" unicode="&#xef;" horiz-adv-x="239" 
d="M17 655c23 0 41 -18 41 -41s-18 -41 -41 -41s-41 18 -41 41s18 41 41 41zM222 655c23 0 41 -18 41 -41s-18 -41 -41 -41s-41 18 -41 41s18 41 41 41zM148 0h-57v471h57v-471z" />
    <glyph glyph-name="eth" unicode="&#xf0;" horiz-adv-x="595" 
d="M463 678l-111 -64c112 -99 189 -236 189 -375c0 -92 -45 -171 -119 -214c-37 -22 -79 -33 -124 -33c-91 0 -169 45 -212 118c-21 37 -32 77 -32 122c0 89 44 167 115 209c35 21 75 31 118 31c68 0 127 -28 167 -76c-31 71 -81 134 -150 189l-130 -75l-21 35l115 67
c-33 23 -72 46 -118 67l26 46c49 -21 97 -49 142 -84l124 72zM298 418c-69 0 -129 -34 -161 -90c-17 -29 -25 -61 -25 -96c0 -71 35 -130 92 -162c28 -16 59 -24 94 -24c69 0 129 34 162 91c16 28 24 60 24 95c0 71 -35 130 -91 162c-29 16 -60 24 -95 24z" />
    <glyph glyph-name="ntilde" unicode="&#xf1;" horiz-adv-x="599" 
d="M177 576l-34 33c28 37 59 55 103 55c32 0 51 -8 79 -24c21 -13 35 -19 54 -19c27 0 48 13 69 38l35 -32c-29 -39 -59 -56 -104 -56c-32 0 -51 9 -78 25c-21 13 -35 19 -55 19c-27 0 -48 -12 -69 -39zM316 478c119 0 198 -74 198 -189v-289h-57v271c0 96 -55 153 -151 153
c-59 0 -109 -27 -137 -74c-14 -24 -21 -51 -21 -82v-268h-57v471h57v-83c36 60 99 90 168 90z" />
    <glyph glyph-name="ograve" unicode="&#xf2;" horiz-adv-x="596" 
d="M169 691h72l110 -150h-56zM298 478c92 0 170 -44 213 -119c21 -37 32 -79 32 -124c0 -91 -45 -168 -120 -211c-37 -21 -79 -32 -125 -32c-92 0 -169 46 -212 120c-21 37 -32 78 -32 123c0 92 46 170 120 212c37 21 78 31 124 31zM298 425c-69 0 -129 -34 -161 -92
c-17 -29 -25 -62 -25 -98c0 -72 35 -132 92 -164c28 -17 59 -25 94 -25c69 0 129 35 162 92c16 29 24 61 24 97c0 72 -35 133 -91 166c-29 16 -60 24 -95 24z" />
    <glyph glyph-name="oacute" unicode="&#xf3;" horiz-adv-x="596" 
d="M239 541l110 150h72l-125 -150h-57zM298 478c92 0 170 -44 213 -119c21 -37 32 -79 32 -124c0 -91 -45 -168 -120 -211c-37 -21 -79 -32 -125 -32c-92 0 -169 46 -212 120c-21 37 -32 78 -32 123c0 92 46 170 120 212c37 21 78 31 124 31zM298 425
c-69 0 -129 -34 -161 -92c-17 -29 -25 -62 -25 -98c0 -72 35 -132 92 -164c28 -17 59 -25 94 -25c69 0 129 35 162 92c16 29 24 61 24 97c0 72 -35 133 -91 166c-29 16 -60 24 -95 24z" />
    <glyph glyph-name="ocircumflex" unicode="&#xf4;" horiz-adv-x="596" 
d="M398 544l-100 103l-100 -103h-61l124 141h75l124 -141h-62zM298 478c92 0 170 -44 213 -119c21 -37 32 -79 32 -124c0 -91 -45 -168 -120 -211c-37 -21 -79 -32 -125 -32c-92 0 -169 46 -212 120c-21 37 -32 78 -32 123c0 92 46 170 120 212c37 21 78 31 124 31zM298 425
c-69 0 -129 -34 -161 -92c-17 -29 -25 -62 -25 -98c0 -72 35 -132 92 -164c28 -17 59 -25 94 -25c69 0 129 35 162 92c16 29 24 61 24 97c0 72 -35 133 -91 166c-29 16 -60 24 -95 24z" />
    <glyph glyph-name="otilde" unicode="&#xf5;" horiz-adv-x="596" 
d="M168 576l-34 33c28 37 59 55 103 55c32 0 51 -8 79 -24c21 -13 35 -19 54 -19c27 0 48 13 69 38l35 -32c-29 -39 -59 -56 -104 -56c-32 0 -51 9 -78 25c-21 13 -35 19 -55 19c-27 0 -48 -12 -69 -39zM298 478c92 0 170 -44 213 -119c21 -37 32 -79 32 -124
c0 -91 -45 -168 -120 -211c-37 -21 -79 -32 -125 -32c-92 0 -169 46 -212 120c-21 37 -32 78 -32 123c0 92 46 170 120 212c37 21 78 31 124 31zM298 425c-69 0 -129 -34 -161 -92c-17 -29 -25 -62 -25 -98c0 -72 35 -132 92 -164c28 -17 59 -25 94 -25c69 0 129 35 162 92
c16 29 24 61 24 97c0 72 -35 133 -91 166c-29 16 -60 24 -95 24z" />
    <glyph glyph-name="odieresis" unicode="&#xf6;" horiz-adv-x="596" 
d="M196 655c23 0 41 -18 41 -41s-18 -41 -41 -41s-41 18 -41 41s18 41 41 41zM400 655c23 0 42 -18 42 -41s-19 -41 -42 -41s-40 18 -40 41s17 41 40 41zM298 478c92 0 170 -44 213 -119c21 -37 32 -79 32 -124c0 -91 -45 -168 -120 -211c-37 -21 -79 -32 -125 -32
c-92 0 -169 46 -212 120c-21 37 -32 78 -32 123c0 92 46 170 120 212c37 21 78 31 124 31zM298 425c-69 0 -129 -34 -161 -92c-17 -29 -25 -62 -25 -98c0 -72 35 -132 92 -164c28 -17 59 -25 94 -25c69 0 129 35 162 92c16 29 24 61 24 97c0 72 -35 133 -91 166
c-29 16 -60 24 -95 24z" />
    <glyph glyph-name="divide" unicode="&#xf7;" horiz-adv-x="600" 
d="M301 459c21 0 40 -19 40 -40s-19 -40 -40 -40s-41 19 -41 40s18 40 41 40zM513 238h-426v51h426v-51zM301 148c21 0 40 -19 40 -40s-19 -40 -40 -40s-41 19 -41 40s18 40 41 40z" />
    <glyph glyph-name="oslash" unicode="&#xf8;" horiz-adv-x="596" 
d="M298 478c59 0 111 -18 156 -53l58 58l35 -34l-59 -58c35 -43 55 -97 55 -156c0 -91 -45 -168 -120 -211c-37 -21 -79 -32 -125 -32c-59 0 -111 18 -156 53l-57 -58l-35 34l58 58c-36 45 -54 97 -54 156c0 92 46 170 120 212c37 21 78 31 124 31zM298 425
c-69 0 -129 -34 -161 -92c-17 -29 -25 -62 -25 -98c0 -44 12 -82 36 -115l266 266c-32 24 -73 39 -116 39zM484 235c0 44 -12 83 -36 116l-266 -266c33 -26 72 -39 116 -39c69 0 129 35 162 92c16 29 24 61 24 97z" />
    <glyph glyph-name="ugrave" unicode="&#xf9;" horiz-adv-x="593" 
d="M168 691h72l110 -150h-57zM508 471v-276c0 -87 -40 -148 -104 -179c-32 -16 -68 -24 -107 -24c-79 0 -146 32 -183 93c-19 30 -28 67 -28 110v276h57v-271c0 -99 61 -154 154 -154s154 55 154 154v271h57z" />
    <glyph glyph-name="uacute" unicode="&#xfa;" horiz-adv-x="593" 
d="M238 541l110 150h72l-126 -150h-56zM508 471v-276c0 -87 -40 -148 -104 -179c-32 -16 -68 -24 -107 -24c-79 0 -146 32 -183 93c-19 30 -28 67 -28 110v276h57v-271c0 -99 61 -154 154 -154s154 55 154 154v271h57z" />
    <glyph glyph-name="ucircumflex" unicode="&#xfb;" horiz-adv-x="593" 
d="M397 544l-100 103l-100 -103h-62l124 141h75l124 -141h-61zM508 471v-276c0 -87 -40 -148 -104 -179c-32 -16 -68 -24 -107 -24c-79 0 -146 32 -183 93c-19 30 -28 67 -28 110v276h57v-271c0 -99 61 -154 154 -154s154 55 154 154v271h57z" />
    <glyph glyph-name="udieresis" unicode="&#xfc;" horiz-adv-x="593" 
d="M194 655c23 0 41 -18 41 -41s-18 -41 -41 -41s-40 18 -40 41s17 41 40 41zM399 655c23 0 41 -18 41 -41s-18 -41 -41 -41s-41 18 -41 41s18 41 41 41zM508 471v-276c0 -87 -40 -148 -104 -179c-32 -16 -68 -24 -107 -24c-79 0 -146 32 -183 93c-19 30 -28 67 -28 110v276
h57v-271c0 -99 61 -154 154 -154s154 55 154 154v271h57z" />
    <glyph glyph-name="yacute" unicode="&#xfd;" horiz-adv-x="514" 
d="M201 541l110 150h72l-126 -150h-56zM116 -202h-63l180 307l-221 366h64l190 -310l177 310h63z" />
    <glyph glyph-name="thorn" unicode="&#xfe;" horiz-adv-x="623" 
d="M334 478c87 0 163 -44 204 -118c21 -37 31 -79 31 -125c0 -92 -44 -169 -116 -211c-36 -21 -76 -32 -119 -32c-83 0 -146 37 -186 98v-290h-57v920h57v-339c40 60 103 97 186 97zM327 425c-69 0 -128 -35 -159 -93c-16 -29 -24 -62 -24 -97c0 -71 33 -132 89 -164
c28 -17 59 -25 94 -25c71 0 129 36 161 93c15 29 23 61 23 96c0 71 -33 132 -89 165c-28 17 -60 25 -95 25z" />
    <glyph glyph-name="ydieresis" unicode="&#xff;" horiz-adv-x="514" 
d="M157 655c23 0 41 -18 41 -41s-18 -41 -41 -41s-40 18 -40 41s17 41 40 41zM362 655c23 0 41 -18 41 -41s-18 -41 -41 -41s-41 18 -41 41s18 41 41 41zM116 -202h-63l180 307l-221 366h64l190 -310l177 310h63z" />
    <glyph glyph-name="Amacron" unicode="&#x100;" horiz-adv-x="703" 
d="M206 844h292v-46h-292v46zM683 0h-65l-85 205h-364l-85 -205h-64l294 700h75zM193 263h315l-157 378z" />
    <glyph glyph-name="amacron" unicode="&#x101;" horiz-adv-x="622" 
d="M157 637h293v-47h-293v47zM532 0h-57v91c-40 -61 -103 -99 -186 -99c-87 0 -163 45 -204 119c-21 37 -31 78 -31 124c0 92 44 170 116 212c36 21 76 31 119 31c83 0 146 -37 186 -98v91h57v-471zM295 425c-71 0 -128 -35 -159 -93c-16 -29 -24 -62 -24 -97
c0 -71 33 -131 89 -164c28 -17 59 -25 94 -25c71 0 128 35 160 93c15 29 23 61 23 96c0 71 -33 132 -88 165c-28 17 -60 25 -95 25z" />
    <glyph glyph-name="Abreve" unicode="&#x102;" horiz-adv-x="703" 
d="M189 886l46 14c19 -67 60 -101 117 -101s99 34 116 101l47 -14c-24 -88 -83 -135 -163 -135s-139 47 -163 135zM683 0h-65l-85 205h-364l-85 -205h-64l294 700h75zM193 263h315l-157 378z" />
    <glyph glyph-name="abreve" unicode="&#x103;" horiz-adv-x="622" 
d="M141 678l46 14c17 -67 59 -100 116 -100s98 33 117 100l46 -14c-24 -88 -83 -135 -163 -135s-139 48 -162 135zM532 0h-57v91c-40 -61 -103 -99 -186 -99c-87 0 -163 45 -204 119c-21 37 -31 78 -31 124c0 92 44 170 116 212c36 21 76 31 119 31c83 0 146 -37 186 -98v91
h57v-471zM295 425c-71 0 -128 -35 -159 -93c-16 -29 -24 -62 -24 -97c0 -71 33 -131 89 -164c28 -17 59 -25 94 -25c71 0 128 35 160 93c15 29 23 61 23 96c0 71 -33 132 -88 165c-28 17 -60 25 -95 25z" />
    <glyph glyph-name="Aogonek" unicode="&#x104;" horiz-adv-x="703" 
d="M656 -128l31 -37c-27 -27 -58 -41 -93 -41c-59 0 -100 32 -100 83c0 52 40 89 121 129l-82 199h-364l-85 -205h-64l294 701h75l294 -701h-16c-81 -37 -119 -72 -119 -112c0 -28 20 -45 51 -45c22 0 41 10 57 29zM193 263h315l-157 378z" />
    <glyph glyph-name="aogonek" unicode="&#x105;" horiz-adv-x="622" 
d="M521 -128l31 -37c-27 -27 -58 -41 -93 -41c-59 0 -100 32 -100 83s39 89 116 126v88c-40 -61 -103 -99 -186 -99c-87 0 -163 45 -204 119c-21 37 -31 78 -31 124c0 92 44 170 116 212c36 21 76 31 119 31c83 0 146 -37 186 -98v91h57v-471c-81 -37 -119 -72 -119 -112
c0 -28 20 -45 51 -45c22 0 41 10 57 29zM295 425c-71 0 -128 -35 -159 -93c-16 -29 -24 -62 -24 -97c0 -71 33 -131 89 -164c28 -17 59 -25 94 -25c71 0 128 35 160 93c15 29 23 61 23 96c0 71 -33 132 -88 165c-28 17 -60 25 -95 25z" />
    <glyph glyph-name="Cacute" unicode="&#x106;" horiz-adv-x="764" 
d="M354 749l110 150h72l-126 -150h-56zM422 708c120 0 227 -55 283 -144l-51 -34c-49 75 -135 119 -232 119c-111 0 -204 -52 -256 -143c-26 -45 -39 -97 -39 -156c0 -116 56 -210 145 -261c45 -25 95 -38 150 -38c97 0 183 44 231 119l50 -36c-59 -88 -162 -142 -281 -142
c-136 0 -249 65 -312 174c-31 54 -47 115 -47 184c0 137 67 251 176 312c54 31 115 46 183 46z" />
    <glyph glyph-name="cacute" unicode="&#x107;" horiz-adv-x="512" 
d="M232 541l110 150h72l-125 -150h-57zM295 478c69 0 132 -26 173 -73l-37 -38c-39 39 -85 58 -138 58c-68 0 -126 -34 -157 -92c-16 -29 -24 -62 -24 -98c0 -72 33 -132 89 -164c27 -17 58 -25 92 -25c53 0 103 22 140 59l35 -39c-43 -47 -104 -74 -173 -74
c-93 0 -170 46 -210 120c-21 37 -31 78 -31 123c0 92 43 170 116 212c37 21 78 31 125 31z" />
    <glyph glyph-name="Ccircumflex" unicode="&#x108;" horiz-adv-x="764" 
d="M519 752l-100 102l-100 -102h-61l124 141h75l124 -141h-62zM422 708c120 0 227 -55 283 -144l-51 -34c-49 75 -135 119 -232 119c-111 0 -204 -52 -256 -143c-26 -45 -39 -97 -39 -156c0 -116 56 -210 145 -261c45 -25 95 -38 150 -38c97 0 183 44 231 119l50 -36
c-59 -88 -162 -142 -281 -142c-136 0 -249 65 -312 174c-31 54 -47 115 -47 184c0 137 67 251 176 312c54 31 115 46 183 46z" />
    <glyph glyph-name="ccircumflex" unicode="&#x109;" horiz-adv-x="512" 
d="M391 544l-100 103l-100 -103h-61l124 141h75l124 -141h-62zM295 478c69 0 132 -26 173 -73l-37 -38c-39 39 -85 58 -138 58c-68 0 -126 -34 -157 -92c-16 -29 -24 -62 -24 -98c0 -72 33 -132 89 -164c27 -17 58 -25 92 -25c53 0 103 22 140 59l35 -39
c-43 -47 -104 -74 -173 -74c-93 0 -170 46 -210 120c-21 37 -31 78 -31 123c0 92 43 170 116 212c37 21 78 31 125 31z" />
    <glyph glyph-name="Cdotaccent" unicode="&#x10a;" horiz-adv-x="764" 
d="M414 865c24 0 42 -19 42 -42c0 -24 -18 -42 -42 -42s-42 18 -42 42c0 23 18 42 42 42zM422 708c120 0 227 -55 283 -144l-51 -34c-49 75 -135 119 -232 119c-111 0 -204 -52 -256 -143c-26 -45 -39 -97 -39 -156c0 -116 56 -210 145 -261c45 -25 95 -38 150 -38
c97 0 183 44 231 119l50 -36c-59 -88 -162 -142 -281 -142c-136 0 -249 65 -312 174c-31 54 -47 115 -47 184c0 137 67 251 176 312c54 31 115 46 183 46z" />
    <glyph glyph-name="cdotaccent" unicode="&#x10b;" horiz-adv-x="512" 
d="M291 681c23 0 41 -18 41 -41s-18 -41 -41 -41s-40 18 -40 41s17 41 40 41zM295 478c69 0 132 -26 173 -73l-37 -38c-39 39 -85 58 -138 58c-68 0 -126 -34 -157 -92c-16 -29 -24 -62 -24 -98c0 -72 33 -132 89 -164c27 -17 58 -25 92 -25c53 0 103 22 140 59l35 -39
c-43 -47 -104 -74 -173 -74c-93 0 -170 46 -210 120c-21 37 -31 78 -31 123c0 92 43 170 116 212c37 21 78 31 125 31z" />
    <glyph glyph-name="Ccaron" unicode="&#x10c;" horiz-adv-x="764" 
d="M319 891l100 -102l100 102h62l-124 -140h-75l-124 140h61zM422 708c120 0 227 -55 283 -144l-51 -34c-49 75 -135 119 -232 119c-111 0 -204 -52 -256 -143c-26 -45 -39 -97 -39 -156c0 -116 56 -210 145 -261c45 -25 95 -38 150 -38c97 0 183 44 231 119l50 -36
c-59 -88 -162 -142 -281 -142c-136 0 -249 65 -312 174c-31 54 -47 115 -47 184c0 137 67 251 176 312c54 31 115 46 183 46z" />
    <glyph glyph-name="ccaron" unicode="&#x10d;" horiz-adv-x="512" 
d="M191 684l100 -102l100 102h62l-124 -141h-75l-124 141h61zM295 478c69 0 132 -26 173 -73l-37 -38c-39 39 -85 58 -138 58c-68 0 -126 -34 -157 -92c-16 -29 -24 -62 -24 -98c0 -72 33 -132 89 -164c27 -17 58 -25 92 -25c53 0 103 22 140 59l35 -39
c-43 -47 -104 -74 -173 -74c-93 0 -170 46 -210 120c-21 37 -31 78 -31 123c0 92 43 170 116 212c37 21 78 31 125 31z" />
    <glyph glyph-name="Dcaron" unicode="&#x10e;" horiz-adv-x="801" 
d="M268 891l100 -102l100 102h62l-124 -140h-75l-124 140h61zM105 700h255c155 0 272 -59 333 -164c31 -53 46 -115 46 -186c0 -143 -63 -251 -177 -307c-57 -29 -125 -43 -202 -43h-255v700zM166 642v-584h194c133 0 230 50 279 138c24 43 36 95 36 154
c0 181 -114 292 -315 292h-194z" />
    <glyph glyph-name="dcaron" unicode="&#x10f;" horiz-adv-x="641" 
d="M289 478c83 0 146 -37 186 -98v340h57v-720h-57v91c-40 -61 -103 -99 -186 -99c-87 0 -163 45 -204 119c-21 37 -31 78 -31 124c0 92 44 170 116 212c36 21 76 31 119 31zM593 526l6 194h58l-16 -194h-48zM295 425c-71 0 -128 -35 -159 -93c-16 -29 -24 -62 -24 -97
c0 -71 33 -131 89 -164c28 -17 59 -25 94 -25c71 0 128 35 160 93c15 29 23 61 23 96c0 71 -33 132 -88 165c-28 17 -60 25 -95 25z" />
    <glyph glyph-name="Dcroat" unicode="&#x110;" horiz-adv-x="888" 
d="M191 700h256c155 0 271 -59 332 -164c31 -53 46 -115 46 -186c0 -143 -64 -251 -177 -307c-57 -29 -124 -43 -201 -43h-256v324h-128v58h128v318zM462 324h-210v-266h195c133 0 229 50 278 138c24 43 36 95 36 154c0 180 -114 292 -314 292h-195v-260h210v-58z" />
    <glyph glyph-name="dcroat" unicode="&#x111;" horiz-adv-x="622" 
d="M613 563h-81v-563h-57v91c-40 -61 -103 -99 -186 -99c-87 0 -163 45 -204 119c-21 37 -31 78 -31 124c0 92 44 170 116 212c36 21 76 31 119 31c83 0 146 -37 186 -98v183h-217v51h217v106h57v-106h81v-51zM295 425c-71 0 -128 -35 -159 -93c-16 -29 -24 -62 -24 -97
c0 -71 33 -131 89 -164c28 -17 59 -25 94 -25c71 0 128 35 160 93c15 29 23 61 23 96c0 71 -33 132 -88 165c-28 17 -60 25 -95 25z" />
    <glyph glyph-name="Emacron" unicode="&#x112;" horiz-adv-x="671" 
d="M195 844h292v-46h-292v46zM587 0h-482v700h478v-57h-417v-262h405v-57h-405v-266h421v-58z" />
    <glyph glyph-name="emacron" unicode="&#x113;" horiz-adv-x="561" 
d="M140 637h292v-47h-292v47zM287 478c83 0 152 -43 191 -116c19 -37 29 -78 29 -124c0 -11 0 -18 -1 -23h-394c8 -108 82 -173 182 -173c60 0 113 22 159 67l30 -39c-56 -56 -120 -78 -193 -78c-91 0 -165 44 -205 118c-21 37 -31 78 -31 125c0 93 43 171 114 212
c35 21 75 31 119 31zM286 428c-95 0 -162 -67 -173 -164h336c-8 97 -75 164 -163 164z" />
    <glyph glyph-name="Ebreve" unicode="&#x114;" horiz-adv-x="671" 
d="M178 886l46 14c19 -67 60 -101 117 -101s99 34 116 101l47 -14c-24 -88 -83 -135 -163 -135s-139 47 -163 135zM587 0h-482v700h478v-57h-417v-262h405v-57h-405v-266h421v-58z" />
    <glyph glyph-name="ebreve" unicode="&#x115;" horiz-adv-x="561" 
d="M123 678l46 14c19 -67 60 -100 117 -100s99 33 116 100l47 -14c-24 -88 -83 -135 -163 -135s-139 47 -163 135zM287 478c83 0 152 -43 191 -116c19 -37 29 -78 29 -124c0 -11 0 -18 -1 -23h-394c8 -108 82 -173 182 -173c60 0 113 22 159 67l30 -39
c-56 -56 -120 -78 -193 -78c-91 0 -165 44 -205 118c-21 37 -31 78 -31 125c0 93 43 171 114 212c35 21 75 31 119 31zM286 428c-95 0 -162 -67 -173 -164h336c-8 97 -75 164 -163 164z" />
    <glyph glyph-name="Edotaccent" unicode="&#x116;" horiz-adv-x="671" 
d="M336 865c23 0 42 -19 42 -42c0 -24 -19 -42 -42 -42c-24 0 -42 18 -42 42c0 23 18 42 42 42zM587 0h-482v700h478v-57h-417v-262h405v-57h-405v-266h421v-58z" />
    <glyph glyph-name="edotaccent" unicode="&#x117;" horiz-adv-x="561" 
d="M286 681c23 0 41 -18 41 -41s-18 -41 -41 -41s-41 18 -41 41s18 41 41 41zM287 478c83 0 152 -43 191 -116c19 -37 29 -78 29 -124c0 -11 0 -18 -1 -23h-394c8 -108 82 -173 182 -173c60 0 113 22 159 67l30 -39c-56 -56 -120 -78 -193 -78c-91 0 -165 44 -205 118
c-21 37 -31 78 -31 125c0 93 43 171 114 212c35 21 75 31 119 31zM286 428c-95 0 -162 -67 -173 -164h336c-8 97 -75 164 -163 164z" />
    <glyph glyph-name="Eogonek" unicode="&#x118;" horiz-adv-x="671" 
d="M587 0h-92c-53 -29 -79 -59 -79 -98c0 -35 29 -59 70 -59c29 0 54 10 77 31l30 -36c-28 -28 -68 -44 -111 -44c-72 0 -121 41 -121 98c0 47 25 79 76 108h-332v700h478v-57h-417v-262h405v-57h-405v-266h421v-58z" />
    <glyph glyph-name="eogonek" unicode="&#x119;" horiz-adv-x="561" 
d="M447 -126l31 -36c-31 -29 -68 -44 -111 -44c-72 0 -122 41 -122 98c0 41 21 73 62 101c-5 -1 -13 -1 -23 -1c-87 0 -160 45 -200 119c-20 37 -30 78 -30 124c0 93 43 171 114 212c35 21 75 31 119 31c83 0 152 -43 191 -116c19 -37 29 -78 29 -124c0 -11 0 -18 -1 -23
h-394c8 -108 82 -173 182 -173c60 0 113 22 159 67l30 -39c-23 -24 -50 -43 -82 -57c-67 -31 -100 -68 -100 -111c0 -35 28 -59 69 -59c29 0 55 10 77 31zM286 428c-95 0 -162 -67 -173 -164h336c-8 97 -75 164 -163 164z" />
    <glyph glyph-name="Ecaron" unicode="&#x11a;" horiz-adv-x="671" 
d="M241 891l100 -102l100 102h61l-124 -140h-75l-124 140h62zM587 0h-482v700h478v-57h-417v-262h405v-57h-405v-266h421v-58z" />
    <glyph glyph-name="ecaron" unicode="&#x11b;" horiz-adv-x="561" 
d="M186 684l100 -102l100 102h61l-124 -141h-75l-124 141h62zM287 478c83 0 152 -43 191 -116c19 -37 29 -78 29 -124c0 -11 0 -18 -1 -23h-394c8 -108 82 -173 182 -173c60 0 113 22 159 67l30 -39c-56 -56 -120 -78 -193 -78c-91 0 -165 44 -205 118
c-21 37 -31 78 -31 125c0 93 43 171 114 212c35 21 75 31 119 31zM286 428c-95 0 -162 -67 -173 -164h336c-8 97 -75 164 -163 164z" />
    <glyph glyph-name="Gcircumflex" unicode="&#x11c;" horiz-adv-x="819" 
d="M512 752l-100 102l-100 -102h-62l124 141h75l124 -141h-61zM422 708c109 0 206 -44 271 -119l-45 -44c-55 65 -135 104 -226 104c-111 0 -204 -52 -256 -143c-26 -45 -39 -97 -39 -156c0 -116 55 -210 144 -261c45 -25 94 -38 148 -38c159 0 261 100 270 261h-237v57h303
c1 -4 1 -9 1 -16c0 -137 -57 -251 -159 -314c-51 -31 -111 -47 -178 -47c-127 0 -242 61 -307 170c-33 54 -49 117 -49 188c0 139 67 252 176 313c55 30 116 45 183 45z" />
    <glyph glyph-name="gcircumflex" unicode="&#x11d;" horiz-adv-x="618" 
d="M400 544l-100 103l-100 -103h-61l124 141h75l124 -141h-62zM287 478c83 0 145 -36 184 -99v92h57v-439c0 -101 -46 -174 -121 -210c-37 -19 -79 -28 -126 -28c-79 0 -153 25 -198 68l29 41c45 -36 105 -57 169 -57c111 0 190 65 190 184v67c-39 -63 -101 -100 -184 -100
c-87 0 -162 44 -202 117c-21 37 -31 78 -31 124c0 92 43 169 115 210c35 20 75 30 118 30zM293 425c-69 0 -127 -36 -158 -92c-15 -29 -23 -60 -23 -95c0 -69 32 -130 88 -162c27 -17 58 -25 93 -25c69 0 127 35 159 92c15 29 23 60 23 95c0 69 -33 130 -88 163
c-28 16 -59 24 -94 24z" />
    <glyph glyph-name="Gbreve" unicode="&#x11e;" horiz-adv-x="819" 
d="M249 886l46 14c19 -67 60 -101 117 -101s99 34 116 101l47 -14c-24 -88 -83 -135 -163 -135s-139 47 -163 135zM422 708c109 0 206 -44 271 -119l-45 -44c-55 65 -135 104 -226 104c-111 0 -204 -52 -256 -143c-26 -45 -39 -97 -39 -156c0 -116 55 -210 144 -261
c45 -25 94 -38 148 -38c159 0 261 100 270 261h-237v57h303c1 -4 1 -9 1 -16c0 -137 -57 -251 -159 -314c-51 -31 -111 -47 -178 -47c-127 0 -242 61 -307 170c-33 54 -49 117 -49 188c0 139 67 252 176 313c55 30 116 45 183 45z" />
    <glyph glyph-name="gbreve" unicode="&#x11f;" horiz-adv-x="618" 
d="M138 678l46 14c17 -67 59 -100 116 -100s98 33 117 100l46 -14c-24 -88 -83 -135 -163 -135s-139 48 -162 135zM287 478c83 0 145 -36 184 -99v92h57v-439c0 -101 -46 -174 -121 -210c-37 -19 -79 -28 -126 -28c-79 0 -153 25 -198 68l29 41c45 -36 105 -57 169 -57
c111 0 190 65 190 184v67c-39 -63 -101 -100 -184 -100c-87 0 -162 44 -202 117c-21 37 -31 78 -31 124c0 92 43 169 115 210c35 20 75 30 118 30zM293 425c-69 0 -127 -36 -158 -92c-15 -29 -23 -60 -23 -95c0 -69 32 -130 88 -162c27 -17 58 -25 93 -25
c69 0 127 35 159 92c15 29 23 60 23 95c0 69 -33 130 -88 163c-28 16 -59 24 -94 24z" />
    <glyph glyph-name="Gdotaccent" unicode="&#x120;" horiz-adv-x="819" 
d="M407 865c23 0 42 -19 42 -42c0 -24 -19 -42 -42 -42c-24 0 -42 18 -42 42c0 23 18 42 42 42zM422 708c109 0 206 -44 271 -119l-45 -44c-55 65 -135 104 -226 104c-111 0 -204 -52 -256 -143c-26 -45 -39 -97 -39 -156c0 -116 55 -210 144 -261c45 -25 94 -38 148 -38
c159 0 261 100 270 261h-237v57h303c1 -4 1 -9 1 -16c0 -137 -57 -251 -159 -314c-51 -31 -111 -47 -178 -47c-127 0 -242 61 -307 170c-33 54 -49 117 -49 188c0 139 67 252 176 313c55 30 116 45 183 45z" />
    <glyph glyph-name="gdotaccent" unicode="&#x121;" horiz-adv-x="618" 
d="M300 681c23 0 41 -18 41 -41s-18 -41 -41 -41s-40 18 -40 41s17 41 40 41zM287 478c83 0 145 -36 184 -99v92h57v-439c0 -101 -46 -174 -121 -210c-37 -19 -79 -28 -126 -28c-79 0 -153 25 -198 68l29 41c45 -36 105 -57 169 -57c111 0 190 65 190 184v67
c-39 -63 -101 -100 -184 -100c-87 0 -162 44 -202 117c-21 37 -31 78 -31 124c0 92 43 169 115 210c35 20 75 30 118 30zM293 425c-69 0 -127 -36 -158 -92c-15 -29 -23 -60 -23 -95c0 -69 32 -130 88 -162c27 -17 58 -25 93 -25c69 0 127 35 159 92c15 29 23 60 23 95
c0 69 -33 130 -88 163c-28 16 -59 24 -94 24z" />
    <glyph glyph-name="uni0122" unicode="&#x122;" horiz-adv-x="819" 
d="M422 708c109 0 206 -44 271 -119l-45 -44c-55 65 -135 104 -226 104c-111 0 -204 -52 -256 -143c-26 -45 -39 -97 -39 -156c0 -116 55 -210 144 -261c45 -25 94 -38 148 -38c159 0 261 100 270 261h-237v57h303c1 -4 1 -9 1 -16c0 -137 -57 -251 -159 -314
c-51 -31 -111 -47 -178 -47c-127 0 -242 61 -307 170c-33 54 -49 117 -49 188c0 139 67 252 176 313c55 30 116 45 183 45zM452 -44l-34 -171h-50l22 171h62z" />
    <glyph glyph-name="uni0123" unicode="&#x123;" horiz-adv-x="618" 
d="M264 541l34 170h51l-22 -170h-63zM287 478c83 0 145 -36 184 -99v92h57v-439c0 -101 -46 -174 -121 -210c-37 -19 -79 -28 -126 -28c-79 0 -153 25 -198 68l29 41c45 -36 105 -57 169 -57c111 0 190 65 190 184v67c-39 -63 -101 -100 -184 -100c-87 0 -162 44 -202 117
c-21 37 -31 78 -31 124c0 92 43 169 115 210c35 20 75 30 118 30zM293 425c-69 0 -127 -36 -158 -92c-15 -29 -23 -60 -23 -95c0 -69 32 -130 88 -162c27 -17 58 -25 93 -25c69 0 127 35 159 92c15 29 23 60 23 95c0 69 -33 130 -88 163c-28 16 -59 24 -94 24z" />
    <glyph glyph-name="Hcircumflex" unicode="&#x124;" horiz-adv-x="783" 
d="M491 752l-100 102l-100 -102h-61l124 141h75l124 -141h-62zM166 382h451v318h61v-700h-61v324h-451v-324h-61v700h61v-318z" />
    <glyph glyph-name="hcircumflex" unicode="&#x125;" horiz-adv-x="599" 
d="M404 774l-100 102l-100 -102h-62l124 141h75l124 -141h-61zM148 720v-331c36 59 99 89 168 89c119 0 198 -74 198 -189v-289h-57v271c0 96 -55 153 -151 153c-59 0 -109 -27 -137 -74c-14 -24 -21 -51 -21 -82v-268h-57v720h57z" />
    <glyph glyph-name="Hbar" unicode="&#x126;" horiz-adv-x="811" 
d="M779 511h-87v-511h-61v324h-451v-324h-61v511h-87v52h87v137h61v-137h451v137h61v-137h87v-52zM631 382v129h-451v-129h451z" />
    <glyph glyph-name="hbar" unicode="&#x127;" horiz-adv-x="599" 
d="M355 563h-207v-174c36 59 99 89 168 89c119 0 198 -74 198 -189v-289h-57v271c0 96 -55 153 -151 153c-59 0 -109 -27 -137 -74c-14 -24 -21 -51 -21 -82v-268h-57v563h-92v51h92v106h57v-106h207v-51z" />
    <glyph glyph-name="Itilde" unicode="&#x128;" horiz-adv-x="271" 
d="M-1 784l-34 32c28 37 59 55 103 55c32 0 50 -8 79 -24c21 -13 35 -19 55 -19c27 0 48 12 69 39l34 -33c-29 -37 -59 -55 -103 -55c-32 0 -53 8 -78 24c-21 13 -36 19 -56 19c-27 0 -46 -11 -69 -38zM166 0h-61v700h61v-700z" />
    <glyph glyph-name="itilde" unicode="&#x129;" horiz-adv-x="239" 
d="M-11 576l-34 33c28 37 59 55 103 55c32 0 50 -8 79 -24c21 -13 35 -19 55 -19c27 0 48 13 69 38l34 -32c-29 -39 -59 -56 -103 -56c-32 0 -51 9 -78 25c-21 13 -36 19 -56 19c-27 0 -46 -12 -69 -39zM148 0h-57v471h57v-471z" />
    <glyph glyph-name="Imacron" unicode="&#x12a;" horiz-adv-x="271" 
d="M-11 844h293v-46h-293v46zM166 0h-61v700h61v-700z" />
    <glyph glyph-name="imacron" unicode="&#x12b;" horiz-adv-x="239" 
d="M-27 637h293v-47h-293v47zM148 0h-57v471h57v-471z" />
    <glyph glyph-name="Ibreve" unicode="&#x12c;" horiz-adv-x="271" 
d="M-28 886l47 14c17 -67 59 -101 116 -101s98 34 117 101l46 -14c-24 -88 -83 -135 -163 -135s-139 47 -163 135zM166 0h-61v700h61v-700z" />
    <glyph glyph-name="ibreve" unicode="&#x12d;" horiz-adv-x="239" 
d="M-43 678l46 14c19 -67 60 -100 117 -100s99 33 116 100l47 -14c-24 -88 -83 -135 -163 -135c-81 0 -140 48 -163 135zM148 0h-57v471h57v-471z" />
    <glyph glyph-name="Iogonek" unicode="&#x12e;" horiz-adv-x="271" 
d="M200 -128l30 -37c-25 -27 -56 -41 -92 -41c-59 0 -100 32 -100 83c0 44 28 83 81 123h-14v700h61v-700c-49 -43 -74 -80 -74 -112c0 -28 20 -45 51 -45c22 0 41 10 57 29z" />
    <glyph glyph-name="iogonek" unicode="&#x12f;" horiz-adv-x="239" 
d="M120 681c23 0 41 -18 41 -41s-18 -41 -41 -41s-41 18 -41 41s18 41 41 41zM148 471v-471c-49 -43 -74 -80 -74 -112c0 -28 20 -45 51 -45c22 0 41 10 57 29l31 -37c-27 -27 -58 -41 -93 -41c-59 0 -100 32 -100 83c0 44 29 83 82 123h-11v471h57z" />
    <glyph glyph-name="Idotaccent" unicode="&#x130;" horiz-adv-x="271" 
d="M130 865c24 0 42 -19 42 -42c0 -24 -18 -42 -42 -42s-42 18 -42 42c0 23 18 42 42 42zM166 0h-61v700h61v-700z" />
    <glyph glyph-name="IJ" unicode="&#x132;" horiz-adv-x="846" 
d="M166 0h-61v700h61v-700zM747 700v-449c0 -108 -45 -188 -118 -228c-37 -21 -78 -31 -125 -31c-85 0 -155 31 -211 94l41 42c39 -45 97 -77 170 -77c111 0 182 74 182 206v443h61z" />
    <glyph glyph-name="ij" unicode="&#x133;" horiz-adv-x="479" 
d="M120 681c23 0 41 -18 41 -41s-18 -41 -41 -41s-41 18 -41 41s18 41 41 41zM359 681c23 0 41 -18 41 -41s-18 -41 -41 -41s-40 18 -40 41s17 41 40 41zM148 0h-57v471h57v-471zM388 471v-560c0 -76 -38 -117 -105 -117c-23 0 -49 7 -65 16l14 49c15 -8 30 -12 47 -12
c35 0 52 22 52 66v558h57z" />
    <glyph glyph-name="Jcircumflex" unicode="&#x134;" horiz-adv-x="576" 
d="M546 752l-100 102l-100 -102h-62l124 141h75l124 -141h-61zM476 700v-449c0 -108 -45 -188 -117 -228c-37 -21 -78 -31 -125 -31c-87 0 -157 31 -211 94l41 42c39 -45 96 -77 169 -77c111 0 182 74 182 206v443h61z" />
    <glyph glyph-name="jcircumflex" unicode="&#x135;" horiz-adv-x="240" 
d="M221 544l-100 103l-100 -103h-62l124 141h75l124 -141h-61zM150 471v-560c0 -75 -40 -117 -105 -117c-23 0 -50 7 -66 16l14 49c15 -8 30 -12 47 -12c35 0 53 22 53 66v558h57z" />
    <glyph glyph-name="uni0136" unicode="&#x136;" horiz-adv-x="684" 
d="M258 323h-92v-323h-61v700h61v-319h93l308 319h79l-338 -344l359 -356h-83zM384 -44l-34 -171h-51l22 171h63z" />
    <glyph glyph-name="uni0137" unicode="&#x137;" horiz-adv-x="521" 
d="M148 272h77l198 199h72l-224 -222l228 -249h-73l-201 221h-77v-221h-57v720h57v-448zM316 -44l-34 -171h-51l22 171h63z" />
    <glyph glyph-name="kgreenlandic" unicode="&#x138;" horiz-adv-x="514" 
d="M148 272h74l194 199h71l-219 -222l223 -249h-72l-197 221h-74v-221h-57v471h57v-199z" />
    <glyph glyph-name="Lacute" unicode="&#x139;" horiz-adv-x="602" 
d="M70 749l110 150h72l-126 -150h-56zM581 0h-476v700h61v-642h415v-58z" />
    <glyph glyph-name="lacute" unicode="&#x13a;" horiz-adv-x="239" 
d="M38 773l110 150h72l-125 -150h-57zM148 0h-57v720h57v-720z" />
    <glyph glyph-name="uni013B" unicode="&#x13b;" horiz-adv-x="602" 
d="M581 0h-476v700h61v-642h415v-58zM380 -44l-34 -171h-51l22 171h63z" />
    <glyph glyph-name="uni013C" unicode="&#x13c;" horiz-adv-x="239" 
d="M148 0h-57v720h57v-720zM159 -44l-34 -171h-51l22 171h63z" />
    <glyph glyph-name="Lcaron" unicode="&#x13d;" horiz-adv-x="602" 
d="M581 0h-476v700h61v-642h415v-58zM297 506l6 194h58l-16 -194h-48z" />
    <glyph glyph-name="lcaron" unicode="&#x13e;" horiz-adv-x="255" 
d="M148 0h-57v720h57v-720zM205 526l5 194h59l-16 -194h-48z" />
    <glyph glyph-name="Ldot" unicode="&#x13f;" horiz-adv-x="602" 
d="M581 0h-476v700h61v-642h415v-58zM423 395c24 0 42 -19 42 -43c0 -23 -18 -41 -42 -41s-42 18 -42 41c0 24 18 43 42 43z" />
    <glyph glyph-name="ldot" unicode="&#x140;" horiz-adv-x="284" 
d="M148 0h-57v720h57v-720zM259 407c23 0 41 -19 41 -42s-18 -40 -41 -40s-40 17 -40 40s17 42 40 42z" />
    <glyph glyph-name="Lslash" unicode="&#x141;" horiz-adv-x="674" 
d="M653 0h-476v265l-114 -64v65l114 64v370h61v-335l268 151v-65l-268 -151v-242h415v-58z" />
    <glyph glyph-name="lslash" unicode="&#x142;" horiz-adv-x="329" 
d="M193 426l108 80v-60l-108 -79v-367h-57v325l-108 -79v60l108 79v335h57v-294z" />
    <glyph glyph-name="Nacute" unicode="&#x143;" horiz-adv-x="785" 
d="M327 749l110 150h72l-126 -150h-56zM680 0h-55l-459 595v-595h-61v700h55l459 -595v595h61v-700z" />
    <glyph glyph-name="nacute" unicode="&#x144;" horiz-adv-x="599" 
d="M248 541l110 150h72l-125 -150h-57zM316 478c119 0 198 -74 198 -189v-289h-57v271c0 96 -55 153 -151 153c-59 0 -109 -27 -137 -74c-14 -24 -21 -51 -21 -82v-268h-57v471h57v-83c36 60 99 90 168 90z" />
    <glyph glyph-name="uni0145" unicode="&#x145;" horiz-adv-x="785" 
d="M680 0h-55l-459 595v-595h-61v700h55l459 -595v595h61v-700zM433 -44l-34 -171h-51l22 171h63z" />
    <glyph glyph-name="uni0146" unicode="&#x146;" horiz-adv-x="599" 
d="M316 478c119 0 198 -74 198 -189v-289h-57v271c0 96 -55 153 -151 153c-59 0 -109 -27 -137 -74c-14 -24 -21 -51 -21 -82v-268h-57v471h57v-83c36 60 99 90 168 90zM341 -44l-34 -171h-51l22 171h63z" />
    <glyph glyph-name="Ncaron" unicode="&#x147;" horiz-adv-x="785" 
d="M292 891l100 -102l100 102h62l-124 -140h-75l-124 140h61zM680 0h-55l-459 595v-595h-61v700h55l459 -595v595h61v-700z" />
    <glyph glyph-name="ncaron" unicode="&#x148;" horiz-adv-x="599" 
d="M207 684l100 -102l100 102h62l-124 -141h-75l-124 141h61zM316 478c119 0 198 -74 198 -189v-289h-57v271c0 96 -55 153 -151 153c-59 0 -109 -27 -137 -74c-14 -24 -21 -51 -21 -82v-268h-57v471h57v-83c36 60 99 90 168 90z" />
    <glyph glyph-name="napostrophe" unicode="&#x149;" horiz-adv-x="739" 
d="M169 720l-48 -241h-49l31 241h66zM455 478c119 0 198 -74 198 -189v-289h-57v271c0 96 -55 153 -151 153c-59 0 -109 -27 -136 -74c-14 -24 -21 -51 -21 -82v-268h-57v471h56v-83c36 60 99 90 168 90z" />
    <glyph glyph-name="Eng" unicode="&#x14a;" horiz-adv-x="785" 
d="M680 700v-720c0 -112 -53 -186 -165 -186c-47 0 -90 11 -128 32l22 53c31 -18 64 -27 99 -27c76 0 111 50 111 131v25l-453 587v-595h-61v700h55l459 -595v595h61z" />
    <glyph glyph-name="eng" unicode="&#x14b;" horiz-adv-x="599" 
d="M316 478c119 0 198 -74 198 -189v-336c0 -76 -38 -117 -105 -117c-23 0 -49 7 -65 16l14 49c16 -8 31 -12 46 -12c35 0 53 22 53 67v315c0 96 -55 153 -151 153c-59 0 -109 -27 -137 -74c-14 -24 -21 -51 -21 -82v-268h-57v471h57v-83c36 60 99 90 168 90z" />
    <glyph glyph-name="Omacron" unicode="&#x14c;" horiz-adv-x="843" 
d="M276 844h292v-46h-292v46zM422 708c135 0 250 -65 312 -173c31 -55 46 -116 46 -185c0 -137 -66 -251 -175 -312c-55 -31 -116 -46 -183 -46c-136 0 -249 65 -312 174c-31 54 -47 115 -47 184c0 137 67 251 176 312c54 31 115 46 183 46zM422 649
c-111 0 -204 -52 -256 -143c-26 -45 -39 -97 -39 -156c0 -116 56 -210 145 -261c45 -25 95 -38 150 -38c109 0 203 53 255 144c26 45 39 97 39 155c0 117 -56 212 -145 262c-45 25 -94 37 -149 37z" />
    <glyph glyph-name="omacron" unicode="&#x14d;" horiz-adv-x="596" 
d="M152 637h293v-47h-293v47zM298 478c92 0 170 -44 213 -119c21 -37 32 -79 32 -124c0 -91 -45 -168 -120 -211c-37 -21 -79 -32 -125 -32c-92 0 -169 46 -212 120c-21 37 -32 78 -32 123c0 92 46 170 120 212c37 21 78 31 124 31zM298 425c-69 0 -129 -34 -161 -92
c-17 -29 -25 -62 -25 -98c0 -72 35 -132 92 -164c28 -17 59 -25 94 -25c69 0 129 35 162 92c16 29 24 61 24 97c0 72 -35 133 -91 166c-29 16 -60 24 -95 24z" />
    <glyph glyph-name="Obreve" unicode="&#x14e;" horiz-adv-x="843" 
d="M259 886l46 14c19 -67 60 -101 117 -101s99 34 116 101l47 -14c-24 -88 -83 -135 -163 -135s-139 47 -163 135zM422 708c135 0 250 -65 312 -173c31 -55 46 -116 46 -185c0 -137 -66 -251 -175 -312c-55 -31 -116 -46 -183 -46c-136 0 -249 65 -312 174
c-31 54 -47 115 -47 184c0 137 67 251 176 312c54 31 115 46 183 46zM422 649c-111 0 -204 -52 -256 -143c-26 -45 -39 -97 -39 -156c0 -116 56 -210 145 -261c45 -25 95 -38 150 -38c109 0 203 53 255 144c26 45 39 97 39 155c0 117 -56 212 -145 262
c-45 25 -94 37 -149 37z" />
    <glyph glyph-name="obreve" unicode="&#x14f;" horiz-adv-x="596" 
d="M136 678l46 14c17 -67 59 -100 116 -100s98 33 117 100l46 -14c-24 -88 -83 -135 -163 -135s-139 48 -162 135zM298 478c92 0 170 -44 213 -119c21 -37 32 -79 32 -124c0 -91 -45 -168 -120 -211c-37 -21 -79 -32 -125 -32c-92 0 -169 46 -212 120c-21 37 -32 78 -32 123
c0 92 46 170 120 212c37 21 78 31 124 31zM298 425c-69 0 -129 -34 -161 -92c-17 -29 -25 -62 -25 -98c0 -72 35 -132 92 -164c28 -17 59 -25 94 -25c69 0 129 35 162 92c16 29 24 61 24 97c0 72 -35 133 -91 166c-29 16 -60 24 -95 24z" />
    <glyph glyph-name="Ohungarumlaut" unicode="&#x150;" horiz-adv-x="843" 
d="M292 749l107 150h65l-113 -150h-59zM464 749l112 150h67l-122 -150h-57zM422 708c135 0 250 -65 312 -173c31 -55 46 -116 46 -185c0 -137 -66 -251 -175 -312c-55 -31 -116 -46 -183 -46c-136 0 -249 65 -312 174c-31 54 -47 115 -47 184c0 137 67 251 176 312
c54 31 115 46 183 46zM422 649c-111 0 -204 -52 -256 -143c-26 -45 -39 -97 -39 -156c0 -116 56 -210 145 -261c45 -25 95 -38 150 -38c109 0 203 53 255 144c26 45 39 97 39 155c0 117 -56 212 -145 262c-45 25 -94 37 -149 37z" />
    <glyph glyph-name="ohungarumlaut" unicode="&#x151;" horiz-adv-x="596" 
d="M175 541l107 150h65l-113 -150h-59zM347 541l112 150h67l-122 -150h-57zM298 478c92 0 170 -44 213 -119c21 -37 32 -79 32 -124c0 -91 -45 -168 -120 -211c-37 -21 -79 -32 -125 -32c-92 0 -169 46 -212 120c-21 37 -32 78 -32 123c0 92 46 170 120 212
c37 21 78 31 124 31zM298 425c-69 0 -129 -34 -161 -92c-17 -29 -25 -62 -25 -98c0 -72 35 -132 92 -164c28 -17 59 -25 94 -25c69 0 129 35 162 92c16 29 24 61 24 97c0 72 -35 133 -91 166c-29 16 -60 24 -95 24z" />
    <glyph glyph-name="OE" unicode="&#x152;" horiz-adv-x="1130" 
d="M1046 0h-604c-155 0 -272 59 -333 164c-31 53 -46 115 -46 186c0 143 64 251 178 308c57 28 124 42 201 42h601v-57h-418v-262h406v-57h-406v-266h421v-58zM127 350c0 -181 114 -292 315 -292h122v584h-122c-201 0 -315 -111 -315 -292z" />
    <glyph glyph-name="oe" unicode="&#x153;" horiz-adv-x="991" 
d="M717 478c83 0 152 -43 191 -116c19 -37 29 -78 30 -124c0 -6 -1 -14 -2 -23h-394c9 -108 83 -173 182 -173c60 0 113 22 159 67l31 -39c-57 -57 -120 -78 -193 -78c-97 0 -174 49 -210 130c-40 -80 -120 -130 -213 -130c-92 0 -169 46 -212 120c-21 37 -32 78 -32 123
c0 92 46 170 120 212c37 21 78 31 124 31c93 0 173 -51 213 -131c37 81 115 131 206 131zM716 428c-93 0 -162 -68 -173 -164h336c-8 97 -74 164 -163 164zM298 425c-69 0 -129 -34 -161 -92c-17 -29 -25 -62 -25 -98c0 -72 35 -132 92 -164c28 -17 59 -25 94 -25
c69 0 129 35 162 92c16 29 24 61 24 97c0 72 -35 133 -91 166c-29 16 -60 24 -95 24z" />
    <glyph glyph-name="Racute" unicode="&#x154;" horiz-adv-x="671" 
d="M265 749l110 150h72l-125 -150h-57zM105 700h267c155 0 241 -70 241 -194c0 -121 -92 -195 -241 -195h-27l265 -311h-76l-261 311h-107v-311h-61v700zM166 643v-277h205c116 0 179 49 179 140c0 89 -64 137 -179 137h-205z" />
    <glyph glyph-name="racute" unicode="&#x155;" horiz-adv-x="407" 
d="M174 541l110 150h72l-125 -150h-57zM292 479c33 0 63 -6 88 -18l-14 -56c-23 13 -51 19 -84 19c-79 0 -134 -63 -134 -158v-266h-57v471h56v-80c31 56 84 88 145 88z" />
    <glyph glyph-name="uni0156" unicode="&#x156;" horiz-adv-x="671" 
d="M105 700h267c155 0 241 -70 241 -194c0 -121 -92 -195 -241 -195h-27l265 -311h-76l-261 311h-107v-311h-61v700zM166 643v-277h205c116 0 179 49 179 140c0 89 -64 137 -179 137h-205zM373 -44l-34 -171h-51l22 171h63z" />
    <glyph glyph-name="uni0157" unicode="&#x157;" horiz-adv-x="407" 
d="M292 479c33 0 63 -6 88 -18l-14 -56c-23 13 -51 19 -84 19c-79 0 -134 -63 -134 -158v-266h-57v471h56v-80c31 56 84 88 145 88zM159 -44l-34 -171h-50l22 171h62z" />
    <glyph glyph-name="Rcaron" unicode="&#x158;" horiz-adv-x="671" 
d="M231 891l100 -102l100 102h61l-124 -140h-75l-124 140h62zM105 700h267c155 0 241 -70 241 -194c0 -121 -92 -195 -241 -195h-27l265 -311h-76l-261 311h-107v-311h-61v700zM166 643v-277h205c116 0 179 49 179 140c0 89 -64 137 -179 137h-205z" />
    <glyph glyph-name="rcaron" unicode="&#x159;" horiz-adv-x="407" 
d="M133 684l100 -102l100 102h62l-124 -141h-75l-124 141h61zM292 479c33 0 63 -6 88 -18l-14 -56c-23 13 -51 19 -84 19c-79 0 -134 -63 -134 -158v-266h-57v471h56v-80c31 56 84 88 145 88z" />
    <glyph glyph-name="Sacute" unicode="&#x15a;" horiz-adv-x="672" 
d="M286 749l110 150h72l-125 -150h-57zM592 631l-32 -50c-64 46 -137 69 -219 69c-115 0 -195 -53 -195 -140c0 -71 54 -112 171 -125l77 -9c143 -16 215 -76 215 -179c0 -88 -52 -150 -135 -181c-42 -16 -89 -24 -140 -24c-101 0 -206 37 -271 88l33 49
c53 -43 146 -78 237 -78c125 0 212 50 212 141c0 75 -58 113 -177 126l-80 9c-131 15 -205 74 -205 179c0 84 48 146 127 178c39 16 83 24 132 24c94 0 177 -26 250 -77z" />
    <glyph glyph-name="sacute" unicode="&#x15b;" horiz-adv-x="487" 
d="M193 541l110 150h72l-126 -150h-56zM429 425l-24 -44c-36 25 -99 47 -160 47c-75 0 -125 -33 -125 -85c0 -43 35 -67 107 -76l60 -7c100 -11 155 -53 155 -126c0 -88 -80 -142 -203 -142c-71 0 -141 21 -193 61l26 42c43 -32 93 -53 168 -53c88 0 143 31 143 88
c0 44 -36 70 -108 78l-61 7c-103 12 -152 56 -152 125c0 85 72 138 183 138c72 0 140 -21 184 -53z" />
    <glyph glyph-name="Scircumflex" unicode="&#x15c;" horiz-adv-x="672" 
d="M452 752l-100 102l-100 -102h-62l124 141h75l124 -141h-61zM592 631l-32 -50c-64 46 -137 69 -219 69c-115 0 -195 -53 -195 -140c0 -71 54 -112 171 -125l77 -9c143 -16 215 -76 215 -179c0 -88 -52 -150 -135 -181c-42 -16 -89 -24 -140 -24c-101 0 -206 37 -271 88
l33 49c53 -43 146 -78 237 -78c125 0 212 50 212 141c0 75 -58 113 -177 126l-80 9c-131 15 -205 74 -205 179c0 84 48 146 127 178c39 16 83 24 132 24c94 0 177 -26 250 -77z" />
    <glyph glyph-name="scircumflex" unicode="&#x15d;" horiz-adv-x="487" 
d="M352 544l-100 103l-100 -103h-62l124 141h75l124 -141h-61zM429 425l-24 -44c-36 25 -99 47 -160 47c-75 0 -125 -33 -125 -85c0 -43 35 -67 107 -76l60 -7c100 -11 155 -53 155 -126c0 -88 -80 -142 -203 -142c-71 0 -141 21 -193 61l26 42c43 -32 93 -53 168 -53
c88 0 143 31 143 88c0 44 -36 70 -108 78l-61 7c-103 12 -152 56 -152 125c0 85 72 138 183 138c72 0 140 -21 184 -53z" />
    <glyph glyph-name="Scedilla" unicode="&#x15e;" horiz-adv-x="672" 
d="M592 631l-32 -50c-64 46 -137 69 -219 69c-115 0 -195 -53 -195 -140c0 -71 54 -112 171 -125l77 -9c143 -16 215 -76 215 -179c0 -119 -95 -190 -232 -203l-49 -156h-62l51 155c-96 3 -194 39 -254 87l33 49c53 -43 146 -78 237 -78c125 0 212 50 212 141
c0 75 -58 113 -177 126l-80 9c-131 15 -205 74 -205 179c0 84 48 146 127 178c39 16 83 24 132 24c94 0 177 -26 250 -77z" />
    <glyph glyph-name="scedilla" unicode="&#x15f;" horiz-adv-x="487" 
d="M429 425l-24 -44c-36 25 -99 47 -160 47c-75 0 -125 -33 -125 -85c0 -43 35 -67 107 -76l60 -7c100 -11 155 -53 155 -126c0 -77 -61 -127 -158 -139l-49 -157h-60l51 155c-71 2 -131 22 -180 60l26 42c43 -32 93 -53 168 -53c88 0 143 31 143 88c0 44 -36 70 -108 78
l-61 7c-103 12 -152 56 -152 125c0 85 72 138 183 138c72 0 140 -21 184 -53z" />
    <glyph glyph-name="Scaron" unicode="&#x160;" horiz-adv-x="672" 
d="M252 891l100 -102l100 102h61l-124 -140h-75l-124 140h62zM592 631l-32 -50c-64 46 -137 69 -219 69c-115 0 -195 -53 -195 -140c0 -71 54 -112 171 -125l77 -9c143 -16 215 -76 215 -179c0 -88 -52 -150 -135 -181c-42 -16 -89 -24 -140 -24c-101 0 -206 37 -271 88
l33 49c53 -43 146 -78 237 -78c125 0 212 50 212 141c0 75 -58 113 -177 126l-80 9c-131 15 -205 74 -205 179c0 84 48 146 127 178c39 16 83 24 132 24c94 0 177 -26 250 -77z" />
    <glyph glyph-name="scaron" unicode="&#x161;" horiz-adv-x="487" 
d="M152 684l100 -102l100 102h61l-124 -141h-75l-124 141h62zM429 425l-24 -44c-36 25 -99 47 -160 47c-75 0 -125 -33 -125 -85c0 -43 35 -67 107 -76l60 -7c100 -11 155 -53 155 -126c0 -88 -80 -142 -203 -142c-71 0 -141 21 -193 61l26 42c43 -32 93 -53 168 -53
c88 0 143 31 143 88c0 44 -36 70 -108 78l-61 7c-103 12 -152 56 -152 125c0 85 72 138 183 138c72 0 140 -21 184 -53z" />
    <glyph glyph-name="uni021A" unicode="&#x21a;" horiz-adv-x="608" 
d="M587 642h-253v-642h-1l-51 -162h-62l54 162h-1v642h-252v58h566v-58z" />
    <glyph glyph-name="Tcaron" unicode="&#x164;" horiz-adv-x="608" 
d="M204 891l100 -102l100 102h61l-124 -140h-75l-124 140h62zM587 642h-253v-642h-61v642h-252v58h566v-58z" />
    <glyph glyph-name="tcaron" unicode="&#x165;" horiz-adv-x="452" 
d="M265 526l6 194h58l-16 -194h-48zM410 419h-217v-257c0 -76 40 -116 104 -116c41 0 76 12 105 36l27 -42c-35 -29 -83 -48 -136 -48c-100 0 -157 57 -157 169v258h-108v52h108v153h57v-153h217v-52z" />
    <glyph glyph-name="Tbar" unicode="&#x166;" horiz-adv-x="608" 
d="M504 324h-170v-324h-61v324h-169v58h169v260h-252v58h566v-58h-253v-260h170v-58z" />
    <glyph glyph-name="tbar" unicode="&#x167;" horiz-adv-x="452" 
d="M410 419h-217v-130h162v-51h-162v-76c0 -76 40 -116 104 -116c41 0 76 12 105 36l27 -42c-35 -29 -83 -48 -136 -48c-100 0 -157 57 -157 169v77h-104v51h104v130h-108v52h108v153h57v-153h217v-52z" />
    <glyph glyph-name="Utilde" unicode="&#x168;" horiz-adv-x="755" 
d="M241 784l-34 32c28 37 59 55 103 55c32 0 50 -8 79 -24c21 -13 35 -19 55 -19c27 0 48 12 69 39l34 -33c-29 -37 -59 -55 -103 -55c-32 0 -53 8 -78 24c-21 13 -36 19 -56 19c-27 0 -46 -11 -69 -38zM661 700v-427c0 -120 -53 -206 -139 -249c-43 -21 -92 -32 -145 -32
c-107 0 -197 43 -246 127c-25 42 -37 93 -37 154v427h61v-423c0 -148 90 -226 222 -226c133 0 222 78 222 226v423h62z" />
    <glyph glyph-name="utilde" unicode="&#x169;" horiz-adv-x="593" 
d="M166 576l-34 33c29 37 59 55 103 55c32 0 50 -8 79 -24c21 -13 35 -19 55 -19c27 0 48 13 69 38l34 -32c-29 -39 -59 -56 -103 -56c-32 0 -51 9 -78 25c-21 13 -36 19 -56 19c-27 0 -46 -12 -69 -39zM508 471v-276c0 -87 -40 -148 -104 -179c-32 -16 -68 -24 -107 -24
c-79 0 -146 32 -183 93c-19 30 -28 67 -28 110v276h57v-271c0 -99 61 -154 154 -154s154 55 154 154v271h57z" />
    <glyph glyph-name="Umacron" unicode="&#x16a;" horiz-adv-x="755" 
d="M231 844h293v-46h-293v46zM661 700v-427c0 -120 -53 -206 -139 -249c-43 -21 -92 -32 -145 -32c-107 0 -197 43 -246 127c-25 42 -37 93 -37 154v427h61v-423c0 -148 90 -226 222 -226c133 0 222 78 222 226v423h62z" />
    <glyph glyph-name="umacron" unicode="&#x16b;" horiz-adv-x="593" 
d="M151 637h292v-47h-292v47zM508 471v-276c0 -87 -40 -148 -104 -179c-32 -16 -68 -24 -107 -24c-79 0 -146 32 -183 93c-19 30 -28 67 -28 110v276h57v-271c0 -99 61 -154 154 -154s154 55 154 154v271h57z" />
    <glyph glyph-name="Ubreve" unicode="&#x16c;" horiz-adv-x="755" 
d="M215 886l46 14c17 -67 59 -101 116 -101s98 34 117 101l46 -14c-24 -88 -83 -135 -163 -135s-139 48 -162 135zM661 700v-427c0 -120 -53 -206 -139 -249c-43 -21 -92 -32 -145 -32c-107 0 -197 43 -246 127c-25 42 -37 93 -37 154v427h61v-423c0 -148 90 -226 222 -226
c133 0 222 78 222 226v423h62z" />
    <glyph glyph-name="ubreve" unicode="&#x16d;" horiz-adv-x="593" 
d="M134 678l46 14c19 -67 60 -100 117 -100s99 33 116 100l47 -14c-24 -88 -83 -135 -163 -135s-139 47 -163 135zM508 471v-276c0 -87 -40 -148 -104 -179c-32 -16 -68 -24 -107 -24c-79 0 -146 32 -183 93c-19 30 -28 67 -28 110v276h57v-271c0 -99 61 -154 154 -154
s154 55 154 154v271h57z" />
    <glyph glyph-name="Uring" unicode="&#x16e;" horiz-adv-x="755" 
d="M377 741c-59 0 -107 47 -107 106s48 107 107 107s108 -48 108 -107s-49 -106 -108 -106zM377 777c39 0 69 31 69 70s-30 70 -69 70s-69 -31 -69 -70s30 -70 69 -70zM661 700v-427c0 -120 -53 -206 -139 -249c-43 -21 -92 -32 -145 -32c-107 0 -197 43 -246 127
c-25 42 -37 93 -37 154v427h61v-423c0 -148 90 -226 222 -226c133 0 222 78 222 226v423h62z" />
    <glyph glyph-name="uring" unicode="&#x16f;" horiz-adv-x="593" 
d="M297 533c-59 0 -108 48 -108 107c0 57 49 106 108 106s107 -47 107 -106s-48 -107 -107 -107zM297 570c39 0 69 31 69 70s-30 69 -69 69c-37 0 -69 -30 -69 -69s30 -70 69 -70zM508 471v-276c0 -87 -40 -148 -104 -179c-32 -16 -68 -24 -107 -24c-79 0 -146 32 -183 93
c-19 30 -28 67 -28 110v276h57v-271c0 -99 61 -154 154 -154s154 55 154 154v271h57z" />
    <glyph glyph-name="Uhungarumlaut" unicode="&#x170;" horiz-adv-x="755" 
d="M248 749l106 150h65l-113 -150h-58zM419 749l112 150h67l-121 -150h-58zM661 700v-427c0 -120 -53 -206 -139 -249c-43 -21 -92 -32 -145 -32c-107 0 -197 43 -246 127c-25 42 -37 93 -37 154v427h61v-423c0 -148 90 -226 222 -226c133 0 222 78 222 226v423h62z" />
    <glyph glyph-name="uhungarumlaut" unicode="&#x171;" horiz-adv-x="593" 
d="M174 541l106 150h65l-113 -150h-58zM345 541l112 150h67l-121 -150h-58zM508 471v-276c0 -87 -40 -148 -104 -179c-32 -16 -68 -24 -107 -24c-79 0 -146 32 -183 93c-19 30 -28 67 -28 110v276h57v-271c0 -99 61 -154 154 -154s154 55 154 154v271h57z" />
    <glyph glyph-name="Uogonek" unicode="&#x172;" horiz-adv-x="755" 
d="M559 -126l30 -36c-28 -28 -68 -44 -111 -44c-72 0 -121 41 -121 98c0 40 22 74 65 103c-10 -1 -25 -2 -45 -2c-112 0 -200 46 -247 130c-24 42 -36 92 -36 150v427h61v-423c0 -148 90 -226 222 -226c133 0 222 78 222 226v423h62v-427c0 -120 -52 -203 -137 -248
c-76 -41 -112 -75 -112 -123c0 -35 29 -59 70 -59c29 0 54 10 77 31z" />
    <glyph glyph-name="uogonek" unicode="&#x173;" horiz-adv-x="593" 
d="M456 -126l30 -36c-28 -28 -68 -44 -111 -44c-72 0 -121 41 -121 98c0 41 21 74 62 101c-5 -1 -12 -1 -22 -1c-80 0 -146 35 -181 96c-18 31 -27 66 -27 107v276h57v-271c0 -99 61 -154 154 -154s154 55 154 154v271h57v-276c0 -79 -32 -137 -88 -169
c-77 -47 -111 -76 -111 -124c0 -35 29 -59 70 -59c29 0 54 10 77 31z" />
    <glyph glyph-name="Wcircumflex" unicode="&#x174;" horiz-adv-x="1104" 
d="M652 752l-100 102l-100 -102h-61l124 141h75l124 -141h-62zM836 0h-74l-210 621l-209 -621h-75l-236 700h65l209 -632l213 632h68l212 -631l210 631h63z" />
    <glyph glyph-name="wcircumflex" unicode="&#x175;" horiz-adv-x="863" 
d="M532 544l-100 103l-100 -103h-62l124 141h75l124 -141h-61zM619 58l159 413h59l-184 -471h-67l-155 411l-154 -411h-67l-184 471h60l159 -412l155 412h64z" />
    <glyph glyph-name="Ycircumflex" unicode="&#x176;" horiz-adv-x="632" 
d="M417 752l-100 102l-100 -102h-62l124 141h75l124 -141h-61zM347 300v-300h-61v301l-280 399h73l238 -342l237 342h72z" />
    <glyph glyph-name="ycircumflex" unicode="&#x177;" horiz-adv-x="514" 
d="M360 544l-100 103l-100 -103h-62l124 141h75l124 -141h-61zM116 -202h-63l180 307l-221 366h64l190 -310l177 310h63z" />
    <glyph glyph-name="Ydieresis" unicode="&#x178;" horiz-adv-x="632" 
d="M214 863c23 0 41 -19 41 -42s-18 -40 -41 -40s-40 17 -40 40s17 42 40 42zM419 863c23 0 41 -19 41 -42s-18 -40 -41 -40s-41 17 -41 40s18 42 41 42zM347 300v-300h-61v301l-280 399h73l238 -342l237 342h72z" />
    <glyph glyph-name="Zacute" unicode="&#x179;" horiz-adv-x="664" 
d="M269 749l110 150h72l-126 -150h-56zM599 653l-455 -595h457v-58h-538v48l454 594h-447v58h529v-47z" />
    <glyph glyph-name="zacute" unicode="&#x17a;" horiz-adv-x="533" 
d="M211 541l110 150h72l-126 -150h-56zM466 429l-326 -377h330v-52h-406v42l328 377h-318v52h392v-42z" />
    <glyph glyph-name="Zdotaccent" unicode="&#x17b;" horiz-adv-x="664" 
d="M329 865c24 0 42 -19 42 -42c0 -24 -18 -42 -42 -42s-42 18 -42 42c0 23 18 42 42 42zM599 653l-455 -595h457v-58h-538v48l454 594h-447v58h529v-47z" />
    <glyph glyph-name="zdotaccent" unicode="&#x17c;" horiz-adv-x="533" 
d="M270 681c23 0 41 -18 41 -41s-18 -41 -41 -41s-41 18 -41 41s18 41 41 41zM466 429l-326 -377h330v-52h-406v42l328 377h-318v52h392v-42z" />
    <glyph glyph-name="Zcaron" unicode="&#x17d;" horiz-adv-x="664" 
d="M234 891l100 -102l100 102h62l-124 -140h-75l-124 140h61zM599 653l-455 -595h457v-58h-538v48l454 594h-447v58h529v-47z" />
    <glyph glyph-name="zcaron" unicode="&#x17e;" horiz-adv-x="533" 
d="M170 684l100 -102l100 102h61l-124 -141h-75l-124 141h62zM466 429l-326 -377h330v-52h-406v42l328 377h-318v52h392v-42z" />
    <glyph glyph-name="longs" unicode="&#x17f;" horiz-adv-x="326" 
d="M242 728c47 0 90 -12 127 -35l-21 -48c-28 17 -66 29 -102 29c-71 0 -102 -42 -102 -122v-552h-57v552c0 109 48 176 155 176z" />
    <glyph glyph-name="florin" unicode="&#x192;" horiz-adv-x="700" 
d="M539 337h-162l-18 -185c-9 -100 -55 -160 -140 -160c-41 0 -79 11 -112 34l20 46c23 -17 56 -28 88 -28c52 0 82 36 89 108l18 185h-138v52h143l16 160c11 100 56 159 140 159c41 0 78 -11 112 -33l-20 -46c-23 16 -56 27 -88 27c-51 0 -81 -36 -89 -107l-16 -160h157
v-52z" />
    <glyph glyph-name="Gcaron" unicode="&#x1e6;" horiz-adv-x="819" 
d="M312 891l100 -102l100 102h61l-124 -140h-75l-124 140h62zM422 708c109 0 206 -44 271 -119l-45 -44c-55 65 -135 104 -226 104c-111 0 -204 -52 -256 -143c-26 -45 -39 -97 -39 -156c0 -116 55 -210 144 -261c45 -25 94 -38 148 -38c159 0 261 100 270 261h-237v57h303
c1 -4 1 -9 1 -16c0 -137 -57 -251 -159 -314c-51 -31 -111 -47 -178 -47c-127 0 -242 61 -307 170c-33 54 -49 117 -49 188c0 139 67 252 176 313c55 30 116 45 183 45z" />
    <glyph glyph-name="gcaron" unicode="&#x1e7;" horiz-adv-x="618" 
d="M200 684l100 -102l100 102h62l-124 -141h-75l-124 141h61zM287 478c83 0 145 -36 184 -99v92h57v-439c0 -101 -46 -174 -121 -210c-37 -19 -79 -28 -126 -28c-79 0 -153 25 -198 68l29 41c45 -36 105 -57 169 -57c111 0 190 65 190 184v67c-39 -63 -101 -100 -184 -100
c-87 0 -162 44 -202 117c-21 37 -31 78 -31 124c0 92 43 169 115 210c35 20 75 30 118 30zM293 425c-69 0 -127 -36 -158 -92c-15 -29 -23 -60 -23 -95c0 -69 32 -130 88 -162c27 -17 58 -25 93 -25c69 0 127 35 159 92c15 29 23 60 23 95c0 69 -33 130 -88 163
c-28 16 -59 24 -94 24z" />
    <glyph glyph-name="Aringacute" unicode="&#x1fa;" horiz-adv-x="703" 
d="M285 909l110 150h72l-125 -150h-57zM20 0l285 678c-37 17 -62 54 -62 97c0 57 49 106 108 106s107 -47 107 -106c0 -41 -24 -77 -60 -96l285 -679h-65l-85 205h-364l-85 -205h-64zM351 705c39 0 69 31 69 70s-30 69 -69 69c-37 0 -69 -30 -69 -69s30 -70 69 -70zM193 263
h315l-157 378z" />
    <glyph glyph-name="aringacute" unicode="&#x1fb;" horiz-adv-x="622" 
d="M227 761l110 150h72l-126 -150h-56zM292 518c-59 0 -107 48 -107 107s48 106 107 106s108 -49 108 -106c0 -59 -49 -107 -108 -107zM292 555c39 0 69 31 69 70s-30 69 -69 69c-37 0 -69 -30 -69 -69s30 -70 69 -70zM532 0h-57v91c-40 -61 -103 -99 -186 -99
c-87 0 -163 45 -204 119c-21 37 -31 78 -31 124c0 92 44 170 116 212c36 21 76 31 119 31c83 0 146 -37 186 -98v91h57v-471zM295 425c-71 0 -128 -35 -159 -93c-16 -29 -24 -62 -24 -97c0 -71 33 -131 89 -164c28 -17 59 -25 94 -25c71 0 128 35 160 93c15 29 23 61 23 96
c0 71 -33 132 -88 165c-28 17 -60 25 -95 25z" />
    <glyph glyph-name="AEacute" unicode="&#x1fc;" horiz-adv-x="1133" 
d="M692 749l110 150h72l-125 -150h-57zM1049 0h-482v195h-329l-148 -195h-74l534 700h495v-57h-417v-262h405v-57h-405v-266h421v-58zM567 253v374l-285 -374h285z" />
    <glyph glyph-name="aeacute" unicode="&#x1fd;" horiz-adv-x="910" 
d="M391 541l110 150h72l-125 -150h-57zM636 478c83 0 152 -43 191 -116c19 -37 29 -78 29 -124c0 -11 0 -18 -1 -23h-394c9 -108 83 -173 182 -173c60 0 113 22 159 67l30 -39c-56 -56 -119 -78 -192 -78c-85 0 -156 37 -197 101c-47 -61 -120 -101 -208 -101
c-111 0 -181 56 -181 137c0 83 70 135 195 135h154c0 112 -46 163 -150 163c-53 0 -101 -17 -144 -50l-27 42c51 39 110 59 178 59c98 0 159 -38 182 -115c37 71 111 115 194 115zM635 427c-93 0 -161 -67 -173 -163h336c-8 97 -75 163 -163 163zM244 43c68 0 137 36 177 93
c-10 24 -16 51 -18 80h-148c-96 0 -140 -34 -140 -87c0 -51 48 -86 129 -86z" />
    <glyph glyph-name="Oslashacute" unicode="&#x1fe;" horiz-adv-x="843" 
d="M356 749l110 150h72l-125 -150h-57zM422 708c91 0 172 -29 235 -82l82 82l40 -41l-81 -81c53 -61 82 -143 82 -236c0 -137 -66 -251 -175 -312c-55 -31 -116 -46 -183 -46c-91 0 -173 30 -236 82l-81 -81l-41 40l81 81c-52 64 -82 145 -82 236c0 137 67 251 176 312
c54 31 115 46 183 46zM422 649c-111 0 -204 -52 -256 -143c-26 -45 -39 -97 -39 -156c0 -75 21 -138 63 -191l423 423c-52 44 -118 67 -191 67zM716 350c0 75 -21 138 -63 191l-424 -423c54 -45 118 -67 193 -67c109 0 203 53 255 144c26 45 39 97 39 155z" />
    <glyph glyph-name="oslashacute" unicode="&#x1ff;" horiz-adv-x="596" 
d="M239 541l110 150h72l-126 -150h-56zM298 478c59 0 111 -18 156 -53l58 58l35 -34l-59 -58c35 -43 55 -97 55 -156c0 -91 -45 -168 -120 -211c-37 -21 -79 -32 -125 -32c-59 0 -111 18 -156 53l-57 -58l-35 34l58 58c-36 45 -54 97 -54 156c0 92 46 170 120 212
c37 21 78 31 124 31zM298 425c-69 0 -129 -34 -161 -92c-17 -29 -25 -62 -25 -98c0 -44 12 -82 36 -115l266 266c-32 24 -73 39 -116 39zM484 235c0 44 -12 83 -36 116l-266 -266c33 -26 72 -39 116 -39c69 0 129 35 162 92c16 29 24 61 24 97z" />
    <glyph glyph-name="uni0218" unicode="&#x218;" horiz-adv-x="672" 
d="M592 631l-32 -50c-64 46 -137 69 -219 69c-115 0 -195 -53 -195 -140c0 -71 54 -112 171 -125l77 -9c143 -16 215 -76 215 -179c0 -88 -52 -150 -135 -181c-42 -16 -89 -24 -140 -24c-101 0 -206 37 -271 88l33 49c53 -43 146 -78 237 -78c125 0 212 50 212 141
c0 75 -58 113 -177 126l-80 9c-131 15 -205 74 -205 179c0 84 48 146 127 178c39 16 83 24 132 24c94 0 177 -26 250 -77zM392 -44l-34 -171h-50l22 171h62z" />
    <glyph glyph-name="uni0219" unicode="&#x219;" horiz-adv-x="487" 
d="M429 425l-24 -44c-36 25 -99 47 -160 47c-75 0 -125 -33 -125 -85c0 -43 35 -67 107 -76l60 -7c100 -11 155 -53 155 -126c0 -88 -80 -142 -203 -142c-71 0 -141 21 -193 61l26 42c43 -32 93 -53 168 -53c88 0 143 31 143 88c0 44 -36 70 -108 78l-61 7
c-103 12 -152 56 -152 125c0 85 72 138 183 138c72 0 140 -21 184 -53zM287 -44l-34 -171h-51l22 171h63z" />
    <glyph glyph-name="circumflex" unicode="&#x2c6;" horiz-adv-x="452" 
d="M326 545l-100 102l-100 -102h-61l124 140h75l124 -140h-62z" />
    <glyph glyph-name="caron" unicode="&#x2c7;" horiz-adv-x="452" 
d="M126 684l100 -102l100 102h62l-124 -141h-75l-124 141h61z" />
    <glyph glyph-name="breve" unicode="&#x2d8;" horiz-adv-x="452" 
d="M64 678l46 14c17 -67 59 -100 116 -100s98 33 117 100l46 -14c-24 -88 -83 -135 -163 -135s-139 48 -162 135z" />
    <glyph glyph-name="dotaccent" unicode="&#x2d9;" horiz-adv-x="263" 
d="M132 681c23 0 41 -18 41 -41s-18 -41 -41 -41s-41 18 -41 41s18 41 41 41z" />
    <glyph glyph-name="ring" unicode="&#x2da;" horiz-adv-x="452" 
d="M226 533c-59 0 -107 48 -107 107s48 106 107 106s108 -49 108 -106c0 -59 -49 -107 -108 -107zM226 570c39 0 69 31 69 70s-30 69 -69 69c-37 0 -69 -30 -69 -69s30 -70 69 -70z" />
    <glyph glyph-name="ogonek" unicode="&#x2db;" horiz-adv-x="538" 
d="M416 -126l30 -36c-28 -28 -68 -44 -111 -44c-71 0 -120 42 -120 103c0 63 50 103 146 147l26 -32c-81 -39 -118 -67 -118 -110c0 -35 29 -59 70 -59c29 0 54 10 77 31z" />
    <glyph glyph-name="tilde" unicode="&#x2dc;" horiz-adv-x="452" 
d="M91 576l-34 33c28 37 59 55 103 55c32 0 51 -8 79 -24c21 -13 35 -19 54 -19c27 0 48 13 69 38l35 -32c-29 -39 -59 -56 -104 -56c-32 0 -51 9 -78 25c-21 13 -35 19 -55 19c-27 0 -48 -12 -69 -39z" />
    <glyph glyph-name="hungarumlaut" unicode="&#x2dd;" horiz-adv-x="452" 
d="M42 541l110 150h72l-125 -150h-57zM228 541l110 150h72l-125 -150h-57z" />
    <glyph glyph-name="gravecomb" unicode="&#x300;" 
d="M-428 691h72l110 -150h-57z" />
    <glyph glyph-name="acutecomb" unicode="&#x301;" 
d="M-358 541l110 150h72l-126 -150h-56z" />
    <glyph glyph-name="tildecomb" unicode="&#x303;" 
d="M-430 576l-34 33c29 37 59 55 103 55c32 0 50 -8 79 -24c21 -13 35 -19 55 -19c27 0 48 13 69 38l34 -32c-29 -39 -59 -56 -103 -56c-32 0 -51 9 -78 25c-21 13 -36 19 -56 19c-27 0 -46 -12 -69 -39z" />
    <glyph glyph-name="dotbelowcomb" unicode="&#x323;" 
d="M-299 -90c23 0 41 -18 41 -41s-18 -41 -41 -41s-40 18 -40 41s17 41 40 41z" />
    <glyph glyph-name="pi" unicode="&#x3c0;" horiz-adv-x="599" 
d="M514 0h-57v419h-309v-419h-57v471h423v-471z" />
    <glyph glyph-name="Wgrave" unicode="&#x1e80;" horiz-adv-x="1104" 
d="M432 899h72l110 -150h-57zM836 0h-74l-210 621l-209 -621h-75l-236 700h65l209 -632l213 632h68l212 -631l210 631h63z" />
    <glyph glyph-name="wgrave" unicode="&#x1e81;" horiz-adv-x="863" 
d="M303 691h72l110 -150h-57zM619 58l159 413h59l-184 -471h-67l-155 411l-154 -411h-67l-184 471h60l159 -412l155 412h64z" />
    <glyph glyph-name="Wacute" unicode="&#x1e82;" horiz-adv-x="1104" 
d="M487 749l110 150h72l-126 -150h-56zM836 0h-74l-210 621l-209 -621h-75l-236 700h65l209 -632l213 632h68l212 -631l210 631h63z" />
    <glyph glyph-name="wacute" unicode="&#x1e83;" horiz-adv-x="863" 
d="M373 541l110 150h72l-126 -150h-56zM619 58l159 413h59l-184 -471h-67l-155 411l-154 -411h-67l-184 471h60l159 -412l155 412h64z" />
    <glyph glyph-name="Wdieresis" unicode="&#x1e84;" horiz-adv-x="1104" 
d="M450 863c23 0 41 -19 41 -42s-18 -40 -41 -40s-41 17 -41 40s18 42 41 42zM654 863c23 0 42 -19 42 -42s-19 -40 -42 -40s-40 17 -40 40s17 42 40 42zM836 0h-74l-210 621l-209 -621h-75l-236 700h65l209 -632l213 632h68l212 -631l210 631h63z" />
    <glyph glyph-name="wdieresis" unicode="&#x1e85;" horiz-adv-x="863" 
d="M329 655c23 0 41 -18 41 -41s-18 -41 -41 -41s-40 18 -40 41s17 41 40 41zM534 655c23 0 41 -18 41 -41s-18 -41 -41 -41s-41 18 -41 41s18 41 41 41zM619 58l159 413h59l-184 -471h-67l-155 411l-154 -411h-67l-184 471h60l159 -412l155 412h64z" />
    <glyph glyph-name="Ygrave" unicode="&#x1ef2;" horiz-adv-x="632" 
d="M196 899h72l110 -150h-56zM347 300v-300h-61v301l-280 399h73l238 -342l237 342h72z" />
    <glyph glyph-name="ygrave" unicode="&#x1ef3;" horiz-adv-x="514" 
d="M131 691h72l110 -150h-57zM116 -202h-63l180 307l-221 366h64l190 -310l177 310h63z" />
    <glyph glyph-name="figuredash" unicode="&#x2012;" horiz-adv-x="600" 
d="M538 238h-475v51h475v-51z" />
    <glyph glyph-name="endash" unicode="&#x2013;" horiz-adv-x="601" 
d="M538 238h-475v51h475v-51z" />
    <glyph glyph-name="emdash" unicode="&#x2014;" horiz-adv-x="813" 
d="M782 238h-750v51h750v-51z" />
    <glyph glyph-name="quoteleft" unicode="&#x2018;" horiz-adv-x="244" 
d="M75 479l48 241h50l-31 -241h-67z" />
    <glyph glyph-name="quoteright" unicode="&#x2019;" horiz-adv-x="244" 
d="M169 720l-48 -241h-49l31 241h66z" />
    <glyph glyph-name="quotesinglbase" unicode="&#x201a;" horiz-adv-x="244" 
d="M169 117l-48 -242h-49l31 242h66z" />
    <glyph glyph-name="quotedblleft" unicode="&#x201c;" horiz-adv-x="411" 
d="M75 479l48 241h50l-31 -241h-67zM242 479l48 241h49l-31 -241h-66z" />
    <glyph glyph-name="quotedblright" unicode="&#x201d;" horiz-adv-x="411" 
d="M169 720l-48 -241h-49l31 241h66zM336 720l-48 -241h-50l31 241h67z" />
    <glyph glyph-name="quotedblbase" unicode="&#x201e;" horiz-adv-x="411" 
d="M169 117l-48 -242h-49l31 242h66zM336 117l-48 -242h-50l31 242h67z" />
    <glyph glyph-name="dagger" unicode="&#x2020;" horiz-adv-x="357" 
d="M155 351v221h-102v46h102v102h47v-102h102v-46h-102v-221h-47z" />
    <glyph glyph-name="daggerdbl" unicode="&#x2021;" horiz-adv-x="357" 
d="M202 628h102v-46h-102v-93h102v-47h-102v-91h-47v91h-102v47h102v93h-102v46h102v92h47v-92z" />
    <glyph glyph-name="bullet" unicode="&#x2022;" horiz-adv-x="437" 
d="M219 359c52 0 95 -42 95 -95s-43 -96 -95 -96c-53 0 -96 43 -96 96s43 95 96 95z" />
    <glyph glyph-name="ellipsis" unicode="&#x2026;" horiz-adv-x="705" 
d="M130 89c25 0 48 -22 48 -47c0 -27 -23 -49 -48 -49s-48 24 -48 49s23 47 48 47zM353 89c25 0 47 -22 47 -47c0 -27 -22 -49 -47 -49s-48 22 -48 49c0 25 23 47 48 47zM575 89c25 0 48 -22 48 -47s-23 -49 -48 -49s-48 22 -48 49c0 25 23 47 48 47z" />
    <glyph glyph-name="perthousand" unicode="&#x2030;" horiz-adv-x="1372" 
d="M228 708c67 0 124 -32 156 -86c15 -27 23 -58 23 -91c0 -67 -33 -123 -88 -154c-27 -15 -58 -23 -91 -23c-65 0 -122 33 -153 87c-16 27 -24 57 -24 90c0 67 34 123 88 154c27 15 56 23 89 23zM288 0h-60l441 700h60zM228 658c-71 0 -124 -54 -124 -127
c0 -72 53 -126 124 -126c72 0 126 53 126 126s-54 127 -126 127zM727 346c67 0 124 -33 156 -87c15 -27 23 -57 23 -90c0 -67 -33 -123 -88 -154c-27 -15 -58 -23 -91 -23c-67 0 -123 33 -154 87c-15 27 -23 57 -23 90c0 67 33 123 87 154c27 15 57 23 90 23zM1143 346
c67 0 124 -32 156 -86c15 -27 23 -58 23 -91c0 -67 -33 -123 -88 -154c-27 -15 -58 -23 -91 -23c-67 0 -123 33 -154 87c-16 27 -24 57 -24 90c0 67 34 123 88 154c27 15 57 23 90 23zM727 296c-71 0 -124 -54 -124 -127c0 -72 53 -126 124 -126c72 0 126 53 126 126
s-54 127 -126 127zM1143 296c-71 0 -124 -54 -124 -127s53 -126 124 -126c72 0 125 53 125 126s-53 127 -125 127z" />
    <glyph glyph-name="minute" unicode="&#x2032;" horiz-adv-x="267" 
d="M192 700l-66 -308h-54l65 308h55z" />
    <glyph glyph-name="second" unicode="&#x2033;" horiz-adv-x="415" 
d="M192 700l-66 -308h-54l65 308h55zM340 700l-65 -308h-55l66 308h54z" />
    <glyph glyph-name="guilsinglleft" unicode="&#x2039;" horiz-adv-x="310" 
d="M228 82h-62l-96 182l96 182h62l-97 -182z" />
    <glyph glyph-name="guilsinglright" unicode="&#x203a;" horiz-adv-x="310" 
d="M82 446h62l96 -182l-96 -182h-62l97 182z" />
    <glyph glyph-name="fraction" unicode="&#x2044;" horiz-adv-x="210" 
d="M-87 0h-58l442 700h58z" />
    <glyph glyph-name="trademark" unicode="&#x2122;" horiz-adv-x="674" 
d="M591 424v221l-89 -190h-42l-89 190v-221h-42v277h59l93 -199l93 199h58v-277h-41zM138 424v238h-96v38h233v-38h-96v-238h-41z" />
    <glyph glyph-name="uni03A9" unicode="&#x3a9;" horiz-adv-x="859" 
d="M42 58h193c-101 56 -164 161 -164 289c0 139 67 254 176 315c55 31 116 46 183 46c135 0 250 -64 312 -174c31 -55 46 -118 46 -187c0 -128 -63 -233 -163 -289h192v-58h-294v50c121 37 201 149 201 294c0 120 -55 215 -144 267c-45 25 -95 38 -150 38
c-111 0 -204 -54 -256 -146c-26 -46 -39 -99 -39 -159c0 -145 81 -257 201 -294v-50h-294v58z" />
    <glyph glyph-name="estimated" unicode="&#x212e;" horiz-adv-x="1000" 
d="M219 339v-177c0 -51 13 -84 49 -112c65 -49 145 -77 232 -77c131 0 245 61 313 162l18 -14c-71 -108 -194 -171 -331 -171c-145 0 -273 71 -344 192c-35 61 -53 130 -53 208c0 156 76 282 197 350c61 33 127 50 200 50c145 0 273 -71 344 -192c35 -61 53 -130 53 -208
v-11h-678zM785 362v173c0 49 -12 84 -48 112c-64 52 -146 80 -237 80c-88 0 -168 -27 -232 -76c-36 -29 -49 -62 -49 -113v-176h566z" />
    <glyph glyph-name="uni2153" unicode="&#x2153;" horiz-adv-x="821" 
d="M189 317h-47v321l-116 -48v47l163 67v-387zM194 0h-57l441 700h58zM638 387c77 0 131 -42 131 -103c0 -44 -26 -76 -67 -91c45 -13 75 -47 75 -90c0 -69 -60 -108 -136 -108c-51 0 -93 17 -124 50l28 31c26 -25 57 -37 94 -37c51 0 89 24 89 68c0 40 -39 65 -91 65h-51
v42h51c49 0 83 25 83 66c0 39 -35 64 -84 64c-37 0 -68 -17 -88 -42l-29 30c29 37 68 55 119 55z" />
    <glyph glyph-name="uni2154" unicode="&#x2154;" horiz-adv-x="883" 
d="M64 610l-31 30c31 43 72 64 123 64c77 0 124 -48 124 -117c0 -43 -19 -76 -55 -112l-112 -114h180v-44h-248v37l146 148c27 25 40 53 40 82c0 44 -30 75 -79 75c-35 0 -64 -16 -88 -49zM257 0h-58l442 700h57zM700 387c77 0 131 -42 131 -103c0 -44 -26 -76 -67 -91
c45 -13 75 -47 75 -90c0 -69 -60 -108 -136 -108c-51 0 -93 17 -124 50l28 31c26 -25 57 -37 94 -37c51 0 89 24 89 68c0 40 -39 65 -91 65h-51v42h51c49 0 83 25 83 66c0 39 -35 64 -84 64c-37 0 -68 -17 -88 -42l-29 30c29 37 68 55 119 55z" />
    <glyph glyph-name="oneeighth" unicode="&#x215b;" horiz-adv-x="855" 
d="M189 317h-47v321l-116 -48v47l163 67v-387zM194 0h-57l441 700h58zM667 387c77 0 135 -39 135 -103c0 -45 -27 -75 -70 -90c48 -15 80 -45 80 -92c0 -67 -62 -107 -145 -107s-145 40 -145 107c0 47 32 77 80 92c-43 15 -70 45 -70 90c0 64 58 103 135 103zM667 346
c-48 0 -85 -25 -85 -66c0 -43 37 -67 85 -67c49 0 85 24 85 67c0 41 -36 66 -85 66zM667 175c-53 0 -94 -26 -94 -69c0 -44 41 -70 94 -70s94 26 94 70c0 43 -41 69 -94 69z" />
    <glyph glyph-name="threeeighths" unicode="&#x215c;" horiz-adv-x="903" 
d="M147 704c77 0 130 -42 130 -103c0 -45 -25 -76 -66 -91c45 -13 74 -46 74 -90c0 -69 -60 -107 -135 -107c-52 0 -93 16 -124 49l27 31c26 -25 58 -37 95 -37c51 0 88 24 88 68c0 40 -39 65 -90 65h-52v42h52c48 0 82 25 82 66c0 39 -34 64 -83 64c-37 0 -67 -14 -89 -42
l-29 30c30 37 70 55 120 55zM242 0h-57l441 700h58zM715 387c77 0 135 -39 135 -103c0 -45 -28 -75 -71 -90c48 -15 80 -45 80 -92c0 -67 -61 -107 -144 -107s-145 40 -145 107c0 47 32 77 80 92c-43 15 -71 45 -71 90c0 64 59 103 136 103zM715 346c-49 0 -85 -25 -85 -66
c0 -43 36 -67 85 -67c48 0 85 24 85 67c0 41 -37 66 -85 66zM715 175c-55 0 -94 -25 -94 -69s39 -70 94 -70c53 0 93 26 93 70s-40 69 -93 69z" />
    <glyph glyph-name="fiveeighths" unicode="&#x215d;" horiz-adv-x="917" 
d="M282 656h-171l-3 -108h51c89 0 141 -45 141 -112c0 -75 -56 -123 -135 -123c-55 0 -99 18 -132 55l29 32c25 -28 62 -44 102 -44c55 0 87 31 87 76c0 44 -33 74 -102 74h-85l6 194h212v-44zM256 0h-57l441 700h58zM729 387c77 0 135 -39 135 -103c0 -45 -28 -75 -71 -90
c48 -15 80 -45 80 -92c0 -67 -61 -107 -144 -107s-145 40 -145 107c0 47 32 77 80 92c-43 15 -71 45 -71 90c0 64 59 103 136 103zM729 346c-49 0 -85 -25 -85 -66c0 -43 36 -67 85 -67c48 0 85 24 85 67c0 41 -37 66 -85 66zM729 175c-55 0 -94 -25 -94 -69s39 -70 94 -70
c53 0 93 26 93 70s-40 69 -93 69z" />
    <glyph glyph-name="seveneighths" unicode="&#x215e;" horiz-adv-x="839" 
d="M297 663l-172 -346h-55l171 338h-210v45h266v-37zM178 0h-57l441 700h58zM651 387c77 0 135 -39 135 -103c0 -45 -28 -75 -71 -90c48 -15 80 -45 80 -92c0 -67 -61 -107 -144 -107s-145 40 -145 107c0 47 32 77 80 92c-43 15 -71 45 -71 90c0 64 59 103 136 103zM651 346
c-49 0 -85 -25 -85 -66c0 -43 36 -67 85 -67c48 0 85 24 85 67c0 41 -37 66 -85 66zM651 175c-55 0 -94 -25 -94 -69s39 -70 94 -70c53 0 93 26 93 70s-40 69 -93 69z" />
    <glyph glyph-name="partialdiff" unicode="&#x2202;" horiz-adv-x="591" 
d="M139 679l26 46c139 -60 255 -165 319 -292c32 -63 48 -128 48 -194c0 -92 -45 -171 -120 -214c-38 -22 -80 -33 -125 -33c-91 0 -169 45 -212 118c-21 37 -32 77 -32 122c0 89 43 167 115 209c35 21 75 31 119 31c69 0 132 -32 171 -88c-47 124 -150 222 -309 295z
M287 418c-69 0 -129 -34 -161 -90c-17 -29 -25 -61 -25 -96c0 -71 35 -130 92 -162c28 -16 59 -24 94 -24c69 0 129 34 162 91c16 28 24 60 24 95c0 71 -35 130 -91 162c-29 16 -60 24 -95 24z" />
    <glyph glyph-name="uni0394" unicode="&#x394;" horiz-adv-x="710" 
d="M668 48v-48h-626v48l276 653h74zM111 58h488l-244 581z" />
    <glyph glyph-name="product" unicode="&#x220f;" horiz-adv-x="728" 
d="M623 -133h-61v775h-396v-775h-61v833h518v-833z" />
    <glyph glyph-name="summation" unicode="&#x2211;" horiz-adv-x="659" 
d="M595 642h-441l292 -335v-34l-294 -348h444v-58h-533v48l318 373l-317 365v47h531v-58z" />
    <glyph glyph-name="minus" unicode="&#x2212;" horiz-adv-x="600" 
d="M513 238h-426v51h426v-51z" />
    <glyph glyph-name="radical" unicode="&#x221a;" horiz-adv-x="611" 
d="M298 -133h-76l-205 501h68l175 -429l269 781h62z" />
    <glyph glyph-name="infinity" unicode="&#x221e;" horiz-adv-x="804" 
d="M199 79c-61 0 -117 31 -148 86c-15 27 -23 59 -23 95c0 72 33 130 86 159c26 15 54 22 85 22c48 0 90 -25 126 -60c18 -18 44 -45 77 -82c63 71 94 102 136 125c21 11 43 17 68 17c61 0 117 -30 148 -85c15 -28 23 -60 23 -96c0 -72 -33 -128 -85 -158
c-27 -15 -55 -23 -86 -23c-48 0 -91 25 -128 62c-19 18 -44 45 -76 81c-65 -73 -93 -103 -135 -126c-21 -11 -44 -17 -68 -17zM199 131c35 0 65 20 97 52c15 15 39 41 71 77c-32 36 -56 62 -71 78c-32 31 -62 51 -97 51c-67 0 -117 -49 -117 -129s50 -129 117 -129zM606 131
c67 0 117 49 117 129s-50 129 -117 129c-35 0 -65 -20 -96 -51c-16 -16 -40 -42 -73 -78c33 -36 57 -62 73 -77c31 -32 61 -52 96 -52z" />
    <glyph glyph-name="integral" unicode="&#x222b;" horiz-adv-x="340" 
d="M331 702l-16 -52c-10 3 -22 4 -36 4c-67 0 -95 -39 -95 -115v-510c0 -105 -45 -169 -148 -169c-19 0 -38 2 -55 6l15 51c16 -3 28 -4 37 -4c63 0 95 39 95 116v510c0 105 45 169 148 169c20 0 38 -2 55 -6z" />
    <glyph glyph-name="congruent" unicode="&#x2245;" horiz-adv-x="600" 
d="M487 575l31 -36c-35 -40 -72 -58 -127 -58c-41 0 -65 8 -101 24c-32 15 -52 22 -85 22c-36 0 -61 -13 -92 -45l-32 36c36 40 74 58 127 58c41 0 66 -8 102 -24c35 -15 53 -22 85 -22c36 0 61 14 92 45zM513 326h-426v51h426v-51zM513 150h-426v52h426v-52z" />
    <glyph glyph-name="approxequal" unicode="&#x2248;" horiz-adv-x="600" 
d="M487 398l31 -36c-35 -40 -72 -58 -127 -58c-41 0 -65 8 -101 24c-32 15 -52 22 -85 22c-36 0 -61 -13 -92 -45l-32 36c36 40 74 58 127 58c41 0 66 -8 102 -24c35 -15 53 -22 85 -22c36 0 61 14 92 45zM487 224l31 -36c-35 -40 -72 -58 -127 -58c-41 0 -65 8 -101 24
c-32 15 -52 22 -85 22c-36 0 -61 -13 -92 -45l-32 36c36 40 74 58 127 58c41 0 66 -8 102 -24c35 -15 53 -22 85 -22c36 0 61 14 92 45z" />
    <glyph glyph-name="notequal" unicode="&#x2260;" horiz-adv-x="600" 
d="M513 150h-241l-64 -131h-54l63 131h-130v52h156l60 124h-216v51h241l64 131h55l-64 -131h130v-51h-155l-61 -124h216v-52z" />
    <glyph glyph-name="lessequal" unicode="&#x2264;" horiz-adv-x="600" 
d="M493 481l-325 -139l325 -138v-61l-385 171v57l385 171v-61zM108 88h385v-52h-385v52z" />
    <glyph glyph-name="greaterequal" unicode="&#x2265;" horiz-adv-x="600" 
d="M108 542l385 -171v-57l-385 -171v61l325 138l-325 139v61zM493 36h-385v52h385v-52z" />
    <glyph glyph-name="dotmath" unicode="&#x22c5;" horiz-adv-x="600" 
d="M300 312c27 0 48 -21 48 -48c0 -25 -21 -48 -48 -48c-25 0 -48 23 -48 48s23 48 48 48z" />
    <glyph glyph-name="lozenge" unicode="&#x25ca;" horiz-adv-x="776" 
d="M421 0h-66l-302 350l302 350h66l302 -350zM387 648l-260 -297l262 -299l260 298z" />
    <glyph glyph-name="uniEA00" unicode="&#xea00;" horiz-adv-x="900" 
d="M782 430l-205 -149l79 -241l-205 149l-205 -149l78 241l-205 149h254l78 241l78 -241h253zM451 556v-323l137 -100l-53 162l137 100h-169z" />
    <glyph glyph-name="uniEA01" unicode="&#xea01;" horiz-adv-x="900" 
d="M246 40l78 241l-205 149h254l78 241v-482z" />
    <glyph glyph-name="fi" unicode="&#xfb01;" horiz-adv-x="676" 
d="M403 419h-203v-419h-57v419h-115v52h115v81c0 109 49 176 156 176c46 0 88 -12 127 -35l-21 -48c-28 17 -66 29 -103 29c-71 0 -102 -42 -102 -122v-81h203v-52zM557 681c23 0 41 -18 41 -41s-18 -41 -41 -41s-40 18 -40 41s17 41 40 41zM586 0h-57v471h57v-471z" />
    <glyph glyph-name="fl" unicode="&#xfb02;" horiz-adv-x="676" 
d="M403 419h-203v-419h-57v419h-115v52h115v81c0 109 49 176 156 176c46 0 88 -12 127 -35l-21 -48c-28 17 -66 29 -103 29c-71 0 -102 -42 -102 -122v-81h203v-52zM586 0h-57v720h57v-720z" />
    <glyph glyph-name="i.latn_TRK" horiz-adv-x="239" 
d="M120 681c23 0 41 -18 41 -41s-18 -41 -41 -41s-41 18 -41 41s18 41 41 41zM148 0h-57v471h57v-471z" />
    <glyph glyph-name="j.latn_NLD" horiz-adv-x="240" 
d="M62 541l110 150h72l-126 -150h-56zM150 471v-560c0 -75 -40 -117 -105 -117c-23 0 -50 7 -66 16l14 49c15 -8 30 -12 47 -12c35 0 53 22 53 66v558h57z" />
    <glyph glyph-name="Ldot.latn_CAT" horiz-adv-x="602" 
d="M581 0h-476v700h61v-642h415v-58zM423 395c24 0 42 -19 42 -43c0 -23 -18 -41 -42 -41s-42 18 -42 41c0 24 18 43 42 43z" />
    <glyph glyph-name="ldot.latn_CAT" horiz-adv-x="284" 
d="M148 0h-57v720h57v-720zM259 407c23 0 41 -19 41 -42s-18 -40 -41 -40s-40 17 -40 40s17 42 40 42z" />
    <glyph glyph-name="zero.numr" horiz-adv-x="424" 
d="M212 704c60 0 111 -32 140 -91c14 -30 21 -65 21 -105c0 -79 -31 -140 -79 -171c-25 -16 -52 -24 -82 -24c-60 0 -111 32 -139 92c-15 29 -22 64 -22 103c0 80 31 141 80 173c24 15 51 23 81 23zM212 659c-64 0 -112 -58 -112 -151s48 -150 112 -150s112 57 112 150
s-48 151 -112 151z" />
    <glyph glyph-name="one.numr" horiz-adv-x="271" 
d="M189 317h-47v321l-116 -48v47l163 67v-387z" />
    <glyph glyph-name="two.numr" horiz-adv-x="329" 
d="M64 610l-31 30c31 43 72 64 123 64c77 0 124 -48 124 -117c0 -43 -19 -76 -55 -112l-112 -114h180v-44h-248v37l146 148c27 25 40 53 40 82c0 44 -30 75 -79 75c-35 0 -64 -16 -88 -49z" />
    <glyph glyph-name="three.numr" horiz-adv-x="329" 
d="M147 704c77 0 130 -42 130 -103c0 -45 -25 -76 -66 -91c45 -13 74 -46 74 -90c0 -69 -60 -107 -135 -107c-52 0 -93 16 -124 49l27 31c26 -25 58 -37 95 -37c51 0 88 24 88 68c0 40 -39 65 -90 65h-52v42h52c48 0 82 25 82 66c0 39 -34 64 -83 64c-37 0 -67 -14 -89 -42
l-29 30c30 37 70 55 120 55z" />
    <glyph glyph-name="four.numr" horiz-adv-x="335" 
d="M251 439h64v-43h-64v-79h-48v79h-182v34l137 269h52l-133 -260h126v90l11 19h37v-109z" />
    <glyph glyph-name="five.numr" horiz-adv-x="346" 
d="M282 656h-171l-3 -108h51c89 0 141 -45 141 -112c0 -75 -56 -123 -135 -123c-55 0 -99 18 -132 55l29 32c25 -28 62 -44 102 -44c55 0 87 31 87 76c0 44 -33 74 -102 74h-85l6 194h212v-44z" />
    <glyph glyph-name="six.numr" horiz-adv-x="343" 
d="M229 700l-97 -146c14 5 29 8 45 8c77 0 133 -54 133 -123c0 -73 -59 -126 -139 -126s-140 53 -140 125c0 27 9 55 28 83l113 179h57zM171 522c-53 0 -91 -35 -91 -84c0 -48 38 -83 91 -83c52 0 90 35 90 83c0 49 -38 84 -90 84z" />
    <glyph glyph-name="seven.numr" horiz-adv-x="323" 
d="M297 663l-172 -346h-55l171 338h-210v45h266v-37z" />
    <glyph glyph-name="eight.numr" horiz-adv-x="377" 
d="M189 704c77 0 135 -39 135 -103c0 -45 -28 -75 -71 -90c48 -15 80 -45 80 -92c0 -67 -61 -106 -144 -106c-84 0 -145 39 -145 106c0 47 32 77 80 92c-43 15 -71 45 -71 90c0 64 59 103 136 103zM189 663c-49 0 -85 -25 -85 -66c0 -43 36 -67 85 -67c48 0 85 24 85 67
c0 41 -37 66 -85 66zM189 492c-55 0 -94 -25 -94 -69s39 -70 94 -70c53 0 93 26 93 70s-40 69 -93 69z" />
    <glyph glyph-name="nine.numr" horiz-adv-x="343" 
d="M115 317l96 146c-14 -5 -29 -8 -44 -8c-77 0 -133 54 -133 123c0 73 59 126 139 126c81 0 140 -53 140 -125c0 -27 -9 -55 -28 -84l-113 -178h-57zM173 495c53 0 90 35 91 84c0 48 -38 83 -91 83c-52 0 -90 -35 -90 -83c0 -49 38 -84 90 -84z" />
    <glyph glyph-name="zero.dnom" horiz-adv-x="424" 
d="M212 387c60 0 111 -32 140 -91c14 -30 21 -65 21 -105c0 -79 -31 -140 -79 -172c-25 -16 -52 -24 -82 -24c-60 0 -111 33 -139 93c-15 29 -22 64 -22 103c0 80 31 141 80 173c24 15 51 23 81 23zM212 342c-64 0 -112 -58 -112 -151s48 -150 112 -150s112 57 112 150
s-48 151 -112 151z" />
    <glyph glyph-name="one.dnom" horiz-adv-x="271" 
d="M189 0h-47v321l-116 -48v47l163 67v-387z" />
    <glyph glyph-name="two.dnom" horiz-adv-x="329" 
d="M64 293l-31 30c31 43 72 64 123 64c77 0 124 -48 124 -117c0 -43 -19 -76 -55 -112l-112 -114h180v-44h-248v37l146 148c27 25 40 53 40 82c0 44 -30 75 -79 75c-35 0 -64 -16 -88 -49z" />
    <glyph glyph-name="three.dnom" horiz-adv-x="329" 
d="M147 387c77 0 130 -42 130 -103c0 -45 -25 -76 -66 -91c45 -13 74 -46 74 -90c0 -69 -60 -108 -135 -108c-51 0 -93 17 -124 50l27 31c26 -25 58 -37 95 -37c51 0 88 24 88 68c0 40 -39 65 -90 65h-52v42h52c48 0 82 25 82 66c0 39 -34 64 -83 64c-37 0 -67 -14 -89 -42
l-29 30c30 37 70 55 120 55z" />
    <glyph glyph-name="four.dnom" horiz-adv-x="335" 
d="M251 122h64v-43h-64v-79h-48v79h-182v34l137 269h52l-133 -260h126v85l13 24h35v-109z" />
    <glyph glyph-name="five.dnom" horiz-adv-x="346" 
d="M282 339h-171l-3 -108h51c89 0 141 -45 141 -112c0 -75 -56 -124 -135 -124c-54 0 -98 19 -132 56l29 32c25 -28 62 -44 102 -44c55 0 87 31 87 76c0 44 -33 74 -102 74h-85l6 194h212v-44z" />
    <glyph glyph-name="six.dnom" horiz-adv-x="344" 
d="M229 383l-97 -146c14 5 29 8 45 8c77 0 133 -54 133 -123c0 -73 -59 -127 -139 -127s-140 54 -140 126c0 27 9 55 28 83l113 179h57zM171 205c-53 0 -91 -35 -91 -84c0 -48 38 -83 91 -83c52 0 90 35 90 83c0 49 -38 84 -90 84z" />
    <glyph glyph-name="seven.dnom" horiz-adv-x="323" 
d="M297 346l-172 -346h-55l171 338h-210v45h266v-37z" />
    <glyph glyph-name="eight.dnom" horiz-adv-x="377" 
d="M189 387c77 0 135 -39 135 -103c0 -45 -28 -75 -71 -90c48 -15 80 -45 80 -92c0 -67 -61 -107 -144 -107s-145 40 -145 107c0 47 32 77 80 92c-43 15 -71 45 -71 90c0 64 59 103 136 103zM189 346c-49 0 -85 -25 -85 -66c0 -43 36 -67 85 -67c48 0 85 24 85 67
c0 41 -37 66 -85 66zM189 175c-55 0 -94 -25 -94 -69s39 -70 94 -70c53 0 93 26 93 70s-40 69 -93 69z" />
    <glyph glyph-name="nine.dnom" horiz-adv-x="344" 
d="M115 0l96 146c-14 -5 -29 -8 -44 -8c-77 0 -133 54 -133 123c0 73 59 126 139 126c81 0 140 -53 140 -125c0 -27 -9 -55 -28 -84l-113 -178h-57zM173 178c53 0 90 35 91 84c0 48 -38 83 -91 83c-52 0 -90 -35 -90 -83c0 -49 38 -84 90 -84z" />
    <glyph glyph-name="space.frac" horiz-adv-x="53" 
 />
    <glyph glyph-name="b.ordn" horiz-adv-x="443" 
d="M239 649c60 0 112 -31 140 -82c14 -26 21 -55 21 -86c0 -64 -30 -118 -79 -147c-25 -15 -52 -22 -82 -22c-57 0 -101 28 -126 75v-70h-46v497h47v-238c25 45 68 73 125 73zM231 605c-69 0 -120 -53 -120 -124c0 -72 51 -125 120 -125c71 0 121 53 121 125
c0 71 -50 124 -121 124z" />
    <glyph glyph-name="c.ordn" horiz-adv-x="377" 
d="M211 649c49 0 93 -19 124 -54l-34 -30c-25 27 -55 40 -91 40c-68 0 -119 -52 -119 -124s51 -125 119 -125c35 0 68 15 92 40l33 -30c-31 -35 -75 -54 -124 -54c-65 0 -119 31 -147 83c-15 25 -22 54 -22 86c0 64 30 117 82 146c25 15 54 22 87 22z" />
    <glyph glyph-name="d.ordn" horiz-adv-x="443" 
d="M204 649c57 0 100 -28 125 -75v240h47v-497h-46v70c-25 -47 -69 -75 -126 -75c-60 0 -112 31 -140 83c-15 25 -22 54 -22 86c0 63 31 117 80 146c25 15 52 22 82 22zM211 605c-71 0 -120 -53 -120 -124c0 -72 49 -125 120 -125c69 0 120 53 120 125
c0 71 -51 124 -120 124z" />
    <glyph glyph-name="e.ordn" horiz-adv-x="402" 
d="M205 649c89 0 154 -70 155 -167c0 -8 0 -14 -1 -17h-268c5 -69 54 -112 119 -112c41 0 77 15 107 45l27 -31c-36 -37 -81 -55 -136 -55c-97 0 -166 69 -166 168c0 65 31 119 80 148c25 14 52 21 83 21zM205 608c-63 0 -107 -44 -114 -109h221c-5 65 -48 109 -107 109z
" />
    <glyph glyph-name="h.ordn" horiz-adv-x="425" 
d="M114 814v-231c23 44 65 66 114 66c80 0 134 -51 134 -130v-202h-47v187c0 63 -36 101 -99 101c-57 0 -102 -42 -102 -103v-185h-47v497h47z" />
    <glyph glyph-name="l.ordn" horiz-adv-x="180" 
d="M114 317h-47v497h47v-497z" />
    <glyph glyph-name="m.ordn" horiz-adv-x="673" 
d="M475 649c81 0 136 -50 136 -130v-202h-48v187c0 63 -36 101 -99 101c-57 0 -102 -42 -102 -103v-185h-47v187c0 63 -36 101 -99 101c-57 0 -102 -42 -102 -103v-185h-47v327h46v-63c23 45 64 68 115 68c59 0 104 -27 123 -74c23 49 71 74 124 74z" />
    <glyph glyph-name="r.ordn" horiz-adv-x="294" 
d="M213 649c23 0 42 -4 56 -11l-9 -46c-16 8 -35 12 -57 12c-53 0 -89 -42 -89 -103v-184h-47v327h46v-58c19 41 53 63 100 63z" />
    <glyph glyph-name="s.ordn" horiz-adv-x="352" 
d="M307 614l-18 -37c-27 17 -70 32 -111 32c-49 0 -81 -20 -81 -55c0 -28 24 -44 73 -49l39 -5c68 -8 106 -37 106 -88c0 -63 -54 -100 -141 -100c-52 0 -102 13 -137 40l20 36c33 -24 72 -36 117 -36c57 0 93 19 93 56c0 29 -25 46 -74 51l-37 4c-73 8 -108 40 -108 89
c0 60 50 97 129 97c49 0 92 -12 130 -35z" />
    <glyph glyph-name="t.ordn" horiz-adv-x="331" 
d="M293 601h-146v-167c0 -52 26 -78 70 -78c27 0 51 9 73 26l18 -37c-28 -22 -61 -33 -98 -33c-71 0 -111 40 -111 119v170h-74v43h74v105h48v-105h146v-43z" />
    <glyph glyph-name="u.ordn" horiz-adv-x="429" 
d="M362 644v-191c0 -89 -61 -141 -148 -141c-85 0 -147 52 -147 141v191h47v-187c0 -64 40 -101 100 -101c61 0 101 37 101 101v187h47z" />
    <glyph glyph-name="egrave.ordn" horiz-adv-x="402" 
d="M201 691l-89 106h58l77 -106h-46zM208 312c-97 0 -166 69 -166 168c0 65 31 119 80 148c25 14 52 21 83 21c89 0 154 -70 155 -167c0 -8 0 -14 -1 -17h-268c5 -69 54 -112 119 -112c41 0 77 15 107 45l27 -31c-36 -37 -81 -55 -136 -55zM91 499h221
c-5 65 -48 109 -107 109c-63 0 -107 -44 -114 -109z" />
    <glyph glyph-name="zero.osf" horiz-adv-x="669" 
d="M335 524c99 0 186 -46 234 -126c24 -41 36 -87 36 -139c0 -105 -51 -189 -133 -233c-41 -23 -87 -34 -137 -34c-100 0 -187 47 -235 128c-24 41 -36 87 -36 139c0 104 51 188 134 232c41 22 87 33 137 33zM335 470c-79 0 -146 -36 -184 -100c-19 -32 -29 -69 -29 -111
c0 -84 41 -151 106 -186c32 -18 68 -27 107 -27c79 0 147 36 184 101c19 32 28 69 28 112c0 84 -40 150 -104 185c-33 17 -69 26 -108 26z" />
    <glyph glyph-name="one.osf" horiz-adv-x="380" 
d="M278 0h-58v446l-185 -63v57l243 85v-525z" />
    <glyph glyph-name="two.osf" horiz-adv-x="530" 
d="M83 384l-41 35c41 56 108 104 207 104c81 0 146 -33 180 -87c17 -27 25 -57 25 -90c0 -83 -54 -146 -151 -205l-142 -85h324v-56h-429v48l214 133c89 55 123 106 123 163c0 69 -54 124 -146 124c-76 0 -123 -33 -164 -84z" />
    <glyph glyph-name="three.osf" horiz-adv-x="539" 
d="M244 523c88 0 159 -33 197 -90c19 -29 28 -61 28 -97c0 -83 -45 -140 -118 -167c81 -25 134 -86 134 -167c0 -84 -47 -144 -118 -173c-36 -15 -75 -22 -116 -22c-92 0 -167 32 -219 88l38 39c45 -45 109 -72 180 -72c100 0 174 50 174 142c0 84 -77 139 -178 139h-96v53
h95c96 0 164 50 164 138c0 80 -70 135 -169 135c-68 0 -124 -34 -159 -82l-44 35c43 61 115 101 207 101z" />
    <glyph glyph-name="four.osf" horiz-adv-x="570" 
d="M407 55h137v-55h-137v-185h-57v185h-324v46l244 469h62l-238 -460h256v183h57v-183z" />
    <glyph glyph-name="five.osf" horiz-adv-x="567" 
d="M479 460h-318l-8 -230h106c163 0 251 -84 251 -209c0 -88 -44 -154 -115 -188c-36 -17 -76 -26 -120 -26c-97 0 -175 36 -233 108l40 37c48 -59 117 -90 193 -90c108 0 174 65 174 154c0 100 -65 159 -208 159h-143l10 340h371v-55z" />
    <glyph glyph-name="six.osf" horiz-adv-x="569" 
d="M367 700l-175 -277c30 13 62 20 96 20c91 0 168 -42 209 -110c21 -35 31 -73 31 -116c0 -84 -45 -156 -120 -195c-37 -20 -79 -30 -125 -30c-92 0 -170 42 -213 111c-21 34 -32 72 -32 115c0 45 15 92 46 141l212 341h71zM283 389c-69 0 -129 -31 -161 -83
c-16 -26 -24 -55 -24 -88c0 -65 34 -120 90 -149c28 -15 60 -22 95 -22c71 0 129 31 161 83c16 26 24 55 24 88c0 65 -34 120 -90 149c-28 15 -60 22 -95 22z" />
    <glyph glyph-name="seven.osf" horiz-adv-x="547" 
d="M509 470l-325 -655h-67l323 645h-402v55h471v-45z" />
    <glyph glyph-name="eight.osf" horiz-adv-x="598" 
d="M300 708c84 0 157 -33 198 -89c20 -29 30 -62 30 -99c0 -79 -46 -136 -115 -165c79 -29 131 -87 131 -170c0 -77 -46 -138 -121 -169c-37 -16 -78 -24 -123 -24c-91 0 -169 32 -213 91c-22 29 -33 63 -33 102c0 83 53 141 132 170c-69 29 -115 86 -115 165
c0 75 44 134 114 165c35 15 73 23 115 23zM300 653c-96 0 -168 -54 -168 -135c0 -85 72 -139 168 -139c95 0 167 55 167 139c0 81 -72 135 -167 135zM300 327c-105 0 -185 -55 -185 -139c0 -85 80 -141 185 -141c104 0 184 56 184 141c0 84 -80 139 -184 139z" />
    <glyph glyph-name="nine.osf" horiz-adv-x="569" 
d="M202 -185l175 278c-30 -13 -62 -20 -96 -20c-91 0 -167 42 -208 111c-21 34 -31 72 -31 114c0 85 44 156 119 196c37 19 79 29 125 29c93 0 170 -42 213 -110c21 -34 32 -72 32 -115c0 -48 -15 -92 -46 -141l-212 -342h-71zM286 127c71 0 129 31 161 83
c16 26 24 55 24 88c0 65 -34 120 -90 149c-28 15 -60 22 -95 22c-71 0 -129 -31 -161 -83c-16 -26 -24 -55 -24 -88c0 -65 34 -120 90 -149c28 -15 60 -22 95 -22z" />
    <glyph glyph-name="zero.tf" horiz-adv-x="600" 
d="M301 708c97 0 179 -53 224 -160c22 -54 33 -120 33 -198c0 -160 -48 -267 -125 -319c-39 -26 -83 -39 -132 -39c-99 0 -180 51 -225 158c-23 53 -34 120 -34 200c0 160 49 268 127 320c39 25 83 38 132 38zM301 651c-119 0 -198 -100 -198 -301s79 -301 198 -301
c117 0 197 100 197 301c0 132 -37 223 -96 268c-30 22 -64 33 -101 33z" />
    <glyph glyph-name="one.tf" horiz-adv-x="600" 
d="M301 56v571l-213 -76v60l272 96v-651h192v-56h-457v56h206z" />
    <glyph glyph-name="two.tf" horiz-adv-x="600" 
d="M116 558l-42 34c50 77 119 116 208 116c92 0 160 -39 194 -103c17 -33 25 -69 25 -109c0 -79 -38 -140 -94 -199l-229 -241h349v-56h-436v46l271 285c49 52 78 104 78 165c0 89 -59 156 -159 156c-77 0 -126 -37 -165 -94z" />
    <glyph glyph-name="three.tf" horiz-adv-x="600" 
d="M278 708c89 0 161 -33 199 -90c19 -29 28 -61 28 -97c0 -84 -44 -140 -119 -167c83 -27 135 -85 135 -168c0 -84 -48 -143 -120 -172c-36 -15 -75 -22 -117 -22c-92 0 -167 32 -219 88l38 40c45 -45 109 -72 180 -72c100 0 176 50 176 141c0 84 -78 138 -179 138h-97v54
h97c96 0 164 49 164 137c0 80 -71 135 -170 135c-68 0 -125 -34 -161 -82l-43 36c44 61 116 101 208 101z" />
    <glyph glyph-name="four.tf" horiz-adv-x="600" 
d="M439 209h126v-55h-126v-154h-59v154h-336v45l262 501h66l-257 -491h265v200h59v-200z" />
    <glyph glyph-name="five.tf" horiz-adv-x="600" 
d="M497 645h-318l-9 -229h110c107 0 182 -39 219 -100c19 -31 28 -65 28 -104c0 -91 -44 -158 -115 -193c-36 -18 -76 -27 -121 -27c-97 0 -174 36 -233 108l39 38c48 -57 118 -89 194 -89c108 0 175 66 175 158s-67 153 -204 153h-147l10 340h372v-55z" />
    <glyph glyph-name="six.tf" horiz-adv-x="600" 
d="M384 700l-175 -276c31 13 62 19 95 19c91 0 168 -42 209 -110c21 -34 31 -72 31 -115c0 -85 -45 -157 -120 -196c-37 -20 -79 -30 -125 -30c-92 0 -170 42 -213 111c-21 34 -32 72 -32 115c0 45 15 92 46 142l212 340h72zM299 389c-69 0 -128 -31 -160 -83
c-16 -26 -24 -55 -24 -88c0 -65 34 -120 90 -149c28 -15 59 -22 94 -22c69 0 128 31 160 83c16 26 24 55 24 88c0 65 -34 120 -90 149c-28 15 -59 22 -94 22z" />
    <glyph glyph-name="seven.tf" horiz-adv-x="600" 
d="M539 654l-324 -654h-69l322 645h-401v55h472v-46z" />
    <glyph glyph-name="eight.tf" horiz-adv-x="600" 
d="M300 708c88 0 164 -31 207 -87c21 -28 32 -61 32 -100c0 -81 -47 -137 -119 -166c83 -29 136 -86 136 -170c0 -80 -48 -139 -126 -170c-39 -15 -83 -23 -130 -23c-95 0 -177 32 -222 90c-23 29 -34 63 -34 103c0 84 54 141 135 170c-72 29 -118 85 -118 166
c0 77 46 135 119 165c36 15 76 22 120 22zM300 653c-101 0 -177 -50 -177 -135c0 -88 74 -139 177 -139s177 51 177 139c0 85 -76 135 -177 135zM300 328c-112 0 -194 -52 -194 -140c0 -89 82 -141 194 -141c111 0 193 52 193 141c0 88 -82 140 -193 140z" />
    <glyph glyph-name="nine.tf" horiz-adv-x="600" 
d="M216 0l175 277c-30 -13 -62 -20 -96 -20c-91 0 -167 42 -208 111c-21 34 -31 72 -31 115c0 84 44 156 119 196c37 19 79 29 126 29c92 0 170 -42 213 -110c21 -35 32 -73 32 -115c0 -49 -15 -93 -46 -142l-212 -341h-72zM301 312c69 0 128 31 160 83c16 26 24 55 24 88
c0 64 -34 119 -90 148c-28 15 -59 22 -94 22c-71 0 -129 -31 -160 -83c-16 -26 -24 -55 -24 -87c0 -65 33 -120 89 -149c28 -15 60 -22 95 -22z" />
    <glyph glyph-name="zero.tosf" horiz-adv-x="600" 
d="M300 523c95 0 178 -45 224 -125c23 -40 34 -86 34 -139c0 -107 -49 -191 -128 -234c-39 -22 -83 -33 -130 -33c-95 0 -177 46 -223 127c-23 41 -35 87 -35 140c0 105 49 188 128 232c39 21 83 32 130 32zM300 471c-73 0 -138 -36 -173 -100c-18 -32 -27 -69 -27 -112
c0 -87 38 -153 99 -188c31 -17 64 -26 101 -26c75 0 138 35 174 100c17 32 26 70 26 114c0 85 -38 151 -99 186c-31 17 -64 26 -101 26z" />
    <glyph glyph-name="one.tosf" horiz-adv-x="600" 
d="M302 56v395l-204 -59v58l261 75v-469h185v-56h-440v56h198z" />
    <glyph glyph-name="two.tosf" horiz-adv-x="600" 
d="M129 384l-41 35c41 56 108 104 207 104c81 0 146 -33 180 -87c17 -27 25 -57 25 -90c0 -83 -54 -146 -151 -205l-142 -85h324v-56h-429v48l214 133c89 55 123 106 123 163c0 69 -54 124 -146 124c-76 0 -123 -33 -164 -84z" />
    <glyph glyph-name="three.tosf" horiz-adv-x="600" 
d="M284 523c88 0 159 -33 197 -90c19 -29 28 -61 28 -97c0 -83 -45 -140 -118 -167c80 -25 133 -86 133 -167c0 -84 -47 -144 -118 -173c-36 -15 -75 -22 -116 -22c-92 0 -166 32 -218 88l38 39c45 -45 108 -72 179 -72c100 0 175 50 175 142c0 84 -78 139 -179 139h-95v53
h95c96 0 163 49 163 138c0 80 -71 135 -168 135c-68 0 -124 -33 -160 -82l-43 35c41 61 114 101 207 101z" />
    <glyph glyph-name="four.tosf" horiz-adv-x="600" 
d="M433 55h137v-55h-137v-185h-58v185h-324v46l244 469h63l-238 -460h255v183h58v-183z" />
    <glyph glyph-name="five.tosf" horiz-adv-x="600" 
d="M496 460h-318l-8 -230h106c163 0 251 -84 251 -209c0 -88 -44 -154 -115 -188c-36 -17 -76 -26 -120 -26c-97 0 -175 36 -233 108l40 37c48 -59 117 -90 193 -90c108 0 174 65 174 154c0 100 -65 159 -208 159h-143l10 340h371v-55z" />
    <glyph glyph-name="six.tosf" horiz-adv-x="600" 
d="M387 700l-175 -277c30 13 62 20 96 20c91 0 168 -42 209 -110c21 -35 31 -73 31 -116c0 -84 -45 -156 -120 -195c-37 -20 -79 -30 -125 -30c-92 0 -170 42 -213 111c-21 34 -32 72 -32 115c0 45 15 92 46 141l212 341h71zM303 389c-69 0 -129 -31 -161 -83
c-16 -26 -24 -55 -24 -88c0 -65 34 -120 90 -149c28 -15 60 -22 95 -22c71 0 129 31 161 83c16 26 24 55 24 88c0 65 -34 120 -90 149c-28 15 -60 22 -95 22z" />
    <glyph glyph-name="seven.tosf" horiz-adv-x="600" 
d="M547 470l-326 -655h-67l323 645h-401v55h471v-45z" />
    <glyph glyph-name="eight.tosf" horiz-adv-x="600" 
d="M307 708c84 0 157 -33 198 -89c20 -29 30 -62 30 -99c0 -79 -46 -136 -115 -165c79 -29 131 -87 131 -170c0 -77 -46 -138 -121 -169c-37 -16 -78 -24 -123 -24c-91 0 -169 32 -213 91c-22 29 -33 63 -33 102c0 83 53 141 132 170c-69 29 -115 86 -115 165
c0 75 44 134 114 165c35 15 73 23 115 23zM307 653c-96 0 -168 -54 -168 -135c0 -85 72 -139 168 -139c95 0 167 55 167 139c0 81 -72 135 -167 135zM307 327c-105 0 -185 -55 -185 -139c0 -85 80 -141 185 -141c104 0 184 56 184 141c0 84 -80 139 -184 139z" />
    <glyph glyph-name="nine.tosf" horiz-adv-x="600" 
d="M213 -185l175 278c-30 -13 -62 -20 -96 -20c-91 0 -167 42 -208 111c-21 34 -31 72 -31 114c0 85 44 156 119 196c37 19 79 29 125 29c93 0 170 -42 213 -110c21 -34 32 -72 32 -115c0 -48 -15 -92 -46 -141l-212 -342h-71zM297 127c71 0 129 31 161 83
c16 26 24 55 24 88c0 65 -34 120 -90 149c-28 15 -60 22 -95 22c-71 0 -129 -31 -161 -83c-16 -26 -24 -55 -24 -88c0 -65 34 -120 90 -149c28 -15 60 -22 95 -22z" />
    <glyph glyph-name="exclam.sc" horiz-adv-x="260" 
d="M155 171h-49l-7 346h63zM130 78c23 0 43 -19 43 -42s-20 -43 -43 -43s-42 20 -42 43s19 42 42 42z" />
    <glyph glyph-name="numbersign.sc" horiz-adv-x="592" 
d="M202 383l30 134h48l-30 -134h145l30 134h49l-30 -134h87l-10 -45h-87l-35 -157h87l-10 -45h-87l-30 -136h-49l30 136h-145l-30 -136h-49l30 136h-85l10 45h86l35 157h-86l9 45h87zM205 181h145l35 157h-145z" />
    <glyph glyph-name="dollar.sc" horiz-adv-x="600" 
d="M279 -69v72c-68 3 -142 27 -186 59l28 43c37 -27 99 -49 158 -53v184l-16 2c-100 12 -156 58 -156 130c0 84 71 139 172 146v69h46v-69c63 -5 120 -22 170 -53l-26 -44c-42 27 -90 43 -144 48v-182l10 -1c92 -8 170 -47 170 -131c0 -89 -75 -140 -180 -148v-72h-46z
M279 288v177c-69 -7 -116 -41 -116 -92c0 -46 39 -74 116 -85zM325 231v-179c76 7 124 38 124 94c0 47 -41 75 -124 85z" />
    <glyph glyph-name="percent.sc" horiz-adv-x="749" 
d="M184 524c77 0 136 -57 136 -132s-59 -131 -136 -131s-135 56 -135 131s58 132 135 132zM231 0h-54l341 517h54zM184 481c-51 0 -89 -38 -89 -89s38 -88 89 -88c52 0 90 37 90 88s-38 89 -90 89zM564 257c79 0 137 -56 137 -131c0 -76 -58 -132 -137 -132
c-76 0 -135 56 -135 132c0 73 59 131 135 131zM564 214c-51 0 -89 -37 -89 -88c0 -52 38 -89 89 -89c52 0 90 37 90 89c0 51 -38 88 -90 88z" />
    <glyph glyph-name="ampersand.sc" horiz-adv-x="548" 
d="M203 -6c-91 0 -149 50 -149 126c0 65 42 108 111 156c-59 55 -80 85 -80 132c0 64 55 115 131 115s130 -49 130 -113c0 -55 -37 -90 -105 -137l127 -119l89 122l40 -26l-94 -129l129 -121h-71l-89 83c-47 -56 -97 -89 -169 -89zM207 304c57 40 87 66 87 105
c0 37 -31 67 -78 67s-79 -31 -79 -71c0 -15 5 -29 15 -42c9 -13 28 -33 55 -59zM207 41c52 0 89 25 130 73l-139 130c-57 -39 -90 -73 -90 -120c0 -49 40 -83 99 -83z" />
    <glyph glyph-name="parenleft.sc" horiz-adv-x="321" 
d="M263 576l17 -48c-99 -37 -163 -144 -163 -269s63 -234 163 -271l-17 -47c-79 27 -142 91 -176 179c-17 43 -26 90 -26 139c0 99 36 189 97 251c31 31 66 53 105 66z" />
    <glyph glyph-name="parenright.sc" horiz-adv-x="321" 
d="M58 -59l-17 47c99 37 163 145 163 270s-64 233 -163 270l17 48c79 -27 143 -91 177 -178c17 -44 25 -91 25 -140c0 -99 -36 -188 -97 -250c-31 -31 -66 -54 -105 -67z" />
    <glyph glyph-name="asterisk.sc" horiz-adv-x="356" 
d="M158 419v98h41v-98l94 31l13 -39l-95 -29l59 -78l-33 -24l-58 79l-58 -79l-34 24l59 78l-95 29l13 39z" />
    <glyph glyph-name="slash.sc" horiz-adv-x="406" 
d="M102 0h-61l263 517h62z" />
    <glyph glyph-name="zero.sc" horiz-adv-x="572" 
d="M286 522c83 0 154 -43 194 -123c19 -40 29 -87 29 -140c0 -107 -42 -190 -110 -233c-34 -21 -72 -32 -113 -32c-83 0 -154 44 -193 125c-20 40 -30 87 -30 140c0 107 42 190 110 232c34 21 72 31 113 31zM286 470c-61 0 -115 -34 -144 -98c-15 -32 -22 -70 -22 -113
c0 -88 31 -153 82 -187c25 -17 53 -26 84 -26c63 0 116 35 145 99c15 32 22 70 22 114c0 88 -31 153 -82 186c-25 17 -54 25 -85 25z" />
    <glyph glyph-name="one.sc" horiz-adv-x="362" 
d="M261 0h-55v445l-174 -72v55l229 94v-522z" />
    <glyph glyph-name="two.sc" horiz-adv-x="434" 
d="M79 404l-38 32c32 48 83 86 163 86c104 0 167 -65 167 -157c0 -57 -28 -104 -73 -149l-163 -165h255v-51h-335v43l203 204c38 38 57 77 57 116c0 63 -43 107 -114 107c-57 0 -93 -26 -122 -66z" />
    <glyph glyph-name="three.sc" horiz-adv-x="442" 
d="M196 522c108 0 181 -57 181 -138c0 -61 -35 -103 -91 -123c63 -20 102 -63 102 -123c0 -92 -84 -144 -188 -144c-69 0 -129 24 -168 65l33 36c33 -32 82 -52 134 -52c75 0 133 35 133 98c0 59 -58 96 -134 96h-73v49h73c72 0 122 34 122 94c0 55 -52 93 -127 93
c-51 0 -95 -24 -122 -59l-37 35c35 44 91 73 162 73z" />
    <glyph glyph-name="four.sc" horiz-adv-x="449" 
d="M332 161h92v-51h-92v-110h-55v110h-252v40l193 366h61l-188 -355h186v146h55v-146z" />
    <glyph glyph-name="five.sc" horiz-adv-x="457" 
d="M377 466h-237l-6 -157h75c125 0 192 -59 192 -154c0 -99 -75 -161 -182 -161c-73 0 -133 26 -178 77l33 38c36 -40 88 -64 145 -64c77 0 125 42 125 105c0 69 -47 110 -150 110h-110l7 257h286v-51z" />
    <glyph glyph-name="six.sc" horiz-adv-x="452" 
d="M297 517l-130 -199c20 7 41 11 63 11c69 0 127 -31 158 -81c15 -25 23 -54 23 -85c0 -64 -34 -118 -90 -147c-29 -15 -61 -22 -96 -22c-71 0 -130 31 -162 83c-17 25 -25 54 -25 85c0 35 12 72 36 109l157 246h66zM225 281c-75 0 -130 -50 -130 -119
c0 -68 55 -118 130 -118s130 50 130 118c0 69 -55 119 -130 119z" />
    <glyph glyph-name="seven.sc" horiz-adv-x="436" 
d="M398 474l-240 -474h-64l240 466h-296v51h360v-43z" />
    <glyph glyph-name="eight.sc" horiz-adv-x="496" 
d="M248 522c103 0 182 -54 182 -139c0 -57 -32 -98 -84 -121c59 -23 96 -64 96 -125c0 -89 -83 -144 -194 -144s-194 55 -194 144c0 61 37 102 96 125c-51 23 -83 62 -83 121c0 87 78 139 181 139zM248 473c-71 0 -123 -34 -123 -93c0 -61 51 -96 123 -96s124 35 124 96
c0 59 -53 93 -124 93zM248 239c-77 0 -136 -37 -136 -98c0 -63 57 -98 136 -98s136 35 136 98c0 61 -59 98 -136 98z" />
    <glyph glyph-name="nine.sc" horiz-adv-x="453" 
d="M156 0l130 198c-19 -7 -41 -10 -64 -10c-69 0 -127 32 -158 82c-15 25 -23 53 -23 84c0 64 35 118 92 147c28 15 60 22 95 22c71 0 130 -31 163 -82c16 -26 24 -55 24 -86c0 -35 -12 -72 -36 -109l-157 -246h-66zM228 236c75 0 130 50 130 118c0 69 -55 119 -130 119
s-130 -50 -130 -119c0 -68 55 -118 130 -118z" />
    <glyph glyph-name="question.sc" horiz-adv-x="380" 
d="M118 169v115h21c88 0 141 35 141 94c0 56 -55 92 -138 92c-5 0 -21 -1 -49 -3l-4 53c21 3 41 4 58 4c115 0 191 -57 191 -142c0 -81 -62 -134 -169 -145l-2 -68h-49zM143 78c23 0 42 -19 42 -42s-19 -43 -42 -43s-43 20 -43 43s20 42 43 42z" />
    <glyph glyph-name="at.sc" horiz-adv-x="744" 
d="M508 402v-174c0 -47 15 -71 45 -71c43 0 72 45 72 118c0 96 -47 171 -124 211c-39 20 -82 30 -129 30c-95 0 -176 -47 -220 -124c-22 -39 -33 -82 -33 -129c0 -96 47 -177 124 -221c39 -23 82 -34 129 -34c57 0 108 16 153 49l26 -32c-51 -39 -111 -58 -179 -58
c-112 0 -208 55 -260 146c-26 45 -39 95 -39 150c0 109 55 203 147 255c45 26 96 39 152 39c113 0 208 -49 260 -135c26 -43 39 -92 39 -147c0 -91 -48 -158 -120 -158c-43 0 -71 19 -82 58c-25 -37 -61 -55 -107 -55c-80 0 -139 62 -139 143c0 83 58 144 138 144
c45 0 81 -21 104 -56v51h43zM367 366c-57 0 -99 -44 -99 -103s42 -102 99 -102s99 43 99 102s-42 103 -99 103z" />
    <glyph glyph-name="bracketleft.sc" horiz-adv-x="311" 
d="M270 -49h-169v615h169v-49h-115v-518h115v-48z" />
    <glyph glyph-name="backslash.sc" horiz-adv-x="406" 
d="M41 517h61l264 -517h-62z" />
    <glyph glyph-name="bracketright.sc" horiz-adv-x="311" 
d="M41 566h169v-615h-169v49h115v518h-115v48z" />
    <glyph glyph-name="a.sc" horiz-adv-x="563" 
d="M546 0h-60l-64 144h-283l-63 -144h-59l231 517h67zM162 196h237l-118 267z" />
    <glyph glyph-name="b.sc" horiz-adv-x="587" 
d="M101 517h218c123 0 197 -44 197 -136c0 -56 -33 -97 -88 -116c60 -17 98 -62 98 -123c0 -95 -73 -142 -198 -142h-227v517zM158 466v-178h160c93 0 139 30 139 89s-47 89 -140 89h-159zM158 238v-188h168c95 0 142 32 142 95c0 65 -51 93 -142 93h-168z" />
    <glyph glyph-name="c.sc" horiz-adv-x="595" 
d="M326 523c92 0 173 -42 214 -111l-47 -29c-33 53 -96 86 -167 86c-77 0 -143 -37 -179 -101c-18 -32 -27 -68 -27 -109c0 -84 38 -149 102 -184c31 -18 66 -27 104 -27c71 0 132 31 167 86l46 -33c-44 -68 -122 -108 -213 -108c-100 0 -184 48 -230 129
c-23 40 -35 86 -35 137c0 101 49 186 130 231c40 22 85 33 135 33z" />
    <glyph glyph-name="d.sc" horiz-adv-x="635" 
d="M101 517h202c107 0 192 -44 237 -123c23 -39 34 -85 34 -136c0 -103 -47 -183 -129 -226c-41 -21 -89 -32 -142 -32h-202v517zM158 464v-411h145c132 0 213 81 213 205s-81 206 -213 206h-145z" />
    <glyph glyph-name="e.sc" horiz-adv-x="566" 
d="M485 0h-384v517h382v-52h-325v-179h315v-52h-315v-182h327v-52z" />
    <glyph glyph-name="f.sc" horiz-adv-x="540" 
d="M467 232h-309v-232h-57v517h378v-52h-321v-181h309v-52z" />
    <glyph glyph-name="g.sc" horiz-adv-x="635" 
d="M327 523c80 0 151 -33 199 -86l-41 -40c-39 45 -95 72 -159 72c-77 0 -143 -37 -179 -101c-19 -32 -28 -68 -28 -109c0 -83 39 -150 102 -185c31 -18 66 -27 104 -27c109 0 182 68 190 179h-171v48h229c1 -4 1 -10 1 -18c0 -101 -45 -185 -121 -229
c-38 -22 -81 -33 -128 -33c-95 0 -180 46 -228 126c-24 40 -36 86 -36 139c0 101 50 186 131 231c40 22 85 33 135 33z" />
    <glyph glyph-name="h.sc" horiz-adv-x="653" 
d="M158 286h338v231h56v-517h-56v234h-338v-234h-57v517h57v-231z" />
    <glyph glyph-name="i.sc" horiz-adv-x="259" 
d="M158 0h-57v517h57v-517z" />
    <glyph glyph-name="j.sc" horiz-adv-x="478" 
d="M382 517v-329c0 -123 -79 -194 -194 -194c-75 0 -130 28 -166 65l35 41c29 -31 74 -52 130 -52c84 0 138 52 138 145v324h57z" />
    <glyph glyph-name="k.sc" horiz-adv-x="566" 
d="M158 286h77l229 231h72l-259 -255l275 -262h-75l-243 234h-76v-234h-57v517h57v-231z" />
    <glyph glyph-name="l.sc" horiz-adv-x="500" 
d="M480 0h-379v517h57v-464h322v-53z" />
    <glyph glyph-name="m.sc" horiz-adv-x="772" 
d="M670 0h-56v446l-199 -386h-58l-199 384v-444h-57v517h82l203 -392l202 392h82v-517z" />
    <glyph glyph-name="n.sc" horiz-adv-x="659" 
d="M557 0h-52l-347 422v-422h-57v517h52l348 -423v423h56v-517z" />
    <glyph glyph-name="o.sc" horiz-adv-x="653" 
d="M327 523c100 0 184 -48 231 -128c23 -40 35 -85 35 -136c0 -103 -50 -187 -130 -232c-41 -23 -86 -34 -136 -34c-100 0 -185 48 -231 129c-23 40 -35 86 -35 137c0 101 49 185 130 230c41 23 86 34 136 34zM327 469c-77 0 -144 -37 -180 -101c-18 -32 -27 -68 -27 -109
c0 -83 38 -149 102 -184c31 -18 66 -27 105 -27c77 0 144 37 180 101c18 32 27 69 27 110c0 81 -38 148 -101 184c-32 17 -67 26 -106 26z" />
    <glyph glyph-name="p.sc" horiz-adv-x="560" 
d="M158 203v-203h-57v517h210c123 0 197 -58 197 -157s-74 -157 -197 -157h-153zM158 465v-210h151c89 0 141 37 141 105s-52 105 -141 105h-151z" />
    <glyph glyph-name="q.sc" horiz-adv-x="653" 
d="M327 523c100 0 184 -48 231 -128c23 -40 35 -85 35 -136c0 -62 -18 -117 -55 -164l75 -95h-67l-45 56c-47 -40 -107 -63 -174 -63c-100 0 -185 48 -231 129c-23 40 -35 86 -35 137c0 101 49 185 130 230c41 23 86 34 136 34zM408 257l94 -117c21 35 32 75 32 119
c0 81 -38 148 -101 184c-32 17 -67 26 -106 26c-77 0 -144 -37 -180 -101c-18 -32 -27 -68 -27 -109c0 -83 38 -149 102 -184c31 -18 66 -27 105 -27c53 0 103 18 140 51l-127 158h68z" />
    <glyph glyph-name="r.sc" horiz-adv-x="562" 
d="M101 517h212c121 0 192 -53 192 -148c0 -91 -74 -146 -191 -146h-10l203 -223h-71l-199 223h-79v-223h-57v517zM158 464v-192h154c87 0 135 34 135 97s-50 95 -135 95h-154z" />
    <glyph glyph-name="s.sc" horiz-adv-x="558" 
d="M483 466l-27 -46c-45 29 -109 50 -174 50c-87 0 -146 -35 -146 -94c0 -49 41 -78 134 -87l58 -7c113 -13 169 -58 169 -133c0 -101 -92 -155 -219 -155c-79 0 -166 27 -217 64l29 45c44 -31 120 -57 188 -57c95 0 160 34 160 97c0 52 -45 76 -137 87l-59 6
c-108 12 -166 58 -166 135c0 93 86 152 206 152c76 0 143 -19 201 -57z" />
    <glyph glyph-name="t.sc" horiz-adv-x="489" 
d="M468 464h-195v-464h-57v464h-196v53h448v-53z" />
    <glyph glyph-name="u.sc" horiz-adv-x="626" 
d="M535 517v-314c0 -133 -91 -209 -222 -209s-222 76 -222 209v314h57v-311c0 -103 66 -158 165 -158s166 55 166 158v311h56z" />
    <glyph glyph-name="v.sc" horiz-adv-x="554" 
d="M311 0h-68l-226 517h60l201 -463l201 463h58z" />
    <glyph glyph-name="w.sc" horiz-adv-x="868" 
d="M661 0h-68l-159 444l-159 -444h-67l-181 517h59l156 -457l162 457h62l161 -457l156 457h58z" />
    <glyph glyph-name="x.sc" horiz-adv-x="545" 
d="M309 264l209 -264h-66l-180 225l-179 -225h-66l209 264l-199 253h66l170 -214l170 214h66z" />
    <glyph glyph-name="y.sc" horiz-adv-x="506" 
d="M282 215v-215h-56v216l-221 301h67l182 -246l182 246h65z" />
    <glyph glyph-name="z.sc" horiz-adv-x="551" 
d="M489 473l-353 -421h354v-52h-429v44l352 421h-346v52h422v-44z" />
    <glyph glyph-name="braceleft.sc" horiz-adv-x="346" 
d="M306 518h-27c-51 0 -82 -29 -79 -89l3 -53c4 -63 -23 -102 -75 -117c54 -15 79 -55 75 -118l-3 -52c-3 -60 27 -90 79 -90h27v-48h-30c-85 0 -134 50 -129 141l3 53c4 61 -30 90 -87 90v47c57 0 91 30 87 91l-3 52c-5 91 42 141 129 141h30v-48z" />
    <glyph glyph-name="braceright.sc" horiz-adv-x="346" 
d="M41 518v48h29c87 0 135 -50 130 -141l-3 -52c-4 -61 30 -91 86 -91v-47c-56 0 -90 -30 -86 -90l3 -53c5 -91 -45 -141 -130 -141h-29v48h26c52 0 83 30 79 90l-3 52c-4 63 21 103 76 118c-55 15 -80 54 -76 117l3 53c4 60 -27 89 -79 89h-26z" />
    <glyph glyph-name="exclamdown.sc" horiz-adv-x="260" 
d="M130 439c-23 0 -42 19 -42 42s19 43 42 43s43 -20 43 -43s-20 -42 -43 -42zM106 346h48l8 -346h-63z" />
    <glyph glyph-name="cent.sc" horiz-adv-x="600" 
d="M342 516v-78c51 -3 96 -23 127 -58l-35 -32c-26 25 -57 39 -92 42v-264c37 4 68 18 93 42l34 -32c-31 -35 -76 -55 -127 -58v-78h-46v80c-96 13 -160 86 -160 178c0 93 64 165 160 178v80h46zM188 258c0 -67 44 -117 108 -129v259c-64 -13 -108 -63 -108 -130z" />
    <glyph glyph-name="sterling.sc" horiz-adv-x="600" 
d="M492 0h-387v51h69v185h-69v45h69v59c0 116 74 182 175 182c57 0 107 -22 139 -63l-40 -35c-24 31 -57 46 -99 46c-72 0 -121 -46 -121 -133v-56h202v-45h-202v-185h264v-51z" />
    <glyph glyph-name="currency.sc" horiz-adv-x="600" 
d="M146 440l55 -55c28 22 61 33 99 33c37 0 71 -11 100 -33l55 55l30 -31l-54 -54c22 -27 33 -60 33 -97s-11 -69 -33 -97l54 -54l-30 -30l-55 54c-29 -22 -63 -33 -100 -33s-71 11 -100 33l-54 -54l-31 30l55 54c-22 28 -33 60 -33 97s11 69 33 97l-55 54zM300 140
c68 0 122 53 122 118s-54 118 -122 118c-67 0 -121 -53 -121 -118s54 -118 121 -118z" />
    <glyph glyph-name="yen.sc" horiz-adv-x="600" 
d="M481 122h-152v-122h-55v122h-151v39h151v75h-151v39h130l-177 242h64l162 -220l160 220h63l-176 -242h132v-39h-152v-75h152v-39z" />
    <glyph glyph-name="section.sc" horiz-adv-x="517" 
d="M255 -109c-73 0 -147 24 -194 57l27 43c40 -29 102 -52 167 -52c83 0 139 28 139 80c0 39 -41 63 -122 72l-52 5c-92 9 -148 48 -148 115c0 40 22 73 61 93c-36 20 -54 50 -54 89c0 79 77 129 184 129c67 0 126 -17 177 -51l-24 -43c-40 27 -95 46 -152 46
c-76 0 -130 -29 -130 -77c0 -40 40 -64 121 -73l50 -5c89 -8 151 -47 151 -112c0 -41 -21 -73 -62 -96c37 -21 55 -50 55 -86c0 -88 -82 -134 -194 -134zM344 130c35 12 57 37 57 70c0 40 -41 64 -122 72c-48 5 -72 8 -96 13c-36 -13 -56 -37 -56 -69c0 -41 42 -64 121 -72
c39 -3 69 -7 96 -14z" />
    <glyph glyph-name="copyright.sc" horiz-adv-x="738" 
d="M369 553c107 0 203 -57 256 -146c27 -45 40 -94 40 -147c0 -105 -57 -201 -148 -253c-45 -27 -95 -40 -148 -40c-108 0 -204 57 -256 147c-27 45 -40 93 -40 146c0 107 56 201 147 254c45 26 95 39 149 39zM369 508c-91 0 -172 -47 -216 -123c-23 -38 -34 -80 -34 -125
c0 -89 48 -170 125 -214c38 -23 80 -34 125 -34c89 0 171 48 216 124c22 38 33 79 33 124c0 91 -48 171 -124 215c-39 22 -80 33 -125 33zM504 347l-39 -22c-19 31 -52 48 -89 48c-61 0 -109 -46 -109 -113c1 -68 48 -112 109 -112c37 0 70 17 90 48l36 -26
c-27 -40 -73 -64 -126 -64c-59 0 -107 27 -134 74c-14 23 -21 50 -21 80c0 91 66 155 155 155c55 0 103 -27 128 -68z" />
    <glyph glyph-name="ordfeminine.sc" horiz-adv-x="423" 
d="M399 131h-50l-42 105h-192l-42 -105h-49l160 386h56zM133 279h156l-78 194z" />
    <glyph glyph-name="degree.sc" horiz-adv-x="308" 
d="M154 273c-47 0 -89 24 -112 63c-12 19 -18 40 -18 63c0 45 25 86 65 109c20 11 42 17 65 17c47 0 88 -24 112 -63c11 -19 17 -40 17 -63c0 -45 -25 -86 -64 -109c-20 -11 -42 -17 -65 -17zM154 315c47 0 85 37 85 84c0 45 -38 83 -85 83s-86 -38 -86 -83
c0 -47 39 -84 86 -84z" />
    <glyph glyph-name="ordmasculine.sc" horiz-adv-x="488" 
d="M244 521c75 0 137 -36 172 -95c17 -30 26 -64 26 -102c0 -76 -37 -138 -97 -172c-30 -17 -64 -26 -101 -26c-75 0 -137 36 -172 96c-17 30 -26 64 -26 102c0 76 37 138 97 172c30 17 64 25 101 25zM244 476c-56 0 -103 -26 -130 -72c-13 -23 -20 -50 -20 -80
c0 -60 29 -107 74 -133c23 -13 48 -20 76 -20c87 0 150 64 150 153s-63 152 -150 152z" />
    <glyph glyph-name="questiondown.sc" horiz-adv-x="380" 
d="M238 439c-23 0 -43 19 -43 42s20 43 43 43s42 -20 42 -43s-19 -42 -42 -42zM262 348v-115h-21c-88 0 -141 -35 -141 -94c0 -56 55 -92 139 -92c6 0 22 1 48 3l4 -53c-14 -3 -33 -4 -57 -4c-115 0 -192 57 -192 142c0 81 62 134 169 145l3 68h48z" />
    <glyph glyph-name="germandbls.sc" horiz-adv-x="1116" 
d="M483 466l-27 -46c-45 29 -109 50 -174 50c-87 0 -146 -35 -146 -94c0 -49 41 -78 134 -87l58 -7c113 -13 169 -58 169 -133c0 -101 -92 -155 -219 -155c-79 0 -166 27 -217 64l29 45c44 -31 120 -57 188 -57c95 0 160 34 160 97c0 52 -45 76 -137 87l-59 6
c-108 12 -166 58 -166 135c0 93 86 152 206 152c76 0 143 -19 201 -57zM1041 466l-27 -46c-45 29 -109 50 -174 50c-87 0 -146 -35 -146 -94c0 -49 41 -78 134 -87l58 -7c113 -13 169 -58 169 -133c0 -101 -92 -155 -219 -155c-79 0 -166 27 -217 64l29 45
c44 -31 120 -57 188 -57c95 0 160 34 160 97c0 52 -45 76 -137 87l-59 6c-108 12 -166 58 -166 135c0 93 86 152 206 152c76 0 143 -19 201 -57z" />
    <glyph glyph-name="agrave.sc" horiz-adv-x="563" 
d="M153 737h72l110 -150h-57zM546 0h-60l-64 144h-283l-63 -144h-59l231 517h67zM162 196h237l-118 267z" />
    <glyph glyph-name="aacute.sc" horiz-adv-x="563" 
d="M223 587l110 150h72l-126 -150h-56zM546 0h-60l-64 144h-283l-63 -144h-59l231 517h67zM162 196h237l-118 267z" />
    <glyph glyph-name="acircumflex.sc" horiz-adv-x="563" 
d="M382 590l-100 103l-100 -103h-62l124 141h75l124 -141h-61zM546 0h-60l-64 144h-283l-63 -144h-59l231 517h67zM162 196h237l-118 267z" />
    <glyph glyph-name="atilde.sc" horiz-adv-x="563" 
d="M147 619l-30 36c29 37 59 55 103 55c32 0 50 -8 79 -24c21 -13 35 -19 55 -19c28 0 49 13 73 41l30 -36c-29 -37 -59 -55 -103 -55c-32 0 -51 9 -78 25c-21 13 -36 19 -56 19c-28 0 -48 -13 -73 -42zM546 0h-60l-64 144h-283l-63 -144h-59l231 517h67zM162 196h237
l-118 267z" />
    <glyph glyph-name="adieresis.sc" horiz-adv-x="563" 
d="M179 700c23 0 41 -18 41 -41s-18 -41 -41 -41s-40 18 -40 41s17 41 40 41zM384 700c23 0 41 -18 41 -41s-18 -41 -41 -41s-41 18 -41 41s18 41 41 41zM546 0h-60l-64 144h-283l-63 -144h-59l231 517h67zM162 196h237l-118 267z" />
    <glyph glyph-name="aring.sc" horiz-adv-x="563" 
d="M282 579c-59 0 -108 48 -108 107c0 57 49 106 108 106s107 -47 107 -106s-48 -107 -107 -107zM282 616c39 0 69 30 69 70c0 39 -30 69 -69 69c-37 0 -69 -30 -69 -69c0 -40 30 -70 69 -70zM546 0h-60l-64 144h-283l-63 -144h-59l231 517h67zM162 196h237l-118 267z" />
    <glyph glyph-name="ae.sc" horiz-adv-x="893" 
d="M812 0h-384v138h-241l-105 -138h-68l396 517h400v-52h-325v-179h315v-52h-315v-182h327v-52zM428 190v264l-201 -264h201z" />
    <glyph glyph-name="ccedilla.sc" horiz-adv-x="595" 
d="M326 523c92 0 173 -42 214 -111l-47 -29c-33 53 -96 86 -167 86c-77 0 -143 -37 -179 -101c-18 -32 -27 -68 -27 -109c0 -84 38 -149 102 -184c31 -18 66 -27 104 -27c71 0 132 31 167 86l46 -33c-43 -64 -114 -103 -198 -107l-49 -156h-59l51 158
c-87 12 -156 62 -194 138c-19 37 -29 79 -29 125c0 101 49 186 130 231c40 22 85 33 135 33z" />
    <glyph glyph-name="egrave.sc" horiz-adv-x="566" 
d="M163 737h72l110 -150h-57zM485 0h-384v517h382v-52h-325v-179h315v-52h-315v-182h327v-52z" />
    <glyph glyph-name="eacute.sc" horiz-adv-x="566" 
d="M233 587l110 150h72l-126 -150h-56zM485 0h-384v517h382v-52h-325v-179h315v-52h-315v-182h327v-52z" />
    <glyph glyph-name="ecircumflex.sc" horiz-adv-x="566" 
d="M392 590l-100 103l-100 -103h-62l124 141h75l124 -141h-61zM485 0h-384v517h382v-52h-325v-179h315v-52h-315v-182h327v-52z" />
    <glyph glyph-name="edieresis.sc" horiz-adv-x="566" 
d="M189 700c23 0 41 -18 41 -41s-18 -41 -41 -41s-40 18 -40 41s17 41 40 41zM394 700c23 0 41 -18 41 -41s-18 -41 -41 -41s-41 18 -41 41s18 41 41 41zM485 0h-384v517h382v-52h-325v-179h315v-52h-315v-182h327v-52z" />
    <glyph glyph-name="igrave.sc" horiz-adv-x="259" 
d="M1 737h72l110 -150h-57zM158 0h-57v517h57v-517z" />
    <glyph glyph-name="iacute.sc" horiz-adv-x="259" 
d="M71 587l110 150h72l-126 -150h-56zM158 0h-57v517h57v-517z" />
    <glyph glyph-name="icircumflex.sc" horiz-adv-x="259" 
d="M230 590l-100 103l-100 -103h-62l124 141h75l124 -141h-61zM158 0h-57v517h57v-517z" />
    <glyph glyph-name="idieresis.sc" horiz-adv-x="259" 
d="M27 700c23 0 41 -18 41 -41s-18 -41 -41 -41s-41 18 -41 41s18 41 41 41zM232 700c23 0 41 -18 41 -41s-18 -41 -41 -41s-41 18 -41 41s18 41 41 41zM158 0h-57v517h57v-517z" />
    <glyph glyph-name="eth.sc" horiz-adv-x="711" 
d="M177 517h202c107 0 192 -44 237 -123c23 -39 34 -85 34 -136c0 -103 -47 -183 -129 -226c-41 -21 -89 -32 -142 -32h-202v238h-116v51h116v228zM398 238h-164v-185h145c132 0 213 81 213 205s-81 206 -213 206h-145v-175h164v-51z" />
    <glyph glyph-name="ntilde.sc" horiz-adv-x="659" 
d="M193 619l-30 36c29 37 59 55 103 55c32 0 50 -8 79 -24c21 -13 35 -19 55 -19c28 0 49 13 73 41l30 -36c-29 -37 -59 -55 -103 -55c-32 0 -51 9 -78 25c-21 13 -36 19 -56 19c-28 0 -48 -13 -73 -42zM557 0h-52l-347 422v-422h-57v517h52l348 -423v423h56v-517z" />
    <glyph glyph-name="ograve.sc" horiz-adv-x="653" 
d="M198 737h72l110 -150h-57zM327 523c100 0 184 -48 231 -128c23 -40 35 -85 35 -136c0 -103 -50 -187 -130 -232c-41 -23 -86 -34 -136 -34c-100 0 -185 48 -231 129c-23 40 -35 86 -35 137c0 101 49 185 130 230c41 23 86 34 136 34zM327 469c-77 0 -144 -37 -180 -101
c-18 -32 -27 -68 -27 -109c0 -83 38 -149 102 -184c31 -18 66 -27 105 -27c77 0 144 37 180 101c18 32 27 69 27 110c0 81 -38 148 -101 184c-32 17 -67 26 -106 26z" />
    <glyph glyph-name="oacute.sc" horiz-adv-x="653" 
d="M268 587l110 150h72l-126 -150h-56zM327 523c100 0 184 -48 231 -128c23 -40 35 -85 35 -136c0 -103 -50 -187 -130 -232c-41 -23 -86 -34 -136 -34c-100 0 -185 48 -231 129c-23 40 -35 86 -35 137c0 101 49 185 130 230c41 23 86 34 136 34zM327 469
c-77 0 -144 -37 -180 -101c-18 -32 -27 -68 -27 -109c0 -83 38 -149 102 -184c31 -18 66 -27 105 -27c77 0 144 37 180 101c18 32 27 69 27 110c0 81 -38 148 -101 184c-32 17 -67 26 -106 26z" />
    <glyph glyph-name="ocircumflex.sc" horiz-adv-x="653" 
d="M427 590l-100 103l-100 -103h-62l124 141h75l124 -141h-61zM327 523c100 0 184 -48 231 -128c23 -40 35 -85 35 -136c0 -103 -50 -187 -130 -232c-41 -23 -86 -34 -136 -34c-100 0 -185 48 -231 129c-23 40 -35 86 -35 137c0 101 49 185 130 230c41 23 86 34 136 34z
M327 469c-77 0 -144 -37 -180 -101c-18 -32 -27 -68 -27 -109c0 -83 38 -149 102 -184c31 -18 66 -27 105 -27c77 0 144 37 180 101c18 32 27 69 27 110c0 81 -38 148 -101 184c-32 17 -67 26 -106 26z" />
    <glyph glyph-name="otilde.sc" horiz-adv-x="653" 
d="M192 619l-30 36c29 37 59 55 103 55c32 0 50 -8 79 -24c21 -13 35 -19 55 -19c28 0 49 13 73 41l30 -36c-29 -37 -59 -55 -103 -55c-32 0 -51 9 -78 25c-21 13 -36 19 -56 19c-28 0 -48 -13 -73 -42zM327 523c100 0 184 -48 231 -128c23 -40 35 -85 35 -136
c0 -103 -50 -187 -130 -232c-41 -23 -86 -34 -136 -34c-100 0 -185 48 -231 129c-23 40 -35 86 -35 137c0 101 49 185 130 230c41 23 86 34 136 34zM327 469c-77 0 -144 -37 -180 -101c-18 -32 -27 -68 -27 -109c0 -83 38 -149 102 -184c31 -18 66 -27 105 -27
c77 0 144 37 180 101c18 32 27 69 27 110c0 81 -38 148 -101 184c-32 17 -67 26 -106 26z" />
    <glyph glyph-name="odieresis.sc" horiz-adv-x="653" 
d="M224 700c23 0 41 -18 41 -41s-18 -41 -41 -41s-40 18 -40 41s17 41 40 41zM429 700c23 0 41 -18 41 -41s-18 -41 -41 -41s-41 18 -41 41s18 41 41 41zM327 523c100 0 184 -48 231 -128c23 -40 35 -85 35 -136c0 -103 -50 -187 -130 -232c-41 -23 -86 -34 -136 -34
c-100 0 -185 48 -231 129c-23 40 -35 86 -35 137c0 101 49 185 130 230c41 23 86 34 136 34zM327 469c-77 0 -144 -37 -180 -101c-18 -32 -27 -68 -27 -109c0 -83 38 -149 102 -184c31 -18 66 -27 105 -27c77 0 144 37 180 101c18 32 27 69 27 110c0 81 -38 148 -101 184
c-32 17 -67 26 -106 26z" />
    <glyph glyph-name="oslash.sc" horiz-adv-x="653" 
d="M327 523c65 0 126 -22 171 -59l61 61l34 -35l-60 -60c39 -45 60 -104 60 -171c0 -103 -50 -187 -130 -232c-41 -23 -86 -34 -136 -34c-66 0 -123 20 -172 59l-59 -60l-35 35l59 59c-39 48 -59 106 -59 173c0 101 49 185 130 230c41 23 86 34 136 34zM327 469
c-77 0 -144 -37 -180 -101c-18 -32 -27 -68 -27 -109c0 -51 14 -95 41 -132l298 298c-38 29 -82 44 -132 44zM534 259c0 51 -14 94 -41 131l-298 -298c37 -29 81 -44 132 -44c77 0 144 37 180 101c18 32 27 69 27 110z" />
    <glyph glyph-name="ugrave.sc" horiz-adv-x="626" 
d="M184 737h72l110 -150h-56zM535 517v-314c0 -133 -91 -209 -222 -209s-222 76 -222 209v314h57v-311c0 -103 66 -158 165 -158s166 55 166 158v311h56z" />
    <glyph glyph-name="uacute.sc" horiz-adv-x="626" 
d="M254 587l110 150h72l-125 -150h-57zM535 517v-314c0 -133 -91 -209 -222 -209s-222 76 -222 209v314h57v-311c0 -103 66 -158 165 -158s166 55 166 158v311h56z" />
    <glyph glyph-name="ucircumflex.sc" horiz-adv-x="626" 
d="M413 590l-100 103l-100 -103h-61l124 141h75l124 -141h-62zM535 517v-314c0 -133 -91 -209 -222 -209s-222 76 -222 209v314h57v-311c0 -103 66 -158 165 -158s166 55 166 158v311h56z" />
    <glyph glyph-name="udieresis.sc" horiz-adv-x="626" 
d="M211 700c23 0 41 -18 41 -41s-18 -41 -41 -41s-41 18 -41 41s18 41 41 41zM415 700c23 0 42 -18 42 -41s-19 -41 -42 -41s-40 18 -40 41s17 41 40 41zM535 517v-314c0 -133 -91 -209 -222 -209s-222 76 -222 209v314h57v-311c0 -103 66 -158 165 -158s166 55 166 158v311
h56z" />
    <glyph glyph-name="yacute.sc" horiz-adv-x="506" 
d="M195 587l110 150h72l-125 -150h-57zM282 215v-215h-56v216l-221 301h67l182 -246l182 246h65z" />
    <glyph glyph-name="thorn.sc" horiz-adv-x="555" 
d="M158 420h148c123 0 197 -59 197 -156c0 -99 -74 -157 -197 -157h-148v-107h-57v517h57v-97zM158 368v-209h147c88 0 140 37 140 105c0 67 -52 104 -140 104h-147z" />
    <glyph glyph-name="ydieresis.sc" horiz-adv-x="506" 
d="M152 700c23 0 41 -18 41 -41s-18 -41 -41 -41s-41 18 -41 41s18 41 41 41zM356 700c23 0 42 -18 42 -41s-19 -41 -42 -41s-40 18 -40 41s17 41 40 41zM282 215v-215h-56v216l-221 301h67l182 -246l182 246h65z" />
    <glyph glyph-name="amacron.sc" horiz-adv-x="563" 
d="M136 683h292v-47h-292v47zM546 0h-60l-64 144h-283l-63 -144h-59l231 517h67zM162 196h237l-118 267z" />
    <glyph glyph-name="abreve.sc" horiz-adv-x="563" 
d="M119 724l46 14c19 -67 60 -100 117 -100s99 33 116 100l47 -14c-24 -88 -83 -135 -163 -135s-139 47 -163 135zM546 0h-60l-64 144h-283l-63 -144h-59l231 517h67zM162 196h237l-118 267z" />
    <glyph glyph-name="aogonek.sc" horiz-adv-x="563" 
d="M522 -128l31 -37c-27 -27 -58 -41 -93 -41c-59 0 -100 32 -100 83c0 52 40 90 123 130l-61 137h-283l-63 -144h-59l231 518h67l231 -518h-13c-81 -37 -119 -72 -119 -112c0 -28 20 -45 51 -45c22 0 41 10 57 29zM162 196h237l-118 268z" />
    <glyph glyph-name="cacute.sc" horiz-adv-x="595" 
d="M264 587l110 150h72l-126 -150h-56zM326 523c92 0 173 -42 214 -111l-47 -29c-33 53 -96 86 -167 86c-77 0 -143 -37 -179 -101c-18 -32 -27 -68 -27 -109c0 -84 38 -149 102 -184c31 -18 66 -27 104 -27c71 0 132 31 167 86l46 -33c-44 -68 -122 -108 -213 -108
c-100 0 -184 48 -230 129c-23 40 -35 86 -35 137c0 101 49 186 130 231c40 22 85 33 135 33z" />
    <glyph glyph-name="ccircumflex.sc" horiz-adv-x="595" 
d="M423 590l-100 103l-100 -103h-62l124 141h75l124 -141h-61zM326 523c92 0 173 -42 214 -111l-47 -29c-33 53 -96 86 -167 86c-77 0 -143 -37 -179 -101c-18 -32 -27 -68 -27 -109c0 -84 38 -149 102 -184c31 -18 66 -27 104 -27c71 0 132 31 167 86l46 -33
c-44 -68 -122 -108 -213 -108c-100 0 -184 48 -230 129c-23 40 -35 86 -35 137c0 101 49 186 130 231c40 22 85 33 135 33z" />
    <glyph glyph-name="cdotaccent.sc" horiz-adv-x="595" 
d="M323 700c23 0 41 -18 41 -41s-18 -41 -41 -41s-41 18 -41 41s18 41 41 41zM326 523c92 0 173 -42 214 -111l-47 -29c-33 53 -96 86 -167 86c-77 0 -143 -37 -179 -101c-18 -32 -27 -68 -27 -109c0 -84 38 -149 102 -184c31 -18 66 -27 104 -27c71 0 132 31 167 86l46 -33
c-44 -68 -122 -108 -213 -108c-100 0 -184 48 -230 129c-23 40 -35 86 -35 137c0 101 49 186 130 231c40 22 85 33 135 33z" />
    <glyph glyph-name="ccaron.sc" horiz-adv-x="595" 
d="M223 730l100 -102l100 102h61l-124 -141h-75l-124 141h62zM326 523c92 0 173 -42 214 -111l-47 -29c-33 53 -96 86 -167 86c-77 0 -143 -37 -179 -101c-18 -32 -27 -68 -27 -109c0 -84 38 -149 102 -184c31 -18 66 -27 104 -27c71 0 132 31 167 86l46 -33
c-44 -68 -122 -108 -213 -108c-100 0 -184 48 -230 129c-23 40 -35 86 -35 137c0 101 49 186 130 231c40 22 85 33 135 33z" />
    <glyph glyph-name="dcaron.sc" horiz-adv-x="635" 
d="M208 730l100 -102l100 102h62l-124 -141h-75l-124 141h61zM101 517h202c107 0 192 -44 237 -123c23 -39 34 -85 34 -136c0 -103 -47 -183 -129 -226c-41 -21 -89 -32 -142 -32h-202v517zM158 464v-411h145c132 0 213 81 213 205s-81 206 -213 206h-145z" />
    <glyph glyph-name="dcroat.sc" horiz-adv-x="711" 
d="M177 517h202c107 0 192 -44 237 -123c23 -39 34 -85 34 -136c0 -103 -47 -183 -129 -226c-41 -21 -89 -32 -142 -32h-202v238h-116v51h116v228zM398 238h-164v-185h145c132 0 213 81 213 205s-81 206 -213 206h-145v-175h164v-51z" />
    <glyph glyph-name="emacron.sc" horiz-adv-x="566" 
d="M146 683h292v-47h-292v47zM485 0h-384v517h382v-52h-325v-179h315v-52h-315v-182h327v-52z" />
    <glyph glyph-name="ebreve.sc" horiz-adv-x="566" 
d="M129 724l46 14c19 -67 60 -100 117 -100s99 33 116 100l47 -14c-24 -88 -83 -135 -163 -135s-139 47 -163 135zM485 0h-384v517h382v-52h-325v-179h315v-52h-315v-182h327v-52z" />
    <glyph glyph-name="edotaccent.sc" horiz-adv-x="566" 
d="M292 700c23 0 41 -18 41 -41s-18 -41 -41 -41s-41 18 -41 41s18 41 41 41zM485 0h-384v517h382v-52h-325v-179h315v-52h-315v-182h327v-52z" />
    <glyph glyph-name="eogonek.sc" horiz-adv-x="566" 
d="M485 0h-89c-53 -29 -79 -59 -79 -98c0 -35 29 -59 70 -59c29 0 54 10 77 31l30 -36c-28 -28 -68 -44 -111 -44c-72 0 -121 41 -121 98c0 47 25 79 76 108h-237v517h382v-52h-325v-179h315v-52h-315v-182h327v-52z" />
    <glyph glyph-name="ecaron.sc" horiz-adv-x="566" 
d="M192 730l100 -102l100 102h61l-124 -141h-75l-124 141h62zM485 0h-384v517h382v-52h-325v-179h315v-52h-315v-182h327v-52z" />
    <glyph glyph-name="gcircumflex.sc" horiz-adv-x="635" 
d="M423 590l-100 103l-100 -103h-62l124 141h75l124 -141h-61zM327 523c80 0 151 -33 199 -86l-41 -40c-39 45 -95 72 -159 72c-77 0 -143 -37 -179 -101c-19 -32 -28 -68 -28 -109c0 -83 39 -150 102 -185c31 -18 66 -27 104 -27c109 0 182 68 190 179h-171v48h229
c1 -4 1 -10 1 -18c0 -101 -45 -185 -121 -229c-38 -22 -81 -33 -128 -33c-95 0 -180 46 -228 126c-24 40 -36 86 -36 139c0 101 50 186 131 231c40 22 85 33 135 33z" />
    <glyph glyph-name="gbreve.sc" horiz-adv-x="635" 
d="M160 724l46 14c19 -67 60 -100 117 -100s99 33 116 100l47 -14c-24 -88 -83 -135 -163 -135s-139 47 -163 135zM327 523c80 0 151 -33 199 -86l-41 -40c-39 45 -95 72 -159 72c-77 0 -143 -37 -179 -101c-19 -32 -28 -68 -28 -109c0 -83 39 -150 102 -185
c31 -18 66 -27 104 -27c109 0 182 68 190 179h-171v48h229c1 -4 1 -10 1 -18c0 -101 -45 -185 -121 -229c-38 -22 -81 -33 -128 -33c-95 0 -180 46 -228 126c-24 40 -36 86 -36 139c0 101 50 186 131 231c40 22 85 33 135 33z" />
    <glyph glyph-name="gdotaccent.sc" horiz-adv-x="635" 
d="M323 700c23 0 41 -18 41 -41s-18 -41 -41 -41s-41 18 -41 41s18 41 41 41zM327 523c80 0 151 -33 199 -86l-41 -40c-39 45 -95 72 -159 72c-77 0 -143 -37 -179 -101c-19 -32 -28 -68 -28 -109c0 -83 39 -150 102 -185c31 -18 66 -27 104 -27c109 0 182 68 190 179h-171
v48h229c1 -4 1 -10 1 -18c0 -101 -45 -185 -121 -229c-38 -22 -81 -33 -128 -33c-95 0 -180 46 -228 126c-24 40 -36 86 -36 139c0 101 50 186 131 231c40 22 85 33 135 33z" />
    <glyph glyph-name="uni0123.sc" horiz-adv-x="635" 
d="M327 523c80 0 151 -33 199 -86l-41 -40c-39 45 -95 72 -159 72c-77 0 -143 -37 -179 -101c-19 -32 -28 -68 -28 -109c0 -83 39 -150 102 -185c31 -18 66 -27 104 -27c109 0 182 68 190 179h-171v48h229c1 -4 1 -10 1 -18c0 -101 -45 -185 -121 -229
c-38 -22 -81 -33 -128 -33c-95 0 -180 46 -228 126c-24 40 -36 86 -36 139c0 101 50 186 131 231c40 22 85 33 135 33zM358 -44l-34 -171h-50l22 171h62z" />
    <glyph glyph-name="hcircumflex.sc" horiz-adv-x="653" 
d="M427 590l-100 103l-100 -103h-62l124 141h75l124 -141h-61zM158 286h338v231h56v-517h-56v234h-338v-234h-57v517h57v-231z" />
    <glyph glyph-name="hbar.sc" horiz-adv-x="653" 
d="M617 378h-65v-378h-56v234h-338v-234h-57v378h-65v45h65v94h57v-94h338v94h56v-94h65v-45zM496 286v92h-338v-92h338z" />
    <glyph glyph-name="itilde.sc" horiz-adv-x="259" 
d="M-6 619l-29 36c28 37 59 55 103 55c32 0 50 -8 79 -24c21 -13 35 -19 55 -19c28 0 49 13 73 41l30 -36c-29 -37 -59 -55 -103 -55c-32 0 -51 9 -78 25c-21 13 -36 19 -56 19c-28 0 -47 -13 -74 -42zM158 0h-57v517h57v-517z" />
    <glyph glyph-name="imacron.sc" horiz-adv-x="259" 
d="M-17 683h293v-47h-293v47zM158 0h-57v517h57v-517z" />
    <glyph glyph-name="ibreve.sc" horiz-adv-x="259" 
d="M-33 724l46 14c19 -67 60 -100 117 -100s99 33 116 100l47 -14c-24 -88 -83 -135 -163 -135c-81 0 -140 48 -163 135zM158 0h-57v517h57v-517z" />
    <glyph glyph-name="iogonek.sc" horiz-adv-x="259" 
d="M192 -128l30 -37c-25 -27 -56 -41 -92 -41c-59 0 -100 32 -100 83c0 44 28 83 81 123h-10v517h57v-517c-49 -43 -74 -80 -74 -112c0 -28 20 -45 51 -45c22 0 41 10 57 29z" />
    <glyph glyph-name="Idotaccent.sc" horiz-adv-x="259" 
d="M130 700c23 0 41 -18 41 -41s-18 -41 -41 -41s-41 18 -41 41s18 41 41 41zM158 0h-57v517h57v-517z" />
    <glyph glyph-name="ij.sc" horiz-adv-x="737" 
d="M158 0h-57v517h57v-517zM641 517v-329c0 -123 -79 -194 -194 -194c-75 0 -130 28 -166 65l35 41c29 -31 74 -52 130 -52c84 0 138 52 138 145v324h57z" />
    <glyph glyph-name="jcircumflex.sc" horiz-adv-x="478" 
d="M453 590l-100 103l-100 -103h-61l124 141h75l124 -141h-62zM382 517v-329c0 -123 -79 -194 -194 -194c-75 0 -130 28 -166 65l35 41c29 -31 74 -52 130 -52c84 0 138 52 138 145v324h57z" />
    <glyph glyph-name="uni0137.sc" horiz-adv-x="566" 
d="M158 286h77l229 231h72l-259 -255l275 -262h-75l-243 234h-76v-234h-57v517h57v-231zM327 -44l-34 -171h-50l22 171h62z" />
    <glyph glyph-name="kgreenlandic.sc" horiz-adv-x="566" 
d="M158 286h77l229 231h72l-259 -255l275 -262h-75l-243 234h-76v-234h-57v517h57v-231z" />
    <glyph glyph-name="lacute.sc" horiz-adv-x="500" 
d="M71 587l110 150h72l-126 -150h-56zM480 0h-379v517h57v-464h322v-53z" />
    <glyph glyph-name="uni013C.sc" horiz-adv-x="500" 
d="M480 0h-379v517h57v-464h322v-53zM331 -44l-34 -171h-51l22 171h63z" />
    <glyph glyph-name="lcaron.sc" horiz-adv-x="500" 
d="M480 0h-379v517h57v-464h322v-53zM263 322l6 195h58l-16 -195h-48z" />
    <glyph glyph-name="ldot.sc" horiz-adv-x="500" 
d="M480 0h-379v517h57v-464h322v-53zM372 296c23 0 41 -18 41 -41s-18 -41 -41 -41s-40 18 -40 41s17 41 40 41z" />
    <glyph glyph-name="lslash.sc" horiz-adv-x="545" 
d="M525 0h-379v191l-85 -47v57l85 47v269h57v-238l193 106v-57l-193 -106v-169h322v-53z" />
    <glyph glyph-name="nacute.sc" horiz-adv-x="659" 
d="M269 587l110 150h72l-126 -150h-56zM557 0h-52l-347 422v-422h-57v517h52l348 -423v423h56v-517z" />
    <glyph glyph-name="uni0146.sc" horiz-adv-x="659" 
d="M557 0h-52l-347 422v-422h-57v517h52l348 -423v423h56v-517zM370 -44l-34 -171h-50l22 171h62z" />
    <glyph glyph-name="ncaron.sc" horiz-adv-x="659" 
d="M228 730l100 -102l100 102h61l-124 -141h-75l-124 141h62zM557 0h-52l-347 422v-422h-57v517h52l348 -423v423h56v-517z" />
    <glyph glyph-name="napostrophe.sc" horiz-adv-x="809" 
d="M169 720l-48 -241h-49l31 241h66zM708 0h-52l-348 422v-422h-56v517h52l347 -423v423h57v-517z" />
    <glyph glyph-name="eng.sc" horiz-adv-x="659" 
d="M557 517v-529c0 -88 -45 -141 -126 -141c-37 0 -71 9 -100 26l20 48c23 -14 47 -21 73 -21c51 0 77 32 77 91v14l-343 418v-423h-57v518h52l348 -425v424h56z" />
    <glyph glyph-name="omacron.sc" horiz-adv-x="653" 
d="M181 683h292v-47h-292v47zM327 523c100 0 184 -48 231 -128c23 -40 35 -85 35 -136c0 -103 -50 -187 -130 -232c-41 -23 -86 -34 -136 -34c-100 0 -185 48 -231 129c-23 40 -35 86 -35 137c0 101 49 185 130 230c41 23 86 34 136 34zM327 469c-77 0 -144 -37 -180 -101
c-18 -32 -27 -68 -27 -109c0 -83 38 -149 102 -184c31 -18 66 -27 105 -27c77 0 144 37 180 101c18 32 27 69 27 110c0 81 -38 148 -101 184c-32 17 -67 26 -106 26z" />
    <glyph glyph-name="obreve.sc" horiz-adv-x="653" 
d="M164 724l46 14c19 -67 60 -100 117 -100s99 33 116 100l47 -14c-24 -88 -83 -135 -163 -135s-139 47 -163 135zM327 523c100 0 184 -48 231 -128c23 -40 35 -85 35 -136c0 -103 -50 -187 -130 -232c-41 -23 -86 -34 -136 -34c-100 0 -185 48 -231 129
c-23 40 -35 86 -35 137c0 101 49 185 130 230c41 23 86 34 136 34zM327 469c-77 0 -144 -37 -180 -101c-18 -32 -27 -68 -27 -109c0 -83 38 -149 102 -184c31 -18 66 -27 105 -27c77 0 144 37 180 101c18 32 27 69 27 110c0 81 -38 148 -101 184c-32 17 -67 26 -106 26z" />
    <glyph glyph-name="ohungarumlaut.sc" horiz-adv-x="653" 
d="M204 587l106 150h65l-113 -150h-58zM375 587l112 150h67l-121 -150h-58zM327 523c100 0 184 -48 231 -128c23 -40 35 -85 35 -136c0 -103 -50 -187 -130 -232c-41 -23 -86 -34 -136 -34c-100 0 -185 48 -231 129c-23 40 -35 86 -35 137c0 101 49 185 130 230
c41 23 86 34 136 34zM327 469c-77 0 -144 -37 -180 -101c-18 -32 -27 -68 -27 -109c0 -83 38 -149 102 -184c31 -18 66 -27 105 -27c77 0 144 37 180 101c18 32 27 69 27 110c0 81 -38 148 -101 184c-32 17 -67 26 -106 26z" />
    <glyph glyph-name="oe.sc" horiz-adv-x="900" 
d="M819 0h-481c-109 0 -196 45 -242 123c-23 39 -35 84 -35 135c0 103 48 184 132 227c42 21 90 32 145 32h479v-52h-325v-179h315v-52h-315v-182h327v-52zM120 258c0 -124 82 -205 218 -205h97v411h-97c-136 0 -218 -82 -218 -206z" />
    <glyph glyph-name="racute.sc" horiz-adv-x="562" 
d="M226 587l110 150h72l-125 -150h-57zM101 517h212c121 0 192 -53 192 -148c0 -91 -74 -146 -191 -146h-10l203 -223h-71l-199 223h-79v-223h-57v517zM158 464v-192h154c87 0 135 34 135 97s-50 95 -135 95h-154z" />
    <glyph glyph-name="uni0157.sc" horiz-adv-x="562" 
d="M101 0v517h212c121 0 192 -53 192 -148c0 -91 -74 -146 -191 -146h-10l203 -223h-71l-199 223h-79v-223h-57zM158 272h154c87 0 135 34 135 97s-50 95 -135 95h-154v-192zM246 -215l22 171h62l-34 -171h-50z" />
    <glyph glyph-name="rcaron.sc" horiz-adv-x="562" 
d="M124 730h61l100 -102l100 102h62l-124 -141h-75zM101 0v517h212c121 0 192 -53 192 -148c0 -91 -74 -146 -191 -146h-10l203 -223h-71l-199 223h-79v-223h-57zM158 272h154c87 0 135 34 135 97s-50 95 -135 95h-154v-192z" />
    <glyph glyph-name="sacute.sc" horiz-adv-x="558" 
d="M225 587l110 150h72l-125 -150h-57zM483 466l-27 -46c-45 29 -109 50 -174 50c-87 0 -146 -35 -146 -94c0 -49 41 -78 134 -87l58 -7c113 -13 169 -58 169 -133c0 -101 -92 -155 -219 -155c-79 0 -166 27 -217 64l29 45c44 -31 120 -57 188 -57c95 0 160 34 160 97
c0 52 -45 76 -137 87l-59 6c-108 12 -166 58 -166 135c0 93 86 152 206 152c76 0 143 -19 201 -57z" />
    <glyph glyph-name="scircumflex.sc" horiz-adv-x="558" 
d="M384 590l-100 103l-100 -103h-61l124 141h75l124 -141h-62zM483 466l-27 -46c-45 29 -109 50 -174 50c-87 0 -146 -35 -146 -94c0 -49 41 -78 134 -87l58 -7c113 -13 169 -58 169 -133c0 -101 -92 -155 -219 -155c-79 0 -166 27 -217 64l29 45c44 -31 120 -57 188 -57
c95 0 160 34 160 97c0 52 -45 76 -137 87l-59 6c-108 12 -166 58 -166 135c0 93 86 152 206 152c76 0 143 -19 201 -57z" />
    <glyph glyph-name="scedilla.sc" horiz-adv-x="558" 
d="M483 466l-27 -46c-45 29 -109 50 -174 50c-87 0 -146 -35 -146 -94c0 -49 41 -78 134 -87l58 -7c113 -13 169 -58 169 -133c0 -91 -75 -143 -184 -154l-49 -157h-59l51 157c-73 4 -150 30 -195 63l29 45c44 -31 120 -57 188 -57c95 0 160 34 160 97c0 52 -45 76 -137 87
l-59 6c-108 12 -166 58 -166 135c0 93 86 152 206 152c76 0 143 -19 201 -57z" />
    <glyph glyph-name="scaron.sc" horiz-adv-x="558" 
d="M184 730l100 -102l100 102h62l-124 -141h-75l-124 141h61zM483 466l-27 -46c-45 29 -109 50 -174 50c-87 0 -146 -35 -146 -94c0 -49 41 -78 134 -87l58 -7c113 -13 169 -58 169 -133c0 -101 -92 -155 -219 -155c-79 0 -166 27 -217 64l29 45c44 -31 120 -57 188 -57
c95 0 160 34 160 97c0 52 -45 76 -137 87l-59 6c-108 12 -166 58 -166 135c0 93 86 152 206 152c76 0 143 -19 201 -57z" />
    <glyph glyph-name="uni021B.sc" horiz-adv-x="489" 
d="M468 464h-195v-464h-1l-51 -162h-59l55 162h-1v464h-196v53h448v-53z" />
    <glyph glyph-name="tcaron.sc" horiz-adv-x="489" 
d="M144 730l100 -102l100 102h62l-124 -141h-75l-124 141h61zM468 464h-195v-464h-57v464h-196v53h448v-53z" />
    <glyph glyph-name="tbar.sc" horiz-adv-x="489" 
d="M413 238h-140v-238h-57v238h-140v51h140v175h-196v53h448v-53h-195v-175h140v-51z" />
    <glyph glyph-name="utilde.sc" horiz-adv-x="626" 
d="M178 619l-29 36c28 37 59 55 103 55c32 0 51 -8 79 -24c21 -13 35 -19 54 -19c29 0 49 13 74 41l30 -36c-29 -37 -60 -55 -104 -55c-32 0 -51 9 -78 25c-21 13 -35 19 -55 19c-28 0 -49 -13 -74 -42zM535 517v-314c0 -133 -91 -209 -222 -209s-222 76 -222 209v314h57
v-311c0 -103 66 -158 165 -158s166 55 166 158v311h56z" />
    <glyph glyph-name="umacron.sc" horiz-adv-x="626" 
d="M167 683h293v-47h-293v47zM535 517v-314c0 -133 -91 -209 -222 -209s-222 76 -222 209v314h57v-311c0 -103 66 -158 165 -158s166 55 166 158v311h56z" />
    <glyph glyph-name="ubreve.sc" horiz-adv-x="626" 
d="M151 724l46 14c17 -67 59 -100 116 -100s98 33 117 100l46 -14c-24 -88 -83 -135 -163 -135s-139 48 -162 135zM535 517v-314c0 -133 -91 -209 -222 -209s-222 76 -222 209v314h57v-311c0 -103 66 -158 165 -158s166 55 166 158v311h56z" />
    <glyph glyph-name="uring.sc" horiz-adv-x="626" 
d="M313 579c-59 0 -107 48 -107 107s48 106 107 106s108 -49 108 -106c0 -59 -49 -107 -108 -107zM313 616c39 0 69 30 69 70c0 39 -30 69 -69 69c-37 0 -69 -30 -69 -69c0 -40 30 -70 69 -70zM535 517v-314c0 -133 -91 -209 -222 -209s-222 76 -222 209v314h57v-311
c0 -103 66 -158 165 -158s166 55 166 158v311h56z" />
    <glyph glyph-name="uhungarumlaut.sc" horiz-adv-x="626" 
d="M190 587l107 150h65l-113 -150h-59zM362 587l112 150h67l-122 -150h-57zM535 517v-314c0 -133 -91 -209 -222 -209s-222 76 -222 209v314h57v-311c0 -103 66 -158 165 -158s166 55 166 158v311h56z" />
    <glyph glyph-name="uogonek.sc" horiz-adv-x="626" 
d="M476 -126l30 -36c-28 -28 -68 -44 -111 -44c-72 0 -121 41 -121 98c0 40 22 74 65 103l-23 -1c-139 0 -225 77 -225 209v314h57v-311c0 -103 66 -158 165 -158s166 55 166 158v311h56v-314c0 -84 -36 -144 -96 -179c-73 -37 -110 -78 -110 -122c0 -35 29 -59 70 -59
c29 0 54 10 77 31z" />
    <glyph glyph-name="wcircumflex.sc" horiz-adv-x="868" 
d="M535 590l-100 103l-100 -103h-62l124 141h75l124 -141h-61zM661 0h-68l-159 444l-159 -444h-67l-181 517h59l156 -457l162 457h62l161 -457l156 457h58z" />
    <glyph glyph-name="ycircumflex.sc" horiz-adv-x="506" 
d="M354 590l-100 103l-100 -103h-61l124 141h75l124 -141h-62zM282 215v-215h-56v216l-221 301h67l182 -246l182 246h65z" />
    <glyph glyph-name="zacute.sc" horiz-adv-x="551" 
d="M219 587l110 150h72l-126 -150h-56zM489 473l-353 -421h354v-52h-429v44l352 421h-346v52h422v-44z" />
    <glyph glyph-name="zdotaccent.sc" horiz-adv-x="551" 
d="M278 700c23 0 41 -18 41 -41s-18 -41 -41 -41s-41 18 -41 41s18 41 41 41zM489 473l-353 -421h354v-52h-429v44l352 421h-346v52h422v-44z" />
    <glyph glyph-name="zcaron.sc" horiz-adv-x="551" 
d="M178 730l100 -102l100 102h61l-124 -141h-75l-124 141h62zM489 473l-353 -421h354v-52h-429v44l352 421h-346v52h422v-44z" />
    <glyph glyph-name="longs.sc" horiz-adv-x="558" 
d="M483 466l-27 -46c-45 29 -109 50 -174 50c-87 0 -146 -35 -146 -94c0 -49 41 -78 134 -87l58 -7c113 -13 169 -58 169 -133c0 -101 -92 -155 -219 -155c-79 0 -166 27 -217 64l29 45c44 -31 120 -57 188 -57c95 0 160 34 160 97c0 52 -45 76 -137 87l-59 6
c-108 12 -166 58 -166 135c0 93 86 152 206 152c76 0 143 -19 201 -57z" />
    <glyph glyph-name="florin.sc" horiz-adv-x="600" 
d="M443 245h-118l-13 -130c-8 -77 -44 -121 -111 -121c-33 0 -62 9 -89 27l20 40c19 -13 41 -19 64 -19c39 0 60 25 64 76l13 127h-101v45h105l12 112c7 76 43 120 110 120c33 0 63 -9 90 -26l-21 -40c-21 13 -43 19 -64 19c-37 0 -59 -25 -64 -76l-11 -109h114v-45z" />
    <glyph glyph-name="gcaron.sc" horiz-adv-x="635" 
d="M223 730l100 -102l100 102h61l-124 -141h-75l-124 141h62zM327 523c80 0 151 -33 199 -86l-41 -40c-39 45 -95 72 -159 72c-77 0 -143 -37 -179 -101c-19 -32 -28 -68 -28 -109c0 -83 39 -150 102 -185c31 -18 66 -27 104 -27c109 0 182 68 190 179h-171v48h229
c1 -4 1 -10 1 -18c0 -101 -45 -185 -121 -229c-38 -22 -81 -33 -128 -33c-95 0 -180 46 -228 126c-24 40 -36 86 -36 139c0 101 50 186 131 231c40 22 85 33 135 33z" />
    <glyph glyph-name="aringacute.sc" horiz-adv-x="563" 
d="M223 726l110 150h72l-125 -150h-57zM17 0l219 491c-37 17 -62 54 -62 97c0 59 49 107 108 107s107 -48 107 -107c0 -43 -25 -80 -62 -97l219 -491h-60l-64 144h-283l-63 -144h-59zM213 588c0 -39 30 -70 69 -70s69 31 69 70s-30 70 -69 70s-69 -31 -69 -70zM162 196h237
l-118 268z" />
    <glyph glyph-name="aeacute.sc" horiz-adv-x="893" 
d="M531 587l110 150h72l-126 -150h-56zM812 0h-384v138h-241l-105 -138h-68l396 517h400v-52h-325v-179h315v-52h-315v-182h327v-52zM428 190v264l-201 -264h201z" />
    <glyph glyph-name="oslashacute.sc" horiz-adv-x="653" 
d="M268 587l110 150h72l-126 -150h-56zM327 523c65 0 126 -22 171 -59l61 61l34 -35l-60 -60c39 -45 60 -104 60 -171c0 -103 -50 -187 -130 -232c-41 -23 -86 -34 -136 -34c-66 0 -123 20 -172 59l-59 -60l-35 35l59 59c-39 48 -59 106 -59 173c0 101 49 185 130 230
c41 23 86 34 136 34zM327 469c-77 0 -144 -37 -180 -101c-18 -32 -27 -68 -27 -109c0 -51 14 -95 41 -132l298 298c-38 29 -82 44 -132 44zM534 259c0 51 -14 94 -41 131l-298 -298c37 -29 81 -44 132 -44c77 0 144 37 180 101c18 32 27 69 27 110z" />
    <glyph glyph-name="uni0219.sc" horiz-adv-x="558" 
d="M483 466l-27 -46c-45 29 -109 50 -174 50c-87 0 -146 -35 -146 -94c0 -49 41 -78 134 -87l58 -7c113 -13 169 -58 169 -133c0 -101 -92 -155 -219 -155c-79 0 -166 27 -217 64l29 45c44 -31 120 -57 188 -57c95 0 160 34 160 97c0 52 -45 76 -137 87l-59 6
c-108 12 -166 58 -166 135c0 93 86 152 206 152c76 0 143 -19 201 -57zM326 -44l-34 -171h-50l22 171h62z" />
    <glyph glyph-name="gravecomb.sc" 
d="M-457 737h72l110 -150h-56z" />
    <glyph glyph-name="acutecomb.sc" 
d="M-387 587l110 150h72l-125 -150h-57z" />
    <glyph glyph-name="tildecomb.sc" 
d="M-463 619l-29 36c28 37 59 55 103 55c32 0 51 -8 79 -24c21 -13 35 -19 54 -19c29 0 49 13 74 41l30 -36c-29 -37 -60 -55 -104 -55c-32 0 -51 9 -78 25c-21 13 -35 19 -55 19c-28 0 -49 -13 -74 -42z" />
    <glyph glyph-name="dotbelowcomb.sc" 
d="M-328 -90c23 0 41 -18 41 -41s-18 -41 -41 -41s-40 18 -40 41s17 41 40 41z" />
    <glyph glyph-name="wgrave.sc" horiz-adv-x="868" 
d="M306 737h72l110 -150h-57zM661 0h-68l-159 444l-159 -444h-67l-181 517h59l156 -457l162 457h62l161 -457l156 457h58z" />
    <glyph glyph-name="wacute.sc" horiz-adv-x="868" 
d="M376 587l110 150h72l-126 -150h-56zM661 0h-68l-159 444l-159 -444h-67l-181 517h59l156 -457l162 457h62l161 -457l156 457h58z" />
    <glyph glyph-name="wdieresis.sc" horiz-adv-x="868" 
d="M332 700c23 0 41 -18 41 -41s-18 -41 -41 -41s-40 18 -40 41s17 41 40 41zM537 700c23 0 41 -18 41 -41s-18 -41 -41 -41s-41 18 -41 41s18 41 41 41zM661 0h-68l-159 444l-159 -444h-67l-181 517h59l156 -457l162 457h62l161 -457l156 457h58z" />
    <glyph glyph-name="ygrave.sc" horiz-adv-x="506" 
d="M125 737h72l110 -150h-56zM282 215v-215h-56v216l-221 301h67l182 -246l182 246h65z" />
    <glyph glyph-name="quoteleft.sc" horiz-adv-x="192" 
d="M53 294l44 222h45l-29 -222h-60z" />
    <glyph glyph-name="quoteright.sc" horiz-adv-x="192" 
d="M140 517l-45 -223h-45l29 223h61z" />
    <glyph glyph-name="quotesinglbase.sc" horiz-adv-x="192" 
d="M140 143l-45 -223h-45l29 223h61z" />
    <glyph glyph-name="quotedblleft.sc" horiz-adv-x="332" 
d="M53 294l44 222h45l-29 -222h-60zM193 294l44 222h45l-29 -222h-60z" />
    <glyph glyph-name="quotedblright.sc" horiz-adv-x="332" 
d="M140 517l-45 -223h-45l29 223h61zM280 517l-45 -223h-45l29 223h61z" />
    <glyph glyph-name="quotedblbase.sc" horiz-adv-x="332" 
d="M140 143l-45 -223h-45l29 223h61zM280 143l-45 -223h-45l29 223h61z" />
    <glyph glyph-name="dagger.sc" horiz-adv-x="296" 
d="M128 245v155h-77v41h77v76h41v-76h76v-41h-76v-155h-41z" />
    <glyph glyph-name="daggerdbl.sc" horiz-adv-x="296" 
d="M128 245v65h-77v38h77v65h-77v38h77v66h41v-66h76v-38h-76v-65h76v-38h-76v-65h-41z" />
    <glyph glyph-name="perthousand.sc" horiz-adv-x="1064" 
d="M184 524c77 0 136 -57 136 -132s-59 -131 -136 -131s-135 56 -135 131s58 132 135 132zM231 0h-54l341 517h54zM184 481c-51 0 -89 -38 -89 -89s38 -88 89 -88c52 0 90 37 90 88s-38 89 -90 89zM564 257c77 0 137 -56 137 -131c0 -76 -58 -132 -137 -132
c-76 0 -135 56 -135 132c0 73 59 131 135 131zM879 256c77 0 136 -57 136 -132s-59 -132 -136 -132s-136 57 -136 132s59 132 136 132zM564 214c-51 0 -89 -37 -89 -88c0 -52 38 -89 89 -89c52 0 90 37 90 89c0 51 -38 88 -90 88zM879 213c-51 0 -89 -37 -89 -89
c0 -51 38 -88 89 -88c52 0 90 37 90 88c0 52 -38 89 -90 89z" />
    <glyph glyph-name="minute.sc" horiz-adv-x="204" 
d="M152 517l-51 -232h-51l52 232h50z" />
    <glyph glyph-name="second.sc" horiz-adv-x="323" 
d="M152 517l-51 -232h-51l52 232h50zM270 517l-51 -232h-50l51 232h50z" />
    <glyph glyph-name="fi.sc" horiz-adv-x="799" 
d="M467 232h-309v-232h-57v517h378v-52h-321v-181h309v-52zM697 0h-56v517h56v-517z" />
    <glyph glyph-name="fl.sc" horiz-adv-x="1040" 
d="M467 232h-309v-232h-57v517h378v-52h-321v-181h309v-52zM1019 0h-378v517h56v-464h322v-53z" />
    <glyph glyph-name="longs_t.sc" horiz-adv-x="1047" 
d="M483 466l-27 -46c-45 29 -109 50 -174 50c-87 0 -146 -35 -146 -94c0 -49 41 -78 134 -87l58 -7c113 -13 169 -58 169 -133c0 -101 -92 -155 -219 -155c-79 0 -166 27 -217 64l29 45c44 -31 120 -57 188 -57c95 0 160 34 160 97c0 52 -45 76 -137 87l-59 6
c-108 12 -166 58 -166 135c0 93 86 152 206 152c76 0 143 -19 201 -57zM1026 464h-195v-464h-57v464h-196v53h448v-53z" />
    <glyph glyph-name="i.latn_TRK.sc" horiz-adv-x="259" 
d="M130 700c23 0 41 -18 41 -41s-18 -41 -41 -41s-41 18 -41 41s18 41 41 41zM158 0h-57v517h57v-517z" />
    <glyph glyph-name="j.latn_NLD.sc" horiz-adv-x="478" 
d="M294 587l110 150h72l-125 -150h-57zM382 517v-329c0 -123 -79 -194 -194 -194c-75 0 -130 28 -166 65l35 41c29 -31 74 -52 130 -52c84 0 138 52 138 145v324h57z" />
    <glyph glyph-name="ldot.latn_CAT.sc" horiz-adv-x="500" 
d="M480 0h-379v517h57v-464h322v-53zM372 296c23 0 41 -18 41 -41s-18 -41 -41 -41s-40 18 -40 41s17 41 40 41z" />
    <glyph glyph-name="b.ordn.sc" horiz-adv-x="412" 
d="M66 517h155c88 0 138 -34 138 -102c0 -45 -28 -75 -72 -87c49 -11 80 -43 80 -91c0 -71 -50 -106 -139 -106h-162v386zM113 476v-129h107c61 0 91 22 91 65s-30 64 -91 64h-107zM113 307v-135h113c62 0 93 22 93 67s-31 68 -93 68h-113z" />
    <glyph glyph-name="d.ordn.sc" horiz-adv-x="465" 
d="M66 517h146c128 0 208 -74 208 -193s-80 -193 -208 -193h-146v386zM113 473v-299h98c103 0 160 58 160 150s-57 149 -160 149h-98z" />
    <glyph glyph-name="e.ordn.sc" horiz-adv-x="394" 
d="M338 131h-272v386h271v-43h-224v-127h215v-43h-215v-130h225v-43z" />
    <glyph glyph-name="h.ordn.sc" horiz-adv-x="454" 
d="M113 347h228v170h47v-386h-47v173h-228v-173h-47v386h47v-170z" />
    <glyph glyph-name="l.ordn.sc" horiz-adv-x="359" 
d="M333 131h-267v386h47v-342h220v-44z" />
    <glyph glyph-name="m.ordn.sc" horiz-adv-x="538" 
d="M472 131h-47v326l-131 -281h-50l-131 280v-325h-47v386h67l136 -288l136 288h67v-386z" />
    <glyph glyph-name="r.ordn.sc" horiz-adv-x="398" 
d="M66 517h151c88 0 137 -41 137 -112c0 -68 -51 -110 -136 -110h-2l138 -164h-57l-133 164h-51v-164h-47v386zM113 474v-139h104c57 0 90 25 90 70c0 44 -33 69 -90 69h-104z" />
    <glyph glyph-name="s.ordn.sc" horiz-adv-x="400" 
d="M342 481l-21 -39c-35 24 -75 36 -119 36c-57 0 -98 -25 -98 -68c0 -34 31 -55 94 -62l37 -4c79 -9 119 -42 119 -100c0 -77 -67 -118 -156 -118c-57 0 -116 19 -152 46l23 38c32 -23 78 -41 130 -41c61 0 105 25 105 69c0 37 -29 56 -92 63l-40 4c-78 9 -117 43 -117 102
c0 69 61 114 146 114c53 0 100 -13 141 -40z" />
    <glyph glyph-name="t.ordn.sc" horiz-adv-x="365" 
d="M340 473h-134v-342h-47v342h-134v44h315v-44z" />
    <glyph glyph-name="egrave.ordn.sc" horiz-adv-x="394" 
d="M126 628h52l62 -86h-42zM338 131h-272v386h271v-43h-224v-127h215v-43h-215v-130h225v-43z" />
    <glyph glyph-name="parenleft.case" horiz-adv-x="400" 
d="M338 778l20 -52c-88 -33 -157 -111 -194 -213c-19 -51 -28 -106 -28 -163c0 -113 39 -219 106 -294c33 -37 72 -64 116 -81l-20 -53c-103 37 -185 125 -229 242c-22 58 -33 120 -33 186c0 132 46 253 126 337c39 42 85 72 136 91z" />
    <glyph glyph-name="parenright.case" horiz-adv-x="400" 
d="M62 -77l-20 52c88 33 157 112 194 214c19 51 28 105 28 162c0 115 -39 221 -106 295c-33 37 -72 63 -116 80l20 53c103 -37 185 -125 229 -241c22 -59 33 -121 33 -187c0 -132 -46 -253 -125 -337c-40 -42 -86 -72 -137 -91z" />
    <glyph glyph-name="hyphen.case" horiz-adv-x="418" 
d="M345 324h-271v52h271v-52z" />
    <glyph glyph-name="slash.case" horiz-adv-x="492" 
d="M108 0h-66l342 700h66z" />
    <glyph glyph-name="at.case" horiz-adv-x="990" 
d="M684 543v-242c0 -72 21 -104 64 -104c60 0 102 64 102 169c0 133 -66 241 -174 298c-54 28 -114 42 -181 42c-132 0 -246 -66 -308 -174c-31 -54 -47 -114 -47 -181c0 -135 66 -249 175 -312c54 -31 114 -47 180 -47c81 0 155 24 221 71l27 -37
c-73 -53 -155 -80 -248 -80c-152 0 -282 76 -353 200c-36 61 -54 130 -54 205c0 149 76 277 200 348c62 35 131 53 207 53c153 0 283 -70 354 -187c35 -59 53 -125 53 -199c0 -81 -26 -150 -73 -187c-24 -19 -52 -28 -84 -28c-59 0 -95 32 -107 85c-32 -51 -85 -83 -156 -83
s-132 36 -166 97c-17 30 -26 64 -26 101c0 75 36 138 95 173c29 17 62 26 97 26c68 0 120 -31 153 -82v75h49zM489 503c-87 0 -148 -65 -148 -152s61 -152 148 -152c85 0 148 65 148 152s-63 152 -148 152z" />
    <glyph glyph-name="bracketleft.case" horiz-adv-x="369" 
d="M327 -66h-222v832h222v-53h-164v-726h164v-53z" />
    <glyph glyph-name="backslash.case" horiz-adv-x="413" 
d="M3 700h66l342 -700h-66z" />
    <glyph glyph-name="bracketright.case" horiz-adv-x="369" 
d="M42 766h223v-832h-223v53h164v726h-164v53z" />
    <glyph glyph-name="braceleft.case" horiz-adv-x="420" 
d="M378 713h-33c-72 0 -115 -43 -111 -128l4 -74c5 -85 -32 -141 -101 -161c69 -20 106 -73 101 -160l-4 -75c-4 -85 39 -128 111 -128h33v-53h-33c-112 0 -176 67 -169 187l4 75c4 85 -41 128 -117 128v53c76 0 121 42 117 127l-4 75c-7 120 57 187 169 187h33v-53z" />
    <glyph glyph-name="braceright.case" horiz-adv-x="420" 
d="M42 -13h33c72 0 115 43 111 128l-4 75c-5 87 32 140 101 160c-69 20 -106 76 -101 161l4 74c4 85 -39 128 -111 128h-33v53h33c112 0 176 -67 169 -187l-4 -75c-4 -85 41 -127 117 -127v-53c-76 0 -121 -43 -117 -128l4 -75c7 -120 -57 -187 -169 -187h-33v53z" />
    <glyph glyph-name="exclamdown.case" horiz-adv-x="260" 
d="M130 611c-25 0 -48 23 -48 48s23 48 48 48c27 0 48 -21 48 -48c0 -25 -21 -48 -48 -48zM105 483h51l9 -483h-69z" />
    <glyph glyph-name="periodcentered.case" horiz-adv-x="375" 
d="M188 398c25 0 47 -23 47 -48s-22 -48 -47 -48s-48 23 -48 48c0 27 23 48 48 48z" />
    <glyph glyph-name="questiondown.case" horiz-adv-x="424" 
d="M288 612c-25 0 -48 23 -48 48s23 48 48 48s48 -23 48 -48s-21 -48 -48 -48zM314 483v-155h-24c-119 0 -192 -54 -192 -142c0 -83 76 -136 188 -136c17 0 38 1 62 4l5 -59c-22 -3 -45 -5 -70 -5c-99 0 -176 33 -217 92c-21 29 -31 63 -31 102c0 112 82 185 223 197l4 102
h52z" />
    <glyph glyph-name="gravecomb.case" 
d="M-513 899h72l110 -150h-57z" />
    <glyph glyph-name="acutecomb.case" 
d="M-513 749l110 150h72l-126 -150h-56z" />
    <glyph glyph-name="tildecomb.case" 
d="M-558 784l-34 32c28 37 58 55 103 55c32 0 51 -8 79 -24c21 -13 35 -19 54 -19c27 0 48 12 69 39l35 -33c-29 -37 -60 -55 -104 -55c-32 0 -49 8 -78 24c-21 13 -35 19 -55 19c-27 0 -48 -13 -69 -38z" />
    <glyph glyph-name="dotbelowcomb.case" 
d="M-423 -90c23 0 41 -18 41 -41s-18 -41 -41 -41s-40 18 -40 41s17 41 40 41z" />
    <glyph glyph-name="figuredash.case" horiz-adv-x="600" 
d="M538 324h-475v52h475v-52z" />
    <glyph glyph-name="endash.case" horiz-adv-x="601" 
d="M538 324h-475v52h475v-52z" />
    <glyph glyph-name="emdash.case" horiz-adv-x="813" 
d="M782 324h-750v52h750v-52z" />
    <glyph glyph-name="bullet.case" horiz-adv-x="437" 
d="M219 446c52 0 95 -43 95 -96c0 -52 -43 -95 -95 -95c-53 0 -96 43 -96 95c0 53 43 96 96 96z" />
    <glyph glyph-name="guilsinglleft.case" horiz-adv-x="310" 
d="M228 168h-62l-96 182l96 182h62l-97 -182z" />
    <glyph glyph-name="guilsinglright.case" horiz-adv-x="310" 
d="M82 532h62l96 -182l-96 -182h-62l97 182z" />
    <glyph glyph-name="j.latn_NLD.case" horiz-adv-x="576" 
d="M380 749l110 150h72l-125 -150h-57zM476 700v-449c0 -108 -45 -188 -117 -228c-37 -21 -78 -31 -125 -31c-87 0 -157 31 -211 94l41 42c39 -45 96 -77 169 -77c111 0 182 74 182 206v443h61z" />
    <glyph glyph-name="zero.zero" horiz-adv-x="709" 
d="M355 708c105 0 196 -60 247 -168c25 -54 38 -117 38 -190c0 -144 -54 -256 -141 -314c-43 -29 -91 -44 -144 -44c-107 0 -197 60 -248 169c-25 54 -38 117 -38 189c0 145 54 257 141 315c43 29 92 43 145 43zM355 651c-84 0 -155 -48 -195 -139c-20 -45 -30 -99 -30 -162
c0 -59 10 -113 29 -160l366 365c-40 63 -102 96 -170 96zM579 350c0 61 -10 114 -30 160l-365 -365c41 -63 102 -96 171 -96c83 0 154 49 194 140c20 45 30 99 30 161z" />
    <glyph glyph-name="zero.osf.zero" horiz-adv-x="669" 
d="M335 524c99 0 186 -46 234 -126c24 -41 36 -87 36 -139c0 -105 -51 -189 -133 -233c-41 -23 -87 -34 -137 -34c-100 0 -187 47 -235 128c-24 41 -36 87 -36 139c0 104 51 188 134 232c41 22 87 33 137 33zM335 470c-79 0 -146 -36 -184 -100c-19 -32 -29 -69 -29 -111
c0 -51 14 -94 41 -131l302 302c-37 27 -80 40 -130 40zM547 259c0 53 -16 99 -47 137l-303 -303c39 -31 85 -47 138 -47c79 0 147 36 184 101c19 32 28 69 28 112z" />
    <glyph glyph-name="zero.tf.zero" horiz-adv-x="600" 
d="M301 708c97 0 179 -53 224 -160c22 -54 33 -120 33 -198c0 -160 -48 -267 -125 -319c-39 -26 -83 -39 -132 -39c-99 0 -180 51 -225 158c-23 53 -34 120 -34 200c0 160 49 268 127 320c39 25 83 38 132 38zM301 651c-119 0 -198 -100 -198 -301c0 -56 6 -104 17 -144
l339 339c-35 69 -91 106 -158 106zM498 350c0 55 -6 103 -19 145l-340 -339c35 -72 93 -107 162 -107c117 0 197 100 197 301z" />
    <glyph glyph-name="zero.tosf.zero" horiz-adv-x="600" 
d="M300 523c95 0 178 -45 224 -125c23 -40 34 -86 34 -139c0 -107 -49 -191 -128 -234c-39 -22 -83 -33 -130 -33c-95 0 -177 46 -223 127c-23 41 -35 87 -35 140c0 105 49 188 128 232c39 21 83 32 130 32zM300 471c-73 0 -138 -36 -173 -100c-18 -32 -27 -69 -27 -112
c0 -50 12 -93 37 -130l294 294c-36 32 -80 48 -131 48zM500 259c0 48 -12 91 -36 128l-295 -295c35 -31 79 -47 131 -47c75 0 138 35 174 100c17 32 26 70 26 114z" />
    <glyph glyph-name="zero.sc.zero" horiz-adv-x="572" 
d="M286 -6c-83 0 -154 44 -193 125c-20 40 -30 87 -30 140c0 107 42 190 110 232c34 21 72 31 113 31c83 0 154 -43 194 -123c19 -40 29 -87 29 -140c0 -107 -42 -190 -110 -233c-34 -21 -72 -32 -113 -32zM141 148l265 265c-31 37 -73 57 -120 57c-61 0 -115 -34 -144 -98
c-15 -32 -22 -70 -22 -113c0 -42 7 -79 21 -111zM286 46c63 0 116 35 145 99c15 32 22 70 22 114c0 43 -7 80 -22 113l-266 -266c29 -39 73 -60 121 -60z" />
    <glyph glyph-name="a.ss01" horiz-adv-x="546" 
d="M259 478c125 0 201 -66 201 -193v-285h-57v66c-45 -43 -110 -74 -183 -74c-101 0 -166 58 -166 141s70 138 195 138h154c0 104 -48 156 -151 156c-53 0 -102 -18 -145 -54l-27 43c52 41 112 62 179 62zM231 43c67 0 128 33 172 82v99h-148c-96 0 -140 -36 -140 -91
c0 -52 44 -90 116 -90z" />
    <glyph glyph-name="agrave.ss01" horiz-adv-x="546" 
d="M136 691h72l110 -150h-56zM259 478c125 0 201 -66 201 -193v-285h-57v66c-45 -43 -110 -74 -183 -74c-101 0 -166 58 -166 141s70 138 195 138h154c0 104 -48 156 -151 156c-53 0 -102 -18 -145 -54l-27 43c52 41 112 62 179 62zM231 43c67 0 128 33 172 82v99h-148
c-96 0 -140 -36 -140 -91c0 -52 44 -90 116 -90z" />
    <glyph glyph-name="aacute.ss01" horiz-adv-x="546" 
d="M206 541l110 150h72l-125 -150h-57zM259 478c125 0 201 -66 201 -193v-285h-57v66c-45 -43 -110 -74 -183 -74c-101 0 -166 58 -166 141s70 138 195 138h154c0 104 -48 156 -151 156c-53 0 -102 -18 -145 -54l-27 43c52 41 112 62 179 62zM231 43c67 0 128 33 172 82v99
h-148c-96 0 -140 -36 -140 -91c0 -52 44 -90 116 -90z" />
    <glyph glyph-name="acircumflex.ss01" horiz-adv-x="546" 
d="M365 544l-100 103l-100 -103h-61l124 141h75l124 -141h-62zM259 478c125 0 201 -66 201 -193v-285h-57v66c-45 -43 -110 -74 -183 -74c-101 0 -166 58 -166 141s70 138 195 138h154c0 104 -48 156 -151 156c-53 0 -102 -18 -145 -54l-27 43c52 41 112 62 179 62zM231 43
c67 0 128 33 172 82v99h-148c-96 0 -140 -36 -140 -91c0 -52 44 -90 116 -90z" />
    <glyph glyph-name="atilde.ss01" horiz-adv-x="546" 
d="M135 576l-34 33c28 37 59 55 103 55c32 0 51 -8 79 -24c21 -13 35 -19 54 -19c27 0 48 13 69 38l35 -32c-29 -39 -59 -56 -104 -56c-32 0 -51 9 -78 25c-21 13 -35 19 -55 19c-27 0 -48 -12 -69 -39zM259 478c125 0 201 -66 201 -193v-285h-57v66
c-45 -43 -110 -74 -183 -74c-101 0 -166 58 -166 141s70 138 195 138h154c0 104 -48 156 -151 156c-53 0 -102 -18 -145 -54l-27 43c52 41 112 62 179 62zM231 43c67 0 128 33 172 82v99h-148c-96 0 -140 -36 -140 -91c0 -52 44 -90 116 -90z" />
    <glyph glyph-name="adieresis.ss01" horiz-adv-x="546" 
d="M163 655c23 0 41 -18 41 -41s-18 -41 -41 -41s-41 18 -41 41s18 41 41 41zM367 655c23 0 42 -18 42 -41s-19 -41 -42 -41s-40 18 -40 41s17 41 40 41zM259 478c125 0 201 -66 201 -193v-285h-57v66c-45 -43 -110 -74 -183 -74c-101 0 -166 58 -166 141s70 138 195 138
h154c0 104 -48 156 -151 156c-53 0 -102 -18 -145 -54l-27 43c52 41 112 62 179 62zM231 43c67 0 128 33 172 82v99h-148c-96 0 -140 -36 -140 -91c0 -52 44 -90 116 -90z" />
    <glyph glyph-name="aring.ss01" horiz-adv-x="546" 
d="M265 533c-59 0 -107 48 -107 107s48 106 107 106s108 -49 108 -106c0 -59 -49 -107 -108 -107zM265 570c39 0 69 31 69 70s-30 69 -69 69c-37 0 -69 -30 -69 -69s30 -70 69 -70zM259 478c125 0 201 -66 201 -193v-285h-57v66c-45 -43 -110 -74 -183 -74
c-101 0 -166 58 -166 141s70 138 195 138h154c0 104 -48 156 -151 156c-53 0 -102 -18 -145 -54l-27 43c52 41 112 62 179 62zM231 43c67 0 128 33 172 82v99h-148c-96 0 -140 -36 -140 -91c0 -52 44 -90 116 -90z" />
    <glyph glyph-name="amacron.ss01" horiz-adv-x="546" 
d="M119 637h293v-47h-293v47zM259 478c125 0 201 -66 201 -193v-285h-57v66c-45 -43 -110 -74 -183 -74c-101 0 -166 58 -166 141s70 138 195 138h154c0 104 -48 156 -151 156c-53 0 -102 -18 -145 -54l-27 43c52 41 112 62 179 62zM231 43c67 0 128 33 172 82v99h-148
c-96 0 -140 -36 -140 -91c0 -52 44 -90 116 -90z" />
    <glyph glyph-name="abreve.ss01" horiz-adv-x="546" 
d="M103 678l46 14c17 -67 59 -100 116 -100s98 33 117 100l46 -14c-24 -88 -83 -135 -163 -135s-139 48 -162 135zM259 478c125 0 201 -66 201 -193v-285h-57v66c-45 -43 -110 -74 -183 -74c-101 0 -166 58 -166 141s70 138 195 138h154c0 104 -48 156 -151 156
c-53 0 -102 -18 -145 -54l-27 43c52 41 112 62 179 62zM231 43c67 0 128 33 172 82v99h-148c-96 0 -140 -36 -140 -91c0 -52 44 -90 116 -90z" />
    <glyph glyph-name="aogonek.ss01" horiz-adv-x="546" 
d="M449 -128l31 -37c-27 -27 -58 -41 -93 -41c-59 0 -100 32 -100 83c0 49 39 87 116 126v63c-45 -43 -110 -74 -183 -74c-101 0 -166 58 -166 141s70 138 195 138h154c0 104 -48 156 -151 156c-53 0 -102 -18 -145 -54l-27 43c52 41 112 62 179 62c125 0 201 -66 201 -193
v-285c-81 -37 -119 -72 -119 -112c0 -28 20 -45 51 -45c22 0 41 10 57 29zM231 43c67 0 128 33 172 82v99h-148c-96 0 -140 -36 -140 -91c0 -52 44 -90 116 -90z" />
    <glyph glyph-name="J.ss02" horiz-adv-x="427" 
d="M21 -1l11 58c16 -4 33 -6 52 -6c111 0 182 74 182 206v443h61v-449c0 -108 -45 -188 -117 -228c-37 -21 -78 -31 -125 -31c-21 0 -42 2 -64 7z" />
    <glyph glyph-name="IJ.ss02" horiz-adv-x="697" 
d="M166 0h-61v700h61v-700zM292 -1l10 58c17 -4 35 -6 53 -6c111 0 182 74 182 206v443h61v-449c0 -108 -45 -188 -118 -228c-37 -21 -78 -31 -125 -31c-20 0 -41 2 -63 7z" />
    <glyph glyph-name="Jcircumflex.ss02" horiz-adv-x="427" 
d="M397 752l-100 102l-100 -102h-62l124 141h75l124 -141h-61zM21 -1l11 58c16 -4 33 -6 52 -6c111 0 182 74 182 206v443h61v-449c0 -108 -45 -188 -117 -228c-37 -21 -78 -31 -125 -31c-21 0 -42 2 -64 7z" />
    <glyph glyph-name="j.sc.ss02" horiz-adv-x="351" 
d="M21 -2l8 54c11 -3 24 -4 39 -4c80 0 131 52 131 145v324h56v-329c0 -123 -75 -194 -186 -194c-19 0 -35 1 -48 4z" />
    <glyph glyph-name="ij.sc.ss02" horiz-adv-x="610" 
d="M158 0h-57v517h57v-517zM280 -2l8 54c11 -3 24 -4 39 -4c80 0 131 52 131 145v324h56v-329c0 -123 -75 -194 -186 -194c-19 0 -35 1 -48 4z" />
    <glyph glyph-name="jcircumflex.sc.ss02" horiz-adv-x="351" 
d="M327 590l-100 103l-100 -103h-62l124 141h75l124 -141h-61zM21 -2l8 54c11 -3 24 -4 39 -4c80 0 131 52 131 145v324h56v-329c0 -123 -75 -194 -186 -194c-19 0 -35 1 -48 4z" />
    <glyph glyph-name="j.latn_NLD.sc.ss02" horiz-adv-x="351" 
d="M168 587l110 150h72l-126 -150h-56zM21 -2l8 54c11 -3 24 -4 39 -4c80 0 131 52 131 145v324h56v-329c0 -123 -75 -194 -186 -194c-19 0 -35 1 -48 4z" />
    <glyph glyph-name="j.latn_NLD.case.ss02" horiz-adv-x="427" 
d="M231 749l110 150h72l-125 -150h-57zM21 -1l11 58c16 -4 33 -6 52 -6c111 0 182 74 182 206v443h61v-449c0 -108 -45 -188 -117 -228c-37 -21 -78 -31 -125 -31c-21 0 -42 2 -64 7z" />
    <glyph glyph-name="seven.ss03" horiz-adv-x="547" 
d="M513 654l-137 -276h120v-54h-147l-160 -324h-69l162 325h-203v54h230l133 266h-401v55h472v-46z" />
    <glyph glyph-name="seven.osf.ss03" horiz-adv-x="547" 
d="M509 470l-138 -277h128v-54h-154l-161 -324h-67l164 326h-197v54h224l133 265h-403v55h471v-45z" />
    <glyph glyph-name="seven.tf.ss03" horiz-adv-x="600" 
d="M539 654l-137 -276h120v-54h-147l-160 -324h-69l162 325h-203v54h230l133 266h-401v55h472v-46z" />
    <glyph glyph-name="seven.tosf.ss03" horiz-adv-x="600" 
d="M547 470l-138 -277h128v-54h-155l-161 -324h-67l164 326h-196v54h223l134 265h-403v55h471v-45z" />
    <glyph glyph-name="seven.sc.ss03" horiz-adv-x="435" 
d="M401 474l-99 -194h84v-48h-108l-117 -232h-64l121 234h-145v48h170l94 184h-296v51h360v-43z" />
    <glyph glyph-name="Z.ss04" horiz-adv-x="664" 
d="M532 322h-187l-201 -264h457v-58h-538v48l211 276h-142v56h185l200 262h-447v58h529v-47l-210 -274h143v-57z" />
    <glyph glyph-name="z.ss04" horiz-adv-x="533" 
d="M427 217h-145l-142 -165h330v-52h-406v42l154 177h-107v44h145l136 156h-318v52h392v-42l-145 -168h106v-44z" />
    <glyph glyph-name="Zacute.ss04" horiz-adv-x="664" 
d="M269 749l110 150h72l-126 -150h-56zM532 322h-187l-201 -264h457v-58h-538v48l211 276h-142v56h185l200 262h-447v58h529v-47l-210 -274h143v-57z" />
    <glyph glyph-name="zacute.ss04" horiz-adv-x="533" 
d="M213 541l110 150h72l-125 -150h-57zM427 217h-145l-142 -165h330v-52h-406v42l154 177h-107v44h145l136 156h-318v52h392v-42l-145 -168h106v-44z" />
    <glyph glyph-name="Zdotaccent.ss04" horiz-adv-x="664" 
d="M329 865c24 0 42 -19 42 -42c0 -24 -18 -42 -42 -42s-42 18 -42 42c0 23 18 42 42 42zM532 322h-187l-201 -264h457v-58h-538v48l211 276h-142v56h185l200 262h-447v58h529v-47l-210 -274h143v-57z" />
    <glyph glyph-name="zdotaccent.ss04" horiz-adv-x="533" 
d="M272 681c23 0 41 -18 41 -41s-18 -41 -41 -41s-40 18 -40 41s17 41 40 41zM427 217h-145l-142 -165h330v-52h-406v42l154 177h-107v44h145l136 156h-318v52h392v-42l-145 -168h106v-44z" />
    <glyph glyph-name="Zcaron.ss04" horiz-adv-x="664" 
d="M234 891l100 -102l100 102h62l-124 -140h-75l-124 140h61zM532 322h-187l-201 -264h457v-58h-538v48l211 276h-142v56h185l200 262h-447v58h529v-47l-210 -274h143v-57z" />
    <glyph glyph-name="zcaron.ss04" horiz-adv-x="533" 
d="M172 684l100 -102l100 102h62l-124 -141h-75l-124 141h61zM427 217h-145l-142 -165h330v-52h-406v42l154 177h-107v44h145l136 156h-318v52h392v-42l-145 -168h106v-44z" />
    <glyph glyph-name="z.sc.ss04" horiz-adv-x="551" 
d="M432 234h-144l-152 -182h354v-52h-429v44l161 191h-101v50h142l150 180h-346v52h422v-44l-160 -189h103v-50z" />
    <glyph glyph-name="zacute.sc.ss04" horiz-adv-x="551" 
d="M219 587l110 150h72l-126 -150h-56zM432 234h-144l-152 -182h354v-52h-429v44l161 191h-101v50h142l150 180h-346v52h422v-44l-160 -189h103v-50z" />
    </font>
</defs>
</svg>
