<?xml version="1.0" standalone="no"?>
<!DOCTYPE svg PUBLIC "-//W3C//DTD SVG 1.1//EN" "http://www.w3.org/Graphics/SVG/1.1/DTD/svg11.dtd" >
<svg xmlns="http://www.w3.org/2000/svg" xmlns:xlink="http://www.w3.org/1999/xlink" version="1.1">
<metadata>
Created by FontForge 20170731 at Mon Apr 27 17:20:22 2020
 By Aleksey,,,
2013 published by FontShop International GmbH
</metadata>
<defs>
<font id="BOG-Headline-Medium" horiz-adv-x="600" >
  <font-face 
    font-family="BOG Headline Medium"
    font-weight="500"
    font-stretch="normal"
    units-per-em="1000"
    panose-1="2 11 8 4 2 1 1 1 1 2"
    ascent="790"
    descent="-210"
    x-height="476"
    cap-height="700"
    bbox="-599 -236 1344 1066"
    underline-thickness="50"
    underline-position="-150"
    unicode-range="U+0020-FB02"
  />
<missing-glyph horiz-adv-x="596" 
d="M514 700v-700h-431v700h431zM442 629h-287v-557h287v557z" />
    <glyph glyph-name="fi" unicode="fi" horiz-adv-x="682" 
d="M25 400v76h106v73q0 84 40.5 132.5t122.5 48.5q72 0 135 -38l-33 -68q-45 27 -95 27q-85 0 -85 -102v-73h183v-76h-183v-400h-85v400h-106v0v0zM557 585q-24 0 -40 16t-16 40t16 40.5t40 16.5t40.5 -16.5t16.5 -40.5t-16.5 -40t-40.5 -16v0v0zM516 476h84v-476h-84v476z
" />
    <glyph glyph-name="fl" unicode="fl" horiz-adv-x="682" 
d="M25 400v76h106v73q0 84 40.5 132.5t122.5 48.5q72 0 135 -38l-33 -68q-45 27 -95 27q-85 0 -85 -102v-73h183v-76h-183v-400h-85v400h-106v0v0zM516 720h84v-720h-84v720z" />
    <glyph glyph-name="uni10ED10E3.liga" unicode="&#x10ed;&#x10e3;" horiz-adv-x="1184" 
d="M278 -207q-65 0 -119 26.5t-85 72.5t-31 103q0 47 18 86l76 -15q-10 -30 -10 -64q0 -56 43 -93t108 -37t106 43.5t41 119.5v191q-27 -39 -71 -60t-104 -21q-52 0 -96.5 20.5t-71 58.5t-26.5 89q0 79 57.5 121t141.5 42h170v244h85v-244h202q42 0 72 -15.5t45 -56.5
q32 81 130 81q42 0 78 -19t58 -57t22 -92v-285q0 -75 -31.5 -129t-84.5 -82t-116 -28q-64 0 -118 27t-85.5 75t-31.5 109q0 47 18 90l76 -17q-10 -30 -10 -65q0 -61 43 -100.5t108 -39.5t106.5 44t41.5 120v273q0 49 -24 74t-60 25q-35 0 -57.5 -24.5t-22.5 -69.5v-116h-84
v110q0 45 -21 67.5t-55 22.5h-199v-367q0 -74 -31.5 -128t-84.5 -82t-116 -28v0v0zM268 219q71 0 114 36t43 90v54h-164q-58 0 -89 -20.5t-31 -66.5q0 -44 34 -68.5t93 -24.5v0v0z" />
    <glyph glyph-name=".notdef" horiz-adv-x="596" 
d="M514 700v-700h-431v700h431zM442 629h-287v-557h287v557z" />
    <glyph glyph-name=".null" horiz-adv-x="0" 
 />
    <glyph glyph-name="nonmarkingreturn" horiz-adv-x="259" 
 />
    <glyph glyph-name="space" unicode=" " horiz-adv-x="259" 
 />
    <glyph glyph-name="exclam" unicode="!" horiz-adv-x="267" 
d="M133 122q27 0 46.5 -19.5t19.5 -45.5t-19.5 -46t-46.5 -20q-26 0 -45.5 20t-19.5 46t19.5 45.5t45.5 19.5v0v0zM95 227l-13 473h102l-12 -473h-77z" />
    <glyph glyph-name="quotedbl" unicode="&#x22;" horiz-adv-x="527" 
d="M218 457h-84v263h84v-263zM393 457h-84v263h84v-263z" />
    <glyph glyph-name="numbersign" unicode="#" horiz-adv-x="731" 
d="M278 700h78l-38 -179h167l38 179h79l-39 -179h111l-16 -73h-110l-41 -192h110l-15 -73h-111l-38 -183h-79l39 183h-167l-39 -183h-78l39 183h-111l16 73h111l40 192h-111l16 73h111zM429 256l40 192h-167l-40 -192h167z" />
    <glyph glyph-name="dollar" unicode="$" horiz-adv-x="700" 
d="M320 6q-67 4 -132 26t-108 56l45 69q34 -26 87 -46t108 -26l-1 229l-16 2q-96 12 -150 57.5t-53 124.5q1 83 62 135t157 61v95h75v-95q121 -8 217 -72l-42 -70q-80 52 -175 62v-226l24 -3q94 -14 148.5 -57.5t53.5 -120.5q-1 -88 -64 -139t-162 -61v-99h-74v98v0v0z
M319 612q-59 -6 -94.5 -35.5t-36.5 -75.5q0 -82 131 -102v213v0v0zM394 88q63 7 100 35.5t38 77.5q0 81 -138 102v-215v0v0z" />
    <glyph glyph-name="percent" unicode="%" horiz-adv-x="969" 
d="M229 710q52 0 94.5 -24t67 -65.5t24.5 -92.5q0 -52 -24.5 -93.5t-67 -65.5t-94.5 -24q-51 0 -93 24t-66 65.5t-24 93.5q0 51 24 92.5t66 65.5t93 24v0v0zM229 639q-46 0 -77.5 -31.5t-31.5 -79.5t31.5 -80t77.5 -32q48 0 79.5 31.5t31.5 80.5t-31.5 80t-79.5 31v0v0z
M739 355q52 0 94 -24t66 -65.5t24 -92.5q0 -52 -24 -93.5t-66 -65.5t-94 -24t-94 24t-66 65.5t-24 93.5q0 51 24 92.5t66 65.5t94 24v0v0zM739 284q-47 0 -78.5 -31t-31.5 -80t31.5 -80.5t78.5 -31.5t78.5 31.5t31.5 80.5t-31 80t-79 31v0v0zM215 0l452 700h86l-451 -700
h-87z" />
    <glyph glyph-name="ampersand" unicode="&#x26;" horiz-adv-x="707" 
d="M469 100q-44 -52 -95 -81t-118 -29q-94 0 -148.5 47.5t-54.5 128.5q0 62 36 109t100 96q-54 54 -76.5 92.5t-22.5 86.5q0 45 23 81.5t64 57.5t93 21t93 -20t64 -56t23 -81q0 -54 -35 -96.5t-100 -89.5l149 -145l110 158l65 -43l-117 -171l169 -166h-119l-103 100v0v0z
M178 545q0 -29 16.5 -53t64.5 -71q52 37 78 66t26 63q0 36 -25.5 59t-67.5 23t-67 -24t-25 -63v0v0zM262 68q45 0 80.5 22t70.5 65l-168 162q-49 -37 -75.5 -71.5t-26.5 -74.5q0 -46 33 -74.5t86 -28.5v0v0z" />
    <glyph glyph-name="quotesingle" unicode="'" horiz-adv-x="352" 
d="M218 457h-84v263h84v-263z" />
    <glyph glyph-name="parenleft" unicode="(" horiz-adv-x="408" 
d="M370 641q-98 -41 -155.5 -138t-57.5 -219q0 -121 57.5 -218.5t155.5 -137.5l-28 -77q-81 30 -143 94t-96.5 151.5t-34.5 187.5t34.5 187.5t96.5 151.5t143 94l28 -76v0v0z" />
    <glyph glyph-name="parenright" unicode=")" horiz-adv-x="408" 
d="M38 -72q98 41 155.5 138t57.5 219t-57.5 219t-155.5 137l28 76q81 -30 143 -93.5t96.5 -151t34.5 -187.5t-34.5 -187.5t-96.5 -151.5t-143 -94l-28 76v0v0z" />
    <glyph glyph-name="asterisk" unicode="*" horiz-adv-x="449" 
d="M192 720h65l-1 -131l125 41l20 -62l-125 -40l78 -106l-52 -38l-77 107l-77 -107l-52 38l77 106l-125 40l20 62l125 -42z" />
    <glyph glyph-name="plus" unicode="+" 
d="M262 228h-181v73h181v184h75v-184h182v-73h-182v-182h-75v182z" />
    <glyph glyph-name="comma" unicode="," horiz-adv-x="253" 
d="M133 -131h-72l32 263h96z" />
    <glyph glyph-name="hyphen" unicode="-" horiz-adv-x="414" 
d="M67 227v75h280v-75h-280z" />
    <glyph glyph-name="period" unicode="." horiz-adv-x="266" 
d="M133 124q27 0 47 -20t20 -47q0 -26 -20 -46.5t-47 -20.5q-26 0 -46 20.5t-20 46.5q0 27 20 47t46 20v0v0z" />
    <glyph glyph-name="slash" unicode="/" horiz-adv-x="502" 
d="M-6 -100l425 870h90l-424 -870h-91z" />
    <glyph glyph-name="zero" unicode="0" horiz-adv-x="708" 
d="M354 710q81 0 147.5 -43.5t105.5 -125.5t39 -191t-39 -190.5t-105.5 -125.5t-147.5 -44t-147.5 44t-105 125.5t-38.5 190.5t38.5 191t105 125.5t147.5 43.5v0v0zM354 626q-56 0 -102 -32.5t-72.5 -95t-26.5 -148.5t26.5 -148.5t72.5 -95t102 -32.5t102 32.5t72.5 95
t26.5 148.5t-26.5 148.5t-72.5 95t-102 32.5v0v0z" />
    <glyph glyph-name="one" unicode="1" horiz-adv-x="422" 
d="M235 0v584l-203 -86v89l290 121v-708h-87z" />
    <glyph glyph-name="two" unicode="2" horiz-adv-x="552" 
d="M41 592q81 118 219 118q70 0 121 -28t78 -77.5t27 -111.5q0 -59 -25.5 -106.5t-70.5 -95.5l-200 -209h319v-82h-446v68l262 273q34 36 52.5 72t18.5 77q0 59 -37.5 98t-102.5 39q-53 0 -89.5 -23.5t-66.5 -64.5l-59 53v0v0z" />
    <glyph glyph-name="three" unicode="3" horiz-adv-x="558" 
d="M254 710q69 0 122.5 -24t83 -68t29.5 -100q0 -61 -30.5 -102.5t-83.5 -61.5q60 -21 94.5 -63.5t34.5 -102.5q0 -64 -34 -108.5t-89.5 -67t-120.5 -22.5q-72 0 -130.5 24.5t-97.5 68.5l53 59q32 -34 77 -52.5t95 -18.5q68 0 112.5 31.5t44.5 91.5q0 56 -47 88t-117 32h-91
v79h91q65 0 107 31t42 88q0 53 -42.5 85.5t-107.5 32.5q-49 0 -88.5 -21.5t-65.5 -56.5l-59 54q35 47 90 75.5t128 28.5v0v0z" />
    <glyph glyph-name="four" unicode="4" horiz-adv-x="579" 
d="M555 226v-82h-117v-144h-86v144h-327v65l255 491h98l-249 -474h223v195h86v-195h117z" />
    <glyph glyph-name="five" unicode="5" horiz-adv-x="579" 
d="M177 423h99q80 0 135.5 -27t83.5 -74t28 -106q0 -70 -32 -121t-87.5 -78t-124.5 -27q-74 0 -134 27.5t-104 79.5l53 59q33 -39 82 -61t103 -22q71 0 112 38.5t41 98.5q0 59 -44 96t-137 37h-154l9 357h383v-81h-305l-7 -196v0v0z" />
    <glyph glyph-name="six" unicode="6" horiz-adv-x="581" 
d="M228 436q36 13 72 13q68 0 123.5 -30t86.5 -82t31 -116q0 -65 -33 -118t-90.5 -83t-128.5 -30t-128.5 30t-90.5 82.5t-33 117.5q0 40 13.5 78t40.5 81l205 321h106l-174 -264v0v0zM289 371q-46 0 -82.5 -19.5t-57.5 -53.5t-21 -77q0 -66 45.5 -108.5t115.5 -42.5
t115.5 42.5t45.5 108.5q0 43 -21 77t-57.5 53.5t-82.5 19.5v0v0z" />
    <glyph glyph-name="seven" unicode="7" horiz-adv-x="548" 
d="M206 0h-102l309 619h-376v81h480v-68z" />
    <glyph glyph-name="eight" unicode="8" horiz-adv-x="631" 
d="M315 710q68 0 124 -23t89 -66.5t33 -102.5q0 -60 -31 -100.5t-84 -63.5q60 -22 96 -63.5t36 -103.5q0 -61 -35 -105.5t-95 -68t-133 -23.5t-132.5 23.5t-94.5 68t-35 105.5q0 62 35.5 103.5t95.5 63.5q-52 23 -83 63.5t-31 100.5q0 59 32.5 102.5t88.5 66.5t124 23v0v0z
M315 630q-66 0 -109.5 -31t-43.5 -87q0 -58 43.5 -90t109.5 -32t110 32t44 90q0 56 -44 87t-110 31v0v0zM315 317q-73 0 -121 -32.5t-48 -91.5q0 -58 48 -90.5t121 -32.5t121 32.5t48 90.5q0 59 -48 91.5t-121 32.5v0v0z" />
    <glyph glyph-name="nine" unicode="9" horiz-adv-x="581" 
d="M352 265q-33 -14 -71 -14q-68 0 -123 30t-86 82.5t-31 116.5q0 65 32.5 117.5t90 82.5t128.5 30t128.5 -30t90 -82.5t32.5 -116.5q0 -41 -13.5 -79.5t-39.5 -79.5l-205 -322h-106l173 265v0v0zM292 330q70 0 115.5 42.5t46.5 107.5q0 43 -21 77t-58 53.5t-83 19.5
t-82.5 -19.5t-57.5 -53.5t-21 -77t21 -77t57.5 -53.5t82.5 -19.5v0v0z" />
    <glyph glyph-name="colon" unicode=":" horiz-adv-x="266" 
d="M133 485q27 0 47 -19.5t20 -46.5q0 -26 -20 -46t-47 -20q-26 0 -46 20t-20 46q0 27 20 46.5t46 19.5v0v0zM133 124q27 0 47 -20t20 -46q0 -27 -20 -47t-47 -20q-26 0 -46 20t-20 47q0 26 20 46t46 20v0v0z" />
    <glyph glyph-name="semicolon" unicode=";" horiz-adv-x="253" 
d="M132 485q26 0 46 -19.5t20 -46.5q0 -26 -20 -46t-46 -20q-27 0 -46.5 20t-19.5 46q0 27 19.5 46.5t46.5 19.5v0v0zM133 -131h-72l32 263h96z" />
    <glyph glyph-name="less" unicode="&#x3c;" 
d="M104 225v80l393 187v-87l-312 -140l312 -140v-87z" />
    <glyph glyph-name="equal" unicode="=" 
d="M81 323v73h438v-73h-438zM81 133v74h438v-74h-438z" />
    <glyph glyph-name="greater" unicode="&#x3e;" 
d="M497 305v-80l-393 -187v87l312 140l-312 140v87z" />
    <glyph glyph-name="question" unicode="?" horiz-adv-x="432" 
d="M135 386q83 0 129 32t46 90q0 54 -46 85t-126 31q-13 0 -67 -3l-7 85q33 6 81 6q79 0 137 -24.5t89.5 -69.5t31.5 -105q0 -85 -57.5 -137.5t-162.5 -64.5l-4 -85h-78v160h34v0v0zM140 122q26 0 45.5 -19.5t19.5 -45.5q0 -27 -19.5 -47t-45.5 -20t-46 20t-20 47
q0 26 20 45.5t46 19.5v0v0z" />
    <glyph glyph-name="at" unicode="@" horiz-adv-x="981" 
d="M680 209q0 -50 14 -73t43 -23q41 0 66 40.5t25 114.5q0 93 -44 166.5t-120.5 114t-172.5 40.5q-95 0 -172 -44t-121 -121t-44 -174q0 -98 44 -176t120.5 -122t171.5 -44q118 0 209 65l40 -53q-110 -78 -249 -78q-117 0 -210.5 53.5t-147 147t-53.5 207.5t53.5 206.5
t147.5 145.5t211 53t211 -50t147 -138.5t53 -198.5q0 -96 -45.5 -158t-123.5 -62q-46 0 -75 21t-40 57q-49 -74 -144 -74q-54 0 -97 25.5t-67.5 71t-24.5 101.5t24.5 101.5t67.5 71.5t95 26q88 0 138 -70v62h70v-232v0v0zM485 382q-56 0 -91.5 -37.5t-35.5 -94.5
q0 -56 35.5 -94t91.5 -38q55 0 91 37.5t36 94.5t-36 94.5t-91 37.5v0v0z" />
    <glyph glyph-name="A" unicode="A" horiz-adv-x="715" 
d="M603 0l-76 189h-340l-76 -189h-94l285 700h111l286 -700h-96zM493 274l-136 338l-137 -338h273z" />
    <glyph glyph-name="B" unicode="B" horiz-adv-x="697" 
d="M372 700q119 0 186.5 -45.5t67.5 -140.5q0 -58 -31 -98.5t-83 -55.5q58 -16 93 -59t35 -106q0 -98 -66.5 -146.5t-187.5 -48.5h-290v700h276v0v0zM370 396q77 0 119.5 25t42.5 86t-43 86t-120 25h-183v-222h184v0v0zM381 82q80 0 122.5 26.5t42.5 90.5q0 63 -42.5 89
t-122.5 26h-195v-232h195v0v0z" />
    <glyph glyph-name="C" unicode="C" horiz-adv-x="761" 
d="M419 710q92 0 169.5 -40t119.5 -109l-76 -48q-35 52 -90.5 81t-122.5 29q-76 0 -137 -34.5t-96 -96.5t-35 -142t35 -142.5t96.5 -96.5t136.5 -34q67 0 122.5 29t89.5 81l74 -53q-45 -67 -120 -105.5t-166 -38.5q-103 0 -185.5 46t-129.5 128t-47 186t47 186t129.5 128
t185.5 46v0v0z" />
    <glyph glyph-name="D" unicode="D" horiz-adv-x="792" 
d="M363 700q113 0 197.5 -43t130 -122t45.5 -185t-45.5 -185t-130 -122t-197.5 -43h-267v700h267v0v0zM363 85q134 0 206.5 72t72.5 193q0 122 -72.5 193.5t-206.5 71.5h-177v-530h177v0v0z" />
    <glyph glyph-name="E" unicode="E" horiz-adv-x="669" 
d="M96 0v700h493v-83h-403v-223h389v-83h-389v-227h407v-84h-497z" />
    <glyph glyph-name="F" unicode="F" horiz-adv-x="643" 
d="M186 309v-309h-90v700h490v-84h-400v-223h380v-84h-380z" />
    <glyph glyph-name="G" unicode="G" horiz-adv-x="812" 
d="M420 710q81 0 150.5 -30t118.5 -85l-66 -64q-37 44 -90 68.5t-115 24.5q-76 0 -136.5 -34.5t-95.5 -97t-35 -142.5q0 -81 35 -143t95.5 -96.5t133.5 -34.5q107 0 171 59t73 162h-215v79h310q1 -9 1 -24q0 -104 -42.5 -186.5t-119.5 -129t-177 -46.5q-96 0 -178 44
t-131.5 126t-49.5 190q0 104 47 186t130 128t186 46v0v0z" />
    <glyph glyph-name="H" unicode="H" horiz-adv-x="780" 
d="M594 395v305h91v-700h-91v311h-408v-311h-90v700h90v-305h408z" />
    <glyph glyph-name="I" unicode="I" horiz-adv-x="281" 
d="M96 0v700h90v-700h-90z" />
    <glyph glyph-name="J" unicode="J" horiz-adv-x="572" 
d="M481 252q0 -82 -31.5 -141.5t-87.5 -90t-127 -30.5q-134 0 -215 96l56 64q27 -33 66 -53t91 -20q73 0 115.5 47.5t42.5 136.5v439h90v-448v0v0z" />
    <glyph glyph-name="K" unicode="K" horiz-adv-x="694" 
d="M186 310v-310h-90v700h90v-306h83l279 306h115l-322 -343l343 -357h-119l-297 310h-82z" />
    <glyph glyph-name="L" unicode="L" horiz-adv-x="603" 
d="M96 0v700h90v-615h398v-85h-488z" />
    <glyph glyph-name="M" unicode="M" horiz-adv-x="931" 
d="M745 0v593l-232 -516h-95l-232 513v-590h-90v700h133l236 -518l236 518h134v-700h-90z" />
    <glyph glyph-name="N" unicode="N" horiz-adv-x="785" 
d="M606 0l-420 548v-548h-90v700h83l420 -547v547h91v-700h-84z" />
    <glyph glyph-name="O" unicode="O" horiz-adv-x="837" 
d="M419 710q103 0 185.5 -46t129.5 -128.5t47 -185.5t-47 -185.5t-129.5 -128.5t-185.5 -46t-185.5 46t-129.5 128t-47 186t47 186t129.5 128t185.5 46v0v0zM419 623q-76 0 -137 -34.5t-96 -96.5t-35 -142q0 -79 35 -141.5t96 -97t137 -34.5q75 0 136 34.5t96 96.5t35 142
t-35 142t-95.5 96.5t-136.5 34.5v0v0z" />
    <glyph glyph-name="P" unicode="P" horiz-adv-x="664" 
d="M96 0v700h269q119 0 184.5 -56.5t65.5 -156.5t-65.5 -156.5t-184.5 -56.5h-179v-274h-90v0v0zM363 358q77 0 118.5 33t41.5 96q0 64 -41.5 97t-118.5 33h-177v-259h177v0v0z" />
    <glyph glyph-name="Q" unicode="Q" horiz-adv-x="839" 
d="M419 -10q-103 0 -185.5 46t-129.5 128t-47 186t47 186t129.5 128t185.5 46t185.5 -46t129.5 -128.5t47 -185.5q0 -65 -19.5 -122t-56.5 -103l97 -125h-106l-52 66q-46 -37 -103.5 -56.5t-121.5 -19.5v0v0zM419 77q49 0 93 15.5t78 43.5l-156 199h108l104 -132
q40 66 40 147q0 80 -35 142t-95.5 96.5t-136.5 34.5t-137 -34.5t-96 -96.5t-35 -142q0 -79 35 -141.5t96 -97t137 -34.5v0v0z" />
    <glyph glyph-name="R" unicode="R" horiz-adv-x="674" 
d="M373 700q119 0 183 -52.5t64 -148.5q0 -89 -61 -142.5t-167 -56.5h-20l247 -300h-111l-240 299h-82v-299h-90v700h277v0v0zM372 379q76 0 115.5 30.5t39.5 89.5q0 58 -40 88t-115 30h-186v-238h186v0v0z" />
    <glyph glyph-name="S" unicode="S" horiz-adv-x="674" 
d="M558 560q-95 65 -211 65q-77 0 -125 -32t-48 -87q0 -46 40.5 -72t121.5 -37l62 -8q218 -28 218 -185q0 -69 -37.5 -117.5t-101 -72.5t-140.5 -24t-153 25t-127 65l48 72q41 -32 103 -54.5t129 -22.5q81 0 132.5 31.5t51.5 88.5q0 48 -40.5 73.5t-125.5 36.5l-67 8
q-99 12 -153.5 58t-54.5 129q0 65 35.5 112.5t96 72t134.5 24.5q141 0 257 -75l-45 -74v0v0z" />
    <glyph glyph-name="T" unicode="T" horiz-adv-x="607" 
d="M348 615v-615h-90v615h-239v85h569v-85h-240z" />
    <glyph glyph-name="U" unicode="U" horiz-adv-x="752" 
d="M666 276q0 -92 -37.5 -156.5t-103 -97t-149.5 -32.5t-149.5 32.5t-103 97t-37.5 156.5v424h90v-419q0 -101 55 -152.5t145 -51.5t144.5 51.5t54.5 152.5v419h91v-424v0v0z" />
    <glyph glyph-name="V" unicode="V" horiz-adv-x="702" 
d="M296 0l-279 700h95l240 -609l240 609h93l-279 -700h-110z" />
    <glyph glyph-name="W" unicode="W" horiz-adv-x="1099" 
d="M737 0l-188 576l-187 -576h-110l-226 700h95l188 -597l191 597h101l191 -596l188 596h92l-226 -700h-109z" />
    <glyph glyph-name="X" unicode="X" horiz-adv-x="684" 
d="M656 0h-107l-208 289l-208 -289h-105l258 357l-248 343h108l197 -275l197 275h106l-249 -343z" />
    <glyph glyph-name="Y" unicode="Y" horiz-adv-x="650" 
d="M371 0h-90v292l-276 408h107l215 -325l214 325h104l-274 -409v-291z" />
    <glyph glyph-name="Z" unicode="Z" horiz-adv-x="657" 
d="M177 84h423v-84h-543v71l421 545h-416v84h536v-70z" />
    <glyph glyph-name="bracketleft" unicode="[" horiz-adv-x="374" 
d="M96 -132v832h240v-77h-155v-678h155v-77h-240z" />
    <glyph glyph-name="backslash" unicode="\" horiz-adv-x="502" 
d="M84 770l424 -870h-90l-425 870h91z" />
    <glyph glyph-name="bracketright" unicode="]" horiz-adv-x="374" 
d="M279 700v-832h-241v77h155v678h-155v77h241z" />
    <glyph glyph-name="asciicircum" unicode="^" 
d="M260 700h80l179 -376h-89l-131 291l-131 -291h-86z" />
    <glyph glyph-name="underscore" unicode="_" horiz-adv-x="469" 
d="M-3 -139v73h474v-73h-474z" />
    <glyph glyph-name="grave" unicode="`" horiz-adv-x="470" 
d="M130 699h103l107 -153h-82z" />
    <glyph glyph-name="a" unicode="a" horiz-adv-x="619" 
d="M454 77q-28 -40 -71.5 -63.5t-99.5 -23.5q-65 0 -119 32.5t-85 89t-31 126.5t31 126.5t85 88.5t119 32q57 0 100 -22.5t71 -63.5v77h83v-476h-83v77v0v0zM296 407q-47 0 -84 -22.5t-57.5 -61t-20.5 -85.5t20.5 -85.5t57.5 -61t84 -22.5t83.5 22t57 60.5t20.5 86.5
t-20.5 86.5t-57 60.5t-83.5 22v0v0z" />
    <glyph glyph-name="b" unicode="b" horiz-adv-x="620" 
d="M337 485q65 0 119 -32t85 -88.5t31 -126.5t-31 -126.5t-85 -89t-119 -32.5q-57 0 -100 23t-71 64v-77h-83v720h84v-319q27 39 70.5 61.5t99.5 22.5v0v0zM323 407q-46 0 -83 -22t-57.5 -60.5t-20.5 -86.5t20.5 -86.5t57.5 -60.5t83 -22q47 0 84 22.5t57.5 61t20.5 85.5
t-20.5 85.5t-57.5 61t-84 22.5v0v0z" />
    <glyph glyph-name="c" unicode="c" horiz-adv-x="514" 
d="M296 485q55 0 101.5 -20.5t79.5 -59.5l-59 -52q-52 54 -125 54q-45 0 -81 -21.5t-57 -60t-21 -87.5t21 -87.5t57 -60t81 -21.5q71 0 127 56l57 -54q-33 -39 -79.5 -60t-101.5 -21q-72 0 -128.5 32.5t-88 89t-31.5 126.5t31.5 126.5t88 88.5t128.5 32v0v0z" />
    <glyph glyph-name="d" unicode="d" horiz-adv-x="619" 
d="M283 485q56 0 99 -22.5t71 -62.5v320h84v-720h-83v77q-28 -40 -71.5 -63.5t-99.5 -23.5q-65 0 -119 32.5t-85 89t-31 126.5t31 126.5t85 88.5t119 32v0v0zM296 407q-47 0 -84 -22.5t-57.5 -61t-20.5 -85.5t20.5 -85.5t57.5 -61t84 -22.5t83.5 22t57 60.5t20.5 86.5
t-20.5 86.5t-57 60.5t-83.5 22v0v0z" />
    <glyph glyph-name="e" unicode="e" horiz-adv-x="560" 
d="M286 485q64 0 115.5 -31t80.5 -87t29 -127q0 -22 -1 -31h-375q7 -69 51 -107.5t109 -38.5q80 0 146 59l47 -55q-77 -77 -198 -77q-70 0 -125 31.5t-86 87.5t-31 128t30.5 128.5t85 88t122.5 31.5v0v0zM285 412q-61 0 -101 -38t-48 -101h290q-7 63 -45.5 101t-95.5 38v0v0
z" />
    <glyph glyph-name="f" unicode="f" horiz-adv-x="433" 
d="M216 0h-85v400h-106v76h106v73q0 84 40.5 132.5t122.5 48.5q72 0 135 -38l-33 -68q-45 27 -95 27q-85 0 -85 -102v-73h183v-76h-183v-400v0v0z" />
    <glyph glyph-name="g" unicode="g" horiz-adv-x="614" 
d="M278 485q57 0 100.5 -23t70.5 -64v78h83v-441q0 -77 -32 -131.5t-89 -82.5t-131 -28q-58 0 -112.5 17t-90.5 47l35 65q73 -54 166 -54q75 0 123 42.5t48 121.5v55q-28 -41 -71 -64.5t-100 -23.5q-63 0 -115.5 31t-83.5 86.5t-31 125.5t30.5 125.5t83.5 86.5t116 31v0v0z
M294 408q-46 0 -82.5 -22t-56.5 -60t-20 -84t20 -83.5t56.5 -59t82.5 -21.5t82 21.5t56.5 59t20.5 83.5q0 47 -20.5 84.5t-56.5 59.5t-82 22v0v0z" />
    <glyph glyph-name="h" unicode="h" horiz-adv-x="596" 
d="M167 405q26 41 67.5 60.5t89.5 19.5q87 0 141 -51.5t54 -137.5v-296h-85v270q0 64 -34 100t-95 36q-59 0 -98.5 -38t-39.5 -101v-267h-84v720h84v-315v0v0z" />
    <glyph glyph-name="i" unicode="i" horiz-adv-x="250" 
d="M125 698q24 0 40.5 -16.5t16.5 -40.5t-16.5 -40t-40.5 -16t-40.5 16t-16.5 40t16.5 40.5t40.5 16.5v0v0zM83 0v476h84v-476h-84z" />
    <glyph glyph-name="j" unicode="j" horiz-adv-x="251" 
d="M126 698q24 0 40.5 -16.5t16.5 -40.5t-16.5 -40t-40.5 -16t-40 16t-16 40t16 40.5t40 16.5v0v0zM169 -73q0 -64 -33 -99.5t-89 -35.5q-18 0 -37 4t-32 11l16 74q22 -10 43 -10q48 0 48 60v545h84v-549v0v0z" />
    <glyph glyph-name="k" unicode="k" horiz-adv-x="531" 
d="M232 287l176 189h104l-211 -224l214 -252h-105l-178 212h-65v-212h-84v720h84v-433h65z" />
    <glyph glyph-name="l" unicode="l" horiz-adv-x="250" 
d="M83 0v720h84v-720h-84z" />
    <glyph glyph-name="m" unicode="m" horiz-adv-x="948" 
d="M674 485q88 0 142 -51.5t54 -137.5v-296h-84v270q0 64 -34.5 100t-96.5 36q-58 0 -97 -38t-39 -101v-267h-85v270q0 64 -34 100t-95 36q-59 0 -98.5 -38t-39.5 -101v-267h-84v476h83v-73q26 42 67.5 62t90.5 20q60 0 106 -26t69 -73q26 50 72.5 74.5t102.5 24.5v0v0z" />
    <glyph glyph-name="n" unicode="n" horiz-adv-x="596" 
d="M324 485q87 0 141 -51.5t54 -137.5v-296h-85v270q0 64 -34 100t-95 36q-59 0 -98.5 -38t-39.5 -101v-267h-84v476h83v-73q26 42 67.5 62t90.5 20v0v0z" />
    <glyph glyph-name="o" unicode="o" horiz-adv-x="598" 
d="M299 485q71 0 128 -32t90 -88.5t33 -126.5t-33 -126.5t-90.5 -89t-127.5 -32.5q-71 0 -128.5 32.5t-90 89t-32.5 126.5t32.5 126.5t90 88.5t128.5 32v0v0zM299 407q-46 0 -84 -22t-59.5 -60.5t-21.5 -86.5t21.5 -86.5t59.5 -60.5t84 -22t84 22t59.5 60.5t21.5 86.5
t-21.5 86.5t-59.5 60.5t-84 22v0v0z" />
    <glyph glyph-name="p" unicode="p" horiz-adv-x="620" 
d="M337 485q65 0 119 -32t85 -88.5t31 -126.5t-31 -126.5t-85 -89t-119 -32.5q-57 0 -100 22.5t-70 63.5v-276h-84v676h83v-76q60 85 171 85v0v0zM323 407q-46 0 -83 -22t-57.5 -60.5t-20.5 -86.5t20.5 -86.5t57.5 -60.5t83 -22q47 0 84 22.5t57.5 61t20.5 85.5t-20.5 85.5
t-57.5 61t-84 22.5v0v0z" />
    <glyph glyph-name="q" unicode="q" horiz-adv-x="619" 
d="M283 485q57 0 100 -22.5t71 -63.5v77h83v-676h-84v276q-28 -40 -71 -63t-99 -23q-65 0 -119 32.5t-85 89t-31 126.5t31 126.5t85 88.5t119 32v0v0zM296 407q-47 0 -84 -22.5t-57.5 -61t-20.5 -85.5t20.5 -85.5t57.5 -61t84 -22.5t83.5 22t57 60.5t20.5 86.5t-20.5 86.5
t-57 60.5t-83.5 22v0v0z" />
    <glyph glyph-name="r" unicode="r" horiz-adv-x="412" 
d="M307 486q47 0 80 -15l-16 -83q-16 8 -38 12.5t-44 4.5q-54 0 -88 -38t-34 -102v-265h-84v476h82v-70q23 39 59.5 59.5t82.5 20.5v0v0z" />
    <glyph glyph-name="s" unicode="s" horiz-adv-x="494" 
d="M409 369q-28 18 -71.5 31.5t-86.5 13.5q-48 0 -77 -19t-29 -51q0 -27 24 -42t72 -21l54 -7q77 -10 118 -43t41 -90q0 -70 -57 -110.5t-154 -40.5q-54 0 -107.5 14.5t-93.5 45.5l35 63q33 -24 73 -37.5t94 -13.5q58 0 90.5 18.5t32.5 53.5q0 28 -24 44t-74 22l-52 6
q-158 20 -158 134q0 68 51.5 106.5t139.5 38.5q109 0 191 -50l-32 -66v0v0z" />
    <glyph glyph-name="t" unicode="t" horiz-adv-x="458" 
d="M212 173q0 -52 25 -78t67 -26q27 0 53 9.5t47 25.5l35 -64q-62 -50 -145 -50q-80 0 -123 45t-43 133v232h-103v76h103v150h84v-150h202v-76h-202v-227v0v0z" />
    <glyph glyph-name="u" unicode="u" horiz-adv-x="591" 
d="M514 199q0 -68 -29.5 -115t-79 -70.5t-109.5 -23.5q-61 0 -110.5 23.5t-78.5 70.5t-29 115v277h84v-269q0 -67 36.5 -102.5t97.5 -35.5q60 0 96.5 35.5t36.5 102.5v269h85v-277v0v0z" />
    <glyph glyph-name="v" unicode="v" horiz-adv-x="528" 
d="M216 -1l-202 477h92l159 -389l160 389h89l-201 -477h-97z" />
    <glyph glyph-name="w" unicode="w" horiz-adv-x="864" 
d="M755 476h88l-177 -476h-97l-138 380l-136 -380h-97l-176 476h89l138 -385l138 385h91l138 -386z" />
    <glyph glyph-name="x" unicode="x" horiz-adv-x="520" 
d="M504 0h-102l-144 182l-143 -182h-98l189 243l-184 233h102l138 -176l138 176h99l-184 -233z" />
    <glyph glyph-name="y" unicode="y" horiz-adv-x="533" 
d="M50 -202l177 306l-217 372h95l169 -287l159 287h93l-383 -678h-93z" />
    <glyph glyph-name="z" unicode="z" horiz-adv-x="528" 
d="M173 76h298v-76h-413v61l297 339h-287v76h398v-62z" />
    <glyph glyph-name="braceleft" unicode="{" horiz-adv-x="428" 
d="M357 624q-50 0 -78 -29t-26 -85l3 -65q8 -127 -102 -160q110 -35 102 -161l-3 -64q-2 -57 26 -86t78 -29h33v-76h-37q-93 0 -141.5 51.5t-44.5 146.5l4 65q2 57 -28 85.5t-86 28.5v77q56 0 86 29t28 86l-4 65q-4 94 44.5 145.5t141.5 51.5h37v-76h-33v0v0z" />
    <glyph glyph-name="bar" unicode="|" horiz-adv-x="352" 
d="M134 -133v833h84v-833h-84z" />
    <glyph glyph-name="braceright" unicode="}" horiz-adv-x="428" 
d="M71 -55q50 0 78 29t26 86l-3 64q-8 126 102 161q-110 33 -102 160l3 65q2 56 -26 85t-78 29h-33v76h37q93 0 141.5 -51.5t43.5 -145.5l-3 -65q-3 -57 27.5 -86t85.5 -29v-76q-55 0 -85.5 -29t-27.5 -86l3 -65q5 -95 -43.5 -146.5t-141.5 -51.5h-37v76h33v0v0z" />
    <glyph glyph-name="asciitilde" unicode="~" 
d="M527 270q-27 -32 -60 -47.5t-75 -15.5q-32 0 -54.5 6.5t-51.5 18.5q-26 10 -43 15t-39 5q-24 0 -44 -10.5t-44 -33.5l-43 52q27 32 60 47.5t75 15.5q33 0 55.5 -6.5t51.5 -18.5q26 -11 42.5 -15.5t38.5 -4.5q24 0 44.5 10.5t43.5 33.5l43 -52v0v0z" />
    <glyph glyph-name="exclamdown" unicode="&#xa1;" horiz-adv-x="267" 
d="M133 355q-26 0 -45.5 19t-19.5 45t19.5 46t45.5 20q27 0 46.5 -20t19.5 -46t-19.5 -45t-46.5 -19v0v0zM172 250l12 -474h-101l12 474h77z" />
    <glyph glyph-name="cent" unicode="&#xa2;" horiz-adv-x="700" 
d="M336 107q-93 16 -149 82.5t-56 160.5t56 160.5t149 82.5v107h75v-105q48 -4 89.5 -24t70.5 -53l-54 -52q-46 45 -106 52v-335q62 8 108 52l52 -52q-30 -34 -71 -54t-89 -24v-105h-75v107v0v0zM336 514q-55 -14 -88.5 -58.5t-33.5 -105.5t33.5 -105t88.5 -58v327v0v0z" />
    <glyph glyph-name="sterling" unicode="&#xa3;" horiz-adv-x="700" 
d="M89 82h89v232h-89v73h89v66q0 83 32 141t86.5 87t121.5 29q57 0 105 -21t81 -61l-61 -59q-22 28 -54.5 43t-70.5 15q-68 0 -111 -45.5t-43 -134.5v-60h262v-73h-262v-232h344v-82h-519v82v0v0z" />
    <glyph glyph-name="currency" unicode="&#xa4;" horiz-adv-x="700" 
d="M220 530q57 43 131 43q72 0 131 -43l73 74l49 -49l-74 -74q44 -57 44 -131t-44 -132l74 -72l-49 -49l-73 73q-57 -43 -131 -43q-73 0 -132 43l-73 -73l-49 49l74 72q-43 59 -43 132q0 74 43 131l-74 74l48 49l75 -74v0v0zM351 195q42 0 77.5 21t56 56.5t20.5 77.5
t-20.5 77.5t-56 56.5t-77.5 21t-77.5 -21t-56.5 -56.5t-21 -77.5t21 -77.5t56.5 -56.5t77.5 -21v0v0z" />
    <glyph glyph-name="yen" unicode="&#xa5;" horiz-adv-x="700" 
d="M396 156v-156h-87v156h-196v65h196v94h-196v64h164l-228 321h102l202 -289l199 289h100l-225 -321h165v-64h-196v-94h196v-65h-196z" />
    <glyph glyph-name="brokenbar" unicode="&#xa6;" horiz-adv-x="352" 
d="M134 353v347h84v-347h-84zM134 -133v348h84v-348h-84z" />
    <glyph glyph-name="section" unicode="&#xa7;" horiz-adv-x="654" 
d="M322 -149q-73 0 -140.5 21.5t-113.5 56.5l44 68q40 -29 94 -49t116 -20q73 0 118.5 26t46.5 74q0 38 -39 59t-112 30l-59 7q-88 10 -140 49.5t-52 109.5q0 39 20.5 71.5t56.5 54.5q-66 42 -66 120q0 55 31.5 96t86.5 63t123 22q126 0 231 -69l-39 -68q-40 26 -88.5 42.5
t-101.5 16.5q-69 0 -112.5 -26t-43.5 -71q0 -39 38.5 -60.5t112.5 -29.5l54 -6q88 -11 143 -49.5t55 -107.5q0 -43 -21 -75.5t-58 -53.5q68 -43 68 -117q0 -61 -34.5 -102.5t-92 -62t-126.5 -20.5v0v0zM430 183q68 28 68 90q0 73 -151 90q-45 4 -69.5 7.5t-38.5 7.5
q-31 -13 -48.5 -35.5t-17.5 -52.5q0 -39 38 -60t111 -30q44 -5 66.5 -8t41.5 -9v0v0z" />
    <glyph glyph-name="dieresis" unicode="&#xa8;" horiz-adv-x="486" 
d="M138 676q24 0 40.5 -16.5t16.5 -40.5t-16.5 -40t-40.5 -16t-40 16t-16 40t16 40.5t40 16.5v0v0zM347 676q24 0 40.5 -16.5t16.5 -40.5t-16.5 -40t-40.5 -16t-40.5 16t-16.5 40t16.5 40.5t40.5 16.5v0v0z" />
    <glyph glyph-name="copyright" unicode="&#xa9;" horiz-adv-x="943" 
d="M472 754q110 0 202.5 -54t146.5 -146t54 -200t-54 -200.5t-146.5 -146.5t-202.5 -54t-203 54t-147 146.5t-54 200.5t54 200t147 146t203 54v0v0zM472 681q-90 0 -165 -44t-119 -119t-44 -164t44 -164.5t119.5 -119.5t164.5 -44t164.5 44t119.5 119.5t44 164.5t-44 164
t-119.5 119t-164.5 44v0v0zM594 436q-19 29 -48 44.5t-65 15.5q-58 0 -96.5 -40t-38.5 -102q0 -65 39.5 -103.5t95.5 -38.5q35 0 64.5 16t49.5 45l58 -43q-27 -41 -71.5 -64t-99.5 -23q-60 0 -108.5 27t-75.5 75t-27 109t27 109.5t75.5 75.5t108.5 27q55 0 101 -24.5
t72 -68.5l-61 -37v0v0z" />
    <glyph glyph-name="ordfeminine" unicode="&#xaa;" horiz-adv-x="393" 
d="M187 647q70 0 109.5 -35.5t39.5 -105.5v-199h-63v44q-49 -51 -117 -51q-54 0 -86 28.5t-32 74.5t36.5 72.5t102.5 26.5h93q-1 87 -90 87q-55 0 -99 -35l-26 50q55 43 132 43v0v0zM172 353q29 0 55 13.5t44 35.5v56h-84q-41 0 -61 -15t-20 -38q0 -22 17.5 -37t48.5 -15v0
v0z" />
    <glyph glyph-name="logicalnot" unicode="&#xac;" 
d="M486 70l-42 100l-363 90l267 41l171 -132z" />
    <glyph glyph-name="registered" unicode="&#xae;" horiz-adv-x="464" 
d="M233 718q57 0 104.5 -27.5t75.5 -74.5t28 -103q0 -55 -28 -102t-75.5 -74.5t-104.5 -27.5q-58 0 -106 27.5t-76 74.5t-28 102q0 56 28 103t76 74.5t106 27.5v0v0zM233 355q43 0 79 21t57 57.5t21 79.5t-21 79.5t-57 57.5t-79 21q-44 0 -80.5 -21t-57.5 -57.5t-21 -79.5
t21 -79.5t57.5 -57.5t80.5 -21v0v0zM245 609q36 0 56 -16.5t20 -44.5q0 -23 -16 -38.5t-44 -19.5l62 -72h-50l-58 71h-17v-71h-41v191h88v0v0zM244 523q16 0 25.5 6.5t9.5 18.5q0 13 -9.5 19.5t-25.5 6.5h-46v-51h46v0v0z" />
    <glyph glyph-name="macron" unicode="&#xaf;" horiz-adv-x="480" 
d="M394 653v-68h-307v68h307z" />
    <glyph glyph-name="degree" unicode="&#xb0;" horiz-adv-x="401" 
d="M201 358q-49 0 -89.5 23.5t-64.5 64t-24 88.5t24 88.5t64.5 64t89.5 23.5q48 0 88.5 -23.5t64.5 -64t24 -88.5t-24 -88.5t-64.5 -64t-88.5 -23.5v0v0zM201 425q44 0 75 31.5t31 77.5q0 45 -31 76.5t-75 31.5q-45 0 -76.5 -31.5t-31.5 -76.5q0 -46 31.5 -77.5t76.5 -31.5
v0v0z" />
    <glyph glyph-name="plusminus" unicode="&#xb1;" 
d="M262 303h-181v74h181v173h75v-173h182v-74h-182v-150h-75v150zM81 23v74h438v-74h-438z" />
    <glyph glyph-name="uni00B2" unicode="&#xb2;" horiz-adv-x="342" 
d="M31 638q51 67 134 67q61 0 96.5 -34t35.5 -88q0 -34 -14.5 -61.5t-44.5 -56.5l-97 -97h168v-61h-263v51l146 145q36 34 36 74q0 28 -19 46.5t-51 18.5q-27 0 -47 -12.5t-39 -34.5l-41 43v0v0z" />
    <glyph glyph-name="uni00B3" unicode="&#xb3;" horiz-adv-x="342" 
d="M154 705q62 0 101 -29.5t39 -78.5q0 -33 -17 -56.5t-47 -35.5q33 -11 52.5 -35t19.5 -56q0 -55 -42.5 -84t-102.5 -29q-84 0 -133 54l38 43q35 -37 92 -37q35 0 57 15t22 44q0 26 -24 41t-59 15h-50v58h50q33 0 54 15t21 42q0 25 -20 40t-53 15q-54 0 -88 -41l-39 43
q48 57 129 57v0v0z" />
    <glyph glyph-name="acute" unicode="&#xb4;" horiz-adv-x="470" 
d="M237 699h103l-128 -153h-82z" />
    <glyph glyph-name="paragraph" unicode="&#xb6;" horiz-adv-x="591" 
d="M273 346q-98 1 -151.5 48t-53.5 129q0 83 53.5 130t150.5 47h67v-700h-66v346v0v0zM391 700h66v-700h-66v700z" />
    <glyph glyph-name="periodcentered" unicode="&#xb7;" horiz-adv-x="360" 
d="M181 331q26 0 45.5 -19.5t19.5 -46.5t-19.5 -46.5t-45.5 -19.5q-27 0 -47 19.5t-20 46.5t20 46.5t47 19.5v0v0z" />
    <glyph glyph-name="cedilla" unicode="&#xb8;" horiz-adv-x="468" 
d="M166 -162l55 165h81l-51 -165h-85z" />
    <glyph glyph-name="uni00B9" unicode="&#xb9;" horiz-adv-x="273" 
d="M131 307v306l-107 -42v65l174 69v-398h-67z" />
    <glyph glyph-name="ordmasculine" unicode="&#xba;" horiz-adv-x="429" 
d="M214 647q50 0 90.5 -22.5t63.5 -62t23 -88.5t-23 -89t-63.5 -62.5t-90.5 -22.5t-90 22.5t-63 62.5t-23 89t23 88.5t63 62t90 22.5v0v0zM214 586q-47 0 -78 -31.5t-31 -80.5t31 -80.5t78 -31.5t78.5 31.5t31.5 80.5t-31.5 80.5t-78.5 31.5v0v0z" />
    <glyph glyph-name="onequarter" unicode="&#xbc;" horiz-adv-x="815" 
d="M131 613l-107 -42v65l174 69v-398h-67v306zM575 700h81l-442 -700h-80zM670 75h-183v47l137 271h72l-131 -258h105v75l17 35h50v-110h59v-60h-59v-75h-67v75z" />
    <glyph glyph-name="onehalf" unicode="&#xbd;" horiz-adv-x="846" 
d="M536 332q49 67 134 67q61 0 96 -34t35 -89q0 -34 -14.5 -61t-43.5 -56l-97 -98h168v-61h-263v52l146 144q36 36 36 74q0 29 -18.5 47t-50.5 18q-50 0 -86 -46l-42 43v0v0zM131 307v306l-107 -42v65l174 69v-398h-67zM134 0l441 700h81l-442 -700h-80z" />
    <glyph glyph-name="threequarters" unicode="&#xbe;" horiz-adv-x="873" 
d="M154 705q62 0 101 -29.5t39 -78.5q0 -33 -17 -56.5t-47 -35.5q33 -11 52.5 -35t19.5 -56q0 -55 -42.5 -84t-102.5 -29q-84 0 -133 54l38 43q35 -37 92 -37q35 0 57 15t22 44q0 26 -24 41t-59 15h-50v58h50q33 0 54 15t21 42q0 25 -20 40t-53 15q-54 0 -88 -41l-39 43
q48 57 129 57v0v0zM192 0l441 700h81l-442 -700h-80zM854 135v-60h-60v-75h-66v75h-184v47l137 271h73l-131 -258h105v75l21 35h45v-110h60z" />
    <glyph glyph-name="questiondown" unicode="&#xbf;" horiz-adv-x="432" 
d="M292 354q-26 0 -45.5 19.5t-19.5 46.5q0 26 19.5 45.5t45.5 19.5t46 -19.5t20 -45.5q0 -27 -20 -46.5t-46 -19.5v0v0zM298 90q-83 0 -129.5 -32t-46.5 -90q0 -55 46.5 -86t126.5 -31q29 0 67 4l7 -85q-35 -6 -82 -6q-78 0 -136.5 24.5t-90 69.5t-31.5 105q0 85 57.5 138
t162.5 65l4 84h78v-160h-33v0v0z" />
    <glyph glyph-name="Agrave" unicode="&#xc0;" horiz-adv-x="715" 
d="M321 906l107 -153h-82l-128 153h103zM603 0l-76 189h-340l-76 -189h-94l285 700h111l286 -700h-96zM493 274l-136 338l-137 -338h273z" />
    <glyph glyph-name="Aacute" unicode="&#xc1;" horiz-adv-x="715" 
d="M389 906h103l-127 -153h-82zM603 0l-76 189h-340l-76 -189h-94l285 700h111l286 -700h-96zM493 274l-136 338l-137 -338h273z" />
    <glyph glyph-name="Acircumflex" unicode="&#xc2;" horiz-adv-x="715" 
d="M358 845l-86 -92h-85l118 147h106l118 -147h-85zM603 0l-76 189h-340l-76 -189h-94l285 700h111l286 -700h-96zM493 274l-136 338l-137 -338h273z" />
    <glyph glyph-name="Atilde" unicode="&#xc3;" horiz-adv-x="715" 
d="M178 825q23 31 50 45t64 14q25 0 43 -6t40 -18q3 -2 13 -6.5t19 -7t17 -2.5q18 0 33.5 9t32.5 28l48 -48q-23 -31 -50.5 -45.5t-63.5 -14.5q-25 0 -43 6t-40 18q-17 8 -27 12t-22 4q-18 0 -34 -9t-33 -27l-47 48v0v0zM603 0l-76 189h-340l-76 -189h-94l285 700h111
l286 -700h-96zM493 274l-136 338l-137 -338h273z" />
    <glyph glyph-name="Adieresis" unicode="&#xc4;" horiz-adv-x="715" 
d="M253 883q24 0 40.5 -17t16.5 -41q0 -23 -16.5 -39.5t-40.5 -16.5t-40 16.5t-16 39.5q0 24 16 41t40 17v0v0zM462 883q24 0 40.5 -17t16.5 -41q0 -23 -16.5 -39.5t-40.5 -16.5t-40 16.5t-16 39.5q0 24 16 41t40 17v0v0zM603 0l-76 189h-340l-76 -189h-94l285 700h111
l286 -700h-96zM493 274l-136 338l-137 -338h273z" />
    <glyph glyph-name="Aring" unicode="&#xc5;" horiz-adv-x="715" 
d="M358 742q-48 0 -82.5 33.5t-34.5 80.5q0 48 34.5 81.5t82.5 33.5t82 -33.5t34 -81.5q0 -47 -34 -80.5t-82 -33.5v0v0zM358 792q26 0 44.5 18.5t18.5 45.5t-18.5 45.5t-44.5 18.5t-44.5 -18.5t-18.5 -45.5t18.5 -45.5t44.5 -18.5v0v0zM603 0l-76 189h-340l-76 -189h-94
l285 700h111l286 -700h-96zM493 274l-136 338l-137 -338h273z" />
    <glyph glyph-name="AE" unicode="&#xc6;" horiz-adv-x="1140" 
d="M566 0v177h-312l-132 -177h-109l524 700h522v-83h-402v-223h389v-83h-389v-227h406v-84h-497zM566 597l-251 -335h251v335z" />
    <glyph glyph-name="Ccedilla" unicode="&#xc7;" horiz-adv-x="761" 
d="M419 710q92 0 169.5 -40t119.5 -109l-76 -48q-35 52 -90.5 81t-122.5 29q-76 0 -137 -34.5t-96 -96.5t-35 -142t35 -142.5t96.5 -96.5t136.5 -34q67 0 122.5 29t89.5 81l74 -53q-39 -59 -102.5 -96t-140.5 -46l-48 -154h-89l51 155q-92 9 -164.5 56.5t-113.5 126
t-41 174.5q0 104 47 186t129.5 128t185.5 46v0v0z" />
    <glyph glyph-name="Egrave" unicode="&#xc8;" horiz-adv-x="669" 
d="M303 906l107 -153h-82l-128 153h103zM96 0v700h493v-83h-403v-223h389v-83h-389v-227h407v-84h-497z" />
    <glyph glyph-name="Eacute" unicode="&#xc9;" horiz-adv-x="669" 
d="M371 906h103l-128 -153h-81zM96 0v700h493v-83h-403v-223h389v-83h-389v-227h407v-84h-497z" />
    <glyph glyph-name="Ecircumflex" unicode="&#xca;" horiz-adv-x="669" 
d="M340 845l-86 -92h-85l118 147h105l119 -147h-85zM96 0v700h493v-83h-403v-223h389v-83h-389v-227h407v-84h-497z" />
    <glyph glyph-name="Edieresis" unicode="&#xcb;" horiz-adv-x="669" 
d="M235 883q24 0 40.5 -17t16.5 -41q0 -23 -16.5 -39.5t-40.5 -16.5t-40 16.5t-16 39.5q0 24 16 41t40 17v0v0zM444 883q24 0 40.5 -17t16.5 -41q0 -23 -16.5 -39.5t-40.5 -16.5t-40 16.5t-16 39.5q0 24 16 41t40 17v0v0zM96 0v700h493v-83h-403v-223h389v-83h-389v-227h407
v-84h-497z" />
    <glyph glyph-name="Igrave" unicode="&#xcc;" horiz-adv-x="281" 
d="M104 906l107 -153h-82l-128 153h103zM96 0v700h90v-700h-90z" />
    <glyph glyph-name="Iacute" unicode="&#xcd;" horiz-adv-x="281" 
d="M172 906h103l-128 -153h-81zM96 0v700h90v-700h-90z" />
    <glyph glyph-name="Icircumflex" unicode="&#xce;" horiz-adv-x="281" 
d="M141 845l-86 -92h-86l119 147h106l118 -147h-86zM96 0v700h90v-700h-90z" />
    <glyph glyph-name="Idieresis" unicode="&#xcf;" horiz-adv-x="281" 
d="M36 883q24 0 40.5 -17t16.5 -41q0 -23 -16.5 -39.5t-40.5 -16.5t-40.5 16.5t-16.5 39.5q0 24 16.5 41t40.5 17v0v0zM244 883q24 0 41 -17t17 -41q0 -23 -17 -39.5t-41 -16.5q-23 0 -39.5 16.5t-16.5 39.5q0 24 16.5 41t39.5 17v0v0zM96 0v700h90v-700h-90z" />
    <glyph glyph-name="Eth" unicode="&#xd0;" horiz-adv-x="867" 
d="M437 700q113 0 197.5 -43t130 -122t45.5 -185t-45.5 -185t-130 -122t-197.5 -43h-268v312h-112v83h112v305h268v0v0zM259 85h178q134 0 206.5 72t72.5 193q0 122 -72.5 193.5t-206.5 71.5h-178v-220h197v-83h-197v-227v0v0z" />
    <glyph glyph-name="Ntilde" unicode="&#xd1;" horiz-adv-x="785" 
d="M213 825q23 31 50.5 45t63.5 14q26 0 44 -6t40 -18q18 -9 27 -12.5t21 -3.5q18 0 34 9t33 28l47 -48q-23 -31 -50.5 -45.5t-63.5 -14.5q-25 0 -43 6t-38 17q-17 9 -27.5 13t-23.5 4q-18 0 -33.5 -8.5t-33.5 -27.5l-47 48v0v0zM606 0l-420 548v-548h-90v700h83l420 -547
v547h91v-700h-84z" />
    <glyph glyph-name="Ograve" unicode="&#xd2;" horiz-adv-x="837" 
d="M419 710q103 0 185.5 -46t129.5 -128.5t47 -185.5t-47 -185.5t-129.5 -128.5t-185.5 -46t-185.5 46t-129.5 128t-47 186t47 186t129.5 128t185.5 46v0v0zM419 623q-76 0 -137 -34.5t-96 -96.5t-35 -142q0 -79 35 -141.5t96 -97t137 -34.5q75 0 136 34.5t96 96.5t35 142
t-35 142t-95.5 96.5t-136.5 34.5v0v0zM382 906l107 -153h-82l-128 153h103z" />
    <glyph glyph-name="Oacute" unicode="&#xd3;" horiz-adv-x="837" 
d="M419 710q103 0 185.5 -46t129.5 -128.5t47 -185.5t-47 -185.5t-129.5 -128.5t-185.5 -46t-185.5 46t-129.5 128t-47 186t47 186t129.5 128t185.5 46v0v0zM419 623q-76 0 -137 -34.5t-96 -96.5t-35 -142q0 -79 35 -141.5t96 -97t137 -34.5q75 0 136 34.5t96 96.5t35 142
t-35 142t-95.5 96.5t-136.5 34.5v0v0zM450 906h103l-127 -153h-83z" />
    <glyph glyph-name="Ocircumflex" unicode="&#xd4;" horiz-adv-x="837" 
d="M419 710q103 0 185.5 -46t129.5 -128.5t47 -185.5t-47 -185.5t-129.5 -128.5t-185.5 -46t-185.5 46t-129.5 128t-47 186t47 186t129.5 128t185.5 46v0v0zM419 623q-76 0 -137 -34.5t-96 -96.5t-35 -142q0 -79 35 -141.5t96 -97t137 -34.5q75 0 136 34.5t96 96.5t35 142
t-35 142t-95.5 96.5t-136.5 34.5v0v0zM419 845l-85 -92h-87l119 147h106l118 -147h-85z" />
    <glyph glyph-name="Otilde" unicode="&#xd5;" horiz-adv-x="837" 
d="M239 825q23 31 50 45t64 14q25 0 43 -6t40 -18q3 -2 13 -6.5t19 -7t17 -2.5q18 0 33.5 9t32.5 28l48 -48q-23 -31 -50.5 -45.5t-63.5 -14.5q-25 0 -43 6t-40 18q-17 8 -27 12t-22 4q-18 0 -34 -9t-33 -27l-47 48v0v0zM419 710q103 0 185.5 -46t129.5 -128.5t47 -185.5
t-47 -185.5t-129.5 -128.5t-185.5 -46t-185.5 46t-129.5 128t-47 186t47 186t129.5 128t185.5 46v0v0zM419 623q-76 0 -137 -34.5t-96 -96.5t-35 -142q0 -79 35 -141.5t96 -97t137 -34.5q75 0 136 34.5t96 96.5t35 142t-35 142t-95.5 96.5t-136.5 34.5v0v0z" />
    <glyph glyph-name="Odieresis" unicode="&#xd6;" horiz-adv-x="837" 
d="M314 883q24 0 40.5 -17t16.5 -41q0 -23 -16.5 -39.5t-40.5 -16.5t-40 16.5t-16 39.5q0 24 16 41t40 17v0v0zM523 883q24 0 40.5 -17t16.5 -41q0 -23 -16.5 -39.5t-40.5 -16.5t-40.5 16.5t-16.5 39.5q0 24 16.5 41t40.5 17v0v0zM419 710q103 0 185.5 -46t129.5 -128.5
t47 -185.5t-47 -185.5t-129.5 -128.5t-185.5 -46t-185.5 46t-129.5 128t-47 186t47 186t129.5 128t185.5 46v0v0zM419 623q-76 0 -137 -34.5t-96 -96.5t-35 -142q0 -79 35 -141.5t96 -97t137 -34.5q75 0 136 34.5t96 96.5t35 142t-35 142t-95.5 96.5t-136.5 34.5v0v0z" />
    <glyph glyph-name="multiply" unicode="&#xd7;" 
d="M246 264l-145 145l54 54l145 -145l146 146l53 -53l-146 -146l146 -146l-53 -54l-147 146l-144 -145l-53 53z" />
    <glyph glyph-name="Oslash" unicode="&#xd8;" horiz-adv-x="837" 
d="M419 710q65 0 123 -19.5t105 -55.5l75 75l57 -57l-74 -74q76 -97 76 -229q0 -103 -47 -185.5t-129.5 -128.5t-185.5 -46q-65 0 -123 19.5t-105 55.5l-74 -74l-57 56l73 74q-76 97 -76 229q0 104 47 186t129.5 128t185.5 46v0v0zM419 623q-76 0 -137 -34.5t-96 -96.5
t-35 -142q0 -94 49 -162l382 382q-69 53 -163 53v0v0zM686 350q0 92 -49 162l-382 -382q70 -53 164 -53q75 0 136 34.5t96 96.5t35 142v0v0z" />
    <glyph glyph-name="Ugrave" unicode="&#xd9;" horiz-adv-x="752" 
d="M666 276q0 -92 -37.5 -156.5t-103 -97t-149.5 -32.5t-149.5 32.5t-103 97t-37.5 156.5v424h90v-419q0 -101 55 -152.5t145 -51.5t144.5 51.5t54.5 152.5v419h91v-424v0v0zM339 906l107 -153h-82l-128 153h103z" />
    <glyph glyph-name="Uacute" unicode="&#xda;" horiz-adv-x="752" 
d="M666 276q0 -92 -37.5 -156.5t-103 -97t-149.5 -32.5t-149.5 32.5t-103 97t-37.5 156.5v424h90v-419q0 -101 55 -152.5t145 -51.5t144.5 51.5t54.5 152.5v419h91v-424v0v0zM407 906h103l-128 -153h-81z" />
    <glyph glyph-name="Ucircumflex" unicode="&#xdb;" horiz-adv-x="752" 
d="M666 276q0 -92 -37.5 -156.5t-103 -97t-149.5 -32.5t-149.5 32.5t-103 97t-37.5 156.5v424h90v-419q0 -101 55 -152.5t145 -51.5t144.5 51.5t54.5 152.5v419h91v-424v0v0zM376 845l-86 -92h-85l118 147h106l118 -147h-86z" />
    <glyph glyph-name="Udieresis" unicode="&#xdc;" horiz-adv-x="752" 
d="M271 883q24 0 40.5 -17t16.5 -41q0 -23 -16.5 -39.5t-40.5 -16.5t-40 16.5t-16 39.5q0 24 16 41t40 17v0v0zM480 883q24 0 40.5 -17t16.5 -41q0 -23 -16.5 -39.5t-40.5 -16.5t-40 16.5t-16 39.5q0 24 16 41t40 17v0v0zM666 276q0 -92 -37.5 -156.5t-103 -97t-149.5 -32.5
t-149.5 32.5t-103 97t-37.5 156.5v424h90v-419q0 -101 55 -152.5t145 -51.5t144.5 51.5t54.5 152.5v419h91v-424v0v0z" />
    <glyph glyph-name="Yacute" unicode="&#xdd;" horiz-adv-x="650" 
d="M358 906h103l-128 -153h-82zM371 0h-90v292l-276 408h107l215 -325l214 325h104l-274 -409v-291z" />
    <glyph glyph-name="Thorn" unicode="&#xde;" horiz-adv-x="664" 
d="M365 571q119 0 184.5 -56.5t65.5 -156.5t-65.5 -156.5t-184.5 -56.5h-179v-145h-90v700h90v-129h179v0v0zM363 229q77 0 118.5 32.5t41.5 96.5q0 63 -41.5 96t-118.5 33h-177v-258h177v0v0z" />
    <glyph glyph-name="germandbls" unicode="&#xdf;" horiz-adv-x="611" 
d="M79 507q0 63 25.5 113.5t78 80t129.5 29.5q66 0 119 -25t83 -69t30 -101q0 -63 -31.5 -107t-81.5 -61q56 -15 94.5 -62.5t38.5 -109.5t-28 -108.5t-76.5 -71.5t-109.5 -25q-62 0 -116 21l16 74q41 -18 87 -18q65 0 103 34t38 97t-43.5 95t-118.5 32h-29v75h17
q68 0 111 29.5t43 94.5q0 61 -42 94t-106 33q-68 0 -107.5 -40t-39.5 -108v-503h-84v507v0v0z" />
    <glyph glyph-name="agrave" unicode="&#xe0;" horiz-adv-x="619" 
d="M454 77q-28 -40 -71.5 -63.5t-99.5 -23.5q-65 0 -119 32.5t-85 89t-31 126.5t31 126.5t85 88.5t119 32q57 0 100 -22.5t71 -63.5v77h83v-476h-83v77v0v0zM296 407q-47 0 -84 -22.5t-57.5 -61t-20.5 -85.5t20.5 -85.5t57.5 -61t84 -22.5t83.5 22t57 60.5t20.5 86.5
t-20.5 86.5t-57 60.5t-83.5 22v0v0zM263 699l107 -153h-82l-128 153h103z" />
    <glyph glyph-name="aacute" unicode="&#xe1;" horiz-adv-x="619" 
d="M454 77q-28 -40 -71.5 -63.5t-99.5 -23.5q-65 0 -119 32.5t-85 89t-31 126.5t31 126.5t85 88.5t119 32q57 0 100 -22.5t71 -63.5v77h83v-476h-83v77v0v0zM296 407q-47 0 -84 -22.5t-57.5 -61t-20.5 -85.5t20.5 -85.5t57.5 -61t84 -22.5t83.5 22t57 60.5t20.5 86.5
t-20.5 86.5t-57 60.5t-83.5 22v0v0zM342 699h103l-127 -153h-82z" />
    <glyph glyph-name="acircumflex" unicode="&#xe2;" horiz-adv-x="619" 
d="M454 77q-28 -40 -71.5 -63.5t-99.5 -23.5q-65 0 -119 32.5t-85 89t-31 126.5t31 126.5t85 88.5t119 32q57 0 100 -22.5t71 -63.5v77h83v-476h-83v77v0v0zM296 407q-47 0 -84 -22.5t-57.5 -61t-20.5 -85.5t20.5 -85.5t57.5 -61t84 -22.5t83.5 22t57 60.5t20.5 86.5
t-20.5 86.5t-57 60.5t-83.5 22v0v0zM305 639l-85 -93h-86l119 147h105l119 -147h-86z" />
    <glyph glyph-name="atilde" unicode="&#xe3;" horiz-adv-x="619" 
d="M129 619q23 30 50 44.5t63 14.5q25 0 43 -6t40 -18q3 -2 13 -6.5t19 -7t17 -2.5q18 0 34 9t33 27l47 -48q-24 -30 -51 -44.5t-63 -14.5q-25 0 -43 6t-39 17q-17 9 -27 13t-23 4q-18 0 -33.5 -9t-32.5 -28l-47 49v0v0zM454 77q-28 -40 -71.5 -63.5t-99.5 -23.5
q-65 0 -119 32.5t-85 89t-31 126.5t31 126.5t85 88.5t119 32q57 0 100 -22.5t71 -63.5v77h83v-476h-83v77v0v0zM296 407q-47 0 -84 -22.5t-57.5 -61t-20.5 -85.5t20.5 -85.5t57.5 -61t84 -22.5t83.5 22t57 60.5t20.5 86.5t-20.5 86.5t-57 60.5t-83.5 22v0v0z" />
    <glyph glyph-name="adieresis" unicode="&#xe4;" horiz-adv-x="619" 
d="M201 676q24 0 40.5 -16.5t16.5 -40.5t-16.5 -40t-40.5 -16t-40.5 16t-16.5 40t16.5 40.5t40.5 16.5v0v0zM409 676q24 0 40.5 -16.5t16.5 -40.5t-16.5 -40t-40.5 -16t-40 16t-16 40t16 40.5t40 16.5v0v0zM454 77q-28 -40 -71.5 -63.5t-99.5 -23.5q-65 0 -119 32.5t-85 89
t-31 126.5t31 126.5t85 88.5t119 32q57 0 100 -22.5t71 -63.5v77h83v-476h-83v77v0v0zM296 407q-47 0 -84 -22.5t-57.5 -61t-20.5 -85.5t20.5 -85.5t57.5 -61t84 -22.5t83.5 22t57 60.5t20.5 86.5t-20.5 86.5t-57 60.5t-83.5 22v0v0z" />
    <glyph glyph-name="aring" unicode="&#xe5;" horiz-adv-x="619" 
d="M305 535q-48 0 -82 34t-34 81t34 81t82 34t82.5 -34t34.5 -81t-34.5 -81t-82.5 -34v0v0zM305 586q26 0 44.5 18.5t18.5 45.5q0 26 -18.5 44.5t-44.5 18.5t-44.5 -18.5t-18.5 -44.5q0 -27 18.5 -45.5t44.5 -18.5v0v0zM454 77q-28 -40 -71.5 -63.5t-99.5 -23.5
q-65 0 -119 32.5t-85 89t-31 126.5t31 126.5t85 88.5t119 32q57 0 100 -22.5t71 -63.5v77h83v-476h-83v77v0v0zM296 407q-47 0 -84 -22.5t-57.5 -61t-20.5 -85.5t20.5 -85.5t57.5 -61t84 -22.5t83.5 22t57 60.5t20.5 86.5t-20.5 86.5t-57 60.5t-83.5 22v0v0z" />
    <glyph glyph-name="ae" unicode="&#xe6;" horiz-adv-x="897" 
d="M624 485q65 0 116 -31t80 -86.5t29 -127.5q0 -13 -2 -31h-375q8 -69 52 -107.5t108 -38.5q82 0 146 59l47 -55q-78 -77 -198 -77q-61 0 -111 24t-83 67q-35 -41 -85 -66t-115 -25q-86 0 -135.5 39.5t-49.5 104.5q0 64 52 101.5t146 37.5h140q-2 70 -34.5 104t-100.5 34
q-74 0 -140 -48l-35 64q78 58 186 58q66 0 111 -24.5t65 -74.5q29 47 78 73t108 26v0v0zM622 411q-61 0 -101 -37.5t-49 -100.5h291q-7 63 -45.5 100.5t-95.5 37.5v0v0zM246 62q45 0 86.5 21t69.5 57q-13 35 -16 70h-129q-62 0 -91 -20t-29 -54q0 -33 28.5 -53.5t80.5 -20.5
v0v0z" />
    <glyph glyph-name="ccedilla" unicode="&#xe7;" horiz-adv-x="514" 
d="M296 485q55 0 101.5 -20.5t79.5 -59.5l-59 -52q-52 54 -125 54q-45 0 -81 -21.5t-57 -60t-21 -87.5t21 -87.5t57 -60t81 -21.5q71 0 127 56l57 -54q-57 -67 -147 -78l-48 -155h-85l52 156q-91 15 -146 82t-55 162q0 70 31.5 126.5t88 88.5t128.5 32v0v0z" />
    <glyph glyph-name="egrave" unicode="&#xe8;" horiz-adv-x="560" 
d="M286 485q64 0 115.5 -31t80.5 -87t29 -127q0 -22 -1 -31h-375q7 -69 51 -107.5t109 -38.5q80 0 146 59l47 -55q-77 -77 -198 -77q-70 0 -125 31.5t-86 87.5t-31 128t30.5 128.5t85 88t122.5 31.5v0v0zM285 412q-61 0 -101 -38t-48 -101h290q-7 63 -45.5 101t-95.5 38v0v0
zM243 699l106 -153h-81l-128 153h103z" />
    <glyph glyph-name="eacute" unicode="&#xe9;" horiz-adv-x="560" 
d="M286 485q64 0 115.5 -31t80.5 -87t29 -127q0 -22 -1 -31h-375q7 -69 51 -107.5t109 -38.5q80 0 146 59l47 -55q-77 -77 -198 -77q-70 0 -125 31.5t-86 87.5t-31 128t30.5 128.5t85 88t122.5 31.5v0v0zM285 412q-61 0 -101 -38t-48 -101h290q-7 63 -45.5 101t-95.5 38v0v0
zM322 699h103l-128 -153h-82z" />
    <glyph glyph-name="ecircumflex" unicode="&#xea;" horiz-adv-x="560" 
d="M286 485q64 0 115.5 -31t80.5 -87t29 -127q0 -22 -1 -31h-375q7 -69 51 -107.5t109 -38.5q80 0 146 59l47 -55q-77 -77 -198 -77q-70 0 -125 31.5t-86 87.5t-31 128t30.5 128.5t85 88t122.5 31.5v0v0zM285 412q-61 0 -101 -38t-48 -101h290q-7 63 -45.5 101t-95.5 38v0v0
zM285 639l-86 -93h-86l119 147h105l119 -147h-86z" />
    <glyph glyph-name="edieresis" unicode="&#xeb;" horiz-adv-x="560" 
d="M179 676q24 0 40.5 -16.5t16.5 -40.5t-16.5 -40t-40.5 -16t-40 16t-16 40t16 40.5t40 16.5v0v0zM388 676q24 0 40.5 -16.5t16.5 -40.5t-16.5 -40t-40.5 -16t-40 16t-16 40t16 40.5t40 16.5v0v0zM286 485q64 0 115.5 -31t80.5 -87t29 -127q0 -22 -1 -31h-375
q7 -69 51 -107.5t109 -38.5q80 0 146 59l47 -55q-77 -77 -198 -77q-70 0 -125 31.5t-86 87.5t-31 128t30.5 128.5t85 88t122.5 31.5v0v0zM285 412q-61 0 -101 -38t-48 -101h290q-7 63 -45.5 101t-95.5 38v0v0z" />
    <glyph glyph-name="igrave" unicode="&#xec;" horiz-adv-x="250" 
d="M83 699l107 -153h-82l-128 153h103zM83 0v476h84v-476h-84z" />
    <glyph glyph-name="iacute" unicode="&#xed;" horiz-adv-x="250" 
d="M162 699h103l-128 -153h-81zM83 0v476h84v-476h-84z" />
    <glyph glyph-name="icircumflex" unicode="&#xee;" horiz-adv-x="250" 
d="M125 639l-85 -93h-86l118 147h106l118 -147h-85zM83 0v476h84v-476h-84z" />
    <glyph glyph-name="idieresis" unicode="&#xef;" horiz-adv-x="250" 
d="M20 676q24 0 40.5 -16.5t16.5 -40.5t-16.5 -40t-40.5 -16t-40.5 16t-16.5 40t16.5 40.5t40.5 16.5v0v0zM229 676q24 0 40.5 -16.5t16.5 -40.5t-16.5 -40t-40.5 -16t-40.5 16t-16.5 40t16.5 40.5t40.5 16.5v0v0zM83 0v476h84v-476h-84z" />
    <glyph glyph-name="eth" unicode="&#xf0;" horiz-adv-x="596" 
d="M368 613q83 -74 131.5 -172t48.5 -200q0 -70 -32.5 -127.5t-90 -90.5t-127.5 -33t-127 32t-90 87t-33 122q0 68 31 123t84 86.5t118 31.5q46 0 85 -17t66 -47q-40 90 -133 163l-124 -73l-29 48l102 60q-46 31 -104 57l42 63q72 -30 135 -76l114 67l30 -48l-97 -56v0v0z
M299 395q-47 0 -84.5 -21t-59 -58.5t-21.5 -84.5t21.5 -84t59 -58t84.5 -21t84.5 21t59 58t21.5 84t-21.5 84.5t-59 58.5t-84.5 21v0v0z" />
    <glyph glyph-name="ntilde" unicode="&#xf1;" horiz-adv-x="596" 
d="M129 619q24 30 51 44.5t63 14.5q25 0 43 -6t40 -18q3 -2 13 -6.5t19 -7t17 -2.5q18 0 33.5 8.5t32.5 27.5l48 -48q-23 -30 -50.5 -44.5t-63.5 -14.5q-25 0 -43 6t-40 18q-17 8 -27 12t-22 4q-18 0 -34 -9t-33 -28l-47 49v0v0zM324 485q87 0 141 -51.5t54 -137.5v-296h-85
v270q0 64 -34 100t-95 36q-59 0 -98.5 -38t-39.5 -101v-267h-84v476h83v-73q26 42 67.5 62t90.5 20v0v0z" />
    <glyph glyph-name="ograve" unicode="&#xf2;" horiz-adv-x="598" 
d="M299 485q71 0 128 -32t90 -88.5t33 -126.5t-33 -126.5t-90.5 -89t-127.5 -32.5q-71 0 -128.5 32.5t-90 89t-32.5 126.5t32.5 126.5t90 88.5t128.5 32v0v0zM299 407q-46 0 -84 -22t-59.5 -60.5t-21.5 -86.5t21.5 -86.5t59.5 -60.5t84 -22t84 22t59.5 60.5t21.5 86.5
t-21.5 86.5t-59.5 60.5t-84 22v0v0zM257 699l107 -153h-82l-128 153h103z" />
    <glyph glyph-name="oacute" unicode="&#xf3;" horiz-adv-x="598" 
d="M299 485q71 0 128 -32t90 -88.5t33 -126.5t-33 -126.5t-90.5 -89t-127.5 -32.5q-71 0 -128.5 32.5t-90 89t-32.5 126.5t32.5 126.5t90 88.5t128.5 32v0v0zM299 407q-46 0 -84 -22t-59.5 -60.5t-21.5 -86.5t21.5 -86.5t59.5 -60.5t84 -22t84 22t59.5 60.5t21.5 86.5
t-21.5 86.5t-59.5 60.5t-84 22v0v0zM336 699h103l-127 -153h-83z" />
    <glyph glyph-name="ocircumflex" unicode="&#xf4;" horiz-adv-x="598" 
d="M299 485q71 0 128 -32t90 -88.5t33 -126.5t-33 -126.5t-90.5 -89t-127.5 -32.5q-71 0 -128.5 32.5t-90 89t-32.5 126.5t32.5 126.5t90 88.5t128.5 32v0v0zM299 407q-46 0 -84 -22t-59.5 -60.5t-21.5 -86.5t21.5 -86.5t59.5 -60.5t84 -22t84 22t59.5 60.5t21.5 86.5
t-21.5 86.5t-59.5 60.5t-84 22v0v0zM299 639l-86 -93h-85l119 147h105l118 -147h-85z" />
    <glyph glyph-name="otilde" unicode="&#xf5;" horiz-adv-x="598" 
d="M122 619q24 30 51 44.5t63 14.5q25 0 43 -6t40 -18q3 -2 13 -6.5t19 -7t17 -2.5q18 0 33.5 8.5t32.5 27.5l48 -48q-23 -30 -50.5 -44.5t-63.5 -14.5q-25 0 -43 6t-39 17q-17 9 -27 13t-23 4q-18 0 -33.5 -9t-33.5 -28l-47 49v0v0zM299 485q71 0 128 -32t90 -88.5
t33 -126.5t-33 -126.5t-90.5 -89t-127.5 -32.5q-71 0 -128.5 32.5t-90 89t-32.5 126.5t32.5 126.5t90 88.5t128.5 32v0v0zM299 407q-46 0 -84 -22t-59.5 -60.5t-21.5 -86.5t21.5 -86.5t59.5 -60.5t84 -22t84 22t59.5 60.5t21.5 86.5t-21.5 86.5t-59.5 60.5t-84 22v0v0z" />
    <glyph glyph-name="odieresis" unicode="&#xf6;" horiz-adv-x="598" 
d="M194 676q24 0 40.5 -16.5t16.5 -40.5t-16.5 -40t-40.5 -16t-40 16t-16 40t16 40.5t40 16.5v0v0zM403 676q24 0 40.5 -16.5t16.5 -40.5t-16.5 -40t-40.5 -16t-40 16t-16 40t16 40.5t40 16.5v0v0zM299 485q71 0 128 -32t90 -88.5t33 -126.5t-33 -126.5t-90.5 -89
t-127.5 -32.5q-71 0 -128.5 32.5t-90 89t-32.5 126.5t32.5 126.5t90 88.5t128.5 32v0v0zM299 407q-46 0 -84 -22t-59.5 -60.5t-21.5 -86.5t21.5 -86.5t59.5 -60.5t84 -22t84 22t59.5 60.5t21.5 86.5t-21.5 86.5t-59.5 60.5t-84 22v0v0z" />
    <glyph glyph-name="divide" unicode="&#xf7;" 
d="M301 485q23 0 39 -16t16 -39t-16.5 -39.5t-38.5 -16.5t-39 17t-17 39t16.5 38.5t39.5 16.5v0v0zM301 159q23 0 39 -16t16 -39t-16.5 -39.5t-38.5 -16.5t-39 17t-17 39t16.5 38.5t39.5 16.5v0v0zM81 230v73h438v-73h-438z" />
    <glyph glyph-name="oslash" unicode="&#xf8;" horiz-adv-x="598" 
d="M299 485q87 0 151 -47l55 55l50 -49l-55 -54q50 -68 50 -152q0 -70 -33 -126.5t-90.5 -89t-127.5 -32.5q-84 0 -151 48l-54 -56l-50 49l54 55q-24 31 -37 70t-13 82q0 70 32.5 126.5t90 88.5t128.5 32v0v0zM299 408q-47 0 -84.5 -22t-59.5 -60.5t-22 -87.5q0 -52 27 -92
l233 233q-42 29 -94 29v0v0zM465 238q0 51 -26 93l-234 -234q44 -29 94 -29q47 0 85 22t59.5 61t21.5 87v0v0z" />
    <glyph glyph-name="ugrave" unicode="&#xf9;" horiz-adv-x="591" 
d="M514 199q0 -68 -29.5 -115t-79 -70.5t-109.5 -23.5q-61 0 -110.5 23.5t-78.5 70.5t-29 115v277h84v-269q0 -67 36.5 -102.5t97.5 -35.5q60 0 96.5 35.5t36.5 102.5v269h85v-277v0v0zM254 699l107 -153h-82l-128 153h103z" />
    <glyph glyph-name="uacute" unicode="&#xfa;" horiz-adv-x="591" 
d="M514 199q0 -68 -29.5 -115t-79 -70.5t-109.5 -23.5q-61 0 -110.5 23.5t-78.5 70.5t-29 115v277h84v-269q0 -67 36.5 -102.5t97.5 -35.5q60 0 96.5 35.5t36.5 102.5v269h85v-277v0v0zM333 699h103l-128 -153h-82z" />
    <glyph glyph-name="ucircumflex" unicode="&#xfb;" horiz-adv-x="591" 
d="M514 199q0 -68 -29.5 -115t-79 -70.5t-109.5 -23.5q-61 0 -110.5 23.5t-78.5 70.5t-29 115v277h84v-269q0 -67 36.5 -102.5t97.5 -35.5q60 0 96.5 35.5t36.5 102.5v269h85v-277v0v0zM296 639l-86 -93h-85l118 147h105l119 -147h-85z" />
    <glyph glyph-name="udieresis" unicode="&#xfc;" horiz-adv-x="591" 
d="M191 676q24 0 40.5 -16.5t16.5 -40.5t-16.5 -40t-40.5 -16t-40 16t-16 40t16 40.5t40 16.5v0v0zM400 676q24 0 40.5 -16.5t16.5 -40.5t-16.5 -40t-40.5 -16t-40.5 16t-16.5 40t16.5 40.5t40.5 16.5v0v0zM514 199q0 -68 -29.5 -115t-79 -70.5t-109.5 -23.5
q-61 0 -110.5 23.5t-78.5 70.5t-29 115v277h84v-269q0 -67 36.5 -102.5t97.5 -35.5q60 0 96.5 35.5t36.5 102.5v269h85v-277v0v0z" />
    <glyph glyph-name="yacute" unicode="&#xfd;" horiz-adv-x="533" 
d="M307 699h103l-128 -153h-82zM50 -202l177 306l-217 372h95l169 -287l159 287h93l-383 -678h-93z" />
    <glyph glyph-name="thorn" unicode="&#xfe;" horiz-adv-x="620" 
d="M337 485q65 0 119 -32t85 -88.5t31 -126.5t-31 -126.5t-85 -89t-119 -32.5q-56 0 -99 22.5t-71 62.5v-275h-84v920h84v-319q28 39 71 61.5t99 22.5v0v0zM323 407q-46 0 -83 -22t-57.5 -60.5t-20.5 -86.5t20.5 -86.5t57.5 -60.5t83 -22q47 0 84 22.5t57.5 61t20.5 85.5
t-20.5 85.5t-57.5 61t-84 22.5v0v0z" />
    <glyph glyph-name="ydieresis" unicode="&#xff;" horiz-adv-x="533" 
d="M164 676q24 0 40.5 -16.5t16.5 -40.5t-16.5 -40t-40.5 -16q-23 0 -39.5 16t-16.5 40t16.5 40.5t39.5 16.5v0v0zM373 676q24 0 40.5 -16.5t16.5 -40.5t-16.5 -40t-40.5 -16t-40 16t-16 40t16 40.5t40 16.5v0v0zM50 -202l177 306l-217 372h95l169 -287l159 287h93
l-383 -678h-93z" />
    <glyph glyph-name="Amacron" unicode="&#x100;" horiz-adv-x="715" 
d="M511 859v-67h-306v67h306zM603 0l-76 189h-340l-76 -189h-94l285 700h111l286 -700h-96zM493 274l-136 338l-137 -338h273z" />
    <glyph glyph-name="amacron" unicode="&#x101;" horiz-adv-x="619" 
d="M454 77q-28 -40 -71.5 -63.5t-99.5 -23.5q-65 0 -119 32.5t-85 89t-31 126.5t31 126.5t85 88.5t119 32q57 0 100 -22.5t71 -63.5v77h83v-476h-83v77v0v0zM296 407q-47 0 -84 -22.5t-57.5 -61t-20.5 -85.5t20.5 -85.5t57.5 -61t84 -22.5t83.5 22t57 60.5t20.5 86.5
t-20.5 86.5t-57 60.5t-83.5 22v0v0zM459 653v-68h-307v68h307z" />
    <glyph glyph-name="Abreve" unicode="&#x102;" horiz-adv-x="715" 
d="M250 913q13 -47 41 -70.5t67 -23.5q80 0 107 94l67 -20q-19 -70 -64 -106.5t-110 -36.5t-109.5 37t-63.5 106l65 20v0v0zM603 0l-76 189h-340l-76 -189h-94l285 700h111l286 -700h-96zM493 274l-136 338l-137 -338h273z" />
    <glyph glyph-name="abreve" unicode="&#x103;" horiz-adv-x="619" 
d="M198 706q27 -94 107 -94t108 94l66 -20q-19 -69 -64 -106t-110 -37t-109.5 37t-63.5 106l66 20v0v0zM454 77q-28 -40 -71.5 -63.5t-99.5 -23.5q-65 0 -119 32.5t-85 89t-31 126.5t31 126.5t85 88.5t119 32q57 0 100 -22.5t71 -63.5v77h83v-476h-83v77v0v0zM296 407
q-47 0 -84 -22.5t-57.5 -61t-20.5 -85.5t20.5 -85.5t57.5 -61t84 -22.5t83.5 22t57 60.5t20.5 86.5t-20.5 86.5t-57 60.5t-83.5 22v0v0z" />
    <glyph glyph-name="Aogonek" unicode="&#x104;" horiz-adv-x="715" 
d="M701 -165q-40 -42 -103 -42q-48 0 -78 24t-30 65q0 37 27.5 66.5t82.5 57.5l-73 183h-340l-76 -189h-94l285 701h111l286 -701h-28q-55 -25 -80.5 -49.5t-25.5 -50.5q0 -18 11.5 -28t31.5 -10q29 0 50 24l43 -51v0v0zM493 274l-136 338l-137 -338h273z" />
    <glyph glyph-name="aogonek" unicode="&#x105;" horiz-adv-x="619" 
d="M459 -207q-48 0 -78.5 24t-30.5 65q0 37 26 65.5t78 54.5v75q-28 -40 -71.5 -63.5t-99.5 -23.5q-65 0 -119 32.5t-85 89t-31 126.5t31 126.5t85 88.5t119 32q57 0 100 -22.5t71 -63.5v77h83v-476q-59 -25 -85 -48t-26 -52q0 -18 11.5 -28t31.5 -10q28 0 50 24l43 -51
q-42 -42 -103 -42v0v0zM296 69q47 0 83.5 22t57 60.5t20.5 86.5t-20.5 86.5t-57 60.5t-83.5 22t-84 -22.5t-57.5 -61t-20.5 -85.5t20.5 -85.5t57.5 -61t84 -22.5v0v0z" />
    <glyph glyph-name="Cacute" unicode="&#x106;" horiz-adv-x="761" 
d="M419 710q92 0 169.5 -40t119.5 -109l-76 -48q-35 52 -90.5 81t-122.5 29q-76 0 -137 -34.5t-96 -96.5t-35 -142t35 -142.5t96.5 -96.5t136.5 -34q67 0 122.5 29t89.5 81l74 -53q-45 -67 -120 -105.5t-166 -38.5q-103 0 -185.5 46t-129.5 128t-47 186t47 186t129.5 128
t185.5 46v0v0zM447 906h103l-128 -153h-81z" />
    <glyph glyph-name="cacute" unicode="&#x107;" horiz-adv-x="514" 
d="M296 485q55 0 101.5 -20.5t79.5 -59.5l-59 -52q-52 54 -125 54q-45 0 -81 -21.5t-57 -60t-21 -87.5t21 -87.5t57 -60t81 -21.5q71 0 127 56l57 -54q-33 -39 -79.5 -60t-101.5 -21q-72 0 -128.5 32.5t-88 89t-31.5 126.5t31.5 126.5t88 88.5t128.5 32v0v0zM328 699h103
l-127 -153h-82z" />
    <glyph glyph-name="Ccircumflex" unicode="&#x108;" horiz-adv-x="761" 
d="M419 710q92 0 169.5 -40t119.5 -109l-76 -48q-35 52 -90.5 81t-122.5 29q-76 0 -137 -34.5t-96 -96.5t-35 -142t35 -142.5t96.5 -96.5t136.5 -34q67 0 122.5 29t89.5 81l74 -53q-45 -67 -120 -105.5t-166 -38.5q-103 0 -185.5 46t-129.5 128t-47 186t47 186t129.5 128
t185.5 46v0v0zM416 845l-86 -92h-85l118 147h106l118 -147h-85z" />
    <glyph glyph-name="ccircumflex" unicode="&#x109;" horiz-adv-x="514" 
d="M296 485q55 0 101.5 -20.5t79.5 -59.5l-59 -52q-52 54 -125 54q-45 0 -81 -21.5t-57 -60t-21 -87.5t21 -87.5t57 -60t81 -21.5q71 0 127 56l57 -54q-33 -39 -79.5 -60t-101.5 -21q-72 0 -128.5 32.5t-88 89t-31.5 126.5t31.5 126.5t88 88.5t128.5 32v0v0zM291 639
l-86 -93h-85l119 147h105l119 -147h-86z" />
    <glyph glyph-name="Cdotaccent" unicode="&#x10a;" horiz-adv-x="761" 
d="M408 887q25 0 42 -17t17 -42t-17 -42t-42 -17t-41.5 17t-16.5 42t16.5 42t41.5 17v0v0zM419 710q92 0 169.5 -40t119.5 -109l-76 -48q-35 52 -90.5 81t-122.5 29q-76 0 -137 -34.5t-96 -96.5t-35 -142t35 -142.5t96.5 -96.5t136.5 -34q67 0 122.5 29t89.5 81l74 -53
q-45 -67 -120 -105.5t-166 -38.5q-103 0 -185.5 46t-129.5 128t-47 186t47 186t129.5 128t185.5 46v0v0z" />
    <glyph glyph-name="cdotaccent" unicode="&#x10b;" horiz-adv-x="514" 
d="M291 698q24 0 40.5 -16.5t16.5 -40.5t-16.5 -40t-40.5 -16t-40 16t-16 40t16 40.5t40 16.5v0v0zM296 485q55 0 101.5 -20.5t79.5 -59.5l-59 -52q-52 54 -125 54q-45 0 -81 -21.5t-57 -60t-21 -87.5t21 -87.5t57 -60t81 -21.5q71 0 127 56l57 -54q-33 -39 -79.5 -60
t-101.5 -21q-72 0 -128.5 32.5t-88 89t-31.5 126.5t31.5 126.5t88 88.5t128.5 32v0v0z" />
    <glyph glyph-name="Ccaron" unicode="&#x10c;" horiz-adv-x="761" 
d="M419 710q92 0 169.5 -40t119.5 -109l-76 -48q-35 52 -90.5 81t-122.5 29q-76 0 -137 -34.5t-96 -96.5t-35 -142t35 -142.5t96.5 -96.5t136.5 -34q67 0 122.5 29t89.5 81l74 -53q-45 -67 -120 -105.5t-166 -38.5q-103 0 -185.5 46t-129.5 128t-47 186t47 186t129.5 128
t185.5 46v0v0zM416 806l86 93h85l-118 -147h-106l-118 147h85z" />
    <glyph glyph-name="ccaron" unicode="&#x10d;" horiz-adv-x="514" 
d="M296 485q55 0 101.5 -20.5t79.5 -59.5l-59 -52q-52 54 -125 54q-45 0 -81 -21.5t-57 -60t-21 -87.5t21 -87.5t57 -60t81 -21.5q71 0 127 56l57 -54q-33 -39 -79.5 -60t-101.5 -21q-72 0 -128.5 32.5t-88 89t-31.5 126.5t31.5 126.5t88 88.5t128.5 32v0v0zM291 600l86 93
h86l-119 -148h-105l-119 148h85z" />
    <glyph glyph-name="Dcaron" unicode="&#x10e;" horiz-adv-x="792" 
d="M363 700q113 0 197.5 -43t130 -122t45.5 -185t-45.5 -185t-130 -122t-197.5 -43h-267v700h267v0v0zM363 85q134 0 206.5 72t72.5 193q0 122 -72.5 193.5t-206.5 71.5h-177v-530h177v0v0zM366 806l86 93h85l-118 -147h-105l-119 147h85z" />
    <glyph glyph-name="dcaron" unicode="&#x10f;" horiz-adv-x="653" 
d="M283 485q56 0 99 -22.5t71 -62.5v320h84v-720h-83v77q-28 -40 -71.5 -63.5t-99.5 -23.5q-65 0 -119 32.5t-85 89t-31 126.5t31 126.5t85 88.5t119 32v0v0zM296 407q-47 0 -84 -22.5t-57.5 -61t-20.5 -85.5t20.5 -85.5t57.5 -61t84 -22.5t83.5 22t57 60.5t20.5 86.5
t-20.5 86.5t-57 60.5t-83.5 22v0v0zM598 720h84l-20 -201h-68z" />
    <glyph glyph-name="Dcroat" unicode="&#x110;" horiz-adv-x="867" 
d="M437 700q113 0 197.5 -43t130 -122t45.5 -185t-45.5 -185t-130 -122t-197.5 -43h-268v312h-112v83h112v305h268v0v0zM259 85h178q134 0 206.5 72t72.5 193q0 122 -72.5 193.5t-206.5 71.5h-178v-220h197v-83h-197v-227v0v0z" />
    <glyph glyph-name="dcroat" unicode="&#x111;" horiz-adv-x="616" 
d="M537 0h-83v77q-28 -40 -71.5 -63.5t-99.5 -23.5q-65 0 -119 32.5t-85 89t-31 126.5t31 126.5t85 88.5t119 32q56 0 99 -22.5t71 -62.5v156h-204v72h204v92h84v-92h73v-72h-73v-556v0v0zM296 407q-47 0 -84 -22.5t-57.5 -61t-20.5 -85.5t20.5 -85.5t57.5 -61t84 -22.5
t83.5 22t57 60.5t20.5 86.5t-20.5 86.5t-57 60.5t-83.5 22v0v0z" />
    <glyph glyph-name="Emacron" unicode="&#x112;" horiz-adv-x="669" 
d="M493 859v-67h-306v67h306zM96 0v700h493v-83h-403v-223h389v-83h-389v-227h407v-84h-497z" />
    <glyph glyph-name="emacron" unicode="&#x113;" horiz-adv-x="560" 
d="M286 485q64 0 115.5 -31t80.5 -87t29 -127q0 -22 -1 -31h-375q7 -69 51 -107.5t109 -38.5q80 0 146 59l47 -55q-77 -77 -198 -77q-70 0 -125 31.5t-86 87.5t-31 128t30.5 128.5t85 88t122.5 31.5v0v0zM285 412q-61 0 -101 -38t-48 -101h290q-7 63 -45.5 101t-95.5 38v0v0
zM438 653v-68h-307v68h307z" />
    <glyph glyph-name="Ebreve" unicode="&#x114;" horiz-adv-x="669" 
d="M232 913q13 -47 41 -70.5t67 -23.5q80 0 107 94l67 -20q-19 -70 -64 -106.5t-110 -36.5t-110 36.5t-64 106.5l66 20v0v0zM96 0v700h493v-83h-403v-223h389v-83h-389v-227h407v-84h-497z" />
    <glyph glyph-name="ebreve" unicode="&#x115;" horiz-adv-x="560" 
d="M177 706q27 -94 108 -94q80 0 107 94l66 -20q-19 -69 -64 -106t-109 -37q-65 0 -110 37t-64 106l66 20v0v0zM286 485q64 0 115.5 -31t80.5 -87t29 -127q0 -22 -1 -31h-375q7 -69 51 -107.5t109 -38.5q80 0 146 59l47 -55q-77 -77 -198 -77q-70 0 -125 31.5t-86 87.5
t-31 128t30.5 128.5t85 88t122.5 31.5v0v0zM285 412q-61 0 -101 -38t-48 -101h290q-7 63 -45.5 101t-95.5 38v0v0z" />
    <glyph glyph-name="Edotaccent" unicode="&#x116;" horiz-adv-x="669" 
d="M333 887q24 0 41 -17t17 -42t-17 -42t-41 -17q-25 0 -42 17t-17 42t17 42t42 17v0v0zM96 0v700h493v-83h-403v-223h389v-83h-389v-227h407v-84h-497z" />
    <glyph glyph-name="edotaccent" unicode="&#x117;" horiz-adv-x="560" 
d="M285 698q23 0 39.5 -16.5t16.5 -40.5t-16.5 -40t-39.5 -16q-24 0 -40.5 16t-16.5 40t16.5 40.5t40.5 16.5v0v0zM286 485q64 0 115.5 -31t80.5 -87t29 -127q0 -22 -1 -31h-375q7 -69 51 -107.5t109 -38.5q80 0 146 59l47 -55q-77 -77 -198 -77q-70 0 -125 31.5t-86 87.5
t-31 128t30.5 128.5t85 88t122.5 31.5v0v0zM285 412q-61 0 -101 -38t-48 -101h290q-7 63 -45.5 101t-95.5 38v0v0z" />
    <glyph glyph-name="Eogonek" unicode="&#x118;" horiz-adv-x="669" 
d="M502 0q-38 -21 -55.5 -42.5t-17.5 -45.5q0 -23 16.5 -36.5t43.5 -13.5q38 0 68 28l45 -51q-24 -22 -55 -34t-66 -12q-58 0 -94.5 28.5t-36.5 73.5q0 33 17.5 58.5t52.5 46.5h-324v700h493v-83h-403v-223h389v-83h-389v-227h407v-84h-91v0v0z" />
    <glyph glyph-name="eogonek" unicode="&#x119;" horiz-adv-x="560" 
d="M485 -161q-49 -46 -121 -46q-58 0 -94.5 28.5t-36.5 73.5q0 55 56 97q-69 -1 -124 30t-86 87t-31 128t30.5 128.5t85 88t122.5 31.5q64 0 115.5 -31t80.5 -87t29 -127q0 -22 -1 -31h-375q7 -69 51 -107.5t109 -38.5q80 0 146 59l47 -55q-37 -37 -84 -56q-91 -43 -91 -99
q0 -23 15.5 -36.5t42.5 -13.5q39 0 70 28l44 -51v0v0zM285 412q-61 0 -101 -38t-48 -101h290q-7 63 -45.5 101t-95.5 38v0v0z" />
    <glyph glyph-name="Ecaron" unicode="&#x11a;" horiz-adv-x="669" 
d="M340 806l86 93h85l-119 -147h-105l-118 147h85zM96 0v700h493v-83h-403v-223h389v-83h-389v-227h407v-84h-497z" />
    <glyph glyph-name="ecaron" unicode="&#x11b;" horiz-adv-x="560" 
d="M286 485q64 0 115.5 -31t80.5 -87t29 -127q0 -22 -1 -31h-375q7 -69 51 -107.5t109 -38.5q80 0 146 59l47 -55q-77 -77 -198 -77q-70 0 -125 31.5t-86 87.5t-31 128t30.5 128.5t85 88t122.5 31.5v0v0zM285 412q-61 0 -101 -38t-48 -101h290q-7 63 -45.5 101t-95.5 38v0v0
zM285 600l85 93h86l-119 -148h-105l-119 148h86z" />
    <glyph glyph-name="Gcircumflex" unicode="&#x11c;" horiz-adv-x="812" 
d="M420 710q81 0 150.5 -30t118.5 -85l-66 -64q-37 44 -90 68.5t-115 24.5q-76 0 -136.5 -34.5t-95.5 -97t-35 -142.5q0 -81 35 -143t95.5 -96.5t133.5 -34.5q107 0 171 59t73 162h-215v79h310q1 -9 1 -24q0 -104 -42.5 -186.5t-119.5 -129t-177 -46.5q-96 0 -178 44
t-131.5 126t-49.5 190q0 104 47 186t130 128t186 46v0v0zM408 845l-85 -92h-86l118 147h106l118 -147h-85z" />
    <glyph glyph-name="gcircumflex" unicode="&#x11d;" horiz-adv-x="614" 
d="M278 485q57 0 100.5 -23t70.5 -64v78h83v-441q0 -77 -32 -131.5t-89 -82.5t-131 -28q-58 0 -112.5 17t-90.5 47l35 65q73 -54 166 -54q75 0 123 42.5t48 121.5v55q-28 -41 -71 -64.5t-100 -23.5q-63 0 -115.5 31t-83.5 86.5t-31 125.5t30.5 125.5t83.5 86.5t116 31v0v0z
M294 408q-46 0 -82.5 -22t-56.5 -60t-20 -84t20 -83.5t56.5 -59t82.5 -21.5t82 21.5t56.5 59t20.5 83.5q0 47 -20.5 84.5t-56.5 59.5t-82 22v0v0zM299 639l-86 -93h-85l118 147h106l118 -147h-86z" />
    <glyph glyph-name="Gbreve" unicode="&#x11e;" horiz-adv-x="812" 
d="M301 913q27 -94 107 -94q82 0 107 94l67 -20q-19 -69 -64 -106t-110 -37q-64 0 -109 37t-64 106l66 20v0v0zM420 710q81 0 150.5 -30t118.5 -85l-66 -64q-37 44 -90 68.5t-115 24.5q-76 0 -136.5 -34.5t-95.5 -97t-35 -142.5q0 -81 35 -143t95.5 -96.5t133.5 -34.5
q107 0 171 59t73 162h-215v79h310q1 -9 1 -24q0 -104 -42.5 -186.5t-119.5 -129t-177 -46.5q-96 0 -178 44t-131.5 126t-49.5 190q0 104 47 186t130 128t186 46v0v0z" />
    <glyph glyph-name="gbreve" unicode="&#x11f;" horiz-adv-x="614" 
d="M191 706q27 -94 108 -94q80 0 107 94l66 -20q-19 -69 -64 -106t-109 -37q-65 0 -110 37t-63 106l65 20v0v0zM278 485q57 0 100.5 -23t70.5 -64v78h83v-441q0 -77 -32 -131.5t-89 -82.5t-131 -28q-58 0 -112.5 17t-90.5 47l35 65q73 -54 166 -54q75 0 123 42.5t48 121.5
v55q-28 -41 -71 -64.5t-100 -23.5q-63 0 -115.5 31t-83.5 86.5t-31 125.5t30.5 125.5t83.5 86.5t116 31v0v0zM294 408q-46 0 -82.5 -22t-56.5 -60t-20 -84t20 -83.5t56.5 -59t82.5 -21.5t82 21.5t56.5 59t20.5 83.5q0 47 -20.5 84.5t-56.5 59.5t-82 22v0v0z" />
    <glyph glyph-name="Gdotaccent" unicode="&#x120;" horiz-adv-x="812" 
d="M401 887q25 0 42 -17t17 -42t-17 -42t-42 -17t-42 17t-17 42t17 42t42 17v0v0zM420 710q81 0 150.5 -30t118.5 -85l-66 -64q-37 44 -90 68.5t-115 24.5q-76 0 -136.5 -34.5t-95.5 -97t-35 -142.5q0 -81 35 -143t95.5 -96.5t133.5 -34.5q107 0 171 59t73 162h-215v79h310
q1 -9 1 -24q0 -104 -42.5 -186.5t-119.5 -129t-177 -46.5q-96 0 -178 44t-131.5 126t-49.5 190q0 104 47 186t130 128t186 46v0v0z" />
    <glyph glyph-name="gdotaccent" unicode="&#x121;" horiz-adv-x="614" 
d="M299 698q23 0 39.5 -16.5t16.5 -40.5t-16.5 -40t-39.5 -16q-24 0 -40 16t-16 40t16 40.5t40 16.5v0v0zM278 485q57 0 100.5 -23t70.5 -64v78h83v-441q0 -77 -32 -131.5t-89 -82.5t-131 -28q-58 0 -112.5 17t-90.5 47l35 65q73 -54 166 -54q75 0 123 42.5t48 121.5v55
q-28 -41 -71 -64.5t-100 -23.5q-63 0 -115.5 31t-83.5 86.5t-31 125.5t30.5 125.5t83.5 86.5t116 31v0v0zM294 408q-46 0 -82.5 -22t-56.5 -60t-20 -84t20 -83.5t56.5 -59t82.5 -21.5t82 21.5t56.5 59t20.5 83.5q0 47 -20.5 84.5t-56.5 59.5t-82 22v0v0z" />
    <glyph glyph-name="Hcircumflex" unicode="&#x124;" horiz-adv-x="780" 
d="M390 845l-86 -92h-85l118 147h106l119 -147h-87zM594 395v305h91v-700h-91v311h-408v-311h-90v700h90v-305h408z" />
    <glyph glyph-name="hcircumflex" unicode="&#x125;" horiz-adv-x="596" 
d="M167 405q26 41 67.5 60.5t89.5 19.5q87 0 141 -51.5t54 -137.5v-296h-85v270q0 64 -34 100t-95 36q-59 0 -98.5 -38t-39.5 -101v-267h-84v720h84v-315v0v0zM301 863l-86 -92h-86l118 147h106l119 -147h-86z" />
    <glyph glyph-name="Hbar" unicode="&#x126;" horiz-adv-x="810" 
d="M699 505v-505h-90v311h-408v-311h-91v505h-81v74h81v121h91v-121h408v121h90v-121h82v-74h-82zM609 505h-408v-110h408v110z" />
    <glyph glyph-name="hbar" unicode="&#x127;" horiz-adv-x="596" 
d="M167 405q26 41 67.5 60.5t89.5 19.5q87 0 141 -51.5t54 -137.5v-296h-85v270q0 64 -34 100t-95 36q-59 0 -98.5 -38t-39.5 -101v-267h-84v556h-84v72h84v92h84v-92h194v-72h-194v-151v0v0z" />
    <glyph glyph-name="Itilde" unicode="&#x128;" horiz-adv-x="281" 
d="M-39 825q22 31 49.5 45t63.5 14q26 0 44 -6t40 -18q17 -8 27 -12t22 -4q18 0 33.5 9t32.5 28l47 -48q-23 -31 -50 -45.5t-63 -14.5q-25 0 -43 6t-39 17q-17 9 -27.5 13t-23.5 4q-18 0 -33.5 -8.5t-32.5 -27.5l-47 48v0v0zM96 0v700h90v-700h-90z" />
    <glyph glyph-name="itilde" unicode="&#x129;" horiz-adv-x="250" 
d="M-52 619q23 30 50.5 44.5t63.5 14.5q25 0 43 -6t40 -18q3 -2 13 -6.5t19 -7t17 -2.5q18 0 34 9t33 27l47 -48q-23 -30 -50.5 -44.5t-63.5 -14.5q-25 0 -43 6t-40 18q-17 8 -27 12t-22 4q-18 0 -33.5 -9t-33.5 -28l-47 49v0v0zM83 0v476h84v-476h-84z" />
    <glyph glyph-name="Imacron" unicode="&#x12a;" horiz-adv-x="281" 
d="M294 859v-67h-307v67h307zM96 0v700h90v-700h-90z" />
    <glyph glyph-name="imacron" unicode="&#x12b;" horiz-adv-x="250" 
d="M278 653v-68h-307v68h307zM83 0v476h84v-476h-84z" />
    <glyph glyph-name="Ibreve" unicode="&#x12c;" horiz-adv-x="281" 
d="M33 913q27 -94 108 -94q80 0 107 94l66 -20q-19 -69 -64 -106t-109 -37q-65 0 -110 37t-64 106l66 20v0v0zM96 0v700h90v-700h-90z" />
    <glyph glyph-name="ibreve" unicode="&#x12d;" horiz-adv-x="250" 
d="M17 706q28 -94 108 -94t107 94l67 -20q-19 -70 -64 -106.5t-110 -36.5t-110 37t-64 106l66 20v0v0zM83 0v476h84v-476h-84z" />
    <glyph glyph-name="Iogonek" unicode="&#x12e;" horiz-adv-x="281" 
d="M247 -165q-40 -42 -102 -42q-48 0 -78.5 23.5t-30.5 64.5q0 34 19.5 62.5t57.5 56.5h-17v700h90v-700q-38 -27 -56 -50.5t-18 -49.5q0 -18 11.5 -28t31.5 -10q28 0 49 24l43 -51v0v0z" />
    <glyph glyph-name="iogonek" unicode="&#x12f;" horiz-adv-x="250" 
d="M125 698q24 0 40.5 -16.5t16.5 -40.5t-16.5 -40t-40.5 -16t-40.5 16t-16.5 40t16.5 40.5t40.5 16.5v0v0zM167 0q-38 -27 -55.5 -50.5t-17.5 -49.5q0 -18 11.5 -28t31.5 -10q28 0 49 24l44 -51q-42 -42 -103 -42q-48 0 -78.5 23.5t-30.5 64.5q0 33 20 62t58 57h-13v476h84
v-476v0v0z" />
    <glyph glyph-name="Idotaccent" unicode="&#x130;" horiz-adv-x="281" 
d="M133 887q25 0 42 -17t17 -42t-17 -42t-42 -17t-42 17t-17 42t17 42t42 17v0v0zM96 0v700h90v-700h-90z" />
    <glyph glyph-name="IJ" unicode="&#x132;" horiz-adv-x="852" 
d="M762 252q0 -82 -31.5 -141.5t-87.5 -90t-127 -30.5q-133 0 -216 96l56 64q62 -73 158 -73q73 0 115.5 47.5t42.5 136.5v439h90v-448v0v0zM96 0v700h90v-700h-90z" />
    <glyph glyph-name="ij" unicode="&#x133;" horiz-adv-x="501" 
d="M125 698q24 0 40.5 -16.5t16.5 -40.5t-16.5 -40t-40.5 -16t-40.5 16t-16.5 40t16.5 40.5t40.5 16.5v0v0zM375 698q24 0 40.5 -16.5t16.5 -40.5t-16.5 -40t-40.5 -16t-40 16t-16 40t16 40.5t40 16.5v0v0zM418 -73q0 -65 -32.5 -100t-89.5 -35q-18 0 -36.5 4t-31.5 11
l16 74q20 -10 42 -10q23 0 35.5 15t12.5 45v545h84v-549v0v0zM83 0v476h84v-476h-84z" />
    <glyph glyph-name="Jcircumflex" unicode="&#x134;" horiz-adv-x="572" 
d="M481 252q0 -82 -31.5 -141.5t-87.5 -90t-127 -30.5q-134 0 -215 96l56 64q27 -33 66 -53t91 -20q73 0 115.5 47.5t42.5 136.5v439h90v-448v0v0zM436 845l-85 -92h-86l118 147h106l118 -147h-85z" />
    <glyph glyph-name="jcircumflex" unicode="&#x135;" horiz-adv-x="251" 
d="M169 -73q0 -64 -33 -99.5t-89 -35.5q-18 0 -37 4t-32 11l16 74q22 -10 43 -10q48 0 48 60v545h84v-549v0v0zM126 639l-85 -93h-86l118 147h106l118 -147h-85z" />
    <glyph glyph-name="kgreenlandic" unicode="&#x138;" horiz-adv-x="528" 
d="M231 287l173 189h105l-209 -224l211 -252h-104l-177 212h-63v-212h-84v476h84v-189h64z" />
    <glyph glyph-name="Lacute" unicode="&#x139;" horiz-adv-x="603" 
d="M172 906h103l-128 -153h-81zM96 0v700h90v-615h398v-85h-488z" />
    <glyph glyph-name="lacute" unicode="&#x13a;" horiz-adv-x="250" 
d="M144 924h103l-128 -152h-82zM83 0v720h84v-720h-84z" />
    <glyph glyph-name="Lcaron" unicode="&#x13d;" horiz-adv-x="603" 
d="M96 0v700h90v-615h398v-85h-488zM303 700h84l-19 -201h-68z" />
    <glyph glyph-name="lcaron" unicode="&#x13e;" horiz-adv-x="279" 
d="M83 0v720h84v-720h-84zM222 720h85l-19 -201h-69z" />
    <glyph glyph-name="Ldot" unicode="&#x13f;" horiz-adv-x="603" 
d="M426 414q25 0 42 -17.5t17 -42.5t-17 -41.5t-42 -16.5t-41.5 16.5t-16.5 41.5t16.5 42.5t41.5 17.5v0v0zM96 0v700h90v-615h398v-85h-488z" />
    <glyph glyph-name="ldot" unicode="&#x140;" horiz-adv-x="316" 
d="M284 421q23 0 39.5 -16.5t16.5 -39.5t-16.5 -39t-39.5 -16t-39 16t-16 39t16 39.5t39 16.5v0v0zM83 0v720h84v-720h-84z" />
    <glyph glyph-name="Lslash" unicode="&#x141;" horiz-adv-x="668" 
d="M161 0v246l-104 -58v93l104 58v361h90v-310l252 141v-93l-252 -141v-212h398v-85h-488z" />
    <glyph glyph-name="lslash" unicode="&#x142;" horiz-adv-x="340" 
d="M315 517v-86l-103 -71v-360h-84v303l-103 -72v86l103 72v331h84v-275z" />
    <glyph glyph-name="Nacute" unicode="&#x143;" horiz-adv-x="785" 
d="M425 906h103l-128 -153h-82zM606 0l-420 548v-548h-90v700h83l420 -547v547h91v-700h-84z" />
    <glyph glyph-name="nacute" unicode="&#x144;" horiz-adv-x="596" 
d="M324 485q87 0 141 -51.5t54 -137.5v-296h-85v270q0 64 -34 100t-95 36q-59 0 -98.5 -38t-39.5 -101v-267h-84v476h83v-73q26 42 67.5 62t90.5 20v0v0zM343 699h103l-128 -153h-82z" />
    <glyph glyph-name="Ncaron" unicode="&#x147;" horiz-adv-x="785" 
d="M393 806l86 93h86l-119 -147h-105l-119 147h86zM606 0l-420 548v-548h-90v700h83l420 -547v547h91v-700h-84z" />
    <glyph glyph-name="ncaron" unicode="&#x148;" horiz-adv-x="596" 
d="M324 485q87 0 141 -51.5t54 -137.5v-296h-85v270q0 64 -34 100t-95 36q-59 0 -98.5 -38t-39.5 -101v-267h-84v476h83v-73q26 42 67.5 62t90.5 20v0v0zM306 600l85 93h86l-118 -148h-106l-118 148h85z" />
    <glyph glyph-name="napostrophe" unicode="&#x149;" horiz-adv-x="741" 
d="M469 485q87 0 140.5 -51.5t53.5 -137.5v-296h-84v270q0 64 -34.5 100t-95.5 36q-59 0 -98 -38t-39 -101v-267h-84v476h82v-73q26 42 68 62t91 20v0v0zM133 458h-72l32 262h96z" />
    <glyph glyph-name="Eng" unicode="&#x14a;" horiz-adv-x="785" 
d="M690 -16q0 -87 -43.5 -139.5t-130.5 -52.5q-75 0 -136 34l33 77q45 -25 91 -25q52 0 73.5 31.5t21.5 99.5l-413 539v-548h-90v700h83l420 -547v547h91v-716v0v0z" />
    <glyph glyph-name="eng" unicode="&#x14b;" horiz-adv-x="596" 
d="M324 485q87 0 141 -51.5t54 -137.5v-331q0 -65 -32.5 -100t-89.5 -35q-39 0 -67 15l15 73q20 -9 42 -9q47 0 47 61v300q0 64 -34 100t-95 36q-59 0 -98.5 -38t-39.5 -101v-267h-84v476h83v-73q26 42 67.5 62t90.5 20v0v0z" />
    <glyph glyph-name="Omacron" unicode="&#x14c;" horiz-adv-x="837" 
d="M419 710q103 0 185.5 -46t129.5 -128.5t47 -185.5t-47 -185.5t-129.5 -128.5t-185.5 -46t-185.5 46t-129.5 128t-47 186t47 186t129.5 128t185.5 46v0v0zM419 623q-76 0 -137 -34.5t-96 -96.5t-35 -142q0 -79 35 -141.5t96 -97t137 -34.5q75 0 136 34.5t96 96.5t35 142
t-35 142t-95.5 96.5t-136.5 34.5v0v0zM572 859v-67h-306v67h306z" />
    <glyph glyph-name="omacron" unicode="&#x14d;" horiz-adv-x="598" 
d="M299 485q71 0 128 -32t90 -88.5t33 -126.5t-33 -126.5t-90.5 -89t-127.5 -32.5q-71 0 -128.5 32.5t-90 89t-32.5 126.5t32.5 126.5t90 88.5t128.5 32v0v0zM299 407q-46 0 -84 -22t-59.5 -60.5t-21.5 -86.5t21.5 -86.5t59.5 -60.5t84 -22t84 22t59.5 60.5t21.5 86.5
t-21.5 86.5t-59.5 60.5t-84 22v0v0zM452 653v-68h-306v68h306z" />
    <glyph glyph-name="Obreve" unicode="&#x14e;" horiz-adv-x="837" 
d="M311 913q28 -94 108 -94t107 94l66 -20q-19 -69 -63.5 -106t-109.5 -37t-110 36.5t-64 106.5l66 20v0v0zM419 710q103 0 185.5 -46t129.5 -128.5t47 -185.5t-47 -185.5t-129.5 -128.5t-185.5 -46t-185.5 46t-129.5 128t-47 186t47 186t129.5 128t185.5 46v0v0zM419 623
q-76 0 -137 -34.5t-96 -96.5t-35 -142q0 -79 35 -141.5t96 -97t137 -34.5q75 0 136 34.5t96 96.5t35 142t-35 142t-95.5 96.5t-136.5 34.5v0v0z" />
    <glyph glyph-name="obreve" unicode="&#x14f;" horiz-adv-x="598" 
d="M192 706q13 -47 40 -70.5t67 -23.5q80 0 107 94l67 -20q-19 -70 -64 -106.5t-110 -36.5t-110 37t-63 106l66 20v0v0zM299 485q71 0 128 -32t90 -88.5t33 -126.5t-33 -126.5t-90.5 -89t-127.5 -32.5q-71 0 -128.5 32.5t-90 89t-32.5 126.5t32.5 126.5t90 88.5t128.5 32v0
v0zM299 407q-46 0 -84 -22t-59.5 -60.5t-21.5 -86.5t21.5 -86.5t59.5 -60.5t84 -22t84 22t59.5 60.5t21.5 86.5t-21.5 86.5t-59.5 60.5t-84 22v0v0z" />
    <glyph glyph-name="Ohungarumlaut" unicode="&#x150;" horiz-adv-x="837" 
d="M419 710q103 0 185.5 -46t129.5 -128.5t47 -185.5t-47 -185.5t-129.5 -128.5t-185.5 -46t-185.5 46t-129.5 128t-47 186t47 186t129.5 128t185.5 46v0v0zM419 623q-76 0 -137 -34.5t-96 -96.5t-35 -142q0 -79 35 -141.5t96 -97t137 -34.5q75 0 136 34.5t96 96.5t35 142
t-35 142t-95.5 96.5t-136.5 34.5v0v0zM379 906h92l-111 -153h-84zM564 906h95l-122 -153h-83z" />
    <glyph glyph-name="ohungarumlaut" unicode="&#x151;" horiz-adv-x="598" 
d="M299 485q71 0 128 -32t90 -88.5t33 -126.5t-33 -126.5t-90.5 -89t-127.5 -32.5q-71 0 -128.5 32.5t-90 89t-32.5 126.5t32.5 126.5t90 88.5t128.5 32v0v0zM299 407q-46 0 -84 -22t-59.5 -60.5t-21.5 -86.5t21.5 -86.5t59.5 -60.5t84 -22t84 22t59.5 60.5t21.5 86.5
t-21.5 86.5t-59.5 60.5t-84 22v0v0zM265 699h92l-111 -153h-84zM450 699h95l-122 -153h-83z" />
    <glyph glyph-name="OE" unicode="&#x152;" horiz-adv-x="1123" 
d="M430 0q-113 0 -197.5 43t-130 122t-45.5 185t45.5 185t130 122t197.5 43h613v-83h-404v-223h390v-83h-390v-227h407v-84h-616v0v0zM151 350q0 -122 72.5 -193.5t206.5 -71.5h119v530h-119q-134 0 -206.5 -71.5t-72.5 -193.5v0v0z" />
    <glyph glyph-name="oe" unicode="&#x153;" horiz-adv-x="975" 
d="M701 485q65 0 116 -31t80.5 -86.5t30.5 -127.5q0 -17 -3 -31h-375q8 -69 52.5 -107.5t108.5 -38.5q81 0 145 59l48 -55q-42 -41 -91 -59t-108 -18q-68 0 -120 30t-81 84q-32 -53 -86 -83.5t-119 -30.5q-71 0 -128.5 32.5t-90 89t-32.5 126.5t32.5 126.5t90 88.5t128.5 32
q66 0 119.5 -30.5t85.5 -83.5q29 53 81 83.5t116 30.5v0v0zM700 412q-61 0 -101 -38.5t-48 -100.5h291q-8 63 -46 101t-96 38v0v0zM299 407q-46 0 -84 -22t-59.5 -60.5t-21.5 -86.5t21.5 -86.5t59.5 -60.5t84 -22t83.5 22t59.5 60.5t22 86.5t-22 86.5t-59.5 60.5t-83.5 22v0
v0z" />
    <glyph glyph-name="Racute" unicode="&#x154;" horiz-adv-x="674" 
d="M373 700q119 0 183 -52.5t64 -148.5q0 -89 -61.5 -142t-167.5 -57h-19l247 -300h-111l-240 299h-82v-299h-90v700h277v0v0zM372 379q76 0 115.5 30.5t39.5 89.5q0 58 -40 88t-115 30h-186v-238h186v0v0zM362 906h103l-128 -153h-82z" />
    <glyph glyph-name="racute" unicode="&#x155;" horiz-adv-x="412" 
d="M307 486q47 0 80 -15l-16 -83q-16 8 -38 12.5t-44 4.5q-54 0 -88 -38t-34 -102v-265h-84v476h82v-70q23 39 59.5 59.5t82.5 20.5v0v0zM271 699h103l-128 -153h-82z" />
    <glyph glyph-name="Rcaron" unicode="&#x158;" horiz-adv-x="674" 
d="M373 700q119 0 183 -52.5t64 -148.5q0 -88 -60.5 -141t-167.5 -58h-20l247 -300h-111l-240 299h-82v-299h-90v700h277v0v0zM372 379q76 0 115.5 30.5t39.5 89.5q0 58 -40 88t-115 30h-186v-238h186v0v0zM331 806l86 93h85l-119 -147h-105l-119 147h86z" />
    <glyph glyph-name="rcaron" unicode="&#x159;" horiz-adv-x="412" 
d="M307 486q47 0 80 -15l-16 -83q-16 8 -38 12.5t-44 4.5q-54 0 -88 -38t-34 -102v-265h-84v476h82v-70q23 39 59.5 59.5t82.5 20.5v0v0zM234 600l85 93h86l-118 -148h-106l-118 148h85z" />
    <glyph glyph-name="Sacute" unicode="&#x15a;" horiz-adv-x="674" 
d="M558 560q-95 65 -211 65q-77 0 -125 -32t-48 -87q0 -46 40.5 -72t121.5 -37l62 -8q218 -28 218 -185q0 -69 -37.5 -117.5t-101 -72.5t-140.5 -24t-153 25t-127 65l48 72q41 -32 103 -54.5t129 -22.5q81 0 132.5 31.5t51.5 88.5q0 48 -40.5 73.5t-125.5 36.5l-67 8
q-99 12 -153.5 58t-54.5 129q0 65 35.5 112.5t96 72t134.5 24.5q141 0 257 -75l-45 -74v0v0zM387 906h103l-128 -153h-82z" />
    <glyph glyph-name="sacute" unicode="&#x15b;" horiz-adv-x="494" 
d="M409 369q-28 18 -71.5 31.5t-86.5 13.5q-48 0 -77 -19t-29 -51q0 -27 24 -42t72 -21l54 -7q77 -10 118 -43t41 -90q0 -70 -57 -110.5t-154 -40.5q-54 0 -107.5 14.5t-93.5 45.5l35 63q33 -24 73 -37.5t94 -13.5q58 0 90.5 18.5t32.5 53.5q0 28 -24 44t-74 22l-52 6
q-158 20 -158 134q0 68 51.5 106.5t139.5 38.5q109 0 191 -50l-32 -66v0v0zM294 699h103l-128 -153h-81z" />
    <glyph glyph-name="Scircumflex" unicode="&#x15c;" horiz-adv-x="674" 
d="M558 560q-95 65 -211 65q-77 0 -125 -32t-48 -87q0 -46 40.5 -72t121.5 -37l62 -8q218 -28 218 -185q0 -69 -37.5 -117.5t-101 -72.5t-140.5 -24t-153 25t-127 65l48 72q41 -32 103 -54.5t129 -22.5q81 0 132.5 31.5t51.5 88.5q0 48 -40.5 73.5t-125.5 36.5l-67 8
q-99 12 -153.5 58t-54.5 129q0 65 35.5 112.5t96 72t134.5 24.5q141 0 257 -75l-45 -74v0v0zM356 845l-86 -92h-86l118 147h106l119 -147h-86z" />
    <glyph glyph-name="scircumflex" unicode="&#x15d;" horiz-adv-x="494" 
d="M409 369q-28 18 -71.5 31.5t-86.5 13.5q-48 0 -77 -19t-29 -51q0 -27 24 -42t72 -21l54 -7q77 -10 118 -43t41 -90q0 -70 -57 -110.5t-154 -40.5q-54 0 -107.5 14.5t-93.5 45.5l35 63q33 -24 73 -37.5t94 -13.5q58 0 90.5 18.5t32.5 53.5q0 28 -24 44t-74 22l-52 6
q-158 20 -158 134q0 68 51.5 106.5t139.5 38.5q109 0 191 -50l-32 -66v0v0zM257 639l-85 -93h-86l118 147h106l118 -147h-85z" />
    <glyph glyph-name="Scedilla" unicode="&#x15e;" horiz-adv-x="674" 
d="M558 560q-95 65 -211 65q-77 0 -125 -32t-48 -87q0 -46 40.5 -72t121.5 -37l62 -8q218 -28 218 -185q0 -91 -62.5 -144.5t-163.5 -65.5l-48 -156h-89l51 154q-69 4 -135 28t-112 60l48 72q41 -32 103 -54.5t129 -22.5q81 0 132.5 31.5t51.5 88.5q0 48 -40.5 73.5
t-125.5 36.5l-67 8q-99 12 -153.5 58t-54.5 129q0 65 35.5 112.5t96 72t134.5 24.5q141 0 257 -75l-45 -74v0v0z" />
    <glyph glyph-name="scedilla" unicode="&#x15f;" horiz-adv-x="494" 
d="M409 369q-28 18 -71.5 31.5t-86.5 13.5q-48 0 -77 -19t-29 -51q0 -27 24 -42t72 -21l54 -7q77 -10 118 -43t41 -90q0 -59 -41.5 -97t-113.5 -49l-49 -157h-85l51 154q-48 2 -93 16.5t-81 41.5l35 63q33 -24 73 -37.5t94 -13.5q58 0 90.5 18.5t32.5 53.5q0 28 -24 44
t-74 22l-52 6q-158 20 -158 134q0 68 51.5 106.5t139.5 38.5q109 0 191 -50l-32 -66v0v0z" />
    <glyph glyph-name="Scaron" unicode="&#x160;" horiz-adv-x="674" 
d="M558 560q-95 65 -211 65q-77 0 -125 -32t-48 -87q0 -46 40.5 -72t121.5 -37l62 -8q218 -28 218 -185q0 -69 -37.5 -117.5t-101 -72.5t-140.5 -24t-153 25t-127 65l48 72q41 -32 103 -54.5t129 -22.5q81 0 132.5 31.5t51.5 88.5q0 48 -40.5 73.5t-125.5 36.5l-67 8
q-99 12 -153.5 58t-54.5 129q0 65 35.5 112.5t96 72t134.5 24.5q141 0 257 -75l-45 -74v0v0zM356 806l85 93h86l-119 -147h-106l-118 147h86z" />
    <glyph glyph-name="scaron" unicode="&#x161;" horiz-adv-x="494" 
d="M409 369q-28 18 -71.5 31.5t-86.5 13.5q-48 0 -77 -19t-29 -51q0 -27 24 -42t72 -21l54 -7q77 -10 118 -43t41 -90q0 -70 -57 -110.5t-154 -40.5q-54 0 -107.5 14.5t-93.5 45.5l35 63q33 -24 73 -37.5t94 -13.5q58 0 90.5 18.5t32.5 53.5q0 28 -24 44t-74 22l-52 6
q-158 20 -158 134q0 68 51.5 106.5t139.5 38.5q109 0 191 -50l-32 -66v0v0zM257 600l86 93h85l-118 -148h-106l-118 148h86z" />
    <glyph glyph-name="Tcaron" unicode="&#x164;" horiz-adv-x="607" 
d="M305 806l85 93h86l-119 -147h-105l-119 147h86zM348 615v-615h-90v615h-239v85h569v-85h-240z" />
    <glyph glyph-name="tcaron" unicode="&#x165;" horiz-adv-x="458" 
d="M212 173q0 -52 25 -78t67 -26q27 0 53 9.5t47 25.5l35 -64q-62 -50 -145 -50q-80 0 -123 45t-43 133v232h-103v76h103v150h84v-150h202v-76h-202v-227v0v0zM275 727h85l-20 -202h-68z" />
    <glyph glyph-name="Tbar" unicode="&#x166;" horiz-adv-x="607" 
d="M348 312v-312h-90v312h-154v83h154v220h-239v85h569v-85h-240v-220h155v-83h-155z" />
    <glyph glyph-name="tbar" unicode="&#x167;" horiz-adv-x="458" 
d="M212 295h149v-70h-149v-52q0 -52 25 -78t67 -26q27 0 53 9.5t47 25.5l35 -64q-62 -50 -145 -50q-80 0 -123 45t-43 133v57h-98v70h98v105h-103v76h103v150h84v-150h202v-76h-202v-105v0v0z" />
    <glyph glyph-name="Utilde" unicode="&#x168;" horiz-adv-x="752" 
d="M196 825q23 31 50 45t63 14q26 0 44 -6t40 -18q17 -8 27 -12t22 -4q18 0 33.5 9t32.5 28l48 -48q-24 -31 -51 -45.5t-63 -14.5q-25 0 -43 6t-39 17q-17 9 -27.5 13t-23.5 4q-17 0 -32.5 -8.5t-33.5 -27.5l-47 48v0v0zM666 276q0 -92 -37.5 -156.5t-103 -97t-149.5 -32.5
t-149.5 32.5t-103 97t-37.5 156.5v424h90v-419q0 -101 55 -152.5t145 -51.5t144.5 51.5t54.5 152.5v419h91v-424v0v0z" />
    <glyph glyph-name="utilde" unicode="&#x169;" horiz-adv-x="591" 
d="M119 619q24 30 50.5 44.5t62.5 14.5q26 0 44 -6t40 -18q3 -2 13 -6.5t19 -7t17 -2.5q35 0 66 36l48 -48q-24 -30 -51.5 -44.5t-62.5 -14.5q-25 0 -43 6t-39 17q-17 9 -27.5 13t-23.5 4q-18 0 -33 -9t-33 -28l-47 49v0v0zM514 199q0 -68 -29.5 -115t-79 -70.5
t-109.5 -23.5q-61 0 -110.5 23.5t-78.5 70.5t-29 115v277h84v-269q0 -67 36.5 -102.5t97.5 -35.5q60 0 96.5 35.5t36.5 102.5v269h85v-277v0v0z" />
    <glyph glyph-name="Umacron" unicode="&#x16a;" horiz-adv-x="752" 
d="M666 276q0 -92 -37.5 -156.5t-103 -97t-149.5 -32.5t-149.5 32.5t-103 97t-37.5 156.5v424h90v-419q0 -101 55 -152.5t145 -51.5t144.5 51.5t54.5 152.5v419h91v-424v0v0zM529 859v-67h-307v67h307z" />
    <glyph glyph-name="umacron" unicode="&#x16b;" horiz-adv-x="591" 
d="M514 199q0 -68 -29.5 -115t-79 -70.5t-109.5 -23.5q-61 0 -110.5 23.5t-78.5 70.5t-29 115v277h84v-269q0 -67 36.5 -102.5t97.5 -35.5q60 0 96.5 35.5t36.5 102.5v269h85v-277v0v0zM449 653v-68h-306v68h306z" />
    <glyph glyph-name="Ubreve" unicode="&#x16c;" horiz-adv-x="752" 
d="M268 913q27 -94 108 -94q80 0 107 94l66 -20q-19 -69 -64 -106t-109 -37q-65 0 -110 37t-63 106l65 20v0v0zM666 276q0 -92 -37.5 -156.5t-103 -97t-149.5 -32.5t-149.5 32.5t-103 97t-37.5 156.5v424h90v-419q0 -101 55 -152.5t145 -51.5t144.5 51.5t54.5 152.5v419h91
v-424v0v0z" />
    <glyph glyph-name="ubreve" unicode="&#x16d;" horiz-adv-x="591" 
d="M188 706q13 -47 41 -70.5t67 -23.5q80 0 107 94l67 -20q-19 -70 -64 -106.5t-110 -36.5t-110 36.5t-64 106.5l66 20v0v0zM514 199q0 -68 -29.5 -115t-79 -70.5t-109.5 -23.5q-61 0 -110.5 23.5t-78.5 70.5t-29 115v277h84v-269q0 -67 36.5 -102.5t97.5 -35.5
q60 0 96.5 35.5t36.5 102.5v269h85v-277v0v0z" />
    <glyph glyph-name="Uring" unicode="&#x16e;" horiz-adv-x="752" 
d="M376 742q-48 0 -82 33.5t-34 80.5q0 48 34 81.5t82 33.5t82 -33.5t34 -81.5q0 -47 -34.5 -80.5t-81.5 -33.5v0v0zM376 792q26 0 44.5 18.5t18.5 45.5t-18.5 45.5t-44.5 18.5t-45 -18.5t-19 -45.5t19 -45.5t45 -18.5v0v0zM666 276q0 -92 -37.5 -156.5t-103 -97
t-149.5 -32.5t-149.5 32.5t-103 97t-37.5 156.5v424h90v-419q0 -101 55 -152.5t145 -51.5t144.5 51.5t54.5 152.5v419h91v-424v0v0z" />
    <glyph glyph-name="uring" unicode="&#x16f;" horiz-adv-x="591" 
d="M296 535q-48 0 -82.5 34t-34.5 81t34.5 81t82.5 34t82 -34t34 -81t-34 -81t-82 -34v0v0zM296 586q26 0 44.5 18.5t18.5 45.5q0 26 -18.5 44.5t-44.5 18.5t-44.5 -18.5t-18.5 -44.5q0 -27 18.5 -45.5t44.5 -18.5v0v0zM514 199q0 -68 -29.5 -115t-79 -70.5t-109.5 -23.5
q-61 0 -110.5 23.5t-78.5 70.5t-29 115v277h84v-269q0 -67 36.5 -102.5t97.5 -35.5q60 0 96.5 35.5t36.5 102.5v269h85v-277v0v0z" />
    <glyph glyph-name="Uhungarumlaut" unicode="&#x170;" horiz-adv-x="752" 
d="M666 276q0 -92 -37.5 -156.5t-103 -97t-149.5 -32.5t-149.5 32.5t-103 97t-37.5 156.5v424h90v-419q0 -101 55 -152.5t145 -51.5t144.5 51.5t54.5 152.5v419h91v-424v0v0zM336 906h92l-112 -153h-83zM521 906h95l-122 -153h-84z" />
    <glyph glyph-name="uhungarumlaut" unicode="&#x171;" horiz-adv-x="591" 
d="M514 199q0 -68 -29.5 -115t-79 -70.5t-109.5 -23.5q-61 0 -110.5 23.5t-78.5 70.5t-29 115v277h84v-269q0 -67 36.5 -102.5t97.5 -35.5q60 0 96.5 35.5t36.5 102.5v269h85v-277v0v0zM261 699h93l-112 -153h-83zM447 699h95l-122 -153h-84z" />
    <glyph glyph-name="Uogonek" unicode="&#x172;" horiz-adv-x="752" 
d="M599 -161q-24 -22 -55 -34t-66 -12q-58 0 -94.5 28.5t-36.5 73.5q0 57 57 97q-11 -1 -31 -1q-86 0 -150.5 33.5t-100.5 98t-36 153.5v424h90v-419q0 -101 55 -152.5t145 -51.5t144.5 51.5t54.5 152.5v419h91v-424q0 -92 -37 -156t-104 -98q-51 -27 -75 -53t-24 -57
q0 -23 16.5 -36.5t43.5 -13.5q38 0 69 28l44 -51v0v0z" />
    <glyph glyph-name="uogonek" unicode="&#x173;" horiz-adv-x="591" 
d="M495 -161q-23 -22 -54 -34t-66 -12q-58 0 -94.5 28.5t-36.5 73.5q0 58 55 96q-63 -2 -113 22.5t-79 72t-29 113.5v277h84v-269q0 -67 36.5 -102.5t97.5 -35.5q60 0 96.5 35.5t36.5 102.5v269h85v-277q0 -63 -25.5 -108t-70.5 -70q-49 -28 -72 -53.5t-23 -55.5
q0 -23 16 -36.5t43 -13.5q38 0 69 28l44 -51v0v0z" />
    <glyph glyph-name="Wcircumflex" unicode="&#x174;" horiz-adv-x="1099" 
d="M549 845l-85 -92h-85l118 147h106l118 -147h-86zM737 0l-188 576l-187 -576h-110l-226 700h95l188 -597l191 597h101l191 -596l188 596h92l-226 -700h-109z" />
    <glyph glyph-name="wcircumflex" unicode="&#x175;" horiz-adv-x="864" 
d="M432 639l-85 -93h-86l118 147h106l118 -147h-85zM755 476h88l-177 -476h-97l-138 380l-136 -380h-97l-176 476h89l138 -385l138 385h91l138 -386z" />
    <glyph glyph-name="Ycircumflex" unicode="&#x176;" horiz-adv-x="650" 
d="M327 845l-86 -92h-86l118 147h106l119 -147h-86zM371 0h-90v292l-276 408h107l215 -325l214 325h104l-274 -409v-291z" />
    <glyph glyph-name="ycircumflex" unicode="&#x177;" horiz-adv-x="533" 
d="M270 639l-86 -93h-86l118 147h106l119 -147h-86zM50 -202l177 306l-217 372h95l169 -287l159 287h93l-383 -678h-93z" />
    <glyph glyph-name="Ydieresis" unicode="&#x178;" horiz-adv-x="650" 
d="M222 883q24 0 40.5 -17t16.5 -41q0 -23 -16.5 -39.5t-40.5 -16.5t-40 16.5t-16 39.5q0 24 16 41t40 17v0v0zM431 883q23 0 39.5 -17t16.5 -41q0 -23 -16.5 -39.5t-39.5 -16.5q-24 0 -40.5 16.5t-16.5 39.5q0 24 16.5 41t40.5 17v0v0zM371 0h-90v292l-276 408h107
l215 -325l214 325h104l-274 -409v-291z" />
    <glyph glyph-name="Zacute" unicode="&#x179;" horiz-adv-x="657" 
d="M362 906h103l-128 -153h-82zM177 84h423v-84h-543v71l421 545h-416v84h536v-70z" />
    <glyph glyph-name="zacute" unicode="&#x17a;" horiz-adv-x="528" 
d="M304 699h103l-128 -153h-81zM173 76h298v-76h-413v61l297 339h-287v76h398v-62z" />
    <glyph glyph-name="Zdotaccent" unicode="&#x17b;" horiz-adv-x="657" 
d="M322 887q25 0 42 -17t17 -42t-17 -42t-42 -17t-41.5 17t-16.5 42t16.5 42t41.5 17v0v0zM177 84h423v-84h-543v71l421 545h-416v84h536v-70z" />
    <glyph glyph-name="zdotaccent" unicode="&#x17c;" horiz-adv-x="528" 
d="M267 698q24 0 40.5 -16.5t16.5 -40.5t-16.5 -40t-40.5 -16t-40.5 16t-16.5 40t16.5 40.5t40.5 16.5v0v0zM173 76h298v-76h-413v61l297 339h-287v76h398v-62z" />
    <glyph glyph-name="Zcaron" unicode="&#x17d;" horiz-adv-x="657" 
d="M330 806l85 93h87l-119 -147h-106l-118 147h85zM177 84h423v-84h-543v71l421 545h-416v84h536v-70z" />
    <glyph glyph-name="zcaron" unicode="&#x17e;" horiz-adv-x="528" 
d="M267 600l86 93h85l-118 -148h-106l-119 148h87zM173 76h298v-76h-413v61l297 339h-287v76h398v-62z" />
    <glyph glyph-name="longs" unicode="&#x17f;" horiz-adv-x="327" 
d="M241 730q73 0 135 -38l-33 -68q-45 27 -95 27q-85 0 -85 -102v-549h-84v549q0 84 40 132.5t122 48.5v0v0z" />
    <glyph glyph-name="florin" unicode="&#x192;" horiz-adv-x="700" 
d="M373 158q-8 -80 -45 -124t-106 -44q-66 0 -122 36l32 65q17 -10 39 -17t44 -7q35 0 53 24t23 70l16 165h-129v74h136l15 143q16 167 150 167q67 0 122 -35l-31 -66q-38 24 -83 24q-35 0 -53 -23.5t-24 -69.5l-14 -140h145v-74h-152l-16 -168v0v0z" />
    <glyph glyph-name="Gcaron" unicode="&#x1e6;" horiz-adv-x="812" 
d="M420 710q81 0 150.5 -30t118.5 -85l-66 -64q-37 44 -90 68.5t-115 24.5q-76 0 -136.5 -34.5t-95.5 -97t-35 -142.5q0 -81 35 -143t95.5 -96.5t133.5 -34.5q107 0 171 59t73 162h-215v79h310q1 -9 1 -24q0 -104 -42.5 -186.5t-119.5 -129t-177 -46.5q-96 0 -178 44
t-131.5 126t-49.5 190q0 104 47 186t130 128t186 46v0v0zM408 806l86 93h85l-118 -147h-106l-118 147h86z" />
    <glyph glyph-name="gcaron" unicode="&#x1e7;" horiz-adv-x="614" 
d="M278 485q57 0 100.5 -23t70.5 -64v78h83v-441q0 -77 -32 -131.5t-89 -82.5t-131 -28q-58 0 -112.5 17t-90.5 47l35 65q73 -54 166 -54q75 0 123 42.5t48 121.5v55q-28 -41 -71 -64.5t-100 -23.5q-63 0 -115.5 31t-83.5 86.5t-31 125.5t30.5 125.5t83.5 86.5t116 31v0v0z
M294 408q-46 0 -82.5 -22t-56.5 -60t-20 -84t20 -83.5t56.5 -59t82.5 -21.5t82 21.5t56.5 59t20.5 83.5q0 47 -20.5 84.5t-56.5 59.5t-82 22v0v0zM299 600l85 93h86l-118 -148h-106l-118 148h85z" />
    <glyph glyph-name="Aringacute" unicode="&#x1fa;" horiz-adv-x="715" 
d="M292 675q-24 15 -38 40t-14 54q0 47 34.5 80.5t82.5 33.5q47 0 81 -33.5t34 -80.5q0 -29 -13 -53t-36 -39l276 -677h-96l-76 189h-340l-76 -189h-94l275 675v0v0zM357 705q26 0 44.5 18.5t18.5 45.5q0 26 -18.5 44.5t-44.5 18.5t-44.5 -18.5t-18.5 -44.5
q0 -27 18.5 -45.5t44.5 -18.5v0v0zM388 1066h103l-128 -153h-82zM493 274l-136 338l-137 -338h273z" />
    <glyph glyph-name="aringacute" unicode="&#x1fb;" horiz-adv-x="619" 
d="M297 519q-48 0 -82 34t-34 82q0 47 34 80.5t82 33.5t82.5 -33.5t34.5 -80.5q0 -48 -34.5 -82t-82.5 -34v0v0zM297 570q26 0 44.5 19t18.5 46q0 26 -18.5 44.5t-44.5 18.5t-44.5 -18.5t-18.5 -44.5q0 -27 18.5 -46t44.5 -19v0v0zM454 77q-28 -40 -71.5 -63.5t-99.5 -23.5
q-65 0 -119 32.5t-85 89t-31 126.5t31 126.5t85 88.5t119 32q57 0 100 -22.5t71 -63.5v77h83v-476h-83v77v0v0zM296 407q-47 0 -84 -22.5t-57.5 -61t-20.5 -85.5t20.5 -85.5t57.5 -61t84 -22.5t83.5 22t57 60.5t20.5 86.5t-20.5 86.5t-57 60.5t-83.5 22v0v0zM329 929h103
l-128 -152h-81z" />
    <glyph glyph-name="AEacute" unicode="&#x1fc;" horiz-adv-x="1140" 
d="M793 906h104l-128 -153h-82zM566 0v177h-312l-132 -177h-109l524 700h522v-83h-402v-223h389v-83h-389v-227h406v-84h-497zM566 597l-251 -335h251v335z" />
    <glyph glyph-name="aeacute" unicode="&#x1fd;" horiz-adv-x="897" 
d="M624 485q65 0 116 -31t80 -86.5t29 -127.5q0 -13 -2 -31h-375q8 -69 52 -107.5t108 -38.5q82 0 146 59l47 -55q-78 -77 -198 -77q-61 0 -111 24t-83 67q-35 -41 -85 -66t-115 -25q-86 0 -135.5 39.5t-49.5 104.5q0 64 52 101.5t146 37.5h140q-2 70 -34.5 104t-100.5 34
q-74 0 -140 -48l-35 64q78 58 186 58q66 0 111 -24.5t65 -74.5q29 47 78 73t108 26v0v0zM622 411q-61 0 -101 -37.5t-49 -100.5h291q-7 63 -45.5 100.5t-95.5 37.5v0v0zM246 62q45 0 86.5 21t69.5 57q-13 35 -16 70h-129q-62 0 -91 -20t-29 -54q0 -33 28.5 -53.5t80.5 -20.5
v0v0zM483 699h103l-128 -153h-81z" />
    <glyph glyph-name="Oslashacute" unicode="&#x1fe;" horiz-adv-x="837" 
d="M419 710q65 0 123 -19.5t105 -55.5l75 75l57 -57l-74 -74q76 -97 76 -229q0 -103 -47 -185.5t-129.5 -128.5t-185.5 -46q-65 0 -123 19.5t-105 55.5l-74 -74l-57 56l73 74q-76 97 -76 229q0 104 47 186t129.5 128t185.5 46v0v0zM419 623q-76 0 -137 -34.5t-96 -96.5
t-35 -142q0 -94 49 -162l382 382q-69 53 -163 53v0v0zM686 350q0 92 -49 162l-382 -382q70 -53 164 -53q75 0 136 34.5t96 96.5t35 142v0v0zM451 906h103l-128 -153h-82z" />
    <glyph glyph-name="oslashacute" unicode="&#x1ff;" horiz-adv-x="598" 
d="M299 485q87 0 151 -47l55 55l50 -49l-55 -54q50 -68 50 -152q0 -70 -33 -126.5t-90.5 -89t-127.5 -32.5q-84 0 -151 48l-54 -56l-50 49l54 55q-24 31 -37 70t-13 82q0 70 32.5 126.5t90 88.5t128.5 32v0v0zM299 408q-47 0 -84.5 -22t-59.5 -60.5t-22 -87.5q0 -52 27 -92
l233 233q-42 29 -94 29v0v0zM465 238q0 51 -26 93l-234 -234q44 -29 94 -29q47 0 85 22t59.5 61t21.5 87v0v0zM336 699h103l-128 -153h-82z" />
    <glyph glyph-name="circumflex" unicode="&#x2c6;" horiz-adv-x="483" 
d="M242 639l-86 -93h-85l118 147h106l118 -147h-86z" />
    <glyph glyph-name="caron" unicode="&#x2c7;" horiz-adv-x="483" 
d="M242 600l85 93h86l-118 -148h-106l-118 148h85z" />
    <glyph glyph-name="breve" unicode="&#x2d8;" horiz-adv-x="483" 
d="M135 706q25 -94 107 -94q80 0 107 94l66 -20q-19 -69 -64 -106t-109 -37q-65 0 -110 37t-64 106l67 20v0v0z" />
    <glyph glyph-name="dotaccent" unicode="&#x2d9;" horiz-adv-x="278" 
d="M139 698q24 0 40.5 -16.5t16.5 -40.5t-16.5 -40t-40.5 -16q-23 0 -39.5 16t-16.5 40t16.5 40.5t39.5 16.5v0v0z" />
    <glyph glyph-name="ring" unicode="&#x2da;" horiz-adv-x="470" 
d="M235 535q-48 0 -82 34t-34 81t34 81t82 34t82 -34t34 -81t-34 -81t-82 -34v0v0zM235 586q26 0 44.5 18.5t18.5 45.5q0 26 -18.5 44.5t-44.5 18.5t-44.5 -18.5t-18.5 -44.5q0 -27 18.5 -45.5t44.5 -18.5v0v0z" />
    <glyph glyph-name="ogonek" unicode="&#x2db;" horiz-adv-x="544" 
d="M456 -161q-49 -46 -121 -46q-57 0 -93 29.5t-36 78.5t37 83t108 64l44 -38q-59 -26 -85.5 -48t-26.5 -51q0 -22 16.5 -35.5t43.5 -13.5q38 0 69 28l44 -51v0v0z" />
    <glyph glyph-name="tilde" unicode="&#x2dc;" horiz-adv-x="483" 
d="M63 619q23 30 50 44.5t63 14.5q25 0 43 -6t40 -18q3 -2 13 -6.5t19 -7t17 -2.5q18 0 33.5 8.5t32.5 27.5l48 -48q-23 -30 -50.5 -44.5t-63.5 -14.5q-25 0 -43 6t-39 17q-17 9 -27 13t-23 4q-18 0 -34 -9t-32 -28l-47 49v0v0z" />
    <glyph glyph-name="hungarumlaut" unicode="&#x2dd;" horiz-adv-x="483" 
d="M145 699h104l-128 -153h-82zM341 699h103l-127 -153h-83z" />
    <glyph glyph-name="gravecomb" unicode="&#x300;" horiz-adv-x="0" 
d="M-342 699l107 -153h-82l-128 153h103z" />
    <glyph glyph-name="acutecomb" unicode="&#x301;" horiz-adv-x="0" 
d="M-263 699h103l-128 -153h-82z" />
    <glyph glyph-name="tildecomb" unicode="&#x303;" horiz-adv-x="0" 
d="M-477 619q24 30 50.5 44.5t62.5 14.5q26 0 44 -6t40 -18q3 -2 13 -6.5t19 -7t17 -2.5q34 0 66 36l48 -48q-24 -30 -51.5 -44.5t-62.5 -14.5q-25 0 -43 6t-39 17q-17 9 -27.5 13t-23.5 4q-18 0 -33 -9t-33 -28l-47 49v0v0z" />
    <glyph glyph-name="dotbelowcomb" unicode="&#x323;" horiz-adv-x="0" 
d="M-300 -76q24 0 40.5 -16.5t16.5 -40.5t-16.5 -40t-40.5 -16t-40 16t-16 40t16 40.5t40 16.5v0v0z" />
    <glyph glyph-name="uni0394" unicode="&#x394;" horiz-adv-x="704" 
d="M666 0h-628v71l259 630h110l259 -630v-71zM566 85l-214 526l-214 -526h428z" />
    <glyph glyph-name="uni03A9" unicode="&#x3a9;" horiz-adv-x="856" 
d="M206 84q-65 43 -102.5 112.5t-37.5 156.5q0 102 47 183.5t130 127.5t186 46t185.5 -46t129 -127t46.5 -184q0 -87 -37 -156.5t-103 -112.5h168v-84h-305v73q83 26 133 98t50 172q0 82 -35 146t-95.5 99t-136.5 35t-137 -35t-96 -99t-35 -146q0 -100 50 -172t132 -98v-73
h-305v84h168v0v0z" />
    <glyph glyph-name="uni03BC" unicode="&#x3bc;" horiz-adv-x="596" 
d="M162 476v-269q0 -65 34.5 -101t96.5 -36q58 0 97 38t39 101v267h85v-476h-83v73q-26 -42 -68 -62.5t-91 -20.5q-67 0 -112 37v-227h-82v676h84v0v0z" />
    <glyph glyph-name="pi" unicode="&#x3c0;" horiz-adv-x="596" 
d="M435 0v400h-268v-400h-84v476h436v-476h-84z" />
    <glyph glyph-name="uni10D0" unicode="&#x10d0;" horiz-adv-x="634" 
d="M312 -10q-77 0 -136 32.5t-91.5 94t-32.5 144.5v47h90v-39q0 -94 46 -144t124 -50q79 0 125 45t46 125q0 47 -15 84t-36.5 64.5t-58.5 64.5q-36 37 -57.5 63.5t-36 62.5t-14.5 82v34h91v-27q0 -35 12.5 -63.5t31 -50t50.5 -53.5q41 -40 66 -71.5t43 -78.5t18 -110
q0 -76 -34 -134t-94 -90t-137 -32v0v0z" />
    <glyph glyph-name="uni10D1" unicode="&#x10d1;" horiz-adv-x="638" 
d="M376 464q93 -17 149.5 -81t56.5 -153q0 -68 -33.5 -123t-93 -86t-136.5 -31t-136.5 31t-92.5 85.5t-33 123.5q0 63 28.5 114.5t80.5 84t120 38.5v53q0 27 -10 43t-30 36q-24 23 -36 43.5t-12 57.5h90q0 -21 9 -35t29 -34q24 -23 37 -44.5t13 -58.5v-64v0v0zM319 72
q75 0 122 44t47 115t-47 115.5t-122 44.5t-121.5 -44.5t-46.5 -115.5t46.5 -115t121.5 -44v0v0z" />
    <glyph glyph-name="uni10D2" unicode="&#x10d2;" horiz-adv-x="638" 
d="M319 -10q-77 0 -136.5 31t-92.5 85.5t-33 123.5q0 99 67.5 163t179.5 75q52 6 84 24.5t32 57.5t-30.5 62.5t-75.5 23.5q-46 0 -76.5 -23.5t-30.5 -68.5v-15h-88v20q0 47 27 84t71.5 57t96.5 20q56 0 100 -21t68.5 -55t24.5 -72q0 -46 -23.5 -75t-71.5 -46
q83 -20 126.5 -77.5t43.5 -133.5q0 -68 -33.5 -123t-93 -86t-136.5 -31v0v0zM319 72q75 0 122 44t47 115t-47 115t-122 44t-121.5 -44t-46.5 -115t46.5 -115t121.5 -44v0v0z" />
    <glyph glyph-name="uni10D3" unicode="&#x10d3;" horiz-adv-x="925" 
d="M471 0q-110 0 -202 40t-147 120.5t-55 197.5v119q0 70 25.5 122.5t71.5 81.5t107 29q56 0 104.5 -31t68.5 -89q24 59 75 89.5t121 30.5q67 0 119 -31t80.5 -86.5t28.5 -127.5q0 -74 -29.5 -129t-83 -85t-124.5 -30t-124 29.5t-82 84t-29 125.5v22q0 68 -31.5 105.5
t-84.5 37.5q-59 0 -91 -40.5t-32 -117.5v-94q0 -140 86.5 -214t234.5 -74h243v-85h-250v0v0zM630 304q70 0 108.5 42.5t38.5 118.5t-39 119t-108 43q-67 0 -105.5 -43t-38.5 -119q0 -75 38.5 -118t105.5 -43v0v0z" />
    <glyph glyph-name="uni10D4" unicode="&#x10d4;" horiz-adv-x="645" 
d="M322 -10q-75 0 -133 31.5t-90 87.5t-32 128v49h90v-47q0 -74 45 -119t120 -45q78 0 122 47t44 134v184q0 93 -45.5 139t-122.5 46q-71 0 -114.5 -41t-43.5 -111v-28h-90v29q0 70 32 123.5t88.5 83t127.5 29.5q76 0 134 -30.5t91 -89.5t33 -142v-193q0 -80 -32 -140
t-90 -92.5t-134 -32.5v0v0z" />
    <glyph glyph-name="uni10D5" unicode="&#x10d5;" horiz-adv-x="659" 
d="M333 -10q-81 0 -141 29.5t-92.5 83.5t-32.5 124v33h90v-30q0 -71 47 -113t129 -42t128.5 34.5t46.5 93.5q0 57 -39 86t-106 29h-63v83h69q61 0 95 25t34 78q0 54 -46 87.5t-120 33.5t-122 -39t-48 -104v-22h-90v24q0 65 33.5 116.5t93 80.5t134.5 29q74 0 133 -27
t92.5 -74t33.5 -103q0 -55 -30 -92.5t-85 -53.5q58 -11 91.5 -53t33.5 -107q0 -61 -33.5 -108.5t-95 -74.5t-140.5 -27v0v0z" />
    <glyph glyph-name="uni10D6" unicode="&#x10d6;" horiz-adv-x="716" 
d="M398 -10q-77 0 -136 30.5t-91.5 83t-32.5 116.5q0 43 15.5 81.5t46.5 67.5q-67 7 -109.5 52.5t-42.5 110.5q0 51 24.5 91.5t67.5 63.5t97 23q53 0 96.5 -22.5t68.5 -61t25 -83.5q0 -49 -26 -85q78 0 136.5 -29.5t90 -82t31.5 -119.5q0 -68 -32.5 -122t-91.5 -84.5
t-137 -30.5v0v0zM237 430q46 0 75.5 27t29.5 76t-30 75.5t-75 26.5t-74.5 -26.5t-29.5 -75.5t29.5 -76t74.5 -27v0v0zM398 72q76 0 121.5 43.5t45.5 113.5t-45.5 113t-121.5 43q-75 0 -120.5 -43t-45.5 -113t45.5 -113.5t120.5 -43.5v0v0z" />
    <glyph glyph-name="uni10D7" unicode="&#x10d7;" horiz-adv-x="1008" 
d="M317 -10q-73 0 -129.5 32t-88.5 92t-32 142v188q0 82 32 142t88 92t128 32q71 0 126 -32t79 -96q23 63 72.5 95.5t115.5 32.5q64 0 112.5 -30.5t75.5 -85.5t27 -126v-468h-90v461q0 78 -34.5 121t-99.5 43q-63 0 -97 -43t-34 -121v-205q0 -82 -32.5 -142t-89.5 -92
t-129 -32v0v0zM317 75q74 0 117.5 48t43.5 141v174q0 92 -44 139.5t-117 47.5q-72 0 -116 -48t-44 -139v-174q0 -92 44 -140.5t116 -48.5v0v0z" />
    <glyph glyph-name="uni10D8" unicode="&#x10d8;" horiz-adv-x="673" 
d="M86 446q0 81 32 140.5t88.5 91.5t129.5 32q72 0 129 -32t89.5 -91.5t32.5 -140.5v-446h-90v440q0 91 -44 138t-117 47q-72 0 -116 -48t-44 -137v-440h-90v446v0v0z" />
    <glyph glyph-name="uni10D9" unicode="&#x10d9;" horiz-adv-x="642" 
d="M317 -10q-81 0 -142 30t-94 84t-33 126v30h93v-28q0 -73 46.5 -115t129.5 -42q84 0 129 38t45 111q0 69 -43.5 104t-119.5 35h-58v83h69q66 0 100 30t34 97v127h91v-133q0 -128 -121 -161q64 -14 103.5 -62t39.5 -126q0 -68 -33.5 -119.5t-94.5 -80t-141 -28.5v0v0z" />
    <glyph glyph-name="uni10DA" unicode="&#x10da;" horiz-adv-x="1212" 
d="M511 0q-219 0 -336.5 93t-117.5 289v95q0 67 25.5 120t72.5 83t109 30q59 0 107 -30.5t68 -89.5q22 59 67.5 89.5t101.5 30.5q54 0 100.5 -30.5t65.5 -89.5q23 60 69.5 90t108.5 30q94 0 148.5 -64.5t54.5 -168.5v-183h-90v176q0 75 -31.5 116.5t-90.5 41.5
q-58 0 -91 -40.5t-33 -114.5v-157h-91v157q0 74 -32 114.5t-90 40.5t-90 -40.5t-32 -114.5v-157h-91v157q0 74 -31 114.5t-90 40.5t-91.5 -41.5t-32.5 -117.5v-75q0 -107 36.5 -175t118 -101t216.5 -33h424v-85h-432v0v0z" />
    <glyph glyph-name="uni10DB" unicode="&#x10db;" horiz-adv-x="645" 
d="M319 -10q-76 0 -135.5 31t-93 86t-33.5 123t32.5 122.5t89 85.5t124.5 31q127 0 185 -90v105q0 67 -46.5 106t-119.5 39q-66 0 -110 -31t-45 -80h-92q1 55 34.5 99t89.5 68.5t123 24.5q73 0 131.5 -27t92 -76t33.5 -112v-265q0 -68 -33 -123t-92.5 -86t-134.5 -31v0v0z
M319 72q77 0 123 43.5t46 115.5q0 71 -46.5 115t-122.5 44q-75 0 -121.5 -44.5t-46.5 -114.5q0 -71 46.5 -115t121.5 -44v0v0z" />
    <glyph glyph-name="uni10DC" unicode="&#x10dc;" horiz-adv-x="645" 
d="M326 -10q-75 0 -134 31t-92 86t-33 123v272q0 59 28.5 104t80 69.5t116.5 24.5h246v-81h-234q-69 0 -108 -32.5t-39 -95.5v-112q58 90 185 90q68 0 124.5 -31t89.5 -85.5t33 -122.5t-33.5 -123t-93.5 -86t-136 -31v0v0zM326 72q75 0 122 44t47 115q0 70 -47 114.5
t-122 44.5q-76 0 -122.5 -44t-46.5 -115q0 -72 46 -115.5t123 -43.5v0v0z" />
    <glyph glyph-name="uni10DD" unicode="&#x10dd;" horiz-adv-x="957" 
d="M662 710q65 0 112.5 -30t72.5 -83t25 -120v-477h-92v467q0 76 -32 117t-95 41q-61 0 -94.5 -40.5t-33.5 -114.5v-284h-92v284q0 74 -31.5 114.5t-93.5 40.5q-63 0 -96.5 -41t-33.5 -118v-466h-92v477q0 67 26 120t74 83t113 30q62 0 111 -30.5t69 -89.5q23 60 70.5 90
t112.5 30v0v0z" />
    <glyph glyph-name="uni10DE" unicode="&#x10de;" horiz-adv-x="611" 
d="M294 -10q-79 0 -140 30t-94 83t-33 122v35h90v-30q0 -71 47 -113t129 -42t128.5 34.5t46.5 90.5t-40 85.5t-106 29.5h-62v83h83q115 0 115 68q0 34 -24 52.5t-73 35.5q-64 22 -102.5 53.5t-38.5 92.5h91q2 -22 18 -37.5t36.5 -24.5t61.5 -23q57 -21 92 -53t35 -90
q0 -45 -30 -74.5t-86 -42.5q59 -11 92.5 -52.5t33.5 -105.5q0 -58 -34.5 -105t-96 -74.5t-139.5 -27.5v0v0z" />
    <glyph glyph-name="uni10DF" unicode="&#x10df;" horiz-adv-x="657" 
d="M314 -10q-77 0 -135 29t-90 82t-32 123h90q0 -70 45 -109.5t122 -39.5q79 0 123.5 46.5t44.5 132.5v369l-236 -39q44 -13 68.5 -44t24.5 -75q0 -59 -44.5 -92t-122.5 -33h-94v75l71 1q102 0 102 69q0 36 -25 54.5t-71 18.5h-45v84l368 58h94v-448q0 -79 -32.5 -138.5
t-90.5 -91.5t-135 -32v0v0z" />
    <glyph glyph-name="uni10E0" unicode="&#x10e0;" horiz-adv-x="909" 
d="M643 468q65 0 112.5 -30t72.5 -83t25 -120v-235h-93v226q0 75 -32 116t-94 41q-61 0 -94.5 -40.5t-33.5 -114.5v-142h-92v143q0 74 -32 114t-93 40q-63 0 -96.5 -41t-33.5 -118v-224h-92v342q0 183 101.5 273t269.5 90h217v-85h-210q-131 0 -207.5 -55.5t-86.5 -175.5
q22 38 60 58.5t83 20.5q57 0 101.5 -30.5t64.5 -89.5q24 60 71 90t112 30v0v0z" />
    <glyph glyph-name="uni10E1" unicode="&#x10e1;" horiz-adv-x="670" 
d="M348 -10q-78 0 -137 31t-92 91t-33 143v445h92v-438q0 -94 45.5 -140.5t124.5 -46.5t125 39.5t46 108.5q0 35 -13 60t-39 56q-26 32 -39.5 58t-13.5 64h90q1 -22 11 -39t31 -42q32 -37 49.5 -72.5t17.5 -90.5q0 -65 -34 -116.5t-94.5 -81t-136.5 -29.5v0v0z" />
    <glyph glyph-name="uni10E2" unicode="&#x10e2;" horiz-adv-x="793" 
d="M397 -10q-97 0 -174.5 43t-121.5 121.5t-44 179.5q0 95 38 168.5t105.5 117.5t154.5 53l-2 37h87l-2 -37q86 -8 154 -52.5t106.5 -118.5t38.5 -168q0 -101 -44 -179.5t-122 -121.5t-174 -43v0v0zM397 75q69 0 125 31.5t88 90.5t32 137q0 111 -56.5 179.5t-149.5 81.5
q6 -58 6 -123v-184h-91v181q0 67 6 125q-93 -13 -149.5 -81t-56.5 -179q0 -78 32 -137t88 -90.5t126 -31.5v0v0z" />
    <glyph glyph-name="uni10E3" unicode="&#x10e3;" horiz-adv-x="644" 
d="M320 -10q-76 0 -135 31.5t-91 87.5t-32 128v49h91v-46q0 -75 45.5 -120t121.5 -45q79 0 123 47t44 135v249q0 58 -26.5 88.5t-71.5 30.5t-69.5 -29.5t-24.5 -87.5v-109h-92v108q0 57 -26.5 84.5t-76.5 27.5h-53v86h57q51 0 89.5 -22.5t55.5 -74.5q37 102 152 102
q51 0 91 -24.5t63 -68t23 -99.5v-263q0 -80 -32.5 -140t-91 -92.5t-134.5 -32.5v0v0z" />
    <glyph glyph-name="uni10E4" unicode="&#x10e4;" horiz-adv-x="882" 
d="M512 -21q-85 0 -149 24t-100 68t-37 102h96q3 -50 54 -80.5t139 -30.5q93 0 142 35t49 96q0 49 -28.5 81t-85.5 32h-24v84h37q58 0 92.5 27t34.5 84q0 60 -30 92t-84 32q-52 0 -83 -34t-31 -94v-22q0 -66 -28 -117.5t-78.5 -80.5t-115.5 -29q-67 0 -118 29t-79 81.5
t-28 120.5q0 67 28 119.5t77.5 82t112.5 29.5t111.5 -29t71.5 -86q19 56 66.5 85.5t105.5 29.5q57 0 101 -26t69 -71t25 -101q0 -67 -32.5 -109.5t-92.5 -59.5q49 -14 75.5 -57t26.5 -100q0 -61 -35 -108t-100.5 -73t-154.5 -26v0v0zM282 329q63 0 98.5 40.5t35.5 109.5
t-35.5 109.5t-98.5 40.5q-62 0 -99 -40.5t-37 -109.5t36.5 -109.5t99.5 -40.5v0v0z" />
    <glyph glyph-name="uni10E5" unicode="&#x10e5;" horiz-adv-x="654" 
d="M312 -10q-75 0 -133 31.5t-90 87.5t-32 128v33h90v-30q0 -75 45 -120t120 -45q78 0 122 47t44 135v127q0 80 -44.5 121t-109.5 41q-69 0 -107.5 -37.5t-38.5 -99.5v-16h-90v16q0 64 29.5 113.5t80 77t111.5 27.5q52 0 97 -22.5t72 -68.5v164h90v-445q0 -80 -32 -140
t-90 -92.5t-134 -32.5v0v0z" />
    <glyph glyph-name="uni10E6" unicode="&#x10e6;" horiz-adv-x="896" 
d="M425 0q-106 0 -189 37t-131 113.5t-48 191.5v135q0 67 25.5 120t73 83t112.5 30q62 0 111 -30.5t69 -89.5q23 60 70.5 90t112.5 30t112 -30t71.5 -83t24.5 -120v-183h-90v174q0 75 -33 116t-95 41q-61 0 -94.5 -40.5t-33.5 -114.5v-154h-90v155q0 74 -32 114t-94 40
q-63 0 -96.5 -41t-33.5 -117v-113q0 -137 72 -203t214 -66h278v-85h-286v0v0z" />
    <glyph glyph-name="uni10E7" unicode="&#x10e7;" horiz-adv-x="654" 
d="M314 -10q-113 0 -180 63t-67 172h90q0 -72 42 -111t115 -39q76 0 119.5 42t43.5 119v170q-28 -44 -73.5 -67.5t-104.5 -23.5q-66 0 -119 28.5t-83 81.5t-30 123v152h90v-140q0 -75 43 -119t115 -44q74 0 118 44.5t44 129.5v129h90l1 -466q0 -75 -32 -130t-89.5 -84.5
t-132.5 -29.5v0v0z" />
    <glyph glyph-name="uni10E8" unicode="&#x10e8;" horiz-adv-x="648" 
d="M322 -10q-76 0 -135.5 31t-93 86t-33.5 123t32.5 122.5t89 85.5t124.5 31q127 0 185 -90v140q0 54 -27 82t-74 28q-43 0 -67.5 -23.5t-24.5 -66.5v-21h-92v21q0 42 -21.5 61t-66.5 19h-58v86h58q49 0 84 -18.5t51 -65.5q34 89 150 89q51 0 92 -23t64 -64.5t23 -94.5v-298
q0 -68 -33 -123t-92.5 -86t-134.5 -31v0v0zM322 72q77 0 123 43.5t46 115.5q0 71 -46.5 115t-122.5 44q-75 0 -121.5 -44.5t-46.5 -114.5q0 -71 46.5 -115t121.5 -44v0v0z" />
    <glyph glyph-name="uni10E9" unicode="&#x10e9;" horiz-adv-x="646" 
d="M86 511q0 59 28.5 104.5t77.5 70t110 24.5q56 0 101.5 -20t71.5 -54.5t26 -76.5q0 -87 -97 -126q87 -10 136 -69t49 -148v-216h-90v203q0 76 -43.5 120.5t-115.5 44.5q-75 0 -119 -45.5t-44 -124.5v-198h-91v511v0v0zM177 356q22 32 51.5 52t69.5 37q55 24 82 46t27 58
q0 38 -29 59.5t-79 21.5q-54 0 -88 -34t-34 -92v-148v0v0z" />
    <glyph glyph-name="uni10EA" unicode="&#x10ea;" horiz-adv-x="708" 
d="M372 -10q-86 0 -150.5 34.5t-100 101t-35.5 160.5v414h90v-409q0 -109 50.5 -162.5t145.5 -53.5q85 0 135 34.5t50 90.5t-41 85.5t-110 29.5h-60v83h90q111 0 111 67q0 32 -17.5 51t-54.5 41q-31 18 -49.5 34t-32 42.5t-13.5 66.5h90q3 -29 21 -47t53 -39q32 -20 51 -36
t32.5 -42t13.5 -65q0 -43 -29.5 -73t-83.5 -43q57 -11 90 -52.5t33 -105.5q0 -58 -35.5 -105t-99 -74.5t-144.5 -27.5v0v0z" />
    <glyph glyph-name="uni10EB" unicode="&#x10eb;" horiz-adv-x="654" 
d="M309 -10q-76 0 -135.5 31t-93 86t-33.5 123t32.5 122.5t89 85.5t124.5 31q127 0 185 -90v321h91v-470q0 -68 -33 -123t-92.5 -86t-134.5 -31v0v0zM309 72q77 0 123 43.5t46 115.5q0 71 -46.5 115t-122.5 44q-75 0 -121.5 -44.5t-46.5 -114.5q0 -71 46.5 -115t121.5 -44v0
v0z" />
    <glyph glyph-name="uni10EC" unicode="&#x10ec;" horiz-adv-x="649" 
d="M326 -10q-75 0 -134 31t-92 86t-33 123v298q0 53 23 94.5t63.5 64.5t92.5 23q115 0 150 -89q15 47 50 65.5t84 18.5h58v-86h-58q-45 0 -66.5 -19t-21.5 -61v-21h-92v21q0 43 -24.5 66.5t-67.5 23.5q-47 0 -74 -28t-27 -82v-140q58 90 185 90q68 0 124.5 -31t89.5 -85.5
t33 -122.5t-33.5 -123t-93.5 -86t-136 -31v0v0zM326 72q75 0 122 44t47 115q0 70 -47 114.5t-122 44.5q-76 0 -122.5 -44t-46.5 -115q0 -72 46 -115.5t123 -43.5v0v0z" />
    <glyph glyph-name="uni10ED" unicode="&#x10ed;" horiz-adv-x="669" 
d="M307 -10q-74 0 -130.5 28t-88 80.5t-31.5 122.5h90q0 -69 43.5 -107.5t116.5 -38.5q75 0 119 43t44 122v129q-27 -43 -74 -63t-108 -20q-63 0 -109.5 20.5t-71.5 56.5t-25 82q0 75 52.5 116.5t145.5 41.5h190v97h91v-97h89v-75h-89v-291q0 -75 -32.5 -131t-90 -86
t-131.5 -30v0v0zM309 364q70 0 115.5 30t45.5 88v46h-175q-55 0 -88 -19.5t-33 -60.5q0 -39 35 -61.5t100 -22.5v0v0z" />
    <glyph glyph-name="uni10EE" unicode="&#x10ee;" horiz-adv-x="654" 
d="M345 -10q-75 0 -134.5 31t-92.5 86t-33 123v470h91v-321q58 90 185 90q68 0 124.5 -31t89 -85.5t32.5 -122.5t-33.5 -123t-93 -86t-135.5 -31v0v0zM345 72q75 0 121.5 44t46.5 115q0 70 -46.5 114.5t-121.5 44.5q-76 0 -122.5 -44t-46.5 -115q0 -72 46 -115.5t123 -43.5
v0v0z" />
    <glyph glyph-name="uni10EF" unicode="&#x10ef;" horiz-adv-x="651" 
d="M364 425q99 -5 164.5 -59.5t65.5 -152.5q0 -68 -34 -118.5t-95 -77.5t-140 -27q-81 0 -141.5 29t-93.5 81t-33 121v29h92v-26q0 -69 46.5 -109t128.5 -40q84 0 130 37t46 103t-44.5 99t-122.5 33h-59v181h-197v75h197v97h90v-97h205v-75h-205v-103v0v0z" />
    <glyph glyph-name="uni10F0" unicode="&#x10f0;" horiz-adv-x="602" 
d="M291 -10q-78 0 -138 24.5t-93 69.5t-33 103h90q3 -52 48 -82t125 -30q73 0 116 22t43 62q0 77 -135 77h-66v74h114q44 0 64 12t20 36q0 48 -84 48h-114v74h83q59 0 83.5 8.5t24.5 37.5q0 22 -22 32t-50.5 16.5t-38.5 8.5q-57 13 -92 39t-35 78h91q2 -15 15.5 -24.5
t37 -16.5t47.5 -13q46 -11 74.5 -22.5t48.5 -33.5t20 -58q0 -37 -23 -58t-72 -31q48 -3 75 -26t27 -59q0 -35 -26.5 -57.5t-75.5 -29.5q50 -10 77.5 -40t27.5 -76t-32 -84t-90 -59.5t-132 -21.5v0v0z" />
    <glyph glyph-name="uni1C90" unicode="&#x1c90;" horiz-adv-x="634" 
d="M312 -10q-77 0 -136 32.5t-91.5 94t-32.5 144.5v47h90v-39q0 -94 46 -144t124 -50q79 0 125 45t46 125q0 47 -15 84t-36.5 64.5t-58.5 64.5q-36 37 -57.5 63.5t-36 62.5t-14.5 82v34h91v-27q0 -35 12.5 -63.5t31 -50t50.5 -53.5q41 -40 66 -71.5t43 -78.5t18 -110
q0 -76 -34 -134t-94 -90t-137 -32v0v0z" />
    <glyph glyph-name="uni1C91" unicode="&#x1c91;" horiz-adv-x="638" 
d="M376 464q93 -17 149.5 -81t56.5 -153q0 -68 -33.5 -123t-93 -86t-136.5 -31t-136.5 31t-92.5 85.5t-33 123.5q0 63 28.5 114.5t80.5 84t120 38.5v53q0 27 -10 43t-30 36q-24 23 -36 43.5t-12 57.5h90q0 -21 9 -35t29 -34q24 -23 37 -44.5t13 -58.5v-64v0v0zM319 72
q75 0 122 44t47 115t-47 115.5t-122 44.5t-121.5 -44.5t-46.5 -115.5t46.5 -115t121.5 -44v0v0z" />
    <glyph glyph-name="uni1C92" unicode="&#x1c92;" horiz-adv-x="638" 
d="M319 -10q-77 0 -136.5 31t-92.5 85.5t-33 123.5q0 99 67.5 163t179.5 75q52 6 84 24.5t32 57.5t-30.5 62.5t-75.5 23.5q-46 0 -76.5 -23.5t-30.5 -68.5v-15h-88v20q0 47 27 84t71.5 57t96.5 20q56 0 100 -21t68.5 -55t24.5 -72q0 -46 -23.5 -75t-71.5 -46
q83 -20 126.5 -77.5t43.5 -133.5q0 -68 -33.5 -123t-93 -86t-136.5 -31v0v0zM319 72q75 0 122 44t47 115t-47 115t-122 44t-121.5 -44t-46.5 -115t46.5 -115t121.5 -44v0v0z" />
    <glyph glyph-name="uni1C93" unicode="&#x1c93;" horiz-adv-x="925" 
d="M471 0q-110 0 -202 40t-147 120.5t-55 197.5v119q0 70 25.5 122.5t71.5 81.5t107 29q56 0 104.5 -31t68.5 -89q24 59 75 89.5t121 30.5q67 0 119 -31t80.5 -86.5t28.5 -127.5q0 -74 -29.5 -129t-83 -85t-124.5 -30t-124 29.5t-82 84t-29 125.5v22q0 68 -31.5 105.5
t-84.5 37.5q-59 0 -91 -40.5t-32 -117.5v-94q0 -140 86.5 -214t234.5 -74h243v-85h-250v0v0zM630 304q70 0 108.5 42.5t38.5 118.5t-39 119t-108 43q-67 0 -105.5 -43t-38.5 -119q0 -75 38.5 -118t105.5 -43v0v0z" />
    <glyph glyph-name="uni1C94" unicode="&#x1c94;" horiz-adv-x="645" 
d="M322 -10q-75 0 -133 31.5t-90 87.5t-32 128v49h90v-47q0 -74 45 -119t120 -45q78 0 122 47t44 134v184q0 93 -45.5 139t-122.5 46q-71 0 -114.5 -41t-43.5 -111v-28h-90v29q0 70 32 123.5t88.5 83t127.5 29.5q76 0 134 -30.5t91 -89.5t33 -142v-193q0 -80 -32 -140
t-90 -92.5t-134 -32.5v0v0z" />
    <glyph glyph-name="uni1C95" unicode="&#x1c95;" horiz-adv-x="659" 
d="M333 -10q-81 0 -141 29.5t-92.5 83.5t-32.5 124v33h90v-30q0 -71 47 -113t129 -42t128.5 34.5t46.5 93.5q0 57 -39 86t-106 29h-63v83h69q61 0 95 25t34 78q0 54 -46 87.5t-120 33.5t-122 -39t-48 -104v-22h-90v24q0 65 33.5 116.5t93 80.5t134.5 29q74 0 133 -27
t92.5 -74t33.5 -103q0 -55 -30 -92.5t-85 -53.5q58 -11 91.5 -53t33.5 -107q0 -61 -33.5 -108.5t-95 -74.5t-140.5 -27v0v0z" />
    <glyph glyph-name="uni1C96" unicode="&#x1c96;" horiz-adv-x="716" 
d="M398 -10q-77 0 -136 30.5t-91.5 83t-32.5 116.5q0 43 15.5 81.5t46.5 67.5q-67 7 -109.5 52.5t-42.5 110.5q0 51 24.5 91.5t67.5 63.5t97 23q53 0 96.5 -22.5t68.5 -61t25 -83.5q0 -49 -26 -85q78 0 136.5 -29.5t90 -82t31.5 -119.5q0 -68 -32.5 -122t-91.5 -84.5
t-137 -30.5v0v0zM237 430q46 0 75.5 27t29.5 76t-30 75.5t-75 26.5t-74.5 -26.5t-29.5 -75.5t29.5 -76t74.5 -27v0v0zM398 72q76 0 121.5 43.5t45.5 113.5t-45.5 113t-121.5 43q-75 0 -120.5 -43t-45.5 -113t45.5 -113.5t120.5 -43.5v0v0z" />
    <glyph glyph-name="uni1C97" unicode="&#x1c97;" horiz-adv-x="1008" 
d="M317 -10q-73 0 -129.5 32t-88.5 92t-32 142v188q0 82 32 142t88 92t128 32q71 0 126 -32t79 -96q23 63 72.5 95.5t115.5 32.5q64 0 112.5 -30.5t75.5 -85.5t27 -126v-468h-90v461q0 78 -34.5 121t-99.5 43q-63 0 -97 -43t-34 -121v-205q0 -82 -32.5 -142t-89.5 -92
t-129 -32v0v0zM317 75q74 0 117.5 48t43.5 141v174q0 92 -44 139.5t-117 47.5q-72 0 -116 -48t-44 -139v-174q0 -92 44 -140.5t116 -48.5v0v0z" />
    <glyph glyph-name="uni1C98" unicode="&#x1c98;" horiz-adv-x="673" 
d="M86 446q0 81 32 140.5t88.5 91.5t129.5 32q72 0 129 -32t89.5 -91.5t32.5 -140.5v-446h-90v440q0 91 -44 138t-117 47q-72 0 -116 -48t-44 -137v-440h-90v446v0v0z" />
    <glyph glyph-name="uni1C99" unicode="&#x1c99;" horiz-adv-x="642" 
d="M317 -10q-81 0 -142 30t-94 84t-33 126v30h93v-28q0 -73 46.5 -115t129.5 -42q84 0 129 38t45 111q0 69 -43.5 104t-119.5 35h-58v83h69q66 0 100 30t34 97v127h91v-133q0 -128 -121 -161q64 -14 103.5 -62t39.5 -126q0 -68 -33.5 -119.5t-94.5 -80t-141 -28.5v0v0z" />
    <glyph glyph-name="uni1C9A" unicode="&#x1c9a;" horiz-adv-x="1212" 
d="M511 0q-219 0 -336.5 93t-117.5 289v95q0 67 25.5 120t72.5 83t109 30q59 0 107 -30.5t68 -89.5q22 59 67.5 89.5t101.5 30.5q54 0 100.5 -30.5t65.5 -89.5q23 60 69.5 90t108.5 30q94 0 148.5 -64.5t54.5 -168.5v-183h-90v176q0 75 -31.5 116.5t-90.5 41.5
q-58 0 -91 -40.5t-33 -114.5v-157h-91v157q0 74 -32 114.5t-90 40.5t-90 -40.5t-32 -114.5v-157h-91v157q0 74 -31 114.5t-90 40.5t-91.5 -41.5t-32.5 -117.5v-75q0 -107 36.5 -175t118 -101t216.5 -33h424v-85h-432v0v0z" />
    <glyph glyph-name="uni1C9B" unicode="&#x1c9b;" horiz-adv-x="645" 
d="M319 -10q-76 0 -135.5 31t-93 86t-33.5 123t32.5 122.5t89 85.5t124.5 31q127 0 185 -90v105q0 67 -46.5 106t-119.5 39q-66 0 -110 -31t-45 -80h-92q1 55 34.5 99t89.5 68.5t123 24.5q73 0 131.5 -27t92 -76t33.5 -112v-265q0 -68 -33 -123t-92.5 -86t-134.5 -31v0v0z
M319 72q77 0 123 43.5t46 115.5q0 71 -46.5 115t-122.5 44q-75 0 -121.5 -44.5t-46.5 -114.5q0 -71 46.5 -115t121.5 -44v0v0z" />
    <glyph glyph-name="uni1C9C" unicode="&#x1c9c;" horiz-adv-x="645" 
d="M326 -10q-75 0 -134 31t-92 86t-33 123v272q0 59 28.5 104t80 69.5t116.5 24.5h246v-81h-234q-69 0 -108 -32.5t-39 -95.5v-112q58 90 185 90q68 0 124.5 -31t89.5 -85.5t33 -122.5t-33.5 -123t-93.5 -86t-136 -31v0v0zM326 72q75 0 122 44t47 115q0 70 -47 114.5
t-122 44.5q-76 0 -122.5 -44t-46.5 -115q0 -72 46 -115.5t123 -43.5v0v0z" />
    <glyph glyph-name="uni1C9D" unicode="&#x1c9d;" horiz-adv-x="957" 
d="M662 710q65 0 112.5 -30t72.5 -83t25 -120v-477h-92v467q0 76 -32 117t-95 41q-61 0 -94.5 -40.5t-33.5 -114.5v-284h-92v284q0 74 -31.5 114.5t-93.5 40.5q-63 0 -96.5 -41t-33.5 -118v-466h-92v477q0 67 26 120t74 83t113 30q62 0 111 -30.5t69 -89.5q23 60 70.5 90
t112.5 30v0v0z" />
    <glyph glyph-name="uni1C9E" unicode="&#x1c9e;" horiz-adv-x="611" 
d="M294 -10q-79 0 -140 30t-94 83t-33 122v35h90v-30q0 -71 47 -113t129 -42t128.5 34.5t46.5 90.5t-40 85.5t-106 29.5h-62v83h83q115 0 115 68q0 34 -24 52.5t-73 35.5q-64 22 -102.5 53.5t-38.5 92.5h91q2 -22 18 -37.5t36.5 -24.5t61.5 -23q57 -21 92 -53t35 -90
q0 -45 -30 -74.5t-86 -42.5q59 -11 92.5 -52.5t33.5 -105.5q0 -58 -34.5 -105t-96 -74.5t-139.5 -27.5v0v0z" />
    <glyph glyph-name="uni1C9F" unicode="&#x1c9f;" horiz-adv-x="657" 
d="M314 -10q-77 0 -135 29t-90 82t-32 123h90q0 -70 45 -109.5t122 -39.5q79 0 123.5 46.5t44.5 132.5v369l-236 -39q44 -13 68.5 -44t24.5 -75q0 -59 -44.5 -92t-122.5 -33h-94v75l71 1q102 0 102 69q0 36 -25 54.5t-71 18.5h-45v84l368 58h94v-448q0 -79 -32.5 -138.5
t-90.5 -91.5t-135 -32v0v0z" />
    <glyph glyph-name="uni1CA0" unicode="&#x1ca0;" horiz-adv-x="909" 
d="M643 468q65 0 112.5 -30t72.5 -83t25 -120v-235h-93v226q0 75 -32 116t-94 41q-61 0 -94.5 -40.5t-33.5 -114.5v-142h-92v143q0 74 -32 114t-93 40q-63 0 -96.5 -41t-33.5 -118v-224h-92v342q0 183 101.5 273t269.5 90h217v-85h-210q-131 0 -207.5 -55.5t-86.5 -175.5
q22 38 60 58.5t83 20.5q57 0 101.5 -30.5t64.5 -89.5q24 60 71 90t112 30v0v0z" />
    <glyph glyph-name="uni1CA1" unicode="&#x1ca1;" horiz-adv-x="670" 
d="M348 -10q-78 0 -137 31t-92 91t-33 143v445h92v-438q0 -94 45.5 -140.5t124.5 -46.5t125 39.5t46 108.5q0 35 -13 60t-39 56q-26 32 -39.5 58t-13.5 64h90q1 -22 11 -39t31 -42q32 -37 49.5 -72.5t17.5 -90.5q0 -65 -34 -116.5t-94.5 -81t-136.5 -29.5v0v0z" />
    <glyph glyph-name="uni1CA2" unicode="&#x1ca2;" horiz-adv-x="793" 
d="M397 -10q-97 0 -174.5 43t-121.5 121.5t-44 179.5q0 95 38 168.5t105.5 117.5t154.5 53l-2 37h87l-2 -37q86 -8 154 -52.5t106.5 -118.5t38.5 -168q0 -101 -44 -179.5t-122 -121.5t-174 -43v0v0zM397 75q69 0 125 31.5t88 90.5t32 137q0 111 -56.5 179.5t-149.5 81.5
q6 -58 6 -123v-184h-91v181q0 67 6 125q-93 -13 -149.5 -81t-56.5 -179q0 -78 32 -137t88 -90.5t126 -31.5v0v0z" />
    <glyph glyph-name="uni1CA3" unicode="&#x1ca3;" horiz-adv-x="644" 
d="M320 -10q-76 0 -135 31.5t-91 87.5t-32 128v49h91v-46q0 -75 45.5 -120t121.5 -45q79 0 123 47t44 135v249q0 58 -26.5 88.5t-71.5 30.5t-69.5 -29.5t-24.5 -87.5v-109h-92v108q0 57 -26.5 84.5t-76.5 27.5h-53v86h57q51 0 89.5 -22.5t55.5 -74.5q37 102 152 102
q51 0 91 -24.5t63 -68t23 -99.5v-263q0 -80 -32.5 -140t-91 -92.5t-134.5 -32.5v0v0z" />
    <glyph glyph-name="uni1CA4" unicode="&#x1ca4;" horiz-adv-x="882" 
d="M512 -21q-85 0 -149 24t-100 68t-37 102h96q3 -50 54 -80.5t139 -30.5q93 0 142 35t49 96q0 49 -28.5 81t-85.5 32h-24v84h37q58 0 92.5 27t34.5 84q0 60 -30 92t-84 32q-52 0 -83 -34t-31 -94v-22q0 -66 -28 -117.5t-78.5 -80.5t-115.5 -29q-67 0 -118 29t-79 81.5
t-28 120.5q0 67 28 119.5t77.5 82t112.5 29.5t111.5 -29t71.5 -86q19 56 66.5 85.5t105.5 29.5q57 0 101 -26t69 -71t25 -101q0 -67 -32.5 -109.5t-92.5 -59.5q49 -14 75.5 -57t26.5 -100q0 -61 -35 -108t-100.5 -73t-154.5 -26v0v0zM282 329q63 0 98.5 40.5t35.5 109.5
t-35.5 109.5t-98.5 40.5q-62 0 -99 -40.5t-37 -109.5t36.5 -109.5t99.5 -40.5v0v0z" />
    <glyph glyph-name="uni1CA5" unicode="&#x1ca5;" horiz-adv-x="654" 
d="M312 -10q-75 0 -133 31.5t-90 87.5t-32 128v33h90v-30q0 -75 45 -120t120 -45q78 0 122 47t44 135v127q0 80 -44.5 121t-109.5 41q-69 0 -107.5 -37.5t-38.5 -99.5v-16h-90v16q0 64 29.5 113.5t80 77t111.5 27.5q52 0 97 -22.5t72 -68.5v164h90v-445q0 -80 -32 -140
t-90 -92.5t-134 -32.5v0v0z" />
    <glyph glyph-name="uni1CA6" unicode="&#x1ca6;" horiz-adv-x="896" 
d="M425 0q-106 0 -189 37t-131 113.5t-48 191.5v135q0 67 25.5 120t73 83t112.5 30q62 0 111 -30.5t69 -89.5q23 60 70.5 90t112.5 30t112 -30t71.5 -83t24.5 -120v-183h-90v174q0 75 -33 116t-95 41q-61 0 -94.5 -40.5t-33.5 -114.5v-154h-90v155q0 74 -32 114t-94 40
q-63 0 -96.5 -41t-33.5 -117v-113q0 -137 72 -203t214 -66h278v-85h-286v0v0z" />
    <glyph glyph-name="uni1CA7" unicode="&#x1ca7;" horiz-adv-x="654" 
d="M314 -10q-113 0 -180 63t-67 172h90q0 -72 42 -111t115 -39q76 0 119.5 42t43.5 119v170q-28 -44 -73.5 -67.5t-104.5 -23.5q-66 0 -119 28.5t-83 81.5t-30 123v152h90v-140q0 -75 43 -119t115 -44q74 0 118 44.5t44 129.5v129h90l1 -466q0 -75 -32 -130t-89.5 -84.5
t-132.5 -29.5v0v0z" />
    <glyph glyph-name="uni1CA8" unicode="&#x1ca8;" horiz-adv-x="648" 
d="M322 -10q-76 0 -135.5 31t-93 86t-33.5 123t32.5 122.5t89 85.5t124.5 31q127 0 185 -90v140q0 54 -27 82t-74 28q-43 0 -67.5 -23.5t-24.5 -66.5v-21h-92v21q0 42 -21.5 61t-66.5 19h-58v86h58q49 0 84 -18.5t51 -65.5q34 89 150 89q51 0 92 -23t64 -64.5t23 -94.5v-298
q0 -68 -33 -123t-92.5 -86t-134.5 -31v0v0zM322 72q77 0 123 43.5t46 115.5q0 71 -46.5 115t-122.5 44q-75 0 -121.5 -44.5t-46.5 -114.5q0 -71 46.5 -115t121.5 -44v0v0z" />
    <glyph glyph-name="uni1CA9" unicode="&#x1ca9;" horiz-adv-x="646" 
d="M86 511q0 59 28.5 104.5t77.5 70t110 24.5q56 0 101.5 -20t71.5 -54.5t26 -76.5q0 -87 -97 -126q87 -10 136 -69t49 -148v-216h-90v203q0 76 -43.5 120.5t-115.5 44.5q-75 0 -119 -45.5t-44 -124.5v-198h-91v511v0v0zM177 356q22 32 51.5 52t69.5 37q55 24 82 46t27 58
q0 38 -29 59.5t-79 21.5q-54 0 -88 -34t-34 -92v-148v0v0z" />
    <glyph glyph-name="uni1CAA" unicode="&#x1caa;" horiz-adv-x="708" 
d="M372 -10q-86 0 -150.5 34.5t-100 101t-35.5 160.5v414h90v-409q0 -109 50.5 -162.5t145.5 -53.5q85 0 135 34.5t50 90.5t-41 85.5t-110 29.5h-60v83h90q111 0 111 67q0 32 -17.5 51t-54.5 41q-31 18 -49.5 34t-32 42.5t-13.5 66.5h90q3 -29 21 -47t53 -39q32 -20 51 -36
t32.5 -42t13.5 -65q0 -43 -29.5 -73t-83.5 -43q57 -11 90 -52.5t33 -105.5q0 -58 -35.5 -105t-99 -74.5t-144.5 -27.5v0v0z" />
    <glyph glyph-name="uni1CAB" unicode="&#x1cab;" horiz-adv-x="654" 
d="M309 -10q-76 0 -135.5 31t-93 86t-33.5 123t32.5 122.5t89 85.5t124.5 31q127 0 185 -90v321h91v-470q0 -68 -33 -123t-92.5 -86t-134.5 -31v0v0zM309 72q77 0 123 43.5t46 115.5q0 71 -46.5 115t-122.5 44q-75 0 -121.5 -44.5t-46.5 -114.5q0 -71 46.5 -115t121.5 -44v0
v0z" />
    <glyph glyph-name="uni1CAC" unicode="&#x1cac;" horiz-adv-x="649" 
d="M326 -10q-75 0 -134 31t-92 86t-33 123v298q0 53 23 94.5t63.5 64.5t92.5 23q115 0 150 -89q15 47 50 65.5t84 18.5h58v-86h-58q-45 0 -66.5 -19t-21.5 -61v-21h-92v21q0 43 -24.5 66.5t-67.5 23.5q-47 0 -74 -28t-27 -82v-140q58 90 185 90q68 0 124.5 -31t89.5 -85.5
t33 -122.5t-33.5 -123t-93.5 -86t-136 -31v0v0zM326 72q75 0 122 44t47 115q0 70 -47 114.5t-122 44.5q-76 0 -122.5 -44t-46.5 -115q0 -72 46 -115.5t123 -43.5v0v0z" />
    <glyph glyph-name="uni1CAD" unicode="&#x1cad;" horiz-adv-x="669" 
d="M307 -10q-74 0 -130.5 28t-88 80.5t-31.5 122.5h90q0 -69 43.5 -107.5t116.5 -38.5q75 0 119 43t44 122v129q-27 -43 -74 -63t-108 -20q-63 0 -109.5 20.5t-71.5 56.5t-25 82q0 75 52.5 116.5t145.5 41.5h190v97h91v-97h89v-75h-89v-291q0 -75 -32.5 -131t-90 -86
t-131.5 -30v0v0zM309 364q70 0 115.5 30t45.5 88v46h-175q-55 0 -88 -19.5t-33 -60.5q0 -39 35 -61.5t100 -22.5v0v0z" />
    <glyph glyph-name="uni1CAE" unicode="&#x1cae;" horiz-adv-x="654" 
d="M345 -10q-75 0 -134.5 31t-92.5 86t-33 123v470h91v-321q58 90 185 90q68 0 124.5 -31t89 -85.5t32.5 -122.5t-33.5 -123t-93 -86t-135.5 -31v0v0zM345 72q75 0 121.5 44t46.5 115q0 70 -46.5 114.5t-121.5 44.5q-76 0 -122.5 -44t-46.5 -115q0 -72 46 -115.5t123 -43.5
v0v0z" />
    <glyph glyph-name="uni1CAF" unicode="&#x1caf;" horiz-adv-x="651" 
d="M364 425q99 -5 164.5 -59.5t65.5 -152.5q0 -68 -34 -118.5t-95 -77.5t-140 -27q-81 0 -141.5 29t-93.5 81t-33 121v29h92v-26q0 -69 46.5 -109t128.5 -40q84 0 130 37t46 103t-44.5 99t-122.5 33h-59v181h-197v75h197v97h90v-97h205v-75h-205v-103v0v0z" />
    <glyph glyph-name="uni1CB0" unicode="&#x1cb0;" horiz-adv-x="602" 
d="M291 -10q-78 0 -138 24.5t-93 69.5t-33 103h90q3 -52 48 -82t125 -30q73 0 116 22t43 62q0 77 -135 77h-66v74h114q44 0 64 12t20 36q0 48 -84 48h-114v74h83q59 0 83.5 8.5t24.5 37.5q0 22 -22 32t-50.5 16.5t-38.5 8.5q-57 13 -92 39t-35 78h91q2 -15 15.5 -24.5
t37 -16.5t47.5 -13q46 -11 74.5 -22.5t48.5 -33.5t20 -58q0 -37 -23 -58t-72 -31q48 -3 75 -26t27 -59q0 -35 -26.5 -57.5t-75.5 -29.5q50 -10 77.5 -40t27.5 -76t-32 -84t-90 -59.5t-132 -21.5v0v0z" />
    <glyph glyph-name="Wgrave" unicode="&#x1e80;" horiz-adv-x="1099" 
d="M513 906l107 -153h-82l-128 153h103zM737 0l-188 576l-187 -576h-110l-226 700h95l188 -597l191 597h101l191 -596l188 596h92l-226 -700h-109z" />
    <glyph glyph-name="wgrave" unicode="&#x1e81;" horiz-adv-x="864" 
d="M391 699l106 -153h-82l-128 153h104zM755 476h88l-177 -476h-97l-138 380l-136 -380h-97l-176 476h89l138 -385l138 385h91l138 -386z" />
    <glyph glyph-name="Wacute" unicode="&#x1e82;" horiz-adv-x="1099" 
d="M581 906h103l-128 -153h-81zM737 0l-188 576l-187 -576h-110l-226 700h95l188 -597l191 597h101l191 -596l188 596h92l-226 -700h-109z" />
    <glyph glyph-name="wacute" unicode="&#x1e83;" horiz-adv-x="864" 
d="M469 699h103l-128 -153h-81zM755 476h88l-177 -476h-97l-138 380l-136 -380h-97l-176 476h89l138 -385l138 385h91l138 -386z" />
    <glyph glyph-name="Wdieresis" unicode="&#x1e84;" horiz-adv-x="1099" 
d="M445 883q24 0 40.5 -17t16.5 -41q0 -23 -16.5 -39.5t-40.5 -16.5t-40 16.5t-16 39.5q0 24 16 41t40 17v0v0zM654 883q24 0 40.5 -17t16.5 -41q0 -23 -16.5 -39.5t-40.5 -16.5t-40 16.5t-16 39.5q0 24 16 41t40 17v0v0zM737 0l-188 576l-187 -576h-110l-226 700h95
l188 -597l191 597h101l191 -596l188 596h92l-226 -700h-109z" />
    <glyph glyph-name="wdieresis" unicode="&#x1e85;" horiz-adv-x="864" 
d="M327 676q24 0 40.5 -16.5t16.5 -40.5t-16.5 -40t-40.5 -16t-40 16t-16 40t16 40.5t40 16.5v0v0zM536 676q24 0 40.5 -16.5t16.5 -40.5t-16.5 -40t-40.5 -16t-40.5 16t-16.5 40t16.5 40.5t40.5 16.5v0v0zM755 476h88l-177 -476h-97l-138 380l-136 -380h-97l-176 476h89
l138 -385l138 385h91l138 -386z" />
    <glyph glyph-name="Ygrave" unicode="&#x1ef2;" horiz-adv-x="650" 
d="M290 906l106 -153h-81l-128 153h103zM371 0h-90v292l-276 408h107l215 -325l214 325h104l-274 -409v-291z" />
    <glyph glyph-name="ygrave" unicode="&#x1ef3;" horiz-adv-x="533" 
d="M228 699l107 -153h-83l-127 153h103zM50 -202l177 306l-217 372h95l169 -287l159 287h93l-383 -678h-93z" />
    <glyph glyph-name="figuredash" unicode="&#x2012;" 
d="M61 228v73h478v-73h-478z" />
    <glyph glyph-name="endash" unicode="&#x2013;" horiz-adv-x="593" 
d="M57 228v73h479v-73h-479z" />
    <glyph glyph-name="emdash" unicode="&#x2014;" horiz-adv-x="807" 
d="M29 228v73h750v-73h-750z" />
    <glyph glyph-name="quoteleft" unicode="&#x2018;" horiz-adv-x="253" 
d="M120 720h72l-31 -262h-97z" />
    <glyph glyph-name="quoteright" unicode="&#x2019;" horiz-adv-x="253" 
d="M133 458h-72l32 262h96z" />
    <glyph glyph-name="quotesinglbase" unicode="&#x201a;" horiz-adv-x="253" 
d="M133 -131h-72l32 263h96z" />
    <glyph glyph-name="quotedblleft" unicode="&#x201c;" horiz-adv-x="438" 
d="M120 720h72l-31 -262h-97zM306 720h71l-31 -262h-97z" />
    <glyph glyph-name="quotedblright" unicode="&#x201d;" horiz-adv-x="438" 
d="M133 458h-72l32 262h96zM318 458h-72l32 262h96z" />
    <glyph glyph-name="quotedblbase" unicode="&#x201e;" horiz-adv-x="438" 
d="M133 -131h-72l32 263h96zM318 -131h-72l32 263h96z" />
    <glyph glyph-name="dagger" unicode="&#x2020;" horiz-adv-x="372" 
d="M152 550h-104v66h104v104h68v-104h104v-66h-104v-218h-68v218z" />
    <glyph glyph-name="daggerdbl" unicode="&#x2021;" horiz-adv-x="372" 
d="M324 631v-64h-104v-83h104v-65h-104v-88h-68v88h-104v65h104v83h-104v64h104v89h68v-89h104z" />
    <glyph glyph-name="bullet" unicode="&#x2022;" horiz-adv-x="439" 
d="M220 384q49 0 84 -35t35 -84t-35 -84t-84 -35q-50 0 -84.5 34.5t-34.5 84.5t34.5 84.5t84.5 34.5v0v0z" />
    <glyph glyph-name="ellipsis" unicode="&#x2026;" horiz-adv-x="752" 
d="M133 124q27 0 47 -20t20 -46q0 -27 -20 -47t-47 -20q-26 0 -46 20t-20 47q0 26 20 46t46 20v0v0zM376 124q26 0 46 -20t20 -46q0 -27 -20 -47t-46 -20t-46 20t-20 47q0 26 20 46t46 20v0v0zM619 124q26 0 46 -20t20 -46q0 -27 -20 -47t-46 -20q-27 0 -47 20t-20 47
q0 26 20 46t47 20v0v0z" />
    <glyph glyph-name="perthousand" unicode="&#x2030;" horiz-adv-x="1389" 
d="M229 710q52 0 94.5 -24t67 -65.5t24.5 -92.5q0 -52 -24.5 -93.5t-67 -65.5t-94.5 -24q-51 0 -93 24t-66 65.5t-24 93.5q0 51 24 92.5t66 65.5t93 24v0v0zM229 639q-46 0 -77.5 -31.5t-31.5 -79.5t31.5 -80t77.5 -32q48 0 79.5 31.5t31.5 80.5t-31.5 80t-79.5 31v0v0z
M739 355q52 0 94 -24t66 -65.5t24 -92.5q0 -52 -24 -93.5t-66 -65.5t-94 -24t-94 24t-66 65.5t-24 93.5q0 51 24 92.5t66 65.5t94 24v0v0zM1159 355q52 0 94.5 -24t66.5 -65.5t24 -92.5q0 -52 -24 -93.5t-66.5 -65.5t-94.5 -24t-94 24t-66 65.5t-24 93.5q0 51 24 92.5
t66 65.5t94 24v0v0zM739 284q-47 0 -78.5 -31t-31.5 -80t31.5 -80.5t78.5 -31.5t78.5 31.5t31.5 80.5t-31 80t-79 31v0v0zM1159 284q-47 0 -78 -31t-31 -80t31 -80.5t78 -31.5t78.5 31.5t31.5 80.5t-31 80t-79 31v0v0zM215 0l452 700h86l-451 -700h-87z" />
    <glyph glyph-name="minute" unicode="&#x2032;" horiz-adv-x="273" 
d="M141 380h-80l68 320h80z" />
    <glyph glyph-name="second" unicode="&#x2033;" horiz-adv-x="436" 
d="M141 380h-80l68 320h80zM305 380h-81l69 320h79z" />
    <glyph glyph-name="guilsinglleft" unicode="&#x2039;" horiz-adv-x="313" 
d="M157 78l-97 187l97 187h87l-96 -187l96 -187h-87z" />
    <glyph glyph-name="guilsinglright" unicode="&#x203a;" horiz-adv-x="313" 
d="M157 452l96 -187l-96 -187h-88l97 187l-97 187h88z" />
    <glyph glyph-name="fraction" unicode="&#x2044;" horiz-adv-x="220" 
d="M-151 0l442 700h81l-442 -700h-81z" />
    <glyph glyph-name="Euro" unicode="&#x20ac;" horiz-adv-x="705" 
d="M416 -14q-117 0 -197 66.5t-107 183.5h-87v65h77q-1 13 -1 47q0 35 1 48h-77v64h87q27 117 107 183.5t197 66.5q76 0 135.5 -29.5t101.5 -84.5l-54 -63q-67 97 -184 97q-79 0 -133.5 -44.5t-77.5 -125.5h309v-64h-321q-3 -22 -3 -48q0 -24 3 -47h321v-65h-309
q23 -80 78 -124.5t134 -44.5q116 0 184 96l51 -60q-85 -117 -235 -117v0v0z" />
    <glyph glyph-name="uni20BD" unicode="&#x20bd;" horiz-adv-x="673" 
d="M205 298v-77h220v-77h-220v-144h-90v144h-95v77h95v77h-96v80h96v322h277q113 0 172.5 -54.5t59.5 -148.5q0 -93 -59.5 -146t-172.5 -53h-187v0v0zM205 378h185q71 0 106.5 31t35.5 88q0 58 -35.5 89t-106.5 31h-185v-239v0v0z" />
    <glyph glyph-name="uni20BE" unicode="&#x20be;" horiz-adv-x="818" 
d="M228 82q-84 40 -127.5 113.5t-43.5 166.5q0 117 63.5 204.5t173.5 117.5v105h66v-92q23 3 49 3q25 0 50 -3v92h65v-106q111 -32 174.5 -121.5t63.5 -210.5h-95q0 88 -37 154.5t-106 92.5v-248h-65v269q-34 4 -50 4q-19 0 -49 -4v-269h-66v250q-70 -27 -106.5 -91.5
t-36.5 -151.5q0 -81 34 -143.5t97.5 -97t148.5 -34.5h248v-82h-563v82h112v0v0z" />
    <glyph glyph-name="trademark" unicode="&#x2122;" horiz-adv-x="725" 
d="M627 623l-80 -186h-59l-81 186v-216h-59v294h83l86 -198l87 198h82v-294h-59v216zM137 646h-99v54h256v-54h-99v-239h-58v239z" />
    <glyph glyph-name="estimated" unicode="&#x212e;" horiz-adv-x="1000" 
d="M231 166q0 -41 12.5 -70t43.5 -50q94 -66 213 -66q96 0 176.5 42t130.5 116l26 -20q-54 -80 -142 -125.5t-191 -45.5q-110 0 -201.5 50.5t-145 142.5t-53.5 210t53.5 210t145 142.5t201.5 50.5t201.5 -50.5t145 -142.5t53.5 -210v-16h-669v-168v0v0zM774 531
q0 40 -12.5 69t-42.5 50q-45 34 -101 52t-118 18q-120 0 -213 -65q-31 -22 -43.5 -51t-12.5 -70v-167h543v164v0v0z" />
    <glyph glyph-name="uni2153" unicode="&#x2153;" horiz-adv-x="848" 
d="M659 399q62 0 101 -30t39 -79q0 -33 -17 -56.5t-48 -35.5q34 -11 53.5 -34.5t19.5 -56.5q0 -54 -42.5 -83.5t-102.5 -29.5q-42 0 -76 14t-57 40l38 43q39 -37 92 -37q34 0 56.5 15t22.5 44q0 26 -24 41.5t-60 15.5h-49v57h50q33 0 54 15t21 42q0 26 -20 40.5t-54 14.5
q-52 0 -87 -40l-38 42q47 58 128 58v0v0zM131 307v306l-107 -42v65l174 69v-398h-67zM134 0l441 700h81l-442 -700h-80z" />
    <glyph glyph-name="uni2154" unicode="&#x2154;" horiz-adv-x="919" 
d="M31 638q51 67 134 67q61 0 96.5 -34t35.5 -88q0 -34 -14.5 -61.5t-44.5 -56.5l-97 -97h168v-61h-263v51l146 145q36 34 36 74q0 28 -19 46.5t-51 18.5q-27 0 -47 -12.5t-39 -34.5l-41 43v0v0zM730 399q62 0 101 -30t39 -79q0 -33 -17 -56.5t-47 -35.5q34 -11 53.5 -35
t19.5 -56q0 -54 -42.5 -83.5t-103.5 -29.5q-84 0 -133 54l38 43q39 -37 92 -37q34 0 57 15t23 44q0 26 -24 41.5t-60 15.5h-49v57h49q33 0 54.5 15t21.5 42q0 26 -20.5 40.5t-53.5 14.5q-28 0 -50 -11t-37 -29l-39 42q47 58 128 58v0v0zM205 0l442 700h81l-442 -700h-81z
" />
    <glyph glyph-name="oneeighth" unicode="&#x215b;" horiz-adv-x="880" 
d="M687 399q61 0 102 -29.5t41 -79.5q0 -65 -67 -91q35 -12 56 -35t21 -58q0 -52 -43.5 -82t-109.5 -30t-109.5 30t-43.5 82q0 35 21 58t56 35q-67 26 -67 91q0 50 41 79.5t102 29.5v0v0zM687 342q-31 0 -52 -15.5t-21 -42.5t21 -42.5t52 -15.5t52 15.5t21 42.5t-21 42.5
t-52 15.5v0v0zM687 173q-35 0 -58.5 -16t-23.5 -44q0 -30 23.5 -46t58.5 -16t58 16.5t23 45.5q0 28 -23 44t-58 16v0v0zM131 307v306l-107 -42v65l174 69v-398h-67zM134 0l441 700h81l-442 -700h-80z" />
    <glyph glyph-name="threeeighths" unicode="&#x215c;" horiz-adv-x="938" 
d="M154 705q62 0 101 -29.5t39 -78.5q0 -33 -17 -56.5t-47 -35.5q33 -11 52.5 -35t19.5 -56q0 -55 -42.5 -84t-102.5 -29q-84 0 -133 54l38 43q35 -37 92 -37q35 0 57 15t22 44q0 26 -24 41t-59 15h-50v58h50q33 0 54 15t21 42q0 25 -20 40t-53 15q-54 0 -88 -41l-39 43
q48 57 129 57v0v0zM745 399q61 0 102 -29.5t41 -79.5q0 -65 -68 -91q36 -12 57 -35t21 -58q0 -52 -43.5 -82t-109.5 -30t-109.5 30t-43.5 82q0 67 77 93q-68 26 -68 91q0 50 41.5 79.5t102.5 29.5v0v0zM745 342q-32 0 -52.5 -15t-20.5 -43t20.5 -43t52.5 -15q31 0 52 15.5
t21 42.5t-21 42.5t-52 15.5v0v0zM745 173q-35 0 -58.5 -16t-23.5 -44q0 -30 23.5 -46t58.5 -16t58 16.5t23 45.5q0 28 -23 44t-58 16v0v0zM192 0l441 700h81l-442 -700h-80z" />
    <glyph glyph-name="fiveeighths" unicode="&#x215d;" horiz-adv-x="949" 
d="M122 548h46q70 0 108 -32t38 -84q0 -60 -40.5 -95.5t-103.5 -35.5q-43 0 -78.5 15t-60.5 41l37 46q18 -18 45 -29.5t56 -11.5q36 0 56 17.5t20 47.5q0 28 -22.5 45.5t-68.5 17.5h-92l6 210h225v-61h-168l-3 -91v0v0zM755 399q61 0 102.5 -29.5t41.5 -79.5q0 -64 -68 -91
q35 -12 56 -35t21 -58q0 -52 -43.5 -82t-109.5 -30t-109.5 30t-43.5 82q0 35 21 58t56 35q-67 26 -67 91q0 50 41 79.5t102 29.5v0v0zM755 342q-31 0 -52 -15.5t-21 -42.5t21 -42.5t52 -15.5t52 15.5t21 42.5t-21 42.5t-52 15.5v0v0zM755 173q-35 0 -58 -16t-23 -44
q0 -30 23 -46t58 -16t58 16t23 46q0 28 -23 44t-58 16v0v0zM202 0l442 700h81l-442 -700h-81z" />
    <glyph glyph-name="seveneighths" unicode="&#x215e;" horiz-adv-x="869" 
d="M676 399q61 0 102 -29.5t41 -79.5q0 -65 -68 -91q36 -12 57 -35t21 -58q0 -52 -43.5 -82t-109.5 -30t-109.5 30t-43.5 82q0 35 21 58t56 35q-68 27 -68 91q0 50 41.5 79.5t102.5 29.5v0v0zM676 342q-31 0 -52 -15.5t-21 -42.5t21 -42.5t52 -15.5t52 15.5t21 42.5
t-21 42.5t-52 15.5v0v0zM676 173q-35 0 -58 -16t-23 -44q0 -30 23 -46t58 -16t58 16t23 46q0 28 -23 44t-58 16v0v0zM139 307h-78l169 331h-201v62h280v-52zM123 0l441 700h81l-441 -700h-81z" />
    <glyph glyph-name="partialdiff" unicode="&#x2202;" horiz-adv-x="593" 
d="M178 726q111 -46 193.5 -123t126.5 -171t44 -191q0 -70 -33 -127.5t-90.5 -90.5t-128.5 -33q-70 0 -127 31.5t-90 86.5t-33 123t31 123t84.5 86.5t119.5 31.5q45 0 84.5 -18.5t67.5 -52.5q-68 161 -291 262l42 63v0v0zM291 395q-47 0 -84 -21t-58.5 -58.5t-21.5 -84.5
t21.5 -84t59 -58t83.5 -21q47 0 84.5 21t59 58t21.5 84t-21.5 84.5t-59 58.5t-84.5 21v0v0z" />
    <glyph glyph-name="product" unicode="&#x220f;" horiz-adv-x="731" 
d="M546 -133v748h-360v-748h-90v833h540v-833h-90z" />
    <glyph glyph-name="summation" unicode="&#x2211;" horiz-adv-x="651" 
d="M190 615l266 -300v-51l-268 -312h405v-85h-536v71l304 349l-302 343v70h533v-85h-402z" />
    <glyph glyph-name="minus" unicode="&#x2212;" 
d="M81 228v73h438v-73h-438z" />
    <glyph glyph-name="radical" unicode="&#x221a;" horiz-adv-x="627" 
d="M213 -133l-199 501h99l155 -396l249 748h94l-287 -853h-111z" />
    <glyph glyph-name="infinity" unicode="&#x221e;" horiz-adv-x="825" 
d="M209 69q-50 0 -92 23.5t-67 67.5t-25 101t25 101t67 67.5t92 23.5q37 0 69.5 -16.5t60.5 -43.5t73 -77q44 49 73 76.5t61.5 44t69.5 16.5q50 0 92 -23.5t67 -67.5t25 -101t-25 -101t-67 -67.5t-92 -23.5q-37 0 -69.5 16.5t-61.5 44t-73 76.5q-44 -49 -72.5 -76.5t-61 -44
t-69.5 -16.5v0v0zM209 143q33 0 62.5 25t90.5 93q-62 69 -91.5 93.5t-61.5 24.5q-45 0 -75.5 -32t-30.5 -86q0 -55 30.5 -86.5t75.5 -31.5v0v0zM616 143q46 0 76.5 31.5t30.5 86.5t-30.5 86.5t-76.5 31.5q-31 0 -59.5 -23.5t-93.5 -94.5q63 -70 92 -94t61 -24v0v0z" />
    <glyph glyph-name="integral" unicode="&#x222b;" horiz-adv-x="336" 
d="M311 627q-13 4 -32 4q-81 0 -81 -98v-499q0 -81 -39 -128.5t-118 -47.5q-36 0 -61 7l21 75q20 -4 33 -4q81 0 81 99v499q0 81 39 128.5t118 47.5q29 0 60 -7l-21 -76v0v0z" />
    <glyph glyph-name="congruent" unicode="&#x2245;" 
d="M527 555q-27 -32 -60 -47.5t-75 -15.5q-32 0 -54.5 6.5t-51.5 18.5q-26 10 -43 15t-39 5q-24 0 -44 -10.5t-44 -33.5l-43 52q27 32 60 47.5t75 15.5q33 0 55.5 -6.5t51.5 -18.5q24 -11 41.5 -16t39.5 -5q24 0 45 11t43 34l43 -52v0v0zM81 323v73h438v-73h-438zM81 133v74
h438v-74h-438z" />
    <glyph glyph-name="approxequal" unicode="&#x2248;" 
d="M527 363q-28 -32 -60.5 -47.5t-74.5 -15.5q-32 0 -54.5 6.5t-51.5 18.5q-24 10 -42 15.5t-40 5.5q-24 0 -44 -10.5t-44 -34.5l-43 53q27 32 60 47t75 15q33 0 55.5 -6.5t51.5 -18.5q26 -11 42.5 -15.5t38.5 -4.5q24 0 44.5 10.5t43.5 33.5l43 -52v0v0zM527 176
q-27 -32 -60 -47.5t-75 -15.5q-32 0 -54.5 6.5t-51.5 18.5q-24 10 -42 15.5t-40 5.5q-24 0 -44 -10.5t-44 -34.5l-43 52q27 32 60 47.5t75 15.5q33 0 55.5 -6.5t51.5 -18.5q26 -11 42.5 -15.5t38.5 -4.5q24 0 44.5 10.5t43.5 33.5l43 -52v0v0z" />
    <glyph glyph-name="notequal" unicode="&#x2260;" 
d="M276 133l-58 -121h-77l58 121h-118v74h153l55 116h-208v73h243l58 121h78l-58 -121h117v-73h-152l-56 -116h208v-74h-243z" />
    <glyph glyph-name="lessequal" unicode="&#x2264;" 
d="M192 348l305 -123v-86l-393 168v81l393 170v-87zM497 97v-74h-393v74h393z" />
    <glyph glyph-name="greaterequal" unicode="&#x2265;" 
d="M497 388v-81l-393 -168v86l305 123l-305 123v87zM104 23v74h393v-74h-393z" />
    <glyph glyph-name="dotmath" unicode="&#x22c5;" 
d="M300 331q27 0 46.5 -19.5t19.5 -46.5t-19.5 -46.5t-46.5 -19.5q-26 0 -46 19.5t-20 46.5t20 46.5t46 19.5v0v0z" />
    <glyph glyph-name="lozenge" unicode="&#x25ca;" horiz-adv-x="773" 
d="M342 0l-294 350l294 350h90l293 -350l-293 -350h-90zM156 351l233 -272l229 271l-232 271z" />
    <glyph glyph-name="uniEA00" unicode="&#xea00;" horiz-adv-x="900" 
d="M586 278l85 -259l-220 160l-220 -160l84 259l-221 160h273l84 259l84 -259h271zM451 239l128 -94l-49 152l128 93h-158l-49 150v-301z" />
    <glyph glyph-name="uniEA01" unicode="&#xea01;" horiz-adv-x="900" 
d="M315 278l-221 160h273l84 259v-518l-220 -160z" />
    <glyph glyph-name="i.latn_TRK" horiz-adv-x="250" 
d="M125 698q24 0 40.5 -16.5t16.5 -40.5t-16.5 -40t-40.5 -16t-40.5 16t-16.5 40t16.5 40.5t40.5 16.5v0v0zM83 0v476h84v-476h-84z" />
    <glyph glyph-name="j.latn_NLD" horiz-adv-x="251" 
d="M169 -73q0 -64 -33 -99.5t-89 -35.5q-18 0 -37 4t-32 11l16 74q22 -10 43 -10q48 0 48 60v545h84v-549v0v0zM163 699h104l-129 -153h-81z" />
    <glyph glyph-name="Ldot.latn_CAT" horiz-adv-x="603" 
d="M426 414q25 0 42 -17.5t17 -42.5t-17 -41.5t-42 -16.5t-41.5 16.5t-16.5 41.5t16.5 42.5t41.5 17.5v0v0zM96 0v700h90v-615h398v-85h-488z" />
    <glyph glyph-name="ldot.latn_CAT" horiz-adv-x="316" 
d="M284 421q23 0 39.5 -16.5t16.5 -39.5t-16.5 -39t-39.5 -16t-39 16t-16 39t16 39.5t39 16.5v0v0zM83 0v720h84v-720h-84z" />
    <glyph glyph-name="zero.numr" horiz-adv-x="434" 
d="M217 705q47 0 86 -24.5t61.5 -70t22.5 -107.5q0 -61 -22.5 -107t-61.5 -70.5t-86 -24.5t-86 24.5t-61.5 70.5t-22.5 107q0 62 22.5 107.5t61.5 70t86 24.5v0v0zM217 642q-44 0 -72.5 -37t-28.5 -102t28.5 -101.5t72.5 -36.5t72.5 36.5t28.5 101.5t-28.5 102t-72.5 37v0v0
z" />
    <glyph glyph-name="one.numr" horiz-adv-x="273" 
d="M131 307v306l-107 -42v65l174 69v-398h-67z" />
    <glyph glyph-name="two.numr" horiz-adv-x="342" 
d="M31 638q51 67 134 67q61 0 96.5 -34t35.5 -88q0 -34 -14.5 -61.5t-44.5 -56.5l-97 -97h168v-61h-263v51l146 145q36 34 36 74q0 28 -19 46.5t-51 18.5q-27 0 -47 -12.5t-39 -34.5l-41 43v0v0z" />
    <glyph glyph-name="three.numr" horiz-adv-x="342" 
d="M154 705q62 0 101 -29.5t39 -78.5q0 -33 -17 -56.5t-47 -35.5q33 -11 52.5 -35t19.5 -56q0 -55 -42.5 -84t-102.5 -29q-84 0 -133 54l38 43q35 -37 92 -37q35 0 57 15t22 44q0 26 -24 41t-59 15h-50v58h50q33 0 54 15t21 42q0 25 -20 40t-53 15q-54 0 -88 -41l-39 43
q48 57 129 57v0v0z" />
    <glyph glyph-name="four.numr" horiz-adv-x="347" 
d="M328 442v-60h-59v-75h-67v75h-183v47l137 270h73l-132 -257h105v75l18 34h49v-109h59z" />
    <glyph glyph-name="five.numr" horiz-adv-x="356" 
d="M122 548h46q70 0 108 -32t38 -84q0 -60 -40.5 -95.5t-103.5 -35.5q-43 0 -78.5 15t-60.5 41l37 46q18 -18 45 -29.5t56 -11.5q36 0 56 17.5t20 47.5q0 28 -22.5 45.5t-68.5 17.5h-92l6 210h225v-61h-168l-3 -91v0v0z" />
    <glyph glyph-name="six.numr" horiz-adv-x="356" 
d="M155 557q15 5 31 5q62 0 100.5 -37t38.5 -91q0 -58 -42 -95.5t-106 -37.5t-106 37.5t-42 93.5q0 46 33 95l112 173h80l-99 -143v0v0zM177 507q-34 0 -56.5 -21t-22.5 -53t22.5 -52.5t56.5 -20.5t56.5 20.5t22.5 52.5t-22.5 53t-56.5 21v0v0z" />
    <glyph glyph-name="seven.numr" horiz-adv-x="332" 
d="M139 307h-78l169 331h-201v62h280v-52z" />
    <glyph glyph-name="eight.numr" horiz-adv-x="387" 
d="M194 705q62 0 102.5 -29t40.5 -79q0 -65 -68 -91q78 -27 78 -94q0 -52 -43.5 -81.5t-109.5 -29.5t-109.5 29.5t-43.5 81.5q0 35 21 58.5t56 35.5q-68 27 -68 91q0 50 41 79t103 29v0v0zM194 648q-31 0 -52 -15t-21 -42t21 -42.5t52 -15.5t52 15.5t21 42.5t-21 42t-52 15
v0v0zM194 480q-35 0 -58.5 -16.5t-23.5 -44.5q0 -29 23.5 -45.5t58.5 -16.5t58 16.5t23 45.5q0 28 -23 44.5t-58 16.5v0v0z" />
    <glyph glyph-name="nine.numr" horiz-adv-x="356" 
d="M200 450q-11 -5 -30 -5q-62 0 -100.5 36.5t-38.5 91.5q0 58 42 95t106 37t106 -37t42 -93q0 -47 -32 -96l-113 -172h-79l97 143v0v0zM179 500q34 0 56.5 21t22.5 53t-22.5 52.5t-56.5 20.5t-56.5 -21t-22.5 -52q0 -32 22.5 -53t56.5 -21v0v0z" />
    <glyph glyph-name="zero.dnom" horiz-adv-x="434" 
d="M217 399q47 0 86 -24.5t61.5 -70.5t22.5 -107q0 -62 -22.5 -108t-61.5 -70.5t-86 -24.5t-86 24.5t-61.5 70.5t-22.5 108q0 61 22.5 107t61.5 70.5t86 24.5v0v0zM217 335q-44 0 -72.5 -36.5t-28.5 -101.5t28.5 -102t72.5 -37t72.5 37t28.5 102t-28.5 101.5t-72.5 36.5v0v0
z" />
    <glyph glyph-name="one.dnom" horiz-adv-x="273" 
d="M131 0v307l-107 -43v65l174 70v-399h-67z" />
    <glyph glyph-name="two.dnom" horiz-adv-x="342" 
d="M31 332q51 67 134 67q61 0 96.5 -34t35.5 -89q0 -33 -14.5 -60.5t-44.5 -56.5l-97 -98h168v-61h-263v52l146 144q36 36 36 74q0 29 -19 47t-51 18q-27 0 -47 -12t-39 -34l-41 43v0v0z" />
    <glyph glyph-name="three.dnom" horiz-adv-x="342" 
d="M154 399q62 0 101 -30t39 -79q0 -33 -17 -56.5t-47 -35.5q33 -11 52.5 -34.5t19.5 -56.5q0 -54 -42.5 -83.5t-102.5 -29.5q-84 0 -133 54l38 43q37 -37 92 -37q34 0 56.5 15t22.5 44q0 26 -24 41.5t-59 15.5h-50v57h50q33 0 54 15t21 42q0 26 -20 40.5t-53 14.5
q-53 0 -88 -40l-39 42q49 58 129 58v0v0z" />
    <glyph glyph-name="four.dnom" horiz-adv-x="347" 
d="M328 135v-60h-59v-75h-67v75h-183v47l137 271h73l-132 -258h105v72l19 38h48v-110h59z" />
    <glyph glyph-name="five.dnom" horiz-adv-x="356" 
d="M122 241h46q70 0 108 -32t38 -84q0 -59 -40.5 -95t-103.5 -36q-43 0 -78.5 15t-60.5 41l37 46q18 -18 45.5 -29.5t55.5 -11.5q36 0 56 18t20 47t-22.5 46t-68.5 17h-92l6 210h225v-61h-168l-3 -91v0v0z" />
    <glyph glyph-name="six.dnom" horiz-adv-x="356" 
d="M155 250q11 5 31 5q62 0 100.5 -36.5t38.5 -90.5q0 -58 -42 -96t-106 -38t-106 37.5t-42 94.5q0 45 33 95l112 172h80l-99 -143v0v0zM177 200q-34 0 -56.5 -20.5t-22.5 -52.5t22.5 -53t56.5 -21t56.5 21t22.5 53t-22.5 52.5t-56.5 20.5v0v0z" />
    <glyph glyph-name="seven.dnom" horiz-adv-x="332" 
d="M139 0h-78l169 331h-201v62h280v-51z" />
    <glyph glyph-name="eight.dnom" horiz-adv-x="387" 
d="M194 399q61 0 102 -29.5t41 -79.5q0 -65 -68 -91q36 -12 57 -35t21 -58q0 -52 -43.5 -82t-109.5 -30t-109.5 30t-43.5 82q0 35 21 58t56 35q-68 27 -68 91q0 50 41.5 79.5t102.5 29.5v0v0zM194 342q-31 0 -52 -15.5t-21 -42.5t21 -42.5t52 -15.5t52 15.5t21 42.5
t-21 42.5t-52 15.5v0v0zM194 173q-35 0 -58.5 -16t-23.5 -44q0 -30 23.5 -46t58.5 -16t58 16t23 46q0 28 -23 44t-58 16v0v0z" />
    <glyph glyph-name="nine.dnom" horiz-adv-x="356" 
d="M200 143q-15 -5 -30 -5q-62 0 -100.5 37t-38.5 91q0 58 42 95.5t106 37.5t106 -37.5t42 -93.5q0 -47 -32 -96l-113 -172h-79l97 143v0v0zM179 194q35 0 57 20.5t22 52.5t-22 52.5t-57 20.5q-34 0 -56.5 -20.5t-22.5 -52.5t22.5 -52.5t56.5 -20.5v0v0z" />
    <glyph glyph-name="space.frac" horiz-adv-x="52" 
 />
    <glyph glyph-name="b.ordn" horiz-adv-x="443" 
d="M242 647q45 0 82 -22.5t58.5 -62t21.5 -88.5t-21.5 -88.5t-58.5 -62.5t-82 -23q-77 0 -117 64v-57h-64v502h65v-224q18 29 47.5 45.5t68.5 16.5v0v0zM230 586q-47 0 -77 -32t-30 -80q0 -49 30 -80.5t77 -31.5t77.5 32t30.5 80t-30.5 80t-77.5 32v0v0z" />
    <glyph glyph-name="c.ordn" horiz-adv-x="380" 
d="M212 647q40 0 73.5 -15.5t57.5 -43.5l-48 -40q-35 38 -84 38q-45 0 -75.5 -31.5t-30.5 -80.5q0 -50 30 -81t76 -31q50 0 85 37l47 -40q-24 -28 -57.5 -43.5t-73.5 -15.5q-51 0 -90.5 22.5t-61.5 62t-22 89.5q0 49 22 88.5t61.5 62t90.5 22.5v0v0z" />
    <glyph glyph-name="d.ordn" horiz-adv-x="443" 
d="M201 647q39 0 68.5 -17t47.5 -47v226h65v-502h-64v58q-39 -65 -117 -65q-46 0 -83 23t-58.5 62.5t-21.5 88.5t21.5 88.5t58.5 62t83 22.5v0v0zM213 586q-47 0 -77.5 -32t-30.5 -80t30 -80t78 -32q47 0 77 31.5t30 80.5q0 48 -30.5 80t-76.5 32v0v0z" />
    <glyph glyph-name="e.ordn" horiz-adv-x="403" 
d="M205 647q46 0 82.5 -22t57.5 -61t21 -89q0 -11 -2 -23h-258q5 -45 34 -70t72 -25q59 0 99 40l39 -42q-55 -55 -141 -55q-76 0 -123.5 48t-47.5 125q0 50 21.5 90t59.5 62t86 22v0v0zM205 591q-41 0 -67.5 -25.5t-31.5 -67.5h193q-5 42 -30.5 67.5t-63.5 25.5v0v0z" />
    <glyph glyph-name="h.ordn" horiz-adv-x="425" 
d="M126 589q17 29 45.5 43.5t62.5 14.5q60 0 97 -35.5t37 -95.5v-209h-66v188q0 43 -23 67t-63 24q-38 0 -64 -25.5t-26 -67.5v-186h-65v502h65v-220v0v0z" />
    <glyph glyph-name="l.ordn" horiz-adv-x="186" 
d="M61 307v502h65v-502h-65z" />
    <glyph glyph-name="m.ordn" horiz-adv-x="666" 
d="M474 647q61 0 98.5 -35.5t37.5 -95.5v-209h-66v188q0 43 -23 67t-64 24q-38 0 -63.5 -25.5t-25.5 -67.5v-186h-66v188q0 43 -23 67t-63 24q-38 0 -64 -25.5t-26 -67.5v-186h-65v333h64v-54q17 31 45.5 46t63.5 15q41 0 72.5 -18t46.5 -50q18 34 50 51t71 17v0v0z" />
    <glyph glyph-name="r.ordn" horiz-adv-x="297" 
d="M223 647q31 0 52 -9l-10 -65q-25 11 -57 11q-37 0 -59.5 -24.5t-22.5 -67.5v-185h-65v333h64v-50q14 28 39.5 42.5t58.5 14.5v0v0z" />
    <glyph glyph-name="s.ordn" horiz-adv-x="358" 
d="M293 562q-22 12 -52 21t-59 9q-32 0 -50.5 -12t-18.5 -33q0 -35 67 -41l35 -5q53 -7 81.5 -30.5t28.5 -63.5q0 -50 -39.5 -78.5t-108.5 -28.5q-40 0 -78 10t-66 30l27 50q49 -35 117 -35q39 0 60 12t21 35q0 36 -68 43l-33 4q-112 13 -112 95q0 48 36.5 75.5t99.5 27.5
q75 0 135 -34l-23 -51v0v0z" />
    <glyph glyph-name="t.ordn" horiz-adv-x="334" 
d="M159 432q0 -36 17 -53t46 -17q35 0 70 24l24 -51q-45 -35 -105 -35q-57 0 -87.5 32.5t-30.5 94.5v155h-71v58h71v105h66v-105h138v-58h-138v-150v0v0z" />
    <glyph glyph-name="u.ordn" horiz-adv-x="428" 
d="M368 447q0 -71 -43.5 -109t-110.5 -38t-110 38t-43 109v193h65v-187q0 -44 24 -67.5t64 -23.5t64 23.5t24 67.5v187h66v-193v0v0z" />
    <glyph glyph-name="egrave.ordn" horiz-adv-x="403" 
d="M209 300q-76 0 -123.5 48t-47.5 125q0 50 21.5 90t59.5 62t86 22q46 0 82.5 -22t57.5 -61t21 -89q0 -11 -2 -23h-258q5 -45 34 -70t72 -25q59 0 99 40l39 -42q-55 -55 -141 -55v0v0zM299 498q-5 42 -30.5 67.5t-63.5 25.5q-41 0 -67.5 -25.5t-31.5 -67.5h193v0v0z
M101 797h79l75 -109h-63z" />
    <glyph glyph-name="zero.osf" horiz-adv-x="670" 
d="M335 533q77 0 140 -34t100 -95.5t37 -141.5t-37 -142t-100 -96t-140 -34q-76 0 -139.5 34t-100.5 96t-37 142t37 141.5t100 95.5t140 34v0v0zM335 453q-53 0 -96.5 -23.5t-69 -67t-25.5 -100.5t25.5 -100.5t69 -67.5t96.5 -24q54 0 97.5 23.5t69 67t25.5 101.5
q0 57 -25.5 100.5t-69 67t-97.5 23.5v0v0z" />
    <glyph glyph-name="one.osf" horiz-adv-x="383" 
d="M205 0v419l-173 -57v84l258 88v-534h-85z" />
    <glyph glyph-name="two.osf" horiz-adv-x="539" 
d="M38 425q85 107 218 107q62 0 110.5 -23.5t75.5 -64.5t27 -92q0 -63 -39.5 -112.5t-112.5 -92.5l-112 -66h293v-81h-441v69l208 130q62 38 88.5 73.5t26.5 72.5q0 45 -35 76t-94 31q-53 0 -89.5 -22t-66.5 -58l-57 53v0v0z" />
    <glyph glyph-name="three.osf" horiz-adv-x="548" 
d="M251 532q68 0 120.5 -24t81.5 -68t29 -100q0 -59 -29.5 -100.5t-82.5 -63.5q59 -20 93.5 -63t34.5 -102q0 -64 -33.5 -109t-88.5 -67t-119 -22q-72 0 -130.5 24t-97.5 68l54 57q33 -33 77.5 -51.5t94.5 -18.5q66 0 109.5 31.5t43.5 91.5q0 57 -46 90t-115 33h-90v77h89
q65 0 106.5 31t41.5 89q0 54 -42 86t-106 32q-49 0 -88 -22t-64 -56l-59 53q32 48 87.5 76t128.5 28v0v0z" />
    <glyph glyph-name="four.osf" horiz-adv-x="574" 
d="M550 81v-81h-126v-178h-85v178h-315v65l235 457h92l-227 -441h215v173h85v-173h126z" />
    <glyph glyph-name="five.osf" horiz-adv-x="571" 
d="M173 244h98q81 0 136.5 -27t83.5 -74.5t28 -107.5q0 -69 -32 -119.5t-87.5 -77t-122.5 -26.5q-150 0 -239 107l54 58q33 -40 82 -62.5t102 -22.5q72 0 112.5 38.5t40.5 97.5q0 63 -44 100t-140 37h-151l8 357h383v-80h-306l-6 -198v0v0z" />
    <glyph glyph-name="six.osf" horiz-adv-x="575" 
d="M224 435q34 14 73 14q68 0 123 -30t86.5 -82.5t31.5 -116.5q0 -65 -32.5 -117.5t-90.5 -82.5t-129 -30t-128.5 30t-90 82.5t-32.5 117.5q0 76 53 157l206 323h104l-174 -265v0v0zM286 371q-46 0 -83 -19.5t-58 -53.5t-21 -77q0 -66 46 -108.5t116 -42.5q71 0 117 42.5
t46 108.5q0 43 -21 77t-58.5 53.5t-83.5 19.5v0v0z" />
    <glyph glyph-name="seven.osf" horiz-adv-x="548" 
d="M201 -178h-100l310 619h-376v81h478v-66z" />
    <glyph glyph-name="eight.osf" horiz-adv-x="602" 
d="M302 710q65 0 118.5 -24t85 -68t31.5 -101q0 -58 -30.5 -98.5t-80.5 -64.5q57 -22 92 -64t35 -103q0 -59 -33.5 -103.5t-91 -69t-126.5 -24.5q-70 0 -127.5 24.5t-91.5 69t-34 103.5q0 61 35 103t93 64q-50 24 -80.5 64.5t-30.5 98.5q0 57 31.5 101t85.5 68t119 24v0v0z
M302 630q-62 0 -103.5 -32t-41.5 -86q0 -56 41.5 -89t103.5 -33t103 33t41 89q0 53 -41 85.5t-103 32.5v0v0zM302 316q-69 0 -115 -33.5t-46 -89.5t46 -90t115 -34q68 0 114 34t46 90t-46 89.5t-114 33.5v0v0z" />
    <glyph glyph-name="nine.osf" horiz-adv-x="575" 
d="M351 88q-34 -14 -73 -14q-68 0 -123 30t-86 82t-31 116q0 65 32.5 117.5t90 82.5t128.5 30t128.5 -30t90 -82t32.5 -117q0 -40 -13 -78t-40 -79l-205 -324h-105l174 266v0v0zM289 152q46 0 83 19.5t58 53.5t21 77q0 67 -45.5 109t-116.5 42t-116.5 -42.5t-45.5 -108.5
q0 -43 21 -77t58 -53.5t83 -19.5v0v0z" />
    <glyph glyph-name="zero.tf" 
d="M301 710q75 0 134.5 -40t94 -121t34.5 -199q0 -121 -34.5 -202t-94 -119.5t-134.5 -38.5q-76 0 -135.5 38.5t-94.5 119.5t-35 202q0 122 35 202.5t94.5 119t135.5 38.5v0v0zM301 626q-78 0 -126.5 -67.5t-48.5 -208.5t48.5 -208.5t126.5 -67.5t125.5 67.5t47.5 208.5
q0 92 -22.5 154t-61.5 92t-89 30v0v0z" />
    <glyph glyph-name="one.tf" 
d="M288 591l-199 -71v88l285 100v-625h180v-83h-458v83h192v508z" />
    <glyph glyph-name="two.tf" 
d="M64 592q81 118 220 118q70 0 121 -28t78 -77.5t27 -111.5q0 -59 -25.5 -106.5t-71.5 -95.5l-199 -209h319v-82h-446v68l262 273q34 35 52 71.5t18 77.5q0 59 -37.5 98t-101.5 39q-53 0 -90 -23.5t-67 -64.5l-59 53v0v0z" />
    <glyph glyph-name="three.tf" 
d="M278 710q69 0 122.5 -24t83 -68t29.5 -100q0 -61 -30 -102.5t-83 -61.5q60 -21 94.5 -63.5t34.5 -102.5q0 -64 -34 -108.5t-90 -67t-121 -22.5q-72 0 -130.5 24.5t-97.5 68.5l54 59q32 -34 76.5 -52.5t95.5 -18.5q67 0 111.5 31.5t44.5 91.5q0 56 -47 88t-117 32h-91v79
h92q65 0 106.5 31t41.5 88q0 53 -42.5 85.5t-107.5 32.5q-49 0 -88.5 -22t-64.5 -56l-59 54q35 47 89.5 75.5t127.5 28.5v0v0z" />
    <glyph glyph-name="four.tf" 
d="M568 226v-82h-116v-144h-87v144h-327v65l256 491h97l-248 -474h222v195h87v-195h116z" />
    <glyph glyph-name="five.tf" 
d="M188 423h99q80 0 135.5 -27t83.5 -74t28 -106q0 -70 -32 -121t-87.5 -78t-124.5 -27q-74 0 -134 27.5t-104 79.5l52 59q34 -39 83 -61t103 -22q71 0 112 38.5t41 98.5q0 59 -44 96t-137 37h-154l9 357h383v-81h-305l-7 -196v0v0z" />
    <glyph glyph-name="six.tf" 
d="M238 436q36 13 72 13q68 0 123.5 -30t86.5 -82t31 -116q0 -65 -33 -118t-90.5 -83t-128.5 -30t-128.5 30t-90.5 82.5t-33 117.5q0 40 13.5 78t40.5 81l205 321h106l-174 -264v0v0zM299 371q-46 0 -82.5 -19.5t-57.5 -53.5t-21 -77q0 -66 45.5 -108.5t115.5 -42.5
t115.5 42.5t45.5 108.5q0 43 -21 77t-57.5 53.5t-82.5 19.5v0v0z" />
    <glyph glyph-name="seven.tf" 
d="M231 0h-102l309 619h-375v81h480v-68z" />
    <glyph glyph-name="eight.tf" 
d="M300 710q68 0 124 -23t89 -66.5t33 -102.5q0 -60 -31 -100.5t-84 -63.5q60 -22 96 -63.5t36 -103.5q0 -61 -35 -105.5t-95 -68t-133 -23.5t-132.5 23.5t-94.5 68t-35 105.5q0 62 35.5 103.5t95.5 63.5q-52 23 -83 63.5t-31 100.5q0 59 32.5 102.5t88.5 66.5t124 23v0v0z
M300 630q-66 0 -109.5 -31t-43.5 -87q0 -58 43.5 -90t109.5 -32t110 32t44 90q0 56 -44 87t-110 31v0v0zM300 317q-73 0 -121 -32.5t-48 -91.5q0 -58 48 -90.5t121 -32.5t121 32.5t48 90.5q0 59 -48 91.5t-121 32.5v0v0z" />
    <glyph glyph-name="nine.tf" 
d="M362 265q-34 -14 -72 -14q-69 0 -123.5 30t-85.5 82.5t-31 116.5q0 65 32.5 117.5t90 82.5t128.5 30t128.5 -30t90.5 -82.5t33 -116.5q0 -40 -13.5 -78.5t-40.5 -80.5l-205 -322h-106l174 265v0v0zM301 330q46 0 82.5 19.5t57.5 53.5t21 77t-21 77t-57.5 53.5t-82.5 19.5
t-82.5 -19.5t-57.5 -53.5t-21 -77t21 -77t57.5 -53.5t82.5 -19.5v0v0z" />
    <glyph glyph-name="zero.tosf" 
d="M300 532q73 0 133 -33t95 -94.5t35 -142.5q0 -82 -35 -143.5t-95 -95t-133 -33.5t-133 33.5t-95 95.5t-35 143t35 142.5t95 94.5t133 33v0v0zM300 455q-49 0 -89.5 -23.5t-64 -67t-23.5 -102.5t23.5 -103t64 -67.5t89.5 -23.5t89.5 23.5t64 67.5t23.5 103t-23.5 102.5
t-64 67t-89.5 23.5v0v0z" />
    <glyph glyph-name="one.tosf" 
d="M286 425l-191 -55v85l276 79v-453l174 1v-82h-444v81h185v344z" />
    <glyph glyph-name="two.tosf" 
d="M76 425q85 107 218 107q62 0 110.5 -23.5t75.5 -64.5t27 -92q0 -63 -39.5 -112.5t-112.5 -92.5l-112 -66h294v-81h-442v69l208 130q62 38 88.5 73.5t26.5 72.5q0 45 -34.5 76t-94.5 31q-52 0 -89 -22t-67 -58l-57 53v0v0z" />
    <glyph glyph-name="three.tosf" 
d="M283 532q68 0 121 -24t82 -68t29 -100q0 -59 -30 -100.5t-82 -63.5q59 -20 93 -63t34 -102q0 -64 -33.5 -109t-88.5 -67t-119 -22q-72 0 -130 24t-97 68l54 57q32 -33 76 -51.5t95 -18.5q67 0 110.5 31.5t43.5 91.5q0 57 -46.5 90t-115.5 33h-90v77h90q65 0 106 31t41 89
q0 54 -41.5 86t-106.5 32q-49 0 -88 -22t-64 -56l-59 53q32 48 87.5 76t128.5 28v0v0z" />
    <glyph glyph-name="four.tosf" 
d="M361 0h-315v65l235 457h92l-226 -441h214v173h85v-173h127v-81h-127v-178h-85v178z" />
    <glyph glyph-name="five.tosf" 
d="M188 244h97q81 0 137 -27t84 -74.5t28 -107.5q0 -69 -32 -119.5t-87.5 -77t-122.5 -26.5q-150 0 -239 107l54 58q33 -40 82 -62.5t102 -22.5q72 0 112.5 38.5t40.5 97.5q0 63 -44 100t-140 37h-152l9 357h382v-80h-305l-6 -198v0v0z" />
    <glyph glyph-name="six.tosf" 
d="M240 435q34 14 73 14q68 0 123 -30t86.5 -82.5t31.5 -116.5q0 -65 -32.5 -117.5t-90.5 -82.5t-129 -30t-128.5 30t-90 82.5t-32.5 117.5q0 74 54 157l205 323h104l-174 -265v0v0zM302 371q-46 0 -83 -19.5t-58 -53.5t-21 -77q0 -66 46 -108.5t116 -42.5q71 0 117 42.5
t46 108.5q0 43 -21 77t-58.5 53.5t-83.5 19.5v0v0z" />
    <glyph glyph-name="seven.tosf" 
d="M236 -178h-100l311 619h-377v81h479v-66z" />
    <glyph glyph-name="eight.tosf" 
d="M306 710q65 0 118.5 -24t85 -68t31.5 -101q0 -58 -30 -99t-81 -64q57 -22 92 -64t35 -103q0 -59 -33.5 -103.5t-91 -69t-126.5 -24.5t-126.5 24.5t-91.5 69t-34 103.5q0 61 35 103t92 64q-50 23 -80 64t-30 99q0 57 31.5 101t85 68t118.5 24v0v0zM306 630
q-62 0 -103.5 -32.5t-41.5 -85.5q0 -56 41.5 -89t103.5 -33t103.5 33.5t41.5 88.5q0 53 -41.5 85.5t-103.5 32.5v0v0zM306 316q-69 0 -115 -33.5t-46 -89.5t46 -90t115 -34q68 0 114.5 34t46.5 90q0 55 -46.5 89t-114.5 34v0v0z" />
    <glyph glyph-name="nine.tosf" 
d="M360 88q-34 -14 -73 -14q-68 0 -123 30t-86 82t-31 116q0 65 32.5 117.5t90 82.5t128.5 30t128.5 -30t90 -82t32.5 -117q0 -39 -13.5 -77t-39.5 -80l-206 -324h-104l174 266v0v0zM298 152q46 0 83 19.5t58 53.5t21 77q0 66 -46 108.5t-116 42.5q-46 0 -83.5 -19.5
t-58.5 -54t-21 -77.5t21 -77t58.5 -53.5t83.5 -19.5v0v0z" />
    <glyph glyph-name="exclam.sc" horiz-adv-x="266" 
d="M133 106q24 0 41 -17t17 -40t-17 -40.5t-41 -17.5q-23 0 -40 17.5t-17 40.5t17 40t40 17v0v0zM97 183l-10 341h92l-10 -341h-72z" />
    <glyph glyph-name="numbersign.sc" horiz-adv-x="597" 
d="M224 524h70l-28 -128h123l28 128h71l-28 -128h82l-14 -65h-82l-31 -136h83l-15 -65h-82l-29 -130h-71l29 130h-123l-29 -130h-71l29 130h-81l14 65h82l30 136h-82l14 65h82zM344 195l31 136h-123l-31 -136h123z" />
    <glyph glyph-name="percent.sc" horiz-adv-x="770" 
d="M186 532q62 0 103 -39t41 -98t-41 -98.5t-103 -39.5q-61 0 -101.5 39.5t-40.5 98.5t40.5 98t101.5 39v0v0zM186 472q-33 0 -55.5 -22t-22.5 -55q0 -34 22.5 -56t55.5 -22q34 0 56.5 22t22.5 56q0 33 -22.5 55t-56.5 22v0v0zM583 267q62 0 103 -39t41 -98t-41 -98
t-103 -39q-61 0 -102 39t-41 98q0 58 41 97.5t102 39.5v0v0zM583 208q-34 0 -56 -22t-22 -56t22 -55.5t56 -21.5q35 0 57 21.5t22 55.5t-22.5 56t-56.5 22v0v0zM166 0l359 524h77l-358 -524h-78z" />
    <glyph glyph-name="ampersand.sc" horiz-adv-x="567" 
d="M207 -7q-73 0 -116 36t-43 96q0 46 27.5 81.5t77.5 70.5q-40 39 -57.5 67t-17.5 63q0 53 41 88.5t104 35.5q64 0 104 -34.5t40 -87.5q0 -40 -27 -71t-77 -65l108 -102l86 115l57 -38l-92 -124l132 -124h-103l-76 71q-35 -36 -75.5 -57t-92.5 -21v0v0zM214 318
q38 25 58 45.5t20 44.5t-19 40.5t-50 16.5t-50 -17.5t-19 -43.5q0 -19 12 -35.5t48 -50.5v0v0zM213 60q33 0 58.5 14.5t53.5 42.5l-123 115q-35 -26 -54.5 -49.5t-19.5 -51.5q0 -32 23.5 -51.5t61.5 -19.5v0v0z" />
    <glyph glyph-name="parenleft.sc" horiz-adv-x="331" 
d="M294 519q-75 -30 -116.5 -99.5t-41.5 -157.5t41.5 -157.5t116.5 -99.5l-24 -69q-63 22 -112 69.5t-76.5 114t-27.5 142.5t27.5 142.5t76.5 114t112 69.5l24 -69v0v0z" />
    <glyph glyph-name="parenright.sc" horiz-adv-x="331" 
d="M37 4q75 31 116.5 100.5t41.5 157.5t-41.5 157.5t-116.5 99.5l24 69q63 -22 112 -69.5t76.5 -114t27.5 -142.5t-27.5 -142.5t-76.5 -114t-112 -69.5l-24 68v0v0z" />
    <glyph glyph-name="asterisk.sc" horiz-adv-x="371" 
d="M156 524h60l-1 -95l92 31l19 -58l-93 -27l58 -75l-48 -36l-57 78l-56 -78l-49 36l58 75l-93 27l19 58l92 -31z" />
    <glyph glyph-name="slash.sc" horiz-adv-x="428" 
d="M37 0l266 524h89l-267 -524h-88z" />
    <glyph glyph-name="zero.sc" horiz-adv-x="575" 
d="M287 531q64 0 117 -32.5t83.5 -93.5t30.5 -143t-30.5 -143t-83.5 -93.5t-117 -32.5t-116.5 32.5t-83 93.5t-30.5 143t30.5 143t83 93.5t116.5 32.5v0v0zM287 454q-41 0 -74.5 -22.5t-53 -66t-19.5 -103.5t19.5 -103.5t53 -66.5t74.5 -23q42 0 75.5 22.5t53 66.5t19.5 104
t-19.5 103.5t-53 66t-75.5 22.5v0v0z" />
    <glyph glyph-name="one.sc" horiz-adv-x="361" 
d="M190 0v419l-161 -64v79l241 96v-530h-80z" />
    <glyph glyph-name="two.sc" horiz-adv-x="446" 
d="M37 442q66 89 176 89q81 0 129 -46t48 -119q0 -44 -20.5 -80t-57.5 -73l-141 -138h235v-75h-350v63l199 196q52 50 52 103q0 40 -27 66t-73 26q-39 0 -66.5 -16.5t-51.5 -45.5l-52 50v0v0z" />
    <glyph glyph-name="three.sc" horiz-adv-x="452" 
d="M203 531q85 0 137.5 -40t52.5 -104q0 -45 -23.5 -76t-64.5 -47q46 -15 72.5 -46.5t26.5 -75.5q0 -72 -57.5 -110.5t-139.5 -38.5q-56 0 -102 18.5t-76 51.5l46 52q25 -24 59 -37.5t71 -13.5q50 0 83 21.5t33 61.5q0 39 -34.5 61t-86.5 22h-69v69h69q48 0 79 21.5t31 59.5
q0 36 -30.5 57.5t-79.5 21.5q-38 0 -68 -15.5t-51 -40.5l-50 52q29 35 72.5 55.5t99.5 20.5v0v0z" />
    <glyph glyph-name="four.sc" horiz-adv-x="459" 
d="M437 178v-75h-85v-103h-80v103h-249v57l189 363h89l-182 -345h153v144h80v-144h85z" />
    <glyph glyph-name="five.sc" horiz-adv-x="466" 
d="M153 319h68q94 0 144 -42t50 -114q0 -78 -54 -124t-138 -46q-58 0 -105 19.5t-81 56.5l44 57q25 -26 63 -42.5t79 -16.5q51 0 80 24.5t29 64.5q0 92 -132 92h-120l7 276h301v-74h-231l-4 -131v0v0z" />
    <glyph glyph-name="six.sc" horiz-adv-x="464" 
d="M196 331q21 8 44 8q54 0 97 -22.5t66.5 -61.5t23.5 -87q0 -50 -25.5 -90t-70.5 -62.5t-100 -22.5t-100 22.5t-71 62t-26 88.5q0 59 43 124l154 234h96l-131 -193v0v0zM231 270q-49 0 -81 -29t-32 -74q0 -44 32 -73t81 -29t80.5 29t31.5 73q0 45 -31.5 74t-80.5 29v0v0z
" />
    <glyph glyph-name="seven.sc" horiz-adv-x="443" 
d="M175 0h-94l233 449h-280v75h375v-63z" />
    <glyph glyph-name="eight.sc" horiz-adv-x="504" 
d="M252 531q81 0 136 -39t55 -106q0 -43 -23 -73.5t-62 -47.5q45 -17 71 -48t26 -77q0 -68 -58 -108t-145 -40t-145.5 40t-58.5 108q0 46 26.5 77t71.5 48q-39 17 -61.5 47.5t-22.5 73.5q0 67 54.5 106t135.5 39v0v0zM252 460q-45 0 -75 -21t-30 -59q0 -40 29.5 -61.5
t75.5 -21.5t76 21.5t30 61.5q0 38 -30 59t-76 21v0v0zM252 233q-50 0 -83.5 -22.5t-33.5 -62.5t33.5 -62.5t83.5 -22.5t83.5 22.5t33.5 62.5t-33.5 62.5t-83.5 22.5v0v0z" />
    <glyph glyph-name="nine.sc" horiz-adv-x="464" 
d="M268 192q-20 -7 -45 -7q-54 0 -96.5 22.5t-66 61.5t-23.5 87q0 50 25.5 90t70.5 62.5t101 22.5q55 0 99.5 -22.5t70.5 -62t26 -88.5q0 -59 -43 -124l-153 -234h-97l131 192v0v0zM234 254q48 0 80 29t32 73q0 45 -32 74t-80 29q-49 0 -81 -29t-32 -74q0 -44 32 -73t81 -29
v0v0z" />
    <glyph glyph-name="question.sc" horiz-adv-x="383" 
d="M134 301q61 0 94.5 20.5t33.5 57.5q0 35 -34 55.5t-92 20.5q-8 0 -53 -3l-6 76q33 5 69 5q92 0 146.5 -40.5t54.5 -106.5q0 -63 -43 -101.5t-123 -48.5l-3 -57h-72v122h28v0v0zM143 106q23 0 40 -17t17 -40t-17 -40.5t-40 -17.5q-24 0 -41.5 17.5t-17.5 40.5t17.5 40
t41.5 17v0v0z" />
    <glyph glyph-name="at.sc" horiz-adv-x="747" 
d="M513 235q0 -65 40 -65q29 0 46.5 29t17.5 82q0 67 -31.5 119t-86.5 80.5t-124 28.5t-125 -31.5t-87.5 -87t-31.5 -125.5t31.5 -126t86.5 -88t124 -32q81 0 145 45l36 -46q-74 -57 -180 -57q-88 0 -158.5 40t-110.5 109t-40 155q0 85 40 154.5t111 109t159 39.5
q87 0 157.5 -37t110 -102.5t39.5 -147.5q0 -73 -36 -120t-96 -47q-35 0 -58 14.5t-32 40.5q-16 -23 -41 -36.5t-58 -13.5q-61 0 -100 42t-39 104q0 63 38 104.5t98 41.5q61 0 94 -48v42h61v-170v0v0zM370 353q-37 0 -60.5 -25t-23.5 -63t23.5 -62.5t60.5 -24.5
q36 0 59.5 24.5t23.5 62.5t-23.5 63t-59.5 25v0v0z" />
    <glyph glyph-name="bracketleft.sc" horiz-adv-x="318" 
d="M91 -49v622h190v-70h-112v-483h112v-69h-190z" />
    <glyph glyph-name="backslash.sc" horiz-adv-x="428" 
d="M125 524l267 -524h-89l-266 524h88z" />
    <glyph glyph-name="bracketright.sc" horiz-adv-x="318" 
d="M227 573v-622h-190v70h111v483h-111v69h190z" />
    <glyph glyph-name="a.sc" horiz-adv-x="577" 
d="M474 0l-56 132h-262l-55 -132h-87l225 524h99l224 -524h-88zM388 206l-100 238l-102 -238h202z" />
    <glyph glyph-name="b.sc" horiz-adv-x="583" 
d="M316 524q96 0 149 -35.5t53 -106.5q0 -41 -22.5 -71t-61.5 -44q43 -13 69 -45t26 -76q0 -72 -53 -109t-150 -37h-235v524h225v0v0zM313 300q119 0 119 77q0 76 -119 76h-139v-153h139v0v0zM322 70q122 0 122 81q0 80 -122 80h-148v-161h148v0v0z" />
    <glyph glyph-name="c.sc" horiz-adv-x="597" 
d="M327 531q72 0 131.5 -31t92.5 -87l-71 -41q-24 38 -64 59t-90 21q-52 0 -94.5 -24t-66.5 -67.5t-24 -98.5q0 -57 24.5 -100t67 -66.5t93.5 -23.5q49 0 89.5 21t65.5 59l67 -48q-35 -53 -92.5 -82.5t-128.5 -29.5q-78 0 -140 34.5t-97.5 96t-35.5 139.5t35.5 139
t97.5 95.5t140 34.5v0v0z" />
    <glyph glyph-name="d.sc" horiz-adv-x="633" 
d="M304 524q81 0 143.5 -32.5t96.5 -92t34 -137.5q0 -79 -34 -138t-96.5 -91.5t-143.5 -32.5h-213v524h213v0v0zM303 77q89 0 139.5 51t50.5 134q0 84 -50.5 134.5t-139.5 50.5h-129v-370h129v0v0z" />
    <glyph glyph-name="e.sc" horiz-adv-x="562" 
d="M91 0v524h396v-74h-313v-149h301v-74h-301v-153h315v-74h-398z" />
    <glyph glyph-name="f.sc" horiz-adv-x="538" 
d="M174 222v-222h-83v524h392v-75h-309v-152h295v-75h-295z" />
    <glyph glyph-name="g.sc" horiz-adv-x="635" 
d="M328 531q62 0 113.5 -21.5t87.5 -61.5l-60 -58q-26 30 -63 46.5t-80 16.5q-53 0 -95.5 -24.5t-67 -68t-24.5 -98.5q0 -57 25 -101t67.5 -68t93.5 -24q73 0 118 39t53 109h-156v67h240q1 -9 1 -26q0 -78 -33.5 -138.5t-91.5 -93.5t-129 -33q-74 0 -136.5 33.5t-99.5 94.5
t-37 141q0 78 35.5 139t98 95.5t140.5 34.5v0v0z" />
    <glyph glyph-name="h.sc" horiz-adv-x="648" 
d="M474 302v222h83v-524h-83v226h-300v-226h-83v524h83v-222h300z" />
    <glyph glyph-name="i.sc" horiz-adv-x="265" 
d="M91 0v524h83v-524h-83z" />
    <glyph glyph-name="j.sc" horiz-adv-x="473" 
d="M386 193q0 -96 -54.5 -148t-142.5 -52q-57 0 -100 18.5t-70 46.5l47 62q46 -48 119 -48q55 0 86.5 32.5t31.5 95.5v324h83v-331v0v0z" />
    <glyph glyph-name="k.sc" horiz-adv-x="575" 
d="M242 301l204 223h104l-244 -257l260 -267h-106l-219 226h-67v-226h-83v524h83v-223h68z" />
    <glyph glyph-name="l.sc" horiz-adv-x="499" 
d="M91 0v524h83v-447h307v-77h-390z" />
    <glyph glyph-name="m.sc" horiz-adv-x="770" 
d="M597 0v421l-170 -364h-84l-170 362v-419h-82v524h118l176 -375l175 375h119v-524h-82z" />
    <glyph glyph-name="n.sc" horiz-adv-x="658" 
d="M489 0l-315 387v-387h-83v524h78l315 -387v387h83v-524h-78z" />
    <glyph glyph-name="o.sc" horiz-adv-x="654" 
d="M328 531q78 0 140 -34.5t97.5 -96t35.5 -138.5t-35.5 -139t-97.5 -96.5t-140 -34.5t-140.5 34.5t-98 96.5t-35.5 139t35.5 138.5t98 96t140.5 34.5v0v0zM328 452q-53 0 -95.5 -24t-67 -67t-24.5 -99t24.5 -99t67 -67t95.5 -24t95.5 24t67 67.5t24.5 98.5t-24.5 98.5
t-67 67.5t-95.5 24v0v0z" />
    <glyph glyph-name="p.sc" horiz-adv-x="557" 
d="M91 0v524h219q95 0 148 -44t53 -121q0 -76 -52.5 -120t-147.5 -44h-137v-195h-83v0v0zM308 270q57 0 88 22.5t31 66.5q0 43 -31 66t-88 23h-134v-178h134v0v0z" />
    <glyph glyph-name="q.sc" horiz-adv-x="656" 
d="M328 -8q-78 0 -140.5 34.5t-98 96.5t-35.5 139t35.5 138.5t98 96t140.5 34.5t140 -34.5t97.5 -96t35.5 -138.5q0 -91 -53 -160l79 -102h-98l-37 47q-71 -55 -164 -55v0v0zM328 72q68 0 115 38l-115 146h93l70 -89q24 43 24 95q0 55 -24.5 98.5t-67 67.5t-95.5 24
t-95.5 -24t-67 -67t-24.5 -99t24.5 -99t67 -67t95.5 -24v0v0z" />
    <glyph glyph-name="r.sc" horiz-adv-x="563" 
d="M312 524q94 0 146.5 -41t52.5 -115q0 -66 -47 -106t-129 -45h-8l188 -217h-102l-180 215h-59v-215h-83v524h221v0v0zM311 285q55 0 85 21t30 62q0 40 -30 60t-85 20h-137v-163h137v0v0z" />
    <glyph glyph-name="s.sc" horiz-adv-x="559" 
d="M454 407q-35 22 -78 35.5t-90 13.5q-57 0 -92 -21t-35 -58q0 -31 31 -48.5t95 -25.5l47 -6q81 -11 126.5 -45.5t45.5 -95.5q0 -80 -64 -121.5t-160 -41.5q-62 0 -123.5 18t-101.5 48l41 65q35 -24 84 -40.5t101 -16.5q60 0 97.5 20.5t37.5 60.5q0 32 -31 49t-96 25l-48 5
q-81 11 -125 46.5t-44 96.5q0 74 59.5 117.5t152.5 43.5q114 0 208 -57l-38 -67v0v0z" />
    <glyph glyph-name="t.sc" horiz-adv-x="489" 
d="M286 447v-447h-83v447h-185v77h453v-77h-185z" />
    <glyph glyph-name="u.sc" horiz-adv-x="619" 
d="M537 209q0 -103 -62 -159.5t-165 -56.5t-165.5 56.5t-62.5 159.5v315h83v-311q0 -69 39.5 -105t105.5 -36t105.5 36t39.5 105v311h82v-315v0v0z" />
    <glyph glyph-name="v.sc" horiz-adv-x="566" 
d="M233 0l-219 524h88l182 -443l181 443h86l-218 -524h-100z" />
    <glyph glyph-name="w.sc" horiz-adv-x="869" 
d="M575 0l-141 411l-140 -411h-98l-173 524h85l138 -432l145 432h89l144 -432l138 432h84l-172 -524h-99z" />
    <glyph glyph-name="x.sc" horiz-adv-x="547" 
d="M525 0h-96l-156 208l-155 -208h-96l200 267l-192 257h96l148 -199l149 199h95l-193 -257z" />
    <glyph glyph-name="y.sc" horiz-adv-x="524" 
d="M305 0h-83v211l-218 313h97l162 -235l162 235h95l-215 -313v-211z" />
    <glyph glyph-name="z.sc" horiz-adv-x="545" 
d="M165 75h325v-75h-435v64l324 385h-321v75h431v-65z" />
    <glyph glyph-name="braceleft.sc" horiz-adv-x="356" 
d="M292 505q-36 0 -55.5 -20t-17.5 -59l2 -45q6 -93 -79 -119q85 -25 79 -119l-2 -44q-2 -40 17.5 -60t55.5 -20h28v-69h-36q-72 0 -109.5 40t-33.5 112l2 46q3 40 -20 60.5t-66 20.5v67q43 0 66 20.5t20 60.5l-2 45q-4 72 33.5 111.5t109.5 39.5h36v-68h-28v0v0z" />
    <glyph glyph-name="braceright.sc" horiz-adv-x="356" 
d="M72 573q72 0 110 -39.5t34 -111.5l-2 -45q-3 -40 20 -60.5t65 -20.5v-67q-42 0 -65 -20.5t-20 -60.5l2 -46q4 -71 -34 -111.5t-110 -40.5h-35v69h28q36 0 55.5 20t17.5 60l-3 44q-5 95 79 119q-84 26 -79 119l3 45q2 39 -17.5 59t-55.5 20h-28v68h35v0v0z" />
    <glyph glyph-name="exclamdown.sc" horiz-adv-x="266" 
d="M133 418q-23 0 -40 17t-17 40t17 40.5t40 17.5t40.5 -17.5t17.5 -40.5t-17.5 -40t-40.5 -17v0v0zM169 341l10 -341h-92l10 341h72z" />
    <glyph glyph-name="sterling.sc" 
d="M98 75h66v155h-66v64h66v43q0 93 54 143.5t137 50.5q45 0 82.5 -15.5t63.5 -45.5l-56 -55q-32 39 -90 39q-49 0 -80 -30t-31 -89v-41h196v-64h-196v-155h255v-75h-401v75v0v0z" />
    <glyph glyph-name="currency.sc" 
d="M200 402q43 31 100 31q56 0 101 -31l57 58l44 -44l-57 -57q31 -42 31 -97t-31 -98l57 -56l-43 -44l-58 57q-45 -31 -101 -31t-101 31l-57 -57l-44 44l58 56q-31 43 -31 98q0 54 31 97l-58 57l44 44l58 -58v0v0zM300 151q48 0 81.5 32.5t33.5 78.5t-33.5 78t-81.5 32
q-47 0 -80.5 -32t-33.5 -78t33.5 -78.5t80.5 -32.5v0v0z" />
    <glyph glyph-name="yen.sc" 
d="M342 113v-113h-80v113h-148v53h148v63h-148v53h122l-174 242h94l146 -206l146 206h90l-171 -242h123v-53h-148v-63h148v-53h-148z" />
    <glyph glyph-name="section.sc" horiz-adv-x="519" 
d="M256 -116q-57 0 -110.5 15.5t-90.5 40.5l37 62q31 -21 73.5 -35t90.5 -14q54 0 87.5 16.5t33.5 49.5q0 27 -29 40t-86 21l-43 5q-72 9 -112.5 39t-40.5 83q0 29 15.5 53t42.5 41q-51 32 -51 91q0 63 54.5 100.5t138.5 37.5q102 0 183 -49l-33 -62q-70 43 -148 43
q-50 0 -82.5 -17t-32.5 -47q0 -27 30 -42t86 -21l41 -4q70 -9 112.5 -38.5t42.5 -78.5q0 -62 -59 -99q51 -33 51 -86q0 -72 -57.5 -108.5t-143.5 -36.5v0v0zM337 142q48 18 48 60q0 28 -29.5 41.5t-86.5 20.5q-53 5 -74 10q-49 -17 -49 -59q0 -28 29.5 -41.5t86.5 -20.5
q51 -5 75 -11v0v0z" />
    <glyph glyph-name="copyright.sc" horiz-adv-x="737" 
d="M369 563q82 0 151.5 -40.5t110.5 -109t41 -149.5t-41 -149.5t-110.5 -108.5t-151.5 -40q-83 0 -152.5 40t-110.5 108.5t-41 149.5t41 150t110.5 109t152.5 40v0v0zM369 499q-65 0 -119.5 -31.5t-86.5 -85.5t-32 -118q0 -63 32 -117t87 -86t119 -32t118 32t86 86t32 117
q0 64 -32 118t-86 85.5t-118 31.5v0v0zM453 318q-12 21 -32.5 32.5t-45.5 11.5q-40 0 -67 -27t-27 -71q1 -45 28 -70.5t66 -25.5q53 0 80 44l50 -35q-21 -31 -54.5 -49t-75.5 -18q-68 0 -112 43t-44 111q0 69 44 112t112 43q42 0 77.5 -19t54.5 -53l-54 -29v0v0z" />
    <glyph glyph-name="degree.sc" horiz-adv-x="325" 
d="M163 261q-38 0 -71 18.5t-52 49.5t-19 68t19 68.5t52 50t71 18.5t70 -18.5t51 -50t19 -68.5t-19 -68t-51 -49.5t-70 -18.5v0v0zM163 321q32 0 54.5 22.5t22.5 53.5t-22.5 53.5t-54.5 22.5t-55 -22.5t-23 -53.5t23 -53.5t55 -22.5v0v0z" />
    <glyph glyph-name="questiondown.sc" horiz-adv-x="383" 
d="M241 418q-23 0 -40.5 17t-17.5 40t17.5 40.5t40.5 17.5t40 -17.5t17 -40.5t-17 -40t-40 -17v0v0zM249 223q-62 0 -95.5 -20.5t-33.5 -57.5q0 -35 34 -55.5t93 -20.5q8 0 53 3l5 -76q-32 -5 -68 -5q-92 0 -147 40.5t-55 106.5q0 63 44 101.5t123 48.5l3 57h72v-122h-28v0
v0z" />
    <glyph glyph-name="germandbls.sc" horiz-adv-x="1114" 
d="M454 407q-35 22 -78 35.5t-90 13.5q-57 0 -92 -21t-35 -58q0 -31 31 -48.5t95 -25.5l47 -6q81 -11 126.5 -45.5t45.5 -95.5q0 -80 -64 -121.5t-160 -41.5q-62 0 -123.5 18t-101.5 48l41 65q35 -24 84 -40.5t101 -16.5q60 0 97.5 20.5t37.5 60.5q0 32 -31 49t-96 25l-48 5
q-81 11 -125 46.5t-44 96.5q0 74 59.5 117.5t152.5 43.5q114 0 208 -57l-38 -67v0v0zM1009 407q-80 49 -168 49q-57 0 -92 -21t-35 -58q0 -31 31 -48.5t95 -25.5l47 -6q81 -11 126.5 -45.5t45.5 -95.5q0 -80 -64 -121.5t-160 -41.5q-62 0 -123.5 18t-101.5 48l41 65
q35 -24 84 -40.5t101 -16.5q60 0 97.5 20.5t37.5 60.5q0 32 -31.5 49t-96.5 25l-47 5q-82 11 -126 46.5t-44 96.5q0 74 60 117.5t153 43.5q114 0 208 -57l-38 -67v0v0z" />
    <glyph glyph-name="agrave.sc" horiz-adv-x="577" 
d="M247 747l107 -153h-82l-128 153h103zM474 0l-56 132h-262l-55 -132h-87l225 524h99l224 -524h-88zM388 206l-100 238l-102 -238h202z" />
    <glyph glyph-name="aacute.sc" horiz-adv-x="577" 
d="M326 747h103l-128 -153h-82zM474 0l-56 132h-262l-55 -132h-87l225 524h99l224 -524h-88zM388 206l-100 238l-102 -238h202z" />
    <glyph glyph-name="acircumflex.sc" horiz-adv-x="577" 
d="M289 687l-86 -93h-86l119 147h105l119 -147h-85zM474 0l-56 132h-262l-55 -132h-87l225 524h99l224 -524h-88zM388 206l-100 238l-102 -238h202z" />
    <glyph glyph-name="atilde.sc" horiz-adv-x="577" 
d="M112 667q24 30 51 44.5t62 14.5q26 0 44 -6t40 -18q15 -9 26 -13t23 -4q18 0 34.5 9.5t34.5 29.5l44 -51q-24 -30 -50.5 -44.5t-62.5 -14.5q-25 0 -42 6t-40 18q-17 9 -27.5 13t-23.5 4q-18 0 -34 -9.5t-35 -29.5l-44 51v0v0zM474 0l-56 132h-262l-55 -132h-87l225 524
h99l224 -524h-88zM388 206l-100 238l-102 -238h202z" />
    <glyph glyph-name="adieresis.sc" horiz-adv-x="577" 
d="M183 725q24 0 40.5 -16.5t16.5 -40.5t-16.5 -40.5t-40.5 -16.5q-23 0 -39.5 16.5t-16.5 40.5t16.5 40.5t39.5 16.5v0v0zM393 725q23 0 40 -16.5t17 -40.5t-17 -40.5t-40 -16.5q-24 0 -40.5 16.5t-16.5 40.5t16.5 40.5t40.5 16.5v0v0zM474 0l-56 132h-262l-55 -132h-87
l225 524h99l224 -524h-88zM388 206l-100 238l-102 -238h202z" />
    <glyph glyph-name="aring.sc" horiz-adv-x="577" 
d="M289 583q-48 0 -82.5 33.5t-34.5 81.5q0 47 34.5 80.5t82.5 33.5t82 -33.5t34 -80.5q0 -48 -34 -81.5t-82 -33.5v0v0zM289 633q26 0 44.5 19t18.5 46q0 26 -18.5 44.5t-44.5 18.5t-44.5 -18.5t-18.5 -44.5q0 -28 18.5 -46.5t44.5 -18.5v0v0zM474 0l-56 132h-262l-55 -132
h-87l225 524h99l224 -524h-88zM388 206l-100 238l-102 -238h202z" />
    <glyph glyph-name="ae.sc" horiz-adv-x="905" 
d="M434 0v125h-231l-93 -125h-98l392 524h426v-74h-313v-149h300v-74h-300v-153h315v-74h-398zM434 436l-177 -237h177v237z" />
    <glyph glyph-name="ccedilla.sc" horiz-adv-x="597" 
d="M327 531q72 0 131.5 -31t92.5 -87l-71 -41q-24 38 -64 59t-90 21q-52 0 -94.5 -24t-66.5 -67.5t-24 -98.5q0 -57 24.5 -100t67 -66.5t93.5 -23.5q49 0 89.5 21t65.5 59l67 -48q-32 -48 -82 -76.5t-112 -33.5l-49 -156h-84l53 159q-65 11 -114.5 47.5t-77.5 93t-28 124.5
q0 78 35.5 139t97.5 95.5t140 34.5v0v0z" />
    <glyph glyph-name="egrave.sc" horiz-adv-x="562" 
d="M247 746l107 -153h-83l-127 153h103zM91 0v524h396v-74h-313v-149h301v-74h-301v-153h315v-74h-398z" />
    <glyph glyph-name="eacute.sc" horiz-adv-x="562" 
d="M326 746h103l-128 -153h-82zM91 0v524h396v-74h-313v-149h301v-74h-301v-153h315v-74h-398z" />
    <glyph glyph-name="ecircumflex.sc" horiz-adv-x="562" 
d="M289 687l-86 -94h-86l118 148h106l119 -148h-86zM91 0v524h396v-74h-313v-149h301v-74h-301v-153h315v-74h-398z" />
    <glyph glyph-name="edieresis.sc" horiz-adv-x="562" 
d="M183 725q24 0 40.5 -16.5t16.5 -40.5t-16.5 -40.5t-40.5 -16.5q-23 0 -39.5 16.5t-16.5 40.5t16.5 40.5t39.5 16.5v0v0zM392 725q24 0 40.5 -16.5t16.5 -40.5t-16.5 -40.5t-40.5 -16.5t-40 16.5t-16 40.5t16 40.5t40 16.5v0v0zM91 0v524h396v-74h-313v-149h301v-74h-301
v-153h315v-74h-398z" />
    <glyph glyph-name="igrave.sc" horiz-adv-x="265" 
d="M91 747l106 -153h-81l-128 153h103zM91 0v524h83v-524h-83z" />
    <glyph glyph-name="iacute.sc" horiz-adv-x="265" 
d="M170 747h103l-128 -153h-82zM91 0v524h83v-524h-83z" />
    <glyph glyph-name="icircumflex.sc" horiz-adv-x="265" 
d="M133 687l-86 -93h-86l119 147h105l119 -147h-86zM91 0v524h83v-524h-83z" />
    <glyph glyph-name="idieresis.sc" horiz-adv-x="265" 
d="M27 725q24 0 40.5 -16.5t16.5 -40.5t-16.5 -40.5t-40.5 -16.5t-40 16.5t-16 40.5t16 40.5t40 16.5v0v0zM236 725q24 0 40.5 -16.5t16.5 -40.5t-16.5 -40.5t-40.5 -16.5q-23 0 -39.5 16.5t-16.5 40.5t16.5 40.5t39.5 16.5v0v0zM91 0v524h83v-524h-83z" />
    <glyph glyph-name="eth.sc" horiz-adv-x="701" 
d="M372 524q82 0 144 -32.5t96.5 -92t34.5 -137.5q0 -79 -34.5 -138t-96.5 -91.5t-144 -32.5h-213v229h-104v73h104v222h213v0v0zM242 77h129q89 0 139.5 51t50.5 134q0 84 -50.5 134.5t-139.5 50.5h-129v-145h149v-73h-149v-152v0v0z" />
    <glyph glyph-name="ntilde.sc" horiz-adv-x="658" 
d="M150 667q24 30 51 44.5t62 14.5q26 0 44 -6t40 -18q15 -9 26 -13t23 -4q19 0 34.5 9.5t34.5 29.5l44 -51q-24 -30 -50.5 -44.5t-62.5 -14.5q-25 0 -42 6t-40 18q-17 9 -27.5 13t-23.5 4q-18 0 -34 -9.5t-35 -29.5l-44 51v0v0zM489 0l-315 387v-387h-83v524h78l315 -387
v387h83v-524h-78z" />
    <glyph glyph-name="ograve.sc" horiz-adv-x="654" 
d="M328 531q78 0 140 -34.5t97.5 -96t35.5 -138.5t-35.5 -139t-97.5 -96.5t-140 -34.5t-140.5 34.5t-98 96.5t-35.5 139t35.5 138.5t98 96t140.5 34.5v0v0zM328 452q-53 0 -95.5 -24t-67 -67t-24.5 -99t24.5 -99t67 -67t95.5 -24t95.5 24t67 67.5t24.5 98.5t-24.5 98.5
t-67 67.5t-95.5 24v0v0zM286 747l107 -153h-83l-127 153h103z" />
    <glyph glyph-name="oacute.sc" horiz-adv-x="654" 
d="M328 531q78 0 140 -34.5t97.5 -96t35.5 -138.5t-35.5 -139t-97.5 -96.5t-140 -34.5t-140.5 34.5t-98 96.5t-35.5 139t35.5 138.5t98 96t140.5 34.5v0v0zM328 452q-53 0 -95.5 -24t-67 -67t-24.5 -99t24.5 -99t67 -67t95.5 -24t95.5 24t67 67.5t24.5 98.5t-24.5 98.5
t-67 67.5t-95.5 24v0v0zM365 747h103l-128 -153h-82z" />
    <glyph glyph-name="ocircumflex.sc" horiz-adv-x="654" 
d="M328 531q78 0 140 -34.5t97.5 -96t35.5 -138.5t-35.5 -139t-97.5 -96.5t-140 -34.5t-140.5 34.5t-98 96.5t-35.5 139t35.5 138.5t98 96t140.5 34.5v0v0zM328 452q-53 0 -95.5 -24t-67 -67t-24.5 -99t24.5 -99t67 -67t95.5 -24t95.5 24t67 67.5t24.5 98.5t-24.5 98.5
t-67 67.5t-95.5 24v0v0zM328 687l-86 -93h-86l119 147h105l119 -147h-86z" />
    <glyph glyph-name="otilde.sc" horiz-adv-x="654" 
d="M151 667q24 30 51 44.5t62 14.5q26 0 44 -6t40 -18q15 -9 26 -13t23 -4q18 0 34 9.5t35 29.5l44 -51q-24 -30 -50.5 -44.5t-62.5 -14.5q-25 0 -42 6t-40 18q-17 9 -27.5 13t-23.5 4q-18 0 -34 -9.5t-35 -29.5l-44 51v0v0zM328 531q78 0 140 -34.5t97.5 -96t35.5 -138.5
t-35.5 -139t-97.5 -96.5t-140 -34.5t-140.5 34.5t-98 96.5t-35.5 139t35.5 138.5t98 96t140.5 34.5v0v0zM328 452q-53 0 -95.5 -24t-67 -67t-24.5 -99t24.5 -99t67 -67t95.5 -24t95.5 24t67 67.5t24.5 98.5t-24.5 98.5t-67 67.5t-95.5 24v0v0z" />
    <glyph glyph-name="odieresis.sc" horiz-adv-x="654" 
d="M223 725q23 0 39.5 -16.5t16.5 -40.5t-16.5 -40.5t-39.5 -16.5q-24 0 -40 16.5t-16 40.5t16 40.5t40 16.5v0v0zM431 725q24 0 40.5 -16.5t16.5 -40.5t-16.5 -40.5t-40.5 -16.5t-40 16.5t-16 40.5t16 40.5t40 16.5v0v0zM328 531q78 0 140 -34.5t97.5 -96t35.5 -138.5
t-35.5 -139t-97.5 -96.5t-140 -34.5t-140.5 34.5t-98 96.5t-35.5 139t35.5 138.5t98 96t140.5 34.5v0v0zM328 452q-53 0 -95.5 -24t-67 -67t-24.5 -99t24.5 -99t67 -67t95.5 -24t95.5 24t67 67.5t24.5 98.5t-24.5 98.5t-67 67.5t-95.5 24v0v0z" />
    <glyph glyph-name="oslash.sc" horiz-adv-x="654" 
d="M328 531q48 0 90.5 -13.5t75.5 -39.5l57 57l49 -50l-55 -55q56 -72 56 -168q0 -77 -35.5 -139t-97.5 -96.5t-140 -34.5q-96 0 -168 53l-55 -56l-50 50l55 54q-56 72 -56 169q0 77 35.5 138.5t98 96t140.5 34.5v0v0zM328 452q-53 0 -95.5 -24t-67 -67t-24.5 -99
q0 -61 30 -107l265 264q-47 33 -108 33v0v0zM515 262q0 60 -31 107l-265 -264q47 -33 109 -33q53 0 95.5 24t67 67.5t24.5 98.5v0v0z" />
    <glyph glyph-name="ugrave.sc" horiz-adv-x="619" 
d="M537 209q0 -103 -62 -159.5t-165 -56.5t-165.5 56.5t-62.5 159.5v315h83v-311q0 -69 39.5 -105t105.5 -36t105.5 36t39.5 105v311h82v-315v0v0zM268 747l107 -153h-82l-128 153h103z" />
    <glyph glyph-name="uacute.sc" horiz-adv-x="619" 
d="M537 209q0 -103 -62 -159.5t-165 -56.5t-165.5 56.5t-62.5 159.5v315h83v-311q0 -69 39.5 -105t105.5 -36t105.5 36t39.5 105v311h82v-315v0v0zM347 747h103l-128 -153h-82z" />
    <glyph glyph-name="ucircumflex.sc" horiz-adv-x="619" 
d="M537 209q0 -103 -62 -159.5t-165 -56.5t-165.5 56.5t-62.5 159.5v315h83v-311q0 -69 39.5 -105t105.5 -36t105.5 36t39.5 105v311h82v-315v0v0zM310 687l-86 -93h-85l118 147h106l118 -147h-86z" />
    <glyph glyph-name="udieresis.sc" horiz-adv-x="619" 
d="M205 725q24 0 40.5 -16.5t16.5 -40.5t-16.5 -40.5t-40.5 -16.5t-40.5 16.5t-16.5 40.5t16.5 40.5t40.5 16.5v0v0zM413 725q24 0 41 -16.5t17 -40.5t-17 -40.5t-41 -16.5t-40 16.5t-16 40.5t16 40.5t40 16.5v0v0zM537 209q0 -103 -62 -159.5t-165 -56.5t-165.5 56.5
t-62.5 159.5v315h83v-311q0 -69 39.5 -105t105.5 -36t105.5 36t39.5 105v311h82v-315v0v0z" />
    <glyph glyph-name="yacute.sc" horiz-adv-x="524" 
d="M301 747h103l-128 -153h-82zM305 0h-83v211l-218 313h97l162 -235l162 235h95l-215 -313v-211z" />
    <glyph glyph-name="thorn.sc" horiz-adv-x="555" 
d="M307 432q96 0 149 -44t53 -121q0 -76 -53 -120t-148 -44h-133v-103h-84v524h84v-92h132v0v0zM306 179q56 0 86.5 22.5t30.5 65.5t-31 66t-86 23h-131v-177h131v0v0z" />
    <glyph glyph-name="ydieresis.sc" horiz-adv-x="524" 
d="M159 725q24 0 40.5 -16.5t16.5 -40.5t-16.5 -40.5t-40.5 -16.5t-40.5 16.5t-16.5 40.5t16.5 40.5t40.5 16.5v0v0zM367 725q24 0 41 -16.5t17 -40.5t-17 -40.5t-41 -16.5t-40 16.5t-16 40.5t16 40.5t40 16.5v0v0zM305 0h-83v211l-218 313h97l162 -235l162 235h95
l-215 -313v-211z" />
    <glyph glyph-name="amacron.sc" horiz-adv-x="577" 
d="M442 701v-69h-306v69h306zM474 0l-56 132h-262l-55 -132h-87l225 524h99l224 -524h-88zM388 206l-100 238l-102 -238h202z" />
    <glyph glyph-name="abreve.sc" horiz-adv-x="577" 
d="M181 753q13 -46 41 -69.5t67 -23.5q80 0 107 93l66 -19q-19 -70 -63.5 -107t-109.5 -37t-110 37.5t-64 106.5l66 19v0v0zM474 0l-56 132h-262l-55 -132h-87l225 524h99l224 -524h-88zM388 206l-100 238l-102 -238h202z" />
    <glyph glyph-name="aogonek.sc" horiz-adv-x="577" 
d="M569 -165q-40 -42 -103 -42q-48 0 -78.5 24t-30.5 65q0 38 28.5 67.5t85.5 58.5l-53 124h-262l-55 -132h-87l225 525h99l224 -525h-23q-55 -25 -80.5 -49.5t-25.5 -50.5q0 -18 11.5 -28t31.5 -10q29 0 50 24l43 -51v0v0zM388 206l-100 239l-102 -239h202z" />
    <glyph glyph-name="cacute.sc" horiz-adv-x="597" 
d="M327 531q72 0 131.5 -31t92.5 -87l-71 -41q-24 38 -64 59t-90 21q-52 0 -94.5 -24t-66.5 -67.5t-24 -98.5q0 -57 24.5 -100t67 -66.5t93.5 -23.5q49 0 89.5 21t65.5 59l67 -48q-35 -53 -92.5 -82.5t-128.5 -29.5q-78 0 -140 34.5t-97.5 96t-35.5 139.5t35.5 139
t97.5 95.5t140 34.5v0v0zM361 747h103l-128 -153h-82z" />
    <glyph glyph-name="ccircumflex.sc" horiz-adv-x="597" 
d="M327 531q72 0 131.5 -31t92.5 -87l-71 -41q-24 38 -64 59t-90 21q-52 0 -94.5 -24t-66.5 -67.5t-24 -98.5q0 -57 24.5 -100t67 -66.5t93.5 -23.5q49 0 89.5 21t65.5 59l67 -48q-35 -53 -92.5 -82.5t-128.5 -29.5q-78 0 -140 34.5t-97.5 96t-35.5 139.5t35.5 139
t97.5 95.5t140 34.5v0v0zM324 687l-86 -93h-86l119 147h105l119 -147h-86z" />
    <glyph glyph-name="cdotaccent.sc" horiz-adv-x="597" 
d="M323 724q24 0 40.5 -16.5t16.5 -40.5t-16.5 -40t-40.5 -16t-40 16t-16 40t16 40.5t40 16.5v0v0zM327 531q72 0 131.5 -31t92.5 -87l-71 -41q-24 38 -64 59t-90 21q-52 0 -94.5 -24t-66.5 -67.5t-24 -98.5q0 -57 24.5 -100t67 -66.5t93.5 -23.5q49 0 89.5 21t65.5 59
l67 -48q-35 -53 -92.5 -82.5t-128.5 -29.5q-78 0 -140 34.5t-97.5 96t-35.5 139.5t35.5 139t97.5 95.5t140 34.5v0v0z" />
    <glyph glyph-name="ccaron.sc" horiz-adv-x="597" 
d="M327 531q72 0 131.5 -31t92.5 -87l-71 -41q-24 38 -64 59t-90 21q-52 0 -94.5 -24t-66.5 -67.5t-24 -98.5q0 -57 24.5 -100t67 -66.5t93.5 -23.5q49 0 89.5 21t65.5 59l67 -48q-35 -53 -92.5 -82.5t-128.5 -29.5q-78 0 -140 34.5t-97.5 96t-35.5 139.5t35.5 139
t97.5 95.5t140 34.5v0v0zM324 648l85 92h86l-119 -147h-105l-119 147h86z" />
    <glyph glyph-name="dcaron.sc" horiz-adv-x="633" 
d="M304 524q81 0 143.5 -32.5t96.5 -92t34 -137.5q0 -79 -34 -138t-96.5 -91.5t-143.5 -32.5h-213v524h213v0v0zM303 77q89 0 139.5 51t50.5 134q0 84 -50.5 134.5t-139.5 50.5h-129v-370h129v0v0zM305 648l86 92h86l-119 -147h-105l-119 147h86z" />
    <glyph glyph-name="dcroat.sc" horiz-adv-x="701" 
d="M372 524q82 0 144 -32.5t96.5 -92t34.5 -137.5q0 -79 -34.5 -138t-96.5 -91.5t-144 -32.5h-213v229h-104v73h104v222h213v0v0zM242 77h129q89 0 139.5 51t50.5 134q0 84 -50.5 134.5t-139.5 50.5h-129v-145h149v-73h-149v-152v0v0z" />
    <glyph glyph-name="emacron.sc" horiz-adv-x="562" 
d="M442 701v-69h-307v69h307zM91 0v524h396v-74h-313v-149h301v-74h-301v-153h315v-74h-398z" />
    <glyph glyph-name="ebreve.sc" horiz-adv-x="562" 
d="M181 753q27 -93 108 -93q80 0 107 93l66 -19q-19 -70 -64 -107t-109 -37q-65 0 -110 37t-64 107l66 19v0v0zM91 0v524h396v-74h-313v-149h301v-74h-301v-153h315v-74h-398z" />
    <glyph glyph-name="edotaccent.sc" horiz-adv-x="562" 
d="M288 724q24 0 40.5 -16.5t16.5 -40.5t-16.5 -40t-40.5 -16t-40 16t-16 40t16 40.5t40 16.5v0v0zM91 0v524h396v-74h-313v-149h301v-74h-301v-153h315v-74h-398z" />
    <glyph glyph-name="eogonek.sc" horiz-adv-x="562" 
d="M400 0q-38 -21 -55.5 -42.5t-17.5 -45.5q0 -23 16.5 -36.5t43.5 -13.5q38 0 69 28l44 -51q-49 -46 -121 -46q-58 0 -94.5 28.5t-36.5 73.5q0 34 17.5 59t53.5 46h-228v524h396v-74h-313v-149h301v-74h-301v-153h315v-74h-89v0v0z" />
    <glyph glyph-name="ecaron.sc" horiz-adv-x="562" 
d="M289 647l85 93h86l-119 -147h-106l-118 147h86zM91 0v524h396v-74h-313v-149h301v-74h-301v-153h315v-74h-398z" />
    <glyph glyph-name="gcircumflex.sc" horiz-adv-x="635" 
d="M328 531q62 0 113.5 -21.5t87.5 -61.5l-60 -58q-26 30 -63 46.5t-80 16.5q-53 0 -95.5 -24.5t-67 -68t-24.5 -98.5q0 -57 25 -101t67.5 -68t93.5 -24q73 0 118 39t53 109h-156v67h240q1 -9 1 -26q0 -78 -33.5 -138.5t-91.5 -93.5t-129 -33q-74 0 -136.5 33.5t-99.5 94.5
t-37 141q0 78 35.5 139t98 95.5t140.5 34.5v0v0zM322 687l-85 -93h-86l118 147h106l118 -147h-85z" />
    <glyph glyph-name="gbreve.sc" horiz-adv-x="635" 
d="M215 753q27 -93 107 -93t107 93l67 -19q-19 -69 -64 -106.5t-110 -37.5t-110 37t-64 107l67 19v0v0zM328 531q62 0 113.5 -21.5t87.5 -61.5l-60 -58q-26 30 -63 46.5t-80 16.5q-53 0 -95.5 -24.5t-67 -68t-24.5 -98.5q0 -57 25 -101t67.5 -68t93.5 -24q73 0 118 39
t53 109h-156v67h240q1 -9 1 -26q0 -78 -33.5 -138.5t-91.5 -93.5t-129 -33q-74 0 -136.5 33.5t-99.5 94.5t-37 141q0 78 35.5 139t98 95.5t140.5 34.5v0v0z" />
    <glyph glyph-name="gdotaccent.sc" horiz-adv-x="635" 
d="M322 724q24 0 40.5 -16.5t16.5 -40.5t-16.5 -40t-40.5 -16t-40.5 16t-16.5 40t16.5 40.5t40.5 16.5v0v0zM328 531q62 0 113.5 -21.5t87.5 -61.5l-60 -58q-26 30 -63 46.5t-80 16.5q-53 0 -95.5 -24.5t-67 -68t-24.5 -98.5q0 -57 25 -101t67.5 -68t93.5 -24q73 0 118 39
t53 109h-156v67h240q1 -9 1 -26q0 -78 -33.5 -138.5t-91.5 -93.5t-129 -33q-74 0 -136.5 33.5t-99.5 94.5t-37 141q0 78 35.5 139t98 95.5t140.5 34.5v0v0z" />
    <glyph glyph-name="hcircumflex.sc" horiz-adv-x="648" 
d="M324 687l-85 -93h-86l118 147h106l118 -147h-85zM474 302v222h83v-524h-83v226h-300v-226h-83v524h83v-222h300z" />
    <glyph glyph-name="hbar.sc" horiz-adv-x="654" 
d="M560 380v-380h-83v226h-300v-226h-83v380h-63v63h63v81h83v-81h300v81h83v-81h63v-63h-63zM477 380h-300v-78h300v78z" />
    <glyph glyph-name="itilde.sc" horiz-adv-x="265" 
d="M-44 667q23 30 50.5 44.5t62.5 14.5q26 0 44 -6t40 -18q15 -9 26 -13t23 -4q18 0 34.5 9.5t34.5 29.5l44 -51q-24 -30 -50.5 -44.5t-62.5 -14.5q-25 0 -42 6t-40 18q-17 9 -27.5 13t-23.5 4q-18 0 -34 -9.5t-35 -29.5l-44 51v0v0zM91 0v524h83v-524h-83z" />
    <glyph glyph-name="imacron.sc" horiz-adv-x="265" 
d="M286 701v-69h-307v69h307zM91 0v524h83v-524h-83z" />
    <glyph glyph-name="ibreve.sc" horiz-adv-x="265" 
d="M25 753q27 -93 108 -93q80 0 107 93l66 -19q-19 -70 -63.5 -107t-109.5 -37t-110 37.5t-64 106.5l66 19v0v0zM91 0v524h83v-524h-83z" />
    <glyph glyph-name="iogonek.sc" horiz-adv-x="265" 
d="M236 -165q-40 -42 -102 -42q-48 0 -78.5 24t-30.5 64q0 34 19.5 62.5t57.5 56.5h-11v524h83v-524q-37 -27 -55 -51t-18 -49q0 -18 11.5 -28t31.5 -10q28 0 50 24l42 -51v0v0z" />
    <glyph glyph-name="Idotaccent.sc" horiz-adv-x="265" 
d="M133 724q24 0 40 -16.5t16 -40.5t-16 -40t-40 -16t-40.5 16t-16.5 40t16.5 40.5t40.5 16.5v0v0zM91 0v524h83v-524h-83z" />
    <glyph glyph-name="ij.sc" horiz-adv-x="737" 
d="M651 193q0 -96 -54.5 -148t-142.5 -52q-58 0 -100.5 18.5t-69.5 46.5l47 62q46 -48 119 -48q55 0 86.5 32.5t31.5 95.5v324h83v-331v0v0zM91 0v524h83v-524h-83z" />
    <glyph glyph-name="jcircumflex.sc" horiz-adv-x="473" 
d="M386 193q0 -96 -54.5 -148t-142.5 -52q-57 0 -100 18.5t-70 46.5l47 62q46 -48 119 -48q55 0 86.5 32.5t31.5 95.5v324h83v-331v0v0zM345 687l-86 -93h-85l118 147h106l118 -147h-86z" />
    <glyph glyph-name="kgreenlandic.sc" horiz-adv-x="575" 
d="M242 301l204 223h104l-244 -257l260 -267h-106l-219 226h-67v-226h-83v524h83v-223h68z" />
    <glyph glyph-name="lacute.sc" horiz-adv-x="499" 
d="M170 747h103l-128 -153h-82zM91 0v524h83v-447h307v-77h-390z" />
    <glyph glyph-name="lcaron.sc" horiz-adv-x="499" 
d="M91 0v524h83v-447h307v-77h-390zM268 524h84l-20 -202h-68z" />
    <glyph glyph-name="ldot.sc" horiz-adv-x="499" 
d="M375 326q24 0 40.5 -16.5t16.5 -40.5t-16.5 -40t-40.5 -16t-40 16t-16 40t16 40.5t40 16.5v0v0zM91 0v524h83v-447h307v-77h-390z" />
    <glyph glyph-name="lslash.sc" horiz-adv-x="544" 
d="M136 0v179l-81 -44v82l81 44v263h83v-218l178 98v-82l-178 -98v-147h307v-77h-390z" />
    <glyph glyph-name="nacute.sc" horiz-adv-x="658" 
d="M364 747h103l-128 -153h-82zM489 0l-315 387v-387h-83v524h78l315 -387v387h83v-524h-78z" />
    <glyph glyph-name="ncaron.sc" horiz-adv-x="658" 
d="M327 648l85 92h86l-119 -147h-105l-119 147h86zM489 0l-315 387v-387h-83v524h78l315 -387v387h83v-524h-78z" />
    <glyph glyph-name="napostrophe.sc" horiz-adv-x="818" 
d="M133 458h-72l32 262h96zM649 0l-315 387v-387h-83v524h78l315 -387v387h83v-524h-78z" />
    <glyph glyph-name="eng.sc" horiz-adv-x="658" 
d="M567 -12q0 -70 -35.5 -109t-101.5 -39q-62 0 -109 28l29 70q32 -21 69 -21q32 0 48.5 20t16.5 57v12l-310 381v-387h-83v525h78l315 -389v388h83v-536v0v0z" />
    <glyph glyph-name="omacron.sc" horiz-adv-x="654" 
d="M328 531q78 0 140 -34.5t97.5 -96t35.5 -138.5t-35.5 -139t-97.5 -96.5t-140 -34.5t-140.5 34.5t-98 96.5t-35.5 139t35.5 138.5t98 96t140.5 34.5v0v0zM328 452q-53 0 -95.5 -24t-67 -67t-24.5 -99t24.5 -99t67 -67t95.5 -24t95.5 24t67 67.5t24.5 98.5t-24.5 98.5
t-67 67.5t-95.5 24v0v0zM481 701v-69h-307v69h307z" />
    <glyph glyph-name="obreve.sc" horiz-adv-x="654" 
d="M220 753q27 -93 108 -93q80 0 107 93l66 -19q-19 -69 -64 -106.5t-109 -37.5q-65 0 -110 37.5t-64 106.5l66 19v0v0zM328 531q78 0 140 -34.5t97.5 -96t35.5 -138.5t-35.5 -139t-97.5 -96.5t-140 -34.5t-140.5 34.5t-98 96.5t-35.5 139t35.5 138.5t98 96t140.5 34.5v0v0z
M328 452q-53 0 -95.5 -24t-67 -67t-24.5 -99t24.5 -99t67 -67t95.5 -24t95.5 24t67 67.5t24.5 98.5t-24.5 98.5t-67 67.5t-95.5 24v0v0z" />
    <glyph glyph-name="ohungarumlaut.sc" horiz-adv-x="654" 
d="M328 531q78 0 140 -34.5t97.5 -96t35.5 -138.5t-35.5 -139t-97.5 -96.5t-140 -34.5t-140.5 34.5t-98 96.5t-35.5 139t35.5 138.5t98 96t140.5 34.5v0v0zM328 452q-53 0 -95.5 -24t-67 -67t-24.5 -99t24.5 -99t67 -67t95.5 -24t95.5 24t67 67.5t24.5 98.5t-24.5 98.5
t-67 67.5t-95.5 24v0v0zM293 747h92l-111 -153h-83zM478 747h95l-121 -153h-84z" />
    <glyph glyph-name="oe.sc" horiz-adv-x="901" 
d="M335 0q-83 0 -147 32.5t-99 91.5t-35 138q0 78 35 137.5t99 92t147 32.5h492v-74h-313v-149h300v-74h-300v-153h315v-74h-494v0v0zM142 262q0 -84 51 -134t144 -50h94v368h-94q-93 0 -144 -50t-51 -134v0v0z" />
    <glyph glyph-name="racute.sc" horiz-adv-x="563" 
d="M312 524q94 0 146.5 -41t52.5 -115q0 -66 -47 -106t-128 -45h-9l188 -217h-102l-180 215h-59v-215h-83v524h221v0v0zM311 285q55 0 85 21t30 62q0 40 -30 60t-85 20h-137v-163h137v0v0zM322 746h103l-127 -153h-82z" />
    <glyph glyph-name="rcaron.sc" horiz-adv-x="563" 
d="M312 524q94 0 146.5 -41t52.5 -115q0 -66 -47 -106t-128 -45h-9l188 -217h-102l-180 215h-59v-215h-83v524h221v0v0zM311 285q55 0 85 21t30 62q0 40 -30 60t-85 20h-137v-163h137v0v0zM114 740h85l86 -93l86 93h86l-119 -147h-105z" />
    <glyph glyph-name="sacute.sc" horiz-adv-x="559" 
d="M454 407q-35 22 -78 35.5t-90 13.5q-57 0 -92 -21t-35 -58q0 -31 31 -48.5t95 -25.5l47 -6q81 -11 126.5 -45.5t45.5 -95.5q0 -80 -64 -121.5t-160 -41.5q-62 0 -123.5 18t-101.5 48l41 65q35 -24 84 -40.5t101 -16.5q60 0 97.5 20.5t37.5 60.5q0 32 -31 49t-96 25l-48 5
q-81 11 -125 46.5t-44 96.5q0 74 59.5 117.5t152.5 43.5q114 0 208 -57l-38 -67v0v0zM323 746h103l-127 -153h-83z" />
    <glyph glyph-name="scircumflex.sc" horiz-adv-x="559" 
d="M454 407q-35 22 -78 35.5t-90 13.5q-57 0 -92 -21t-35 -58q0 -31 31 -48.5t95 -25.5l47 -6q81 -11 126.5 -45.5t45.5 -95.5q0 -80 -64 -121.5t-160 -41.5q-62 0 -123.5 18t-101.5 48l41 65q35 -24 84 -40.5t101 -16.5q60 0 97.5 20.5t37.5 60.5q0 32 -31 49t-96 25l-48 5
q-81 11 -125 46.5t-44 96.5q0 74 59.5 117.5t152.5 43.5q114 0 208 -57l-38 -67v0v0zM286 687l-86 -94h-85l119 148h105l119 -148h-86z" />
    <glyph glyph-name="scedilla.sc" horiz-adv-x="559" 
d="M454 407q-35 22 -78 35.5t-90 13.5q-57 0 -92 -21t-35 -58q0 -31 31 -48.5t95 -25.5l47 -6q81 -11 126.5 -45.5t45.5 -95.5q0 -69 -49 -110t-128 -51l-49 -157h-84l52 156q-54 4 -105 21.5t-86 43.5l41 65q35 -24 84 -40.5t101 -16.5q60 0 97.5 20.5t37.5 60.5
q0 32 -31 49t-96 25l-48 5q-81 11 -125 46.5t-44 96.5q0 74 59.5 117.5t152.5 43.5q114 0 208 -57l-38 -67v0v0z" />
    <glyph glyph-name="scaron.sc" horiz-adv-x="559" 
d="M454 407q-35 22 -78 35.5t-90 13.5q-57 0 -92 -21t-35 -58q0 -31 31 -48.5t95 -25.5l47 -6q81 -11 126.5 -45.5t45.5 -95.5q0 -80 -64 -121.5t-160 -41.5q-62 0 -123.5 18t-101.5 48l41 65q35 -24 84 -40.5t101 -16.5q60 0 97.5 20.5t37.5 60.5q0 32 -31 49t-96 25l-48 5
q-81 11 -125 46.5t-44 96.5q0 74 59.5 117.5t152.5 43.5q114 0 208 -57l-38 -67v0v0zM286 647l86 93h86l-119 -147h-105l-119 147h85z" />
    <glyph glyph-name="tcaron.sc" horiz-adv-x="489" 
d="M244 648l86 92h86l-118 -147h-106l-119 147h86zM286 447v-447h-83v447h-185v77h453v-77h-185z" />
    <glyph glyph-name="tbar.sc" horiz-adv-x="489" 
d="M286 227v-227h-83v227h-126v73h126v147h-185v77h453v-77h-185v-147h127v-73h-127z" />
    <glyph glyph-name="utilde.sc" horiz-adv-x="619" 
d="M133 667q24 30 51 44.5t63 14.5q25 0 43 -6t40 -18q17 -9 27 -13t22 -4q19 0 34.5 9.5t34.5 29.5l45 -51q-23 -30 -50.5 -44.5t-63.5 -14.5q-25 0 -43 6t-40 18q-15 9 -26 13t-23 4q-19 0 -35 -9.5t-35 -29.5l-44 51v0v0zM537 209q0 -103 -62 -159.5t-165 -56.5
t-165.5 56.5t-62.5 159.5v315h83v-311q0 -69 39.5 -105t105.5 -36t105.5 36t39.5 105v311h82v-315v0v0z" />
    <glyph glyph-name="umacron.sc" horiz-adv-x="619" 
d="M537 209q0 -103 -62 -159.5t-165 -56.5t-165.5 56.5t-62.5 159.5v315h83v-311q0 -69 39.5 -105t105.5 -36t105.5 36t39.5 105v311h82v-315v0v0zM463 701v-69h-307v69h307z" />
    <glyph glyph-name="ubreve.sc" horiz-adv-x="619" 
d="M203 753q26 -93 107 -93q80 0 107 93l66 -19q-19 -69 -64 -106.5t-109 -37.5q-65 0 -110 37.5t-63 106.5l66 19v0v0zM537 209q0 -103 -62 -159.5t-165 -56.5t-165.5 56.5t-62.5 159.5v315h83v-311q0 -69 39.5 -105t105.5 -36t105.5 36t39.5 105v311h82v-315v0v0z" />
    <glyph glyph-name="uring.sc" horiz-adv-x="619" 
d="M309 583q-47 0 -81 33.5t-34 81.5q0 47 34 80.5t81 33.5q48 0 82.5 -33.5t34.5 -80.5q0 -48 -34.5 -81.5t-82.5 -33.5v0v0zM309 633q27 0 45.5 19t18.5 46q0 26 -19 44.5t-45 18.5t-44 -18.5t-18 -44.5q0 -28 18 -46.5t44 -18.5v0v0zM537 209q0 -103 -62 -159.5
t-165 -56.5t-165.5 56.5t-62.5 159.5v315h83v-311q0 -69 39.5 -105t105.5 -36t105.5 36t39.5 105v311h82v-315v0v0z" />
    <glyph glyph-name="uhungarumlaut.sc" horiz-adv-x="619" 
d="M537 209q0 -103 -62 -159.5t-165 -56.5t-165.5 56.5t-62.5 159.5v315h83v-311q0 -69 39.5 -105t105.5 -36t105.5 36t39.5 105v311h82v-315v0v0zM276 747h92l-112 -153h-83zM461 747h95l-123 -153h-83z" />
    <glyph glyph-name="uogonek.sc" horiz-adv-x="619" 
d="M512 -161q-49 -46 -121 -46q-58 0 -94.5 28.5t-36.5 73.5q0 59 58 98q-109 -2 -172.5 55t-63.5 161v315h83v-311q0 -69 39.5 -105t105.5 -36t105.5 36t39.5 105v311h82v-315q0 -67 -26.5 -114.5t-75.5 -74.5q-42 -21 -69 -48.5t-27 -59.5q0 -23 16.5 -36.5t43.5 -13.5
q38 0 69 28l44 -51v0v0z" />
    <glyph glyph-name="wcircumflex.sc" horiz-adv-x="869" 
d="M435 687l-85 -93h-86l119 147h105l118 -147h-85zM575 0l-141 411l-140 -411h-98l-173 524h85l138 -432l145 432h89l144 -432l138 432h84l-172 -524h-99z" />
    <glyph glyph-name="ycircumflex.sc" horiz-adv-x="524" 
d="M263 687l-85 -93h-85l118 147h106l118 -147h-86zM305 0h-83v211l-218 313h97l162 -235l162 235h95l-215 -313v-211z" />
    <glyph glyph-name="zacute.sc" horiz-adv-x="545" 
d="M310 747h104l-129 -153h-81zM165 75h325v-75h-435v64l324 385h-321v75h431v-65z" />
    <glyph glyph-name="zdotaccent.sc" horiz-adv-x="545" 
d="M273 724q24 0 40.5 -16.5t16.5 -40.5t-16.5 -40t-40.5 -16t-40 16t-16 40t16 40.5t40 16.5v0v0zM165 75h325v-75h-435v64l324 385h-321v75h431v-65z" />
    <glyph glyph-name="zcaron.sc" horiz-adv-x="545" 
d="M274 648l85 92h86l-119 -147h-106l-118 147h86zM165 75h325v-75h-435v64l324 385h-321v75h431v-65z" />
    <glyph glyph-name="longs.sc" horiz-adv-x="559" 
d="M454 407q-35 22 -78 35.5t-90 13.5q-57 0 -92 -21t-35 -58q0 -31 31 -48.5t95 -25.5l47 -6q81 -11 126.5 -45.5t45.5 -95.5q0 -80 -64 -121.5t-160 -41.5q-62 0 -123.5 18t-101.5 48l41 65q35 -24 84 -40.5t101 -16.5q60 0 97.5 20.5t37.5 60.5q0 32 -31 49t-96 25l-48 5
q-81 11 -125 46.5t-44 96.5q0 74 59.5 117.5t152.5 43.5q114 0 208 -57l-38 -67v0v0z" />
    <glyph glyph-name="florin.sc" 
d="M324 123q-13 -130 -122 -130q-55 0 -100 29l31 57q28 -16 60 -16q26 0 39.5 16.5t16.5 49.5l11 110h-96v64h102l10 99q6 62 36.5 95.5t85.5 33.5q56 0 101 -29l-32 -58q-30 17 -60 17q-49 0 -55 -66l-10 -92h106v-64h-112l-12 -116v0v0z" />
    <glyph glyph-name="gcaron.sc" horiz-adv-x="635" 
d="M328 531q62 0 113.5 -21.5t87.5 -61.5l-60 -58q-26 30 -63 46.5t-80 16.5q-53 0 -95.5 -24.5t-67 -68t-24.5 -98.5q0 -57 25 -101t67.5 -68t93.5 -24q73 0 118 39t53 109h-156v67h240q1 -9 1 -26q0 -78 -33.5 -138.5t-91.5 -93.5t-129 -33q-74 0 -136.5 33.5t-99.5 94.5
t-37 141q0 78 35.5 139t98 95.5t140.5 34.5v0v0zM322 648l86 92h85l-118 -147h-106l-118 147h86z" />
    <glyph glyph-name="aringacute.sc" horiz-adv-x="577" 
d="M226 494q-25 15 -39.5 40t-14.5 55q0 48 34.5 81.5t82.5 33.5t82 -33.5t34 -81.5q0 -30 -14.5 -55t-39.5 -40l211 -494h-88l-56 132h-262l-55 -132h-87l212 494v0v0zM289 525q26 0 44.5 18.5t18.5 45.5t-18.5 45.5t-44.5 18.5t-44.5 -18.5t-18.5 -45.5t18.5 -45.5
t44.5 -18.5v0v0zM328 885h103l-128 -153h-82zM388 206l-100 239l-102 -239h202z" />
    <glyph glyph-name="aeacute.sc" horiz-adv-x="905" 
d="M632 747h104l-129 -153h-81zM434 0v125h-231l-93 -125h-98l392 524h426v-74h-313v-149h300v-74h-300v-153h315v-74h-398zM434 436l-177 -237h177v237z" />
    <glyph glyph-name="oslashacute.sc" horiz-adv-x="654" 
d="M328 531q48 0 90.5 -13.5t75.5 -39.5l57 57l49 -50l-55 -55q56 -72 56 -168q0 -77 -35.5 -139t-97.5 -96.5t-140 -34.5q-96 0 -168 53l-55 -56l-50 50l55 54q-56 72 -56 169q0 77 35.5 138.5t98 96t140.5 34.5v0v0zM328 452q-53 0 -95.5 -24t-67 -67t-24.5 -99
q0 -61 30 -107l265 264q-47 33 -108 33v0v0zM515 262q0 60 -31 107l-265 -264q47 -33 109 -33q53 0 95.5 24t67 67.5t24.5 98.5v0v0zM365 747h103l-128 -153h-82z" />
    <glyph glyph-name="gravecomb.sc" horiz-adv-x="0" 
d="M-370 747l107 -153h-82l-128 153h103z" />
    <glyph glyph-name="acutecomb.sc" horiz-adv-x="0" 
d="M-291 747h103l-128 -153h-82z" />
    <glyph glyph-name="tildecomb.sc" horiz-adv-x="0" 
d="M-505 667q24 30 51 44.5t63 14.5q25 0 43 -6t40 -18q17 -9 27 -13t22 -4q19 0 34.5 9.5t34.5 29.5l45 -51q-23 -30 -50.5 -44.5t-63.5 -14.5q-25 0 -43 6t-40 18q-15 9 -26 13t-23 4q-19 0 -34.5 -9.5t-35.5 -29.5l-44 51v0v0z" />
    <glyph glyph-name="dotbelowcomb.sc" horiz-adv-x="0" 
d="M-329 -76q24 0 40.5 -16.5t16.5 -40.5t-16.5 -40t-40.5 -16t-40 16t-16 40t16 40.5t40 16.5v0v0z" />
    <glyph glyph-name="wgrave.sc" horiz-adv-x="869" 
d="M394 747l106 -153h-82l-127 153h103zM575 0l-141 411l-140 -411h-98l-173 524h85l138 -432l145 432h89l144 -432l138 432h84l-172 -524h-99z" />
    <glyph glyph-name="wacute.sc" horiz-adv-x="869" 
d="M473 747h103l-128 -153h-82zM575 0l-141 411l-140 -411h-98l-173 524h85l138 -432l145 432h89l144 -432l138 432h84l-172 -524h-99z" />
    <glyph glyph-name="wdieresis.sc" horiz-adv-x="869" 
d="M330 725q24 0 40.5 -16.5t16.5 -40.5t-16.5 -40.5t-40.5 -16.5t-40 16.5t-16 40.5t16 40.5t40 16.5v0v0zM539 725q24 0 40.5 -16.5t16.5 -40.5t-16.5 -40.5t-40.5 -16.5t-40 16.5t-16 40.5t16 40.5t40 16.5v0v0zM575 0l-141 411l-140 -411h-98l-173 524h85l138 -432
l145 432h89l144 -432l138 432h84l-172 -524h-99z" />
    <glyph glyph-name="ygrave.sc" horiz-adv-x="524" 
d="M222 747l106 -153h-81l-128 153h103zM305 0h-83v211l-218 313h97l162 -235l162 235h95l-215 -313v-211z" />
    <glyph glyph-name="quoteleft.sc" horiz-adv-x="204" 
d="M96 523h65l-29 -239h-87z" />
    <glyph glyph-name="quoteright.sc" horiz-adv-x="204" 
d="M107 284h-64l29 240h87z" />
    <glyph glyph-name="quotesinglbase.sc" horiz-adv-x="204" 
d="M107 -85h-64l29 240h87z" />
    <glyph glyph-name="quotedblleft.sc" horiz-adv-x="358" 
d="M96 523h65l-29 -239h-87zM251 523h65l-30 -239h-86z" />
    <glyph glyph-name="quotedblright.sc" horiz-adv-x="358" 
d="M107 284h-64l29 240h87zM262 284h-65l30 240h87z" />
    <glyph glyph-name="quotedblbase.sc" horiz-adv-x="358" 
d="M107 -85h-64l29 240h87zM262 -85h-65l30 240h87z" />
    <glyph glyph-name="dagger.sc" horiz-adv-x="305" 
d="M123 388h-77v59h77v77h59v-77h77v-59h-77v-153h-59v153z" />
    <glyph glyph-name="daggerdbl.sc" horiz-adv-x="305" 
d="M124 297h-78v52h78v60h-78v52h78v63h58v-63h77v-52h-77v-60h77v-52h-77v-62h-58v62z" />
    <glyph glyph-name="perthousand.sc" horiz-adv-x="1094" 
d="M186 532q62 0 103 -39t41 -98t-41 -98.5t-103 -39.5q-61 0 -101.5 39.5t-40.5 98.5t40.5 98t101.5 39v0v0zM186 472q-33 0 -55.5 -22t-22.5 -55q0 -34 22.5 -56t55.5 -22q34 0 56.5 22t22.5 56q0 33 -22.5 55t-56.5 22v0v0zM583 267q61 0 102.5 -39t41.5 -98t-41 -98
t-103 -39q-61 0 -102 39t-41 98q0 58 41 97.5t102 39.5v0v0zM907 267q62 0 103 -39.5t41 -98.5t-41 -98.5t-103 -39.5q-61 0 -102 39.5t-41 98.5q0 38 19 70t51.5 50t72.5 18v0v0zM583 208q-34 0 -56 -22t-22 -56t22 -55.5t56 -21.5q35 0 57 21.5t22 55.5t-22.5 56t-56.5 22
v0v0zM907 207q-33 0 -55.5 -22t-22.5 -56q0 -33 22.5 -55t55.5 -22q34 0 56.5 22t22.5 55q0 34 -22.5 56t-56.5 22v0v0zM166 0l359 524h77l-358 -524h-78z" />
    <glyph glyph-name="minute.sc" horiz-adv-x="215" 
d="M116 278h-73l54 246h73z" />
    <glyph glyph-name="second.sc" horiz-adv-x="350" 
d="M116 278h-73l54 246h73zM251 278h-73l54 246h73z" />
    <glyph glyph-name="fi.sc" horiz-adv-x="803" 
d="M174 222v-222h-83v524h392v-75h-309v-152h295v-75h-295zM629 0v524h82v-524h-82z" />
    <glyph glyph-name="fl.sc" horiz-adv-x="1037" 
d="M174 222v-222h-83v524h392v-75h-309v-152h295v-75h-295zM629 0v524h82v-447h308v-77h-390z" />
    <glyph glyph-name="longs_t.sc" horiz-adv-x="1047" 
d="M454 407q-35 22 -78 35.5t-90 13.5q-57 0 -92 -21t-35 -58q0 -31 31 -48.5t95 -25.5l47 -6q81 -11 126.5 -45.5t45.5 -95.5q0 -80 -64 -121.5t-160 -41.5q-62 0 -123.5 18t-101.5 48l41 65q35 -24 84 -40.5t101 -16.5q60 0 97.5 20.5t37.5 60.5q0 32 -31 49t-96 25l-48 5
q-81 11 -125 46.5t-44 96.5q0 74 59.5 117.5t152.5 43.5q114 0 208 -57l-38 -67v0v0zM844 447v-447h-83v447h-185v77h453v-77h-185z" />
    <glyph glyph-name="i.latn_TRK.sc" horiz-adv-x="265" 
d="M133 724q24 0 40 -16.5t16 -40.5t-16 -40t-40 -16t-40.5 16t-16.5 40t16.5 40.5t40.5 16.5v0v0zM91 0v524h83v-524h-83z" />
    <glyph glyph-name="j.latn_NLD.sc" horiz-adv-x="473" 
d="M386 193q0 -96 -54.5 -148t-142.5 -52q-57 0 -100 18.5t-70 46.5l47 62q46 -48 119 -48q55 0 86.5 32.5t31.5 95.5v324h83v-331v0v0zM382 747h103l-128 -153h-82z" />
    <glyph glyph-name="ldot.latn_CAT.sc" horiz-adv-x="499" 
d="M375 326q24 0 40.5 -16.5t16.5 -40.5t-16.5 -40t-40.5 -16t-40 16t-16 40t16 40.5t40 16.5v0v0zM91 0v524h83v-447h307v-77h-390z" />
    <glyph glyph-name="parenleft.case" horiz-adv-x="408" 
d="M370 707q-98 -41 -155.5 -138t-57.5 -219q0 -121 57.5 -218t155.5 -138l-28 -77q-81 30 -143 94t-96.5 151.5t-34.5 187.5t34.5 187.5t96.5 151.5t143 94l28 -76v0v0z" />
    <glyph glyph-name="parenright.case" horiz-adv-x="408" 
d="M38 -6q98 41 155.5 138t57.5 219t-57.5 219t-155.5 137l28 76q81 -30 143 -93.5t96.5 -151t34.5 -187.5t-34.5 -187.5t-96.5 -151.5t-143 -94l-28 76v0v0z" />
    <glyph glyph-name="hyphen.case" horiz-adv-x="414" 
d="M67 312v76h280v-76h-280z" />
    <glyph glyph-name="slash.case" horiz-adv-x="515" 
d="M38 0l342 700h97l-342 -700h-97z" />
    <glyph glyph-name="at.case" horiz-adv-x="983" 
d="M680 310q0 -51 13.5 -73.5t43.5 -22.5q41 0 66 40t25 114q0 94 -44 167t-120.5 114t-172.5 41q-95 0 -172 -44t-121 -121t-44 -174q0 -98 44 -176t120.5 -122t171.5 -44q117 0 209 66l40 -53q-109 -79 -249 -79q-117 0 -210.5 53.5t-147 146.5t-53.5 208
q0 114 53.5 206.5t147.5 145.5t211 53t211 -50t147 -138.5t53 -198.5q0 -97 -45.5 -159t-123.5 -62q-46 0 -75 21.5t-40 57.5q-23 -35 -59 -55t-85 -20q-54 0 -97 26t-67.5 71.5t-24.5 101.5t24.5 101.5t67.5 71.5t95 26q88 0 138 -70v62h70v-232v0v0zM485 483
q-56 0 -91.5 -38t-35.5 -94q0 -57 35.5 -94.5t91.5 -37.5q55 0 91 37.5t36 94.5t-36 94.5t-91 37.5v0v0z" />
    <glyph glyph-name="bracketleft.case" horiz-adv-x="374" 
d="M96 -66v832h240v-77h-155v-678h155v-77h-240z" />
    <glyph glyph-name="backslash.case" horiz-adv-x="425" 
d="M89 700l342 -700h-96l-342 700h96z" />
    </font>
</defs>
</svg>
