<?xml version="1.0" standalone="no"?>
<!DOCTYPE svg PUBLIC "-//W3C//DTD SVG 1.1//EN" "http://www.w3.org/Graphics/SVG/1.1/DTD/svg11.dtd" >
<svg xmlns="http://www.w3.org/2000/svg" xmlns:xlink="http://www.w3.org/1999/xlink" version="1.1">
<metadata>
Created by FontForge 20170731 at Mon Apr 27 17:16:47 2020
 By Aleksey,,,
2013 published by FontShop International GmbH
</metadata>
<defs>
<font id="BOG-Light" horiz-adv-x="600" >
  <font-face 
    font-family="BOG Light"
    font-weight="300"
    font-stretch="normal"
    units-per-em="1000"
    panose-1="2 11 8 4 2 1 1 1 1 2"
    ascent="790"
    descent="-210"
    x-height="471"
    cap-height="700"
    bbox="-592 -239 1322 1059"
    underline-thickness="50"
    underline-position="-150"
    unicode-range="U+0020-FB02"
  />
<missing-glyph horiz-adv-x="599" 
d="M508 700v-700h-417v700h417zM457 649h-314v-597h314v597z" />
    <glyph glyph-name="fi" unicode="fi" horiz-adv-x="676" 
d="M28 419v52h115v81q0 82 38 129t118 47q69 0 127 -35l-21 -48q-21 13 -48 21t-55 8q-53 0 -77.5 -31t-24.5 -91v-81h203v-52h-203v-419h-57v419h-115v0v0zM557 599q-17 0 -28.5 12t-11.5 29t11.5 29t28.5 12t29 -12t12 -29t-12 -29t-29 -12v0v0zM529 471h57v-471h-57v471z
" />
    <glyph glyph-name="fl" unicode="fl" horiz-adv-x="676" 
d="M28 419v52h115v81q0 82 38 129t118 47q69 0 127 -35l-21 -48q-21 13 -48 21t-55 8q-53 0 -77.5 -31t-24.5 -91v-81h203v-52h-203v-419h-57v419h-115v0v0zM529 720h57v-720h-57v720z" />
    <glyph glyph-name="uni10ED10E3.liga" unicode="&#x10ed;&#x10e3;" horiz-adv-x="1187" 
d="M280 -206q-63 0 -116 25.5t-84 70.5t-31 100q0 48 17 88l52 -12q-11 -33 -11 -76q0 -39 23 -71.5t62.5 -51.5t87.5 -19q73 0 120 48t47 134v213q-59 -91 -186 -91q-52 0 -97.5 20t-73 57.5t-27.5 86.5q0 77 55 116t133 39h196v249h57v-249h217q38 0 68.5 -17.5
t44.5 -60.5q16 45 49.5 65t76.5 20q38 0 73 -17.5t57 -53.5t22 -89v-288q0 -73 -29.5 -126.5t-80.5 -81.5t-114 -28q-64 0 -116.5 26t-83.5 73t-31 107q0 48 17 88l52 -12q-11 -33 -11 -76q0 -44 23 -78.5t62.5 -54t87.5 -19.5q73 0 120 48t47 134v280q0 58 -28 86.5
t-71 28.5q-41 0 -67 -27.5t-26 -79.5v-115h-57v112q0 51 -24.5 77t-61.5 26h-216v-388q0 -73 -29.5 -126.5t-80.5 -81.5t-114 -28v0v0zM267 205q81 0 130.5 42.5t49.5 108.5v62h-190q-65 0 -101.5 -23.5t-36.5 -78.5q0 -53 39.5 -82t108.5 -29v0v0z" />
    <glyph glyph-name=".notdef" horiz-adv-x="599" 
d="M508 700v-700h-417v700h417zM457 649h-314v-597h314v597z" />
    <glyph glyph-name=".null" horiz-adv-x="0" 
 />
    <glyph glyph-name="nonmarkingreturn" horiz-adv-x="265" 
 />
    <glyph glyph-name="space" unicode=" " horiz-adv-x="265" 
 />
    <glyph glyph-name="exclam" unicode="!" horiz-adv-x="260" 
d="M130 89q19 0 33.5 -14t14.5 -33q0 -20 -14.5 -34.5t-33.5 -14.5t-33.5 15t-14.5 34t14.5 33t33.5 14v0v0zM104 218l-9 482h70l-9 -482h-52z" />
    <glyph glyph-name="quotedbl" unicode="&#x22;" horiz-adv-x="507" 
d="M204 478h-57v242h57v-242zM360 478h-57v242h57v-242z" />
    <glyph glyph-name="numbersign" unicode="#" horiz-adv-x="728" 
d="M288 700h53l-40 -187h195l40 187h54l-40 -187h115l-11 -51h-115l-47 -220h115l-10 -51h-116l-40 -191h-54l41 191h-195l-41 -191h-53l40 191h-116l11 51h116l47 220h-117l11 51h117zM439 242l46 220h-195l-46 -220h195z" />
    <glyph glyph-name="dollar" unicode="$" horiz-adv-x="700" 
d="M329 3q-66 3 -132.5 26t-108.5 56l31 47q36 -27 93.5 -48.5t116.5 -25.5l-1 268l-22 3q-96 11 -148.5 56t-51.5 120q1 84 63 135t159 57v96h53v-96q126 -7 222 -73l-30 -48q-38 26 -87.5 43.5t-104.5 21.5v-264l27 -3q96 -11 151.5 -55t54.5 -120q-1 -88 -66 -138
t-167 -58v-98h-52v98v0v0zM328 641q-73 -5 -117.5 -41t-45.5 -94q0 -103 163 -123v258v0v0zM381 59q79 6 126 41t48 96q0 103 -174 124v-261v0v0z" />
    <glyph glyph-name="percent" unicode="%" horiz-adv-x="956" 
d="M228 708q50 0 91 -23t64.5 -63.5t23.5 -90.5t-23.5 -90.5t-64.5 -63.5t-91 -23q-49 0 -89.5 23t-64 63.5t-23.5 90.5t23.5 90.5t64 63.5t89.5 23v0v0zM228 658q-53 0 -88.5 -36t-35.5 -91q0 -54 35.5 -90t88.5 -36q54 0 90 35.5t36 90.5t-36 91t-90 36v0v0zM727 346
q50 0 91 -23t64.5 -63.5t23.5 -90.5t-23.5 -90.5t-64.5 -63.5t-91 -23t-90.5 23t-63.5 63.5t-23 90.5t23 90.5t63.5 63.5t90.5 23v0v0zM727 296q-53 0 -88.5 -36t-35.5 -91q0 -54 35.5 -90t88.5 -36q54 0 90 35.5t36 90.5t-36 91t-90 36v0v0zM228 0l441 700h60l-441 -700
h-60z" />
    <glyph glyph-name="ampersand" unicode="&#x26;" horiz-adv-x="690" 
d="M468 116q-45 -58 -96 -91t-121 -33q-88 0 -140.5 46t-52.5 124q0 64 38 112.5t107 99.5q-58 58 -82 96.5t-24 86.5q0 41 21 75.5t59 55t85 20.5q48 0 85.5 -19.5t58.5 -53t21 -74.5q0 -55 -35.5 -98t-101.5 -91l173 -169l115 169l46 -29l-121 -179l167 -164h-83l-119 116
v0v0zM158 553q0 -34 19 -62t74 -82q57 42 86.5 75.5t29.5 73.5q0 42 -29 69t-76 27q-46 0 -75 -29t-29 -72v0v0zM254 46q54 0 94.5 27.5t80.5 81.5l-187 182q-59 -44 -91 -84t-32 -89q0 -52 38 -85t97 -33v0v0z" />
    <glyph glyph-name="quotesingle" unicode="'" horiz-adv-x="351" 
d="M204 478h-57v242h57v-242z" />
    <glyph glyph-name="parenleft" unicode="(" horiz-adv-x="400" 
d="M358 660q-66 -25 -116 -81t-78 -132.5t-28 -162.5q0 -85 28 -162t78 -132.5t116 -80.5l-20 -53q-77 28 -136.5 91t-92.5 150.5t-33 186.5t33 186.5t92.5 150.5t136.5 91l20 -52v0v0z" />
    <glyph glyph-name="parenright" unicode=")" horiz-adv-x="400" 
d="M42 -91q66 25 116 81t78 132.5t28 162.5t-28 162.5t-78 132t-116 80.5l20 53q77 -28 136.5 -91t92.5 -150.5t33 -186.5t-33 -186.5t-92.5 -150.5t-136.5 -91l-20 52v0v0z" />
    <glyph glyph-name="asterisk" unicode="*" horiz-adv-x="433" 
d="M195 720h44v-135l128 42l14 -42l-129 -42l80 -110l-35 -25l-80 109l-80 -109l-35 25l79 110l-128 42l13 42l129 -43v136z" />
    <glyph glyph-name="plus" unicode="+" 
d="M273 238h-186v51h186v189h52v-189h188v-51h-188v-186h-52v186z" />
    <glyph glyph-name="comma" unicode="," horiz-adv-x="244" 
d="M121 -125h-49l31 242h66z" />
    <glyph glyph-name="hyphen" unicode="-" horiz-adv-x="418" 
d="M74 238v51h271v-51h-271z" />
    <glyph glyph-name="period" unicode="." horiz-adv-x="260" 
d="M130 89q20 0 34 -14t14 -34t-14.5 -34.5t-33.5 -14.5t-33.5 15t-14.5 34t14.5 33.5t33.5 14.5v0v0z" />
    <glyph glyph-name="slash" unicode="/" horiz-adv-x="492" 
d="M2 -100l425 870h62l-424 -870h-63z" />
    <glyph glyph-name="zero" unicode="0" horiz-adv-x="709" 
d="M355 708q79 0 144 -43.5t103 -124.5t38 -190q0 -108 -38 -189.5t-103 -125t-144 -43.5q-80 0 -145 43.5t-103 125t-38 189.5q0 109 38 190t103 124.5t145 43.5v0v0zM355 651q-63 0 -114 -35.5t-81 -103.5t-30 -162q0 -93 30 -161.5t81 -104t114 -35.5q62 0 113 36t81 104
t30 161q0 94 -30 162t-81 103.5t-113 35.5v0v0z" />
    <glyph glyph-name="one" unicode="1" horiz-adv-x="428" 
d="M259 0v622l-224 -97v61l283 121v-707h-59z" />
    <glyph glyph-name="two" unicode="2" horiz-adv-x="546" 
d="M45 592q75 116 208 116q69 0 118.5 -27.5t75 -76t25.5 -108.5q0 -59 -26 -107t-68 -92l-229 -241h349v-56h-436v46l271 285q37 39 57.5 79t20.5 86q0 67 -42 111.5t-117 44.5q-58 0 -97 -25.5t-68 -68.5l-42 34v0v0z" />
    <glyph glyph-name="three" unicode="3" horiz-adv-x="549" 
d="M247 708q67 0 119 -23.5t80.5 -66.5t28.5 -97q0 -63 -32 -105t-88 -62q62 -20 98.5 -63t36.5 -105q0 -63 -33 -106.5t-86.5 -65.5t-116.5 -22q-69 0 -124.5 23t-94.5 65l37 40q34 -34 80.5 -53t99.5 -19q76 0 126.5 36.5t50.5 104.5q0 63 -51.5 100.5t-128.5 37.5h-96v54
h96q72 0 118 35.5t46 101.5q0 60 -47.5 97.5t-121.5 37.5q-52 0 -93 -22.5t-69 -59.5l-43 36q33 46 86 73.5t122 27.5v0v0z" />
    <glyph glyph-name="four" unicode="4" horiz-adv-x="576" 
d="M549 209v-55h-127v-154h-58v154h-336v45l261 501h67l-258 -491h266v200h58v-200h127z" />
    <glyph glyph-name="five" unicode="5" horiz-adv-x="576" 
d="M157 416h110q80 0 135.5 -27t83.5 -73t28 -104q0 -68 -31 -117.5t-84.5 -76t-120.5 -26.5q-145 0 -233 108l39 38q36 -43 86.5 -66t107.5 -23q81 0 128 44.5t47 113.5t-50.5 111t-153.5 42h-147l10 340h372v-55h-318l-9 -229v0v0z" />
    <glyph glyph-name="six" unicode="6" horiz-adv-x="575" 
d="M196 424q46 19 95 19q68 0 123 -29.5t86 -80.5t31 -115t-32 -115.5t-88 -81t-125 -29.5t-125 29.5t-88 81t-32 115.5q0 67 46 142l212 340h72l-175 -276v0v0zM286 389q-52 0 -94 -22t-66 -61t-24 -88t24 -88t66 -61t94 -22t94 22t66 61t24 88t-24 88t-66 61t-94 22v0v0z
" />
    <glyph glyph-name="seven" unicode="7" horiz-adv-x="547" 
d="M189 0h-69l322 645h-401v55h472v-46z" />
    <glyph glyph-name="eight" unicode="8" horiz-adv-x="628" 
d="M314 708q66 0 120.5 -22.5t86.5 -64.5t32 -100q0 -61 -32.5 -102.5t-86.5 -63.5q62 -22 99 -64.5t37 -105.5q0 -60 -34 -103.5t-92.5 -66.5t-129.5 -23t-129.5 23t-92.5 66.5t-34 103.5q0 63 37 105.5t98 64.5q-54 22 -86 63.5t-32 102.5q0 58 32 100t86.5 64.5
t120.5 22.5v0v0zM314 653q-76 0 -126.5 -35.5t-50.5 -99.5q0 -66 50 -102.5t127 -36.5t127 36.5t50 102.5q0 64 -50.5 99.5t-126.5 35.5v0v0zM314 328q-84 0 -139 -37t-55 -103q0 -67 55 -104t139 -37q83 0 138 37t55 104q0 66 -55 103t-138 37v0v0z" />
    <glyph glyph-name="nine" unicode="9" horiz-adv-x="575" 
d="M379 277q-43 -20 -95 -20q-68 0 -122.5 29.5t-85.5 81t-31 115.5q0 63 31.5 114.5t87.5 81t125 29.5t125 -29.5t88 -81t32 -114.5q0 -37 -11 -71t-34 -71l-212 -341h-72l174 277v0v0zM289 312q53 0 95 22t66 61t24 88q0 48 -24 87t-66 61t-95 22q-52 0 -94 -22t-66 -61
t-24 -87q0 -49 24 -88t66 -61t94 -22v0v0z" />
    <glyph glyph-name="colon" unicode=":" horiz-adv-x="260" 
d="M130 478q20 0 34 -14t14 -34q0 -19 -14.5 -33.5t-33.5 -14.5t-33.5 14.5t-14.5 33.5t14.5 33.5t33.5 14.5v0v0zM130 89q19 0 33.5 -14t14.5 -33q0 -20 -14.5 -34.5t-33.5 -14.5t-33.5 15t-14.5 34t14.5 33t33.5 14v0v0z" />
    <glyph glyph-name="semicolon" unicode=";" horiz-adv-x="244" 
d="M126 478q19 0 33 -14.5t14 -33.5t-14 -33.5t-33 -14.5t-33.5 14.5t-14.5 33.5q0 20 14.5 34t33.5 14v0v0zM121 -125h-49l31 242h66z" />
    <glyph glyph-name="less" unicode="&#x3c;" 
d="M108 236v56l385 184v-61l-328 -151l328 -151v-61z" />
    <glyph glyph-name="equal" unicode="=" 
d="M87 326v51h426v-51h-426zM87 150v52h426v-52h-426z" />
    <glyph glyph-name="greater" unicode="&#x3e;" 
d="M493 292v-56l-385 -184v61l328 151l-328 151v61z" />
    <glyph glyph-name="question" unicode="?" horiz-adv-x="424" 
d="M135 373q89 0 140 37.5t51 103.5q0 63 -51 99.5t-136 36.5q-11 0 -62 -3l-5 58q32 5 70 5q74 0 130 -24t86.5 -68t30.5 -102q0 -84 -58.5 -136t-164.5 -61l-4 -101h-52v155h25v0v0zM136 89q20 0 34 -14t14 -34t-14.5 -34.5t-33.5 -14.5t-33.5 15t-14.5 34t14.5 33.5
t33.5 14.5v0v0z" />
    <glyph glyph-name="at" unicode="@" horiz-adv-x="990" 
d="M684 200q0 -54 16 -79t48 -25q45 0 73.5 45t28.5 124q0 100 -46.5 177.5t-127.5 120t-181 42.5q-99 0 -180.5 -46.5t-128 -127.5t-46.5 -181q0 -101 46.5 -183t128 -129t180.5 -47q123 0 221 70l27 -37q-110 -79 -248 -79q-114 0 -207 53.5t-146.5 146t-53.5 205.5
q0 112 53.5 203.5t146.5 144.5t207 53q115 0 208 -49.5t146 -137.5t53 -199q0 -61 -19 -110t-54.5 -77t-83.5 -28q-44 0 -71 22.5t-36 62.5q-24 -38 -63.5 -60.5t-92.5 -22.5t-97 25.5t-69.5 71t-25.5 101.5t25.5 101.5t69.5 71.5t97 26q51 0 89.5 -22t63.5 -60v75h49v-242
v0v0zM489 402q-65 0 -106.5 -43.5t-41.5 -108.5t41.5 -108.5t106.5 -43.5q64 0 106 43.5t42 108.5t-42 108.5t-106 43.5v0v0z" />
    <glyph glyph-name="A" unicode="A" horiz-adv-x="703" 
d="M618 0l-85 205h-364l-85 -205h-64l294 700h75l294 -700h-65zM508 263l-157 378l-158 -378h315z" />
    <glyph glyph-name="B" unicode="B" horiz-adv-x="700" 
d="M375 700q116 0 182 -44t66 -137q0 -62 -32 -102.5t-89 -55.5q63 -16 99 -59t36 -111q0 -97 -66 -144t-184 -47h-282v700h270v0v0zM374 385q87 0 136 29.5t49 99.5t-49.5 99.5t-136.5 29.5h-207v-258h208v0v0zM384 58q91 0 140 31.5t49 103.5q0 73 -49 104t-140 31h-218
v-270h218v0v0z" />
    <glyph glyph-name="C" unicode="C" horiz-adv-x="764" 
d="M422 708q90 0 165.5 -38.5t117.5 -105.5l-51 -34q-37 56 -98 87.5t-134 31.5q-83 0 -150 -37.5t-106 -105.5t-39 -156q0 -87 39 -155t106 -106t150 -38q73 0 134 31.5t97 87.5l50 -36q-44 -66 -118 -104t-163 -38q-102 0 -183.5 46t-128.5 127.5t-47 184.5t47 184.5
t128.5 127.5t183.5 46v0v0z" />
    <glyph glyph-name="D" unicode="D" horiz-adv-x="801" 
d="M360 700q116 0 201.5 -42.5t131.5 -121.5t46 -186t-46 -186t-131.5 -121.5t-201.5 -42.5h-255v700h255v0v0zM360 58q100 0 171 36t107.5 101.5t36.5 154.5q0 136 -82 214t-233 78h-194v-584h194v0v0z" />
    <glyph glyph-name="E" unicode="E" horiz-adv-x="671" 
d="M105 0v700h478v-57h-417v-262h405v-57h-405v-266h421v-58h-482z" />
    <glyph glyph-name="F" unicode="F" horiz-adv-x="644" 
d="M166 324v-324h-61v700h476v-58h-415v-260h398v-58h-398z" />
    <glyph glyph-name="G" unicode="G" horiz-adv-x="819" 
d="M422 708q82 0 152 -31.5t119 -87.5l-45 -44q-41 49 -99.5 76.5t-126.5 27.5q-83 0 -150 -37.5t-106 -105.5t-39 -156q0 -87 38.5 -155t105.5 -106t148 -38q119 0 191 70t79 191h-237v57h303q1 -6 1 -16q0 -103 -41.5 -185t-118 -129t-177.5 -47q-95 0 -176.5 44
t-130.5 125.5t-49 188.5q0 104 47 185.5t129 127t183 45.5v0v0z" />
    <glyph glyph-name="H" unicode="H" horiz-adv-x="783" 
d="M617 382v318h61v-700h-61v324h-451v-324h-61v700h61v-318h451z" />
    <glyph glyph-name="I" unicode="I" horiz-adv-x="271" 
d="M105 0v700h61v-700h-61z" />
    <glyph glyph-name="J" unicode="J" horiz-adv-x="576" 
d="M476 251q0 -81 -31.5 -139.5t-86 -89t-124.5 -30.5q-130 0 -211 94l41 42q29 -34 71.5 -55.5t97.5 -21.5q83 0 132.5 53.5t49.5 152.5v443h61v-449v0v0z" />
    <glyph glyph-name="K" unicode="K" horiz-adv-x="684" 
d="M166 323v-323h-61v700h61v-319h93l308 319h79l-338 -344l359 -356h-83l-326 323h-92z" />
    <glyph glyph-name="L" unicode="L" horiz-adv-x="602" 
d="M105 0v700h61v-642h415v-58h-476z" />
    <glyph glyph-name="M" unicode="M" horiz-adv-x="930" 
d="M764 0v631l-267 -548h-64l-267 545v-628h-61v700h92l268 -545l268 545h92v-700h-61z" />
    <glyph glyph-name="N" unicode="N" horiz-adv-x="785" 
d="M625 0l-459 595v-595h-61v700h55l459 -595v595h61v-700h-55z" />
    <glyph glyph-name="O" unicode="O" horiz-adv-x="843" 
d="M422 708q101 0 183 -46t128.5 -127.5t46.5 -184.5t-46.5 -184.5t-128.5 -127.5t-183 -46q-102 0 -183.5 46t-128.5 127.5t-47 184.5t47 184.5t128.5 127.5t183.5 46v0v0zM422 649q-83 0 -150 -37.5t-106 -105.5t-39 -156q0 -87 39 -155t106 -106t150 -38q82 0 149 38
t106 106t39 155q0 88 -39 156t-106 105.5t-149 37.5v0v0z" />
    <glyph glyph-name="P" unicode="P" horiz-adv-x="666" 
d="M105 0v700h260q116 0 181.5 -54.5t65.5 -152.5t-65.5 -153t-181.5 -55h-199v-285h-61v0v0zM363 343q89 0 137.5 38.5t48.5 111.5t-48.5 111.5t-137.5 38.5h-197v-300h197v0v0z" />
    <glyph glyph-name="Q" unicode="Q" horiz-adv-x="843" 
d="M422 -8q-102 0 -183.5 46t-128.5 127.5t-47 184.5t47 184.5t128.5 127.5t183.5 46q101 0 183 -46t128.5 -127.5t46.5 -184.5q0 -67 -20 -125.5t-58 -103.5l96 -121h-72l-64 79q-47 -42 -109 -64.5t-131 -22.5v0v0zM422 51q59 0 111 20t91 56l-172 215h73l137 -171
q54 76 54 179q0 88 -39 156t-106 105.5t-149 37.5q-83 0 -150 -37.5t-106 -105.5t-39 -156q0 -87 39 -155t106 -106t150 -38v0v0z" />
    <glyph glyph-name="R" unicode="R" horiz-adv-x="671" 
d="M372 700q116 0 178.5 -50.5t62.5 -143.5q0 -91 -64.5 -143t-176.5 -52h-27l265 -311h-76l-261 311h-107v-311h-61v700h267v0v0zM371 366q87 0 133 36t46 104q0 67 -46.5 102t-132.5 35h-205v-277h205v0v0z" />
    <glyph glyph-name="S" unicode="S" horiz-adv-x="672" 
d="M560 581q-96 69 -219 69q-86 0 -140.5 -37.5t-54.5 -102.5q0 -53 41.5 -84t129.5 -41l77 -9q215 -24 215 -179q0 -66 -36.5 -112t-99 -69.5t-139.5 -23.5q-76 0 -149 25t-122 63l33 49q40 -32 104.5 -55t132.5 -23q94 0 153 36.5t59 104.5q0 56 -44 86t-133 40l-80 9
q-98 11 -151.5 55.5t-53.5 123.5q0 63 34 108.5t93 69.5t132 24q141 0 250 -77l-32 -50v0v0z" />
    <glyph glyph-name="T" unicode="T" horiz-adv-x="608" 
d="M334 642v-642h-61v642h-252v58h566v-58h-253z" />
    <glyph glyph-name="U" unicode="U" horiz-adv-x="755" 
d="M661 273q0 -90 -37.5 -153.5t-102 -95.5t-144.5 -32t-144.5 32t-101.5 95t-37 154v427h61v-423q0 -111 61.5 -168.5t160.5 -57.5q100 0 161 57.5t61 168.5v423h62v-427v0v0z" />
    <glyph glyph-name="V" unicode="V" horiz-adv-x="693" 
d="M309 0l-289 700h65l262 -639l263 639h63l-289 -700h-75z" />
    <glyph glyph-name="W" unicode="W" horiz-adv-x="1104" 
d="M762 0l-210 621l-209 -621h-75l-236 700h65l209 -632l213 632h68l212 -631l210 631h63l-236 -700h-74z" />
    <glyph glyph-name="X" unicode="X" horiz-adv-x="687" 
d="M652 0h-74l-235 312l-236 -312h-72l270 358l-257 342h74l222 -295l223 295h73l-259 -342z" />
    <glyph glyph-name="Y" unicode="Y" horiz-adv-x="632" 
d="M347 0h-61v301l-280 399h73l238 -342l237 342h72l-279 -400v-300z" />
    <glyph glyph-name="Z" unicode="Z" horiz-adv-x="664" 
d="M144 58h457v-58h-538v48l454 594h-447v58h529v-47z" />
    <glyph glyph-name="bracketleft" unicode="[" horiz-adv-x="369" 
d="M105 -132v832h222v-53h-164v-726h164v-53h-222z" />
    <glyph glyph-name="backslash" unicode="\" horiz-adv-x="492" 
d="M66 770l424 -870h-62l-425 870h63z" />
    <glyph glyph-name="bracketright" unicode="]" horiz-adv-x="369" 
d="M265 700v-832h-223v53h164v726h-164v53h223z" />
    <glyph glyph-name="asciicircum" unicode="^" 
d="M272 700h56l178 -372h-62l-145 313l-144 -313h-61z" />
    <glyph glyph-name="underscore" unicode="_" horiz-adv-x="468" 
d="M-3 -127v52h473v-52h-473z" />
    <glyph glyph-name="grave" unicode="`" horiz-adv-x="452" 
d="M135 691h72l110 -150h-56z" />
    <glyph glyph-name="a" unicode="a" horiz-adv-x="622" 
d="M475 91q-30 -46 -77 -72.5t-109 -26.5q-65 0 -119 31.5t-85 87t-31 124.5t31 124.5t85 87t119 31.5q62 0 109 -26t77 -72v91h57v-471h-57v91v0v0zM295 425q-53 0 -94.5 -25t-65 -68.5t-23.5 -96.5t23.5 -96t65.5 -68t94 -25q53 0 94.5 24.5t65 68t23.5 96.5t-23.5 96.5
t-65 68.5t-94.5 25v0v0z" />
    <glyph glyph-name="b" unicode="b" horiz-adv-x="623" 
d="M334 478q65 0 119 -31.5t85 -87t31 -124.5t-31 -124.5t-85 -87t-119 -31.5q-62 0 -109 26t-77 72v-90h-57v720h57v-339q30 45 77 71t109 26v0v0zM327 425q-52 0 -94 -25t-65.5 -68.5t-23.5 -96.5t23.5 -96.5t65.5 -68t94 -24.5q53 0 95 25t65.5 68t23.5 96t-23.5 96.5
t-65.5 68.5t-95 25v0v0z" />
    <glyph glyph-name="c" unicode="c" horiz-adv-x="512" 
d="M295 478q52 0 97 -19t76 -54l-37 -38q-58 58 -138 58q-51 0 -92.5 -24.5t-65 -68t-23.5 -97.5t23.5 -97t65 -67.5t92.5 -24.5q40 0 76 15.5t64 43.5l35 -39q-32 -35 -76.5 -54.5t-96.5 -19.5q-70 0 -125 32t-85.5 87.5t-30.5 123.5q0 69 30.5 124.5t85.5 87t125 31.5v0v0
z" />
    <glyph glyph-name="d" unicode="d" horiz-adv-x="622" 
d="M289 478q62 0 109 -26t77 -72v340h57v-720h-57v91q-30 -46 -77 -72.5t-109 -26.5q-65 0 -119 31.5t-85 87t-31 124.5t31 124.5t85 87t119 31.5v0v0zM295 425q-53 0 -94.5 -25t-65 -68.5t-23.5 -96.5t23.5 -96t65.5 -68t94 -25q53 0 94.5 24.5t65 68t23.5 96.5t-23.5 96.5
t-65 68.5t-94.5 25v0v0z" />
    <glyph glyph-name="e" unicode="e" horiz-adv-x="561" 
d="M287 478q62 0 112 -30.5t79 -85.5t29 -124q0 -16 -1 -23h-394q6 -81 56.5 -127t125.5 -46q90 0 159 67l30 -39q-42 -42 -90 -60t-103 -18q-68 0 -121.5 31t-84 86.5t-30.5 125.5t30.5 125.5t83.5 86.5t119 31v0v0zM286 428q-71 0 -118 -45.5t-55 -118.5h336
q-6 73 -51.5 118.5t-111.5 45.5v0v0z" />
    <glyph glyph-name="f" unicode="f" horiz-adv-x="438" 
d="M200 0h-57v419h-115v52h115v81q0 82 38 129t118 47q69 0 127 -35l-21 -48q-21 13 -48 21t-55 8q-53 0 -77.5 -31t-24.5 -91v-81h203v-52h-203v-419v0v0z" />
    <glyph glyph-name="g" unicode="g" horiz-adv-x="618" 
d="M287 478q62 0 108.5 -26t75.5 -73v92h57v-439q0 -76 -32.5 -129.5t-88.5 -81t-126 -27.5q-59 0 -111.5 18t-86.5 50l29 41q34 -27 77.5 -42t91.5 -15q83 0 136.5 47.5t53.5 136.5v67q-29 -47 -75.5 -73.5t-108.5 -26.5q-65 0 -118.5 31t-84 86t-30.5 124t30.5 124
t84 85.5t118.5 30.5v0v0zM293 425q-52 0 -93.5 -25t-64.5 -67.5t-23 -94.5t23 -95t64.5 -67.5t93.5 -24.5t93.5 24.5t65 67.5t23.5 95t-23.5 95t-65 67.5t-93.5 24.5v0v0z" />
    <glyph glyph-name="h" unicode="h" horiz-adv-x="599" 
d="M148 389q27 44 71.5 66.5t96.5 22.5q89 0 143.5 -51.5t54.5 -137.5v-289h-57v271q0 72 -39.5 112.5t-111.5 40.5q-44 0 -80 -19.5t-57 -55t-21 -81.5v-268h-57v720h57v-331v0v0z" />
    <glyph glyph-name="i" unicode="i" horiz-adv-x="239" 
d="M120 681q17 0 29 -12t12 -29t-12 -29t-29 -12t-29 12t-12 29t12 29t29 12v0v0zM91 0v471h57v-471h-57z" />
    <glyph glyph-name="j" unicode="j" horiz-adv-x="240" 
d="M121 681q17 0 29 -12t12 -29t-12 -29t-29 -12t-29 12t-12 29t12 29t29 12v0v0zM150 -89q0 -56 -28 -86.5t-77 -30.5q-17 0 -35.5 4.5t-30.5 11.5l14 49q22 -12 47 -12q53 0 53 66v558h57v-560v0v0z" />
    <glyph glyph-name="k" unicode="k" horiz-adv-x="521" 
d="M225 272l198 199h72l-224 -222l228 -249h-73l-201 221h-77v-221h-57v720h57v-448h77z" />
    <glyph glyph-name="l" unicode="l" horiz-adv-x="239" 
d="M91 0v720h57v-720h-57z" />
    <glyph glyph-name="m" unicode="m" horiz-adv-x="965" 
d="M681 478q89 0 144 -51.5t55 -137.5v-289h-57v271q0 72 -40 112.5t-112 40.5q-44 0 -80 -19.5t-56.5 -55t-20.5 -81.5v-268h-57v271q0 72 -39.5 112.5t-111.5 40.5q-44 0 -80 -19.5t-57 -55t-21 -81.5v-268h-57v471h57v-83q27 45 71.5 67.5t96.5 22.5q66 0 114 -28.5
t69 -80.5q25 55 74 82t108 27v0v0z" />
    <glyph glyph-name="n" unicode="n" horiz-adv-x="599" 
d="M316 478q89 0 143.5 -51.5t54.5 -137.5v-289h-57v271q0 72 -39.5 112.5t-111.5 40.5q-44 0 -80 -19.5t-57 -55t-21 -81.5v-268h-57v471h57v-83q27 45 71.5 67.5t96.5 22.5v0v0z" />
    <glyph glyph-name="o" unicode="o" horiz-adv-x="596" 
d="M298 478q69 0 125 -31.5t88 -87.5t32 -124t-32 -123.5t-88 -87.5t-125 -32t-124.5 32t-87.5 87.5t-32 123.5q0 69 32 124.5t87.5 87t124.5 31.5v0v0zM298 425q-52 0 -94.5 -24.5t-67 -68t-24.5 -97.5t24.5 -97t67 -67.5t94.5 -24.5t94.5 24.5t67 67.5t24.5 97t-24.5 97.5
t-67 68t-94.5 24.5v0v0z" />
    <glyph glyph-name="p" unicode="p" horiz-adv-x="623" 
d="M334 478q65 0 119 -31.5t85 -87t31 -124.5t-31 -124.5t-85 -87t-119 -31.5q-62 0 -109 26t-77 72v-290h-57v671h57v-90q30 45 77 71t109 26v0v0zM327 425q-52 0 -94 -25t-65.5 -68.5t-23.5 -96.5t23.5 -96.5t65.5 -68t94 -24.5q53 0 95 25t65.5 68t23.5 96t-23.5 96.5
t-65.5 68.5t-95 25v0v0z" />
    <glyph glyph-name="q" unicode="q" horiz-adv-x="622" 
d="M289 478q62 0 109 -26t77 -72v91h57v-671h-57v291q-30 -46 -77 -72.5t-109 -26.5q-65 0 -119 31.5t-85 87t-31 124.5t31 124.5t85 87t119 31.5v0v0zM295 425q-53 0 -94.5 -25t-65 -68.5t-23.5 -96.5t23.5 -96t65.5 -68t94 -25q53 0 94.5 24.5t65 68t23.5 96.5t-23.5 96.5
t-65 68.5t-94.5 25v0v0z" />
    <glyph glyph-name="r" unicode="r" horiz-adv-x="407" 
d="M292 479q50 0 88 -18l-14 -56q-34 19 -84 19q-59 0 -96.5 -43.5t-37.5 -114.5v-266h-57v471h56v-80q23 42 61 65t84 23v0v0z" />
    <glyph glyph-name="s" unicode="s" horiz-adv-x="487" 
d="M405 381q-27 19 -70.5 33t-89.5 14q-56 0 -90.5 -23t-34.5 -62q0 -32 26.5 -50.5t80.5 -25.5l60 -7q75 -8 115 -39.5t40 -86.5q0 -66 -55.5 -104t-147.5 -38q-53 0 -103.5 15.5t-89.5 45.5l26 42q32 -24 72 -38.5t96 -14.5q66 0 104.5 22.5t38.5 65.5q0 66 -108 78l-61 7
q-77 9 -114.5 41t-37.5 84q0 64 50 101t133 37q54 0 102.5 -14.5t81.5 -38.5l-24 -44v0v0z" />
    <glyph glyph-name="t" unicode="t" horiz-adv-x="452" 
d="M193 162q0 -57 28 -86.5t76 -29.5q61 0 105 36l27 -42q-26 -22 -61 -35t-75 -13q-75 0 -116 42.5t-41 126.5v258h-108v52h108v153h57v-153h217v-52h-217v-257v0v0z" />
    <glyph glyph-name="u" unicode="u" horiz-adv-x="593" 
d="M508 195q0 -65 -28 -110.5t-76 -69t-107 -23.5t-107 23.5t-76 69t-28 110.5v276h57v-271q0 -74 42 -114t112 -40t112 40t42 114v271h57v-276v0v0z" />
    <glyph glyph-name="v" unicode="v" horiz-adv-x="515" 
d="M225 -1l-208 472h62l179 -414l180 414h60l-207 -472h-66z" />
    <glyph glyph-name="w" unicode="w" horiz-adv-x="863" 
d="M778 471h59l-184 -471h-67l-155 411l-154 -411h-67l-184 471h60l159 -412l155 412h64l155 -413z" />
    <glyph glyph-name="x" unicode="x" horiz-adv-x="503" 
d="M485 0h-70l-165 199l-165 -199h-67l196 241l-189 230h70l158 -191l158 191h68l-190 -230z" />
    <glyph glyph-name="y" unicode="y" horiz-adv-x="514" 
d="M53 -202l180 307l-221 366h64l190 -310l177 310h63l-390 -673h-63z" />
    <glyph glyph-name="z" unicode="z" horiz-adv-x="533" 
d="M140 52h330v-52h-406v42l328 377h-318v52h392v-42z" />
    <glyph glyph-name="braceleft" unicode="{" horiz-adv-x="420" 
d="M345 647q-54 0 -84 -31.5t-27 -95.5l4 -75q4 -65 -22.5 -105t-78.5 -55q52 -15 78.5 -56t22.5 -105l-4 -74q-3 -64 27 -96t84 -32h33v-53h-33q-84 0 -129 48t-40 139l4 75q3 64 -28.5 95.5t-88.5 31.5v53q57 0 88.5 32t28.5 96l-4 75q-5 90 40 138t129 48h33v-53h-33v0v0
z" />
    <glyph glyph-name="bar" unicode="|" horiz-adv-x="351" 
d="M147 -133v833h57v-833h-57z" />
    <glyph glyph-name="braceright" unicode="}" horiz-adv-x="420" 
d="M75 -78q54 0 84 32t27 96l-4 74q-4 64 22.5 105t78.5 56q-52 15 -78.5 55t-22.5 105l4 75q3 64 -27 95.5t-84 31.5h-33v53h33q84 0 129 -48t40 -138l-4 -75q-3 -64 28.5 -96t88.5 -32v-53q-57 0 -88.5 -31.5t-28.5 -95.5l4 -75q5 -91 -40 -139t-129 -48h-33v53h33v0v0z
" />
    <glyph glyph-name="asciitilde" unicode="~" 
d="M518 274q-26 -29 -56 -43t-71 -14q-31 0 -52.5 6t-48.5 18q-23 10 -41.5 15.5t-43.5 5.5q-27 0 -48 -10.5t-44 -33.5l-32 36q27 29 57 43t70 14q31 0 53 -6t49 -18q24 -11 42 -16t43 -5q27 0 48 10.5t44 33.5l31 -36v0v0z" />
    <glyph glyph-name="exclamdown" unicode="&#xa1;" horiz-adv-x="260" 
d="M130 382q-19 0 -33.5 14t-14.5 33t14.5 34t33.5 15t33.5 -14.5t14.5 -34.5q0 -19 -14.5 -33t-33.5 -14v0v0zM156 253l9 -483h-69l9 483h51z" />
    <glyph glyph-name="cent" unicode="&#xa2;" horiz-adv-x="700" 
d="M346 110q-61 9 -108.5 42t-73.5 84.5t-26 113.5t26 113.5t73.5 84.5t108.5 42v110h53v-108q49 -2 91.5 -21t73.5 -51l-34 -37q-55 52 -131 58v-381q76 4 133 58l32 -37q-32 -33 -74 -52t-91 -21v-108h-53v110v0v0zM346 538q-67 -13 -109.5 -64.5t-42.5 -123.5t42 -123
t110 -64v375v0v0z" />
    <glyph glyph-name="sterling" unicode="&#xa3;" horiz-adv-x="700" 
d="M95 56h94v268h-94v52h94v86q0 79 30 134.5t81.5 83.5t114.5 28q56 0 102.5 -22t78.5 -65l-44 -37q-24 34 -59 51t-78 17q-75 0 -121.5 -49.5t-46.5 -145.5v-81h273v-52h-273v-268h358v-56h-510v56v0v0z" />
    <glyph glyph-name="currency" unicode="&#xa4;" horiz-adv-x="700" 
d="M219 516q57 46 132 46t132 -46l72 72l34 -34l-72 -72q47 -58 47 -132q0 -73 -47 -133l72 -71l-34 -34l-72 72q-57 -46 -132 -46q-74 0 -133 46l-71 -72l-34 34l72 71q-46 59 -46 133q0 75 46 132l-72 72l33 34l73 -72v0v0zM351 185q45 0 83 22t60 60t22 83t-22 83t-60 60
t-83 22t-83 -22t-60 -60t-22 -83t22 -83t60 -60t83 -22v0v0z" />
    <glyph glyph-name="yen" unicode="&#xa5;" horiz-adv-x="700" 
d="M382 169v-169h-59v169h-205v48h205v110h-205v47h179l-238 326h70l223 -308l221 308h69l-235 -326h179v-47h-204v-110h204v-48h-204z" />
    <glyph glyph-name="brokenbar" unicode="&#xa6;" horiz-adv-x="351" 
d="M147 353v347h57v-347h-57zM147 -133v348h57v-348h-57z" />
    <glyph glyph-name="section" unicode="&#xa7;" horiz-adv-x="655" 
d="M322 -143q-72 0 -137 22.5t-110 57.5l30 46q40 -31 96 -52t121 -21q84 0 136.5 30t53.5 88q0 44 -43.5 69.5t-118.5 33.5l-71 7q-86 9 -137 47.5t-51 105.5q0 41 21 73t60 54q-71 40 -71 119q0 52 31 91t84 59.5t119 20.5q67 0 124.5 -19.5t101.5 -52.5l-28 -46
q-39 28 -90 46t-107 18q-78 0 -127.5 -30.5t-49.5 -83.5q0 -88 159 -104l67 -6q85 -8 140 -46t55 -106q0 -43 -22 -75.5t-61 -53.5q73 -41 73 -117q0 -84 -70.5 -129.5t-177.5 -45.5v0v0zM443 170q37 15 58 41t21 62q0 45 -43.5 71t-117.5 33q-66 6 -91 9.5t-45 9.5
q-36 -14 -56 -40.5t-20 -61.5q0 -86 158 -103q16 -2 23 -2q57 -6 73.5 -9t39.5 -10v0v0z" />
    <glyph glyph-name="dieresis" unicode="&#xa8;" horiz-adv-x="457" 
d="M126 655q17 0 29 -12t12 -29t-12 -29t-29 -12t-28.5 12t-11.5 29t11.5 29t28.5 12v0v0zM331 655q17 0 29 -12t12 -29t-12 -29t-29 -12t-29 12t-12 29t12 29t29 12v0v0z" />
    <glyph glyph-name="copyright" unicode="&#xa9;" horiz-adv-x="949" 
d="M475 750q108 0 200 -53.5t145.5 -144.5t53.5 -199t-54 -199.5t-145.5 -145t-199.5 -53.5q-109 0 -200.5 53.5t-145 145t-53.5 199.5t53.5 199t145 144.5t200.5 53.5v0v0zM475 700q-94 0 -174 -46.5t-126.5 -126.5t-46.5 -174t46.5 -174t126.5 -126.5t174 -46.5t174 46.5
t126.5 126.5t46.5 174t-46.5 174t-126.5 126.5t-174 46.5v0v0zM613 450q-20 31 -54 48.5t-74 17.5q-43 0 -79 -20.5t-57 -58t-21 -84.5q0 -49 21 -86t57.5 -57t79.5 -20q39 0 73 17.5t55 48.5l40 -31q-27 -40 -71 -62.5t-97 -22.5q-59 0 -107.5 27t-76 76t-27.5 110
t27.5 110t76 76t107.5 27q53 0 98 -23t71 -64l-42 -29v0v0z" />
    <glyph glyph-name="ordfeminine" unicode="&#xaa;" horiz-adv-x="391" 
d="M186 649q66 0 104 -33.5t38 -101.5v-197h-46v50q-51 -55 -124 -55q-53 0 -84.5 27t-31.5 71t35.5 69.5t100.5 25.5h103q0 102 -100 102q-58 0 -102 -37l-19 36q53 43 126 43v0v0zM169 351q34 0 62.5 15t49.5 40v66h-96q-47 0 -70 -17t-23 -44q0 -26 20.5 -43t56.5 -17v0
v0z" />
    <glyph glyph-name="logicalnot" unicode="&#xac;" 
d="M460 79v159h-373v51h426v-210h-53z" />
    <glyph glyph-name="registered" unicode="&#xae;" horiz-adv-x="440" 
d="M221 716q53 0 97.5 -26t70.5 -70t26 -96t-26 -95.5t-70.5 -69.5t-97.5 -26q-54 0 -99 26t-71 69.5t-26 95.5t26 96t71 70t99 26v0v0zM221 367q42 0 78 21t57 57t21 79t-21 79t-56.5 57t-78.5 21t-79 -21t-57 -57t-21 -79t21 -79t57 -57t79 -21v0v0zM233 617
q33 0 52 -15.5t19 -41.5q0 -23 -16.5 -37.5t-44.5 -17.5l62 -72h-38l-59 72h-25v-72h-31v184h81v0v0zM232 531q18 0 29 7.5t11 21.5t-11 22t-29 8h-49v-59h49v0v0z" />
    <glyph glyph-name="macron" unicode="&#xaf;" horiz-adv-x="452" 
d="M373 637v-47h-293v47h293z" />
    <glyph glyph-name="degree" unicode="&#xb0;" horiz-adv-x="384" 
d="M192 377q-45 0 -83.5 22.5t-61 60.5t-22.5 83t22.5 83t61 60t83.5 22t83.5 -22t61 -60t22.5 -83t-22.5 -83t-61 -60.5t-83.5 -22.5v0v0zM192 423q49 0 83.5 35t34.5 85q0 49 -34.5 83.5t-83.5 34.5t-83.5 -34.5t-34.5 -83.5q0 -50 34.5 -85t83.5 -35v0v0z" />
    <glyph glyph-name="plusminus" unicode="&#xb1;" 
d="M273 312h-186v52h186v180h52v-180h188v-52h-188v-163h-52v163zM87 36v52h426v-52h-426z" />
    <glyph glyph-name="uni00B2" unicode="&#xb2;" horiz-adv-x="329" 
d="M33 640q46 64 123 64q58 0 91 -32.5t33 -84.5q0 -32 -14 -58.5t-41 -53.5l-112 -114h180v-44h-248v37l146 148q40 38 40 82q0 33 -21 54t-58 21q-52 0 -88 -49l-31 30v0v0z" />
    <glyph glyph-name="uni00B3" unicode="&#xb3;" horiz-adv-x="329" 
d="M147 704q58 0 94 -28.5t36 -74.5q0 -34 -17.5 -57t-48.5 -34q34 -10 54 -33.5t20 -56.5q0 -52 -39.5 -79.5t-95.5 -27.5q-78 0 -124 49l27 31q39 -37 95 -37q38 0 63 17.5t25 50.5q0 30 -26 47.5t-64 17.5h-52v42h52q36 0 59 17.5t23 48.5q0 29 -23 46.5t-60 17.5
q-56 0 -89 -42l-29 30q45 55 120 55v0v0z" />
    <glyph glyph-name="acute" unicode="&#xb4;" horiz-adv-x="452" 
d="M245 691h72l-125 -150h-57z" />
    <glyph glyph-name="paragraph" unicode="&#xb6;" horiz-adv-x="559" 
d="M269 375q-92 0 -143 43t-51 119q0 77 51 120t142 43h46v-700h-45v375v0v0zM367 700h45v-700h-45v700z" />
    <glyph glyph-name="periodcentered" unicode="&#xb7;" horiz-adv-x="375" 
d="M188 312q19 0 33 -14.5t14 -33.5t-14 -33.5t-33 -14.5t-33.5 14.5t-14.5 33.5q0 20 14.5 34t33.5 14v0v0z" />
    <glyph glyph-name="cedilla" unicode="&#xb8;" horiz-adv-x="487" 
d="M188 -162l54 165h57l-51 -165h-60z" />
    <glyph glyph-name="uni00B9" unicode="&#xb9;" horiz-adv-x="271" 
d="M142 317v321l-116 -48v47l163 67v-387h-47z" />
    <glyph glyph-name="ordmasculine" unicode="&#xba;" horiz-adv-x="425" 
d="M212 649q48 0 87 -22t61.5 -60.5t22.5 -85.5q0 -48 -22.5 -86.5t-61.5 -60.5t-87 -22t-87 22t-61 60.5t-22 86.5q0 47 22 85.5t61 60.5t87 22v0v0zM212 605q-52 0 -86.5 -35.5t-34.5 -88.5q0 -54 34.5 -89.5t86.5 -35.5q53 0 88 35.5t35 89.5q0 53 -35 88.5t-88 35.5v0v0
z" />
    <glyph glyph-name="onequarter" unicode="&#xbc;" horiz-adv-x="791" 
d="M142 638l-116 -48v47l163 67v-387h-47v321zM578 700h58l-442 -700h-57zM659 79h-182v34l137 269h52l-133 -260h126v89l10 20h38v-109h64v-43h-64v-79h-48v79z" />
    <glyph glyph-name="onehalf" unicode="&#xbd;" horiz-adv-x="820" 
d="M525 323q44 64 123 64q57 0 90 -32.5t33 -84.5q0 -33 -14 -59.5t-41 -52.5l-112 -114h181v-44h-248v37l146 148q40 40 40 82q0 33 -21 54t-58 21q-54 0 -88 -49l-31 30v0v0zM142 317v321l-116 -48v47l163 67v-387h-47zM137 0l441 700h58l-442 -700h-57z" />
    <glyph glyph-name="threequarters" unicode="&#xbe;" horiz-adv-x="839" 
d="M147 704q58 0 94 -28.5t36 -74.5q0 -34 -17.5 -57t-48.5 -34q34 -10 54 -33.5t20 -56.5q0 -52 -39.5 -79.5t-95.5 -27.5q-78 0 -124 49l27 31q39 -37 95 -37q38 0 63 17.5t25 50.5q0 30 -26 47.5t-64 17.5h-52v42h52q36 0 59 17.5t23 48.5q0 29 -23 46.5t-60 17.5
q-56 0 -89 -42l-29 30q45 55 120 55v0v0zM185 0l441 700h58l-442 -700h-57zM818 122v-43h-64v-79h-47v79h-183v34l137 269h52l-133 -260h127v89l16 20h31v-109h64z" />
    <glyph glyph-name="questiondown" unicode="&#xbf;" horiz-adv-x="424" 
d="M288 382q-19 0 -33.5 14.5t-14.5 33.5t14.5 33.5t33.5 14.5q20 0 34 -14t14 -34q0 -19 -14 -33.5t-34 -14.5v0v0zM290 98q-89 0 -140.5 -37.5t-51.5 -104.5q0 -62 52 -99t136 -37q26 0 62 4l5 -58q-33 -5 -70 -5q-74 0 -130 24t-87 67.5t-31 101.5q0 85 58.5 137
t164.5 61l4 101h52v-155h-24v0v0z" />
    <glyph glyph-name="Agrave" unicode="&#xc0;" horiz-adv-x="703" 
d="M303 899l110 -150h-56l-126 150h72zM618 0l-85 205h-364l-85 -205h-64l294 700h75l294 -700h-65zM508 263l-157 378l-158 -378h315z" />
    <glyph glyph-name="Aacute" unicode="&#xc1;" horiz-adv-x="703" 
d="M396 899h72l-125 -150h-57zM618 0l-85 205h-364l-85 -205h-64l294 700h75l294 -700h-65zM508 263l-157 378l-158 -378h315z" />
    <glyph glyph-name="Acircumflex" unicode="&#xc2;" horiz-adv-x="703" 
d="M352 854l-100 -102h-62l124 141h75l124 -141h-61zM618 0l-85 205h-364l-85 -205h-64l294 700h75l294 -700h-65zM508 263l-157 378l-158 -378h315z" />
    <glyph glyph-name="Atilde" unicode="&#xc3;" horiz-adv-x="703" 
d="M182 816q21 28 45 41.5t58 13.5q24 0 41 -6t38 -18q16 -10 28 -14.5t26 -4.5q20 0 36.5 9.5t32.5 29.5l35 -33q-22 -28 -46.5 -41.5t-57.5 -13.5q-24 0 -40 6t-38 18q-16 10 -28 14.5t-27 4.5q-20 0 -36.5 -9.5t-32.5 -28.5l-34 32v0v0zM618 0l-85 205h-364l-85 -205h-64
l294 700h75l294 -700h-65zM508 263l-157 378l-158 -378h315z" />
    <glyph glyph-name="Adieresis" unicode="&#xc4;" horiz-adv-x="703" 
d="M249 863q17 0 29 -12.5t12 -29.5t-12 -28.5t-29 -11.5t-28.5 11.5t-11.5 28.5t11.5 29.5t28.5 12.5v0v0zM454 863q17 0 29 -12.5t12 -29.5t-12 -28.5t-29 -11.5t-29 11.5t-12 28.5t12 29.5t29 12.5v0v0zM618 0l-85 205h-364l-85 -205h-64l294 700h75l294 -700h-65z
M508 263l-157 378l-158 -378h315z" />
    <glyph glyph-name="Aring" unicode="&#xc5;" horiz-adv-x="703" 
d="M352 741q-44 0 -76 31t-32 75t32 75.5t76 31.5t75.5 -31.5t31.5 -75.5t-31.5 -75t-75.5 -31v0v0zM352 777q29 0 49 20.5t20 49.5t-20 49.5t-49 20.5t-49 -20.5t-20 -49.5t20 -49.5t49 -20.5v0v0zM618 0l-85 205h-364l-85 -205h-64l294 700h75l294 -700h-65zM508 263
l-157 378l-158 -378h315z" />
    <glyph glyph-name="AE" unicode="&#xc6;" horiz-adv-x="1133" 
d="M567 0v195h-329l-148 -195h-74l534 700h495v-57h-417v-262h405v-57h-405v-266h421v-58h-482zM567 627l-285 -374h285v374z" />
    <glyph glyph-name="Ccedilla" unicode="&#xc7;" horiz-adv-x="764" 
d="M422 708q90 0 165.5 -38.5t117.5 -105.5l-51 -34q-37 56 -98 87.5t-134 31.5q-83 0 -150 -37.5t-106 -105.5t-39 -156q0 -87 39 -155t106 -106t150 -38q73 0 134 31.5t97 87.5l50 -36q-40 -60 -105 -97t-144 -44l-49 -155h-62l51 155q-94 6 -169.5 53t-118.5 126.5
t-43 177.5q0 103 47 184.5t128.5 127.5t183.5 46v0v0z" />
    <glyph glyph-name="Egrave" unicode="&#xc8;" horiz-adv-x="671" 
d="M292 899l110 -150h-56l-126 150h72zM105 0v700h478v-57h-417v-262h405v-57h-405v-266h421v-58h-482z" />
    <glyph glyph-name="Eacute" unicode="&#xc9;" horiz-adv-x="671" 
d="M385 899h72l-125 -150h-57zM105 0v700h478v-57h-417v-262h405v-57h-405v-266h421v-58h-482z" />
    <glyph glyph-name="Ecircumflex" unicode="&#xca;" horiz-adv-x="671" 
d="M341 854l-100 -102h-62l124 141h75l124 -141h-61zM105 0v700h478v-57h-417v-262h405v-57h-405v-266h421v-58h-482z" />
    <glyph glyph-name="Edieresis" unicode="&#xcb;" horiz-adv-x="671" 
d="M238 863q17 0 29 -12.5t12 -29.5t-12 -28.5t-29 -11.5t-28.5 11.5t-11.5 28.5t11.5 29.5t28.5 12.5v0v0zM443 863q17 0 29 -12.5t12 -29.5t-12 -28.5t-29 -11.5t-29 11.5t-12 28.5t12 29.5t29 12.5v0v0zM105 0v700h478v-57h-417v-262h405v-57h-405v-266h421v-58h-482z
" />
    <glyph glyph-name="Igrave" unicode="&#xcc;" horiz-adv-x="271" 
d="M87 899l110 -150h-57l-125 150h72zM105 0v700h61v-700h-61z" />
    <glyph glyph-name="Iacute" unicode="&#xcd;" horiz-adv-x="271" 
d="M180 899h72l-126 -150h-56zM105 0v700h61v-700h-61z" />
    <glyph glyph-name="Icircumflex" unicode="&#xce;" horiz-adv-x="271" 
d="M135 854l-100 -102h-62l125 141h75l124 -141h-62zM105 0v700h61v-700h-61z" />
    <glyph glyph-name="Idieresis" unicode="&#xcf;" horiz-adv-x="271" 
d="M33 863q17 0 29 -12.5t12 -29.5t-12 -28.5t-29 -11.5t-29 11.5t-12 28.5t12 29.5t29 12.5v0v0zM237 863q17 0 29.5 -12.5t12.5 -29.5t-12.5 -28.5t-29.5 -11.5t-28.5 11.5t-11.5 28.5t11.5 29.5t28.5 12.5v0v0zM105 0v700h61v-700h-61z" />
    <glyph glyph-name="Eth" unicode="&#xd0;" horiz-adv-x="888" 
d="M447 700q116 0 201 -42.5t131 -121.5t46 -186t-46 -186t-131 -121.5t-201 -42.5h-256v324h-128v58h128v318h256v0v0zM252 58h195q100 0 170.5 36t107 101.5t36.5 154.5q0 135 -82 213.5t-232 78.5h-195v-260h210v-58h-210v-266v0v0z" />
    <glyph glyph-name="Ntilde" unicode="&#xd1;" horiz-adv-x="785" 
d="M222 816q21 28 45.5 41.5t57.5 13.5q24 0 40.5 -6t38.5 -18q16 -10 28 -14.5t27 -4.5q20 0 36.5 9.5t32.5 29.5l34 -33q-22 -28 -46 -41.5t-57 -13.5q-24 0 -41.5 6t-36.5 18q-16 10 -28.5 14.5t-27.5 4.5q-20 0 -36 -9t-33 -29l-34 32v0v0zM625 0l-459 595v-595h-61v700
h55l459 -595v595h61v-700h-55z" />
    <glyph glyph-name="Ograve" unicode="&#xd2;" horiz-adv-x="843" 
d="M422 708q101 0 183 -46t128.5 -127.5t46.5 -184.5t-46.5 -184.5t-128.5 -127.5t-183 -46q-102 0 -183.5 46t-128.5 127.5t-47 184.5t47 184.5t128.5 127.5t183.5 46v0v0zM422 649q-83 0 -150 -37.5t-106 -105.5t-39 -156q0 -87 39 -155t106 -106t150 -38q82 0 149 38
t106 106t39 155q0 88 -39 156t-106 105.5t-149 37.5v0v0zM373 899l110 -150h-56l-126 150h72z" />
    <glyph glyph-name="Oacute" unicode="&#xd3;" horiz-adv-x="843" 
d="M422 708q101 0 183 -46t128.5 -127.5t46.5 -184.5t-46.5 -184.5t-128.5 -127.5t-183 -46q-102 0 -183.5 46t-128.5 127.5t-47 184.5t47 184.5t128.5 127.5t183.5 46v0v0zM422 649q-83 0 -150 -37.5t-106 -105.5t-39 -156q0 -87 39 -155t106 -106t150 -38q82 0 149 38
t106 106t39 155q0 88 -39 156t-106 105.5t-149 37.5v0v0zM466 899h72l-125 -150h-57z" />
    <glyph glyph-name="Ocircumflex" unicode="&#xd4;" horiz-adv-x="843" 
d="M422 708q101 0 183 -46t128.5 -127.5t46.5 -184.5t-46.5 -184.5t-128.5 -127.5t-183 -46q-102 0 -183.5 46t-128.5 127.5t-47 184.5t47 184.5t128.5 127.5t183.5 46v0v0zM422 649q-83 0 -150 -37.5t-106 -105.5t-39 -156q0 -87 39 -155t106 -106t150 -38q82 0 149 38
t106 106t39 155q0 88 -39 156t-106 105.5t-149 37.5v0v0zM422 854l-100 -102h-62l124 141h75l124 -141h-61z" />
    <glyph glyph-name="Otilde" unicode="&#xd5;" horiz-adv-x="843" 
d="M252 816q21 28 45 41.5t58 13.5q24 0 41 -6t38 -18q16 -10 28 -14.5t26 -4.5q20 0 36.5 9.5t32.5 29.5l35 -33q-22 -28 -46.5 -41.5t-57.5 -13.5q-24 0 -40 6t-38 18q-16 10 -28 14.5t-27 4.5q-20 0 -36.5 -9.5t-32.5 -28.5l-34 32v0v0zM422 708q101 0 183 -46
t128.5 -127.5t46.5 -184.5t-46.5 -184.5t-128.5 -127.5t-183 -46q-102 0 -183.5 46t-128.5 127.5t-47 184.5t47 184.5t128.5 127.5t183.5 46v0v0zM422 649q-83 0 -150 -37.5t-106 -105.5t-39 -156q0 -87 39 -155t106 -106t150 -38q82 0 149 38t106 106t39 155q0 88 -39 156
t-106 105.5t-149 37.5v0v0z" />
    <glyph glyph-name="Odieresis" unicode="&#xd6;" horiz-adv-x="843" 
d="M319 863q17 0 29 -12.5t12 -29.5t-12 -28.5t-29 -11.5t-28.5 11.5t-11.5 28.5t11.5 29.5t28.5 12.5v0v0zM524 863q17 0 29 -12.5t12 -29.5t-12 -28.5t-29 -11.5t-29 11.5t-12 28.5t12 29.5t29 12.5v0v0zM422 708q101 0 183 -46t128.5 -127.5t46.5 -184.5t-46.5 -184.5
t-128.5 -127.5t-183 -46q-102 0 -183.5 46t-128.5 127.5t-47 184.5t47 184.5t128.5 127.5t183.5 46v0v0zM422 649q-83 0 -150 -37.5t-106 -105.5t-39 -156q0 -87 39 -155t106 -106t150 -38q82 0 149 38t106 106t39 155q0 88 -39 156t-106 105.5t-149 37.5v0v0z" />
    <glyph glyph-name="multiply" unicode="&#xd7;" 
d="M262 263l-149 149l38 38l149 -149l150 150l37 -37l-150 -150l150 -151l-37 -37l-151 150l-148 -148l-37 37z" />
    <glyph glyph-name="Oslash" unicode="&#xd8;" horiz-adv-x="843" 
d="M422 708q68 0 128 -21t107 -61l82 82l40 -41l-81 -81q40 -46 61 -106t21 -130q0 -103 -46.5 -184.5t-128.5 -127.5t-183 -46q-68 0 -128.5 21.5t-107.5 60.5l-81 -81l-41 40l81 81q-39 48 -60.5 108t-21.5 128q0 103 47 184.5t128.5 127.5t183.5 46v0v0zM422 649
q-83 0 -150 -37.5t-106 -105.5t-39 -156q0 -112 63 -191l423 423q-39 33 -87.5 50t-103.5 17v0v0zM716 350q0 112 -63 191l-424 -423q81 -67 193 -67q82 0 149 38t106 106t39 155v0v0z" />
    <glyph glyph-name="Ugrave" unicode="&#xd9;" horiz-adv-x="755" 
d="M661 273q0 -90 -37.5 -153.5t-102 -95.5t-144.5 -32t-144.5 32t-101.5 95t-37 154v427h61v-423q0 -111 61.5 -168.5t160.5 -57.5q100 0 161 57.5t61 168.5v423h62v-427v0v0zM329 899l110 -150h-57l-125 150h72z" />
    <glyph glyph-name="Uacute" unicode="&#xda;" horiz-adv-x="755" 
d="M661 273q0 -90 -37.5 -153.5t-102 -95.5t-144.5 -32t-144.5 32t-101.5 95t-37 154v427h61v-423q0 -111 61.5 -168.5t160.5 -57.5q100 0 161 57.5t61 168.5v423h62v-427v0v0zM422 899h72l-126 -150h-56z" />
    <glyph glyph-name="Ucircumflex" unicode="&#xdb;" horiz-adv-x="755" 
d="M661 273q0 -90 -37.5 -153.5t-102 -95.5t-144.5 -32t-144.5 32t-101.5 95t-37 154v427h61v-423q0 -111 61.5 -168.5t160.5 -57.5q100 0 161 57.5t61 168.5v423h62v-427v0v0zM377 854l-100 -102h-61l124 141h75l124 -141h-62z" />
    <glyph glyph-name="Udieresis" unicode="&#xdc;" horiz-adv-x="755" 
d="M275 863q17 0 29 -12.5t12 -29.5t-12 -28.5t-29 -11.5t-29 11.5t-12 28.5t12 29.5t29 12.5v0v0zM479 863q17 0 29.5 -12.5t12.5 -29.5t-12.5 -28.5t-29.5 -11.5t-28.5 11.5t-11.5 28.5t11.5 29.5t28.5 12.5v0v0zM661 273q0 -90 -37.5 -153.5t-102 -95.5t-144.5 -32
t-144.5 32t-101.5 95t-37 154v427h61v-423q0 -111 61.5 -168.5t160.5 -57.5q100 0 161 57.5t61 168.5v423h62v-427v0v0z" />
    <glyph glyph-name="Yacute" unicode="&#xdd;" horiz-adv-x="632" 
d="M361 899h72l-125 -150h-57zM347 0h-61v301l-280 399h73l238 -342l237 342h72l-279 -400v-300z" />
    <glyph glyph-name="Thorn" unicode="&#xde;" horiz-adv-x="666" 
d="M365 565q116 0 181.5 -54.5t65.5 -152.5t-65.5 -153t-181.5 -55h-199v-150h-61v700h61v-135h199v0v0zM363 208q89 0 137.5 38.5t48.5 111.5t-48.5 111.5t-137.5 38.5h-197v-300h197v0v0z" />
    <glyph glyph-name="germandbls" unicode="&#xdf;" horiz-adv-x="608" 
d="M87 510q0 97 59 157.5t165 60.5q62 0 113.5 -23.5t81 -66.5t29.5 -99q0 -64 -32.5 -108t-84.5 -62q59 -16 98 -63.5t39 -112.5q0 -61 -27.5 -106.5t-74 -70t-103.5 -24.5q-38 0 -67 6.5t-56 18.5l14 52q44 -23 100 -23q70 0 113 39t43 110q0 68 -48 106t-127 38h-36v52
h24q73 0 120 34t47 106q0 68 -47.5 105.5t-119.5 37.5q-76 0 -121 -45t-45 -123v-506h-57v510v0v0z" />
    <glyph glyph-name="agrave" unicode="&#xe0;" horiz-adv-x="622" 
d="M475 91q-30 -46 -77 -72.5t-109 -26.5q-65 0 -119 31.5t-85 87t-31 124.5t31 124.5t85 87t119 31.5q62 0 109 -26t77 -72v91h57v-471h-57v91v0v0zM295 425q-53 0 -94.5 -25t-65 -68.5t-23.5 -96.5t23.5 -96t65.5 -68t94 -25q53 0 94.5 24.5t65 68t23.5 96.5t-23.5 96.5
t-65 68.5t-94.5 25v0v0zM246 691l110 -150h-56l-126 150h72z" />
    <glyph glyph-name="aacute" unicode="&#xe1;" horiz-adv-x="622" 
d="M475 91q-30 -46 -77 -72.5t-109 -26.5q-65 0 -119 31.5t-85 87t-31 124.5t31 124.5t85 87t119 31.5q62 0 109 -26t77 -72v91h57v-471h-57v91v0v0zM295 425q-53 0 -94.5 -25t-65 -68.5t-23.5 -96.5t23.5 -96t65.5 -68t94 -25q53 0 94.5 24.5t65 68t23.5 96.5t-23.5 96.5
t-65 68.5t-94.5 25v0v0zM354 691h72l-125 -150h-57z" />
    <glyph glyph-name="acircumflex" unicode="&#xe2;" horiz-adv-x="622" 
d="M475 91q-30 -46 -77 -72.5t-109 -26.5q-65 0 -119 31.5t-85 87t-31 124.5t31 124.5t85 87t119 31.5q62 0 109 -26t77 -72v91h57v-471h-57v91v0v0zM295 425q-53 0 -94.5 -25t-65 -68.5t-23.5 -96.5t23.5 -96t65.5 -68t94 -25q53 0 94.5 24.5t65 68t23.5 96.5t-23.5 96.5
t-65 68.5t-94.5 25v0v0zM303 647l-100 -103h-61l124 141h75l124 -141h-62z" />
    <glyph glyph-name="atilde" unicode="&#xe3;" horiz-adv-x="622" 
d="M139 609q21 28 45.5 41.5t57.5 13.5q24 0 41 -6t38 -18q16 -10 28 -14.5t26 -4.5q20 0 36.5 9.5t32.5 28.5l35 -32q-22 -29 -46 -42.5t-58 -13.5q-24 0 -41 6.5t-37 18.5q-16 10 -28 14.5t-27 4.5q-20 0 -36.5 -9.5t-32.5 -29.5l-34 33v0v0zM475 91q-30 -46 -77 -72.5
t-109 -26.5q-65 0 -119 31.5t-85 87t-31 124.5t31 124.5t85 87t119 31.5q62 0 109 -26t77 -72v91h57v-471h-57v91v0v0zM295 425q-53 0 -94.5 -25t-65 -68.5t-23.5 -96.5t23.5 -96t65.5 -68t94 -25q53 0 94.5 24.5t65 68t23.5 96.5t-23.5 96.5t-65 68.5t-94.5 25v0v0z" />
    <glyph glyph-name="adieresis" unicode="&#xe4;" horiz-adv-x="622" 
d="M201 655q17 0 29 -12t12 -29t-12 -29t-29 -12t-29 12t-12 29t12 29t29 12v0v0zM405 655q17 0 29.5 -12t12.5 -29t-12.5 -29t-29.5 -12t-28.5 12t-11.5 29t11.5 29t28.5 12v0v0zM475 91q-30 -46 -77 -72.5t-109 -26.5q-65 0 -119 31.5t-85 87t-31 124.5t31 124.5t85 87
t119 31.5q62 0 109 -26t77 -72v91h57v-471h-57v91v0v0zM295 425q-53 0 -94.5 -25t-65 -68.5t-23.5 -96.5t23.5 -96t65.5 -68t94 -25q53 0 94.5 24.5t65 68t23.5 96.5t-23.5 96.5t-65 68.5t-94.5 25v0v0z" />
    <glyph glyph-name="aring" unicode="&#xe5;" horiz-adv-x="622" 
d="M303 533q-44 0 -75.5 31.5t-31.5 75.5t31.5 75t75.5 31t76 -31.5t32 -74.5q0 -44 -32 -75.5t-76 -31.5v0v0zM303 570q29 0 49 20.5t20 49.5t-20 49t-49 20q-28 0 -48.5 -20t-20.5 -49t20 -49.5t49 -20.5v0v0zM475 91q-30 -46 -77 -72.5t-109 -26.5q-65 0 -119 31.5
t-85 87t-31 124.5t31 124.5t85 87t119 31.5q62 0 109 -26t77 -72v91h57v-471h-57v91v0v0zM295 425q-53 0 -94.5 -25t-65 -68.5t-23.5 -96.5t23.5 -96t65.5 -68t94 -25q53 0 94.5 24.5t65 68t23.5 96.5t-23.5 96.5t-65 68.5t-94.5 25v0v0z" />
    <glyph glyph-name="ae" unicode="&#xe6;" horiz-adv-x="910" 
d="M636 478q62 0 112 -30.5t79 -85.5t29 -124q0 -16 -1 -23h-394q7 -81 57.5 -127t124.5 -46q90 0 159 67l30 -39q-42 -42 -89.5 -60t-102.5 -18q-64 0 -115 26.5t-82 74.5q-35 -46 -88.5 -73.5t-119.5 -27.5q-83 0 -132 38t-49 99q0 62 50.5 98.5t144.5 36.5h154
q0 84 -36 123.5t-114 39.5q-79 0 -144 -50l-27 42q76 59 178 59q147 0 182 -115q28 53 80 84t114 31v0v0zM635 427q-70 0 -117 -45.5t-56 -117.5h336q-6 73 -51.5 118t-111.5 45v0v0zM244 43q51 0 99 25t78 68q-15 36 -18 80h-148q-72 0 -106 -23.5t-34 -63.5q0 -38 34 -62
t95 -24v0v0z" />
    <glyph glyph-name="ccedilla" unicode="&#xe7;" horiz-adv-x="512" 
d="M295 478q52 0 97 -19t76 -54l-37 -38q-58 58 -138 58q-51 0 -92.5 -24.5t-65 -68t-23.5 -97.5t23.5 -97t65 -67.5t92.5 -24.5q40 0 76 15.5t64 43.5l35 -39q-28 -31 -66 -49.5t-83 -22.5l-48 -156h-60l51 156q-61 7 -108.5 40t-73.5 85.5t-26 115.5q0 69 30.5 124.5
t85.5 87t125 31.5v0v0z" />
    <glyph glyph-name="egrave" unicode="&#xe8;" horiz-adv-x="561" 
d="M287 478q62 0 112 -30.5t79 -85.5t29 -124q0 -16 -1 -23h-394q6 -81 56.5 -127t125.5 -46q90 0 159 67l30 -39q-42 -42 -90 -60t-103 -18q-68 0 -121.5 31t-84 86.5t-30.5 125.5t30.5 125.5t83.5 86.5t119 31v0v0zM286 428q-71 0 -118 -45.5t-55 -118.5h336
q-6 73 -51.5 118.5t-111.5 45.5v0v0zM229 691l110 -150h-57l-125 150h72z" />
    <glyph glyph-name="eacute" unicode="&#xe9;" horiz-adv-x="561" 
d="M287 478q62 0 112 -30.5t79 -85.5t29 -124q0 -16 -1 -23h-394q6 -81 56.5 -127t125.5 -46q90 0 159 67l30 -39q-42 -42 -90 -60t-103 -18q-68 0 -121.5 31t-84 86.5t-30.5 125.5t30.5 125.5t83.5 86.5t119 31v0v0zM286 428q-71 0 -118 -45.5t-55 -118.5h336
q-6 73 -51.5 118.5t-111.5 45.5v0v0zM337 691h72l-126 -150h-56z" />
    <glyph glyph-name="ecircumflex" unicode="&#xea;" horiz-adv-x="561" 
d="M287 478q62 0 112 -30.5t79 -85.5t29 -124q0 -16 -1 -23h-394q6 -81 56.5 -127t125.5 -46q90 0 159 67l30 -39q-42 -42 -90 -60t-103 -18q-68 0 -121.5 31t-84 86.5t-30.5 125.5t30.5 125.5t83.5 86.5t119 31v0v0zM286 428q-71 0 -118 -45.5t-55 -118.5h336
q-6 73 -51.5 118.5t-111.5 45.5v0v0zM286 647l-100 -103h-62l124 141h75l124 -141h-61z" />
    <glyph glyph-name="edieresis" unicode="&#xeb;" horiz-adv-x="561" 
d="M183 655q17 0 29 -12t12 -29t-12 -29t-29 -12t-28.5 12t-11.5 29t11.5 29t28.5 12v0v0zM388 655q17 0 29 -12t12 -29t-12 -29t-29 -12t-29 12t-12 29t12 29t29 12v0v0zM287 478q62 0 112 -30.5t79 -85.5t29 -124q0 -16 -1 -23h-394q6 -81 56.5 -127t125.5 -46
q90 0 159 67l30 -39q-42 -42 -90 -60t-103 -18q-68 0 -121.5 31t-84 86.5t-30.5 125.5t30.5 125.5t83.5 86.5t119 31v0v0zM286 428q-71 0 -118 -45.5t-55 -118.5h336q-6 73 -51.5 118.5t-111.5 45.5v0v0z" />
    <glyph glyph-name="igrave" unicode="&#xec;" horiz-adv-x="239" 
d="M63 691l110 -150h-57l-126 150h73zM91 0v471h57v-471h-57z" />
    <glyph glyph-name="iacute" unicode="&#xed;" horiz-adv-x="239" 
d="M171 691h72l-126 -150h-56zM91 0v471h57v-471h-57z" />
    <glyph glyph-name="icircumflex" unicode="&#xee;" horiz-adv-x="239" 
d="M120 647l-100 -103h-62l124 141h75l124 -141h-61zM91 0v471h57v-471h-57z" />
    <glyph glyph-name="idieresis" unicode="&#xef;" horiz-adv-x="239" 
d="M17 655q17 0 29 -12t12 -29t-12 -29t-29 -12t-29 12t-12 29t12 29t29 12v0v0zM222 655q17 0 29 -12t12 -29t-12 -29t-29 -12t-29 12t-12 29t12 29t29 12v0v0zM91 0v471h57v-471h-57z" />
    <glyph glyph-name="eth" unicode="&#xf0;" horiz-adv-x="595" 
d="M352 614q84 -74 136.5 -172.5t52.5 -202.5q0 -69 -32 -125.5t-87.5 -89t-123.5 -32.5t-124 31.5t-88 86.5t-32 122t31 122t84 86.5t118 31.5q51 0 94 -20t73 -56q-46 106 -150 189l-130 -75l-21 35l115 67q-49 35 -118 67l26 46q74 -32 142 -84l124 72l21 -35l-111 -64v0
v0zM298 418q-52 0 -94.5 -24t-67 -66.5t-24.5 -95.5t24.5 -95.5t67 -66.5t94.5 -24t94.5 24t67 66.5t24.5 95.5t-24.5 95.5t-67 66.5t-94.5 24v0v0z" />
    <glyph glyph-name="ntilde" unicode="&#xf1;" horiz-adv-x="599" 
d="M143 609q21 28 45.5 41.5t57.5 13.5q24 0 41 -6t38 -18q16 -10 28 -14.5t26 -4.5q20 0 36.5 9.5t32.5 28.5l35 -32q-22 -29 -46 -42.5t-58 -13.5q-24 0 -41 6.5t-37 18.5q-16 10 -28 14.5t-27 4.5q-20 0 -36.5 -9.5t-32.5 -29.5l-34 33v0v0zM316 478q89 0 143.5 -51.5
t54.5 -137.5v-289h-57v271q0 72 -39.5 112.5t-111.5 40.5q-44 0 -80 -19.5t-57 -55t-21 -81.5v-268h-57v471h57v-83q27 45 71.5 67.5t96.5 22.5v0v0z" />
    <glyph glyph-name="ograve" unicode="&#xf2;" horiz-adv-x="596" 
d="M298 478q69 0 125 -31.5t88 -87.5t32 -124t-32 -123.5t-88 -87.5t-125 -32t-124.5 32t-87.5 87.5t-32 123.5q0 69 32 124.5t87.5 87t124.5 31.5v0v0zM298 425q-52 0 -94.5 -24.5t-67 -68t-24.5 -97.5t24.5 -97t67 -67.5t94.5 -24.5t94.5 24.5t67 67.5t24.5 97t-24.5 97.5
t-67 68t-94.5 24.5v0v0zM241 691l110 -150h-56l-126 150h72z" />
    <glyph glyph-name="oacute" unicode="&#xf3;" horiz-adv-x="596" 
d="M298 478q69 0 125 -31.5t88 -87.5t32 -124t-32 -123.5t-88 -87.5t-125 -32t-124.5 32t-87.5 87.5t-32 123.5q0 69 32 124.5t87.5 87t124.5 31.5v0v0zM298 425q-52 0 -94.5 -24.5t-67 -68t-24.5 -97.5t24.5 -97t67 -67.5t94.5 -24.5t94.5 24.5t67 67.5t24.5 97t-24.5 97.5
t-67 68t-94.5 24.5v0v0zM349 691h72l-125 -150h-57z" />
    <glyph glyph-name="ocircumflex" unicode="&#xf4;" horiz-adv-x="596" 
d="M298 478q69 0 125 -31.5t88 -87.5t32 -124t-32 -123.5t-88 -87.5t-125 -32t-124.5 32t-87.5 87.5t-32 123.5q0 69 32 124.5t87.5 87t124.5 31.5v0v0zM298 425q-52 0 -94.5 -24.5t-67 -68t-24.5 -97.5t24.5 -97t67 -67.5t94.5 -24.5t94.5 24.5t67 67.5t24.5 97t-24.5 97.5
t-67 68t-94.5 24.5v0v0zM298 647l-100 -103h-61l124 141h75l124 -141h-62z" />
    <glyph glyph-name="otilde" unicode="&#xf5;" horiz-adv-x="596" 
d="M134 609q21 28 45.5 41.5t57.5 13.5q24 0 41 -6t38 -18q16 -10 28 -14.5t26 -4.5q20 0 36.5 9.5t32.5 28.5l35 -32q-22 -29 -46 -42.5t-58 -13.5q-24 0 -41 6.5t-37 18.5q-16 10 -28 14.5t-27 4.5q-20 0 -36.5 -9.5t-32.5 -29.5l-34 33v0v0zM298 478q69 0 125 -31.5
t88 -87.5t32 -124t-32 -123.5t-88 -87.5t-125 -32t-124.5 32t-87.5 87.5t-32 123.5q0 69 32 124.5t87.5 87t124.5 31.5v0v0zM298 425q-52 0 -94.5 -24.5t-67 -68t-24.5 -97.5t24.5 -97t67 -67.5t94.5 -24.5t94.5 24.5t67 67.5t24.5 97t-24.5 97.5t-67 68t-94.5 24.5v0v0z
" />
    <glyph glyph-name="odieresis" unicode="&#xf6;" horiz-adv-x="596" 
d="M196 655q17 0 29 -12t12 -29t-12 -29t-29 -12t-29 12t-12 29t12 29t29 12v0v0zM400 655q17 0 29.5 -12t12.5 -29t-12.5 -29t-29.5 -12t-28.5 12t-11.5 29t11.5 29t28.5 12v0v0zM298 478q69 0 125 -31.5t88 -87.5t32 -124t-32 -123.5t-88 -87.5t-125 -32t-124.5 32
t-87.5 87.5t-32 123.5q0 69 32 124.5t87.5 87t124.5 31.5v0v0zM298 425q-52 0 -94.5 -24.5t-67 -68t-24.5 -97.5t24.5 -97t67 -67.5t94.5 -24.5t94.5 24.5t67 67.5t24.5 97t-24.5 97.5t-67 68t-94.5 24.5v0v0z" />
    <glyph glyph-name="divide" unicode="&#xf7;" 
d="M301 459q16 0 28 -12t12 -28t-12 -28t-28 -12t-28.5 12t-12.5 28t12 28t29 12v0v0zM301 148q16 0 28 -12t12 -28t-12 -28t-28 -12t-28.5 12t-12.5 28t12 28t29 12v0v0zM87 238v51h426v-51h-426z" />
    <glyph glyph-name="oslash" unicode="&#xf8;" horiz-adv-x="596" 
d="M298 478q89 0 156 -53l58 58l35 -34l-59 -58q26 -32 40.5 -72t14.5 -84q0 -68 -32 -123.5t-88 -87.5t-125 -32q-89 0 -156 53l-57 -58l-35 34l58 58q-54 67 -54 156q0 69 32 124.5t87.5 87t124.5 31.5v0v0zM298 425q-52 0 -94.5 -24.5t-67 -68t-24.5 -97.5q0 -66 36 -115
l266 266q-24 18 -54 28.5t-62 10.5v0v0zM484 235q0 66 -36 116l-266 -266q50 -39 116 -39q52 0 94.5 24.5t67 67.5t24.5 97v0v0z" />
    <glyph glyph-name="ugrave" unicode="&#xf9;" horiz-adv-x="593" 
d="M508 195q0 -65 -28 -110.5t-76 -69t-107 -23.5t-107 23.5t-76 69t-28 110.5v276h57v-271q0 -74 42 -114t112 -40t112 40t42 114v271h57v-276v0v0zM240 691l110 -150h-57l-125 150h72z" />
    <glyph glyph-name="uacute" unicode="&#xfa;" horiz-adv-x="593" 
d="M508 195q0 -65 -28 -110.5t-76 -69t-107 -23.5t-107 23.5t-76 69t-28 110.5v276h57v-271q0 -74 42 -114t112 -40t112 40t42 114v271h57v-276v0v0zM348 691h72l-126 -150h-56z" />
    <glyph glyph-name="ucircumflex" unicode="&#xfb;" horiz-adv-x="593" 
d="M508 195q0 -65 -28 -110.5t-76 -69t-107 -23.5t-107 23.5t-76 69t-28 110.5v276h57v-271q0 -74 42 -114t112 -40t112 40t42 114v271h57v-276v0v0zM297 647l-100 -103h-62l124 141h75l124 -141h-61z" />
    <glyph glyph-name="udieresis" unicode="&#xfc;" horiz-adv-x="593" 
d="M194 655q17 0 29 -12t12 -29t-12 -29t-29 -12t-28.5 12t-11.5 29t11.5 29t28.5 12v0v0zM399 655q17 0 29 -12t12 -29t-12 -29t-29 -12t-29 12t-12 29t12 29t29 12v0v0zM508 195q0 -65 -28 -110.5t-76 -69t-107 -23.5t-107 23.5t-76 69t-28 110.5v276h57v-271
q0 -74 42 -114t112 -40t112 40t42 114v271h57v-276v0v0z" />
    <glyph glyph-name="yacute" unicode="&#xfd;" horiz-adv-x="514" 
d="M311 691h72l-126 -150h-56zM53 -202l180 307l-221 366h64l190 -310l177 310h63l-390 -673h-63z" />
    <glyph glyph-name="thorn" unicode="&#xfe;" horiz-adv-x="623" 
d="M334 478q65 0 119 -31.5t85 -87t31 -124.5t-31 -124.5t-85 -87t-119 -31.5q-62 0 -109 26t-77 72v-290h-57v920h57v-339q30 45 77 71t109 26v0v0zM327 425q-52 0 -94 -25t-65.5 -68.5t-23.5 -96.5t23.5 -96.5t65.5 -68t94 -24.5q53 0 95 25t65.5 68t23.5 96t-23.5 96.5
t-65.5 68.5t-95 25v0v0z" />
    <glyph glyph-name="ydieresis" unicode="&#xff;" horiz-adv-x="514" 
d="M157 655q17 0 29 -12t12 -29t-12 -29t-29 -12t-28.5 12t-11.5 29t11.5 29t28.5 12v0v0zM362 655q17 0 29 -12t12 -29t-12 -29t-29 -12t-29 12t-12 29t12 29t29 12v0v0zM53 -202l180 307l-221 366h64l190 -310l177 310h63l-390 -673h-63z" />
    <glyph glyph-name="Amacron" unicode="&#x100;" horiz-adv-x="703" 
d="M498 844v-46h-292v46h292zM618 0l-85 205h-364l-85 -205h-64l294 700h75l294 -700h-65zM508 263l-157 378l-158 -378h315z" />
    <glyph glyph-name="amacron" unicode="&#x101;" horiz-adv-x="622" 
d="M475 91q-30 -46 -77 -72.5t-109 -26.5q-65 0 -119 31.5t-85 87t-31 124.5t31 124.5t85 87t119 31.5q62 0 109 -26t77 -72v91h57v-471h-57v91v0v0zM295 425q-53 0 -94.5 -25t-65 -68.5t-23.5 -96.5t23.5 -96t65.5 -68t94 -25q53 0 94.5 24.5t65 68t23.5 96.5t-23.5 96.5
t-65 68.5t-94.5 25v0v0zM450 637v-47h-293v47h293z" />
    <glyph glyph-name="Abreve" unicode="&#x102;" horiz-adv-x="703" 
d="M235 900q14 -50 44 -75.5t73 -25.5t73 25.5t43 75.5l47 -14q-18 -66 -60.5 -100.5t-102.5 -34.5t-102.5 34.5t-60.5 100.5l46 14v0v0zM618 0l-85 205h-364l-85 -205h-64l294 700h75l294 -700h-65zM508 263l-157 378l-158 -378h315z" />
    <glyph glyph-name="abreve" unicode="&#x103;" horiz-adv-x="622" 
d="M187 692q13 -50 43 -75t73 -25t73 25t44 75l46 -14q-18 -66 -60.5 -100.5t-102.5 -34.5t-102.5 35t-59.5 100l46 14v0v0zM475 91q-30 -46 -77 -72.5t-109 -26.5q-65 0 -119 31.5t-85 87t-31 124.5t31 124.5t85 87t119 31.5q62 0 109 -26t77 -72v91h57v-471h-57v91v0v0z
M295 425q-53 0 -94.5 -25t-65 -68.5t-23.5 -96.5t23.5 -96t65.5 -68t94 -25q53 0 94.5 24.5t65 68t23.5 96.5t-23.5 96.5t-65 68.5t-94.5 25v0v0z" />
    <glyph glyph-name="Aogonek" unicode="&#x104;" horiz-adv-x="703" 
d="M687 -165q-40 -41 -93 -41q-44 0 -72 22.5t-28 60.5q0 39 30 69t91 60l-82 199h-364l-85 -205h-64l294 701h75l294 -701h-16q-61 -28 -90 -55t-29 -57q0 -21 14 -33t37 -12q33 0 57 29l31 -37v0v0zM508 263l-157 378l-158 -378h315z" />
    <glyph glyph-name="aogonek" unicode="&#x105;" horiz-adv-x="622" 
d="M459 -206q-44 0 -72 22.5t-28 60.5t29 68t87 58v88q-30 -46 -77 -72.5t-109 -26.5q-65 0 -119 31.5t-85 87t-31 124.5t31 124.5t85 87t119 31.5q62 0 109 -26t77 -72v91h57v-471q-61 -28 -90 -55t-29 -57q0 -21 14 -33t37 -12q33 0 57 29l31 -37q-40 -41 -93 -41v0v0z
M295 46q53 0 94.5 24.5t65 68t23.5 96.5t-23.5 96.5t-65 68.5t-94.5 25t-94.5 -25t-65 -68.5t-23.5 -96.5t23.5 -96t65.5 -68t94 -25v0v0z" />
    <glyph glyph-name="Cacute" unicode="&#x106;" horiz-adv-x="764" 
d="M422 708q90 0 165.5 -38.5t117.5 -105.5l-51 -34q-37 56 -98 87.5t-134 31.5q-83 0 -150 -37.5t-106 -105.5t-39 -156q0 -87 39 -155t106 -106t150 -38q73 0 134 31.5t97 87.5l50 -36q-44 -66 -118 -104t-163 -38q-102 0 -183.5 46t-128.5 127.5t-47 184.5t47 184.5
t128.5 127.5t183.5 46v0v0zM464 899h72l-126 -150h-56z" />
    <glyph glyph-name="cacute" unicode="&#x107;" horiz-adv-x="512" 
d="M295 478q52 0 97 -19t76 -54l-37 -38q-58 58 -138 58q-51 0 -92.5 -24.5t-65 -68t-23.5 -97.5t23.5 -97t65 -67.5t92.5 -24.5q40 0 76 15.5t64 43.5l35 -39q-32 -35 -76.5 -54.5t-96.5 -19.5q-70 0 -125 32t-85.5 87.5t-30.5 123.5q0 69 30.5 124.5t85.5 87t125 31.5v0v0
zM342 691h72l-125 -150h-57z" />
    <glyph glyph-name="Ccircumflex" unicode="&#x108;" horiz-adv-x="764" 
d="M422 708q90 0 165.5 -38.5t117.5 -105.5l-51 -34q-37 56 -98 87.5t-134 31.5q-83 0 -150 -37.5t-106 -105.5t-39 -156q0 -87 39 -155t106 -106t150 -38q73 0 134 31.5t97 87.5l50 -36q-44 -66 -118 -104t-163 -38q-102 0 -183.5 46t-128.5 127.5t-47 184.5t47 184.5
t128.5 127.5t183.5 46v0v0zM419 854l-100 -102h-61l124 141h75l124 -141h-62z" />
    <glyph glyph-name="ccircumflex" unicode="&#x109;" horiz-adv-x="512" 
d="M295 478q52 0 97 -19t76 -54l-37 -38q-58 58 -138 58q-51 0 -92.5 -24.5t-65 -68t-23.5 -97.5t23.5 -97t65 -67.5t92.5 -24.5q40 0 76 15.5t64 43.5l35 -39q-32 -35 -76.5 -54.5t-96.5 -19.5q-70 0 -125 32t-85.5 87.5t-30.5 123.5q0 69 30.5 124.5t85.5 87t125 31.5v0v0
zM291 647l-100 -103h-61l124 141h75l124 -141h-62z" />
    <glyph glyph-name="Cdotaccent" unicode="&#x10a;" horiz-adv-x="764" 
d="M414 865q18 0 30 -12.5t12 -29.5q0 -18 -12 -30t-30 -12t-30 12t-12 30q0 17 12 29.5t30 12.5v0v0zM422 708q90 0 165.5 -38.5t117.5 -105.5l-51 -34q-37 56 -98 87.5t-134 31.5q-83 0 -150 -37.5t-106 -105.5t-39 -156q0 -87 39 -155t106 -106t150 -38q73 0 134 31.5
t97 87.5l50 -36q-44 -66 -118 -104t-163 -38q-102 0 -183.5 46t-128.5 127.5t-47 184.5t47 184.5t128.5 127.5t183.5 46v0v0z" />
    <glyph glyph-name="cdotaccent" unicode="&#x10b;" horiz-adv-x="512" 
d="M291 681q17 0 29 -12t12 -29t-12 -29t-29 -12t-28.5 12t-11.5 29t11.5 29t28.5 12v0v0zM295 478q52 0 97 -19t76 -54l-37 -38q-58 58 -138 58q-51 0 -92.5 -24.5t-65 -68t-23.5 -97.5t23.5 -97t65 -67.5t92.5 -24.5q40 0 76 15.5t64 43.5l35 -39q-32 -35 -76.5 -54.5
t-96.5 -19.5q-70 0 -125 32t-85.5 87.5t-30.5 123.5q0 69 30.5 124.5t85.5 87t125 31.5v0v0z" />
    <glyph glyph-name="Ccaron" unicode="&#x10c;" horiz-adv-x="764" 
d="M422 708q90 0 165.5 -38.5t117.5 -105.5l-51 -34q-37 56 -98 87.5t-134 31.5q-83 0 -150 -37.5t-106 -105.5t-39 -156q0 -87 39 -155t106 -106t150 -38q73 0 134 31.5t97 87.5l50 -36q-44 -66 -118 -104t-163 -38q-102 0 -183.5 46t-128.5 127.5t-47 184.5t47 184.5
t128.5 127.5t183.5 46v0v0zM419 789l100 102h62l-124 -140h-75l-124 140h61z" />
    <glyph glyph-name="ccaron" unicode="&#x10d;" horiz-adv-x="512" 
d="M295 478q52 0 97 -19t76 -54l-37 -38q-58 58 -138 58q-51 0 -92.5 -24.5t-65 -68t-23.5 -97.5t23.5 -97t65 -67.5t92.5 -24.5q40 0 76 15.5t64 43.5l35 -39q-32 -35 -76.5 -54.5t-96.5 -19.5q-70 0 -125 32t-85.5 87.5t-30.5 123.5q0 69 30.5 124.5t85.5 87t125 31.5v0v0
zM291 582l100 102h62l-124 -141h-75l-124 141h61z" />
    <glyph glyph-name="Dcaron" unicode="&#x10e;" horiz-adv-x="801" 
d="M360 700q116 0 201.5 -42.5t131.5 -121.5t46 -186t-46 -186t-131.5 -121.5t-201.5 -42.5h-255v700h255v0v0zM360 58q100 0 171 36t107.5 101.5t36.5 154.5q0 136 -82 214t-233 78h-194v-584h194v0v0zM368 789l100 102h62l-124 -140h-75l-124 140h61z" />
    <glyph glyph-name="dcaron" unicode="&#x10f;" horiz-adv-x="641" 
d="M289 478q62 0 109 -26t77 -72v340h57v-720h-57v91q-30 -46 -77 -72.5t-109 -26.5q-65 0 -119 31.5t-85 87t-31 124.5t31 124.5t85 87t119 31.5v0v0zM295 425q-53 0 -94.5 -25t-65 -68.5t-23.5 -96.5t23.5 -96t65.5 -68t94 -25q53 0 94.5 24.5t65 68t23.5 96.5t-23.5 96.5
t-65 68.5t-94.5 25v0v0zM599 720h58l-16 -194h-48z" />
    <glyph glyph-name="Dcroat" unicode="&#x110;" horiz-adv-x="888" 
d="M447 700q116 0 201 -42.5t131 -121.5t46 -186t-46 -186t-131 -121.5t-201 -42.5h-256v324h-128v58h128v318h256v0v0zM252 58h195q100 0 170.5 36t107 101.5t36.5 154.5q0 135 -82 213.5t-232 78.5h-195v-260h210v-58h-210v-266v0v0z" />
    <glyph glyph-name="dcroat" unicode="&#x111;" horiz-adv-x="622" 
d="M532 0h-57v91q-30 -46 -77 -72.5t-109 -26.5q-65 0 -119 31.5t-85 87t-31 124.5t31 124.5t85 87t119 31.5q62 0 109 -26t77 -72v183h-217v51h217v106h57v-106h81v-51h-81v-563v0v0zM295 425q-53 0 -94.5 -25t-65 -68.5t-23.5 -96.5t23.5 -96t65.5 -68t94 -25
q53 0 94.5 24.5t65 68t23.5 96.5t-23.5 96.5t-65 68.5t-94.5 25v0v0z" />
    <glyph glyph-name="Emacron" unicode="&#x112;" horiz-adv-x="671" 
d="M487 844v-46h-292v46h292zM105 0v700h478v-57h-417v-262h405v-57h-405v-266h421v-58h-482z" />
    <glyph glyph-name="emacron" unicode="&#x113;" horiz-adv-x="561" 
d="M287 478q62 0 112 -30.5t79 -85.5t29 -124q0 -16 -1 -23h-394q6 -81 56.5 -127t125.5 -46q90 0 159 67l30 -39q-42 -42 -90 -60t-103 -18q-68 0 -121.5 31t-84 86.5t-30.5 125.5t30.5 125.5t83.5 86.5t119 31v0v0zM286 428q-71 0 -118 -45.5t-55 -118.5h336
q-6 73 -51.5 118.5t-111.5 45.5v0v0zM432 637v-47h-292v47h292z" />
    <glyph glyph-name="Ebreve" unicode="&#x114;" horiz-adv-x="671" 
d="M224 900q14 -50 44 -75.5t73 -25.5t73 25.5t43 75.5l47 -14q-18 -66 -60.5 -100.5t-102.5 -34.5t-102.5 34.5t-60.5 100.5l46 14v0v0zM105 0v700h478v-57h-417v-262h405v-57h-405v-266h421v-58h-482z" />
    <glyph glyph-name="ebreve" unicode="&#x115;" horiz-adv-x="561" 
d="M169 692q14 -50 44 -75t73 -25t73 25t43 75l47 -14q-18 -66 -60.5 -100.5t-102.5 -34.5t-102.5 34.5t-60.5 100.5l46 14v0v0zM287 478q62 0 112 -30.5t79 -85.5t29 -124q0 -16 -1 -23h-394q6 -81 56.5 -127t125.5 -46q90 0 159 67l30 -39q-42 -42 -90 -60t-103 -18
q-68 0 -121.5 31t-84 86.5t-30.5 125.5t30.5 125.5t83.5 86.5t119 31v0v0zM286 428q-71 0 -118 -45.5t-55 -118.5h336q-6 73 -51.5 118.5t-111.5 45.5v0v0z" />
    <glyph glyph-name="Edotaccent" unicode="&#x116;" horiz-adv-x="671" 
d="M336 865q17 0 29.5 -12.5t12.5 -29.5q0 -18 -12.5 -30t-29.5 -12q-18 0 -30 12t-12 30q0 17 12 29.5t30 12.5v0v0zM105 0v700h478v-57h-417v-262h405v-57h-405v-266h421v-58h-482z" />
    <glyph glyph-name="edotaccent" unicode="&#x117;" horiz-adv-x="561" 
d="M286 681q17 0 29 -12t12 -29t-12 -29t-29 -12t-29 12t-12 29t12 29t29 12v0v0zM287 478q62 0 112 -30.5t79 -85.5t29 -124q0 -16 -1 -23h-394q6 -81 56.5 -127t125.5 -46q90 0 159 67l30 -39q-42 -42 -90 -60t-103 -18q-68 0 -121.5 31t-84 86.5t-30.5 125.5t30.5 125.5
t83.5 86.5t119 31v0v0zM286 428q-71 0 -118 -45.5t-55 -118.5h336q-6 73 -51.5 118.5t-111.5 45.5v0v0z" />
    <glyph glyph-name="Eogonek" unicode="&#x118;" horiz-adv-x="671" 
d="M495 0q-40 -22 -59.5 -45.5t-19.5 -52.5q0 -26 19.5 -42.5t50.5 -16.5q43 0 77 31l30 -36q-21 -21 -50 -32.5t-61 -11.5q-54 0 -87.5 27.5t-33.5 70.5q0 35 19 60.5t57 47.5h-332v700h478v-57h-417v-262h405v-57h-405v-266h421v-58h-92v0v0z" />
    <glyph glyph-name="eogonek" unicode="&#x119;" horiz-adv-x="561" 
d="M478 -162q-46 -44 -111 -44q-54 0 -88 27.5t-34 70.5q0 31 15.5 55.5t46.5 45.5q-8 -1 -23 -1q-65 0 -117.5 31.5t-82.5 87t-30 124.5q0 70 30.5 125.5t83.5 86.5t119 31q62 0 112 -30.5t79 -85.5t29 -124q0 -16 -1 -23h-394q6 -81 56.5 -127t125.5 -46q90 0 159 67
l30 -39q-34 -36 -82 -57q-100 -46 -100 -111q0 -26 19 -42.5t50 -16.5q44 0 77 31l31 -36v0v0zM286 428q-71 0 -118 -45.5t-55 -118.5h336q-6 73 -51.5 118.5t-111.5 45.5v0v0z" />
    <glyph glyph-name="Ecaron" unicode="&#x11a;" horiz-adv-x="671" 
d="M341 789l100 102h61l-124 -140h-75l-124 140h62zM105 0v700h478v-57h-417v-262h405v-57h-405v-266h421v-58h-482z" />
    <glyph glyph-name="ecaron" unicode="&#x11b;" horiz-adv-x="561" 
d="M287 478q62 0 112 -30.5t79 -85.5t29 -124q0 -16 -1 -23h-394q6 -81 56.5 -127t125.5 -46q90 0 159 67l30 -39q-42 -42 -90 -60t-103 -18q-68 0 -121.5 31t-84 86.5t-30.5 125.5t30.5 125.5t83.5 86.5t119 31v0v0zM286 428q-71 0 -118 -45.5t-55 -118.5h336
q-6 73 -51.5 118.5t-111.5 45.5v0v0zM286 582l100 102h61l-124 -141h-75l-124 141h62z" />
    <glyph glyph-name="Gcircumflex" unicode="&#x11c;" horiz-adv-x="819" 
d="M422 708q82 0 152 -31.5t119 -87.5l-45 -44q-41 49 -99.5 76.5t-126.5 27.5q-83 0 -150 -37.5t-106 -105.5t-39 -156q0 -87 38.5 -155t105.5 -106t148 -38q119 0 191 70t79 191h-237v57h303q1 -6 1 -16q0 -103 -41.5 -185t-118 -129t-177.5 -47q-95 0 -176.5 44
t-130.5 125.5t-49 188.5q0 104 47 185.5t129 127t183 45.5v0v0zM412 854l-100 -102h-62l124 141h75l124 -141h-61z" />
    <glyph glyph-name="gcircumflex" unicode="&#x11d;" horiz-adv-x="618" 
d="M287 478q62 0 108.5 -26t75.5 -73v92h57v-439q0 -76 -32.5 -129.5t-88.5 -81t-126 -27.5q-59 0 -111.5 18t-86.5 50l29 41q34 -27 77.5 -42t91.5 -15q83 0 136.5 47.5t53.5 136.5v67q-29 -47 -75.5 -73.5t-108.5 -26.5q-65 0 -118.5 31t-84 86t-30.5 124t30.5 124
t84 85.5t118.5 30.5v0v0zM293 425q-52 0 -93.5 -25t-64.5 -67.5t-23 -94.5t23 -95t64.5 -67.5t93.5 -24.5t93.5 24.5t65 67.5t23.5 95t-23.5 95t-65 67.5t-93.5 24.5v0v0zM300 647l-100 -103h-61l124 141h75l124 -141h-62z" />
    <glyph glyph-name="Gbreve" unicode="&#x11e;" horiz-adv-x="819" 
d="M295 900q14 -50 44 -75.5t73 -25.5t73 25.5t43 75.5l47 -14q-18 -66 -60.5 -100.5t-102.5 -34.5t-102.5 34.5t-60.5 100.5l46 14v0v0zM422 708q82 0 152 -31.5t119 -87.5l-45 -44q-41 49 -99.5 76.5t-126.5 27.5q-83 0 -150 -37.5t-106 -105.5t-39 -156q0 -87 38.5 -155
t105.5 -106t148 -38q119 0 191 70t79 191h-237v57h303q1 -6 1 -16q0 -103 -41.5 -185t-118 -129t-177.5 -47q-95 0 -176.5 44t-130.5 125.5t-49 188.5q0 104 47 185.5t129 127t183 45.5v0v0z" />
    <glyph glyph-name="gbreve" unicode="&#x11f;" horiz-adv-x="618" 
d="M184 692q13 -50 43 -75t73 -25t73 25t44 75l46 -14q-18 -66 -60.5 -100.5t-102.5 -34.5t-102.5 35t-59.5 100l46 14v0v0zM287 478q62 0 108.5 -26t75.5 -73v92h57v-439q0 -76 -32.5 -129.5t-88.5 -81t-126 -27.5q-59 0 -111.5 18t-86.5 50l29 41q34 -27 77.5 -42
t91.5 -15q83 0 136.5 47.5t53.5 136.5v67q-29 -47 -75.5 -73.5t-108.5 -26.5q-65 0 -118.5 31t-84 86t-30.5 124t30.5 124t84 85.5t118.5 30.5v0v0zM293 425q-52 0 -93.5 -25t-64.5 -67.5t-23 -94.5t23 -95t64.5 -67.5t93.5 -24.5t93.5 24.5t65 67.5t23.5 95t-23.5 95
t-65 67.5t-93.5 24.5v0v0z" />
    <glyph glyph-name="Gdotaccent" unicode="&#x120;" horiz-adv-x="819" 
d="M407 865q17 0 29.5 -12.5t12.5 -29.5q0 -18 -12.5 -30t-29.5 -12q-18 0 -30 12t-12 30q0 17 12 29.5t30 12.5v0v0zM422 708q82 0 152 -31.5t119 -87.5l-45 -44q-41 49 -99.5 76.5t-126.5 27.5q-83 0 -150 -37.5t-106 -105.5t-39 -156q0 -87 38.5 -155t105.5 -106t148 -38
q119 0 191 70t79 191h-237v57h303q1 -6 1 -16q0 -103 -41.5 -185t-118 -129t-177.5 -47q-95 0 -176.5 44t-130.5 125.5t-49 188.5q0 104 47 185.5t129 127t183 45.5v0v0z" />
    <glyph glyph-name="gdotaccent" unicode="&#x121;" horiz-adv-x="618" 
d="M300 681q17 0 29 -12t12 -29t-12 -29t-29 -12t-28.5 12t-11.5 29t11.5 29t28.5 12v0v0zM287 478q62 0 108.5 -26t75.5 -73v92h57v-439q0 -76 -32.5 -129.5t-88.5 -81t-126 -27.5q-59 0 -111.5 18t-86.5 50l29 41q34 -27 77.5 -42t91.5 -15q83 0 136.5 47.5t53.5 136.5v67
q-29 -47 -75.5 -73.5t-108.5 -26.5q-65 0 -118.5 31t-84 86t-30.5 124t30.5 124t84 85.5t118.5 30.5v0v0zM293 425q-52 0 -93.5 -25t-64.5 -67.5t-23 -94.5t23 -95t64.5 -67.5t93.5 -24.5t93.5 24.5t65 67.5t23.5 95t-23.5 95t-65 67.5t-93.5 24.5v0v0z" />
    <glyph glyph-name="Hcircumflex" unicode="&#x124;" horiz-adv-x="783" 
d="M391 854l-100 -102h-61l124 141h75l124 -141h-62zM617 382v318h61v-700h-61v324h-451v-324h-61v700h61v-318h451z" />
    <glyph glyph-name="hcircumflex" unicode="&#x125;" horiz-adv-x="599" 
d="M148 389q27 44 71.5 66.5t96.5 22.5q89 0 143.5 -51.5t54.5 -137.5v-289h-57v271q0 72 -39.5 112.5t-111.5 40.5q-44 0 -80 -19.5t-57 -55t-21 -81.5v-268h-57v720h57v-331v0v0zM304 876l-100 -102h-62l124 141h75l124 -141h-61z" />
    <glyph glyph-name="Hbar" unicode="&#x126;" horiz-adv-x="811" 
d="M692 511v-511h-61v324h-451v-324h-61v511h-87v52h87v137h61v-137h451v137h61v-137h87v-52h-87zM631 511h-451v-129h451v129z" />
    <glyph glyph-name="hbar" unicode="&#x127;" horiz-adv-x="599" 
d="M148 389q27 44 71.5 66.5t96.5 22.5q89 0 143.5 -51.5t54.5 -137.5v-289h-57v271q0 72 -39.5 112.5t-111.5 40.5q-44 0 -80 -19.5t-57 -55t-21 -81.5v-268h-57v563h-92v51h92v106h57v-106h207v-51h-207v-174v0v0z" />
    <glyph glyph-name="Itilde" unicode="&#x128;" horiz-adv-x="271" 
d="M-35 816q21 28 45.5 41.5t57.5 13.5q24 0 40.5 -6t38.5 -18q16 -10 28 -14.5t27 -4.5q20 0 36.5 9.5t32.5 29.5l34 -33q-22 -28 -46 -41.5t-57 -13.5q-24 0 -41.5 6t-36.5 18q-16 10 -28.5 14.5t-27.5 4.5q-20 0 -36 -9t-33 -29l-34 32v0v0zM105 0v700h61v-700h-61z" />
    <glyph glyph-name="itilde" unicode="&#x129;" horiz-adv-x="239" 
d="M-45 609q21 28 45.5 41.5t57.5 13.5q24 0 40.5 -6t38.5 -18q16 -10 28 -14.5t27 -4.5q20 0 36.5 9.5t32.5 28.5l34 -32q-22 -29 -46 -42.5t-57 -13.5q-24 0 -41 6.5t-37 18.5q-16 10 -28.5 14.5t-27.5 4.5q-20 0 -36 -9.5t-33 -29.5l-34 33v0v0zM91 0v471h57v-471h-57z
" />
    <glyph glyph-name="Imacron" unicode="&#x12a;" horiz-adv-x="271" 
d="M282 844v-46h-293v46h293zM105 0v700h61v-700h-61z" />
    <glyph glyph-name="imacron" unicode="&#x12b;" horiz-adv-x="239" 
d="M266 637v-47h-293v47h293zM91 0v471h57v-471h-57z" />
    <glyph glyph-name="Ibreve" unicode="&#x12c;" horiz-adv-x="271" 
d="M19 900q13 -50 43 -75.5t73 -25.5t73 25.5t44 75.5l46 -14q-18 -66 -60.5 -100.5t-102.5 -34.5t-102.5 34.5t-60.5 100.5l47 14v0v0zM105 0v700h61v-700h-61z" />
    <glyph glyph-name="ibreve" unicode="&#x12d;" horiz-adv-x="239" 
d="M3 692q14 -50 44 -75t73 -25t73 25t43 75l47 -14q-18 -66 -60.5 -100.5t-102.5 -34.5q-61 0 -103.5 35t-59.5 100l46 14v0v0zM91 0v471h57v-471h-57z" />
    <glyph glyph-name="Iogonek" unicode="&#x12e;" horiz-adv-x="271" 
d="M230 -165q-38 -41 -92 -41q-44 0 -72 22.5t-28 60.5q0 33 20.5 63t60.5 60h-14v700h61v-700q-74 -64 -74 -112q0 -21 14 -33t37 -12q33 0 57 29l30 -37v0v0z" />
    <glyph glyph-name="iogonek" unicode="&#x12f;" horiz-adv-x="239" 
d="M120 681q17 0 29 -12t12 -29t-12 -29t-29 -12t-29 12t-12 29t12 29t29 12v0v0zM148 0q-74 -64 -74 -112q0 -21 14 -33t37 -12q33 0 57 29l31 -37q-40 -41 -93 -41q-44 0 -72 22.5t-28 60.5q0 33 21 63t61 60h-11v471h57v-471v0v0z" />
    <glyph glyph-name="Idotaccent" unicode="&#x130;" horiz-adv-x="271" 
d="M130 865q18 0 30 -12.5t12 -29.5q0 -18 -12 -30t-30 -12t-30 12t-12 30q0 17 12 29.5t30 12.5v0v0zM105 0v700h61v-700h-61z" />
    <glyph glyph-name="IJ" unicode="&#x132;" horiz-adv-x="846" 
d="M747 251q0 -81 -31.5 -139.5t-86.5 -89t-125 -30.5q-127 0 -211 94l41 42q29 -34 72 -55.5t98 -21.5q83 0 132.5 53.5t49.5 152.5v443h61v-449v0v0zM105 0v700h61v-700h-61z" />
    <glyph glyph-name="ij" unicode="&#x133;" horiz-adv-x="479" 
d="M120 681q17 0 29 -12t12 -29t-12 -29t-29 -12t-29 12t-12 29t12 29t29 12v0v0zM359 681q17 0 29 -12t12 -29t-12 -29t-29 -12t-28.5 12t-11.5 29t11.5 29t28.5 12v0v0zM388 -89q0 -57 -27.5 -87t-77.5 -30q-17 0 -35 4.5t-30 11.5l14 49q22 -12 47 -12q52 0 52 66v558h57
v-560v0v0zM91 0v471h57v-471h-57z" />
    <glyph glyph-name="Jcircumflex" unicode="&#x134;" horiz-adv-x="576" 
d="M476 251q0 -81 -31.5 -139.5t-86 -89t-124.5 -30.5q-130 0 -211 94l41 42q29 -34 71.5 -55.5t97.5 -21.5q83 0 132.5 53.5t49.5 152.5v443h61v-449v0v0zM446 854l-100 -102h-62l124 141h75l124 -141h-61z" />
    <glyph glyph-name="jcircumflex" unicode="&#x135;" horiz-adv-x="240" 
d="M150 -89q0 -56 -28 -86.5t-77 -30.5q-17 0 -35.5 4.5t-30.5 11.5l14 49q22 -12 47 -12q53 0 53 66v558h57v-560v0v0zM121 647l-100 -103h-62l124 141h75l124 -141h-61z" />
    <glyph glyph-name="kgreenlandic" unicode="&#x138;" horiz-adv-x="514" 
d="M222 272l194 199h71l-219 -222l223 -249h-72l-197 221h-74v-221h-57v471h57v-199h74z" />
    <glyph glyph-name="Lacute" unicode="&#x139;" horiz-adv-x="602" 
d="M180 899h72l-126 -150h-56zM105 0v700h61v-642h415v-58h-476z" />
    <glyph glyph-name="lacute" unicode="&#x13a;" horiz-adv-x="239" 
d="M148 923h72l-125 -150h-57zM91 0v720h57v-720h-57z" />
    <glyph glyph-name="Lcaron" unicode="&#x13d;" horiz-adv-x="602" 
d="M105 0v700h61v-642h415v-58h-476zM303 700h58l-16 -194h-48z" />
    <glyph glyph-name="lcaron" unicode="&#x13e;" horiz-adv-x="255" 
d="M91 0v720h57v-720h-57zM210 720h59l-16 -194h-48z" />
    <glyph glyph-name="Ldot" unicode="&#x13f;" horiz-adv-x="602" 
d="M423 395q18 0 30 -12.5t12 -30.5q0 -17 -12 -29t-30 -12t-30 12t-12 29q0 18 12 30.5t30 12.5v0v0zM105 0v700h61v-642h415v-58h-476z" />
    <glyph glyph-name="ldot" unicode="&#x140;" horiz-adv-x="284" 
d="M259 407q17 0 29 -12.5t12 -29.5t-12 -28.5t-29 -11.5t-28.5 11.5t-11.5 28.5t11.5 29.5t28.5 12.5v0v0zM91 0v720h57v-720h-57z" />
    <glyph glyph-name="Lslash" unicode="&#x141;" horiz-adv-x="674" 
d="M177 0v265l-114 -64v65l114 64v370h61v-335l268 151v-65l-268 -151v-242h415v-58h-476z" />
    <glyph glyph-name="lslash" unicode="&#x142;" horiz-adv-x="329" 
d="M301 506v-60l-108 -79v-367h-57v325l-108 -79v60l108 79v335h57v-294z" />
    <glyph glyph-name="Nacute" unicode="&#x143;" horiz-adv-x="785" 
d="M437 899h72l-126 -150h-56zM625 0l-459 595v-595h-61v700h55l459 -595v595h61v-700h-55z" />
    <glyph glyph-name="nacute" unicode="&#x144;" horiz-adv-x="599" 
d="M316 478q89 0 143.5 -51.5t54.5 -137.5v-289h-57v271q0 72 -39.5 112.5t-111.5 40.5q-44 0 -80 -19.5t-57 -55t-21 -81.5v-268h-57v471h57v-83q27 45 71.5 67.5t96.5 22.5v0v0zM358 691h72l-125 -150h-57z" />
    <glyph glyph-name="Ncaron" unicode="&#x147;" horiz-adv-x="785" 
d="M392 789l100 102h62l-124 -140h-75l-124 140h61zM625 0l-459 595v-595h-61v700h55l459 -595v595h61v-700h-55z" />
    <glyph glyph-name="ncaron" unicode="&#x148;" horiz-adv-x="599" 
d="M316 478q89 0 143.5 -51.5t54.5 -137.5v-289h-57v271q0 72 -39.5 112.5t-111.5 40.5q-44 0 -80 -19.5t-57 -55t-21 -81.5v-268h-57v471h57v-83q27 45 71.5 67.5t96.5 22.5v0v0zM307 582l100 102h62l-124 -141h-75l-124 141h61z" />
    <glyph glyph-name="napostrophe" unicode="&#x149;" horiz-adv-x="739" 
d="M455 478q89 0 143.5 -51.5t54.5 -137.5v-289h-57v271q0 72 -39.5 112.5t-111.5 40.5q-44 0 -80 -19.5t-56.5 -55t-20.5 -81.5v-268h-57v471h56v-83q27 45 71.5 67.5t96.5 22.5v0v0zM121 479h-49l31 241h66z" />
    <glyph glyph-name="Eng" unicode="&#x14a;" horiz-adv-x="785" 
d="M680 -20q0 -84 -40.5 -135t-124.5 -51q-71 0 -128 32l22 53q47 -27 99 -27q61 0 86 37t25 119l-453 587v-595h-61v700h55l459 -595v595h61v-720v0v0z" />
    <glyph glyph-name="eng" unicode="&#x14b;" horiz-adv-x="599" 
d="M316 478q89 0 143.5 -51.5t54.5 -137.5v-336q0 -57 -27.5 -87t-77.5 -30q-17 0 -35 4.5t-30 11.5l14 49q24 -12 46 -12q53 0 53 67v315q0 72 -39.5 112.5t-111.5 40.5q-44 0 -80 -19.5t-57 -55t-21 -81.5v-268h-57v471h57v-83q27 45 71.5 67.5t96.5 22.5v0v0z" />
    <glyph glyph-name="Omacron" unicode="&#x14c;" horiz-adv-x="843" 
d="M422 708q101 0 183 -46t128.5 -127.5t46.5 -184.5t-46.5 -184.5t-128.5 -127.5t-183 -46q-102 0 -183.5 46t-128.5 127.5t-47 184.5t47 184.5t128.5 127.5t183.5 46v0v0zM422 649q-83 0 -150 -37.5t-106 -105.5t-39 -156q0 -87 39 -155t106 -106t150 -38q82 0 149 38
t106 106t39 155q0 88 -39 156t-106 105.5t-149 37.5v0v0zM568 844v-46h-292v46h292z" />
    <glyph glyph-name="omacron" unicode="&#x14d;" horiz-adv-x="596" 
d="M298 478q69 0 125 -31.5t88 -87.5t32 -124t-32 -123.5t-88 -87.5t-125 -32t-124.5 32t-87.5 87.5t-32 123.5q0 69 32 124.5t87.5 87t124.5 31.5v0v0zM298 425q-52 0 -94.5 -24.5t-67 -68t-24.5 -97.5t24.5 -97t67 -67.5t94.5 -24.5t94.5 24.5t67 67.5t24.5 97t-24.5 97.5
t-67 68t-94.5 24.5v0v0zM445 637v-47h-293v47h293z" />
    <glyph glyph-name="Obreve" unicode="&#x14e;" horiz-adv-x="843" 
d="M305 900q14 -50 44 -75.5t73 -25.5t73 25.5t43 75.5l47 -14q-18 -66 -60.5 -100.5t-102.5 -34.5t-102.5 34.5t-60.5 100.5l46 14v0v0zM422 708q101 0 183 -46t128.5 -127.5t46.5 -184.5t-46.5 -184.5t-128.5 -127.5t-183 -46q-102 0 -183.5 46t-128.5 127.5t-47 184.5
t47 184.5t128.5 127.5t183.5 46v0v0zM422 649q-83 0 -150 -37.5t-106 -105.5t-39 -156q0 -87 39 -155t106 -106t150 -38q82 0 149 38t106 106t39 155q0 88 -39 156t-106 105.5t-149 37.5v0v0z" />
    <glyph glyph-name="obreve" unicode="&#x14f;" horiz-adv-x="596" 
d="M182 692q13 -50 43 -75t73 -25t73 25t44 75l46 -14q-18 -66 -60.5 -100.5t-102.5 -34.5t-102.5 35t-59.5 100l46 14v0v0zM298 478q69 0 125 -31.5t88 -87.5t32 -124t-32 -123.5t-88 -87.5t-125 -32t-124.5 32t-87.5 87.5t-32 123.5q0 69 32 124.5t87.5 87t124.5 31.5v0v0
zM298 425q-52 0 -94.5 -24.5t-67 -68t-24.5 -97.5t24.5 -97t67 -67.5t94.5 -24.5t94.5 24.5t67 67.5t24.5 97t-24.5 97.5t-67 68t-94.5 24.5v0v0z" />
    <glyph glyph-name="Ohungarumlaut" unicode="&#x150;" horiz-adv-x="843" 
d="M422 708q101 0 183 -46t128.5 -127.5t46.5 -184.5t-46.5 -184.5t-128.5 -127.5t-183 -46q-102 0 -183.5 46t-128.5 127.5t-47 184.5t47 184.5t128.5 127.5t183.5 46v0v0zM422 649q-83 0 -150 -37.5t-106 -105.5t-39 -156q0 -87 39 -155t106 -106t150 -38q82 0 149 38
t106 106t39 155q0 88 -39 156t-106 105.5t-149 37.5v0v0zM399 899h65l-113 -150h-59zM576 899h67l-122 -150h-57z" />
    <glyph glyph-name="ohungarumlaut" unicode="&#x151;" horiz-adv-x="596" 
d="M298 478q69 0 125 -31.5t88 -87.5t32 -124t-32 -123.5t-88 -87.5t-125 -32t-124.5 32t-87.5 87.5t-32 123.5q0 69 32 124.5t87.5 87t124.5 31.5v0v0zM298 425q-52 0 -94.5 -24.5t-67 -68t-24.5 -97.5t24.5 -97t67 -67.5t94.5 -24.5t94.5 24.5t67 67.5t24.5 97t-24.5 97.5
t-67 68t-94.5 24.5v0v0zM282 691h65l-113 -150h-59zM459 691h67l-122 -150h-57z" />
    <glyph glyph-name="OE" unicode="&#x152;" horiz-adv-x="1130" 
d="M442 0q-116 0 -201.5 42.5t-131.5 121.5t-46 186t46 186t131.5 121.5t201.5 42.5h601v-57h-418v-262h406v-57h-406v-266h421v-58h-604v0v0zM127 350q0 -136 82 -214t233 -78h122v584h-122q-151 0 -233 -78t-82 -214v0v0z" />
    <glyph glyph-name="oe" unicode="&#x153;" horiz-adv-x="991" 
d="M717 478q62 0 112 -30.5t79 -85.5t30 -124q0 -9 -2 -23h-394q7 -81 57.5 -127t124.5 -46q90 0 159 67l31 -39q-43 -43 -90.5 -60.5t-102.5 -17.5q-73 0 -128 34.5t-82 95.5q-30 -60 -86.5 -95t-126.5 -35q-69 0 -124.5 32t-87.5 87.5t-32 123.5q0 69 32 124.5t87.5 87
t124.5 31.5q70 0 126.5 -35.5t86.5 -95.5q28 61 83 96t123 35v0v0zM716 428q-70 0 -117.5 -46t-55.5 -118h336q-6 73 -51 118.5t-112 45.5v0v0zM298 425q-52 0 -94.5 -24.5t-67 -68t-24.5 -97.5t24.5 -97t67 -67.5t94.5 -24.5t94.5 24.5t67 67.5t24.5 97t-24.5 97.5t-67 68
t-94.5 24.5v0v0z" />
    <glyph glyph-name="Racute" unicode="&#x154;" horiz-adv-x="671" 
d="M372 700q116 0 178.5 -50.5t62.5 -143.5q0 -91 -64.5 -143t-176.5 -52h-27l265 -311h-76l-261 311h-107v-311h-61v700h267v0v0zM371 366q87 0 133 36t46 104q0 67 -46.5 102t-132.5 35h-205v-277h205v0v0zM375 899h72l-125 -150h-57z" />
    <glyph glyph-name="racute" unicode="&#x155;" horiz-adv-x="407" 
d="M292 479q50 0 88 -18l-14 -56q-34 19 -84 19q-59 0 -96.5 -43.5t-37.5 -114.5v-266h-57v471h56v-80q23 42 61 65t84 23v0v0zM284 691h72l-125 -150h-57z" />
    <glyph glyph-name="Rcaron" unicode="&#x158;" horiz-adv-x="671" 
d="M372 700q116 0 178.5 -50.5t62.5 -143.5q0 -91 -64.5 -143t-176.5 -52h-27l265 -311h-76l-261 311h-107v-311h-61v700h267v0v0zM371 366q87 0 133 36t46 104q0 67 -46.5 102t-132.5 35h-205v-277h205v0v0zM331 789l100 102h61l-124 -140h-75l-124 140h62z" />
    <glyph glyph-name="rcaron" unicode="&#x159;" horiz-adv-x="407" 
d="M292 479q50 0 88 -18l-14 -56q-34 19 -84 19q-59 0 -96.5 -43.5t-37.5 -114.5v-266h-57v471h56v-80q23 42 61 65t84 23v0v0zM233 582l100 102h62l-124 -141h-75l-124 141h61z" />
    <glyph glyph-name="Sacute" unicode="&#x15a;" horiz-adv-x="672" 
d="M560 581q-96 69 -219 69q-86 0 -140.5 -37.5t-54.5 -102.5q0 -53 41.5 -84t129.5 -41l77 -9q215 -24 215 -179q0 -66 -36.5 -112t-99 -69.5t-139.5 -23.5q-76 0 -149 25t-122 63l33 49q40 -32 104.5 -55t132.5 -23q94 0 153 36.5t59 104.5q0 56 -44 86t-133 40l-80 9
q-98 11 -151.5 55.5t-53.5 123.5q0 63 34 108.5t93 69.5t132 24q141 0 250 -77l-32 -50v0v0zM396 899h72l-125 -150h-57z" />
    <glyph glyph-name="sacute" unicode="&#x15b;" horiz-adv-x="487" 
d="M405 381q-27 19 -70.5 33t-89.5 14q-56 0 -90.5 -23t-34.5 -62q0 -32 26.5 -50.5t80.5 -25.5l60 -7q75 -8 115 -39.5t40 -86.5q0 -66 -55.5 -104t-147.5 -38q-53 0 -103.5 15.5t-89.5 45.5l26 42q32 -24 72 -38.5t96 -14.5q66 0 104.5 22.5t38.5 65.5q0 66 -108 78l-61 7
q-77 9 -114.5 41t-37.5 84q0 64 50 101t133 37q54 0 102.5 -14.5t81.5 -38.5l-24 -44v0v0zM303 691h72l-126 -150h-56z" />
    <glyph glyph-name="Scircumflex" unicode="&#x15c;" horiz-adv-x="672" 
d="M560 581q-96 69 -219 69q-86 0 -140.5 -37.5t-54.5 -102.5q0 -53 41.5 -84t129.5 -41l77 -9q215 -24 215 -179q0 -66 -36.5 -112t-99 -69.5t-139.5 -23.5q-76 0 -149 25t-122 63l33 49q40 -32 104.5 -55t132.5 -23q94 0 153 36.5t59 104.5q0 56 -44 86t-133 40l-80 9
q-98 11 -151.5 55.5t-53.5 123.5q0 63 34 108.5t93 69.5t132 24q141 0 250 -77l-32 -50v0v0zM352 854l-100 -102h-62l124 141h75l124 -141h-61z" />
    <glyph glyph-name="scircumflex" unicode="&#x15d;" horiz-adv-x="487" 
d="M405 381q-27 19 -70.5 33t-89.5 14q-56 0 -90.5 -23t-34.5 -62q0 -32 26.5 -50.5t80.5 -25.5l60 -7q75 -8 115 -39.5t40 -86.5q0 -66 -55.5 -104t-147.5 -38q-53 0 -103.5 15.5t-89.5 45.5l26 42q32 -24 72 -38.5t96 -14.5q66 0 104.5 22.5t38.5 65.5q0 66 -108 78l-61 7
q-77 9 -114.5 41t-37.5 84q0 64 50 101t133 37q54 0 102.5 -14.5t81.5 -38.5l-24 -44v0v0zM252 647l-100 -103h-62l124 141h75l124 -141h-61z" />
    <glyph glyph-name="Scedilla" unicode="&#x15e;" horiz-adv-x="672" 
d="M560 581q-96 69 -219 69q-86 0 -140.5 -37.5t-54.5 -102.5q0 -53 41.5 -84t129.5 -41l77 -9q215 -24 215 -179q0 -89 -64.5 -141t-167.5 -62l-49 -156h-62l51 155q-72 2 -140.5 26.5t-113.5 60.5l33 49q40 -32 104.5 -55t132.5 -23q94 0 153 36.5t59 104.5q0 56 -44 86
t-133 40l-80 9q-98 11 -151.5 55.5t-53.5 123.5q0 63 34 108.5t93 69.5t132 24q141 0 250 -77l-32 -50v0v0z" />
    <glyph glyph-name="scedilla" unicode="&#x15f;" horiz-adv-x="487" 
d="M405 381q-27 19 -70.5 33t-89.5 14q-56 0 -90.5 -23t-34.5 -62q0 -32 26.5 -50.5t80.5 -25.5l60 -7q75 -8 115 -39.5t40 -86.5q0 -58 -42.5 -94t-115.5 -45l-49 -157h-60l51 155q-106 3 -180 60l26 42q32 -24 72 -38.5t96 -14.5q66 0 104.5 22.5t38.5 65.5q0 66 -108 78
l-61 7q-77 9 -114.5 41t-37.5 84q0 64 50 101t133 37q54 0 102.5 -14.5t81.5 -38.5l-24 -44v0v0z" />
    <glyph glyph-name="Scaron" unicode="&#x160;" horiz-adv-x="672" 
d="M560 581q-96 69 -219 69q-86 0 -140.5 -37.5t-54.5 -102.5q0 -53 41.5 -84t129.5 -41l77 -9q215 -24 215 -179q0 -66 -36.5 -112t-99 -69.5t-139.5 -23.5q-76 0 -149 25t-122 63l33 49q40 -32 104.5 -55t132.5 -23q94 0 153 36.5t59 104.5q0 56 -44 86t-133 40l-80 9
q-98 11 -151.5 55.5t-53.5 123.5q0 63 34 108.5t93 69.5t132 24q141 0 250 -77l-32 -50v0v0zM352 789l100 102h61l-124 -140h-75l-124 140h62z" />
    <glyph glyph-name="scaron" unicode="&#x161;" horiz-adv-x="487" 
d="M405 381q-27 19 -70.5 33t-89.5 14q-56 0 -90.5 -23t-34.5 -62q0 -32 26.5 -50.5t80.5 -25.5l60 -7q75 -8 115 -39.5t40 -86.5q0 -66 -55.5 -104t-147.5 -38q-53 0 -103.5 15.5t-89.5 45.5l26 42q32 -24 72 -38.5t96 -14.5q66 0 104.5 22.5t38.5 65.5q0 66 -108 78l-61 7
q-77 9 -114.5 41t-37.5 84q0 64 50 101t133 37q54 0 102.5 -14.5t81.5 -38.5l-24 -44v0v0zM252 582l100 102h61l-124 -141h-75l-124 141h62z" />
    <glyph glyph-name="Tcaron" unicode="&#x164;" horiz-adv-x="608" 
d="M304 789l100 102h61l-124 -140h-75l-124 140h62zM334 642v-642h-61v642h-252v58h566v-58h-253z" />
    <glyph glyph-name="tcaron" unicode="&#x165;" horiz-adv-x="452" 
d="M193 162q0 -57 28 -86.5t76 -29.5q61 0 105 36l27 -42q-26 -22 -61 -35t-75 -13q-75 0 -116 42.5t-41 126.5v258h-108v52h108v153h57v-153h217v-52h-217v-257v0v0zM271 720h58l-16 -194h-48z" />
    <glyph glyph-name="Tbar" unicode="&#x166;" horiz-adv-x="608" 
d="M334 324v-324h-61v324h-169v58h169v260h-252v58h566v-58h-253v-260h170v-58h-170z" />
    <glyph glyph-name="tbar" unicode="&#x167;" horiz-adv-x="452" 
d="M193 289h162v-51h-162v-76q0 -57 28 -86.5t76 -29.5q61 0 105 36l27 -42q-26 -22 -61 -35t-75 -13q-75 0 -116 42.5t-41 126.5v77h-104v51h104v130h-108v52h108v153h57v-153h217v-52h-217v-130v0v0z" />
    <glyph glyph-name="Utilde" unicode="&#x168;" horiz-adv-x="755" 
d="M207 816q21 28 45.5 41.5t57.5 13.5q24 0 40.5 -6t38.5 -18q16 -10 28 -14.5t27 -4.5q20 0 36.5 9.5t32.5 29.5l34 -33q-22 -28 -46 -41.5t-57 -13.5q-24 0 -41.5 6t-36.5 18q-16 10 -28.5 14.5t-27.5 4.5q-20 0 -36 -9t-33 -29l-34 32v0v0zM661 273q0 -90 -37.5 -153.5
t-102 -95.5t-144.5 -32t-144.5 32t-101.5 95t-37 154v427h61v-423q0 -111 61.5 -168.5t160.5 -57.5q100 0 161 57.5t61 168.5v423h62v-427v0v0z" />
    <glyph glyph-name="utilde" unicode="&#x169;" horiz-adv-x="593" 
d="M132 609q22 28 46 41.5t57 13.5q24 0 40.5 -6t38.5 -18q16 -10 28 -14.5t27 -4.5q20 0 36.5 9.5t32.5 28.5l34 -32q-22 -29 -46 -42.5t-57 -13.5q-24 0 -41 6.5t-37 18.5q-16 10 -28.5 14.5t-27.5 4.5q-20 0 -36 -9.5t-33 -29.5l-34 33v0v0zM508 195q0 -65 -28 -110.5
t-76 -69t-107 -23.5t-107 23.5t-76 69t-28 110.5v276h57v-271q0 -74 42 -114t112 -40t112 40t42 114v271h57v-276v0v0z" />
    <glyph glyph-name="Umacron" unicode="&#x16a;" horiz-adv-x="755" 
d="M661 273q0 -90 -37.5 -153.5t-102 -95.5t-144.5 -32t-144.5 32t-101.5 95t-37 154v427h61v-423q0 -111 61.5 -168.5t160.5 -57.5q100 0 161 57.5t61 168.5v423h62v-427v0v0zM524 844v-46h-293v46h293z" />
    <glyph glyph-name="umacron" unicode="&#x16b;" horiz-adv-x="593" 
d="M508 195q0 -65 -28 -110.5t-76 -69t-107 -23.5t-107 23.5t-76 69t-28 110.5v276h57v-271q0 -74 42 -114t112 -40t112 40t42 114v271h57v-276v0v0zM443 637v-47h-292v47h292z" />
    <glyph glyph-name="Ubreve" unicode="&#x16c;" horiz-adv-x="755" 
d="M261 900q13 -50 43 -75.5t73 -25.5t73 25.5t44 75.5l46 -14q-18 -66 -60.5 -100.5t-102.5 -34.5t-102.5 35t-59.5 100l46 14v0v0zM661 273q0 -90 -37.5 -153.5t-102 -95.5t-144.5 -32t-144.5 32t-101.5 95t-37 154v427h61v-423q0 -111 61.5 -168.5t160.5 -57.5
q100 0 161 57.5t61 168.5v423h62v-427v0v0z" />
    <glyph glyph-name="ubreve" unicode="&#x16d;" horiz-adv-x="593" 
d="M180 692q14 -50 44 -75t73 -25t73 25t43 75l47 -14q-18 -66 -60.5 -100.5t-102.5 -34.5t-102.5 34.5t-60.5 100.5l46 14v0v0zM508 195q0 -65 -28 -110.5t-76 -69t-107 -23.5t-107 23.5t-76 69t-28 110.5v276h57v-271q0 -74 42 -114t112 -40t112 40t42 114v271h57v-276v0
v0z" />
    <glyph glyph-name="Uring" unicode="&#x16e;" horiz-adv-x="755" 
d="M377 741q-44 0 -75.5 31t-31.5 75t31.5 75.5t75.5 31.5t76 -31.5t32 -75.5t-32 -75t-76 -31v0v0zM377 777q29 0 49 20.5t20 49.5t-20 49.5t-49 20.5t-49 -20.5t-20 -49.5t20 -49.5t49 -20.5v0v0zM661 273q0 -90 -37.5 -153.5t-102 -95.5t-144.5 -32t-144.5 32t-101.5 95
t-37 154v427h61v-423q0 -111 61.5 -168.5t160.5 -57.5q100 0 161 57.5t61 168.5v423h62v-427v0v0z" />
    <glyph glyph-name="uring" unicode="&#x16f;" horiz-adv-x="593" 
d="M297 533q-44 0 -76 31.5t-32 75.5q0 43 32 74.5t76 31.5t75.5 -31t31.5 -75t-31.5 -75.5t-75.5 -31.5v0v0zM297 570q29 0 49 20.5t20 49.5t-20 49t-49 20q-28 0 -48.5 -20t-20.5 -49t20 -49.5t49 -20.5v0v0zM508 195q0 -65 -28 -110.5t-76 -69t-107 -23.5t-107 23.5
t-76 69t-28 110.5v276h57v-271q0 -74 42 -114t112 -40t112 40t42 114v271h57v-276v0v0z" />
    <glyph glyph-name="Uhungarumlaut" unicode="&#x170;" horiz-adv-x="755" 
d="M661 273q0 -90 -37.5 -153.5t-102 -95.5t-144.5 -32t-144.5 32t-101.5 95t-37 154v427h61v-423q0 -111 61.5 -168.5t160.5 -57.5q100 0 161 57.5t61 168.5v423h62v-427v0v0zM354 899h65l-113 -150h-58zM531 899h67l-121 -150h-58z" />
    <glyph glyph-name="uhungarumlaut" unicode="&#x171;" horiz-adv-x="593" 
d="M508 195q0 -65 -28 -110.5t-76 -69t-107 -23.5t-107 23.5t-76 69t-28 110.5v276h57v-271q0 -74 42 -114t112 -40t112 40t42 114v271h57v-276v0v0zM280 691h65l-113 -150h-58zM457 691h67l-121 -150h-58z" />
    <glyph glyph-name="Uogonek" unicode="&#x172;" horiz-adv-x="755" 
d="M589 -162q-21 -21 -50 -32.5t-61 -11.5q-54 0 -87.5 27.5t-33.5 70.5q0 60 65 103q-15 -2 -45 -2q-84 0 -148 33.5t-99.5 96.5t-35.5 150v427h61v-423q0 -111 61.5 -168.5t160.5 -57.5q100 0 161 57.5t61 168.5v423h62v-427q0 -90 -36.5 -152t-100.5 -96
q-57 -31 -84.5 -59t-27.5 -64q0 -26 19.5 -42.5t50.5 -16.5q43 0 77 31l30 -36v0v0z" />
    <glyph glyph-name="uogonek" unicode="&#x173;" horiz-adv-x="593" 
d="M486 -162q-21 -21 -50 -32.5t-61 -11.5q-54 0 -87.5 27.5t-33.5 70.5q0 61 62 101q-7 -1 -22 -1q-60 0 -107.5 25t-74 71t-26.5 107v276h57v-271q0 -74 42 -114t112 -40t112 40t42 114v271h57v-276q0 -59 -23 -102t-65 -67q-58 -35 -84.5 -61.5t-26.5 -62.5
q0 -26 19.5 -42.5t50.5 -16.5q43 0 77 31l30 -36v0v0z" />
    <glyph glyph-name="Wcircumflex" unicode="&#x174;" horiz-adv-x="1104" 
d="M552 854l-100 -102h-61l124 141h75l124 -141h-62zM762 0l-210 621l-209 -621h-75l-236 700h65l209 -632l213 632h68l212 -631l210 631h63l-236 -700h-74z" />
    <glyph glyph-name="wcircumflex" unicode="&#x175;" horiz-adv-x="863" 
d="M432 647l-100 -103h-62l124 141h75l124 -141h-61zM778 471h59l-184 -471h-67l-155 411l-154 -411h-67l-184 471h60l159 -412l155 412h64l155 -413z" />
    <glyph glyph-name="Ycircumflex" unicode="&#x176;" horiz-adv-x="632" 
d="M317 854l-100 -102h-62l124 141h75l124 -141h-61zM347 0h-61v301l-280 399h73l238 -342l237 342h72l-279 -400v-300z" />
    <glyph glyph-name="ycircumflex" unicode="&#x177;" horiz-adv-x="514" 
d="M260 647l-100 -103h-62l124 141h75l124 -141h-61zM53 -202l180 307l-221 366h64l190 -310l177 310h63l-390 -673h-63z" />
    <glyph glyph-name="Ydieresis" unicode="&#x178;" horiz-adv-x="632" 
d="M214 863q17 0 29 -12.5t12 -29.5t-12 -28.5t-29 -11.5t-28.5 11.5t-11.5 28.5t11.5 29.5t28.5 12.5v0v0zM419 863q17 0 29 -12.5t12 -29.5t-12 -28.5t-29 -11.5t-29 11.5t-12 28.5t12 29.5t29 12.5v0v0zM347 0h-61v301l-280 399h73l238 -342l237 342h72l-279 -400v-300z
" />
    <glyph glyph-name="Zacute" unicode="&#x179;" horiz-adv-x="664" 
d="M379 899h72l-126 -150h-56zM144 58h457v-58h-538v48l454 594h-447v58h529v-47z" />
    <glyph glyph-name="zacute" unicode="&#x17a;" horiz-adv-x="533" 
d="M321 691h72l-126 -150h-56zM140 52h330v-52h-406v42l328 377h-318v52h392v-42z" />
    <glyph glyph-name="Zdotaccent" unicode="&#x17b;" horiz-adv-x="664" 
d="M329 865q18 0 30 -12.5t12 -29.5q0 -18 -12 -30t-30 -12t-30 12t-12 30q0 17 12 29.5t30 12.5v0v0zM144 58h457v-58h-538v48l454 594h-447v58h529v-47z" />
    <glyph glyph-name="zdotaccent" unicode="&#x17c;" horiz-adv-x="533" 
d="M270 681q17 0 29 -12t12 -29t-12 -29t-29 -12t-29 12t-12 29t12 29t29 12v0v0zM140 52h330v-52h-406v42l328 377h-318v52h392v-42z" />
    <glyph glyph-name="Zcaron" unicode="&#x17d;" horiz-adv-x="664" 
d="M334 789l100 102h62l-124 -140h-75l-124 140h61zM144 58h457v-58h-538v48l454 594h-447v58h529v-47z" />
    <glyph glyph-name="zcaron" unicode="&#x17e;" horiz-adv-x="533" 
d="M270 582l100 102h61l-124 -141h-75l-124 141h62zM140 52h330v-52h-406v42l328 377h-318v52h392v-42z" />
    <glyph glyph-name="longs" unicode="&#x17f;" horiz-adv-x="326" 
d="M242 728q71 0 127 -35l-21 -48q-21 13 -48 21t-54 8q-53 0 -77.5 -31t-24.5 -91v-552h-57v552q0 82 37.5 129t117.5 47v0v0z" />
    <glyph glyph-name="florin" unicode="&#x192;" horiz-adv-x="700" 
d="M359 152q-7 -75 -41.5 -117.5t-98.5 -42.5q-62 0 -112 34l20 46q17 -13 40.5 -20.5t47.5 -7.5q78 0 89 108l18 185h-138v52h143l16 160q8 75 42.5 117t97.5 42q61 0 112 -33l-20 -46q-17 12 -40.5 19.5t-47.5 7.5q-77 0 -89 -107l-16 -160h157v-52h-162l-18 -185v0v0z
" />
    <glyph glyph-name="Gcaron" unicode="&#x1e6;" horiz-adv-x="819" 
d="M422 708q82 0 152 -31.5t119 -87.5l-45 -44q-41 49 -99.5 76.5t-126.5 27.5q-83 0 -150 -37.5t-106 -105.5t-39 -156q0 -87 38.5 -155t105.5 -106t148 -38q119 0 191 70t79 191h-237v57h303q1 -6 1 -16q0 -103 -41.5 -185t-118 -129t-177.5 -47q-95 0 -176.5 44
t-130.5 125.5t-49 188.5q0 104 47 185.5t129 127t183 45.5v0v0zM412 789l100 102h61l-124 -140h-75l-124 140h62z" />
    <glyph glyph-name="gcaron" unicode="&#x1e7;" horiz-adv-x="618" 
d="M287 478q62 0 108.5 -26t75.5 -73v92h57v-439q0 -76 -32.5 -129.5t-88.5 -81t-126 -27.5q-59 0 -111.5 18t-86.5 50l29 41q34 -27 77.5 -42t91.5 -15q83 0 136.5 47.5t53.5 136.5v67q-29 -47 -75.5 -73.5t-108.5 -26.5q-65 0 -118.5 31t-84 86t-30.5 124t30.5 124
t84 85.5t118.5 30.5v0v0zM293 425q-52 0 -93.5 -25t-64.5 -67.5t-23 -94.5t23 -95t64.5 -67.5t93.5 -24.5t93.5 24.5t65 67.5t23.5 95t-23.5 95t-65 67.5t-93.5 24.5v0v0zM300 582l100 102h62l-124 -141h-75l-124 141h61z" />
    <glyph glyph-name="Aringacute" unicode="&#x1fa;" horiz-adv-x="703" 
d="M305 678q-28 13 -45 39t-17 58q0 43 32 74.5t76 31.5t75.5 -31t31.5 -75q0 -31 -16.5 -56.5t-43.5 -39.5l285 -679h-65l-85 205h-364l-85 -205h-64l285 678v0v0zM351 705q29 0 49 20.5t20 49.5t-20 49t-49 20q-28 0 -48.5 -20t-20.5 -49t20 -49.5t49 -20.5v0v0zM395 1059
h72l-125 -150h-57zM508 263l-157 378l-158 -378h315z" />
    <glyph glyph-name="aringacute" unicode="&#x1fb;" horiz-adv-x="622" 
d="M292 518q-44 0 -75.5 31.5t-31.5 75.5t31.5 75t75.5 31t76 -31.5t32 -74.5q0 -44 -32 -75.5t-76 -31.5v0v0zM292 555q29 0 49 20.5t20 49.5t-20 49t-49 20q-28 0 -48.5 -20t-20.5 -49t20 -49.5t49 -20.5v0v0zM475 91q-30 -46 -77 -72.5t-109 -26.5q-65 0 -119 31.5
t-85 87t-31 124.5t31 124.5t85 87t119 31.5q62 0 109 -26t77 -72v91h57v-471h-57v91v0v0zM295 425q-53 0 -94.5 -25t-65 -68.5t-23.5 -96.5t23.5 -96t65.5 -68t94 -25q53 0 94.5 24.5t65 68t23.5 96.5t-23.5 96.5t-65 68.5t-94.5 25v0v0zM337 911h72l-126 -150h-56z" />
    <glyph glyph-name="AEacute" unicode="&#x1fc;" horiz-adv-x="1133" 
d="M802 899h72l-125 -150h-57zM567 0v195h-329l-148 -195h-74l534 700h495v-57h-417v-262h405v-57h-405v-266h421v-58h-482zM567 627l-285 -374h285v374z" />
    <glyph glyph-name="aeacute" unicode="&#x1fd;" horiz-adv-x="910" 
d="M636 478q62 0 112 -30.5t79 -85.5t29 -124q0 -16 -1 -23h-394q7 -81 57.5 -127t124.5 -46q90 0 159 67l30 -39q-42 -42 -89.5 -60t-102.5 -18q-64 0 -115 26.5t-82 74.5q-35 -46 -88.5 -73.5t-119.5 -27.5q-83 0 -132 38t-49 99q0 62 50.5 98.5t144.5 36.5h154
q0 84 -36 123.5t-114 39.5q-79 0 -144 -50l-27 42q76 59 178 59q147 0 182 -115q28 53 80 84t114 31v0v0zM635 427q-70 0 -117 -45.5t-56 -117.5h336q-6 73 -51.5 118t-111.5 45v0v0zM244 43q51 0 99 25t78 68q-15 36 -18 80h-148q-72 0 -106 -23.5t-34 -63.5q0 -38 34 -62
t95 -24v0v0zM501 691h72l-125 -150h-57z" />
    <glyph glyph-name="Oslashacute" unicode="&#x1fe;" horiz-adv-x="843" 
d="M422 708q68 0 128 -21t107 -61l82 82l40 -41l-81 -81q40 -46 61 -106t21 -130q0 -103 -46.5 -184.5t-128.5 -127.5t-183 -46q-68 0 -128.5 21.5t-107.5 60.5l-81 -81l-41 40l81 81q-39 48 -60.5 108t-21.5 128q0 103 47 184.5t128.5 127.5t183.5 46v0v0zM422 649
q-83 0 -150 -37.5t-106 -105.5t-39 -156q0 -112 63 -191l423 423q-39 33 -87.5 50t-103.5 17v0v0zM716 350q0 112 -63 191l-424 -423q81 -67 193 -67q82 0 149 38t106 106t39 155v0v0zM466 899h72l-125 -150h-57z" />
    <glyph glyph-name="oslashacute" unicode="&#x1ff;" horiz-adv-x="596" 
d="M298 478q89 0 156 -53l58 58l35 -34l-59 -58q26 -32 40.5 -72t14.5 -84q0 -68 -32 -123.5t-88 -87.5t-125 -32q-89 0 -156 53l-57 -58l-35 34l58 58q-54 67 -54 156q0 69 32 124.5t87.5 87t124.5 31.5v0v0zM298 425q-52 0 -94.5 -24.5t-67 -68t-24.5 -97.5q0 -66 36 -115
l266 266q-24 18 -54 28.5t-62 10.5v0v0zM484 235q0 66 -36 116l-266 -266q50 -39 116 -39q52 0 94.5 24.5t67 67.5t24.5 97v0v0zM349 691h72l-126 -150h-56z" />
    <glyph glyph-name="circumflex" unicode="&#x2c6;" horiz-adv-x="452" 
d="M226 647l-100 -102h-61l124 140h75l124 -140h-62z" />
    <glyph glyph-name="caron" unicode="&#x2c7;" horiz-adv-x="452" 
d="M226 582l100 102h62l-124 -141h-75l-124 141h61z" />
    <glyph glyph-name="breve" unicode="&#x2d8;" horiz-adv-x="452" 
d="M110 692q13 -50 43 -75t73 -25t73 25t44 75l46 -14q-18 -66 -60.5 -100.5t-102.5 -34.5t-102.5 35t-59.5 100l46 14v0v0z" />
    <glyph glyph-name="dotaccent" unicode="&#x2d9;" horiz-adv-x="263" 
d="M132 681q17 0 29 -12t12 -29t-12 -29t-29 -12t-29 12t-12 29t12 29t29 12v0v0z" />
    <glyph glyph-name="ring" unicode="&#x2da;" horiz-adv-x="452" 
d="M226 533q-44 0 -75.5 31.5t-31.5 75.5t31.5 75t75.5 31t76 -31.5t32 -74.5q0 -44 -32 -75.5t-76 -31.5v0v0zM226 570q29 0 49 20.5t20 49.5t-20 49t-49 20q-28 0 -48.5 -20t-20.5 -49t20 -49.5t49 -20.5v0v0z" />
    <glyph glyph-name="ogonek" unicode="&#x2db;" horiz-adv-x="538" 
d="M446 -162q-21 -21 -50 -32.5t-61 -11.5q-53 0 -86.5 28.5t-33.5 74.5q0 47 37 80.5t109 66.5l26 -32q-61 -29 -89.5 -53.5t-28.5 -56.5q0 -26 19.5 -42.5t50.5 -16.5q43 0 77 31l30 -36v0v0z" />
    <glyph glyph-name="tilde" unicode="&#x2dc;" horiz-adv-x="452" 
d="M57 609q21 28 45.5 41.5t57.5 13.5q24 0 41 -6t38 -18q16 -10 28 -14.5t26 -4.5q20 0 36.5 9.5t32.5 28.5l35 -32q-22 -29 -46 -42.5t-58 -13.5q-24 0 -41 6.5t-37 18.5q-16 10 -28 14.5t-27 4.5q-20 0 -36.5 -9.5t-32.5 -29.5l-34 33v0v0z" />
    <glyph glyph-name="hungarumlaut" unicode="&#x2dd;" horiz-adv-x="452" 
d="M152 691h72l-125 -150h-57zM338 691h72l-125 -150h-57z" />
    <glyph glyph-name="gravecomb" unicode="&#x300;" horiz-adv-x="0" 
d="M-356 691l110 -150h-57l-125 150h72z" />
    <glyph glyph-name="acutecomb" unicode="&#x301;" horiz-adv-x="0" 
d="M-248 691h72l-126 -150h-56z" />
    <glyph glyph-name="tildecomb" unicode="&#x303;" horiz-adv-x="0" 
d="M-464 609q22 28 46 41.5t57 13.5q24 0 40.5 -6t38.5 -18q16 -10 28 -14.5t27 -4.5q20 0 36.5 9.5t32.5 28.5l34 -32q-22 -29 -46 -42.5t-57 -13.5q-24 0 -41 6.5t-37 18.5q-16 10 -28.5 14.5t-27.5 4.5q-20 0 -36 -9.5t-33 -29.5l-34 33v0v0z" />
    <glyph glyph-name="dotbelowcomb" unicode="&#x323;" horiz-adv-x="0" 
d="M-299 -90q17 0 29 -12t12 -29t-12 -29t-29 -12t-28.5 12t-11.5 29t11.5 29t28.5 12v0v0z" />
    <glyph glyph-name="uni0394" unicode="&#x394;" horiz-adv-x="710" 
d="M668 0h-626v48l276 653h74l276 -653v-48zM599 58l-244 581l-244 -581h488z" />
    <glyph glyph-name="uni03A9" unicode="&#x3a9;" horiz-adv-x="859" 
d="M235 58q-76 42 -120 117.5t-44 171.5q0 104 47 186.5t129 128.5t183 46t183 -46t128.5 -128.5t46.5 -186.5q0 -96 -44 -171.5t-119 -117.5h192v-58h-294v50q91 28 146 106.5t55 187.5q0 90 -38.5 159t-105.5 107.5t-150 38.5t-150 -38.5t-106 -107.5t-39 -159
q0 -109 55.5 -187.5t145.5 -106.5v-50h-294v58h193v0v0z" />
    <glyph glyph-name="uni03BC" unicode="&#x3bc;" horiz-adv-x="599" 
d="M143 471v-271q0 -72 39.5 -112.5t111.5 -40.5q44 0 80 19.5t56.5 55t20.5 81.5v268h57v-471h-56v83q-27 -45 -72 -68t-96 -23q-89 0 -142 54v-246h-56v671h57v0v0z" />
    <glyph glyph-name="pi" unicode="&#x3c0;" horiz-adv-x="599" 
d="M457 0v419h-309v-419h-57v471h423v-471h-57z" />
    <glyph glyph-name="uni10D0" unicode="&#x10d0;" horiz-adv-x="538" 
d="M267 -8q-58 0 -107.5 23.5t-80 69t-30.5 108.5q0 32 12 62l52 -10q-8 -30 -8 -54q0 -71 47 -108.5t115 -37.5q70 0 115.5 37.5t45.5 108.5q0 34 -13 59.5t-32 43t-51 40.5q-31 23 -49.5 39.5t-31.5 41t-13 56.5h57q0 -29 18 -49t58 -50q36 -26 59 -48t39 -55t16 -78
q0 -59 -29.5 -104t-79.5 -70t-109 -25v0v0z" />
    <glyph glyph-name="uni10D1" unicode="&#x10d1;" horiz-adv-x="596" 
d="M298 -8q-69 0 -124.5 32t-87.5 87.5t-32 123.5q0 66 29.5 120t81.5 86.5t117 36.5v60q0 31 -11 48t-32 36q-24 22 -35.5 41.5t-11.5 56.5h57q0 -23 9.5 -37.5t28.5 -30.5q25 -22 38.5 -45t13.5 -67v-65q59 -9 105 -42.5t72.5 -85t26.5 -112.5q0 -68 -32 -123.5t-88 -87.5
t-125 -32v0v0zM298 46q52 0 94.5 24.5t67 67.5t24.5 97t-24.5 97.5t-67 68t-94.5 24.5t-94.5 -24.5t-67 -68t-24.5 -97.5t24.5 -97t67 -67.5t94.5 -24.5v0v0z" />
    <glyph glyph-name="uni10D2" unicode="&#x10d2;" 
d="M389 237q70 -22 112 -79.5t42 -130.5q0 -66 -32 -119t-88 -83.5t-125 -30.5t-124.5 30.5t-87.5 83.5t-32 119q0 67 31.5 118t85 80.5t120.5 33.5q74 4 102 24.5t28 59.5q0 36 -32.5 60t-88.5 24q-57 0 -91.5 -30t-34.5 -75h-56q0 46 24 81.5t65.5 55t92.5 19.5
q52 0 92.5 -18.5t62.5 -49t22 -67.5q0 -41 -23.5 -68t-64.5 -38v0v0zM298 -152q52 0 94.5 23t67 64t24.5 92q0 52 -24.5 93t-67 64t-94.5 23t-94.5 -23t-67 -64t-24.5 -93q0 -51 24.5 -92t67 -64t94.5 -23v0v0z" />
    <glyph glyph-name="uni10D3" unicode="&#x10d3;" horiz-adv-x="868" 
d="M491 -200q-163 0 -260.5 60.5t-137 151.5t-39.5 193q0 134 53.5 203.5t142.5 69.5q60 0 104.5 -31t62.5 -94q20 61 71 93t116 32q56 0 104.5 -28.5t77.5 -81.5t29 -124q0 -72 -29 -125t-78.5 -81t-107.5 -28t-107.5 28t-79 80t-29.5 122v23q0 81 -34.5 121.5t-94.5 40.5
q-143 0 -143 -220q0 -96 36.5 -175t122.5 -128t226 -49h178v-53h-184v0v0zM600 63q42 0 78 21t58 62t22 98t-22 98t-58 62t-78 21t-78.5 -21t-58.5 -62t-22 -98t22 -98t58.5 -62t78.5 -21v0v0z" />
    <glyph glyph-name="uni10D4" unicode="&#x10d4;" horiz-adv-x="579" 
d="M280 -206q-64 0 -116.5 26t-83.5 73t-31 107q0 48 17 88l52 -12q-11 -33 -11 -76q0 -44 23 -78.5t62.5 -54t87.5 -19.5q73 0 120 48t47 134v225q0 79 -47 124.5t-119 45.5q-68 0 -115 -35.5t-47 -100.5q0 -24 8 -54l-53 -10q-11 33 -11 62q0 59 30.5 102t80.5 66t107 23
q62 0 113 -27t80.5 -77.5t29.5 -118.5v-225q0 -73 -29.5 -126.5t-80.5 -81.5t-114 -28v0v0z" />
    <glyph glyph-name="uni10D5" unicode="&#x10d5;" horiz-adv-x="574" 
d="M286 -206q-73 0 -126.5 25.5t-82 70t-28.5 100.5q0 41 15 78l52 -12q-10 -30 -10 -59q0 -69 46.5 -109.5t133.5 -40.5q79 0 128 39t49 104q0 64 -42 100.5t-115 36.5h-46v53h46q71 0 104 27.5t33 82.5q0 61 -46 98t-118 37q-74 0 -118.5 -35t-44.5 -91q0 -23 7 -44
l-53 -10q-8 27 -8 51q0 50 28 91.5t77.5 66t111.5 24.5q61 0 111.5 -23.5t80.5 -66t30 -98.5q0 -45 -28.5 -83t-82.5 -54q56 -11 93.5 -59t37.5 -108q0 -53 -31 -97t-84.5 -69.5t-119.5 -25.5v0v0z" />
    <glyph glyph-name="uni10D6" unicode="&#x10d6;" horiz-adv-x="619" 
d="M329 -8q-68 0 -122 31.5t-84.5 86.5t-30.5 121q0 52 20.5 97.5t60.5 74.5q-69 9 -107 53t-38 105q0 47 21.5 85t61.5 60t91 22t91 -21.5t62.5 -59t22.5 -81.5q0 -61 -43 -101q67 -1 119.5 -32.5t82 -84.5t29.5 -117q0 -66 -31 -121t-85.5 -86.5t-120.5 -31.5v0v0z
M202 446q55 0 87.5 31.5t32.5 83.5q0 51 -32.5 83.5t-87.5 32.5q-54 0 -86 -32.5t-32 -83.5q0 -49 32.5 -82t85.5 -33v0v0zM329 46q50 0 91 24.5t64 66.5t23 94t-23 94.5t-64 67t-91 24.5q-51 0 -92 -24.5t-64 -67t-23 -94.5t23 -94t64 -66.5t92 -24.5v0v0z" />
    <glyph glyph-name="uni10D7" unicode="&#x10d7;" horiz-adv-x="885" 
d="M278 -8q-61 0 -112 29.5t-81.5 84.5t-30.5 129t30 129t80.5 84.5t108.5 29.5q68 0 121 -32.5t75 -97.5q19 65 63.5 97.5t103.5 32.5q57 0 101.5 -30.5t69.5 -86t25 -126.5q0 -120 -64 -235h-58q29 55 46.5 112t17.5 123q0 88 -37 139t-106 51q-60 0 -94.5 -43t-34.5 -127
v-20q0 -74 -31 -129t-82 -84.5t-111 -29.5v0v0zM278 46q44 0 81.5 22t60.5 64.5t23 102.5t-23 103t-60.5 65t-81.5 22t-82 -22t-61 -65t-23 -103t23 -102.5t61 -64.5t82 -22v0v0z" />
    <glyph glyph-name="uni10D8" unicode="&#x10d8;" horiz-adv-x="576" 
d="M118 0q-64 115 -64 235q0 71 29.5 126.5t82.5 86t122 30.5t122.5 -30.5t83 -86t29.5 -126.5q0 -68 -19 -128t-46 -107h-58q64 115 64 235q0 86 -48 138t-128 52t-128 -52t-48 -138q0 -66 17.5 -123t46.5 -112h-58v0v0z" />
    <glyph glyph-name="uni10D9" unicode="&#x10d9;" horiz-adv-x="538" 
d="M255 -206q-68 0 -119.5 25.5t-79.5 70t-28 100.5q0 41 15 78l52 -12q-10 -30 -10 -59q0 -69 44.5 -109t125.5 -40q79 0 128 38.5t49 103.5q0 70 -41.5 108.5t-115.5 38.5h-46v53h46q66 0 101.5 28t35.5 82q0 53 -37.5 87t-102.5 38v53q87 -5 142 -54t55 -124
q0 -45 -30 -82t-84 -53q59 -12 97 -59.5t38 -119.5q0 -53 -31 -97t-84.5 -69.5t-119.5 -25.5v0v0z" />
    <glyph glyph-name="uni10DA" unicode="&#x10da;" horiz-adv-x="1089" 
d="M511 -200q-172 0 -274 63t-142.5 156t-40.5 196q0 84 24 143.5t66.5 89.5t95.5 30q52 0 94.5 -31t58.5 -90q15 59 57.5 90t94.5 31t94.5 -31t57.5 -90q16 59 58.5 90t94.5 31t94.5 -31t67 -86t24.5 -126q0 -103 -46 -195l-49 17q37 86 37 178q0 87 -35.5 138.5
t-97.5 51.5q-53 0 -86 -43.5t-33 -126.5v-135h-57v135q0 84 -33.5 127t-90.5 43t-90.5 -43t-33.5 -127v-135h-57v135q0 83 -33 126.5t-86 43.5q-64 0 -98.5 -52t-34.5 -158q0 -97 37.5 -178t128 -132.5t239.5 -51.5h298v-53h-304v0v0z" />
    <glyph glyph-name="uni10DB" unicode="&#x10db;" horiz-adv-x="607" 
d="M295 -8q-68 0 -123 31.5t-86.5 87t-31.5 124.5t31 124.5t85 87t119 31.5q62 0 109 -26t77 -72v125q0 79 -48.5 124.5t-127.5 45.5q-70 0 -118.5 -38.5t-48.5 -101.5h-58q0 58 30.5 102t81.5 67.5t113 23.5q67 0 120 -27t83 -77.5t30 -118.5v-270q0 -70 -30 -125
t-84 -86.5t-123 -31.5v0v0zM295 45q53 0 94.5 25t64.5 68t23 97t-23 97t-64.5 68t-94.5 25t-94.5 -25t-65 -68.5t-23.5 -96.5t23.5 -96.5t65.5 -68.5t94 -25v0v0z" />
    <glyph glyph-name="uni10DC" unicode="&#x10dc;" horiz-adv-x="607" 
d="M313 -8q-69 0 -123 31.5t-84 86.5t-30 125v300q0 87 57.5 136t145.5 49h225v-53h-225q-65 0 -105.5 -34t-40.5 -98v-155q30 46 77 72t109 26q65 0 119 -31.5t85 -87t31 -124.5t-31.5 -124.5t-86.5 -87t-123 -31.5v0v0zM313 45q52 0 94 25t65.5 68.5t23.5 96.5t-23.5 96.5
t-65 68.5t-94.5 25t-94.5 -25t-64.5 -68t-23 -97t23 -97t64.5 -68t94.5 -25v0v0z" />
    <glyph glyph-name="uni10DD" unicode="&#x10dd;" horiz-adv-x="824" 
d="M118 0q-64 115 -64 235q0 71 25 126.5t69.5 86t101.5 30.5q59 0 103 -31t60 -90q15 59 59 90t103 31q57 0 101.5 -30.5t69.5 -86t25 -126.5q0 -120 -64 -235h-58q29 55 46.5 112t17.5 123q0 88 -37 139t-106 51q-60 0 -94.5 -43t-34.5 -127v-135h-57v135q0 84 -34.5 127
t-94.5 43q-69 0 -106 -51t-37 -139q0 -66 17.5 -123t46.5 -112h-58v0v0z" />
    <glyph glyph-name="uni10DE" unicode="&#x10de;" horiz-adv-x="574" 
d="M286 -6q-73 0 -126.5 25.5t-82 70t-28.5 100.5q0 41 15 78l52 -12q-10 -30 -10 -59q0 -69 46.5 -109.5t133.5 -40.5q80 0 128.5 40.5t48.5 112.5q0 70 -46 108.5t-121 38.5h-46v53h86q51 0 79 21t28 62q0 39 -23 61t-69 48q-34 19 -54.5 33.5t-34.5 38t-14 56.5h57
q0 -29 20.5 -47.5t62.5 -41.5q36 -20 58.5 -36.5t38.5 -43t16 -64.5q0 -46 -29 -77t-75 -40q51 -12 87.5 -60.5t36.5 -113.5q0 -58 -30.5 -104t-84.5 -72t-120 -26v0v0z" />
    <glyph glyph-name="uni10DF" unicode="&#x10df;" horiz-adv-x="583" 
d="M268 -206q-64 0 -114 25.5t-77.5 67.5t-27.5 91q0 30 10 59l53 -11q-5 -22 -5 -40q0 -38 19 -69.5t55.5 -50.5t86.5 -19q78 0 125.5 46.5t47.5 126.5v405l-261 -56q119 -42 119 -140q0 -54 -34.5 -85t-90.5 -31q-69 0 -117 48l30 36q37 -35 85 -35q34 0 53 16.5t19 48.5
q0 36 -23.5 64t-67.5 44l-43 15v51l324 71l64 -1v-451q0 -69 -29.5 -120t-81.5 -78.5t-119 -27.5v0v0z" />
    <glyph glyph-name="uni10E0" unicode="&#x10e0;" horiz-adv-x="824" 
d="M118 0q-31 59 -47.5 127.5t-16.5 157.5q0 198 96.5 316.5t320.5 118.5h114v-53h-108q-161 0 -254 -70.5t-116 -210.5q50 92 148 92q55 0 98.5 -31t59.5 -90q15 59 59 90t103 31q57 0 101.5 -30.5t69.5 -86t25 -126.5q0 -120 -64 -235h-58q29 55 46.5 112t17.5 123
q0 88 -37 139t-106 51q-60 0 -94.5 -43t-34.5 -127v-135h-57v135q0 84 -34.5 127t-94.5 43q-69 0 -106 -51t-37 -139q0 -66 17.5 -123t46.5 -112h-58v0v0z" />
    <glyph glyph-name="uni10E1" unicode="&#x10e1;" horiz-adv-x="612" 
d="M318 -8q-68 0 -122 32t-84.5 89.5t-30.5 131.5v475h57l-2 -475q0 -58 23 -103.5t64.5 -71t94.5 -25.5q52 0 94 22t65.5 60t23.5 84q0 41 -13.5 67.5t-40.5 59.5q-28 35 -41.5 62.5t-13.5 70.5h57q0 -30 11.5 -52t36.5 -54q30 -37 46 -70t16 -84q0 -62 -31.5 -112
t-86.5 -78.5t-123 -28.5v0v0z" />
    <glyph glyph-name="uni10E2" unicode="&#x10e2;" horiz-adv-x="725" 
d="M364 -206q-87 0 -157.5 42.5t-111.5 119.5t-41 177q0 94 37 168.5t101.5 118.5t144.5 50l-4 117h57l-4 -117q81 -5 146 -49t102.5 -118.5t37.5 -169.5q0 -100 -40.5 -177t-111 -119.5t-156.5 -42.5v0v0zM364 -153q69 0 126 35t90.5 100t33.5 151q0 81 -30 143.5t-82 98.5
t-116 42q4 -43 4 -96v-201h-57v200q0 53 4 97q-64 -7 -115 -43.5t-80.5 -98.5t-29.5 -142q0 -86 33.5 -151t91 -100t127.5 -35v0v0z" />
    <glyph glyph-name="uni10E3" unicode="&#x10e3;" horiz-adv-x="590" 
d="M291 -206q-64 0 -116.5 26t-83.5 73t-31 107q0 48 17 88l52 -12q-11 -33 -11 -76q0 -44 23 -78.5t62.5 -54t87.5 -19.5q73 0 120 48t47 134v280q0 58 -28 86.5t-71 28.5q-41 0 -67 -27.5t-26 -79.5v-115h-57v115q0 51 -24.5 76.5t-61.5 25.5h-74v54h75q87 0 113 -81
q16 45 49.5 65t76.5 20q38 0 73 -17.5t57 -53.5t22 -89v-288q0 -73 -29.5 -126.5t-80.5 -81.5t-114 -28v0v0z" />
    <glyph glyph-name="uni10E4" unicode="&#x10e4;" horiz-adv-x="819" 
d="M486 -206q-74 0 -129.5 19.5t-85 53.5t-29.5 76q0 6 2 20l52 -7q-5 -50 45.5 -79.5t144.5 -29.5q95 0 146 31t51 93q0 43 -27 75t-92 32h-35v53h42q70 0 103.5 39.5t33.5 106.5q0 68 -33 108t-86 40q-58 0 -91.5 -39.5t-33.5 -118.5v-12q0 -63 -28.5 -112.5t-75.5 -76.5
t-101 -27q-55 0 -102 27t-75 77.5t-28 115.5t27.5 115t74 77t100.5 27q61 0 108.5 -31t67.5 -92q17 62 61 92.5t101 30.5q48 0 87 -25.5t62 -71t23 -104.5q0 -64 -31.5 -112t-96.5 -64q58 -13 80.5 -49.5t22.5 -80.5q0 -83 -69 -130t-186 -47v0v0zM259 91q41 0 75 20t54 58
t20 90q0 51 -20 89t-54 58t-74 20q-42 0 -76 -20t-54 -58t-20 -89q0 -78 42.5 -123t106.5 -45v0v0z" />
    <glyph glyph-name="uni10E5" unicode="&#x10e5;" horiz-adv-x="589" 
d="M280 -206q-64 0 -116.5 26t-83.5 73t-31 107q0 48 17 88l52 -12q-11 -33 -11 -76q0 -44 23 -78.5t62.5 -54t87.5 -19.5q73 0 120 48t47 134v205q0 54 -23 97t-63.5 68t-93.5 25q-37 0 -71 -15.5t-55.5 -46.5t-21.5 -74q0 -24 8 -54l-53 -10q-11 33 -11 62q0 58 29 101.5
t75 66.5t94 23q62 0 109 -26t77 -72v340h57v-690q0 -73 -29.5 -126.5t-80.5 -81.5t-114 -28v0v0z" />
    <glyph glyph-name="uni10E6" unicode="&#x10e6;" horiz-adv-x="824" 
d="M461 -200q-149 0 -240 58.5t-129 147.5t-38 189q0 141 53 212t143 71q59 0 103 -31t60 -90q15 59 59 90t103 31q57 0 101.5 -30.5t69.5 -86t25 -126.5q0 -103 -46 -195l-49 17q37 86 37 178q0 88 -37 139t-106 51q-60 0 -94.5 -43t-34.5 -127v-135h-57v135
q0 84 -34.5 127t-94.5 43q-72 0 -107.5 -54.5t-35.5 -175.5q0 -94 35 -171t114 -124t206 -47h148v-53h-154v0v0z" />
    <glyph glyph-name="uni10E7" unicode="&#x10e7;" horiz-adv-x="598" 
d="M513 20q0 -69 -30 -120t-83 -78.5t-122 -27.5q-67 0 -118 25.5t-78.5 67.5t-27.5 91q0 30 10 59l53 -11q-5 -22 -5 -40q0 -38 19.5 -69.5t57 -50.5t89.5 -19q82 0 130 46.5t48 126.5v162q-29 -45 -76 -71.5t-104 -26.5q-69 0 -119 28.5t-75.5 77.5t-25.5 111q0 83 45 170
h55q-43 -91 -43 -167t44 -121.5t128 -45.5q77 0 125 49.5t48 140.5v144h55v-451v0v0z" />
    <glyph glyph-name="uni10E8" unicode="&#x10e8;" horiz-adv-x="614" 
d="M302 -8q-68 0 -123 31.5t-86.5 86t-31.5 122.5q0 67 31 121.5t85 86t119 31.5q62 0 109 -26t77 -72v182q0 61 -30.5 90.5t-74.5 29.5q-41 0 -69 -26.5t-28 -73.5v-32h-58v32q0 47 -23 73t-58 26q-27 0 -46 -7t-42 -21l-25 46q51 36 114 36q36 0 65 -20t44 -65
q16 45 54 65t82 20q38 0 73 -18t57 -55.5t22 -94.5v-328q0 -68 -30.5 -123t-84.5 -86t-122 -31v0v0zM302 45q52 0 93.5 24.5t65 67.5t23.5 95t-23.5 94.5t-65 67t-93.5 24.5q-53 0 -94.5 -25t-65 -67.5t-23.5 -93.5t23.5 -94t65.5 -68t94 -25v0v0z" />
    <glyph glyph-name="uni10E9" unicode="&#x10e9;" horiz-adv-x="606" 
d="M81 532q0 62 27.5 106.5t72 67t95.5 22.5q52 0 94.5 -18.5t67 -53t24.5 -79.5t-25.5 -76.5t-80.5 -49.5q95 -10 143.5 -71.5t48.5 -159.5q0 -70 -14 -118.5t-42 -101.5h-55q27 57 40.5 103.5t13.5 113.5q0 90 -43.5 139t-128.5 49t-134 -52.5t-49 -158.5v-194h-55v532v0
v0zM138 360q27 41 64 64t92 44q39 16 60.5 27.5t36 31t14.5 50.5q0 45 -36.5 71.5t-92.5 26.5t-97 -37t-41 -106v-172v0v0z" />
    <glyph glyph-name="uni10EA" unicode="&#x10ea;" horiz-adv-x="639" 
d="M341 -206q-82 0 -147 40.5t-102.5 120t-37.5 191.5q0 97 28 180t71 145h58q-99 -152 -99 -325q0 -99 29.5 -166t81.5 -100t118 -33q85 0 136 42t51 111q0 71 -44 109t-123 38h-56v53h96q50 0 78.5 19.5t28.5 53.5q0 33 -15 53.5t-44 44.5t-44 45t-15 55h57
q0 -19 11 -32.5t35 -33.5q34 -26 53.5 -53.5t19.5 -74.5q0 -40 -29.5 -69t-74.5 -38q53 -12 88.5 -57t35.5 -117q0 -55 -31.5 -101.5t-87.5 -73.5t-126 -27v0v0z" />
    <glyph glyph-name="uni10EB" unicode="&#x10eb;" horiz-adv-x="612" 
d="M295 -8q-68 0 -123 31.5t-86.5 87t-31.5 124.5t31 124.5t85 87t119 31.5q62 0 109 -26t77 -72v340h57v-485q0 -69 -30.5 -124.5t-84.5 -87t-122 -31.5v0v0zM295 45q53 0 94.5 25t64.5 68t23 97t-23 97t-64.5 68t-94.5 25t-94.5 -25t-65 -68.5t-23.5 -96.5t23.5 -96.5
t65.5 -68.5t94 -25v0v0z" />
    <glyph glyph-name="uni10EC" unicode="&#x10ec;" horiz-adv-x="615" 
d="M313 -8q-68 0 -122 31t-84.5 86t-30.5 123v328q0 57 22 94.5t57 55.5t73 18q44 0 82 -20t54 -65q15 45 44 65t65 20q63 0 114 -36l-25 -46q-23 14 -42 21t-46 7q-35 0 -58 -26t-23 -73v-32h-58v32q0 47 -28 73.5t-69 26.5q-44 0 -74.5 -29.5t-30.5 -90.5v-182
q30 46 77 72t109 26q65 0 119 -31.5t85 -86t31 -121.5q0 -68 -31.5 -122.5t-86.5 -86t-123 -31.5v0v0zM313 45q52 0 94 25t65.5 68t23.5 94t-23.5 93.5t-65 67.5t-94.5 25q-52 0 -93.5 -24.5t-65 -67t-23.5 -94.5t23.5 -95t65 -67.5t93.5 -24.5v0v0z" />
    <glyph glyph-name="uni10ED" unicode="&#x10ed;" horiz-adv-x="647" 
d="M280 -206q-63 0 -116 25.5t-84 70.5t-31 100q0 48 17 88l52 -12q-11 -33 -11 -76q0 -39 23 -71.5t62.5 -51.5t87.5 -19q73 0 120 48t47 134v213q-59 -91 -186 -91q-52 0 -97.5 20t-73 57.5t-27.5 86.5q0 77 55 116t133 39h196v249h57v-249h131v-53h-131v-388
q0 -73 -29.5 -126.5t-80.5 -81.5t-114 -28v0v0zM267 205q81 0 130.5 42.5t49.5 108.5v62h-190q-65 0 -101.5 -23.5t-36.5 -78.5q0 -53 39.5 -82t108.5 -29v0v0z" />
    <glyph glyph-name="uni10EE" unicode="&#x10ee;" horiz-adv-x="612" 
d="M318 -8q-68 0 -122 31.5t-84.5 87t-30.5 124.5v485h57v-340q30 46 77 72t109 26q65 0 119 -31.5t85 -87t31 -124.5t-31.5 -124.5t-86.5 -87t-123 -31.5v0v0zM318 45q52 0 94 25t65.5 68.5t23.5 96.5t-23.5 96.5t-65 68.5t-94.5 25t-94.5 -25t-64.5 -68t-23 -97t23 -97
t64.5 -68t94.5 -25v0v0z" />
    <glyph glyph-name="uni10EF" unicode="&#x10ef;" horiz-adv-x="569" 
d="M281 -206q-68 0 -119.5 25.5t-79.5 70t-28 100.5q0 41 15 78l52 -12q-10 -30 -10 -59q0 -69 44.5 -109t125.5 -40q79 0 128 38.5t49 103.5q0 70 -41.5 108.5t-114.5 38.5h-46v168h-187v53h187v121h57v-121h188v-53h-188v-117q94 -4 148.5 -58.5t54.5 -143.5
q0 -53 -31 -97t-84.5 -69.5t-119.5 -25.5v0v0z" />
    <glyph glyph-name="uni10F0" unicode="&#x10f0;" horiz-adv-x="565" 
d="M277 -6q-72 0 -123.5 23t-78 62t-26.5 85q0 22 6 44l52 -8q-3 -15 -3 -29q0 -55 43.5 -89.5t129.5 -34.5q89 0 133 29t44 82q0 54 -44.5 76.5t-122.5 22.5h-36v53h96q97 0 97 59q0 32 -26 47.5t-71 15.5h-96v53h96q87 0 87 55q0 31 -22.5 47t-68.5 33q-35 13 -55 23.5
t-34.5 29t-14.5 47.5h57q0 -23 19.5 -35.5t60.5 -27.5q38 -14 60.5 -25.5t39 -33t16.5 -54.5q0 -37 -24 -57t-70 -30q49 -6 76.5 -29.5t27.5 -58.5t-27.5 -59t-76.5 -30q51 -8 82.5 -39.5t31.5 -82.5q0 -47 -28 -84.5t-81 -58.5t-126 -21v0v0z" />
    <glyph glyph-name="uni1C90" unicode="&#x1c90;" horiz-adv-x="621" 
d="M306 -8q-73 0 -129.5 32t-87.5 90.5t-31 135.5v48h61v-40q0 -99 51 -153.5t136 -54.5q86 0 137 50.5t51 139.5q0 54 -15.5 94.5t-38 69t-59.5 66.5q-35 35 -55 60.5t-34 61t-14 80.5v28h61v-24q0 -53 23.5 -90t71.5 -85q40 -41 64.5 -72.5t42 -78.5t17.5 -110
q0 -71 -32.5 -127.5t-90 -88.5t-129.5 -32v0v0z" />
    <glyph glyph-name="uni1C91" unicode="&#x1c91;" horiz-adv-x="628" 
d="M354 465q62 -8 110.5 -41t74.5 -83.5t26 -110.5q0 -67 -32 -121.5t-89 -85.5t-130 -31t-130 31t-89 85.5t-32 121.5q0 64 29 116.5t81.5 84.5t119.5 36v55q0 29 -10.5 45.5t-31.5 36.5q-23 22 -34.5 41.5t-11.5 54.5h61q0 -22 9 -36t28 -33q25 -24 38 -46.5t13 -62.5v-57
v0v0zM314 50q83 0 135 50t52 130t-52 130t-135 50t-135 -50t-52 -130t52 -130t135 -50v0v0z" />
    <glyph glyph-name="uni1C92" unicode="&#x1c92;" horiz-adv-x="628" 
d="M314 -8q-73 0 -130 31t-89 85.5t-32 121.5q0 97 65 160.5t172 76.5q132 16 132 91q0 44 -35 70.5t-86 26.5q-54 0 -89.5 -26.5t-35.5 -79.5v-15h-61v21q0 45 26 80t69 54t91 19q53 0 95 -20.5t64.5 -53t22.5 -66.5q0 -49 -26 -78t-80 -44q85 -18 131.5 -77t46.5 -139
q0 -67 -32 -121.5t-89 -85.5t-130 -31v0v0zM314 50q83 0 135 50t52 130t-52 130t-135 50t-135 -50t-52 -130t52 -130t135 -50v0v0z" />
    <glyph glyph-name="uni1C93" unicode="&#x1c93;" horiz-adv-x="919" 
d="M475 0q-121 0 -212 42t-140.5 122.5t-49.5 194.5v119q0 105 51.5 167.5t145.5 62.5q58 0 104 -32.5t64 -93.5q21 60 72.5 93t121.5 33q68 0 118.5 -30.5t78 -85t27.5 -125.5q0 -109 -61 -175t-168 -66q-69 0 -119.5 30t-77.5 85t-27 126v24q0 76 -35 117.5t-93 41.5
q-71 0 -106 -45.5t-35 -134.5v-100q0 -156 93 -234t248 -78h238v-58h-238v0v0zM627 284q81 0 124.5 48t43.5 135q0 86 -44.5 134.5t-123.5 48.5q-77 0 -120 -48.5t-43 -134.5t43 -134.5t120 -48.5v0v0z" />
    <glyph glyph-name="uni1C94" unicode="&#x1c94;" horiz-adv-x="633" 
d="M316 -8q-72 0 -127.5 31t-85.5 85.5t-30 121.5v51h61v-51q0 -81 49.5 -130.5t132.5 -49.5q86 0 134.5 50.5t48.5 139.5v214q0 98 -51 147t-135 49q-77 0 -124 -43.5t-47 -118.5v-37h-61v37q0 64 30.5 114t83 78t118.5 28q71 0 127 -29t88 -84t32 -131v-224
q0 -72 -31 -128.5t-86 -88t-127 -31.5v0v0z" />
    <glyph glyph-name="uni1C95" unicode="&#x1c95;" horiz-adv-x="646" 
d="M327 -8q-78 0 -135.5 29t-88 80.5t-30.5 118.5v31h61v-31q0 -80 51 -125t142 -45t141.5 41t50.5 109q0 66 -43 100t-120 34h-57v58h67q68 0 105.5 30t37.5 90q0 62 -52 100t-132 38q-79 0 -131 -41.5t-52 -115.5v-24h-61v24q0 64 32 112.5t88 75.5t124 27
q70 0 126.5 -25.5t89 -70.5t32.5 -99q0 -56 -30.5 -95t-87.5 -55q59 -11 93.5 -54t34.5 -109q0 -61 -32 -108t-90 -73.5t-134 -26.5v0v0z" />
    <glyph glyph-name="uni1C96" unicode="&#x1c96;" horiz-adv-x="696" 
d="M385 -8q-73 0 -129.5 30t-87.5 82.5t-31 115.5q0 46 17.5 88t52.5 72q-68 7 -110.5 51t-42.5 110q0 47 22.5 85t63 60t90.5 22q49 0 90 -22t64 -59t23 -81q0 -27 -6.5 -48.5t-22.5 -42.5q77 0 135 -29.5t89 -81.5t31 -118t-31 -119.5t-87.5 -84t-129.5 -30.5v0v0z
M230 427q51 0 84.5 29.5t33.5 84.5q0 54 -33.5 84t-84.5 30q-49 0 -83 -30t-34 -84t34 -84t83 -30v0v0zM385 50q84 0 134 48.5t50 127.5q0 78 -50 126.5t-134 48.5t-134 -48.5t-50 -126.5q0 -79 50 -127.5t134 -48.5v0v0z" />
    <glyph glyph-name="uni1C97" unicode="&#x1c97;" horiz-adv-x="994" 
d="M311 -8q-69 0 -123 31t-84.5 87.5t-30.5 131.5v216q0 75 30.5 131.5t84.5 87.5t123 31q71 0 126 -33.5t79 -98.5q18 64 66.5 98t115.5 34q96 0 149 -64t53 -166v-478h-61v470q0 86 -36.5 133t-109.5 47q-72 0 -107.5 -46.5t-35.5 -133.5v-228q0 -74 -31.5 -131t-86 -88
t-121.5 -31v0v0zM311 50q81 0 129.5 51.5t48.5 148.5v200q0 97 -48.5 148.5t-129.5 51.5q-79 0 -128 -52t-49 -148v-200q0 -96 49 -148t128 -52v0v0z" />
    <glyph glyph-name="uni1C98" unicode="&#x1c98;" horiz-adv-x="665" 
d="M94 458q0 75 30.5 131.5t84.5 87.5t123 31q67 0 121.5 -31t86 -88t31.5 -131v-458h-61v450q0 97 -48.5 148.5t-129.5 51.5q-79 0 -128 -52t-49 -148v-450h-61v458v0v0z" />
    <glyph glyph-name="uni1C99" unicode="&#x1c99;" horiz-adv-x="630" 
d="M311 -8q-78 0 -136.5 29t-89.5 80.5t-31 118.5v31h64v-31q0 -80 51 -125t142 -45q92 0 142 44t50 126q0 77 -47.5 118t-125.5 41h-57v58h67q143 0 143 138v125h61v-124q0 -69 -29.5 -110.5t-90.5 -57.5q63 -11 103 -61t40 -127q0 -70 -31.5 -121.5t-89.5 -79t-135 -27.5
v0v0z" />
    <glyph glyph-name="uni1C9A" unicode="&#x1c9a;" horiz-adv-x="1204" 
d="M521 0q-239 0 -348.5 96.5t-109.5 283.5v98q0 102 52 166t145 64q64 0 110 -32t64 -94q19 62 63.5 94t104.5 32q61 0 106 -32t63 -94q19 63 64.5 94.5t109.5 31.5q93 0 144.5 -62.5t51.5 -167.5v-182h-61v174q0 86 -35.5 133t-105.5 47q-68 0 -103 -46.5t-35 -133.5v-150
h-61v150q0 87 -35 133.5t-103 46.5t-103 -46.5t-35 -133.5v-150h-61v150q0 87 -35 133.5t-103 46.5q-70 0 -105.5 -47t-35.5 -133v-79q0 -115 40.5 -188t128 -109t228.5 -36h403v-58h-403v0v0z" />
    <glyph glyph-name="uni1C9B" unicode="&#x1c9b;" horiz-adv-x="636" 
d="M314 -8q-73 0 -130 31t-89 85.5t-32 121.5t31.5 121.5t87.5 85.5t126 31q131 0 194 -98v114q0 78 -52.5 122t-133.5 44q-49 0 -88 -17t-61 -46t-22 -63h-64q0 48 31.5 90.5t85.5 68t118 25.5q70 0 126.5 -27.5t88.5 -76t32 -110.5v-264q0 -67 -32 -121.5t-89 -85.5
t-128 -31v0v0zM314 50q85 0 136.5 49t51.5 131q0 81 -51.5 130.5t-136.5 49.5q-55 0 -97.5 -23t-66 -63.5t-23.5 -93.5q0 -80 52 -130t135 -50v0v0z" />
    <glyph glyph-name="uni1C9C" unicode="&#x1c9c;" horiz-adv-x="636" 
d="M322 -8q-71 0 -128 31t-89 85.5t-32 121.5v274q0 58 26 102t75 69t115 25h230v-58h-223q-79 0 -120.5 -37.5t-41.5 -110.5v-124q63 98 194 98q70 0 126 -31t87.5 -85.5t31.5 -121.5t-32 -121.5t-89 -85.5t-130 -31v0v0zM322 50q83 0 135 50t52 130q0 53 -23.5 93.5
t-66 63.5t-97.5 23q-85 0 -136.5 -49.5t-51.5 -130.5q0 -82 51.5 -131t136.5 -49v0v0z" />
    <glyph glyph-name="uni1C9D" unicode="&#x1c9d;" horiz-adv-x="949" 
d="M654 708q96 0 148.5 -64t52.5 -166v-478h-61v470q0 86 -36.5 133t-109.5 47q-72 0 -107.5 -46.5t-35.5 -133.5v-280h-61v280q0 87 -35.5 133.5t-107.5 46.5q-73 0 -109.5 -47t-36.5 -133v-470h-61v478q0 102 53 166t149 64q67 0 114 -31.5t65 -94.5q19 63 65 94.5
t114 31.5v0v0z" />
    <glyph glyph-name="uni1C9E" unicode="&#x1c9e;" horiz-adv-x="593" 
d="M284 -8q-78 0 -135.5 29t-88 80.5t-30.5 118.5v31h61v-31q0 -80 51 -125t142 -45q90 0 141 40t51 105q0 64 -44 99t-121 35h-55v58h77q65 0 99 20t34 59t-25 60.5t-77 39.5q-60 21 -97.5 52t-37.5 82h61q2 -33 30.5 -51.5t86.5 -39.5q123 -43 123 -138q0 -41 -30.5 -72
t-87.5 -43q59 -11 93.5 -54t34.5 -107q0 -58 -32 -104.5t-90 -72.5t-134 -26v0v0z" />
    <glyph glyph-name="uni1C9F" unicode="&#x1c9f;" horiz-adv-x="644" 
d="M306 -8q-73 0 -128 28.5t-85 80.5t-30 119h61q0 -80 49 -125t133 -45q86 0 134.5 50.5t48.5 139.5v409l-263 -46q45 -11 72.5 -42t27.5 -82q0 -65 -47 -97t-130 -32h-70v55h60q63 0 94.5 19.5t31.5 63.5t-30.5 66.5t-85.5 22.5h-39v58l379 65h61v-460q0 -72 -31 -128.5
t-86 -88t-127 -31.5v0v0z" />
    <glyph glyph-name="uni1CA0" unicode="&#x1ca0;" horiz-adv-x="897" 
d="M633 468q96 0 148.5 -64t52.5 -166v-238h-61v230q0 86 -36.5 133t-109.5 47q-72 0 -107.5 -46.5t-35.5 -133.5v-140h-61v140q0 87 -35.5 133.5t-107.5 46.5q-73 0 -109.5 -47t-36.5 -133v-230h-61v358q0 168 89 259t259 91h223v-58h-223q-135 0 -211 -65t-83 -208
q22 44 62.5 67.5t90.5 23.5q64 0 110 -32t64 -94q19 63 65 94.5t114 31.5v0v0z" />
    <glyph glyph-name="uni1CA1" unicode="&#x1ca1;" horiz-adv-x="660" 
d="M345 -8q-74 0 -131 30t-88.5 86t-31.5 132v460h64v-452q0 -98 50.5 -148t136.5 -50t137 43t51 118q0 40 -13.5 66.5t-41.5 61.5q-27 33 -40 58.5t-13 62.5h61q0 -25 11 -44t34 -47q32 -38 49 -72t17 -86q0 -62 -32.5 -112t-90 -78.5t-129.5 -28.5v0v0z" />
    <glyph glyph-name="uni1CA2" unicode="&#x1ca2;" horiz-adv-x="791" 
d="M396 -8q-93 0 -169 41.5t-120 118t-44 177.5q0 98 39 172.5t108 117.5t157 50l-2 39h61l-2 -39q88 -7 157 -49.5t108 -117.5t39 -173q0 -101 -44 -177.5t-119.5 -118t-168.5 -41.5v0v0zM396 50q75 0 136 33.5t96.5 97t35.5 148.5q0 83 -31.5 145t-86 97.5t-124.5 42.5
q4 -51 4 -163v-166h-61v164q0 113 4 164q-70 -7 -125 -42t-86 -97t-31 -145q0 -85 36 -148.5t97 -97t136 -33.5v0v0z" />
    <glyph glyph-name="uni1CA3" unicode="&#x1ca3;" horiz-adv-x="631" 
d="M314 -8q-72 0 -127.5 31t-85.5 85.5t-30 121.5v51h61v-51q0 -81 49.5 -130.5t132.5 -49.5q86 0 134.5 50.5t48.5 139.5v275q0 67 -30 101t-81 34q-50 0 -78 -33.5t-28 -101.5v-111h-61v111q0 68 -31.5 99t-91.5 31h-43v58h52q50 0 90 -24.5t54 -75.5q15 53 53 79t90 26
q48 0 85.5 -23t59 -65t21.5 -97v-283q0 -72 -31 -128.5t-86 -88t-127 -31.5v0v0z" />
    <glyph glyph-name="uni1CA4" unicode="&#x1ca4;" horiz-adv-x="875" 
d="M506 -26q-86 0 -148 27t-94 71t-32 95h61q0 -37 24.5 -67.5t72.5 -49t116 -18.5q111 0 166.5 40.5t55.5 109.5q0 56 -32.5 95t-100.5 39h-26v58h36q68 0 107 32t39 97q0 71 -33.5 109t-97.5 38q-57 0 -92 -39t-35 -108v-23q0 -66 -26 -118t-74 -81t-112 -29
q-67 0 -116 29t-75.5 80.5t-26.5 118.5q0 66 26.5 118t75 81t111.5 29q68 0 116.5 -31t68.5 -91q17 59 62 90.5t102 31.5q86 0 136.5 -55.5t50.5 -142.5q0 -66 -34 -110t-93 -60q52 -12 79.5 -56t27.5 -102q0 -60 -33.5 -107t-98 -74t-154.5 -27v0v0zM281 308q71 0 112 46
t41 126t-41 126t-112 46q-73 0 -115.5 -46.5t-42.5 -125.5q0 -80 41.5 -126t116.5 -46v0v0z" />
    <glyph glyph-name="uni1CA5" unicode="&#x1ca5;" horiz-adv-x="644" 
d="M306 -8q-72 0 -127.5 31t-85.5 85.5t-30 121.5v26h61v-26q0 -81 49.5 -130.5t132.5 -49.5q86 0 134.5 50.5t48.5 139.5v139q0 88 -49.5 134.5t-123.5 46.5q-75 0 -119.5 -41t-44.5 -114v-18h-61v18q0 63 28.5 111.5t78.5 75t110 26.5q58 0 105.5 -24.5t75.5 -74.5v181h61
v-460q0 -72 -31 -128.5t-86 -88t-127 -31.5v0v0z" />
    <glyph glyph-name="uni1CA6" unicode="&#x1ca6;" horiz-adv-x="887" 
d="M421 0q-172 0 -265 87.5t-93 252.5v138q0 102 53 166t149 64q67 0 114 -31.5t65 -94.5q19 63 65 94.5t114 31.5q96 0 148.5 -64t52.5 -166v-182h-61v174q0 86 -36.5 133t-109.5 47q-72 0 -107.5 -46.5t-35.5 -133.5v-150h-61v150q0 87 -35.5 133.5t-107.5 46.5
q-73 0 -109.5 -47t-36.5 -133v-119q0 -150 77.5 -221.5t219.5 -71.5h283v-58h-283v0v0z" />
    <glyph glyph-name="uni1CA7" unicode="&#x1ca7;" horiz-adv-x="645" 
d="M307 -8q-71 0 -124 28.5t-81.5 80.5t-28.5 119h61q0 -80 46 -125t127 -45q87 0 134.5 46t47.5 134v190q-30 -46 -76 -72t-108 -26q-66 0 -119 27.5t-83 79.5t-30 123v148h61v-140q0 -85 49 -132.5t128 -47.5q80 0 129 49.5t49 138.5v132h61l1 -470q0 -112 -66.5 -175
t-177.5 -63v0v0z" />
    <glyph glyph-name="uni1CA8" unicode="&#x1ca8;" horiz-adv-x="636" 
d="M314 -8q-73 0 -130 31t-89 85.5t-32 121.5t31.5 121.5t87.5 85.5t126 31q131 0 194 -98v155q0 60 -31 92.5t-83 32.5q-47 0 -75 -26.5t-28 -78.5v-22h-61v22q0 52 -26.5 76t-82.5 24h-47v58h56q104 0 130 -83q15 45 52 66.5t88 21.5q49 0 87.5 -22.5t60 -62.5t21.5 -90
v-303q0 -67 -32 -121.5t-89 -85.5t-128 -31v0v0zM314 50q85 0 136.5 49t51.5 131q0 81 -51.5 130.5t-136.5 49.5q-55 0 -97.5 -23t-66 -63.5t-23.5 -93.5q0 -80 52 -130t135 -50v0v0z" />
    <glyph glyph-name="uni1CA9" unicode="&#x1ca9;" horiz-adv-x="635" 
d="M94 516q0 56 25.5 100t70 68t98.5 24q56 0 98.5 -20t66 -53.5t23.5 -73.5q0 -89 -103 -130q91 -7 145 -67.5t54 -155.5v-208h-61v200q0 85 -49 132.5t-128 47.5q-80 0 -129 -49.5t-49 -138.5v-192h-61l-1 516v0v0zM156 340q23 35 56 57.5t78 40.5q61 25 92 50t31 67
q0 45 -33 70t-92 25t-95.5 -38.5t-36.5 -101.5v-170v0v0z" />
    <glyph glyph-name="uni1CAA" unicode="&#x1caa;" horiz-adv-x="697" 
d="M368 -8q-133 0 -203.5 73t-70.5 205v430h61v-430q0 -220 213 -220q60 0 106 18.5t71 51.5t25 75q0 64 -44 99t-121 35h-55v58h77q65 0 99 20t34 59q0 37 -19.5 59t-58.5 46q-44 28 -66.5 55t-22.5 74h61q2 -30 20.5 -48.5t55.5 -42.5q30 -19 49 -35.5t32 -41.5t13 -61
q0 -41 -30.5 -72t-87.5 -43q59 -11 93.5 -54t34.5 -107q0 -58 -34.5 -104t-95 -72.5t-136.5 -26.5v0v0z" />
    <glyph glyph-name="uni1CAB" unicode="&#x1cab;" horiz-adv-x="647" 
d="M304 -8q-73 0 -130 31t-89 85.5t-32 121.5t31.5 121.5t87.5 85.5t126 31q131 0 194 -98v330h61v-470q0 -67 -32 -121.5t-89 -85.5t-128 -31v0v0zM304 50q85 0 136.5 49t51.5 131q0 81 -51.5 130.5t-136.5 49.5q-55 0 -97.5 -23t-66 -63.5t-23.5 -93.5q0 -80 52 -130
t135 -50v0v0z" />
    <glyph glyph-name="uni1CAC" unicode="&#x1cac;" horiz-adv-x="636" 
d="M322 -8q-71 0 -128 31t-89 85.5t-32 121.5v303q0 50 21.5 90t60 62.5t87.5 22.5q51 0 88 -21.5t52 -66.5q26 83 130 83h56v-58h-47q-56 0 -82.5 -24t-26.5 -76v-22h-61v22q0 52 -28 78.5t-75 26.5q-52 0 -83 -32.5t-31 -92.5v-155q63 98 194 98q70 0 126 -31t87.5 -85.5
t31.5 -121.5t-32 -121.5t-89 -85.5t-130 -31v0v0zM322 50q83 0 135 50t52 130q0 53 -23.5 93.5t-66 63.5t-97.5 23q-85 0 -136.5 -49.5t-51.5 -130.5q0 -82 51.5 -131t136.5 -49v0v0z" />
    <glyph glyph-name="uni1CAD" unicode="&#x1cad;" horiz-adv-x="658" 
d="M300 -8q-73 0 -128 28.5t-85 80.5t-30 119h61q0 -80 49 -125t133 -45q86 0 134.5 46t48.5 134v145q-29 -44 -74 -64.5t-114 -20.5q-95 0 -148 43t-53 111q0 70 50 110.5t138 40.5h201v105h61v-105h93v-55h-93v-310q0 -71 -31 -125t-86.5 -83.5t-126.5 -29.5v0v0zM312 348
q74 0 122.5 33.5t48.5 101.5v57h-191q-60 0 -97.5 -23.5t-37.5 -72.5q0 -47 40.5 -71.5t114.5 -24.5v0v0z" />
    <glyph glyph-name="uni1CAE" unicode="&#x1cae;" horiz-adv-x="647" 
d="M343 -8q-71 0 -128 31t-89 85.5t-32 121.5v470h61v-330q63 98 194 98q70 0 126 -31t87.5 -85.5t31.5 -121.5t-32 -121.5t-89 -85.5t-130 -31v0v0zM343 50q83 0 135 50t52 130q0 53 -23.5 93.5t-66 63.5t-97.5 23q-85 0 -136.5 -49.5t-51.5 -130.5q0 -82 51.5 -131
t136.5 -49v0v0z" />
    <glyph glyph-name="uni1CAF" unicode="&#x1caf;" horiz-adv-x="639" 
d="M343 421q66 0 119 -25.5t83.5 -72.5t30.5 -109q0 -67 -32 -117.5t-89.5 -77.5t-134.5 -27q-78 0 -136.5 29t-89.5 80.5t-31 118.5v31h64v-31q0 -80 51 -125t142 -45q92 0 142 43t50 121q0 72 -48.5 111.5t-129.5 39.5h-52v175h-199v55h199v105h61v-105h213v-55h-213v-119
v0v0z" />
    <glyph glyph-name="uni1CB0" unicode="&#x1cb0;" horiz-adv-x="583" 
d="M284 -8q-77 0 -135 25t-88.5 68t-30.5 95h61q2 -59 53 -94.5t140 -35.5q78 0 125 27.5t47 74.5q0 93 -165 93h-45v56h106q56 0 80 14t24 43q0 57 -104 57h-106v56h67q51 0 77.5 3t41 15t14.5 37q0 20 -14.5 32.5t-34 19t-61.5 18.5q-61 17 -94 38t-33 66h61
q0 -23 24.5 -34.5t80.5 -27.5q43 -12 70 -23.5t46 -31.5t19 -52q0 -39 -23 -59t-75 -29q50 -3 79 -26t29 -59q0 -35 -29 -59t-79 -30q50 -8 79 -37.5t29 -73.5q0 -45 -29 -83t-82.5 -60.5t-124.5 -22.5v0v0z" />
    <glyph glyph-name="Wgrave" unicode="&#x1e80;" horiz-adv-x="1104" 
d="M504 899l110 -150h-57l-125 150h72zM762 0l-210 621l-209 -621h-75l-236 700h65l209 -632l213 632h68l212 -631l210 631h63l-236 -700h-74z" />
    <glyph glyph-name="wgrave" unicode="&#x1e81;" horiz-adv-x="863" 
d="M375 691l110 -150h-57l-125 150h72zM778 471h59l-184 -471h-67l-155 411l-154 -411h-67l-184 471h60l159 -412l155 412h64l155 -413z" />
    <glyph glyph-name="Wacute" unicode="&#x1e82;" horiz-adv-x="1104" 
d="M597 899h72l-126 -150h-56zM762 0l-210 621l-209 -621h-75l-236 700h65l209 -632l213 632h68l212 -631l210 631h63l-236 -700h-74z" />
    <glyph glyph-name="wacute" unicode="&#x1e83;" horiz-adv-x="863" 
d="M483 691h72l-126 -150h-56zM778 471h59l-184 -471h-67l-155 411l-154 -411h-67l-184 471h60l159 -412l155 412h64l155 -413z" />
    <glyph glyph-name="Wdieresis" unicode="&#x1e84;" horiz-adv-x="1104" 
d="M450 863q17 0 29 -12.5t12 -29.5t-12 -28.5t-29 -11.5t-29 11.5t-12 28.5t12 29.5t29 12.5v0v0zM654 863q17 0 29.5 -12.5t12.5 -29.5t-12.5 -28.5t-29.5 -11.5t-28.5 11.5t-11.5 28.5t11.5 29.5t28.5 12.5v0v0zM762 0l-210 621l-209 -621h-75l-236 700h65l209 -632
l213 632h68l212 -631l210 631h63l-236 -700h-74z" />
    <glyph glyph-name="wdieresis" unicode="&#x1e85;" horiz-adv-x="863" 
d="M329 655q17 0 29 -12t12 -29t-12 -29t-29 -12t-28.5 12t-11.5 29t11.5 29t28.5 12v0v0zM534 655q17 0 29 -12t12 -29t-12 -29t-29 -12t-29 12t-12 29t12 29t29 12v0v0zM778 471h59l-184 -471h-67l-155 411l-154 -411h-67l-184 471h60l159 -412l155 412h64l155 -413z" />
    <glyph glyph-name="Ygrave" unicode="&#x1ef2;" horiz-adv-x="632" 
d="M268 899l110 -150h-56l-126 150h72zM347 0h-61v301l-280 399h73l238 -342l237 342h72l-279 -400v-300z" />
    <glyph glyph-name="ygrave" unicode="&#x1ef3;" horiz-adv-x="514" 
d="M203 691l110 -150h-57l-125 150h72zM53 -202l180 307l-221 366h64l190 -310l177 310h63l-390 -673h-63z" />
    <glyph glyph-name="figuredash" unicode="&#x2012;" 
d="M63 238v51h475v-51h-475z" />
    <glyph glyph-name="endash" unicode="&#x2013;" horiz-adv-x="601" 
d="M63 238v51h475v-51h-475z" />
    <glyph glyph-name="emdash" unicode="&#x2014;" horiz-adv-x="813" 
d="M32 238v51h750v-51h-750z" />
    <glyph glyph-name="quoteleft" unicode="&#x2018;" horiz-adv-x="244" 
d="M123 720h50l-31 -241h-67z" />
    <glyph glyph-name="quoteright" unicode="&#x2019;" horiz-adv-x="244" 
d="M121 479h-49l31 241h66z" />
    <glyph glyph-name="quotesinglbase" unicode="&#x201a;" horiz-adv-x="244" 
d="M121 -125h-49l31 242h66z" />
    <glyph glyph-name="quotedblleft" unicode="&#x201c;" horiz-adv-x="411" 
d="M123 720h50l-31 -241h-67zM290 720h49l-31 -241h-66z" />
    <glyph glyph-name="quotedblright" unicode="&#x201d;" horiz-adv-x="411" 
d="M121 479h-49l31 241h66zM288 479h-50l31 241h67z" />
    <glyph glyph-name="quotedblbase" unicode="&#x201e;" horiz-adv-x="411" 
d="M121 -125h-49l31 242h66zM288 -125h-50l31 242h67z" />
    <glyph glyph-name="dagger" unicode="&#x2020;" horiz-adv-x="357" 
d="M155 572h-102v46h102v102h47v-102h102v-46h-102v-221h-47v221z" />
    <glyph glyph-name="daggerdbl" unicode="&#x2021;" horiz-adv-x="357" 
d="M304 628v-46h-102v-93h102v-47h-102v-91h-47v91h-102v47h102v93h-102v46h102v92h47v-92h102z" />
    <glyph glyph-name="bullet" unicode="&#x2022;" horiz-adv-x="437" 
d="M219 359q39 0 67 -27.5t28 -67.5t-28 -68t-67 -28q-40 0 -68 28t-28 68t28 67.5t68 27.5v0v0z" />
    <glyph glyph-name="ellipsis" unicode="&#x2026;" horiz-adv-x="705" 
d="M130 89q19 0 33.5 -14t14.5 -33q0 -20 -14.5 -34.5t-33.5 -14.5t-33.5 15t-14.5 34t14.5 33t33.5 14v0v0zM353 89q19 0 33 -14t14 -33q0 -20 -14 -34.5t-33 -14.5t-33.5 14.5t-14.5 34.5q0 19 14.5 33t33.5 14v0v0zM575 89q19 0 33.5 -14t14.5 -33t-14.5 -34t-33.5 -15
t-33.5 14.5t-14.5 34.5q0 19 14.5 33t33.5 14v0v0z" />
    <glyph glyph-name="perthousand" unicode="&#x2030;" horiz-adv-x="1372" 
d="M228 708q50 0 91 -23t64.5 -63.5t23.5 -90.5t-23.5 -90.5t-64.5 -63.5t-91 -23q-49 0 -89.5 23t-64 63.5t-23.5 90.5t23.5 90.5t64 63.5t89.5 23v0v0zM228 658q-53 0 -88.5 -36t-35.5 -91q0 -54 35.5 -90t88.5 -36q54 0 90 35.5t36 90.5t-36 91t-90 36v0v0zM727 346
q50 0 91 -23.5t64.5 -64t23.5 -89.5q0 -50 -23.5 -90.5t-64.5 -63.5t-91 -23t-90.5 23t-63.5 63.5t-23 90.5t23 90.5t63.5 63.5t90.5 23v0v0zM1143 346q50 0 91 -23t64.5 -63.5t23.5 -90.5t-23.5 -90.5t-64.5 -63.5t-91 -23t-90.5 23t-64 63.5t-23.5 90.5t23.5 90.5t64 63.5
t90.5 23v0v0zM727 296q-53 0 -88.5 -36t-35.5 -91q0 -54 35.5 -90t88.5 -36q54 0 90 35.5t36 90.5t-36 91t-90 36v0v0zM1143 296q-53 0 -88.5 -36t-35.5 -91t35.5 -90.5t88.5 -35.5q54 0 89.5 35.5t35.5 90.5t-35.5 91t-89.5 36v0v0zM228 0l441 700h60l-441 -700h-60z" />
    <glyph glyph-name="minute" unicode="&#x2032;" horiz-adv-x="267" 
d="M126 392h-54l65 308h55z" />
    <glyph glyph-name="second" unicode="&#x2033;" horiz-adv-x="415" 
d="M126 392h-54l65 308h55zM275 392h-55l66 308h54z" />
    <glyph glyph-name="guilsinglleft" unicode="&#x2039;" horiz-adv-x="310" 
d="M166 82l-96 182l96 182h62l-97 -182l97 -182h-62z" />
    <glyph glyph-name="guilsinglright" unicode="&#x203a;" horiz-adv-x="310" 
d="M144 446l96 -182l-96 -182h-62l97 182l-97 182h62z" />
    <glyph glyph-name="fraction" unicode="&#x2044;" horiz-adv-x="210" 
d="M-145 0l442 700h58l-442 -700h-58z" />
    <glyph glyph-name="Euro" unicode="&#x20ac;" horiz-adv-x="715" 
d="M414 -15q-118 0 -196.5 69t-102.5 189h-87v49h80q-2 34 -2 55q0 20 2 56h-80v48h87q24 120 102.5 189t196.5 69q80 0 141.5 -33.5t100.5 -92.5l-40 -41q-32 53 -83 82.5t-119 29.5q-93 0 -154.5 -54t-82.5 -149h341v-48h-348q-3 -27 -3 -56t3 -55h348v-49h-341
q21 -95 82.5 -148.5t154.5 -53.5q68 0 119 29.5t84 82.5l38 -39q-39 -62 -99.5 -95.5t-141.5 -33.5v0v0z" />
    <glyph glyph-name="uni20BD" unicode="&#x20bd;" horiz-adv-x="677" 
d="M187 305v-91h236v-58h-236v-156h-61v156h-104v58h104v91h-105v58h105v337h268q113 0 171 -52t58 -145t-58 -145.5t-171 -52.5h-207v0v0zM187 363h205q168 0 168 140t-168 140h-205v-280v0v0z" />
    <glyph glyph-name="uni20BE" unicode="&#x20be;" horiz-adv-x="815" 
d="M244 55q-91 45 -136 121t-45 175q0 123 64 212.5t171 120.5v109h53v-97q24 4 57 4t58 -4v97h53v-109q106 -31 169.5 -121t63.5 -212h-63q0 99 -44.5 172t-125.5 100v-272h-53v288q-32 5 -58 5q-27 0 -57 -5v-288h-53v273q-82 -27 -127 -100t-45 -173q0 -86 37 -153
t105.5 -104.5t159.5 -37.5h245v-56h-547v55h118v0v0z" />
    <glyph glyph-name="trademark" unicode="&#x2122;" horiz-adv-x="674" 
d="M591 645l-89 -190h-42l-89 190v-221h-42v277h59l93 -199l93 199h58v-277h-41v221zM138 662h-96v38h233v-38h-96v-238h-41v238z" />
    <glyph glyph-name="estimated" unicode="&#x212e;" horiz-adv-x="1000" 
d="M219 162q0 -38 11 -64.5t38 -47.5q49 -37 108 -57t124 -20q98 0 180 43t133 119l18 -14q-53 -81 -140.5 -126t-190.5 -45q-109 0 -200 50.5t-144 141.5t-53 208t53 208t144 141.5t200 50.5t200 -50.5t144 -141.5t53 -208v-11h-678v-177v0v0zM785 535q0 37 -10.5 64
t-37.5 48q-48 39 -108.5 59.5t-128.5 20.5q-66 0 -125 -19.5t-107 -56.5q-27 -22 -38 -48.5t-11 -64.5v-176h566v173v0v0z" />
    <glyph glyph-name="uni2153" unicode="&#x2153;" horiz-adv-x="821" 
d="M638 387q58 0 94.5 -28.5t36.5 -74.5q0 -33 -18 -56.5t-49 -34.5q34 -10 54.5 -34t20.5 -56q0 -52 -39.5 -80t-96.5 -28q-77 0 -124 50l28 31q39 -37 94 -37q38 0 63.5 17.5t25.5 50.5q0 30 -26 47.5t-65 17.5h-51v42h51q37 0 60 17.5t23 48.5q0 29 -23.5 46.5
t-60.5 17.5q-28 0 -50.5 -11.5t-37.5 -30.5l-29 30q43 55 119 55v0v0zM142 317v321l-116 -48v47l163 67v-387h-47zM137 0l441 700h58l-442 -700h-57z" />
    <glyph glyph-name="uni2154" unicode="&#x2154;" horiz-adv-x="883" 
d="M33 640q46 64 123 64q58 0 91 -32.5t33 -84.5q0 -32 -14 -58.5t-41 -53.5l-112 -114h180v-44h-248v37l146 148q40 38 40 82q0 33 -21 54t-58 21q-52 0 -88 -49l-31 30v0v0zM700 387q58 0 94.5 -28.5t36.5 -74.5q0 -33 -18 -56.5t-49 -34.5q34 -10 54.5 -34t20.5 -56
q0 -52 -39.5 -80t-96.5 -28q-77 0 -124 50l28 31q39 -37 94 -37q38 0 63.5 17.5t25.5 50.5q0 30 -26 47.5t-65 17.5h-51v42h51q37 0 60 17.5t23 48.5q0 29 -23.5 46.5t-60.5 17.5q-28 0 -50.5 -11.5t-37.5 -30.5l-29 30q43 55 119 55v0v0zM199 0l442 700h57l-441 -700h-58z
" />
    <glyph glyph-name="oneeighth" unicode="&#x215b;" horiz-adv-x="855" 
d="M667 387q58 0 96.5 -27.5t38.5 -75.5q0 -34 -19 -56.5t-51 -33.5q36 -11 58 -34t22 -58q0 -50 -41.5 -78.5t-103.5 -28.5t-103.5 28.5t-41.5 78.5q0 35 22 58t58 34q-32 11 -51 33.5t-19 56.5q0 48 38.5 75.5t96.5 27.5v0v0zM667 346q-36 0 -60.5 -17.5t-24.5 -48.5
q0 -32 24.5 -49.5t60.5 -17.5q37 0 61 17.5t24 49.5q0 31 -24 48.5t-61 17.5v0v0zM667 175q-40 0 -67 -18.5t-27 -50.5q0 -33 27 -51.5t67 -18.5t67 18.5t27 51.5q0 32 -27 50.5t-67 18.5v0v0zM142 317v321l-116 -48v47l163 67v-387h-47zM137 0l441 700h58l-442 -700h-57z
" />
    <glyph glyph-name="threeeighths" unicode="&#x215c;" horiz-adv-x="903" 
d="M147 704q58 0 94 -28.5t36 -74.5q0 -34 -17.5 -57t-48.5 -34q34 -10 54 -33.5t20 -56.5q0 -52 -39.5 -79.5t-95.5 -27.5q-78 0 -124 49l27 31q39 -37 95 -37q38 0 63 17.5t25 50.5q0 30 -26 47.5t-64 17.5h-52v42h52q36 0 59 17.5t23 48.5q0 29 -23 46.5t-60 17.5
q-56 0 -89 -42l-29 30q45 55 120 55v0v0zM715 387q58 0 96.5 -27.5t38.5 -75.5q0 -34 -19.5 -56.5t-51.5 -33.5q36 -11 58 -34t22 -58q0 -50 -41 -78.5t-103 -28.5t-103.5 28.5t-41.5 78.5q0 35 22 58t58 34q-32 11 -51.5 33.5t-19.5 56.5q0 48 39 75.5t97 27.5v0v0z
M715 346q-37 0 -61 -17.5t-24 -48.5q0 -32 24 -49.5t61 -17.5q36 0 60.5 17.5t24.5 49.5q0 31 -24.5 48.5t-60.5 17.5v0v0zM715 175q-41 0 -67.5 -18t-26.5 -51t26.5 -51.5t67.5 -18.5q40 0 66.5 18.5t26.5 51.5t-26.5 51t-66.5 18v0v0zM185 0l441 700h58l-442 -700h-57z
" />
    <glyph glyph-name="fiveeighths" unicode="&#x215d;" horiz-adv-x="917" 
d="M108 548h51q67 0 104 -31t37 -81q0 -56 -38 -89.5t-97 -33.5q-82 0 -132 55l29 32q19 -21 45.5 -32.5t56.5 -11.5q41 0 64 21t23 55q0 33 -25 53.5t-77 20.5h-85l6 194h212v-44h-171l-3 -108v0v0zM729 387q58 0 96.5 -27.5t38.5 -75.5q0 -34 -19.5 -56.5t-51.5 -33.5
q36 -11 58 -34t22 -58q0 -50 -41 -78.5t-103 -28.5t-103.5 28.5t-41.5 78.5q0 35 22 58t58 34q-32 11 -51.5 33.5t-19.5 56.5q0 48 39 75.5t97 27.5v0v0zM729 346q-37 0 -61 -17.5t-24 -48.5q0 -32 24 -49.5t61 -17.5q36 0 60.5 17.5t24.5 49.5q0 31 -24.5 48.5t-60.5 17.5
v0v0zM729 175q-41 0 -67.5 -18t-26.5 -51t26.5 -51.5t67.5 -18.5q40 0 66.5 18.5t26.5 51.5t-26.5 51t-66.5 18v0v0zM199 0l441 700h58l-442 -700h-57z" />
    <glyph glyph-name="seveneighths" unicode="&#x215e;" horiz-adv-x="839" 
d="M651 387q58 0 96.5 -27.5t38.5 -75.5q0 -34 -19.5 -56.5t-51.5 -33.5q36 -11 58 -34t22 -58q0 -50 -41 -78.5t-103 -28.5t-103.5 28.5t-41.5 78.5q0 35 22 58t58 34q-32 11 -51.5 33.5t-19.5 56.5q0 48 39 75.5t97 27.5v0v0zM651 346q-37 0 -61 -17.5t-24 -48.5
q0 -32 24 -49.5t61 -17.5q36 0 60.5 17.5t24.5 49.5q0 31 -24.5 48.5t-60.5 17.5v0v0zM651 175q-41 0 -67.5 -18t-26.5 -51t26.5 -51.5t67.5 -18.5q40 0 66.5 18.5t26.5 51.5t-26.5 51t-66.5 18v0v0zM125 317h-55l171 338h-210v45h266v-37zM121 0l441 700h58l-442 -700h-57z
" />
    <glyph glyph-name="partialdiff" unicode="&#x2202;" horiz-adv-x="591" 
d="M165 725q104 -45 187.5 -121t131.5 -171t48 -194q0 -69 -32 -125.5t-88.5 -89t-124.5 -32.5t-124 31.5t-88 86.5t-32 122t30.5 122t84 86.5t119.5 31.5q52 0 97 -23t74 -65q-71 186 -309 295l26 46v0v0zM287 418q-52 0 -94.5 -24t-67 -66.5t-24.5 -95.5t24.5 -95.5
t67 -66.5t94.5 -24t94.5 24t67 66.5t24.5 95.5t-24.5 95.5t-67 66.5t-94.5 24v0v0z" />
    <glyph glyph-name="product" unicode="&#x220f;" horiz-adv-x="728" 
d="M562 -133v775h-396v-775h-61v833h518v-833h-61z" />
    <glyph glyph-name="summation" unicode="&#x2211;" horiz-adv-x="659" 
d="M154 642l292 -335v-34l-294 -348h444v-58h-533v48l318 373l-317 365v47h531v-58h-441z" />
    <glyph glyph-name="minus" unicode="&#x2212;" 
d="M87 238v51h426v-51h-426z" />
    <glyph glyph-name="radical" unicode="&#x221a;" horiz-adv-x="611" 
d="M222 -133l-205 501h68l175 -429l269 781h62l-293 -853h-76z" />
    <glyph glyph-name="infinity" unicode="&#x221e;" horiz-adv-x="804" 
d="M199 79q-46 0 -85.5 22.5t-62.5 63.5t-23 95t23 95.5t62.5 63.5t85.5 22q36 0 67.5 -17t58.5 -43.5t77 -81.5q47 53 75.5 80.5t60 44.5t68.5 17q46 0 85.5 -22t62.5 -63.5t23 -95.5t-23 -95t-62.5 -63.5t-85.5 -22.5q-36 0 -68 17t-60 44.5t-76 81.5q-49 -55 -76.5 -82
t-59 -44t-67.5 -17v0v0zM199 131q26 0 49.5 14t47 37.5t71.5 77.5q-48 54 -71.5 77.5t-47 37.5t-49.5 14q-50 0 -83.5 -34.5t-33.5 -94.5t33.5 -94.5t83.5 -34.5v0v0zM606 131q50 0 83.5 34.5t33.5 94.5t-33.5 94.5t-83.5 34.5q-26 0 -49.5 -14t-47 -37.5t-72.5 -77.5
q49 -54 72.5 -77.5t47 -37.5t49.5 -14v0v0z" />
    <glyph glyph-name="integral" unicode="&#x222b;" horiz-adv-x="340" 
d="M315 650q-15 4 -36 4q-50 0 -72.5 -29t-22.5 -86v-510q0 -79 -35.5 -124t-112.5 -45q-29 0 -55 6l15 51q24 -4 37 -4q95 0 95 116v510q0 79 35.5 124t112.5 45q30 0 55 -6l-16 -52v0v0z" />
    <glyph glyph-name="congruent" unicode="&#x2245;" 
d="M518 539q-26 -30 -56 -44t-71 -14q-31 0 -52.5 6t-48.5 18q-24 11 -42 16.5t-43 5.5q-27 0 -48 -10.5t-44 -34.5l-32 36q27 30 57 44t70 14q31 0 53 -6t49 -18q26 -11 43.5 -16.5t41.5 -5.5q27 0 48 11t44 34l31 -36v0v0zM87 326v51h426v-51h-426zM87 150v52h426v-52
h-426z" />
    <glyph glyph-name="approxequal" unicode="&#x2248;" 
d="M518 362q-26 -30 -56 -44t-71 -14q-31 0 -52.5 6t-48.5 18q-24 11 -42 16.5t-43 5.5q-27 0 -48 -10.5t-44 -34.5l-32 36q27 30 57 44t70 14q31 0 53 -6t49 -18q26 -11 43.5 -16.5t41.5 -5.5q27 0 48 11t44 34l31 -36v0v0zM518 188q-26 -30 -56 -44t-71 -14q-31 0 -52.5 6
t-48.5 18q-24 11 -42 16.5t-43 5.5q-27 0 -48 -10.5t-44 -34.5l-32 36q27 30 57 44t70 14q31 0 53 -6t49 -18q26 -11 43.5 -16.5t41.5 -5.5q27 0 48 11t44 34l31 -36v0v0z" />
    <glyph glyph-name="notequal" unicode="&#x2260;" 
d="M272 150l-64 -131h-54l63 131h-130v52h156l60 124h-216v51h241l64 131h55l-64 -131h130v-51h-155l-61 -124h216v-52h-241z" />
    <glyph glyph-name="lessequal" unicode="&#x2264;" 
d="M168 342l325 -138v-61l-385 171v57l385 171v-61zM493 88v-52h-385v52h385z" />
    <glyph glyph-name="greaterequal" unicode="&#x2265;" 
d="M493 371v-57l-385 -171v61l325 138l-325 139v61zM108 36v52h385v-52h-385z" />
    <glyph glyph-name="dotmath" unicode="&#x22c5;" 
d="M300 312q20 0 34 -14t14 -34q0 -19 -14 -33.5t-34 -14.5q-19 0 -33.5 14.5t-14.5 33.5t14.5 33.5t33.5 14.5v0v0z" />
    <glyph glyph-name="lozenge" unicode="&#x25ca;" horiz-adv-x="776" 
d="M355 0l-302 350l302 350h66l302 -350l-302 -350h-66zM127 351l262 -299l260 298l-262 298z" />
    <glyph glyph-name="uniEA00" unicode="&#xea00;" horiz-adv-x="900" 
d="M577 281l79 -241l-205 149l-205 -149l78 241l-205 149h254l78 241l78 -241h253zM451 233l137 -100l-53 162l137 100h-169l-52 161v-323z" />
    <glyph glyph-name="uniEA01" unicode="&#xea01;" horiz-adv-x="900" 
d="M324 281l-205 149h254l78 241v-482l-205 -149z" />
    <glyph glyph-name="i.latn_TRK" horiz-adv-x="239" 
d="M120 681q17 0 29 -12t12 -29t-12 -29t-29 -12t-29 12t-12 29t12 29t29 12v0v0zM91 0v471h57v-471h-57z" />
    <glyph glyph-name="j.latn_NLD" horiz-adv-x="240" 
d="M150 -89q0 -56 -28 -86.5t-77 -30.5q-17 0 -35.5 4.5t-30.5 11.5l14 49q22 -12 47 -12q53 0 53 66v558h57v-560v0v0zM172 691h72l-126 -150h-56z" />
    <glyph glyph-name="Ldot.latn_CAT" horiz-adv-x="602" 
d="M423 395q18 0 30 -12.5t12 -30.5q0 -17 -12 -29t-30 -12t-30 12t-12 29q0 18 12 30.5t30 12.5v0v0zM105 0v700h61v-642h415v-58h-476z" />
    <glyph glyph-name="ldot.latn_CAT" horiz-adv-x="284" 
d="M259 407q17 0 29 -12.5t12 -29.5t-12 -28.5t-29 -11.5t-28.5 11.5t-11.5 28.5t11.5 29.5t28.5 12.5v0v0zM91 0v720h57v-720h-57z" />
    <glyph glyph-name="zero.numr" horiz-adv-x="424" 
d="M212 704q45 0 81.5 -23.5t58 -68t21.5 -104.5q0 -59 -21.5 -103.5t-58 -68t-81.5 -23.5t-81.5 23.5t-58 68t-21.5 103.5q0 60 21.5 104.5t58 68t81.5 23.5v0v0zM212 659q-48 0 -80 -40.5t-32 -110.5t32 -110t80 -40t80 40t32 110t-32 110.5t-80 40.5v0v0z" />
    <glyph glyph-name="one.numr" horiz-adv-x="271" 
d="M142 317v321l-116 -48v47l163 67v-387h-47z" />
    <glyph glyph-name="two.numr" horiz-adv-x="329" 
d="M33 640q46 64 123 64q58 0 91 -32.5t33 -84.5q0 -32 -14 -58.5t-41 -53.5l-112 -114h180v-44h-248v37l146 148q40 38 40 82q0 33 -21 54t-58 21q-52 0 -88 -49l-31 30v0v0z" />
    <glyph glyph-name="three.numr" horiz-adv-x="329" 
d="M147 704q58 0 94 -28.5t36 -74.5q0 -34 -17.5 -57t-48.5 -34q34 -10 54 -33.5t20 -56.5q0 -52 -39.5 -79.5t-95.5 -27.5q-78 0 -124 49l27 31q39 -37 95 -37q38 0 63 17.5t25 50.5q0 30 -26 47.5t-64 17.5h-52v42h52q36 0 59 17.5t23 48.5q0 29 -23 46.5t-60 17.5
q-56 0 -89 -42l-29 30q45 55 120 55v0v0z" />
    <glyph glyph-name="four.numr" horiz-adv-x="335" 
d="M315 439v-43h-64v-79h-48v79h-182v34l137 269h52l-133 -260h126v90l11 19h37v-109h64z" />
    <glyph glyph-name="five.numr" horiz-adv-x="346" 
d="M108 548h51q67 0 104 -31t37 -81q0 -56 -38 -89.5t-97 -33.5q-82 0 -132 55l29 32q19 -21 45.5 -32.5t56.5 -11.5q41 0 64 21t23 55q0 33 -25 53.5t-77 20.5h-85l6 194h212v-44h-171l-3 -108v0v0z" />
    <glyph glyph-name="six.numr" horiz-adv-x="343" 
d="M132 554q21 8 45 8q58 0 95.5 -35.5t37.5 -87.5q0 -55 -39.5 -90.5t-99.5 -35.5t-100 35.5t-40 89.5q0 41 28 83l113 179h57l-97 -146v0v0zM171 522q-40 0 -65.5 -23.5t-25.5 -60.5q0 -36 25.5 -59.5t65.5 -23.5q39 0 64.5 23.5t25.5 59.5q0 37 -25.5 60.5t-64.5 23.5v0
v0z" />
    <glyph glyph-name="seven.numr" horiz-adv-x="323" 
d="M125 317h-55l171 338h-210v45h266v-37z" />
    <glyph glyph-name="eight.numr" horiz-adv-x="377" 
d="M189 704q58 0 96.5 -27.5t38.5 -75.5q0 -34 -19.5 -56.5t-51.5 -33.5q36 -11 58 -34t22 -58q0 -50 -41 -78t-103 -28q-63 0 -104 28t-41 78q0 35 22 58t58 34q-32 11 -51.5 33.5t-19.5 56.5q0 48 39 75.5t97 27.5v0v0zM189 663q-37 0 -61 -17.5t-24 -48.5q0 -32 24 -49.5
t61 -17.5q36 0 60.5 17.5t24.5 49.5q0 31 -24.5 48.5t-60.5 17.5v0v0zM189 492q-41 0 -67.5 -18t-26.5 -51t26.5 -51.5t67.5 -18.5q40 0 66.5 18.5t26.5 51.5t-26.5 51t-66.5 18v0v0z" />
    <glyph glyph-name="nine.numr" horiz-adv-x="343" 
d="M211 463q-21 -8 -44 -8q-58 0 -95.5 35.5t-37.5 87.5q0 55 39.5 90.5t99.5 35.5q61 0 100.5 -35.5t39.5 -89.5q0 -40 -28 -84l-113 -178h-57l96 146v0v0zM173 495q40 0 65 23.5t26 60.5q0 36 -25.5 59.5t-65.5 23.5q-39 0 -64.5 -23.5t-25.5 -59.5q0 -37 25.5 -60.5
t64.5 -23.5v0v0z" />
    <glyph glyph-name="zero.dnom" horiz-adv-x="424" 
d="M212 387q45 0 81.5 -23.5t58 -68t21.5 -104.5q0 -59 -21.5 -103.5t-58 -68.5t-81.5 -24t-81.5 24t-58 68.5t-21.5 103.5q0 60 21.5 104.5t58 68t81.5 23.5v0v0zM212 342q-48 0 -80 -40.5t-32 -110.5t32 -110t80 -40t80 40t32 110t-32 110.5t-80 40.5v0v0z" />
    <glyph glyph-name="one.dnom" horiz-adv-x="271" 
d="M142 0v321l-116 -48v47l163 67v-387h-47z" />
    <glyph glyph-name="two.dnom" horiz-adv-x="329" 
d="M33 323q46 64 123 64q58 0 91 -32.5t33 -84.5q0 -32 -14 -58.5t-41 -53.5l-112 -114h180v-44h-248v37l146 148q40 38 40 82q0 33 -21 54t-58 21q-52 0 -88 -49l-31 30v0v0z" />
    <glyph glyph-name="three.dnom" horiz-adv-x="329" 
d="M147 387q58 0 94 -28.5t36 -74.5q0 -34 -17.5 -57t-48.5 -34q34 -10 54 -33.5t20 -56.5q0 -52 -39.5 -80t-95.5 -28q-77 0 -124 50l27 31q39 -37 95 -37q38 0 63 17.5t25 50.5q0 30 -26 47.5t-64 17.5h-52v42h52q36 0 59 17.5t23 48.5q0 29 -23 46.5t-60 17.5
q-56 0 -89 -42l-29 30q45 55 120 55v0v0z" />
    <glyph glyph-name="four.dnom" horiz-adv-x="335" 
d="M315 122v-43h-64v-79h-48v79h-182v34l137 269h52l-133 -260h126v85l13 24h35v-109h64z" />
    <glyph glyph-name="five.dnom" horiz-adv-x="346" 
d="M108 231h51q67 0 104 -31t37 -81q0 -56 -38 -90t-97 -34q-81 0 -132 56l29 32q19 -21 45.5 -32.5t56.5 -11.5q41 0 64 21t23 55q0 33 -25 53.5t-77 20.5h-85l6 194h212v-44h-171l-3 -108v0v0z" />
    <glyph glyph-name="six.dnom" horiz-adv-x="344" 
d="M132 237q21 8 45 8q58 0 95.5 -35.5t37.5 -87.5q0 -55 -39.5 -91t-99.5 -36t-100 36t-40 90q0 41 28 83l113 179h57l-97 -146v0v0zM171 205q-40 0 -65.5 -23.5t-25.5 -60.5q0 -36 25.5 -59.5t65.5 -23.5q39 0 64.5 23.5t25.5 59.5q0 37 -25.5 60.5t-64.5 23.5v0v0z" />
    <glyph glyph-name="seven.dnom" horiz-adv-x="323" 
d="M125 0h-55l171 338h-210v45h266v-37z" />
    <glyph glyph-name="eight.dnom" horiz-adv-x="377" 
d="M189 387q58 0 96.5 -27.5t38.5 -75.5q0 -34 -19.5 -56.5t-51.5 -33.5q36 -11 58 -34t22 -58q0 -50 -41 -78.5t-103 -28.5t-103.5 28.5t-41.5 78.5q0 35 22 58t58 34q-32 11 -51.5 33.5t-19.5 56.5q0 48 39 75.5t97 27.5v0v0zM189 346q-37 0 -61 -17.5t-24 -48.5
q0 -32 24 -49.5t61 -17.5q36 0 60.5 17.5t24.5 49.5q0 31 -24.5 48.5t-60.5 17.5v0v0zM189 175q-41 0 -67.5 -18t-26.5 -51t26.5 -51.5t67.5 -18.5q40 0 66.5 18.5t26.5 51.5t-26.5 51t-66.5 18v0v0z" />
    <glyph glyph-name="nine.dnom" horiz-adv-x="344" 
d="M211 146q-21 -8 -44 -8q-58 0 -95.5 35.5t-37.5 87.5q0 55 39.5 90.5t99.5 35.5q61 0 100.5 -35.5t39.5 -89.5q0 -40 -28 -84l-113 -178h-57l96 146v0v0zM173 178q40 0 65 23.5t26 60.5q0 36 -25.5 59.5t-65.5 23.5q-39 0 -64.5 -23.5t-25.5 -59.5q0 -37 25.5 -60.5
t64.5 -23.5v0v0z" />
    <glyph glyph-name="space.frac" horiz-adv-x="53" 
 />
    <glyph glyph-name="b.ordn" horiz-adv-x="443" 
d="M239 649q45 0 82 -22t58 -60.5t21 -85.5q0 -48 -21 -86.5t-58 -60.5t-82 -22q-43 0 -75 20t-51 55v-70h-46v497h47v-238q19 34 50.5 53.5t74.5 19.5v0v0zM231 605q-52 0 -86 -35.5t-34 -88.5q0 -54 34 -89.5t86 -35.5q53 0 87 35.5t34 89.5q0 53 -34 88.5t-87 35.5v0v0z
" />
    <glyph glyph-name="c.ordn" horiz-adv-x="377" 
d="M211 649q37 0 69 -14t55 -40l-34 -30q-37 40 -91 40q-51 0 -85 -35t-34 -89t34 -89.5t85 -35.5q26 0 50 10.5t42 29.5l33 -30q-23 -26 -55 -40t-69 -14q-49 0 -87.5 22t-60 60.5t-21.5 86.5t21.5 86t60 60t87.5 22v0v0z" />
    <glyph glyph-name="d.ordn" horiz-adv-x="443" 
d="M204 649q43 0 74.5 -20t50.5 -55v240h47v-497h-46v70q-19 -35 -51 -55t-75 -20q-45 0 -82 22t-58.5 60.5t-21.5 86.5q0 47 21.5 85.5t58.5 60.5t82 22v0v0zM211 605q-53 0 -86.5 -35.5t-33.5 -88.5q0 -54 33.5 -89.5t86.5 -35.5q52 0 86 35.5t34 89.5q0 53 -34 88.5
t-86 35.5v0v0z" />
    <glyph glyph-name="e.ordn" horiz-adv-x="402" 
d="M205 649q67 0 110.5 -47t44.5 -120q0 -12 -1 -17h-268q4 -52 37 -82t82 -30q62 0 107 45l27 -31q-54 -55 -136 -55q-73 0 -119.5 47t-46.5 121q0 49 21.5 87.5t58.5 60t83 21.5v0v0zM205 608q-47 0 -78 -30t-36 -79h221q-4 49 -33.5 79t-73.5 30v0v0z" />
    <glyph glyph-name="h.ordn" horiz-adv-x="425" 
d="M114 583q17 33 47 49.5t67 16.5q60 0 97 -35.5t37 -94.5v-202h-47v187q0 47 -26 74t-73 27q-43 0 -72.5 -28.5t-29.5 -74.5v-185h-47v497h47v-231v0v0z" />
    <glyph glyph-name="l.ordn" horiz-adv-x="180" 
d="M67 317v497h47v-497h-47z" />
    <glyph glyph-name="m.ordn" horiz-adv-x="673" 
d="M475 649q61 0 98.5 -35t37.5 -95v-202h-48v187q0 47 -26 74t-73 27q-43 0 -72.5 -28.5t-29.5 -74.5v-185h-47v187q0 47 -26 74t-73 27q-43 0 -72.5 -28.5t-29.5 -74.5v-185h-47v327h46v-63q17 34 47 51t68 17q44 0 76.5 -19.5t46.5 -54.5q17 37 50.5 55.5t73.5 18.5v0v0z
" />
    <glyph glyph-name="r.ordn" horiz-adv-x="294" 
d="M213 649q35 0 56 -11l-9 -46q-24 12 -57 12q-40 0 -64.5 -28.5t-24.5 -74.5v-184h-47v327h46v-58q14 31 39.5 47t60.5 16v0v0z" />
    <glyph glyph-name="s.ordn" horiz-adv-x="352" 
d="M289 577q-20 13 -50 22.5t-61 9.5q-37 0 -59 -14.5t-22 -40.5q0 -42 73 -49l39 -5q51 -6 78.5 -28t27.5 -60q0 -47 -38 -73.5t-103 -26.5q-39 0 -75 10t-62 30l20 36q49 -36 117 -36q43 0 68 14t25 42q0 44 -74 51l-37 4q-55 6 -81.5 29t-26.5 60q0 45 35 71t94 26
q73 0 130 -35l-18 -37v0v0z" />
    <glyph glyph-name="t.ordn" horiz-adv-x="331" 
d="M147 434q0 -39 18.5 -58.5t51.5 -19.5q40 0 73 26l18 -37q-42 -33 -98 -33q-53 0 -82 30t-29 89v170h-74v43h74v105h48v-105h146v-43h-146v-167v0v0z" />
    <glyph glyph-name="u.ordn" horiz-adv-x="429" 
d="M362 453q0 -67 -41.5 -104t-106.5 -37q-64 0 -105.5 37t-41.5 104v191h47v-187q0 -48 27.5 -74.5t72.5 -26.5q46 0 73.5 26.5t27.5 74.5v187h47v-191v0v0z" />
    <glyph glyph-name="egrave.ordn" horiz-adv-x="402" 
d="M208 312q-73 0 -119.5 47t-46.5 121q0 49 21.5 87.5t58.5 60t83 21.5q67 0 110.5 -47t44.5 -120q0 -12 -1 -17h-268q4 -52 37 -82t82 -30q62 0 107 45l27 -31q-54 -55 -136 -55v0v0zM312 499q-4 49 -33.5 79t-73.5 30q-47 0 -78 -30t-36 -79h221v0v0zM112 797h58l77 -106
h-46z" />
    <glyph glyph-name="zero.osf" horiz-adv-x="669" 
d="M335 524q74 0 136 -33t98 -93.5t36 -138.5q0 -79 -36 -139.5t-97.5 -94t-136.5 -33.5t-137 33.5t-98 94.5t-36 139t36 138.5t98 93.5t137 33v0v0zM335 470q-59 0 -107.5 -26t-77 -74t-28.5 -111t28.5 -111.5t77 -75t107.5 -26.5t107.5 26t76.5 74.5t28 112.5
q0 63 -28 111t-76.5 74t-107.5 26v0v0z" />
    <glyph glyph-name="one.osf" horiz-adv-x="380" 
d="M220 0v446l-185 -63v57l243 85v-525h-58z" />
    <glyph glyph-name="two.osf" horiz-adv-x="530" 
d="M42 419q31 42 82 73t125 31q61 0 107.5 -23.5t72 -64t25.5 -89.5q0 -62 -39 -111.5t-112 -93.5l-142 -85h324v-56h-429v48l214 133q67 41 95 80.5t28 82.5q0 52 -38.5 88t-107.5 36q-57 0 -95 -23t-69 -61l-41 35v0v0z" />
    <glyph glyph-name="three.osf" horiz-adv-x="539" 
d="M244 523q66 0 117 -23.5t79.5 -66.5t28.5 -97q0 -62 -31.5 -104.5t-86.5 -62.5q61 -19 97.5 -62.5t36.5 -104.5q0 -63 -32.5 -107t-86 -66t-115.5 -22q-69 0 -124.5 23t-94.5 65l38 39q34 -34 80.5 -53t99.5 -19q75 0 124.5 36.5t49.5 105.5q0 63 -51 101t-127 38h-96v53
h95q72 0 118 36t46 102q0 60 -47.5 97.5t-121.5 37.5q-51 0 -92 -23t-67 -59l-44 35q32 46 85 73.5t122 27.5v0v0z" />
    <glyph glyph-name="four.osf" horiz-adv-x="570" 
d="M544 55v-55h-137v-185h-57v185h-324v46l244 469h62l-238 -460h256v183h57v-183h137z" />
    <glyph glyph-name="five.osf" horiz-adv-x="567" 
d="M153 230h106q122 0 186.5 -57.5t64.5 -151.5q0 -66 -31 -114.5t-84.5 -74t-119.5 -25.5q-146 0 -233 108l40 37q36 -44 86 -67t107 -23q81 0 127.5 43.5t46.5 110.5q0 75 -50.5 117t-157.5 42h-143l10 340h371v-55h-318l-8 -230v0v0z" />
    <glyph glyph-name="six.osf" horiz-adv-x="569" 
d="M192 423q45 20 96 20q68 0 123 -29.5t86 -81t31 -115.5q0 -63 -32 -114.5t-88 -81t-125 -29.5t-125 29.5t-88 81t-32 115.5q0 68 46 141l212 341h71l-175 -277v0v0zM283 389q-52 0 -94.5 -22t-66.5 -61t-24 -88t24 -88t66 -61t95 -22t95 22t66 61t24 88t-24 88t-66 61
t-95 22v0v0z" />
    <glyph glyph-name="seven.osf" horiz-adv-x="547" 
d="M184 -185h-67l323 645h-402v55h471v-45z" />
    <glyph glyph-name="eight.osf" horiz-adv-x="598" 
d="M300 708q63 0 115 -23.5t82.5 -66t30.5 -98.5q0 -59 -31.5 -101t-83.5 -64q59 -22 95 -65t36 -105q0 -58 -32.5 -102t-88.5 -67.5t-123 -23.5q-68 0 -124 23.5t-89 67.5t-33 102q0 62 36.5 105t95.5 65q-52 22 -83.5 64t-31.5 101q0 56 30.5 99t83 66t115.5 23v0v0z
M300 653q-72 0 -120 -37t-48 -98q0 -64 48 -101.5t120 -37.5q71 0 119 38t48 101q0 61 -48 98t-119 37v0v0zM300 327q-79 0 -132 -38t-53 -101q0 -64 53 -102.5t132 -38.5q78 0 131 38.5t53 102.5q0 63 -53 101t-131 38v0v0z" />
    <glyph glyph-name="nine.osf" horiz-adv-x="569" 
d="M377 93q-45 -20 -96 -20q-68 0 -122.5 29.5t-85.5 81t-31 114.5q0 64 31.5 115t87.5 80.5t125 29.5q70 0 125.5 -29.5t87.5 -80.5t32 -115q0 -36 -11.5 -70t-34.5 -71l-212 -342h-71l175 278v0v0zM286 127q53 0 95 22t66 61t24 88t-24 88t-66 61t-95 22t-95 -22t-66 -61
t-24 -88t24 -88t66 -61t95 -22v0v0z" />
    <glyph glyph-name="zero.tf" 
d="M301 708q73 0 131.5 -40t92 -120.5t33.5 -197.5q0 -120 -33.5 -200t-91.5 -119t-132 -39t-132.5 39t-92.5 119t-34 200t34 200.5t92.5 119t132.5 38.5v0v0zM301 651q-89 0 -143.5 -75t-54.5 -226t54.5 -226t143.5 -75q88 0 142.5 75t54.5 226q0 99 -26 166.5t-70.5 101
t-100.5 33.5v0v0z" />
    <glyph glyph-name="one.tf" 
d="M301 627l-213 -76v60l272 96v-651h192v-56h-457v56h206v571z" />
    <glyph glyph-name="two.tf" 
d="M74 592q75 116 208 116q69 0 118.5 -27.5t75 -76t25.5 -108.5q0 -59 -26 -107t-68 -92l-229 -241h349v-56h-436v46l271 285q37 39 57.5 79t20.5 86q0 67 -42 111.5t-117 44.5q-58 0 -97 -25.5t-68 -68.5l-42 34v0v0z" />
    <glyph glyph-name="three.tf" 
d="M278 708q67 0 118.5 -23.5t80 -66.5t28.5 -97q0 -63 -31.5 -105t-87.5 -62q62 -20 98.5 -63t36.5 -105q0 -63 -33 -106.5t-87 -65.5t-117 -22q-69 0 -124.5 23t-94.5 65l38 40q34 -34 80.5 -53t99.5 -19q75 0 125.5 36.5t50.5 104.5q0 63 -51.5 100.5t-127.5 37.5h-97v54
h97q72 0 118 35.5t46 101.5q0 60 -48 97.5t-122 37.5q-51 0 -92.5 -23t-68.5 -59l-43 36q33 46 86 73.5t122 27.5v0v0z" />
    <glyph glyph-name="four.tf" 
d="M565 209v-55h-126v-154h-59v154h-336v45l262 501h66l-257 -491h265v200h59v-200h126z" />
    <glyph glyph-name="five.tf" 
d="M170 416h110q80 0 135.5 -27t83.5 -73t28 -104q0 -68 -31 -117.5t-84.5 -76t-120.5 -26.5q-145 0 -233 108l39 38q36 -43 86.5 -66t107.5 -23q81 0 128 44.5t47 113.5t-50.5 111t-153.5 42h-147l10 340h372v-55h-318l-9 -229v0v0z" />
    <glyph glyph-name="six.tf" 
d="M209 424q46 19 95 19q68 0 123 -29.5t86 -80.5t31 -115t-32 -115.5t-88 -81t-125 -29.5t-125 29.5t-88 81t-32 115.5q0 67 46 142l212 340h72l-175 -276v0v0zM299 389q-52 0 -94 -22t-66 -61t-24 -88t24 -88t66 -61t94 -22t94 22t66 61t24 88t-24 88t-66 61t-94 22v0v0z
" />
    <glyph glyph-name="seven.tf" 
d="M215 0h-69l322 645h-401v55h472v-46z" />
    <glyph glyph-name="eight.tf" 
d="M300 708q66 0 120.5 -22.5t86.5 -64.5t32 -100q0 -61 -32.5 -102.5t-86.5 -63.5q62 -22 99 -64.5t37 -105.5q0 -60 -34 -103.5t-92.5 -66.5t-129.5 -23t-129.5 23t-92.5 66.5t-34 103.5q0 63 37 105.5t98 64.5q-54 22 -86 63.5t-32 102.5q0 58 32 100t86.5 64.5
t120.5 22.5v0v0zM300 653q-76 0 -126.5 -35.5t-50.5 -99.5q0 -66 50 -102.5t127 -36.5t127 36.5t50 102.5q0 64 -50.5 99.5t-126.5 35.5v0v0zM300 328q-84 0 -139 -37t-55 -103q0 -67 55 -104t139 -37q83 0 138 37t55 104q0 66 -55 103t-138 37v0v0z" />
    <glyph glyph-name="nine.tf" 
d="M391 277q-45 -20 -96 -20q-68 0 -122.5 29.5t-85.5 81t-31 115.5q0 63 31.5 114.5t87.5 81t126 29.5q69 0 125 -29.5t88 -81t32 -114.5q0 -37 -11.5 -71t-34.5 -71l-212 -341h-72l175 277v0v0zM301 312q52 0 94 22t66 61t24 88q0 48 -24 87t-66 61t-94 22q-53 0 -95 -22
t-65.5 -61t-23.5 -87q0 -49 23.5 -88t65.5 -61t95 -22v0v0z" />
    <glyph glyph-name="zero.tosf" 
d="M300 523q71 0 130 -32.5t93.5 -92.5t34.5 -139q0 -80 -34.5 -141t-93.5 -93.5t-130 -32.5t-130 33t-93.5 94t-34.5 140t34.5 139t93.5 92.5t130 32.5v0v0zM300 471q-55 0 -101 -26t-72.5 -74t-26.5 -112q0 -65 26.5 -113.5t72.5 -74.5t101 -26q56 0 101.5 25.5t72 74
t26.5 114.5q0 64 -26.5 112t-72.5 74t-101 26v0v0z" />
    <glyph glyph-name="one.tosf" 
d="M302 451l-204 -59v58l261 75v-469h185v-56h-440v56h198v395z" />
    <glyph glyph-name="two.tosf" 
d="M88 419q31 42 82 73t125 31q61 0 107.5 -23.5t72 -64t25.5 -89.5q0 -62 -39 -111.5t-112 -93.5l-142 -85h324v-56h-429v48l214 133q67 41 95 80.5t28 82.5q0 52 -38.5 88t-107.5 36q-57 0 -95 -23t-69 -61l-41 35v0v0z" />
    <glyph glyph-name="three.tosf" 
d="M284 523q66 0 117 -23.5t79.5 -66.5t28.5 -97q0 -62 -31.5 -104.5t-86.5 -62.5q60 -19 96.5 -62.5t36.5 -104.5q0 -63 -32.5 -107t-86 -66t-115.5 -22q-69 0 -124 23t-94 65l38 39q34 -34 80 -53t99 -19q75 0 125 36.5t50 105.5q0 63 -51.5 101t-127.5 38h-95v53h95
q72 0 117.5 35.5t45.5 102.5q0 60 -47.5 97.5t-120.5 37.5q-51 0 -92 -22.5t-68 -59.5l-43 35q31 46 84 73.5t123 27.5v0v0z" />
    <glyph glyph-name="four.tosf" 
d="M375 0h-324v46l244 469h63l-238 -460h255v183h58v-183h137v-55h-137v-185h-58v185z" />
    <glyph glyph-name="five.tosf" 
d="M170 230h106q122 0 186.5 -57.5t64.5 -151.5q0 -66 -31 -114.5t-84.5 -74t-119.5 -25.5q-146 0 -233 108l40 37q36 -44 86 -67t107 -23q81 0 127.5 43.5t46.5 110.5q0 75 -50.5 117t-157.5 42h-143l10 340h371v-55h-318l-8 -230v0v0z" />
    <glyph glyph-name="six.tosf" 
d="M212 423q45 20 96 20q68 0 123 -29.5t86 -81t31 -115.5q0 -63 -32 -114.5t-88 -81t-125 -29.5t-125 29.5t-88 81t-32 115.5q0 68 46 141l212 341h71l-175 -277v0v0zM303 389q-52 0 -94.5 -22t-66.5 -61t-24 -88t24 -88t66 -61t95 -22t95 22t66 61t24 88t-24 88t-66 61
t-95 22v0v0z" />
    <glyph glyph-name="seven.tosf" 
d="M221 -185h-67l323 645h-401v55h471v-45z" />
    <glyph glyph-name="eight.tosf" 
d="M307 708q63 0 115 -23.5t82.5 -66t30.5 -98.5q0 -59 -31.5 -101t-83.5 -64q59 -22 95 -65t36 -105q0 -58 -32.5 -102t-88.5 -67.5t-123 -23.5q-68 0 -124 23.5t-89 67.5t-33 102q0 62 36.5 105t95.5 65q-52 22 -83.5 64t-31.5 101q0 56 30.5 99t83 66t115.5 23v0v0z
M307 653q-72 0 -120 -37t-48 -98q0 -64 48 -101.5t120 -37.5q71 0 119 38t48 101q0 61 -48 98t-119 37v0v0zM307 327q-79 0 -132 -38t-53 -101q0 -64 53 -102.5t132 -38.5q78 0 131 38.5t53 102.5q0 63 -53 101t-131 38v0v0z" />
    <glyph glyph-name="nine.tosf" 
d="M388 93q-45 -20 -96 -20q-68 0 -122.5 29.5t-85.5 81t-31 114.5q0 64 31.5 115t87.5 80.5t125 29.5q70 0 125.5 -29.5t87.5 -80.5t32 -115q0 -36 -11.5 -70t-34.5 -71l-212 -342h-71l175 278v0v0zM297 127q53 0 95 22t66 61t24 88t-24 88t-66 61t-95 22t-95 -22t-66 -61
t-24 -88t24 -88t66 -61t95 -22v0v0z" />
    <glyph glyph-name="exclam.sc" horiz-adv-x="260" 
d="M130 78q17 0 30 -12.5t13 -29.5t-13 -30t-30 -13t-29.5 13t-12.5 30t12.5 29.5t29.5 12.5v0v0zM106 171l-7 346h63l-7 -346h-49z" />
    <glyph glyph-name="numbersign.sc" horiz-adv-x="592" 
d="M232 517h48l-30 -134h145l30 134h49l-30 -134h87l-10 -45h-87l-35 -157h87l-10 -45h-87l-30 -136h-49l30 136h-145l-30 -136h-49l30 136h-85l10 45h86l35 157h-86l9 45h87zM350 181l35 157h-145l-35 -157h145z" />
    <glyph glyph-name="percent.sc" horiz-adv-x="749" 
d="M184 524q58 0 97 -38t39 -94t-39 -93.5t-97 -37.5t-96.5 37.5t-38.5 93.5t38.5 94t96.5 38v0v0zM184 481q-38 0 -63.5 -25.5t-25.5 -63.5t25.5 -63t63.5 -25q39 0 64.5 25t25.5 63t-25.5 63.5t-64.5 25.5v0v0zM564 257q59 0 98 -37.5t39 -93.5q0 -57 -39 -94.5t-98 -37.5
q-57 0 -96 37.5t-39 94.5q0 55 39 93t96 38v0v0zM564 214q-38 0 -63.5 -25t-25.5 -63q0 -39 25.5 -64t63.5 -25q39 0 64.5 25t25.5 64q0 38 -25.5 63t-64.5 25v0v0zM177 0l341 517h54l-341 -517h-54z" />
    <glyph glyph-name="ampersand.sc" horiz-adv-x="548" 
d="M203 -6q-68 0 -108.5 34.5t-40.5 91.5q0 49 29.5 84.5t81.5 71.5q-44 41 -62 69t-18 63q0 48 37 81.5t94 33.5t93.5 -32.5t36.5 -80.5q0 -41 -27 -71.5t-78 -65.5l127 -119l89 122l40 -26l-94 -129l129 -121h-71l-89 83q-35 -42 -75 -65.5t-94 -23.5v0v0zM207 304
q43 30 65 53t22 52q0 28 -21.5 47.5t-56.5 19.5t-57 -20.5t-22 -50.5q0 -23 14.5 -42.5t55.5 -58.5v0v0zM207 41q39 0 69 18.5t61 54.5l-139 130q-43 -29 -66.5 -57t-23.5 -63q0 -37 27.5 -60t71.5 -23v0v0z" />
    <glyph glyph-name="parenleft.sc" horiz-adv-x="321" 
d="M280 528q-74 -28 -118.5 -101.5t-44.5 -167.5t44 -168.5t119 -102.5l-17 -47q-59 20 -105 66.5t-71.5 112t-25.5 139.5t25.5 139t71.5 111.5t105 66.5l17 -48v0v0z" />
    <glyph glyph-name="parenright.sc" horiz-adv-x="321" 
d="M41 -12q74 28 118.5 102t44.5 168t-44.5 168t-118.5 102l17 48q59 -20 105 -66.5t71.5 -112t25.5 -139.5t-25.5 -139t-71.5 -111.5t-105 -66.5l-17 47v0v0z" />
    <glyph glyph-name="asterisk.sc" horiz-adv-x="356" 
d="M158 517h41v-98l94 31l13 -39l-95 -29l59 -78l-33 -24l-58 79l-58 -79l-34 24l59 78l-95 29l13 39l94 -31v98z" />
    <glyph glyph-name="slash.sc" horiz-adv-x="406" 
d="M41 0l263 517h62l-264 -517h-61z" />
    <glyph glyph-name="zero.sc" horiz-adv-x="572" 
d="M286 522q62 0 113 -31.5t80.5 -91.5t29.5 -140t-29.5 -140.5t-80.5 -92.5t-113 -32t-113 32t-80.5 92.5t-29.5 140.5t29.5 140t80.5 91.5t113 31.5v0v0zM286 470q-46 0 -84 -25t-60 -73t-22 -113q0 -66 22 -114t60 -73.5t84 -25.5q47 0 85 25.5t60 73.5t22 114t-22 113.5
t-60 72.5t-85 25v0v0z" />
    <glyph glyph-name="one.sc" horiz-adv-x="362" 
d="M206 0v445l-174 -72v55l229 94v-522h-55z" />
    <glyph glyph-name="two.sc" horiz-adv-x="434" 
d="M41 436q24 36 63.5 61t99.5 25q78 0 122.5 -44t44.5 -113q0 -43 -19.5 -79t-53.5 -70l-163 -165h255v-51h-335v43l203 204q57 57 57 116q0 47 -30.5 77t-83.5 30q-43 0 -71.5 -18t-50.5 -48l-38 32v0v0z" />
    <glyph glyph-name="three.sc" horiz-adv-x="442" 
d="M196 522q81 0 131 -38.5t50 -99.5q0 -46 -24.5 -77t-66.5 -46q47 -15 74.5 -46.5t27.5 -76.5q0 -69 -55 -106.5t-133 -37.5q-52 0 -95.5 17t-72.5 48l33 36q25 -24 60 -38t74 -14q56 0 94.5 25.5t38.5 72.5q0 44 -38.5 70t-95.5 26h-73v49h73q54 0 88 24.5t34 69.5
q0 41 -35.5 67t-91.5 26q-38 0 -70 -16.5t-52 -42.5l-37 35q26 33 67.5 53t94.5 20v0v0z" />
    <glyph glyph-name="four.sc" horiz-adv-x="449" 
d="M424 161v-51h-92v-110h-55v110h-252v40l193 366h61l-188 -355h186v146h55v-146h92z" />
    <glyph glyph-name="five.sc" horiz-adv-x="457" 
d="M134 309h75q94 0 143 -41.5t49 -112.5q0 -74 -51 -117.5t-131 -43.5q-110 0 -178 77l33 38q27 -30 64.5 -47t80.5 -17q58 0 91.5 29t33.5 76q0 52 -36.5 81t-113.5 29h-110l7 257h286v-51h-237l-6 -157v0v0z" />
    <glyph glyph-name="six.sc" horiz-adv-x="452" 
d="M167 318q30 11 63 11q52 0 93.5 -22t64.5 -59.5t23 -84.5q0 -48 -24 -86.5t-66.5 -60.5t-95.5 -22t-95.5 22t-67 60.5t-24.5 85.5q0 53 36 109l157 246h66l-130 -199v0v0zM225 281q-56 0 -93 -33.5t-37 -85.5q0 -51 37 -84.5t93 -33.5t93 33.5t37 84.5q0 52 -37 85.5
t-93 33.5v0v0z" />
    <glyph glyph-name="seven.sc" horiz-adv-x="436" 
d="M158 0h-64l240 466h-296v51h360v-43z" />
    <glyph glyph-name="eight.sc" horiz-adv-x="496" 
d="M248 522q77 0 129.5 -37.5t52.5 -101.5q0 -43 -22.5 -73.5t-61.5 -47.5q44 -17 70 -48t26 -77q0 -67 -55.5 -105.5t-138.5 -38.5t-138.5 38.5t-55.5 105.5q0 46 26 77t70 48q-38 17 -60.5 47t-22.5 74q0 65 52 102t129 37v0v0zM248 473q-53 0 -88 -24.5t-35 -68.5
q0 -46 34.5 -71t88.5 -25t89 25t35 71q0 44 -35.5 68.5t-88.5 24.5v0v0zM248 239q-58 0 -97 -26t-39 -72q0 -47 38.5 -72.5t97.5 -25.5t97.5 25.5t38.5 72.5q0 46 -39 72t-97 26v0v0z" />
    <glyph glyph-name="nine.sc" horiz-adv-x="453" 
d="M286 198q-29 -10 -64 -10q-52 0 -93.5 22t-64.5 59.5t-23 84.5q0 48 24.5 86.5t67 60.5t95.5 22t95.5 -22t67 -60.5t24.5 -85.5q0 -53 -36 -109l-157 -246h-66l130 198v0v0zM228 236q56 0 93 33.5t37 84.5q0 52 -37 85.5t-93 33.5t-93 -33.5t-37 -85.5q0 -51 37 -84.5
t93 -33.5v0v0z" />
    <glyph glyph-name="question.sc" horiz-adv-x="380" 
d="M139 284q66 0 103.5 25t37.5 69q0 42 -38 67t-100 25q-7 0 -49 -3l-4 53q32 4 58 4q86 0 138.5 -39t52.5 -103q0 -61 -44.5 -99t-124.5 -46l-2 -68h-49v115h21v0v0zM143 78q17 0 29.5 -12.5t12.5 -29.5t-12.5 -30t-29.5 -13t-30 13t-13 30t13 29.5t30 12.5v0v0z" />
    <glyph glyph-name="at.sc" horiz-adv-x="744" 
d="M508 228q0 -71 45 -71q32 0 52 31.5t20 86.5q0 72 -33 126.5t-91 84.5t-129 30t-129 -33t-91 -91t-33 -129q0 -72 33 -130t91 -91.5t129 -33.5q86 0 153 49l26 -32q-77 -58 -179 -58q-84 0 -152.5 39t-107.5 107t-39 150t39 149t107.5 106t152.5 39q85 0 153 -35.5
t107 -100t39 -146.5q0 -68 -33 -113t-87 -45q-65 0 -82 58q-38 -55 -107 -55q-60 0 -99.5 41t-39.5 102q0 62 39 103t99 41q34 0 60.5 -15t43.5 -41v51h43v-174v0v0zM367 366q-43 0 -71 -29.5t-28 -73.5t28 -73t71 -29t71 29t28 73t-28 73.5t-71 29.5v0v0z" />
    <glyph glyph-name="bracketleft.sc" horiz-adv-x="311" 
d="M101 -49v615h169v-49h-115v-518h115v-48h-169z" />
    <glyph glyph-name="backslash.sc" horiz-adv-x="406" 
d="M102 517l264 -517h-62l-263 517h61z" />
    <glyph glyph-name="bracketright.sc" horiz-adv-x="311" 
d="M210 566v-615h-169v49h115v518h-115v48h169z" />
    <glyph glyph-name="a.sc" horiz-adv-x="563" 
d="M486 0l-64 144h-283l-63 -144h-59l231 517h67l231 -517h-60zM399 196l-118 267l-119 -267h237z" />
    <glyph glyph-name="b.sc" horiz-adv-x="587" 
d="M319 517q92 0 144.5 -33.5t52.5 -102.5q0 -42 -23.5 -72t-64.5 -44q45 -13 71.5 -45t26.5 -78q0 -71 -52 -106.5t-146 -35.5h-227v517h218v0v0zM318 288q139 0 139 89t-140 89h-159v-178h160v0v0zM326 50q142 0 142 95q0 49 -37 71t-105 22h-168v-188h168v0v0z" />
    <glyph glyph-name="c.sc" horiz-adv-x="595" 
d="M326 523q69 0 126 -29.5t88 -81.5l-47 -29q-25 40 -69.5 63t-97.5 23q-58 0 -105 -26.5t-74 -74.5t-27 -109q0 -63 27 -110.5t74.5 -74t104.5 -26.5q53 0 97 22.5t70 63.5l46 -33q-33 -51 -89 -79.5t-124 -28.5q-75 0 -135.5 34t-95 94.5t-34.5 137.5q0 76 34.5 136.5
t95 94t135.5 33.5v0v0z" />
    <glyph glyph-name="d.sc" horiz-adv-x="635" 
d="M303 517q80 0 141.5 -32t95.5 -91t34 -136t-34 -135.5t-95.5 -90.5t-141.5 -32h-202v517h202v0v0zM303 53q99 0 156 56t57 149t-57 149.5t-156 56.5h-145v-411h145v0v0z" />
    <glyph glyph-name="e.sc" horiz-adv-x="566" 
d="M101 0v517h382v-52h-325v-179h315v-52h-315v-182h327v-52h-384z" />
    <glyph glyph-name="f.sc" horiz-adv-x="540" 
d="M158 232v-232h-57v517h378v-52h-321v-181h309v-52h-309z" />
    <glyph glyph-name="g.sc" horiz-adv-x="635" 
d="M327 523q60 0 111.5 -23t87.5 -63l-41 -40q-29 34 -70 53t-89 19q-58 0 -105 -26.5t-74.5 -74.5t-27.5 -109q0 -62 27.5 -110.5t74.5 -75t104 -26.5q82 0 133 48t57 131h-171v48h229q1 -6 1 -18q0 -76 -32 -136t-89 -93t-128 -33t-131.5 33t-96.5 93t-36 139
q0 76 35 136.5t95.5 94t135.5 33.5v0v0z" />
    <glyph glyph-name="h.sc" horiz-adv-x="653" 
d="M496 286v231h56v-517h-56v234h-338v-234h-57v517h57v-231h338z" />
    <glyph glyph-name="i.sc" horiz-adv-x="259" 
d="M101 0v517h57v-517h-57z" />
    <glyph glyph-name="j.sc" horiz-adv-x="478" 
d="M382 188q0 -92 -54 -143t-140 -51q-56 0 -97.5 18.5t-68.5 46.5l35 41q22 -23 55 -37.5t75 -14.5q63 0 100.5 37.5t37.5 107.5v324h57v-329v0v0z" />
    <glyph glyph-name="k.sc" horiz-adv-x="566" 
d="M235 286l229 231h72l-259 -255l275 -262h-75l-243 234h-76v-234h-57v517h57v-231h77z" />
    <glyph glyph-name="l.sc" horiz-adv-x="500" 
d="M101 0v517h57v-464h322v-53h-379z" />
    <glyph glyph-name="m.sc" horiz-adv-x="772" 
d="M614 0v446l-199 -386h-58l-199 384v-444h-57v517h82l203 -392l202 392h82v-517h-56z" />
    <glyph glyph-name="n.sc" horiz-adv-x="659" 
d="M505 0l-347 422v-422h-57v517h52l348 -423v423h56v-517h-52z" />
    <glyph glyph-name="o.sc" horiz-adv-x="653" 
d="M327 523q75 0 135.5 -34t95.5 -94t35 -136q0 -77 -35 -137.5t-95.5 -94.5t-135.5 -34t-136 34t-95.5 94.5t-34.5 137.5q0 76 34.5 136t95.5 94t136 34v0v0zM327 469q-58 0 -105.5 -26.5t-74.5 -74.5t-27 -109q0 -62 27 -110t74.5 -74.5t105.5 -26.5t105.5 26.5t74.5 74.5
t27 110q0 61 -27 109t-74.5 74.5t-105.5 26.5v0v0z" />
    <glyph glyph-name="p.sc" horiz-adv-x="560" 
d="M101 0v517h210q92 0 144.5 -41.5t52.5 -115.5t-52.5 -115.5t-144.5 -41.5h-153v-203h-57v0v0zM309 255q67 0 104 27t37 78t-37 78t-104 27h-151v-210h151v0v0z" />
    <glyph glyph-name="q.sc" horiz-adv-x="653" 
d="M327 -7q-75 0 -136 34t-95.5 94.5t-34.5 137.5q0 76 34.5 136t95.5 94t136 34t135.5 -34t95.5 -94t35 -136q0 -93 -55 -164l75 -95h-67l-45 56q-35 -30 -79.5 -46.5t-94.5 -16.5v0v0zM327 48q40 0 76 13t64 38l-127 158h68l94 -117q32 53 32 119q0 61 -27 109t-74.5 74.5
t-105.5 26.5t-105.5 -26.5t-74.5 -74.5t-27 -109q0 -62 27 -110t74.5 -74.5t105.5 -26.5v0v0z" />
    <glyph glyph-name="r.sc" horiz-adv-x="562" 
d="M313 517q91 0 141.5 -38.5t50.5 -109.5q0 -68 -51.5 -107t-139.5 -39h-10l203 -223h-71l-199 223h-79v-223h-57v517h212v0v0zM312 272q65 0 100 25t35 72t-35.5 71t-99.5 24h-154v-192h154v0v0z" />
    <glyph glyph-name="s.sc" horiz-adv-x="558" 
d="M456 420q-34 22 -79.5 36t-94.5 14q-65 0 -105.5 -25t-40.5 -69q0 -37 32 -58.5t102 -28.5l58 -7q169 -20 169 -133q0 -76 -62 -115.5t-157 -39.5q-59 0 -119 18t-98 46l29 45q33 -23 85 -40t103 -17q71 0 115.5 25t44.5 72q0 39 -34 59t-103 28l-59 6q-81 9 -123.5 43
t-42.5 92q0 70 58 111t148 41q114 0 201 -57l-27 -46v0v0z" />
    <glyph glyph-name="t.sc" horiz-adv-x="489" 
d="M273 464v-464h-57v464h-196v53h448v-53h-195z" />
    <glyph glyph-name="u.sc" horiz-adv-x="626" 
d="M535 203q0 -100 -62 -154.5t-160 -54.5t-160 54.5t-62 154.5v314h57v-311q0 -77 45.5 -117.5t119.5 -40.5t120 40.5t46 117.5v311h56v-314v0v0z" />
    <glyph glyph-name="v.sc" horiz-adv-x="554" 
d="M243 0l-226 517h60l201 -463l201 463h58l-226 -517h-68z" />
    <glyph glyph-name="w.sc" horiz-adv-x="868" 
d="M593 0l-159 444l-159 -444h-67l-181 517h59l156 -457l162 457h62l161 -457l156 457h58l-180 -517h-68z" />
    <glyph glyph-name="x.sc" horiz-adv-x="545" 
d="M518 0h-66l-180 225l-179 -225h-66l209 264l-199 253h66l170 -214l170 214h66l-200 -253z" />
    <glyph glyph-name="y.sc" horiz-adv-x="506" 
d="M282 0h-56v216l-221 301h67l182 -246l182 246h65l-219 -302v-215z" />
    <glyph glyph-name="z.sc" horiz-adv-x="551" 
d="M136 52h354v-52h-429v44l352 421h-346v52h422v-44z" />
    <glyph glyph-name="braceleft.sc" horiz-adv-x="346" 
d="M279 518q-38 0 -59.5 -22t-19.5 -67l3 -53q3 -47 -16.5 -76.5t-58.5 -40.5q81 -23 75 -118l-3 -52q-2 -45 19 -67.5t60 -22.5h27v-48h-30q-64 0 -98.5 36.5t-30.5 104.5l3 53q3 46 -20.5 68t-66.5 22v47q43 0 66.5 22.5t20.5 68.5l-3 52q-4 68 30 104.5t99 36.5h30v-48
h-27v0v0z" />
    <glyph glyph-name="braceright.sc" horiz-adv-x="346" 
d="M70 566q65 0 99.5 -36.5t30.5 -104.5l-3 -52q-3 -46 20.5 -68.5t65.5 -22.5v-47q-42 0 -65.5 -22.5t-20.5 -67.5l3 -53q4 -68 -31 -104.5t-99 -36.5h-29v48h26q39 0 60.5 22.5t18.5 67.5l-3 52q-6 95 76 118q-82 23 -76 117l3 53q3 45 -18.5 67t-60.5 22h-26v48h29v0v0z
" />
    <glyph glyph-name="exclamdown.sc" horiz-adv-x="260" 
d="M130 439q-17 0 -29.5 12.5t-12.5 29.5t12.5 30t29.5 13t30 -13t13 -30t-13 -29.5t-30 -12.5v0v0zM154 346l8 -346h-63l7 346h48z" />
    <glyph glyph-name="sterling.sc" 
d="M105 51h69v185h-69v45h69v59q0 87 49.5 134.5t125.5 47.5q43 0 79 -16t60 -47l-40 -35q-36 46 -99 46q-54 0 -87.5 -34t-33.5 -99v-56h202v-45h-202v-185h264v-51h-387v51v0v0z" />
    <glyph glyph-name="currency.sc" 
d="M201 385q42 33 99 33q56 0 100 -33l55 55l30 -31l-54 -54q33 -41 33 -97q0 -55 -33 -97l54 -54l-30 -30l-55 54q-44 -33 -100 -33t-100 33l-54 -54l-31 30l55 54q-33 42 -33 97t33 97l-55 54l31 31l55 -55v0v0zM300 140q51 0 86.5 34.5t35.5 83.5t-35.5 83.5t-86.5 34.5
q-50 0 -85.5 -34.5t-35.5 -83.5t35.5 -83.5t85.5 -34.5v0v0z" />
    <glyph glyph-name="yen.sc" 
d="M329 122v-122h-55v122h-151v39h151v75h-151v39h130l-177 242h64l162 -220l160 220h63l-176 -242h132v-39h-152v-75h152v-39h-152z" />
    <glyph glyph-name="section.sc" horiz-adv-x="517" 
d="M255 -109q-55 0 -107 16t-87 41l27 43q30 -22 74 -37t93 -15q62 0 100.5 20.5t38.5 59.5q0 58 -122 72l-52 5q-69 7 -108.5 36t-39.5 79q0 30 16 54t45 39q-54 30 -54 89t52 94t132 35q101 0 177 -51l-24 -43q-30 20 -69.5 33t-82.5 13q-57 0 -93.5 -20.5t-36.5 -56.5
q0 -60 121 -73l50 -5q67 -6 109 -34.5t42 -77.5q0 -62 -62 -96q55 -32 55 -86q0 -66 -55 -100t-139 -34v0v0zM344 130q26 9 41.5 27t15.5 43q0 60 -122 72q-36 4 -57 6.5t-39 6.5q-27 -10 -41.5 -27.5t-14.5 -41.5q0 -31 31 -48.5t90 -23.5q29 -2 52.5 -5.5t43.5 -8.5v0v0z
" />
    <glyph glyph-name="copyright.sc" horiz-adv-x="738" 
d="M369 553q80 0 148 -39.5t108 -106.5t40 -147q0 -79 -40 -146.5t-108 -107t-148 -39.5q-81 0 -149 39.5t-107.5 107t-39.5 146.5q0 80 39.5 147t107.5 106.5t149 39.5v0v0zM369 508q-68 0 -125.5 -33t-91 -90t-33.5 -125q0 -67 33.5 -124t91 -90.5t125.5 -33.5
q67 0 124.5 33.5t91 90.5t33.5 124q0 68 -33.5 125t-91 90t-124.5 33v0v0zM465 325q-14 23 -37.5 35.5t-51.5 12.5q-46 0 -77.5 -31.5t-31.5 -81.5q1 -51 32 -81.5t77 -30.5q28 0 51.5 12.5t38.5 35.5l36 -26q-20 -30 -53 -47t-73 -17q-44 0 -79 19.5t-55.5 54.5t-20.5 80
q0 68 44 111.5t111 43.5q41 0 75 -18.5t53 -49.5l-39 -22v0v0z" />
    <glyph glyph-name="degree.sc" horiz-adv-x="308" 
d="M154 273q-35 0 -65 17t-47.5 46t-17.5 63t17.5 63t47.5 46t65 17t64.5 -17t47 -46t17.5 -63t-17.5 -63t-47 -46t-64.5 -17v0v0zM154 315q35 0 60 24.5t25 59.5q0 34 -25 58.5t-60 24.5t-60.5 -24.5t-25.5 -58.5q0 -35 25.5 -59.5t60.5 -24.5v0v0z" />
    <glyph glyph-name="questiondown.sc" horiz-adv-x="380" 
d="M238 439q-17 0 -30 12.5t-13 29.5t13 30t30 13t29.5 -13t12.5 -30t-12.5 -29.5t-29.5 -12.5v0v0zM241 233q-66 0 -103.5 -25t-37.5 -69q0 -42 38 -67t101 -25q9 0 48 3l4 -53q-21 -4 -57 -4q-86 0 -139 39t-53 103q0 61 44.5 99t124.5 46l3 68h48v-115h-21v0v0z" />
    <glyph glyph-name="germandbls.sc" horiz-adv-x="1116" 
d="M456 420q-34 22 -79.5 36t-94.5 14q-65 0 -105.5 -25t-40.5 -69q0 -37 32 -58.5t102 -28.5l58 -7q169 -20 169 -133q0 -76 -62 -115.5t-157 -39.5q-59 0 -119 18t-98 46l29 45q33 -23 85 -40t103 -17q71 0 115.5 25t44.5 72q0 39 -34 59t-103 28l-59 6q-81 9 -123.5 43
t-42.5 92q0 70 58 111t148 41q114 0 201 -57l-27 -46v0v0zM1014 420q-34 22 -79.5 36t-94.5 14q-65 0 -105.5 -25t-40.5 -69q0 -37 32 -58.5t102 -28.5l58 -7q169 -20 169 -133q0 -76 -62 -115.5t-157 -39.5q-59 0 -119 18t-98 46l29 45q33 -23 85 -40t103 -17
q71 0 115.5 25t44.5 72q0 39 -34 59t-103 28l-59 6q-81 9 -123.5 43t-42.5 92q0 70 58 111t148 41q114 0 201 -57l-27 -46v0v0z" />
    <glyph glyph-name="agrave.sc" horiz-adv-x="563" 
d="M225 737l110 -150h-57l-125 150h72zM486 0l-64 144h-283l-63 -144h-59l231 517h67l231 -517h-60zM399 196l-118 267l-119 -267h237z" />
    <glyph glyph-name="aacute.sc" horiz-adv-x="563" 
d="M333 737h72l-126 -150h-56zM486 0l-64 144h-283l-63 -144h-59l231 517h67l231 -517h-60zM399 196l-118 267l-119 -267h237z" />
    <glyph glyph-name="acircumflex.sc" horiz-adv-x="563" 
d="M282 693l-100 -103h-62l124 141h75l124 -141h-61zM486 0l-64 144h-283l-63 -144h-59l231 517h67l231 -517h-60zM399 196l-118 267l-119 -267h237z" />
    <glyph glyph-name="atilde.sc" horiz-adv-x="563" 
d="M117 655q22 28 46 41.5t57 13.5q24 0 40.5 -6t38.5 -18q16 -10 28 -14.5t27 -4.5q21 0 38 10t35 31l30 -36q-22 -28 -46 -41.5t-57 -13.5q-24 0 -41 6.5t-37 18.5q-16 10 -28.5 14.5t-27.5 4.5q-21 0 -37.5 -10t-35.5 -32l-30 36v0v0zM486 0l-64 144h-283l-63 -144h-59
l231 517h67l231 -517h-60zM399 196l-118 267l-119 -267h237z" />
    <glyph glyph-name="adieresis.sc" horiz-adv-x="563" 
d="M179 700q17 0 29 -12t12 -29t-12 -29t-29 -12t-28.5 12t-11.5 29t11.5 29t28.5 12v0v0zM384 700q17 0 29 -12t12 -29t-12 -29t-29 -12t-29 12t-12 29t12 29t29 12v0v0zM486 0l-64 144h-283l-63 -144h-59l231 517h67l231 -517h-60zM399 196l-118 267l-119 -267h237z" />
    <glyph glyph-name="aring.sc" horiz-adv-x="563" 
d="M282 579q-44 0 -76 31.5t-32 75.5q0 43 32 74.5t76 31.5t75.5 -31t31.5 -75t-31.5 -75.5t-75.5 -31.5v0v0zM282 616q29 0 49 20t20 50q0 29 -20 49t-49 20q-28 0 -48.5 -20t-20.5 -49q0 -30 20 -50t49 -20v0v0zM486 0l-64 144h-283l-63 -144h-59l231 517h67l231 -517h-60
zM399 196l-118 267l-119 -267h237z" />
    <glyph glyph-name="ae.sc" horiz-adv-x="893" 
d="M428 0v138h-241l-105 -138h-68l396 517h400v-52h-325v-179h315v-52h-315v-182h327v-52h-384zM428 454l-201 -264h201v264z" />
    <glyph glyph-name="ccedilla.sc" horiz-adv-x="595" 
d="M326 523q69 0 126 -29.5t88 -81.5l-47 -29q-25 40 -69.5 63t-97.5 23q-58 0 -105 -26.5t-74 -74.5t-27 -109q0 -63 27 -110.5t74.5 -74t104.5 -26.5q53 0 97 22.5t70 63.5l46 -33q-32 -48 -83.5 -76t-114.5 -31l-49 -156h-59l51 158q-65 9 -115.5 45t-79 92.5
t-28.5 125.5q0 76 34.5 136.5t95 94t135.5 33.5v0v0z" />
    <glyph glyph-name="egrave.sc" horiz-adv-x="566" 
d="M235 737l110 -150h-57l-125 150h72zM101 0v517h382v-52h-325v-179h315v-52h-315v-182h327v-52h-384z" />
    <glyph glyph-name="eacute.sc" horiz-adv-x="566" 
d="M343 737h72l-126 -150h-56zM101 0v517h382v-52h-325v-179h315v-52h-315v-182h327v-52h-384z" />
    <glyph glyph-name="ecircumflex.sc" horiz-adv-x="566" 
d="M292 693l-100 -103h-62l124 141h75l124 -141h-61zM101 0v517h382v-52h-325v-179h315v-52h-315v-182h327v-52h-384z" />
    <glyph glyph-name="edieresis.sc" horiz-adv-x="566" 
d="M189 700q17 0 29 -12t12 -29t-12 -29t-29 -12t-28.5 12t-11.5 29t11.5 29t28.5 12v0v0zM394 700q17 0 29 -12t12 -29t-12 -29t-29 -12t-29 12t-12 29t12 29t29 12v0v0zM101 0v517h382v-52h-325v-179h315v-52h-315v-182h327v-52h-384z" />
    <glyph glyph-name="igrave.sc" horiz-adv-x="259" 
d="M73 737l110 -150h-57l-125 150h72zM101 0v517h57v-517h-57z" />
    <glyph glyph-name="iacute.sc" horiz-adv-x="259" 
d="M181 737h72l-126 -150h-56zM101 0v517h57v-517h-57z" />
    <glyph glyph-name="icircumflex.sc" horiz-adv-x="259" 
d="M130 693l-100 -103h-62l124 141h75l124 -141h-61zM101 0v517h57v-517h-57z" />
    <glyph glyph-name="idieresis.sc" horiz-adv-x="259" 
d="M27 700q17 0 29 -12t12 -29t-12 -29t-29 -12t-29 12t-12 29t12 29t29 12v0v0zM232 700q17 0 29 -12t12 -29t-12 -29t-29 -12t-29 12t-12 29t12 29t29 12v0v0zM101 0v517h57v-517h-57z" />
    <glyph glyph-name="eth.sc" horiz-adv-x="711" 
d="M379 517q80 0 141.5 -32t95.5 -91t34 -136t-34 -135.5t-95.5 -90.5t-141.5 -32h-202v238h-116v51h116v228h202v0v0zM234 53h145q99 0 156 56t57 149t-57 149.5t-156 56.5h-145v-175h164v-51h-164v-185v0v0z" />
    <glyph glyph-name="ntilde.sc" horiz-adv-x="659" 
d="M163 655q22 28 46 41.5t57 13.5q24 0 40.5 -6t38.5 -18q16 -10 28 -14.5t27 -4.5q21 0 38 10t35 31l30 -36q-22 -28 -46 -41.5t-57 -13.5q-24 0 -41 6.5t-37 18.5q-16 10 -28.5 14.5t-27.5 4.5q-21 0 -37.5 -10t-35.5 -32l-30 36v0v0zM505 0l-347 422v-422h-57v517h52
l348 -423v423h56v-517h-52z" />
    <glyph glyph-name="ograve.sc" horiz-adv-x="653" 
d="M327 523q75 0 135.5 -34t95.5 -94t35 -136q0 -77 -35 -137.5t-95.5 -94.5t-135.5 -34t-136 34t-95.5 94.5t-34.5 137.5q0 76 34.5 136t95.5 94t136 34v0v0zM327 469q-58 0 -105.5 -26.5t-74.5 -74.5t-27 -109q0 -62 27 -110t74.5 -74.5t105.5 -26.5t105.5 26.5t74.5 74.5
t27 110q0 61 -27 109t-74.5 74.5t-105.5 26.5v0v0zM270 737l110 -150h-57l-125 150h72z" />
    <glyph glyph-name="oacute.sc" horiz-adv-x="653" 
d="M327 523q75 0 135.5 -34t95.5 -94t35 -136q0 -77 -35 -137.5t-95.5 -94.5t-135.5 -34t-136 34t-95.5 94.5t-34.5 137.5q0 76 34.5 136t95.5 94t136 34v0v0zM327 469q-58 0 -105.5 -26.5t-74.5 -74.5t-27 -109q0 -62 27 -110t74.5 -74.5t105.5 -26.5t105.5 26.5t74.5 74.5
t27 110q0 61 -27 109t-74.5 74.5t-105.5 26.5v0v0zM378 737h72l-126 -150h-56z" />
    <glyph glyph-name="ocircumflex.sc" horiz-adv-x="653" 
d="M327 523q75 0 135.5 -34t95.5 -94t35 -136q0 -77 -35 -137.5t-95.5 -94.5t-135.5 -34t-136 34t-95.5 94.5t-34.5 137.5q0 76 34.5 136t95.5 94t136 34v0v0zM327 469q-58 0 -105.5 -26.5t-74.5 -74.5t-27 -109q0 -62 27 -110t74.5 -74.5t105.5 -26.5t105.5 26.5t74.5 74.5
t27 110q0 61 -27 109t-74.5 74.5t-105.5 26.5v0v0zM327 693l-100 -103h-62l124 141h75l124 -141h-61z" />
    <glyph glyph-name="otilde.sc" horiz-adv-x="653" 
d="M162 655q22 28 46 41.5t57 13.5q24 0 40.5 -6t38.5 -18q16 -10 28 -14.5t27 -4.5q21 0 38 10t35 31l30 -36q-22 -28 -46 -41.5t-57 -13.5q-24 0 -41 6.5t-37 18.5q-16 10 -28.5 14.5t-27.5 4.5q-21 0 -37.5 -10t-35.5 -32l-30 36v0v0zM327 523q75 0 135.5 -34t95.5 -94
t35 -136q0 -77 -35 -137.5t-95.5 -94.5t-135.5 -34t-136 34t-95.5 94.5t-34.5 137.5q0 76 34.5 136t95.5 94t136 34v0v0zM327 469q-58 0 -105.5 -26.5t-74.5 -74.5t-27 -109q0 -62 27 -110t74.5 -74.5t105.5 -26.5t105.5 26.5t74.5 74.5t27 110q0 61 -27 109t-74.5 74.5
t-105.5 26.5v0v0z" />
    <glyph glyph-name="odieresis.sc" horiz-adv-x="653" 
d="M224 700q17 0 29 -12t12 -29t-12 -29t-29 -12t-28.5 12t-11.5 29t11.5 29t28.5 12v0v0zM429 700q17 0 29 -12t12 -29t-12 -29t-29 -12t-29 12t-12 29t12 29t29 12v0v0zM327 523q75 0 135.5 -34t95.5 -94t35 -136q0 -77 -35 -137.5t-95.5 -94.5t-135.5 -34t-136 34
t-95.5 94.5t-34.5 137.5q0 76 34.5 136t95.5 94t136 34v0v0zM327 469q-58 0 -105.5 -26.5t-74.5 -74.5t-27 -109q0 -62 27 -110t74.5 -74.5t105.5 -26.5t105.5 26.5t74.5 74.5t27 110q0 61 -27 109t-74.5 74.5t-105.5 26.5v0v0z" />
    <glyph glyph-name="oslash.sc" horiz-adv-x="653" 
d="M327 523q49 0 93 -15.5t78 -43.5l61 61l34 -35l-60 -60q29 -34 44.5 -77.5t15.5 -93.5q0 -77 -35 -137.5t-95.5 -94.5t-135.5 -34q-99 0 -172 59l-59 -60l-35 35l59 59q-59 72 -59 173q0 76 34.5 136t95.5 94t136 34v0v0zM327 469q-58 0 -105.5 -26.5t-74.5 -74.5
t-27 -109q0 -77 41 -132l298 298q-57 44 -132 44v0v0zM534 259q0 76 -41 131l-298 -298q55 -44 132 -44q58 0 105.5 26.5t74.5 74.5t27 110v0v0z" />
    <glyph glyph-name="ugrave.sc" horiz-adv-x="626" 
d="M535 203q0 -100 -62 -154.5t-160 -54.5t-160 54.5t-62 154.5v314h57v-311q0 -77 45.5 -117.5t119.5 -40.5t120 40.5t46 117.5v311h56v-314v0v0zM256 737l110 -150h-56l-126 150h72z" />
    <glyph glyph-name="uacute.sc" horiz-adv-x="626" 
d="M535 203q0 -100 -62 -154.5t-160 -54.5t-160 54.5t-62 154.5v314h57v-311q0 -77 45.5 -117.5t119.5 -40.5t120 40.5t46 117.5v311h56v-314v0v0zM364 737h72l-125 -150h-57z" />
    <glyph glyph-name="ucircumflex.sc" horiz-adv-x="626" 
d="M535 203q0 -100 -62 -154.5t-160 -54.5t-160 54.5t-62 154.5v314h57v-311q0 -77 45.5 -117.5t119.5 -40.5t120 40.5t46 117.5v311h56v-314v0v0zM313 693l-100 -103h-61l124 141h75l124 -141h-62z" />
    <glyph glyph-name="udieresis.sc" horiz-adv-x="626" 
d="M211 700q17 0 29 -12t12 -29t-12 -29t-29 -12t-29 12t-12 29t12 29t29 12v0v0zM415 700q17 0 29.5 -12t12.5 -29t-12.5 -29t-29.5 -12t-28.5 12t-11.5 29t11.5 29t28.5 12v0v0zM535 203q0 -100 -62 -154.5t-160 -54.5t-160 54.5t-62 154.5v314h57v-311q0 -77 45.5 -117.5
t119.5 -40.5t120 40.5t46 117.5v311h56v-314v0v0z" />
    <glyph glyph-name="yacute.sc" horiz-adv-x="506" 
d="M305 737h72l-125 -150h-57zM282 0h-56v216l-221 301h67l182 -246l182 246h65l-219 -302v-215z" />
    <glyph glyph-name="thorn.sc" horiz-adv-x="555" 
d="M306 420q92 0 144.5 -41.5t52.5 -114.5q0 -74 -52.5 -115.5t-144.5 -41.5h-148v-107h-57v517h57v-97h148v0v0zM305 159q66 0 103 27t37 78q0 50 -37 77t-103 27h-147v-209h147v0v0z" />
    <glyph glyph-name="ydieresis.sc" horiz-adv-x="506" 
d="M152 700q17 0 29 -12t12 -29t-12 -29t-29 -12t-29 12t-12 29t12 29t29 12v0v0zM356 700q17 0 29.5 -12t12.5 -29t-12.5 -29t-29.5 -12t-28.5 12t-11.5 29t11.5 29t28.5 12v0v0zM282 0h-56v216l-221 301h67l182 -246l182 246h65l-219 -302v-215z" />
    <glyph glyph-name="amacron.sc" horiz-adv-x="563" 
d="M428 683v-47h-292v47h292zM486 0l-64 144h-283l-63 -144h-59l231 517h67l231 -517h-60zM399 196l-118 267l-119 -267h237z" />
    <glyph glyph-name="abreve.sc" horiz-adv-x="563" 
d="M165 738q14 -50 44 -75t73 -25t73 25t43 75l47 -14q-18 -66 -60.5 -100.5t-102.5 -34.5t-102.5 34.5t-60.5 100.5l46 14v0v0zM486 0l-64 144h-283l-63 -144h-59l231 517h67l231 -517h-60zM399 196l-118 267l-119 -267h237z" />
    <glyph glyph-name="aogonek.sc" horiz-adv-x="563" 
d="M553 -165q-40 -41 -93 -41q-44 0 -72 22.5t-28 60.5q0 39 30.5 69.5t92.5 60.5l-61 137h-283l-63 -144h-59l231 518h67l231 -518h-13q-61 -28 -90 -55t-29 -57q0 -21 14 -33t37 -12q33 0 57 29l31 -37v0v0zM399 196l-118 268l-119 -268h237z" />
    <glyph glyph-name="cacute.sc" horiz-adv-x="595" 
d="M326 523q69 0 126 -29.5t88 -81.5l-47 -29q-25 40 -69.5 63t-97.5 23q-58 0 -105 -26.5t-74 -74.5t-27 -109q0 -63 27 -110.5t74.5 -74t104.5 -26.5q53 0 97 22.5t70 63.5l46 -33q-33 -51 -89 -79.5t-124 -28.5q-75 0 -135.5 34t-95 94.5t-34.5 137.5q0 76 34.5 136.5
t95 94t135.5 33.5v0v0zM374 737h72l-126 -150h-56z" />
    <glyph glyph-name="ccircumflex.sc" horiz-adv-x="595" 
d="M326 523q69 0 126 -29.5t88 -81.5l-47 -29q-25 40 -69.5 63t-97.5 23q-58 0 -105 -26.5t-74 -74.5t-27 -109q0 -63 27 -110.5t74.5 -74t104.5 -26.5q53 0 97 22.5t70 63.5l46 -33q-33 -51 -89 -79.5t-124 -28.5q-75 0 -135.5 34t-95 94.5t-34.5 137.5q0 76 34.5 136.5
t95 94t135.5 33.5v0v0zM323 693l-100 -103h-62l124 141h75l124 -141h-61z" />
    <glyph glyph-name="cdotaccent.sc" horiz-adv-x="595" 
d="M323 700q17 0 29 -12t12 -29t-12 -29t-29 -12t-29 12t-12 29t12 29t29 12v0v0zM326 523q69 0 126 -29.5t88 -81.5l-47 -29q-25 40 -69.5 63t-97.5 23q-58 0 -105 -26.5t-74 -74.5t-27 -109q0 -63 27 -110.5t74.5 -74t104.5 -26.5q53 0 97 22.5t70 63.5l46 -33
q-33 -51 -89 -79.5t-124 -28.5q-75 0 -135.5 34t-95 94.5t-34.5 137.5q0 76 34.5 136.5t95 94t135.5 33.5v0v0z" />
    <glyph glyph-name="ccaron.sc" horiz-adv-x="595" 
d="M326 523q69 0 126 -29.5t88 -81.5l-47 -29q-25 40 -69.5 63t-97.5 23q-58 0 -105 -26.5t-74 -74.5t-27 -109q0 -63 27 -110.5t74.5 -74t104.5 -26.5q53 0 97 22.5t70 63.5l46 -33q-33 -51 -89 -79.5t-124 -28.5q-75 0 -135.5 34t-95 94.5t-34.5 137.5q0 76 34.5 136.5
t95 94t135.5 33.5v0v0zM323 628l100 102h61l-124 -141h-75l-124 141h62z" />
    <glyph glyph-name="dcaron.sc" horiz-adv-x="635" 
d="M303 517q80 0 141.5 -32t95.5 -91t34 -136t-34 -135.5t-95.5 -90.5t-141.5 -32h-202v517h202v0v0zM303 53q99 0 156 56t57 149t-57 149.5t-156 56.5h-145v-411h145v0v0zM308 628l100 102h62l-124 -141h-75l-124 141h61z" />
    <glyph glyph-name="dcroat.sc" horiz-adv-x="711" 
d="M379 517q80 0 141.5 -32t95.5 -91t34 -136t-34 -135.5t-95.5 -90.5t-141.5 -32h-202v238h-116v51h116v228h202v0v0zM234 53h145q99 0 156 56t57 149t-57 149.5t-156 56.5h-145v-175h164v-51h-164v-185v0v0z" />
    <glyph glyph-name="emacron.sc" horiz-adv-x="566" 
d="M438 683v-47h-292v47h292zM101 0v517h382v-52h-325v-179h315v-52h-315v-182h327v-52h-384z" />
    <glyph glyph-name="ebreve.sc" horiz-adv-x="566" 
d="M175 738q14 -50 44 -75t73 -25t73 25t43 75l47 -14q-18 -66 -60.5 -100.5t-102.5 -34.5t-102.5 34.5t-60.5 100.5l46 14v0v0zM101 0v517h382v-52h-325v-179h315v-52h-315v-182h327v-52h-384z" />
    <glyph glyph-name="edotaccent.sc" horiz-adv-x="566" 
d="M292 700q17 0 29 -12t12 -29t-12 -29t-29 -12t-29 12t-12 29t12 29t29 12v0v0zM101 0v517h382v-52h-325v-179h315v-52h-315v-182h327v-52h-384z" />
    <glyph glyph-name="eogonek.sc" horiz-adv-x="566" 
d="M396 0q-40 -22 -59.5 -45.5t-19.5 -52.5q0 -26 19.5 -42.5t50.5 -16.5q43 0 77 31l30 -36q-21 -21 -50 -32.5t-61 -11.5q-54 0 -87.5 27.5t-33.5 70.5q0 35 19 60.5t57 47.5h-237v517h382v-52h-325v-179h315v-52h-315v-182h327v-52h-89v0v0z" />
    <glyph glyph-name="ecaron.sc" horiz-adv-x="566" 
d="M292 628l100 102h61l-124 -141h-75l-124 141h62zM101 0v517h382v-52h-325v-179h315v-52h-315v-182h327v-52h-384z" />
    <glyph glyph-name="gcircumflex.sc" horiz-adv-x="635" 
d="M327 523q60 0 111.5 -23t87.5 -63l-41 -40q-29 34 -70 53t-89 19q-58 0 -105 -26.5t-74.5 -74.5t-27.5 -109q0 -62 27.5 -110.5t74.5 -75t104 -26.5q82 0 133 48t57 131h-171v48h229q1 -6 1 -18q0 -76 -32 -136t-89 -93t-128 -33t-131.5 33t-96.5 93t-36 139
q0 76 35 136.5t95.5 94t135.5 33.5v0v0zM323 693l-100 -103h-62l124 141h75l124 -141h-61z" />
    <glyph glyph-name="gbreve.sc" horiz-adv-x="635" 
d="M206 738q14 -50 44 -75t73 -25t73 25t43 75l47 -14q-18 -66 -60.5 -100.5t-102.5 -34.5t-102.5 34.5t-60.5 100.5l46 14v0v0zM327 523q60 0 111.5 -23t87.5 -63l-41 -40q-29 34 -70 53t-89 19q-58 0 -105 -26.5t-74.5 -74.5t-27.5 -109q0 -62 27.5 -110.5t74.5 -75
t104 -26.5q82 0 133 48t57 131h-171v48h229q1 -6 1 -18q0 -76 -32 -136t-89 -93t-128 -33t-131.5 33t-96.5 93t-36 139q0 76 35 136.5t95.5 94t135.5 33.5v0v0z" />
    <glyph glyph-name="gdotaccent.sc" horiz-adv-x="635" 
d="M323 700q17 0 29 -12t12 -29t-12 -29t-29 -12t-29 12t-12 29t12 29t29 12v0v0zM327 523q60 0 111.5 -23t87.5 -63l-41 -40q-29 34 -70 53t-89 19q-58 0 -105 -26.5t-74.5 -74.5t-27.5 -109q0 -62 27.5 -110.5t74.5 -75t104 -26.5q82 0 133 48t57 131h-171v48h229
q1 -6 1 -18q0 -76 -32 -136t-89 -93t-128 -33t-131.5 33t-96.5 93t-36 139q0 76 35 136.5t95.5 94t135.5 33.5v0v0z" />
    <glyph glyph-name="hcircumflex.sc" horiz-adv-x="653" 
d="M327 693l-100 -103h-62l124 141h75l124 -141h-61zM496 286v231h56v-517h-56v234h-338v-234h-57v517h57v-231h338z" />
    <glyph glyph-name="hbar.sc" horiz-adv-x="653" 
d="M552 378v-378h-56v234h-338v-234h-57v378h-65v45h65v94h57v-94h338v94h56v-94h65v-45h-65zM496 378h-338v-92h338v92z" />
    <glyph glyph-name="itilde.sc" horiz-adv-x="259" 
d="M-35 655q21 28 45.5 41.5t57.5 13.5q24 0 40.5 -6t38.5 -18q16 -10 28 -14.5t27 -4.5q21 0 38 10t35 31l30 -36q-22 -28 -46 -41.5t-57 -13.5q-24 0 -41 6.5t-37 18.5q-16 10 -28.5 14.5t-27.5 4.5q-21 0 -37.5 -10t-36.5 -32l-29 36v0v0zM101 0v517h57v-517h-57z" />
    <glyph glyph-name="imacron.sc" horiz-adv-x="259" 
d="M276 683v-47h-293v47h293zM101 0v517h57v-517h-57z" />
    <glyph glyph-name="ibreve.sc" horiz-adv-x="259" 
d="M13 738q14 -50 44 -75t73 -25t73 25t43 75l47 -14q-18 -66 -60.5 -100.5t-102.5 -34.5q-61 0 -103.5 35t-59.5 100l46 14v0v0zM101 0v517h57v-517h-57z" />
    <glyph glyph-name="iogonek.sc" horiz-adv-x="259" 
d="M222 -165q-38 -41 -92 -41q-44 0 -72 22.5t-28 60.5q0 33 20.5 63t60.5 60h-10v517h57v-517q-74 -64 -74 -112q0 -21 14 -33t37 -12q33 0 57 29l30 -37v0v0z" />
    <glyph glyph-name="Idotaccent.sc" horiz-adv-x="259" 
d="M130 700q17 0 29 -12t12 -29t-12 -29t-29 -12t-29 12t-12 29t12 29t29 12v0v0zM101 0v517h57v-517h-57z" />
    <glyph glyph-name="ij.sc" horiz-adv-x="737" 
d="M641 188q0 -92 -54 -143t-140 -51q-56 0 -97.5 18.5t-68.5 46.5l35 41q22 -23 55 -37.5t75 -14.5q63 0 100.5 37.5t37.5 107.5v324h57v-329v0v0zM101 0v517h57v-517h-57z" />
    <glyph glyph-name="jcircumflex.sc" horiz-adv-x="478" 
d="M382 188q0 -92 -54 -143t-140 -51q-56 0 -97.5 18.5t-68.5 46.5l35 41q22 -23 55 -37.5t75 -14.5q63 0 100.5 37.5t37.5 107.5v324h57v-329v0v0zM353 693l-100 -103h-61l124 141h75l124 -141h-62z" />
    <glyph glyph-name="kgreenlandic.sc" horiz-adv-x="566" 
d="M235 286l229 231h72l-259 -255l275 -262h-75l-243 234h-76v-234h-57v517h57v-231h77z" />
    <glyph glyph-name="lacute.sc" horiz-adv-x="500" 
d="M181 737h72l-126 -150h-56zM101 0v517h57v-464h322v-53h-379z" />
    <glyph glyph-name="lcaron.sc" horiz-adv-x="500" 
d="M101 0v517h57v-464h322v-53h-379zM269 517h58l-16 -195h-48z" />
    <glyph glyph-name="ldot.sc" horiz-adv-x="500" 
d="M372 296q17 0 29 -12t12 -29t-12 -29t-29 -12t-28.5 12t-11.5 29t11.5 29t28.5 12v0v0zM101 0v517h57v-464h322v-53h-379z" />
    <glyph glyph-name="lslash.sc" horiz-adv-x="545" 
d="M146 0v191l-85 -47v57l85 47v269h57v-238l193 106v-57l-193 -106v-169h322v-53h-379z" />
    <glyph glyph-name="nacute.sc" horiz-adv-x="659" 
d="M379 737h72l-126 -150h-56zM505 0l-347 422v-422h-57v517h52l348 -423v423h56v-517h-52z" />
    <glyph glyph-name="ncaron.sc" horiz-adv-x="659" 
d="M328 628l100 102h61l-124 -141h-75l-124 141h62zM505 0l-347 422v-422h-57v517h52l348 -423v423h56v-517h-52z" />
    <glyph glyph-name="napostrophe.sc" horiz-adv-x="809" 
d="M121 479h-49l31 241h66zM656 0l-348 422v-422h-56v517h52l347 -423v423h57v-517h-52z" />
    <glyph glyph-name="eng.sc" horiz-adv-x="659" 
d="M557 -12q0 -66 -32.5 -103.5t-93.5 -37.5q-56 0 -100 26l20 48q34 -21 73 -21q38 0 57.5 23.5t19.5 67.5v14l-343 418v-423h-57v518h52l348 -425v424h56v-529v0v0z" />
    <glyph glyph-name="omacron.sc" horiz-adv-x="653" 
d="M327 523q75 0 135.5 -34t95.5 -94t35 -136q0 -77 -35 -137.5t-95.5 -94.5t-135.5 -34t-136 34t-95.5 94.5t-34.5 137.5q0 76 34.5 136t95.5 94t136 34v0v0zM327 469q-58 0 -105.5 -26.5t-74.5 -74.5t-27 -109q0 -62 27 -110t74.5 -74.5t105.5 -26.5t105.5 26.5t74.5 74.5
t27 110q0 61 -27 109t-74.5 74.5t-105.5 26.5v0v0zM473 683v-47h-292v47h292z" />
    <glyph glyph-name="obreve.sc" horiz-adv-x="653" 
d="M210 738q14 -50 44 -75t73 -25t73 25t43 75l47 -14q-18 -66 -60.5 -100.5t-102.5 -34.5t-102.5 34.5t-60.5 100.5l46 14v0v0zM327 523q75 0 135.5 -34t95.5 -94t35 -136q0 -77 -35 -137.5t-95.5 -94.5t-135.5 -34t-136 34t-95.5 94.5t-34.5 137.5q0 76 34.5 136t95.5 94
t136 34v0v0zM327 469q-58 0 -105.5 -26.5t-74.5 -74.5t-27 -109q0 -62 27 -110t74.5 -74.5t105.5 -26.5t105.5 26.5t74.5 74.5t27 110q0 61 -27 109t-74.5 74.5t-105.5 26.5v0v0z" />
    <glyph glyph-name="ohungarumlaut.sc" horiz-adv-x="653" 
d="M327 523q75 0 135.5 -34t95.5 -94t35 -136q0 -77 -35 -137.5t-95.5 -94.5t-135.5 -34t-136 34t-95.5 94.5t-34.5 137.5q0 76 34.5 136t95.5 94t136 34v0v0zM327 469q-58 0 -105.5 -26.5t-74.5 -74.5t-27 -109q0 -62 27 -110t74.5 -74.5t105.5 -26.5t105.5 26.5t74.5 74.5
t27 110q0 61 -27 109t-74.5 74.5t-105.5 26.5v0v0zM310 737h65l-113 -150h-58zM487 737h67l-121 -150h-58z" />
    <glyph glyph-name="oe.sc" horiz-adv-x="900" 
d="M338 0q-82 0 -145 32t-97.5 90.5t-34.5 135.5t34.5 136t97.5 91t145 32h479v-52h-325v-179h315v-52h-315v-182h327v-52h-481v0v0zM120 258q0 -93 58 -149t160 -56h97v411h-97q-102 0 -160 -56.5t-58 -149.5v0v0z" />
    <glyph glyph-name="racute.sc" horiz-adv-x="562" 
d="M313 517q91 0 141.5 -38.5t50.5 -109.5q0 -68 -51.5 -107t-139.5 -39h-10l203 -223h-71l-199 223h-79v-223h-57v517h212v0v0zM312 272q65 0 100 25t35 72t-35.5 71t-99.5 24h-154v-192h154v0v0zM336 737h72l-125 -150h-57z" />
    <glyph glyph-name="rcaron.sc" horiz-adv-x="562" 
d="M313 517q91 0 141.5 -38.5t50.5 -109.5q0 -68 -51.5 -107t-139.5 -39h-10l203 -223h-71l-199 223h-79v-223h-57v517h212v0v0zM312 272q65 0 100 25t35 72t-35.5 71t-99.5 24h-154v-192h154v0v0zM124 730h61l100 -102l100 102h62l-124 -141h-75z" />
    <glyph glyph-name="sacute.sc" horiz-adv-x="558" 
d="M456 420q-34 22 -79.5 36t-94.5 14q-65 0 -105.5 -25t-40.5 -69q0 -37 32 -58.5t102 -28.5l58 -7q169 -20 169 -133q0 -76 -62 -115.5t-157 -39.5q-59 0 -119 18t-98 46l29 45q33 -23 85 -40t103 -17q71 0 115.5 25t44.5 72q0 39 -34 59t-103 28l-59 6q-81 9 -123.5 43
t-42.5 92q0 70 58 111t148 41q114 0 201 -57l-27 -46v0v0zM335 737h72l-125 -150h-57z" />
    <glyph glyph-name="scircumflex.sc" horiz-adv-x="558" 
d="M456 420q-34 22 -79.5 36t-94.5 14q-65 0 -105.5 -25t-40.5 -69q0 -37 32 -58.5t102 -28.5l58 -7q169 -20 169 -133q0 -76 -62 -115.5t-157 -39.5q-59 0 -119 18t-98 46l29 45q33 -23 85 -40t103 -17q71 0 115.5 25t44.5 72q0 39 -34 59t-103 28l-59 6q-81 9 -123.5 43
t-42.5 92q0 70 58 111t148 41q114 0 201 -57l-27 -46v0v0zM284 693l-100 -103h-61l124 141h75l124 -141h-62z" />
    <glyph glyph-name="scedilla.sc" horiz-adv-x="558" 
d="M456 420q-34 22 -79.5 36t-94.5 14q-65 0 -105.5 -25t-40.5 -69q0 -37 32 -58.5t102 -28.5l58 -7q169 -20 169 -133q0 -68 -51 -107t-133 -47l-49 -157h-59l51 157q-55 3 -108 20.5t-87 42.5l29 45q33 -23 85 -40t103 -17q71 0 115.5 25t44.5 72q0 39 -34 59t-103 28
l-59 6q-81 9 -123.5 43t-42.5 92q0 70 58 111t148 41q114 0 201 -57l-27 -46v0v0z" />
    <glyph glyph-name="scaron.sc" horiz-adv-x="558" 
d="M456 420q-34 22 -79.5 36t-94.5 14q-65 0 -105.5 -25t-40.5 -69q0 -37 32 -58.5t102 -28.5l58 -7q169 -20 169 -133q0 -76 -62 -115.5t-157 -39.5q-59 0 -119 18t-98 46l29 45q33 -23 85 -40t103 -17q71 0 115.5 25t44.5 72q0 39 -34 59t-103 28l-59 6q-81 9 -123.5 43
t-42.5 92q0 70 58 111t148 41q114 0 201 -57l-27 -46v0v0zM284 628l100 102h62l-124 -141h-75l-124 141h61z" />
    <glyph glyph-name="tcaron.sc" horiz-adv-x="489" 
d="M244 628l100 102h62l-124 -141h-75l-124 141h61zM273 464v-464h-57v464h-196v53h448v-53h-195z" />
    <glyph glyph-name="tbar.sc" horiz-adv-x="489" 
d="M273 238v-238h-57v238h-140v51h140v175h-196v53h448v-53h-195v-175h140v-51h-140z" />
    <glyph glyph-name="utilde.sc" horiz-adv-x="626" 
d="M149 655q21 28 45.5 41.5t57.5 13.5q24 0 41 -6t38 -18q16 -10 28 -14.5t26 -4.5q22 0 38.5 10t35.5 31l30 -36q-22 -28 -46.5 -41.5t-57.5 -13.5q-24 0 -41 6.5t-37 18.5q-16 10 -28 14.5t-27 4.5q-21 0 -38 -10t-36 -32l-29 36v0v0zM535 203q0 -100 -62 -154.5
t-160 -54.5t-160 54.5t-62 154.5v314h57v-311q0 -77 45.5 -117.5t119.5 -40.5t120 40.5t46 117.5v311h56v-314v0v0z" />
    <glyph glyph-name="umacron.sc" horiz-adv-x="626" 
d="M535 203q0 -100 -62 -154.5t-160 -54.5t-160 54.5t-62 154.5v314h57v-311q0 -77 45.5 -117.5t119.5 -40.5t120 40.5t46 117.5v311h56v-314v0v0zM460 683v-47h-293v47h293z" />
    <glyph glyph-name="ubreve.sc" horiz-adv-x="626" 
d="M197 738q13 -50 43 -75t73 -25t73 25t44 75l46 -14q-18 -66 -60.5 -100.5t-102.5 -34.5t-102.5 35t-59.5 100l46 14v0v0zM535 203q0 -100 -62 -154.5t-160 -54.5t-160 54.5t-62 154.5v314h57v-311q0 -77 45.5 -117.5t119.5 -40.5t120 40.5t46 117.5v311h56v-314v0v0z" />
    <glyph glyph-name="uring.sc" horiz-adv-x="626" 
d="M313 579q-44 0 -75.5 31.5t-31.5 75.5t31.5 75t75.5 31t76 -31.5t32 -74.5q0 -44 -32 -75.5t-76 -31.5v0v0zM313 616q29 0 49 20t20 50q0 29 -20 49t-49 20q-28 0 -48.5 -20t-20.5 -49q0 -30 20 -50t49 -20v0v0zM535 203q0 -100 -62 -154.5t-160 -54.5t-160 54.5
t-62 154.5v314h57v-311q0 -77 45.5 -117.5t119.5 -40.5t120 40.5t46 117.5v311h56v-314v0v0z" />
    <glyph glyph-name="uhungarumlaut.sc" horiz-adv-x="626" 
d="M535 203q0 -100 -62 -154.5t-160 -54.5t-160 54.5t-62 154.5v314h57v-311q0 -77 45.5 -117.5t119.5 -40.5t120 40.5t46 117.5v311h56v-314v0v0zM297 737h65l-113 -150h-59zM474 737h67l-122 -150h-57z" />
    <glyph glyph-name="uogonek.sc" horiz-adv-x="626" 
d="M506 -162q-21 -21 -50 -32.5t-61 -11.5q-54 0 -87.5 27.5t-33.5 70.5q0 60 65 103l-23 -1q-104 0 -164.5 55t-60.5 154v314h57v-311q0 -77 45.5 -117.5t119.5 -40.5t120 40.5t46 117.5v311h56v-314q0 -63 -25.5 -108t-70.5 -71q-110 -56 -110 -122q0 -26 19.5 -42.5
t50.5 -16.5q43 0 77 31l30 -36v0v0z" />
    <glyph glyph-name="wcircumflex.sc" horiz-adv-x="868" 
d="M435 693l-100 -103h-62l124 141h75l124 -141h-61zM593 0l-159 444l-159 -444h-67l-181 517h59l156 -457l162 457h62l161 -457l156 457h58l-180 -517h-68z" />
    <glyph glyph-name="ycircumflex.sc" horiz-adv-x="506" 
d="M254 693l-100 -103h-61l124 141h75l124 -141h-62zM282 0h-56v216l-221 301h67l182 -246l182 246h65l-219 -302v-215z" />
    <glyph glyph-name="zacute.sc" horiz-adv-x="551" 
d="M329 737h72l-126 -150h-56zM136 52h354v-52h-429v44l352 421h-346v52h422v-44z" />
    <glyph glyph-name="zdotaccent.sc" horiz-adv-x="551" 
d="M278 700q17 0 29 -12t12 -29t-12 -29t-29 -12t-29 12t-12 29t12 29t29 12v0v0zM136 52h354v-52h-429v44l352 421h-346v52h422v-44z" />
    <glyph glyph-name="zcaron.sc" horiz-adv-x="551" 
d="M278 628l100 102h61l-124 -141h-75l-124 141h62zM136 52h354v-52h-429v44l352 421h-346v52h422v-44z" />
    <glyph glyph-name="longs.sc" horiz-adv-x="558" 
d="M456 420q-34 22 -79.5 36t-94.5 14q-65 0 -105.5 -25t-40.5 -69q0 -37 32 -58.5t102 -28.5l58 -7q169 -20 169 -133q0 -76 -62 -115.5t-157 -39.5q-59 0 -119 18t-98 46l29 45q33 -23 85 -40t103 -17q71 0 115.5 25t44.5 72q0 39 -34 59t-103 28l-59 6q-81 9 -123.5 43
t-42.5 92q0 70 58 111t148 41q114 0 201 -57l-27 -46v0v0z" />
    <glyph glyph-name="florin.sc" 
d="M312 115q-6 -58 -33.5 -89.5t-77.5 -31.5q-49 0 -89 27l20 40q29 -19 64 -19q58 0 64 76l13 127h-101v45h105l12 112q5 57 32.5 88.5t77.5 31.5t90 -26l-21 -40q-32 19 -64 19q-56 0 -64 -76l-11 -109h114v-45h-118l-13 -130v0v0z" />
    <glyph glyph-name="gcaron.sc" horiz-adv-x="635" 
d="M327 523q60 0 111.5 -23t87.5 -63l-41 -40q-29 34 -70 53t-89 19q-58 0 -105 -26.5t-74.5 -74.5t-27.5 -109q0 -62 27.5 -110.5t74.5 -75t104 -26.5q82 0 133 48t57 131h-171v48h229q1 -6 1 -18q0 -76 -32 -136t-89 -93t-128 -33t-131.5 33t-96.5 93t-36 139
q0 76 35 136.5t95.5 94t135.5 33.5v0v0zM323 628l100 102h61l-124 -141h-75l-124 141h62z" />
    <glyph glyph-name="aringacute.sc" horiz-adv-x="563" 
d="M236 491q-28 13 -45 39t-17 58q0 44 32 75.5t76 31.5t75.5 -31.5t31.5 -75.5q0 -32 -17 -58t-45 -39l219 -491h-60l-64 144h-283l-63 -144h-59l219 491v0v0zM282 518q29 0 49 20.5t20 49.5t-20 49.5t-49 20.5t-49 -20.5t-20 -49.5t20 -49.5t49 -20.5v0v0zM333 876h72
l-125 -150h-57zM399 196l-118 268l-119 -268h237z" />
    <glyph glyph-name="aeacute.sc" horiz-adv-x="893" 
d="M641 737h72l-126 -150h-56zM428 0v138h-241l-105 -138h-68l396 517h400v-52h-325v-179h315v-52h-315v-182h327v-52h-384zM428 454l-201 -264h201v264z" />
    <glyph glyph-name="oslashacute.sc" horiz-adv-x="653" 
d="M327 523q49 0 93 -15.5t78 -43.5l61 61l34 -35l-60 -60q29 -34 44.5 -77.5t15.5 -93.5q0 -77 -35 -137.5t-95.5 -94.5t-135.5 -34q-99 0 -172 59l-59 -60l-35 35l59 59q-59 72 -59 173q0 76 34.5 136t95.5 94t136 34v0v0zM327 469q-58 0 -105.5 -26.5t-74.5 -74.5
t-27 -109q0 -77 41 -132l298 298q-57 44 -132 44v0v0zM534 259q0 76 -41 131l-298 -298q55 -44 132 -44q58 0 105.5 26.5t74.5 74.5t27 110v0v0zM378 737h72l-126 -150h-56z" />
    <glyph glyph-name="gravecomb.sc" horiz-adv-x="0" 
d="M-385 737l110 -150h-56l-126 150h72z" />
    <glyph glyph-name="acutecomb.sc" horiz-adv-x="0" 
d="M-277 737h72l-125 -150h-57z" />
    <glyph glyph-name="tildecomb.sc" horiz-adv-x="0" 
d="M-492 655q21 28 45.5 41.5t57.5 13.5q24 0 41 -6t38 -18q16 -10 28 -14.5t26 -4.5q22 0 38.5 10t35.5 31l30 -36q-22 -28 -46.5 -41.5t-57.5 -13.5q-24 0 -41 6.5t-37 18.5q-16 10 -28 14.5t-27 4.5q-21 0 -38 -10t-36 -32l-29 36v0v0z" />
    <glyph glyph-name="dotbelowcomb.sc" horiz-adv-x="0" 
d="M-328 -90q17 0 29 -12t12 -29t-12 -29t-29 -12t-28.5 12t-11.5 29t11.5 29t28.5 12v0v0z" />
    <glyph glyph-name="wgrave.sc" horiz-adv-x="868" 
d="M378 737l110 -150h-57l-125 150h72zM593 0l-159 444l-159 -444h-67l-181 517h59l156 -457l162 457h62l161 -457l156 457h58l-180 -517h-68z" />
    <glyph glyph-name="wacute.sc" horiz-adv-x="868" 
d="M486 737h72l-126 -150h-56zM593 0l-159 444l-159 -444h-67l-181 517h59l156 -457l162 457h62l161 -457l156 457h58l-180 -517h-68z" />
    <glyph glyph-name="wdieresis.sc" horiz-adv-x="868" 
d="M332 700q17 0 29 -12t12 -29t-12 -29t-29 -12t-28.5 12t-11.5 29t11.5 29t28.5 12v0v0zM537 700q17 0 29 -12t12 -29t-12 -29t-29 -12t-29 12t-12 29t12 29t29 12v0v0zM593 0l-159 444l-159 -444h-67l-181 517h59l156 -457l162 457h62l161 -457l156 457h58l-180 -517h-68
z" />
    <glyph glyph-name="ygrave.sc" horiz-adv-x="506" 
d="M197 737l110 -150h-56l-126 150h72zM282 0h-56v216l-221 301h67l182 -246l182 246h65l-219 -302v-215z" />
    <glyph glyph-name="quoteleft.sc" horiz-adv-x="192" 
d="M97 516h45l-29 -222h-60z" />
    <glyph glyph-name="quoteright.sc" horiz-adv-x="192" 
d="M95 294h-45l29 223h61z" />
    <glyph glyph-name="quotesinglbase.sc" horiz-adv-x="192" 
d="M95 -80h-45l29 223h61z" />
    <glyph glyph-name="quotedblleft.sc" horiz-adv-x="332" 
d="M97 516h45l-29 -222h-60zM237 516h45l-29 -222h-60z" />
    <glyph glyph-name="quotedblright.sc" horiz-adv-x="332" 
d="M95 294h-45l29 223h61zM235 294h-45l29 223h61z" />
    <glyph glyph-name="quotedblbase.sc" horiz-adv-x="332" 
d="M95 -80h-45l29 223h61zM235 -80h-45l29 223h61z" />
    <glyph glyph-name="dagger.sc" horiz-adv-x="296" 
d="M128 400h-77v41h77v76h41v-76h76v-41h-76v-155h-41v155z" />
    <glyph glyph-name="daggerdbl.sc" horiz-adv-x="296" 
d="M128 310h-77v38h77v65h-77v38h77v66h41v-66h76v-38h-76v-65h76v-38h-76v-65h-41v65z" />
    <glyph glyph-name="perthousand.sc" horiz-adv-x="1064" 
d="M184 524q58 0 97 -38t39 -94t-39 -93.5t-97 -37.5t-96.5 37.5t-38.5 93.5t38.5 94t96.5 38v0v0zM184 481q-38 0 -63.5 -25.5t-25.5 -63.5t25.5 -63t63.5 -25q39 0 64.5 25t25.5 63t-25.5 63.5t-64.5 25.5v0v0zM564 257q58 0 97.5 -37.5t39.5 -93.5q0 -57 -39 -94.5
t-98 -37.5q-57 0 -96 37.5t-39 94.5q0 55 39 93t96 38v0v0zM879 256q58 0 97 -38t39 -94t-39 -94t-97 -38t-97 38t-39 94t39 94t97 38v0v0zM564 214q-38 0 -63.5 -25t-25.5 -63q0 -39 25.5 -64t63.5 -25q39 0 64.5 25t25.5 64q0 38 -25.5 63t-64.5 25v0v0zM879 213
q-38 0 -63.5 -25t-25.5 -64q0 -38 25.5 -63t63.5 -25q39 0 64.5 25t25.5 63q0 39 -25.5 64t-64.5 25v0v0zM177 0l341 517h54l-341 -517h-54z" />
    <glyph glyph-name="minute.sc" horiz-adv-x="204" 
d="M101 285h-51l52 232h50z" />
    <glyph glyph-name="second.sc" horiz-adv-x="323" 
d="M101 285h-51l52 232h50zM219 285h-50l51 232h50z" />
    <glyph glyph-name="fi.sc" horiz-adv-x="799" 
d="M158 232v-232h-57v517h378v-52h-321v-181h309v-52h-309zM641 0v517h56v-517h-56z" />
    <glyph glyph-name="fl.sc" horiz-adv-x="1040" 
d="M158 232v-232h-57v517h378v-52h-321v-181h309v-52h-309zM641 0v517h56v-464h322v-53h-378z" />
    </font>
</defs>
</svg>
