<svg width="80" height="24" viewBox="0 0 80 24" fill="none" xmlns="http://www.w3.org/2000/svg">
<g clip-path="url(#clip0_6906_23714)">
<path d="M77.037 23.9515H2.96296C1.3037 23.9515 0 22.6368 0 20.9636V3.03645C0 1.36324 1.3037 0.048584 2.96296 0.048584H77.037C78.6963 0.048584 80 1.36324 80 3.03645V20.9636C80 22.6368 78.6963 23.9515 77.037 23.9515Z" fill="black"/>
<path d="M77.037 0.526642C78.4 0.526642 79.5259 1.66203 79.5259 3.03645V20.9636C79.5259 22.338 78.4 23.4734 77.037 23.4734H2.96296C1.6 23.4734 0.474074 22.338 0.474074 20.9636V3.03645C0.474074 1.66203 1.6 0.526642 2.96296 0.526642H77.037ZM77.037 0.048584H2.96296C1.3037 0.048584 0 1.423 0 3.03645V20.9636C0 22.6368 1.3037 23.9515 2.96296 23.9515H77.037C78.6963 23.9515 80 22.6368 80 20.9636V3.03645C80 1.423 78.6963 0.048584 77.037 0.048584Z" fill="#A6A6A6"/>
<path d="M28.0888 6.14386C28.0888 6.62192 27.9702 7.04022 27.6739 7.33901C27.3184 7.69755 26.9036 7.87682 26.3702 7.87682C25.8369 7.87682 25.4221 7.69755 25.0665 7.33901C24.711 6.98047 24.5332 6.56216 24.5332 6.02435C24.5332 5.48653 24.711 5.06823 25.0665 4.70969C25.4221 4.35115 25.8369 4.17188 26.3702 4.17188C26.6073 4.17188 26.8443 4.23163 27.0814 4.35115C27.3184 4.47066 27.4962 4.59018 27.6147 4.76945L27.3184 5.06823C27.0813 4.76945 26.7851 4.64993 26.3702 4.64993C26.0147 4.64993 25.6591 4.76945 25.4221 5.06823C25.1258 5.30726 25.0073 5.66581 25.0073 6.08411C25.0073 6.50241 25.1258 6.86095 25.4221 7.09998C25.7184 7.33901 26.0147 7.51828 26.3702 7.51828C26.7851 7.51828 27.0814 7.39877 27.3776 7.09998C27.5554 6.92071 27.6739 6.68168 27.6739 6.38289H26.3702V5.90483H28.0888V6.14386ZM30.8147 4.64993H29.2147V5.78532H30.6962V6.20362H29.2147V7.33901H30.8147V7.81707H28.7406V4.23163H30.8147V4.64993ZM32.7702 7.81707H32.2962V4.64993H31.2888V4.23163H33.7776V4.64993H32.7702V7.81707ZM35.4962 7.81707V4.23163H35.9702V7.81707H35.4962ZM37.9851 7.81707H37.511V4.64993H36.5036V4.23163H38.9332V4.64993H37.9258V7.81707H37.9851ZM43.6147 7.33901C43.2591 7.69755 42.8443 7.87682 42.311 7.87682C41.7776 7.87682 41.3628 7.69755 41.0073 7.33901C40.6517 6.98047 40.4739 6.56216 40.4739 6.02435C40.4739 5.48653 40.6517 5.06823 41.0073 4.70969C41.3628 4.35115 41.7776 4.17188 42.311 4.17188C42.8443 4.17188 43.2591 4.35115 43.6147 4.70969C43.9702 5.06823 44.148 5.48653 44.148 6.02435C44.148 6.56216 43.9702 6.98047 43.6147 7.33901ZM41.3628 7.04022C41.5999 7.27925 41.9554 7.45852 42.311 7.45852C42.6665 7.45852 43.0221 7.33901 43.2591 7.04022C43.4962 6.80119 43.6739 6.44265 43.6739 6.02435C43.6739 5.60605 43.5554 5.24751 43.2591 5.00848C43.0221 4.76945 42.6665 4.59018 42.311 4.59018C41.9554 4.59018 41.5999 4.70969 41.3628 5.00848C41.1258 5.24751 40.948 5.60605 40.948 6.02435C40.948 6.44265 41.0665 6.80119 41.3628 7.04022ZM44.7999 7.81707V4.23163H45.3332L47.0517 7.04022V4.23163H47.5258V7.81707H47.0517L45.2147 4.88896V7.81707H44.7999Z" fill="white" stroke="white" stroke-width="0.1" stroke-miterlimit="10"/>
<path d="M40.3555 13.0757C38.9332 13.0757 37.8073 14.1513 37.8073 15.6452C37.8073 17.0794 38.9332 18.2148 40.3555 18.2148C41.7777 18.2148 42.9036 17.1392 42.9036 15.6452C42.9036 14.0916 41.7777 13.0757 40.3555 13.0757ZM40.3555 17.1392C39.5851 17.1392 38.9332 16.4818 38.9332 15.5855C38.9332 14.6891 39.5851 14.0318 40.3555 14.0318C41.1258 14.0318 41.7777 14.6294 41.7777 15.5855C41.7777 16.4818 41.1258 17.1392 40.3555 17.1392ZM34.8444 13.0757C33.4221 13.0757 32.2962 14.1513 32.2962 15.6452C32.2962 17.0794 33.4221 18.2148 34.8444 18.2148C36.2666 18.2148 37.3925 17.1392 37.3925 15.6452C37.3925 14.0916 36.2666 13.0757 34.8444 13.0757ZM34.8444 17.1392C34.074 17.1392 33.4221 16.4818 33.4221 15.5855C33.4221 14.6891 34.074 14.0318 34.8444 14.0318C35.6147 14.0318 36.2666 14.6294 36.2666 15.5855C36.2666 16.4818 35.6147 17.1392 34.8444 17.1392ZM28.2666 13.8525V14.9282H30.8147C30.7555 15.5257 30.5184 16.0038 30.2221 16.3026C29.8666 16.6611 29.274 17.0794 28.2666 17.0794C26.6666 17.0794 25.4814 15.8245 25.4814 14.2111C25.4814 12.5976 26.7258 11.3427 28.2666 11.3427C29.0962 11.3427 29.7481 11.7013 30.2221 12.1196L30.9925 11.3427C30.3407 10.7451 29.511 10.2671 28.3258 10.2671C26.1925 10.2671 24.3555 12.0598 24.3555 14.2111C24.3555 16.3623 26.1925 18.155 28.3258 18.155C29.511 18.155 30.3407 17.7965 31.0518 17.0197C31.7629 16.3026 31.9999 15.2867 31.9999 14.5099C31.9999 14.2708 31.9999 14.0318 31.9407 13.8525H28.2666ZM55.1703 14.6891C54.9332 14.0916 54.3407 13.0757 53.0369 13.0757C51.7332 13.0757 50.6666 14.0916 50.6666 15.6452C50.6666 17.0794 51.7332 18.2148 53.1555 18.2148C54.2814 18.2148 54.9925 17.4977 55.2295 17.0794L54.3999 16.4818C54.1036 16.9001 53.7481 17.1989 53.1555 17.1989C52.5629 17.1989 52.2073 16.9599 51.911 16.4221L55.2888 14.9879L55.1703 14.6891ZM51.7332 15.5257C51.7332 14.5696 52.5036 14.0318 53.0369 14.0318C53.4518 14.0318 53.8666 14.2708 53.9851 14.5696L51.7332 15.5257ZM48.9481 17.9758H50.074V10.5061H48.9481V17.9758ZM47.1703 13.6135C46.874 13.3147 46.3999 13.0159 45.8073 13.0159C44.5629 13.0159 43.3777 14.1513 43.3777 15.5855C43.3777 17.0197 44.5036 18.0953 45.8073 18.0953C46.3999 18.0953 46.874 17.7965 47.111 17.4977H47.1703V17.8563C47.1703 18.8124 46.637 19.3502 45.8073 19.3502C45.1555 19.3502 44.6814 18.8721 44.5629 18.4538L43.6147 18.8721C43.911 19.5295 44.6221 20.3661 45.8666 20.3661C47.1703 20.3661 48.2369 19.5892 48.2369 17.7367V13.1952H47.1703V13.6135ZM45.8666 17.1392C45.0962 17.1392 44.4444 16.4818 44.4444 15.5855C44.4444 14.6891 45.0962 14.0318 45.8666 14.0318C46.6369 14.0318 47.2295 14.6891 47.2295 15.5855C47.2295 16.4818 46.6369 17.1392 45.8666 17.1392ZM60.3258 10.5061H57.6592V17.9758H58.7851V15.1672H60.3258C61.5703 15.1672 62.7555 14.2708 62.7555 12.8367C62.7555 11.4025 61.5703 10.5061 60.3258 10.5061ZM60.3851 14.0916H58.7851V11.522H60.3851C61.2147 11.522 61.6888 12.2391 61.6888 12.7769C61.6295 13.4342 61.1555 14.0916 60.3851 14.0916ZM67.1999 13.0159C66.3703 13.0159 65.5407 13.3745 65.2444 14.1513L66.2518 14.5696C66.4888 14.1513 66.8444 14.0318 67.2592 14.0318C67.8518 14.0318 68.3851 14.3903 68.4444 14.9879V15.0477C68.2666 14.9282 67.7925 14.7489 67.3184 14.7489C66.2518 14.7489 65.1851 15.3465 65.1851 16.4221C65.1851 17.438 66.074 18.0953 67.0221 18.0953C67.7925 18.0953 68.1481 17.7367 68.4444 17.3782H68.5036V17.9758H69.5703V15.1074C69.4518 13.7928 68.4444 13.0159 67.1999 13.0159ZM67.0814 17.1392C66.7258 17.1392 66.1925 16.9599 66.1925 16.4818C66.1925 15.8843 66.8444 15.705 67.3777 15.705C67.8518 15.705 68.0888 15.8245 68.3851 15.944C68.2666 16.6611 67.674 17.1392 67.0814 17.1392ZM73.3036 13.1952L72.0592 16.4221H71.9999L70.6962 13.1952H69.511L71.4666 17.7367L70.3406 20.2465H71.4666L74.4888 13.1952H73.3036ZM63.3481 17.9758H64.474V10.5061H63.3481V17.9758Z" fill="white"/>
<path d="M6.16306 4.53052C5.98528 4.70979 5.92603 5.00858 5.92603 5.36712V18.5735C5.92603 18.932 6.04454 19.2308 6.22232 19.4101L6.28158 19.4698L13.6297 12.0599V11.9404L6.16306 4.53052Z" fill="url(#paint0_linear_6906_23714)"/>
<path d="M16.0002 14.5696L13.5706 12.1196V11.9403L16.0002 9.49023L16.0594 9.54999L18.9631 11.2232C19.7928 11.7013 19.7928 12.4781 18.9631 12.9562L16.0002 14.5696Z" fill="url(#paint1_linear_6906_23714)"/>
<path d="M16.0594 14.5098L13.5705 12L6.16309 19.4697C6.45938 19.7684 6.8742 19.7684 7.40753 19.5294L16.0594 14.5098Z" fill="url(#paint2_linear_6906_23714)"/>
<path d="M16.0594 9.49027L7.40753 4.53042C6.8742 4.23164 6.45938 4.29139 6.16309 4.59018L13.5705 12.0001L16.0594 9.49027Z" fill="url(#paint3_linear_6906_23714)"/>
<path opacity="0.2" d="M16.0001 14.4502L7.40753 19.3503C6.93346 19.6491 6.51864 19.5893 6.22235 19.3503L6.16309 19.41L6.22235 19.4698C6.51864 19.7088 6.93346 19.7686 7.40753 19.4698L16.0001 14.4502Z" fill="black"/>
<path opacity="0.12" d="M6.16306 19.3501C5.98528 19.1709 5.92603 18.8721 5.92603 18.5135V18.5733C5.92603 18.9318 6.04454 19.2306 6.22232 19.4099V19.3501H6.16306ZM18.9631 12.7768L16.0001 14.45L16.0594 14.5098L18.9631 12.8366C19.3779 12.5976 19.5557 12.2988 19.5557 12C19.5557 12.2988 19.3186 12.5378 18.9631 12.7768Z" fill="black"/>
<path opacity="0.25" d="M7.40751 4.59017L18.9631 11.2232C19.3186 11.4622 19.5557 11.7013 19.5557 12.0001C19.5557 11.7013 19.3779 11.4025 18.9631 11.1635L7.40751 4.53041C6.57788 4.05235 5.92603 4.41089 5.92603 5.36701V5.42677C5.92603 4.53041 6.57788 4.11211 7.40751 4.59017Z" fill="white"/>
</g>
<defs>
<linearGradient id="paint0_linear_6906_23714" x1="12.9186" y1="5.25358" x2="2.88992" y2="15.1981" gradientUnits="userSpaceOnUse">
<stop stop-color="#00A0FF"/>
<stop offset="0.007" stop-color="#00A1FF"/>
<stop offset="0.26" stop-color="#00BEFF"/>
<stop offset="0.512" stop-color="#00D2FF"/>
<stop offset="0.76" stop-color="#00DFFF"/>
<stop offset="1" stop-color="#00E3FF"/>
</linearGradient>
<linearGradient id="paint1_linear_6906_23714" x1="20.05" y1="12.0006" x2="5.711" y2="12.0006" gradientUnits="userSpaceOnUse">
<stop stop-color="#FFE000"/>
<stop offset="0.409" stop-color="#FFBD00"/>
<stop offset="0.775" stop-color="#FFA500"/>
<stop offset="1" stop-color="#FF9C00"/>
</linearGradient>
<linearGradient id="paint2_linear_6906_23714" x1="14.7124" y1="13.372" x2="1.11334" y2="26.8578" gradientUnits="userSpaceOnUse">
<stop stop-color="#FF3A44"/>
<stop offset="1" stop-color="#C31162"/>
</linearGradient>
<linearGradient id="paint3_linear_6906_23714" x1="4.32427" y1="0.153802" x2="10.3972" y2="6.17611" gradientUnits="userSpaceOnUse">
<stop stop-color="#32A071"/>
<stop offset="0.069" stop-color="#2DA771"/>
<stop offset="0.476" stop-color="#15CF74"/>
<stop offset="0.801" stop-color="#06E775"/>
<stop offset="1" stop-color="#00F076"/>
</linearGradient>
<clipPath id="clip0_6906_23714">
<rect width="80" height="24" fill="white"/>
</clipPath>
</defs>
</svg>
