<svg width="166" height="166" viewBox="0 0 166 166" fill="none" xmlns="http://www.w3.org/2000/svg">
<rect width="166" height="166" fill="#FF5C0A"/>
<g clip-path="url(#clip0_16193_226735)">
<path d="M130.718 67.2978L120.599 79.2072V101.353C120.599 113.288 110.931 122.995 99.0541 122.995H62.485C55.588 122.995 49.4444 119.726 45.502 114.65C44.7822 114.759 44.0205 114.826 43.2086 114.826C40.5888 114.826 34.0015 113.044 34.0015 108.825C34.0015 106.858 35.6002 105.253 37.5588 105.253C38.1614 105.253 38.6469 105.388 39.0487 105.556C39.0487 105.556 40.9403 106.287 40.9403 105.06V64.6419C40.9403 52.7074 50.6078 43 62.485 43H99.0541C119.653 43 126.743 57.6241 131.154 64.1124C131.806 65.0706 131.472 66.4069 130.718 67.2978Z" fill="white"/>
<path d="M127.353 64.4067C125.855 62.314 121.904 56.5904 119.276 54.4556C117.083 52.6906 114.497 51.4299 111.258 51.6401C105.666 52.0015 101.021 56.7249 98.0747 60.2464C94.735 64.2638 88.7838 67.3483 81.3177 69.3318C75.6678 70.8279 69.2982 70.0714 64.251 69.7016C61.4637 69.4999 58.8941 69.2982 56.6927 69.4075C48.7495 69.8109 44.0287 75.6521 44.2129 82.4263C44.4054 89.3012 49.1178 95.5543 49.1178 102.009C49.1178 107.069 45.0248 109.304 42.1957 109.304C38.8225 109.304 38.5965 107.918 37.567 107.918C37.1485 107.918 36.6714 108.262 36.6714 108.817C36.6714 110.523 40.8481 112.153 43.2168 112.153C49.5446 112.153 52.1812 107.615 52.1812 107.615C52.1812 107.615 53.7967 112.313 60.0408 112.313C65.0126 112.313 67.1721 109.926 67.1721 107.926C67.1721 106.346 66.4272 105.766 65.766 105.018C60.5095 100.101 58.7099 96.6721 59.5972 93.3019C60.5011 89.8644 64.1087 87.5867 66.8541 87.6203C66.8541 87.6203 63.0624 89.7467 62.2672 93.596C61.447 97.5546 65.2721 101.572 66.8206 101.824C67.2307 101.891 67.9506 101.824 68.2603 101.791C71.0643 101.538 71.9682 100.21 71.9682 98.9162C71.9682 97.0503 69.8004 97.1848 69.8004 94.1255C69.8004 91.8142 71.081 91.0494 72.2026 91.0494C73.4246 91.0494 78.0366 91.4949 83.6194 92.0664C85.486 92.2513 90.1398 94.0667 90.1398 101.32V103.925C90.1398 108.355 91.9142 113.826 99.7068 113.826C104.997 113.826 107.968 110.868 107.968 108.724C107.968 107.329 106.746 106.716 106.143 105.875C104.377 103.396 105.248 99.9499 105.248 99.9499H105.281C106.018 100.194 106.88 100.337 107.868 100.337C111.76 100.337 113.593 98.7817 113.593 96.9327C113.593 94.7643 110.68 94.7727 110.37 92.8648C109.994 90.4863 110.621 79.9469 114.698 74.1225L117.92 75.5765C118.397 75.795 118.967 75.6689 119.301 75.2571L127.303 65.8439C127.646 65.4321 127.663 64.8438 127.353 64.4067ZM72.596 78.9888C65.4312 74.9966 58.0487 74.2065 54.2738 77.6944C51.0262 80.6949 51.4781 85.141 52.0808 87.6623C50.524 86.0907 49.553 83.9307 49.553 81.5354C49.553 76.7531 53.805 72.1894 58.5676 72.1558C63.4056 72.1222 70.2607 73.3829 76.4379 72.8618C77.9612 80.1234 83.1842 85.0317 87.5785 88.2507C85.0842 87.3682 77.0991 81.4933 72.596 78.9888ZM95.957 108.607C97.0786 108.783 99.6817 109.203 100.812 108.094C98.9452 101.017 103.03 97.126 103.03 97.126V97.1596C102.946 97.6555 100.435 105.245 104.252 108.212C102.276 111.59 96.6769 109.54 95.957 108.615V108.607Z" fill="#FF5C0A"/>
<path d="M119.301 60.9859C119.033 62.4819 117.359 63.4316 115.568 63.0955C113.777 62.7677 112.547 61.2885 112.814 59.8008C113.082 58.3048 114.756 57.3551 116.556 57.6829C118.347 58.0107 119.578 59.4899 119.301 60.9859Z" fill="white"/>
<path d="M108.136 58.8342C108.219 58.5568 109.224 55.2959 112.881 54.4386C116.464 53.6065 118.841 55.3967 118.841 55.3967C118.841 55.3967 116.213 53.9091 113.191 55.2874C110.73 56.3632 110.153 58.9603 110.111 59.2712C110.044 59.7587 109.617 60.1369 109.107 60.1369C108.546 60.1369 108.094 59.6831 108.094 59.12C108.094 59.0191 108.11 58.9182 108.136 58.8258V58.8342Z" fill="white"/>
<path d="M84.5484 72.6684C84.1885 71.8111 84.7325 71.1388 85.3352 70.9539C85.9378 70.769 86.5823 70.9539 86.892 71.7523C90.1313 80.0897 97.7063 84.645 107.541 85.4014C96.886 85.9814 88.3652 81.7875 84.5484 72.6768V72.6684Z" fill="white"/>
<path d="M91.772 69.4914C91.4874 68.8863 91.6464 68.1299 92.3913 67.7937C93.1363 67.4575 93.8059 67.7937 94.057 68.4324C96.5346 74.7527 103.097 78.4592 109.341 79.2828C99.6734 79.0223 94.4588 75.1477 91.772 69.4914Z" fill="white"/>
<path d="M98.1251 65.1462C97.7903 64.3057 98.3092 63.7258 98.8114 63.4905C99.3136 63.2552 100.159 63.4064 100.477 64.2133C102.478 69.3485 106.537 71.9876 111.835 73.5004C104.729 73.0802 99.5731 68.8358 98.1251 65.1378V65.1462Z" fill="white"/>
<path d="M118.096 66.6085C114.129 68.3735 110.714 65.7681 110.538 65.6336C110.287 65.4487 110.128 65.1461 110.128 64.8099C110.128 64.2384 110.588 63.7846 111.149 63.7846C111.408 63.7846 111.651 63.8854 111.827 64.0451C112.019 64.2216 114.212 66.4657 117.837 65.5748C121.461 64.6839 121.98 61.322 121.98 61.322C121.98 61.322 122.105 64.8352 118.096 66.6085Z" fill="white"/>
</g>
<defs>
<clipPath id="clip0_16193_226735">
<rect width="97.7778" height="80.2279" fill="white" transform="translate(34.0015 43)"/>
</clipPath>
</defs>
</svg>
