<svg width="166" height="166" viewBox="0 0 166 166" fill="none" xmlns="http://www.w3.org/2000/svg">
<rect width="166" height="166" fill="#FFCBB1"/>
<g clip-path="url(#clip0_16193_226737)">
<path d="M130.717 67.2978L120.597 79.2072V101.353C120.597 113.288 110.93 122.995 99.0527 122.995H62.4836C55.5866 122.995 49.4429 119.726 45.5006 114.65C44.7807 114.759 44.019 114.826 43.2071 114.826C40.5873 114.826 34 113.044 34 108.825C34 106.858 35.5987 105.253 37.5573 105.253C38.16 105.253 38.6454 105.388 39.0472 105.556C39.0472 105.556 40.9388 106.287 40.9388 105.06V64.6419C40.9388 52.7074 50.6063 43 62.4836 43H99.0527C119.652 43 126.741 57.6241 131.152 64.1124C131.805 65.0706 131.47 66.4069 130.717 67.2978Z" fill="white"/>
<path d="M127.352 64.4067C125.854 62.314 121.903 56.5904 119.275 54.4556C117.082 52.6906 114.495 51.4299 111.256 51.6401C105.665 52.0015 101.019 56.7249 98.0732 60.2464C94.7335 64.2638 88.7824 67.3483 81.3162 69.3318C75.6664 70.8279 69.2967 70.0714 64.2495 69.7016C61.4622 69.4999 58.8926 69.2982 56.6913 69.4075C48.748 69.8109 44.0273 75.6521 44.2114 82.4263C44.4039 89.3012 49.1163 95.5543 49.1163 102.009C49.1163 107.069 45.0233 109.304 42.1942 109.304C38.821 109.304 38.5951 107.918 37.5655 107.918C37.147 107.918 36.6699 108.262 36.6699 108.817C36.6699 110.523 40.8466 112.153 43.2154 112.153C49.5432 112.153 52.1798 107.615 52.1798 107.615C52.1798 107.615 53.7952 112.313 60.0393 112.313C65.0112 112.313 67.1707 109.926 67.1707 107.926C67.1707 106.346 66.4257 105.766 65.7645 105.018C60.5081 100.101 58.7085 96.6721 59.5957 93.3019C60.4997 89.8644 64.1072 87.5867 66.8526 87.6203C66.8526 87.6203 63.0609 89.7467 62.2658 93.596C61.4455 97.5546 65.2707 101.572 66.8191 101.824C67.2293 101.891 67.9491 101.824 68.2588 101.791C71.0628 101.538 71.9668 100.21 71.9668 98.9162C71.9668 97.0503 69.7989 97.1848 69.7989 94.1255C69.7989 91.8142 71.0795 91.0494 72.2011 91.0494C73.4232 91.0494 78.0351 91.4949 83.618 92.0664C85.4845 92.2513 90.1383 94.0667 90.1383 101.32V103.925C90.1383 108.355 91.9128 113.826 99.7054 113.826C104.995 113.826 107.967 110.868 107.967 108.724C107.967 107.329 106.745 106.716 106.142 105.875C104.376 103.396 105.246 99.9499 105.246 99.9499H105.28C106.016 100.194 106.879 100.337 107.866 100.337C111.758 100.337 113.591 98.7817 113.591 96.9327C113.591 94.7643 110.679 94.7727 110.369 92.8648C109.992 90.4863 110.62 79.9469 114.696 74.1225L117.919 75.5765C118.396 75.795 118.965 75.6689 119.3 75.2571L127.302 65.8439C127.645 65.4321 127.662 64.8438 127.352 64.4067ZM72.5945 78.9888C65.4297 74.9966 58.0472 74.2065 54.2723 77.6944C51.0247 80.6949 51.4767 85.141 52.0793 87.6623C50.5225 86.0907 49.5516 83.9307 49.5516 81.5354C49.5516 76.7531 53.8036 72.1894 58.5662 72.1558C63.4041 72.1222 70.2593 73.3829 76.4364 72.8618C77.9598 80.1234 83.1827 85.0317 87.5771 88.2507C85.0828 87.3682 77.0977 81.4933 72.5945 78.9888ZM95.9556 108.607C97.0772 108.783 99.6803 109.203 100.81 108.094C98.9437 101.017 103.028 97.126 103.028 97.126V97.1596C102.945 97.6555 100.434 105.245 104.25 108.212C102.275 111.59 96.6754 109.54 95.9556 108.615V108.607Z" fill="#FF5C0A"/>
<path d="M119.3 60.9859C119.032 62.4819 117.358 63.4316 115.567 63.0955C113.776 62.7677 112.545 61.2885 112.813 59.8008C113.081 58.3048 114.755 57.3551 116.554 57.6829C118.346 58.0107 119.576 59.4899 119.3 60.9859Z" fill="white"/>
<path d="M108.134 58.8342C108.218 58.5568 109.222 55.2959 112.88 54.4386C116.462 53.6065 118.84 55.3967 118.84 55.3967C118.84 55.3967 116.211 53.9091 113.19 55.2874C110.729 56.3632 110.151 58.9603 110.109 59.2712C110.043 59.7587 109.616 60.1369 109.105 60.1369C108.544 60.1369 108.092 59.6831 108.092 59.12C108.092 59.0191 108.109 58.9182 108.134 58.8258V58.8342Z" fill="white"/>
<path d="M84.5469 72.6684C84.187 71.8111 84.7311 71.1388 85.3337 70.9539C85.9364 70.769 86.5809 70.9539 86.8906 71.7523C90.1298 80.0897 97.7048 84.645 107.54 85.4014C96.8845 85.9814 88.3637 81.7875 84.5469 72.6768V72.6684Z" fill="white"/>
<path d="M91.7705 69.4914C91.4859 68.8863 91.6449 68.1299 92.3899 67.7937C93.1348 67.4575 93.8044 67.7937 94.0555 68.4324C96.5331 74.7527 103.095 78.4592 109.339 79.2828C99.6719 79.0223 94.4573 75.1477 91.7705 69.4914Z" fill="white"/>
<path d="M98.1236 65.1462C97.7888 64.3057 98.3078 63.7258 98.81 63.4905C99.3122 63.2552 100.158 63.4064 100.476 64.2133C102.476 69.3485 106.536 71.9876 111.834 73.5004C104.728 73.0802 99.5716 68.8358 98.1236 65.1378V65.1462Z" fill="white"/>
<path d="M118.095 66.6085C114.127 68.3735 110.712 65.7681 110.536 65.6336C110.285 65.4487 110.126 65.1461 110.126 64.8099C110.126 64.2384 110.587 63.7846 111.147 63.7846C111.407 63.7846 111.65 63.8854 111.825 64.0451C112.018 64.2216 114.211 66.4657 117.835 65.5748C121.459 64.6839 121.978 61.322 121.978 61.322C121.978 61.322 122.104 64.8352 118.095 66.6085Z" fill="white"/>
</g>
<defs>
<clipPath id="clip0_16193_226737">
<rect width="97.7778" height="80.2279" fill="white" transform="translate(34 43)"/>
</clipPath>
</defs>
</svg>
