<svg width="101" height="40" viewBox="0 0 101 40" fill="none" xmlns="http://www.w3.org/2000/svg">
    <g clip-path="url(#clip0_6911_26394)">
        <path d="M20.77 1C20.77 6.46 16.35 10.88 10.89 10.88C5.43 10.88 1 6.46 1 1" stroke="#AD4573" stroke-width="2" stroke-linecap="round" stroke-linejoin="round"/>
        <path d="M40.5295 1C40.5295 6.46 36.1095 10.88 30.6495 10.88C25.1895 10.88 20.7695 6.46 20.7695 1" stroke="#AD4573" stroke-width="2" stroke-linecap="round" stroke-linejoin="round"/>
        <path d="M60.2991 1C60.2991 6.46 55.8791 10.88 50.4191 10.88C44.9591 10.88 40.5391 6.46 40.5391 1" stroke="#AD4573" stroke-width="2" stroke-linecap="round" stroke-linejoin="round"/>
        <path d="M80.0608 1C80.0608 6.46 75.6408 10.88 70.1808 10.88C64.7208 10.88 60.3008 6.46 60.3008 1" stroke="#AD4573" stroke-width="2" stroke-linecap="round" stroke-linejoin="round"/>
        <path d="M99.8303 1C99.8303 6.46 95.4103 10.88 89.9503 10.88C84.4903 10.88 80.0703 6.46 80.0703 1" stroke="#AD4573" stroke-width="2" stroke-linecap="round" stroke-linejoin="round"/>
        <path d="M20.77 14.9102C20.77 20.3702 16.35 24.7902 10.89 24.7902C5.43 24.7902 1 20.3702 1 14.9102" stroke="#AD4573" stroke-width="2" stroke-linecap="round" stroke-linejoin="round"/>
        <path d="M40.5295 14.9102C40.5295 20.3702 36.1095 24.7902 30.6495 24.7902C25.1895 24.7902 20.7695 20.3702 20.7695 14.9102" stroke="#AD4573" stroke-width="2" stroke-linecap="round" stroke-linejoin="round"/>
        <path d="M60.2991 14.9102C60.2991 20.3702 55.8791 24.7902 50.4191 24.7902C44.9591 24.7902 40.5391 20.3702 40.5391 14.9102" stroke="#AD4573" stroke-width="2" stroke-linecap="round" stroke-linejoin="round"/>
        <path d="M80.0608 14.9102C80.0608 20.3702 75.6408 24.7902 70.1808 24.7902C64.7208 24.7902 60.3008 20.3702 60.3008 14.9102" stroke="#AD4573" stroke-width="2" stroke-linecap="round" stroke-linejoin="round"/>
        <path d="M99.8303 14.9102C99.8303 20.3702 95.4103 24.7902 89.9503 24.7902C84.4903 24.7902 80.0703 20.3702 80.0703 14.9102" stroke="#AD4573" stroke-width="2" stroke-linecap="round" stroke-linejoin="round"/>
        <path d="M20.77 28.8203C20.77 34.2803 16.35 38.7003 10.89 38.7003C5.43 38.7003 1 34.2803 1 28.8203" stroke="#AD4573" stroke-width="2" stroke-linecap="round" stroke-linejoin="round"/>
        <path d="M40.5295 28.8203C40.5295 34.2803 36.1095 38.7003 30.6495 38.7003C25.1895 38.7003 20.7695 34.2803 20.7695 28.8203" stroke="#AD4573" stroke-width="2" stroke-linecap="round" stroke-linejoin="round"/>
        <path d="M60.2991 28.8203C60.2991 34.2803 55.8791 38.7003 50.4191 38.7003C44.9591 38.7003 40.5391 34.2803 40.5391 28.8203" stroke="#AD4573" stroke-width="2" stroke-linecap="round" stroke-linejoin="round"/>
        <path d="M80.0608 28.8203C80.0608 34.2803 75.6408 38.7003 70.1808 38.7003C64.7208 38.7003 60.3008 34.2803 60.3008 28.8203" stroke="#AD4573" stroke-width="2" stroke-linecap="round" stroke-linejoin="round"/>
        <path d="M99.8303 28.8203C99.8303 34.2803 95.4103 38.7003 89.9503 38.7003C84.4903 38.7003 80.0703 34.2803 80.0703 28.8203" stroke="#AD4573" stroke-width="2" stroke-linecap="round" stroke-linejoin="round"/>
    </g>
    <defs>
        <clipPath id="clip0_6911_26394">
            <rect width="100.83" height="39.7" fill="white"/>
        </clipPath>
    </defs>
</svg>
