<?xml version="1.0" encoding="UTF-8"?>
<svg xmlns="http://www.w3.org/2000/svg" style="pointer-events: none; display: block; width: 100%; height: 100%;" width="36" height="36" viewBox="0 0 36 36" fill="none">
    <g clip-path="url(#clip0_2556_50879)">
        <path fill-rule="evenodd" clip-rule="evenodd" d="M17.2026 17.8543H9.88782V13.1854H5.19922V6.66889H9.88782V2H17.1455V6.66889H21.8912V13.1854H21.8199H17.2026V17.8543ZM22.7049 6.68312C25.6737 6.81104 27.9859 7.64248 29.6487 9.17746C31.4613 10.8546 32.3676 13.1073 32.3605 15.9427C32.3605 18.7 31.4684 20.903 29.6701 22.5517C27.8717 24.2003 25.324 25.0247 22.0127 25.0247H17.2028L17.2027 34H9.88792L9.888 18.6503H17.2028H21.82C22.7406 18.6503 23.4971 18.4086 24.0894 17.9254C24.6817 17.4422 24.9743 16.7813 24.9743 15.9356C24.9743 15.0686 24.6817 14.3864 24.0894 13.9032C23.6969 13.5834 23.2402 13.3702 22.7049 13.2636V6.68312Z" fill="#FF600A"/>
    </g>
    <defs>
        <clipPath id="clip0_2556_50879">
            <rect width="32" height="32" fill="white" transform="translate(2 2)"/>
        </clipPath>
    </defs>
</svg>
