<svg width="94" height="51" viewBox="0 0 94 51" fill="none" xmlns="http://www.w3.org/2000/svg">
<path d="M57.9543 29.7827H46.4841V41.5236C46.4841 46.6318 50.5393 50.7827 55.5298 50.7827H57.9543C62.9448 50.7827 67 46.6318 67 41.5236V39.0419C67 33.9336 62.9448 29.7827 57.9543 29.7827Z" fill="#E53F00"/>
<path d="M34.7082 29.7827H23.238V41.5236C23.238 46.6318 27.2932 50.7827 32.2837 50.7827H34.7082C39.6987 50.7827 43.7539 46.6318 43.7539 41.5236V39.0419C43.7539 33.9336 39.6987 29.7827 34.7082 29.7827Z" fill="#F3AC2B"/>
<path d="M20.5156 40.2827C20.5156 46.0839 15.9251 50.7827 10.2577 50.7827V29.7827C15.9251 29.7827 20.5156 34.4816 20.5156 40.2827Z" fill="#E53F00"/>
<path d="M10.2578 29.7827V50.7827C4.59041 50.7827 -0.000130623 46.0839 -0.000130623 40.2827V29.7827H10.2578Z" fill="#F3AC2B"/>
<path d="M86.784 23.3261L82.9756 19.0495L82.9971 24.7827L80.9821 19.4226L78.9386 24.7755L78.9886 19.0423L75.1588 23.2902L77.2666 17.966L72.165 20.5348L76.0448 16.3372L70.3644 16.8825L75.4946 14.3711L70 12.8212L75.6876 12.3404L71.1218 8.90339L76.595 10.5179L73.5797 5.66008L78.1026 9.15453L77.0309 3.52179L79.9961 8.42264L81.025 2.78271L82.0253 8.42981L85.012 3.54331L83.9188 9.16889L88.4631 5.69596L85.4121 10.5466L90.8996 8.9608L86.3124 12.3691L92 12.8858L86.4911 14.3998L91.6142 16.9399L85.9337 16.3587L89.7921 20.5851L84.7048 17.9875L86.784 23.3261Z" fill="#F3AC2B"/>
</svg>
